%TF.GenerationSoftware,KiCad,Pcbnew,6.0.2+dfsg-1*%
%TF.CreationDate,2023-02-09T12:57:16+13:00*%
%TF.ProjectId,BRAWN-100_LOGIC,42524157-4e2d-4313-9030-5f4c4f474943,v1.0*%
%TF.SameCoordinates,Original*%
%TF.FileFunction,Copper,L2,Inr*%
%TF.FilePolarity,Positive*%
%FSLAX46Y46*%
G04 Gerber Fmt 4.6, Leading zero omitted, Abs format (unit mm)*
G04 Created by KiCad (PCBNEW 6.0.2+dfsg-1) date 2023-02-09 12:57:16*
%MOMM*%
%LPD*%
G01*
G04 APERTURE LIST*
%TA.AperFunction,ComponentPad*%
%ADD10C,1.400000*%
%TD*%
%TA.AperFunction,ComponentPad*%
%ADD11C,1.700000*%
%TD*%
%TA.AperFunction,ComponentPad*%
%ADD12O,1.700000X1.700000*%
%TD*%
%TA.AperFunction,ViaPad*%
%ADD13C,0.700000*%
%TD*%
G04 APERTURE END LIST*
D10*
%TO.N,Net-(H2-Pad1)*%
%TO.C,H2*%
X201000000Y-146000000D03*
%TD*%
D11*
%TO.N,/MOTOR-*%
%TO.C,J2*%
X186030000Y-146190000D03*
D12*
%TO.N,/GATE_N1*%
X186030000Y-148730000D03*
%TO.N,/MOTOR+*%
X186030000Y-151270000D03*
%TO.N,/GATE_N2*%
X186030000Y-153810000D03*
%TD*%
D11*
%TO.N,+BATT*%
%TO.C,J1*%
X213995000Y-146290000D03*
D12*
%TO.N,GND*%
X213995000Y-148830000D03*
%TO.N,/GATE_P1*%
X213995000Y-151370000D03*
%TO.N,/GATE_P2*%
X213995000Y-153910000D03*
%TD*%
D10*
%TO.N,GND*%
%TO.C,H1*%
X197000000Y-146000000D03*
%TD*%
D13*
%TO.N,GND*%
X190550000Y-146775000D03*
X215200000Y-152625000D03*
X215125000Y-150075000D03*
X215150000Y-147675000D03*
X184700000Y-152600000D03*
X184750000Y-150075000D03*
X184800000Y-147450000D03*
X190775000Y-149725000D03*
X205925000Y-148450000D03*
X204425000Y-147450000D03*
X209450000Y-149750000D03*
X211300000Y-147600000D03*
X209950000Y-147600000D03*
X209900000Y-146350000D03*
X211300000Y-146200000D03*
X210150000Y-145050000D03*
X211200000Y-145050000D03*
X211250000Y-151050000D03*
X212275000Y-152250000D03*
X211700000Y-154946365D03*
X213050000Y-154950000D03*
X190450000Y-154949989D03*
X191747168Y-154952832D03*
X190425000Y-152350000D03*
%TO.N,/FET_N2*%
X192150000Y-146875000D03*
%TO.N,/FET_P2*%
X192200000Y-148150000D03*
%TO.N,/FET_P1*%
X192075000Y-152652450D03*
%TO.N,/FET_N1*%
X192100000Y-151500000D03*
%TO.N,GND*%
X194950000Y-150625000D03*
X197464976Y-150972644D03*
%TO.N,+3V3*%
X201244141Y-152275609D03*
%TO.N,/SWDIO*%
X199972881Y-152852432D03*
%TO.N,/SWDCLK*%
X197752122Y-152156781D03*
%TO.N,/nRST*%
X202036964Y-152700500D03*
%TO.N,/FET_P1*%
X204275000Y-149175000D03*
%TO.N,/FET_P2*%
X204300000Y-151000497D03*
%TO.N,/FET_N2*%
X204300000Y-151900000D03*
%TO.N,GND*%
X203727358Y-152652449D03*
%TO.N,/FET_N1*%
X204300000Y-150100994D03*
%TO.N,/GATE_P2*%
X189417803Y-148114866D03*
%TO.N,/GATE_P1*%
X189450000Y-153051969D03*
%TO.N,/GATE_N2*%
X189305113Y-145600000D03*
%TO.N,GND*%
X192490247Y-145589866D03*
X208796613Y-154955962D03*
X207840247Y-151439866D03*
X192490247Y-150639866D03*
X205497111Y-154950000D03*
X196200000Y-154950000D03*
X209750000Y-154950000D03*
X211315247Y-149739866D03*
X204275000Y-154950000D03*
%TO.N,+12V*%
X206540247Y-151489866D03*
X189440247Y-149414866D03*
X197775000Y-154300972D03*
X189490247Y-154439866D03*
%TO.N,Net-(JP1-Pad2)*%
X209115247Y-151439866D03*
%TD*%
%TA.AperFunction,Conductor*%
%TO.N,GND*%
G36*
X194492121Y-144720002D02*
G01*
X194538614Y-144773658D01*
X194550000Y-144826000D01*
X194550000Y-147462688D01*
X194546746Y-147491137D01*
X194544858Y-147499284D01*
X194544857Y-147500000D01*
X194546439Y-147506937D01*
X194546602Y-147508391D01*
X194548726Y-147521460D01*
X194560129Y-147637224D01*
X194561924Y-147643140D01*
X194561924Y-147643142D01*
X194571614Y-147675087D01*
X194600155Y-147769175D01*
X194633035Y-147830688D01*
X194659395Y-147880004D01*
X194665155Y-147890781D01*
X194752631Y-147997369D01*
X194859219Y-148084845D01*
X194980825Y-148149845D01*
X195008329Y-148158188D01*
X195106858Y-148188076D01*
X195106860Y-148188076D01*
X195112776Y-148189871D01*
X195189144Y-148197393D01*
X195227454Y-148201167D01*
X195240665Y-148203339D01*
X195242332Y-148203531D01*
X195249284Y-148205142D01*
X195250000Y-148205143D01*
X195256937Y-148203561D01*
X195258391Y-148203398D01*
X195271460Y-148201274D01*
X195323459Y-148196152D01*
X195387224Y-148189871D01*
X195393140Y-148188076D01*
X195393142Y-148188076D01*
X195491671Y-148158188D01*
X195519175Y-148149845D01*
X195640781Y-148084845D01*
X195747369Y-147997369D01*
X195834845Y-147890781D01*
X195840606Y-147880004D01*
X195866965Y-147830688D01*
X195899845Y-147769175D01*
X195928386Y-147675087D01*
X195938076Y-147643142D01*
X195938076Y-147643140D01*
X195939871Y-147637224D01*
X195951167Y-147522546D01*
X195953339Y-147509335D01*
X195953531Y-147507669D01*
X195955142Y-147500716D01*
X195955143Y-147500000D01*
X195953154Y-147491282D01*
X195950000Y-147463267D01*
X195950000Y-144826000D01*
X195970002Y-144757879D01*
X196023658Y-144711386D01*
X196076000Y-144700000D01*
X197924000Y-144700000D01*
X197992121Y-144720002D01*
X198038614Y-144773658D01*
X198050000Y-144826000D01*
X198050000Y-147462688D01*
X198046746Y-147491137D01*
X198044858Y-147499284D01*
X198044857Y-147500000D01*
X198046439Y-147506937D01*
X198046602Y-147508391D01*
X198048726Y-147521460D01*
X198060129Y-147637224D01*
X198061924Y-147643140D01*
X198061924Y-147643142D01*
X198071614Y-147675087D01*
X198100155Y-147769175D01*
X198133035Y-147830688D01*
X198159395Y-147880004D01*
X198165155Y-147890781D01*
X198252631Y-147997369D01*
X198359219Y-148084845D01*
X198480825Y-148149845D01*
X198508329Y-148158188D01*
X198606858Y-148188076D01*
X198606860Y-148188076D01*
X198612776Y-148189871D01*
X198689144Y-148197393D01*
X198727454Y-148201167D01*
X198740665Y-148203339D01*
X198742331Y-148203531D01*
X198749284Y-148205142D01*
X198750000Y-148205143D01*
X198758718Y-148203154D01*
X198786733Y-148200000D01*
X199212688Y-148200000D01*
X199241137Y-148203254D01*
X199249284Y-148205142D01*
X199250000Y-148205143D01*
X199256937Y-148203561D01*
X199258391Y-148203398D01*
X199271460Y-148201274D01*
X199323459Y-148196152D01*
X199387224Y-148189871D01*
X199393140Y-148188076D01*
X199393142Y-148188076D01*
X199491671Y-148158188D01*
X199519175Y-148149845D01*
X199640781Y-148084845D01*
X199747369Y-147997369D01*
X199834845Y-147890781D01*
X199840606Y-147880004D01*
X199866965Y-147830688D01*
X199899845Y-147769175D01*
X199928386Y-147675087D01*
X199938076Y-147643142D01*
X199938076Y-147643140D01*
X199939871Y-147637224D01*
X199951167Y-147522546D01*
X199953339Y-147509335D01*
X199953531Y-147507669D01*
X199955142Y-147500716D01*
X199955143Y-147500000D01*
X199953154Y-147491282D01*
X199950000Y-147463267D01*
X199950000Y-146452585D01*
X199970002Y-146384464D01*
X200023658Y-146337971D01*
X200093932Y-146327867D01*
X200158512Y-146357361D01*
X200185119Y-146389585D01*
X200267467Y-146532216D01*
X200271885Y-146537123D01*
X200271886Y-146537124D01*
X200350747Y-146624707D01*
X200394129Y-146672888D01*
X200399468Y-146676767D01*
X200508993Y-146756341D01*
X200547270Y-146784151D01*
X200720197Y-146861144D01*
X200818212Y-146881978D01*
X200898897Y-146899128D01*
X200898901Y-146899128D01*
X200905354Y-146900500D01*
X201094646Y-146900500D01*
X201101099Y-146899128D01*
X201101103Y-146899128D01*
X201181788Y-146881978D01*
X201279803Y-146861144D01*
X201452730Y-146784151D01*
X201491008Y-146756341D01*
X201600532Y-146676767D01*
X201605871Y-146672888D01*
X201649254Y-146624707D01*
X201728114Y-146537124D01*
X201728115Y-146537123D01*
X201732533Y-146532216D01*
X201814881Y-146389585D01*
X201866263Y-146340592D01*
X201935977Y-146327156D01*
X202001888Y-146353542D01*
X202043070Y-146411374D01*
X202050000Y-146452585D01*
X202050000Y-147462688D01*
X202046746Y-147491137D01*
X202044858Y-147499284D01*
X202044857Y-147500000D01*
X202046439Y-147506937D01*
X202046602Y-147508391D01*
X202048726Y-147521460D01*
X202060129Y-147637224D01*
X202061924Y-147643140D01*
X202061924Y-147643142D01*
X202071614Y-147675087D01*
X202100155Y-147769175D01*
X202133035Y-147830688D01*
X202159395Y-147880004D01*
X202165155Y-147890781D01*
X202252631Y-147997369D01*
X202359219Y-148084845D01*
X202480825Y-148149845D01*
X202508329Y-148158188D01*
X202606858Y-148188076D01*
X202606860Y-148188076D01*
X202612776Y-148189871D01*
X202689144Y-148197393D01*
X202727454Y-148201167D01*
X202740665Y-148203339D01*
X202742332Y-148203531D01*
X202749284Y-148205142D01*
X202750000Y-148205143D01*
X202756937Y-148203561D01*
X202758391Y-148203398D01*
X202771460Y-148201274D01*
X202823459Y-148196152D01*
X202887224Y-148189871D01*
X202893140Y-148188076D01*
X202893142Y-148188076D01*
X202991671Y-148158188D01*
X203019175Y-148149845D01*
X203140781Y-148084845D01*
X203247369Y-147997369D01*
X203334845Y-147890781D01*
X203340606Y-147880004D01*
X203366965Y-147830688D01*
X203399845Y-147769175D01*
X203428386Y-147675087D01*
X203438076Y-147643142D01*
X203438076Y-147643140D01*
X203439871Y-147637224D01*
X203451167Y-147522546D01*
X203453339Y-147509335D01*
X203453531Y-147507669D01*
X203455142Y-147500716D01*
X203455143Y-147500000D01*
X203453154Y-147491282D01*
X203450000Y-147463267D01*
X203450000Y-146275262D01*
X212939520Y-146275262D01*
X212940036Y-146281406D01*
X212951999Y-146423863D01*
X212956759Y-146480553D01*
X212958458Y-146486478D01*
X212996557Y-146619344D01*
X213013544Y-146678586D01*
X213016359Y-146684063D01*
X213016360Y-146684066D01*
X213104897Y-146856341D01*
X213107712Y-146861818D01*
X213235677Y-147023270D01*
X213392564Y-147156791D01*
X213397942Y-147159797D01*
X213397944Y-147159798D01*
X213429563Y-147177469D01*
X213572398Y-147257297D01*
X213667238Y-147288112D01*
X213762471Y-147319056D01*
X213762475Y-147319057D01*
X213768329Y-147320959D01*
X213972894Y-147345351D01*
X213979029Y-147344879D01*
X213979031Y-147344879D01*
X214035039Y-147340569D01*
X214178300Y-147329546D01*
X214184230Y-147327890D01*
X214184232Y-147327890D01*
X214370797Y-147275800D01*
X214370796Y-147275800D01*
X214376725Y-147274145D01*
X214382214Y-147271372D01*
X214382220Y-147271370D01*
X214555116Y-147184033D01*
X214560610Y-147181258D01*
X214569715Y-147174145D01*
X214688605Y-147081258D01*
X214722951Y-147054424D01*
X214747193Y-147026340D01*
X214853540Y-146903134D01*
X214853540Y-146903133D01*
X214857564Y-146898472D01*
X214875550Y-146866812D01*
X214896056Y-146830714D01*
X214959323Y-146719344D01*
X215024351Y-146523863D01*
X215050171Y-146319474D01*
X215050583Y-146290000D01*
X215030480Y-146084970D01*
X214970935Y-145887749D01*
X214874218Y-145705849D01*
X214792660Y-145605849D01*
X214747906Y-145550975D01*
X214747903Y-145550972D01*
X214744011Y-145546200D01*
X214726786Y-145531950D01*
X214590025Y-145418811D01*
X214590021Y-145418809D01*
X214585275Y-145414882D01*
X214404055Y-145316897D01*
X214207254Y-145255977D01*
X214201129Y-145255333D01*
X214201128Y-145255333D01*
X214008498Y-145235087D01*
X214008496Y-145235087D01*
X214002369Y-145234443D01*
X213915529Y-145242346D01*
X213803342Y-145252555D01*
X213803339Y-145252556D01*
X213797203Y-145253114D01*
X213599572Y-145311280D01*
X213594107Y-145314137D01*
X213559910Y-145332015D01*
X213417002Y-145406726D01*
X213412201Y-145410586D01*
X213412198Y-145410588D01*
X213278142Y-145518372D01*
X213256447Y-145535815D01*
X213124024Y-145693630D01*
X213121056Y-145699028D01*
X213121053Y-145699033D01*
X213069038Y-145793649D01*
X213024776Y-145874162D01*
X212962484Y-146070532D01*
X212961798Y-146076649D01*
X212961797Y-146076653D01*
X212940207Y-146269137D01*
X212939520Y-146275262D01*
X203450000Y-146275262D01*
X203450000Y-144826000D01*
X203470002Y-144757879D01*
X203523658Y-144711386D01*
X203576000Y-144700000D01*
X214962976Y-144700000D01*
X214980182Y-144701953D01*
X214985813Y-144701963D01*
X214999642Y-144705143D01*
X215013481Y-144702011D01*
X215014472Y-144702013D01*
X215026601Y-144702620D01*
X215052218Y-144705143D01*
X215143722Y-144714156D01*
X215167939Y-144718972D01*
X215294273Y-144757294D01*
X215317093Y-144766747D01*
X215433511Y-144828974D01*
X215454048Y-144842697D01*
X215556092Y-144926442D01*
X215573558Y-144943908D01*
X215657303Y-145045952D01*
X215671026Y-145066489D01*
X215733253Y-145182907D01*
X215742706Y-145205726D01*
X215781028Y-145332061D01*
X215785844Y-145356278D01*
X215793298Y-145431950D01*
X215797429Y-145473898D01*
X215798010Y-145485930D01*
X215794857Y-145499642D01*
X215797989Y-145513482D01*
X215797980Y-145518372D01*
X215800000Y-145536448D01*
X215800000Y-154462976D01*
X215798047Y-154480182D01*
X215798037Y-154485813D01*
X215794857Y-154499642D01*
X215797989Y-154513481D01*
X215797987Y-154514472D01*
X215797380Y-154526601D01*
X215785845Y-154643719D01*
X215781028Y-154667939D01*
X215742745Y-154794145D01*
X215742706Y-154794273D01*
X215733253Y-154817093D01*
X215671026Y-154933511D01*
X215657303Y-154954048D01*
X215573558Y-155056092D01*
X215556092Y-155073558D01*
X215454048Y-155157303D01*
X215433511Y-155171026D01*
X215317093Y-155233253D01*
X215294274Y-155242706D01*
X215167939Y-155281028D01*
X215143722Y-155285844D01*
X215046147Y-155295455D01*
X215026102Y-155297429D01*
X215014070Y-155298010D01*
X215000358Y-155294857D01*
X214986518Y-155297989D01*
X214981628Y-155297980D01*
X214963552Y-155300000D01*
X185037024Y-155300000D01*
X185019818Y-155298047D01*
X185014187Y-155298037D01*
X185000358Y-155294857D01*
X184986519Y-155297989D01*
X184985528Y-155297987D01*
X184973399Y-155297380D01*
X184946607Y-155294741D01*
X184856278Y-155285844D01*
X184832061Y-155281028D01*
X184705726Y-155242706D01*
X184682907Y-155233253D01*
X184566489Y-155171026D01*
X184545952Y-155157303D01*
X184443908Y-155073558D01*
X184426442Y-155056092D01*
X184342697Y-154954048D01*
X184328974Y-154933511D01*
X184266747Y-154817093D01*
X184257294Y-154794273D01*
X184257255Y-154794145D01*
X184218972Y-154667939D01*
X184214155Y-154643719D01*
X184208232Y-154583575D01*
X184202571Y-154526102D01*
X184201990Y-154514070D01*
X184205143Y-154500358D01*
X184202011Y-154486518D01*
X184202020Y-154481628D01*
X184200000Y-154463552D01*
X184200000Y-153795262D01*
X184974520Y-153795262D01*
X184975036Y-153801406D01*
X184984567Y-153914901D01*
X184991759Y-154000553D01*
X184993458Y-154006478D01*
X185034507Y-154149632D01*
X185048544Y-154198586D01*
X185051359Y-154204063D01*
X185051360Y-154204066D01*
X185139897Y-154376341D01*
X185142712Y-154381818D01*
X185270677Y-154543270D01*
X185275370Y-154547264D01*
X185275371Y-154547265D01*
X185419310Y-154669766D01*
X185427564Y-154676791D01*
X185432942Y-154679797D01*
X185432944Y-154679798D01*
X185471342Y-154701258D01*
X185607398Y-154777297D01*
X185669481Y-154797469D01*
X185797471Y-154839056D01*
X185797475Y-154839057D01*
X185803329Y-154840959D01*
X186007894Y-154865351D01*
X186014029Y-154864879D01*
X186014031Y-154864879D01*
X186070039Y-154860569D01*
X186213300Y-154849546D01*
X186219230Y-154847890D01*
X186219232Y-154847890D01*
X186386249Y-154801258D01*
X186411725Y-154794145D01*
X186417214Y-154791372D01*
X186417220Y-154791370D01*
X186590116Y-154704033D01*
X186595610Y-154701258D01*
X186613805Y-154687043D01*
X186753101Y-154578213D01*
X186757951Y-154574424D01*
X186799231Y-154526601D01*
X186874098Y-154439866D01*
X188934997Y-154439866D01*
X188953917Y-154583575D01*
X189009386Y-154717491D01*
X189097626Y-154832487D01*
X189212622Y-154920727D01*
X189346538Y-154976196D01*
X189490247Y-154995116D01*
X189633956Y-154976196D01*
X189767872Y-154920727D01*
X189882868Y-154832487D01*
X189971108Y-154717491D01*
X190026577Y-154583575D01*
X190045497Y-154439866D01*
X190027211Y-154300972D01*
X197219750Y-154300972D01*
X197238670Y-154444681D01*
X197294139Y-154578597D01*
X197382379Y-154693593D01*
X197497375Y-154781833D01*
X197631291Y-154837302D01*
X197775000Y-154856222D01*
X197918709Y-154837302D01*
X198052625Y-154781833D01*
X198167621Y-154693593D01*
X198255861Y-154578597D01*
X198311330Y-154444681D01*
X198330250Y-154300972D01*
X198311330Y-154157263D01*
X198255861Y-154023347D01*
X198167621Y-153908351D01*
X198150563Y-153895262D01*
X212939520Y-153895262D01*
X212940036Y-153901406D01*
X212952833Y-154053795D01*
X212956759Y-154100553D01*
X212958458Y-154106478D01*
X212996557Y-154239344D01*
X213013544Y-154298586D01*
X213016359Y-154304063D01*
X213016360Y-154304066D01*
X213104897Y-154476341D01*
X213107712Y-154481818D01*
X213235677Y-154643270D01*
X213240370Y-154647264D01*
X213240371Y-154647265D01*
X213322887Y-154717491D01*
X213392564Y-154776791D01*
X213397942Y-154779797D01*
X213397944Y-154779798D01*
X213429563Y-154797469D01*
X213572398Y-154877297D01*
X213667238Y-154908112D01*
X213762471Y-154939056D01*
X213762475Y-154939057D01*
X213768329Y-154940959D01*
X213972894Y-154965351D01*
X213979029Y-154964879D01*
X213979031Y-154964879D01*
X214035039Y-154960569D01*
X214178300Y-154949546D01*
X214184230Y-154947890D01*
X214184232Y-154947890D01*
X214370797Y-154895800D01*
X214370796Y-154895800D01*
X214376725Y-154894145D01*
X214382214Y-154891372D01*
X214382220Y-154891370D01*
X214555116Y-154804033D01*
X214560610Y-154801258D01*
X214569551Y-154794273D01*
X214688605Y-154701258D01*
X214722951Y-154674424D01*
X214728544Y-154667945D01*
X214853540Y-154523134D01*
X214853540Y-154523133D01*
X214857564Y-154518472D01*
X214862132Y-154510432D01*
X214906870Y-154431678D01*
X214959323Y-154339344D01*
X215024351Y-154143863D01*
X215050171Y-153939474D01*
X215050390Y-153923806D01*
X215050534Y-153913522D01*
X215050534Y-153913518D01*
X215050583Y-153910000D01*
X215030480Y-153704970D01*
X214970935Y-153507749D01*
X214874218Y-153325849D01*
X214792660Y-153225849D01*
X214747906Y-153170975D01*
X214747903Y-153170972D01*
X214744011Y-153166200D01*
X214691100Y-153122428D01*
X214590025Y-153038811D01*
X214590021Y-153038809D01*
X214585275Y-153034882D01*
X214404055Y-152936897D01*
X214207254Y-152875977D01*
X214201129Y-152875333D01*
X214201128Y-152875333D01*
X214008498Y-152855087D01*
X214008496Y-152855087D01*
X214002369Y-152854443D01*
X213915529Y-152862346D01*
X213803342Y-152872555D01*
X213803339Y-152872556D01*
X213797203Y-152873114D01*
X213599572Y-152931280D01*
X213417002Y-153026726D01*
X213412201Y-153030586D01*
X213412198Y-153030588D01*
X213284436Y-153133311D01*
X213256447Y-153155815D01*
X213124024Y-153313630D01*
X213121056Y-153319028D01*
X213121053Y-153319033D01*
X213069038Y-153413649D01*
X213024776Y-153494162D01*
X212962484Y-153690532D01*
X212961798Y-153696649D01*
X212961797Y-153696653D01*
X212940714Y-153884616D01*
X212939520Y-153895262D01*
X198150563Y-153895262D01*
X198052625Y-153820111D01*
X197918709Y-153764642D01*
X197775000Y-153745722D01*
X197631291Y-153764642D01*
X197497375Y-153820111D01*
X197382379Y-153908351D01*
X197294139Y-154023347D01*
X197238670Y-154157263D01*
X197219750Y-154300972D01*
X190027211Y-154300972D01*
X190026577Y-154296157D01*
X189971108Y-154162241D01*
X189882868Y-154047245D01*
X189767872Y-153959005D01*
X189633956Y-153903536D01*
X189490247Y-153884616D01*
X189346538Y-153903536D01*
X189212622Y-153959005D01*
X189097626Y-154047245D01*
X189009386Y-154162241D01*
X188953917Y-154296157D01*
X188934997Y-154439866D01*
X186874098Y-154439866D01*
X186888540Y-154423134D01*
X186888540Y-154423133D01*
X186892564Y-154418472D01*
X186913387Y-154381818D01*
X186960669Y-154298586D01*
X186994323Y-154239344D01*
X187059351Y-154043863D01*
X187085171Y-153839474D01*
X187085583Y-153810000D01*
X187065480Y-153604970D01*
X187005935Y-153407749D01*
X186909218Y-153225849D01*
X186824870Y-153122428D01*
X186782906Y-153070975D01*
X186782903Y-153070972D01*
X186779011Y-153066200D01*
X186772173Y-153060543D01*
X186761809Y-153051969D01*
X188894750Y-153051969D01*
X188913670Y-153195678D01*
X188969139Y-153329594D01*
X189057379Y-153444590D01*
X189172375Y-153532830D01*
X189306291Y-153588299D01*
X189450000Y-153607219D01*
X189593709Y-153588299D01*
X189727625Y-153532830D01*
X189842621Y-153444590D01*
X189930861Y-153329594D01*
X189986330Y-153195678D01*
X190005250Y-153051969D01*
X189986330Y-152908260D01*
X189930861Y-152774344D01*
X189842621Y-152659348D01*
X189833631Y-152652450D01*
X191519750Y-152652450D01*
X191538670Y-152796159D01*
X191594139Y-152930075D01*
X191682379Y-153045071D01*
X191797375Y-153133311D01*
X191931291Y-153188780D01*
X192075000Y-153207700D01*
X192218709Y-153188780D01*
X192352625Y-153133311D01*
X192467621Y-153045071D01*
X192555861Y-152930075D01*
X192588021Y-152852432D01*
X199417631Y-152852432D01*
X199436551Y-152996141D01*
X199492020Y-153130057D01*
X199580260Y-153245053D01*
X199695256Y-153333293D01*
X199829172Y-153388762D01*
X199972881Y-153407682D01*
X200116590Y-153388762D01*
X200250506Y-153333293D01*
X200365502Y-153245053D01*
X200453742Y-153130057D01*
X200509211Y-152996141D01*
X200528131Y-152852432D01*
X200509211Y-152708723D01*
X200453742Y-152574807D01*
X200365502Y-152459811D01*
X200250506Y-152371571D01*
X200116590Y-152316102D01*
X199972881Y-152297182D01*
X199829172Y-152316102D01*
X199695256Y-152371571D01*
X199580260Y-152459811D01*
X199492020Y-152574807D01*
X199436551Y-152708723D01*
X199417631Y-152852432D01*
X192588021Y-152852432D01*
X192611330Y-152796159D01*
X192630250Y-152652450D01*
X192611330Y-152508741D01*
X192555861Y-152374825D01*
X192467621Y-152259829D01*
X192438257Y-152237297D01*
X192370198Y-152185073D01*
X192349540Y-152156781D01*
X197196872Y-152156781D01*
X197215792Y-152300490D01*
X197271261Y-152434406D01*
X197359501Y-152549402D01*
X197474497Y-152637642D01*
X197608413Y-152693111D01*
X197752122Y-152712031D01*
X197895831Y-152693111D01*
X198029747Y-152637642D01*
X198144743Y-152549402D01*
X198232983Y-152434406D01*
X198288452Y-152300490D01*
X198291728Y-152275609D01*
X200688891Y-152275609D01*
X200707811Y-152419318D01*
X200763280Y-152553234D01*
X200851520Y-152668230D01*
X200966516Y-152756470D01*
X201100432Y-152811939D01*
X201244141Y-152830859D01*
X201386270Y-152812147D01*
X201456418Y-152823086D01*
X201509517Y-152870214D01*
X201519125Y-152888851D01*
X201556103Y-152978125D01*
X201644343Y-153093121D01*
X201759339Y-153181361D01*
X201893255Y-153236830D01*
X202036964Y-153255750D01*
X202180673Y-153236830D01*
X202314589Y-153181361D01*
X202429585Y-153093121D01*
X202517825Y-152978125D01*
X202573294Y-152844209D01*
X202592214Y-152700500D01*
X202573294Y-152556791D01*
X202517825Y-152422875D01*
X202429585Y-152307879D01*
X202314589Y-152219639D01*
X202180673Y-152164170D01*
X202036964Y-152145250D01*
X201894835Y-152163962D01*
X201824687Y-152153023D01*
X201771588Y-152105895D01*
X201761980Y-152087258D01*
X201758420Y-152078664D01*
X201725002Y-151997984D01*
X201636762Y-151882988D01*
X201521766Y-151794748D01*
X201387850Y-151739279D01*
X201244141Y-151720359D01*
X201100432Y-151739279D01*
X200966516Y-151794748D01*
X200851520Y-151882988D01*
X200763280Y-151997984D01*
X200707811Y-152131900D01*
X200688891Y-152275609D01*
X198291728Y-152275609D01*
X198307372Y-152156781D01*
X198288452Y-152013072D01*
X198232983Y-151879156D01*
X198144743Y-151764160D01*
X198029747Y-151675920D01*
X197895831Y-151620451D01*
X197752122Y-151601531D01*
X197608413Y-151620451D01*
X197474497Y-151675920D01*
X197359501Y-151764160D01*
X197271261Y-151879156D01*
X197215792Y-152013072D01*
X197196872Y-152156781D01*
X192349540Y-152156781D01*
X192328331Y-152127735D01*
X192324109Y-152056864D01*
X192358873Y-151994961D01*
X192377300Y-151980996D01*
X192377625Y-151980861D01*
X192492621Y-151892621D01*
X192580861Y-151777625D01*
X192636330Y-151643709D01*
X192655250Y-151500000D01*
X192636330Y-151356291D01*
X192580861Y-151222375D01*
X192492621Y-151107379D01*
X192377625Y-151019139D01*
X192243709Y-150963670D01*
X192100000Y-150944750D01*
X191956291Y-150963670D01*
X191822375Y-151019139D01*
X191707379Y-151107379D01*
X191619139Y-151222375D01*
X191563670Y-151356291D01*
X191544750Y-151500000D01*
X191563670Y-151643709D01*
X191619139Y-151777625D01*
X191707379Y-151892621D01*
X191713929Y-151897647D01*
X191804802Y-151967377D01*
X191846669Y-152024715D01*
X191850891Y-152095586D01*
X191816127Y-152157489D01*
X191797700Y-152171454D01*
X191797375Y-152171589D01*
X191790824Y-152176616D01*
X191790822Y-152176617D01*
X191711743Y-152237297D01*
X191682379Y-152259829D01*
X191594139Y-152374825D01*
X191538670Y-152508741D01*
X191519750Y-152652450D01*
X189833631Y-152652450D01*
X189727625Y-152571108D01*
X189593709Y-152515639D01*
X189450000Y-152496719D01*
X189306291Y-152515639D01*
X189172375Y-152571108D01*
X189057379Y-152659348D01*
X188969139Y-152774344D01*
X188913670Y-152908260D01*
X188894750Y-153051969D01*
X186761809Y-153051969D01*
X186625025Y-152938811D01*
X186625021Y-152938809D01*
X186620275Y-152934882D01*
X186439055Y-152836897D01*
X186242254Y-152775977D01*
X186236129Y-152775333D01*
X186236128Y-152775333D01*
X186043498Y-152755087D01*
X186043496Y-152755087D01*
X186037369Y-152754443D01*
X185950529Y-152762346D01*
X185838342Y-152772555D01*
X185838339Y-152772556D01*
X185832203Y-152773114D01*
X185634572Y-152831280D01*
X185452002Y-152926726D01*
X185447201Y-152930586D01*
X185447198Y-152930588D01*
X185312956Y-153038521D01*
X185291447Y-153055815D01*
X185159024Y-153213630D01*
X185156056Y-153219028D01*
X185156053Y-153219033D01*
X185064482Y-153385601D01*
X185059776Y-153394162D01*
X184997484Y-153590532D01*
X184996798Y-153596649D01*
X184996797Y-153596653D01*
X184977600Y-153767803D01*
X184974520Y-153795262D01*
X184200000Y-153795262D01*
X184200000Y-151255262D01*
X184974520Y-151255262D01*
X184975036Y-151261406D01*
X184983861Y-151366494D01*
X184991759Y-151460553D01*
X184993458Y-151466478D01*
X185038161Y-151622375D01*
X185048544Y-151658586D01*
X185051359Y-151664063D01*
X185051360Y-151664066D01*
X185139897Y-151836341D01*
X185142712Y-151841818D01*
X185270677Y-152003270D01*
X185275370Y-152007264D01*
X185275371Y-152007265D01*
X185419310Y-152129766D01*
X185427564Y-152136791D01*
X185432942Y-152139797D01*
X185432944Y-152139798D01*
X185498540Y-152176458D01*
X185607398Y-152237297D01*
X185681142Y-152261258D01*
X185797471Y-152299056D01*
X185797475Y-152299057D01*
X185803329Y-152300959D01*
X186007894Y-152325351D01*
X186014029Y-152324879D01*
X186014031Y-152324879D01*
X186070039Y-152320569D01*
X186213300Y-152309546D01*
X186219230Y-152307890D01*
X186219232Y-152307890D01*
X186364175Y-152267421D01*
X186411725Y-152254145D01*
X186417214Y-152251372D01*
X186417220Y-152251370D01*
X186575158Y-152171589D01*
X186595610Y-152161258D01*
X186601341Y-152156781D01*
X186744266Y-152045116D01*
X186757951Y-152034424D01*
X186765054Y-152026196D01*
X186888540Y-151883134D01*
X186888540Y-151883133D01*
X186892564Y-151878472D01*
X186913387Y-151841818D01*
X186941921Y-151791588D01*
X186994323Y-151699344D01*
X187059351Y-151503863D01*
X187085171Y-151299474D01*
X187085390Y-151283806D01*
X187085534Y-151273522D01*
X187085534Y-151273518D01*
X187085583Y-151270000D01*
X187065480Y-151064970D01*
X187005935Y-150867749D01*
X186909218Y-150685849D01*
X186807582Y-150561231D01*
X186782906Y-150530975D01*
X186782903Y-150530972D01*
X186779011Y-150526200D01*
X186761786Y-150511950D01*
X186625025Y-150398811D01*
X186625021Y-150398809D01*
X186620275Y-150394882D01*
X186439055Y-150296897D01*
X186242254Y-150235977D01*
X186236129Y-150235333D01*
X186236128Y-150235333D01*
X186043498Y-150215087D01*
X186043496Y-150215087D01*
X186037369Y-150214443D01*
X185950529Y-150222346D01*
X185838342Y-150232555D01*
X185838339Y-150232556D01*
X185832203Y-150233114D01*
X185634572Y-150291280D01*
X185452002Y-150386726D01*
X185447201Y-150390586D01*
X185447198Y-150390588D01*
X185312596Y-150498811D01*
X185291447Y-150515815D01*
X185159024Y-150673630D01*
X185156056Y-150679028D01*
X185156053Y-150679033D01*
X185101078Y-150779033D01*
X185059776Y-150854162D01*
X184997484Y-151050532D01*
X184996798Y-151056649D01*
X184996797Y-151056653D01*
X184978944Y-151215822D01*
X184974520Y-151255262D01*
X184200000Y-151255262D01*
X184200000Y-148715262D01*
X184974520Y-148715262D01*
X184975036Y-148721406D01*
X184989813Y-148897375D01*
X184991759Y-148920553D01*
X184993458Y-148926478D01*
X185023513Y-149031291D01*
X185048544Y-149118586D01*
X185051359Y-149124063D01*
X185051360Y-149124066D01*
X185126954Y-149271157D01*
X185142712Y-149301818D01*
X185270677Y-149463270D01*
X185275370Y-149467264D01*
X185275371Y-149467265D01*
X185391627Y-149566206D01*
X185427564Y-149596791D01*
X185432942Y-149599797D01*
X185432944Y-149599798D01*
X185484130Y-149628405D01*
X185607398Y-149697297D01*
X185702238Y-149728113D01*
X185797471Y-149759056D01*
X185797475Y-149759057D01*
X185803329Y-149760959D01*
X186007894Y-149785351D01*
X186014029Y-149784879D01*
X186014031Y-149784879D01*
X186070039Y-149780569D01*
X186213300Y-149769546D01*
X186219230Y-149767890D01*
X186219232Y-149767890D01*
X186405797Y-149715800D01*
X186405796Y-149715800D01*
X186411725Y-149714145D01*
X186417214Y-149711372D01*
X186417220Y-149711370D01*
X186590116Y-149624033D01*
X186595610Y-149621258D01*
X186757951Y-149494424D01*
X186788375Y-149459178D01*
X186888540Y-149343134D01*
X186888540Y-149343133D01*
X186892564Y-149338472D01*
X186913387Y-149301818D01*
X186935139Y-149263526D01*
X186994323Y-149159344D01*
X187059351Y-148963863D01*
X187085171Y-148759474D01*
X187085583Y-148730000D01*
X187065480Y-148524970D01*
X187005935Y-148327749D01*
X186909218Y-148145849D01*
X186883949Y-148114866D01*
X188862553Y-148114866D01*
X188881473Y-148258575D01*
X188936942Y-148392491D01*
X189025182Y-148507487D01*
X189140178Y-148595727D01*
X189147807Y-148598887D01*
X189274094Y-148651196D01*
X189273333Y-148653034D01*
X189324708Y-148684350D01*
X189355730Y-148748211D01*
X189347301Y-148818705D01*
X189302098Y-148873452D01*
X189279691Y-148885514D01*
X189170254Y-148930843D01*
X189170251Y-148930845D01*
X189162622Y-148934005D01*
X189047626Y-149022245D01*
X188959386Y-149137241D01*
X188903917Y-149271157D01*
X188884997Y-149414866D01*
X188903917Y-149558575D01*
X188959386Y-149692491D01*
X189047626Y-149807487D01*
X189162622Y-149895727D01*
X189296538Y-149951196D01*
X189440247Y-149970116D01*
X189583956Y-149951196D01*
X189717872Y-149895727D01*
X189832868Y-149807487D01*
X189921108Y-149692491D01*
X189976577Y-149558575D01*
X189995497Y-149414866D01*
X189976577Y-149271157D01*
X189936748Y-149175000D01*
X203719750Y-149175000D01*
X203738670Y-149318709D01*
X203794139Y-149452625D01*
X203881774Y-149566833D01*
X203881776Y-149566836D01*
X203882379Y-149567621D01*
X203882257Y-149567715D01*
X203914189Y-149626193D01*
X203909124Y-149697008D01*
X203891033Y-149729675D01*
X203819139Y-149823369D01*
X203763670Y-149957285D01*
X203744750Y-150100994D01*
X203763670Y-150244703D01*
X203819139Y-150378619D01*
X203835413Y-150399827D01*
X203892360Y-150474042D01*
X203917961Y-150540262D01*
X203903696Y-150609811D01*
X203892368Y-150627439D01*
X203819139Y-150722872D01*
X203763670Y-150856788D01*
X203744750Y-151000497D01*
X203763670Y-151144206D01*
X203819139Y-151278122D01*
X203892362Y-151373547D01*
X203917961Y-151439763D01*
X203903697Y-151509312D01*
X203892360Y-151526952D01*
X203819139Y-151622375D01*
X203763670Y-151756291D01*
X203744750Y-151900000D01*
X203763670Y-152043709D01*
X203819139Y-152177625D01*
X203907379Y-152292621D01*
X204022375Y-152380861D01*
X204156291Y-152436330D01*
X204300000Y-152455250D01*
X204443709Y-152436330D01*
X204577625Y-152380861D01*
X204692621Y-152292621D01*
X204780861Y-152177625D01*
X204836330Y-152043709D01*
X204855250Y-151900000D01*
X204836330Y-151756291D01*
X204780861Y-151622375D01*
X204707638Y-151526950D01*
X204693301Y-151489866D01*
X205984997Y-151489866D01*
X206003917Y-151633575D01*
X206059386Y-151767491D01*
X206147626Y-151882487D01*
X206262622Y-151970727D01*
X206396538Y-152026196D01*
X206540247Y-152045116D01*
X206683956Y-152026196D01*
X206817872Y-151970727D01*
X206932868Y-151882487D01*
X207021108Y-151767491D01*
X207076577Y-151633575D01*
X207095497Y-151489866D01*
X207088914Y-151439866D01*
X208559997Y-151439866D01*
X208578917Y-151583575D01*
X208634386Y-151717491D01*
X208722626Y-151832487D01*
X208837622Y-151920727D01*
X208971538Y-151976196D01*
X209115247Y-151995116D01*
X209258956Y-151976196D01*
X209392872Y-151920727D01*
X209507868Y-151832487D01*
X209596108Y-151717491D01*
X209651577Y-151583575D01*
X209670497Y-151439866D01*
X209659358Y-151355262D01*
X212939520Y-151355262D01*
X212940036Y-151361406D01*
X212953938Y-151526954D01*
X212956759Y-151560553D01*
X212958458Y-151566478D01*
X213010698Y-151748660D01*
X213013544Y-151758586D01*
X213016359Y-151764063D01*
X213016360Y-151764066D01*
X213094288Y-151915698D01*
X213107712Y-151941818D01*
X213235677Y-152103270D01*
X213240370Y-152107264D01*
X213240371Y-152107265D01*
X213321860Y-152176617D01*
X213392564Y-152236791D01*
X213397942Y-152239797D01*
X213397944Y-152239798D01*
X213476671Y-152283797D01*
X213572398Y-152337297D01*
X213667238Y-152368113D01*
X213762471Y-152399056D01*
X213762475Y-152399057D01*
X213768329Y-152400959D01*
X213972894Y-152425351D01*
X213979029Y-152424879D01*
X213979031Y-152424879D01*
X214051300Y-152419318D01*
X214178300Y-152409546D01*
X214184230Y-152407890D01*
X214184232Y-152407890D01*
X214325630Y-152368411D01*
X214376725Y-152354145D01*
X214382214Y-152351372D01*
X214382220Y-152351370D01*
X214555116Y-152264033D01*
X214560610Y-152261258D01*
X214569715Y-152254145D01*
X214683855Y-152164969D01*
X214722951Y-152134424D01*
X214731717Y-152124269D01*
X214853540Y-151983134D01*
X214853540Y-151983133D01*
X214857564Y-151978472D01*
X214878387Y-151941818D01*
X214909236Y-151887513D01*
X214959323Y-151799344D01*
X215024351Y-151603863D01*
X215050171Y-151399474D01*
X215050390Y-151383806D01*
X215050534Y-151373522D01*
X215050534Y-151373518D01*
X215050583Y-151370000D01*
X215030480Y-151164970D01*
X214970935Y-150967749D01*
X214874218Y-150785849D01*
X214792660Y-150685849D01*
X214747906Y-150630975D01*
X214747903Y-150630972D01*
X214744011Y-150626200D01*
X214721861Y-150607876D01*
X214590025Y-150498811D01*
X214590021Y-150498809D01*
X214585275Y-150494882D01*
X214404055Y-150396897D01*
X214207254Y-150335977D01*
X214201129Y-150335333D01*
X214201128Y-150335333D01*
X214008498Y-150315087D01*
X214008496Y-150315087D01*
X214002369Y-150314443D01*
X213915529Y-150322346D01*
X213803342Y-150332555D01*
X213803339Y-150332556D01*
X213797203Y-150333114D01*
X213599572Y-150391280D01*
X213417002Y-150486726D01*
X213412201Y-150490586D01*
X213412198Y-150490588D01*
X213261254Y-150611950D01*
X213256447Y-150615815D01*
X213124024Y-150773630D01*
X213121056Y-150779028D01*
X213121053Y-150779033D01*
X213069038Y-150873649D01*
X213024776Y-150954162D01*
X212962484Y-151150532D01*
X212961798Y-151156649D01*
X212961797Y-151156653D01*
X212945231Y-151304346D01*
X212939520Y-151355262D01*
X209659358Y-151355262D01*
X209651577Y-151296157D01*
X209596108Y-151162241D01*
X209507868Y-151047245D01*
X209392872Y-150959005D01*
X209258956Y-150903536D01*
X209115247Y-150884616D01*
X208971538Y-150903536D01*
X208837622Y-150959005D01*
X208722626Y-151047245D01*
X208634386Y-151162241D01*
X208578917Y-151296157D01*
X208559997Y-151439866D01*
X207088914Y-151439866D01*
X207076577Y-151346157D01*
X207021108Y-151212241D01*
X206932868Y-151097245D01*
X206817872Y-151009005D01*
X206683956Y-150953536D01*
X206540247Y-150934616D01*
X206396538Y-150953536D01*
X206262622Y-151009005D01*
X206147626Y-151097245D01*
X206059386Y-151212241D01*
X206003917Y-151346157D01*
X205984997Y-151489866D01*
X204693301Y-151489866D01*
X204682039Y-151460734D01*
X204696303Y-151391185D01*
X204707640Y-151373545D01*
X204716955Y-151361406D01*
X204780861Y-151278122D01*
X204836330Y-151144206D01*
X204855250Y-151000497D01*
X204836330Y-150856788D01*
X204780861Y-150722872D01*
X204707638Y-150627447D01*
X204682039Y-150561231D01*
X204696303Y-150491682D01*
X204707640Y-150474042D01*
X204764587Y-150399827D01*
X204780861Y-150378619D01*
X204836330Y-150244703D01*
X204855250Y-150100994D01*
X204836330Y-149957285D01*
X204780861Y-149823369D01*
X204693226Y-149709161D01*
X204693224Y-149709158D01*
X204692621Y-149708373D01*
X204692743Y-149708279D01*
X204660811Y-149649801D01*
X204665876Y-149578986D01*
X204683967Y-149546319D01*
X204755861Y-149452625D01*
X204811330Y-149318709D01*
X204830250Y-149175000D01*
X204811330Y-149031291D01*
X204755861Y-148897375D01*
X204667621Y-148782379D01*
X204552625Y-148694139D01*
X204418709Y-148638670D01*
X204275000Y-148619750D01*
X204131291Y-148638670D01*
X203997375Y-148694139D01*
X203882379Y-148782379D01*
X203794139Y-148897375D01*
X203738670Y-149031291D01*
X203719750Y-149175000D01*
X189936748Y-149175000D01*
X189921108Y-149137241D01*
X189832868Y-149022245D01*
X189717872Y-148934005D01*
X189583956Y-148878536D01*
X189584717Y-148876698D01*
X189533342Y-148845382D01*
X189502320Y-148781521D01*
X189510749Y-148711027D01*
X189555952Y-148656280D01*
X189578359Y-148644218D01*
X189687796Y-148598889D01*
X189687801Y-148598886D01*
X189695428Y-148595727D01*
X189810424Y-148507487D01*
X189898664Y-148392491D01*
X189954133Y-148258575D01*
X189973053Y-148114866D01*
X189954133Y-147971157D01*
X189898664Y-147837241D01*
X189810424Y-147722245D01*
X189695428Y-147634005D01*
X189561512Y-147578536D01*
X189417803Y-147559616D01*
X189274094Y-147578536D01*
X189140178Y-147634005D01*
X189025182Y-147722245D01*
X188936942Y-147837241D01*
X188881473Y-147971157D01*
X188862553Y-148114866D01*
X186883949Y-148114866D01*
X186791320Y-148001292D01*
X186782906Y-147990975D01*
X186782903Y-147990972D01*
X186779011Y-147986200D01*
X186761786Y-147971950D01*
X186625025Y-147858811D01*
X186625021Y-147858809D01*
X186620275Y-147854882D01*
X186461763Y-147769175D01*
X186444474Y-147759827D01*
X186439055Y-147756897D01*
X186242254Y-147695977D01*
X186236129Y-147695333D01*
X186236128Y-147695333D01*
X186043498Y-147675087D01*
X186043496Y-147675087D01*
X186037369Y-147674443D01*
X185950529Y-147682346D01*
X185838342Y-147692555D01*
X185838339Y-147692556D01*
X185832203Y-147693114D01*
X185634572Y-147751280D01*
X185629107Y-147754137D01*
X185545456Y-147797869D01*
X185452002Y-147846726D01*
X185447201Y-147850586D01*
X185447198Y-147850588D01*
X185410612Y-147880004D01*
X185291447Y-147975815D01*
X185159024Y-148133630D01*
X185156056Y-148139028D01*
X185156053Y-148139033D01*
X185094837Y-148250386D01*
X185059776Y-148314162D01*
X184997484Y-148510532D01*
X184996798Y-148516649D01*
X184996797Y-148516653D01*
X184982489Y-148644218D01*
X184974520Y-148715262D01*
X184200000Y-148715262D01*
X184200000Y-146175262D01*
X184974520Y-146175262D01*
X184975036Y-146181406D01*
X184983861Y-146286494D01*
X184991759Y-146380553D01*
X184993458Y-146386478D01*
X185035248Y-146532216D01*
X185048544Y-146578586D01*
X185051359Y-146584063D01*
X185051360Y-146584066D01*
X185127023Y-146731291D01*
X185142712Y-146761818D01*
X185270677Y-146923270D01*
X185275370Y-146927264D01*
X185275371Y-146927265D01*
X185419310Y-147049766D01*
X185427564Y-147056791D01*
X185607398Y-147157297D01*
X185669481Y-147177469D01*
X185797471Y-147219056D01*
X185797475Y-147219057D01*
X185803329Y-147220959D01*
X186007894Y-147245351D01*
X186014029Y-147244879D01*
X186014031Y-147244879D01*
X186070039Y-147240569D01*
X186213300Y-147229546D01*
X186219230Y-147227890D01*
X186219232Y-147227890D01*
X186386249Y-147181258D01*
X186411725Y-147174145D01*
X186417214Y-147171372D01*
X186417220Y-147171370D01*
X186590116Y-147084033D01*
X186595610Y-147081258D01*
X186625107Y-147058213D01*
X186753101Y-146958213D01*
X186757951Y-146954424D01*
X186826508Y-146875000D01*
X191594750Y-146875000D01*
X191613670Y-147018709D01*
X191669139Y-147152625D01*
X191757379Y-147267621D01*
X191872375Y-147355861D01*
X191880002Y-147359020D01*
X191880007Y-147359023D01*
X191994499Y-147406446D01*
X192049781Y-147450994D01*
X192072202Y-147518357D01*
X192054644Y-147587148D01*
X192002682Y-147635527D01*
X191994500Y-147639264D01*
X191985138Y-147643142D01*
X191922375Y-147669139D01*
X191807379Y-147757379D01*
X191719139Y-147872375D01*
X191663670Y-148006291D01*
X191644750Y-148150000D01*
X191663670Y-148293709D01*
X191719139Y-148427625D01*
X191807379Y-148542621D01*
X191922375Y-148630861D01*
X192056291Y-148686330D01*
X192200000Y-148705250D01*
X192343709Y-148686330D01*
X192477625Y-148630861D01*
X192592621Y-148542621D01*
X192680861Y-148427625D01*
X192736330Y-148293709D01*
X192755250Y-148150000D01*
X192736330Y-148006291D01*
X192680861Y-147872375D01*
X192592621Y-147757379D01*
X192477625Y-147669139D01*
X192469996Y-147665979D01*
X192469993Y-147665977D01*
X192355501Y-147618554D01*
X192300219Y-147574006D01*
X192277798Y-147506643D01*
X192295356Y-147437852D01*
X192347318Y-147389473D01*
X192355500Y-147385736D01*
X192382522Y-147374543D01*
X192427625Y-147355861D01*
X192542621Y-147267621D01*
X192630861Y-147152625D01*
X192686330Y-147018709D01*
X192705250Y-146875000D01*
X192686330Y-146731291D01*
X192630861Y-146597375D01*
X192542621Y-146482379D01*
X192427625Y-146394139D01*
X192293709Y-146338670D01*
X192150000Y-146319750D01*
X192006291Y-146338670D01*
X191872375Y-146394139D01*
X191757379Y-146482379D01*
X191669139Y-146597375D01*
X191613670Y-146731291D01*
X191594750Y-146875000D01*
X186826508Y-146875000D01*
X186888540Y-146803134D01*
X186888540Y-146803133D01*
X186892564Y-146798472D01*
X186900700Y-146784151D01*
X186991276Y-146624707D01*
X186994323Y-146619344D01*
X187059351Y-146423863D01*
X187085171Y-146219474D01*
X187085583Y-146190000D01*
X187065480Y-145984970D01*
X187005935Y-145787749D01*
X186909218Y-145605849D01*
X186904448Y-145600000D01*
X188749863Y-145600000D01*
X188768783Y-145743709D01*
X188824252Y-145877625D01*
X188912492Y-145992621D01*
X189027488Y-146080861D01*
X189161404Y-146136330D01*
X189305113Y-146155250D01*
X189448822Y-146136330D01*
X189582738Y-146080861D01*
X189697734Y-145992621D01*
X189785974Y-145877625D01*
X189841443Y-145743709D01*
X189860363Y-145600000D01*
X189841443Y-145456291D01*
X189785974Y-145322375D01*
X189697734Y-145207379D01*
X189582738Y-145119139D01*
X189448822Y-145063670D01*
X189305113Y-145044750D01*
X189161404Y-145063670D01*
X189027488Y-145119139D01*
X188912492Y-145207379D01*
X188824252Y-145322375D01*
X188768783Y-145456291D01*
X188749863Y-145600000D01*
X186904448Y-145600000D01*
X186823181Y-145500358D01*
X186782906Y-145450975D01*
X186782903Y-145450972D01*
X186779011Y-145446200D01*
X186761786Y-145431950D01*
X186625025Y-145318811D01*
X186625021Y-145318809D01*
X186620275Y-145314882D01*
X186439055Y-145216897D01*
X186242254Y-145155977D01*
X186236129Y-145155333D01*
X186236128Y-145155333D01*
X186043498Y-145135087D01*
X186043496Y-145135087D01*
X186037369Y-145134443D01*
X185959329Y-145141545D01*
X185838342Y-145152555D01*
X185838339Y-145152556D01*
X185832203Y-145153114D01*
X185634572Y-145211280D01*
X185452002Y-145306726D01*
X185447201Y-145310586D01*
X185447198Y-145310588D01*
X185312596Y-145418811D01*
X185291447Y-145435815D01*
X185159024Y-145593630D01*
X185156056Y-145599028D01*
X185156053Y-145599033D01*
X185076518Y-145743709D01*
X185059776Y-145774162D01*
X184997484Y-145970532D01*
X184996798Y-145976649D01*
X184996797Y-145976653D01*
X184984754Y-146084021D01*
X184974520Y-146175262D01*
X184200000Y-146175262D01*
X184200000Y-145537024D01*
X184201953Y-145519818D01*
X184201963Y-145514187D01*
X184205143Y-145500358D01*
X184202011Y-145486519D01*
X184202013Y-145485528D01*
X184202620Y-145473399D01*
X184214155Y-145356281D01*
X184218972Y-145332061D01*
X184257294Y-145205726D01*
X184266747Y-145182907D01*
X184328974Y-145066489D01*
X184342697Y-145045952D01*
X184426442Y-144943908D01*
X184443908Y-144926442D01*
X184545952Y-144842697D01*
X184566489Y-144828974D01*
X184682907Y-144766747D01*
X184705727Y-144757294D01*
X184832061Y-144718972D01*
X184856278Y-144714156D01*
X184973400Y-144702620D01*
X184973898Y-144702571D01*
X184985930Y-144701990D01*
X184999642Y-144705143D01*
X185013482Y-144702011D01*
X185018372Y-144702020D01*
X185036448Y-144700000D01*
X194424000Y-144700000D01*
X194492121Y-144720002D01*
G37*
%TD.AperFunction*%
%TD*%
M02*
