%TF.GenerationSoftware,KiCad,Pcbnew,6.0.2+dfsg-1*%
%TF.CreationDate,2023-02-09T12:57:17+13:00*%
%TF.ProjectId,BRAWN-100_LOGIC,42524157-4e2d-4313-9030-5f4c4f474943,v1.0*%
%TF.SameCoordinates,Original*%
%TF.FileFunction,Legend,Top*%
%TF.FilePolarity,Positive*%
%FSLAX46Y46*%
G04 Gerber Fmt 4.6, Leading zero omitted, Abs format (unit mm)*
G04 Created by KiCad (PCBNEW 6.0.2+dfsg-1) date 2023-02-09 12:57:17*
%MOMM*%
%LPD*%
G01*
G04 APERTURE LIST*
%ADD10C,0.150000*%
%ADD11C,0.120000*%
G04 APERTURE END LIST*
D10*
X196390476Y-147850000D02*
X196314285Y-147811904D01*
X196200000Y-147811904D01*
X196085714Y-147850000D01*
X196009523Y-147926190D01*
X195971428Y-148002380D01*
X195933333Y-148154761D01*
X195933333Y-148269047D01*
X195971428Y-148421428D01*
X196009523Y-148497619D01*
X196085714Y-148573809D01*
X196200000Y-148611904D01*
X196276190Y-148611904D01*
X196390476Y-148573809D01*
X196428571Y-148535714D01*
X196428571Y-148269047D01*
X196276190Y-148269047D01*
X196771428Y-148611904D02*
X196771428Y-147811904D01*
X197228571Y-148611904D01*
X197228571Y-147811904D01*
X197609523Y-148611904D02*
X197609523Y-147811904D01*
X197800000Y-147811904D01*
X197914285Y-147850000D01*
X197990476Y-147926190D01*
X198028571Y-148002380D01*
X198066666Y-148154761D01*
X198066666Y-148269047D01*
X198028571Y-148421428D01*
X197990476Y-148497619D01*
X197914285Y-148573809D01*
X197800000Y-148611904D01*
X197609523Y-148611904D01*
X200180952Y-148573809D02*
X200295238Y-148611904D01*
X200485714Y-148611904D01*
X200561904Y-148573809D01*
X200600000Y-148535714D01*
X200638095Y-148459523D01*
X200638095Y-148383333D01*
X200600000Y-148307142D01*
X200561904Y-148269047D01*
X200485714Y-148230952D01*
X200333333Y-148192857D01*
X200257142Y-148154761D01*
X200219047Y-148116666D01*
X200180952Y-148040476D01*
X200180952Y-147964285D01*
X200219047Y-147888095D01*
X200257142Y-147850000D01*
X200333333Y-147811904D01*
X200523809Y-147811904D01*
X200638095Y-147850000D01*
X200980952Y-148611904D02*
X200980952Y-147811904D01*
X201780952Y-147850000D02*
X201704761Y-147811904D01*
X201590476Y-147811904D01*
X201476190Y-147850000D01*
X201400000Y-147926190D01*
X201361904Y-148002380D01*
X201323809Y-148154761D01*
X201323809Y-148269047D01*
X201361904Y-148421428D01*
X201400000Y-148497619D01*
X201476190Y-148573809D01*
X201590476Y-148611904D01*
X201666666Y-148611904D01*
X201780952Y-148573809D01*
X201819047Y-148535714D01*
X201819047Y-148269047D01*
X201666666Y-148269047D01*
%TO.C,U1*%
X211050000Y-152100000D02*
X211650000Y-152100000D01*
X211650000Y-152100000D02*
X211650000Y-149300000D01*
X211650000Y-149300000D02*
X211050000Y-149300000D01*
X211050000Y-149300000D02*
X211050000Y-152100000D01*
X210050000Y-149100000D02*
X210650000Y-149100000D01*
%TO.C,DS1*%
X197515000Y-149100000D02*
X197515000Y-149900000D01*
D11*
%TO.C,U4*%
X192500000Y-148500000D02*
X192500000Y-149800000D01*
X192500000Y-149800000D02*
X191200000Y-149800000D01*
X191200000Y-149800000D02*
X192500000Y-148500000D01*
G36*
X192500000Y-149800000D02*
G01*
X191200000Y-149800000D01*
X192500000Y-148500000D01*
X192500000Y-149800000D01*
G37*
X192500000Y-149800000D02*
X191200000Y-149800000D01*
X192500000Y-148500000D01*
X192500000Y-149800000D01*
D10*
X192900000Y-150060000D02*
X194100000Y-150060000D01*
D11*
X192500000Y-145100000D02*
X189100000Y-145100000D01*
X189100000Y-145100000D02*
X189100000Y-149800000D01*
X189100000Y-149800000D02*
X192500000Y-149800000D01*
X192500000Y-149800000D02*
X192500000Y-145100000D01*
D10*
%TO.C,U3*%
X192900000Y-155110000D02*
X194100000Y-155110000D01*
D11*
X192500000Y-150250000D02*
X189100000Y-150250000D01*
X189100000Y-150250000D02*
X189100000Y-154950000D01*
X189100000Y-154950000D02*
X192500000Y-154950000D01*
X192500000Y-154950000D02*
X192500000Y-150250000D01*
X192500000Y-153650000D02*
X192500000Y-154950000D01*
X192500000Y-154950000D02*
X191200000Y-154950000D01*
X191200000Y-154950000D02*
X192500000Y-153650000D01*
G36*
X192500000Y-154950000D02*
G01*
X191200000Y-154950000D01*
X192500000Y-153650000D01*
X192500000Y-154950000D01*
G37*
X192500000Y-154950000D02*
X191200000Y-154950000D01*
X192500000Y-153650000D01*
X192500000Y-154950000D01*
D10*
%TO.C,C5*%
X211540580Y-146390000D02*
X211259420Y-146390000D01*
X211540580Y-147410000D02*
X211259420Y-147410000D01*
%TO.C,C1*%
X211540580Y-148810000D02*
X211259420Y-148810000D01*
X211540580Y-147790000D02*
X211259420Y-147790000D01*
%TO.C,C7*%
X211359420Y-152590000D02*
X211640580Y-152590000D01*
X211359420Y-153610000D02*
X211640580Y-153610000D01*
%TO.C,C13*%
X195859420Y-153990000D02*
X196140580Y-153990000D01*
X195859420Y-155010000D02*
X196140580Y-155010000D01*
%TO.C,C11*%
X208459420Y-153990000D02*
X208740580Y-153990000D01*
X208459420Y-155010000D02*
X208740580Y-155010000D01*
%TO.C,R4*%
X196237258Y-152577500D02*
X195762742Y-152577500D01*
X196237258Y-153622500D02*
X195762742Y-153622500D01*
D11*
%TO.C,U2*%
X203150000Y-150750000D02*
X203150000Y-151000000D01*
X199100000Y-155050000D02*
X198850000Y-155050000D01*
X202900000Y-150750000D02*
X203150000Y-150750000D01*
X199100000Y-150750000D02*
X198850000Y-150750000D01*
X198850000Y-150750000D02*
X198850000Y-151000000D01*
X198850000Y-155050000D02*
X198850000Y-154800000D01*
D10*
X203300000Y-154800000D02*
X203300000Y-155200000D01*
X203300000Y-155200000D02*
X202900000Y-155200000D01*
X202900000Y-155200000D02*
X203300000Y-154800000D01*
G36*
X203300000Y-155200000D02*
G01*
X202900000Y-155200000D01*
X203300000Y-154800000D01*
X203300000Y-155200000D01*
G37*
X203300000Y-155200000D02*
X202900000Y-155200000D01*
X203300000Y-154800000D01*
X203300000Y-155200000D01*
%TO.C,C6*%
X211359420Y-155010000D02*
X211640580Y-155010000D01*
X211359420Y-153990000D02*
X211640580Y-153990000D01*
%TO.C,U5*%
X209760000Y-147900000D02*
X209760000Y-146700000D01*
D11*
X204800000Y-148300000D02*
X209600000Y-148300000D01*
X209600000Y-148300000D02*
X209600000Y-151700000D01*
X209600000Y-151700000D02*
X204800000Y-151700000D01*
X204800000Y-151700000D02*
X204800000Y-148300000D01*
X208300000Y-148300000D02*
X209600000Y-148300000D01*
X209600000Y-148300000D02*
X209600000Y-149600000D01*
X209600000Y-149600000D02*
X208300000Y-148300000D01*
G36*
X209600000Y-149600000D02*
G01*
X208300000Y-148300000D01*
X209600000Y-148300000D01*
X209600000Y-149600000D01*
G37*
X209600000Y-149600000D02*
X208300000Y-148300000D01*
X209600000Y-148300000D01*
X209600000Y-149600000D01*
D10*
%TO.C,C10*%
X205259420Y-146010000D02*
X205540580Y-146010000D01*
X205259420Y-144990000D02*
X205540580Y-144990000D01*
%TO.C,R5*%
X195762742Y-152222500D02*
X196237258Y-152222500D01*
X195762742Y-151177500D02*
X196237258Y-151177500D01*
%TO.C,R6*%
X202237258Y-150022500D02*
X201762742Y-150022500D01*
X202237258Y-148977500D02*
X201762742Y-148977500D01*
%TO.C,C2*%
X211540580Y-144990000D02*
X211259420Y-144990000D01*
X211540580Y-146010000D02*
X211259420Y-146010000D01*
%TO.C,R1*%
X196237258Y-148977500D02*
X195762742Y-148977500D01*
X196237258Y-150022500D02*
X195762742Y-150022500D01*
%TO.C,C8*%
X208259420Y-146010000D02*
X208540580Y-146010000D01*
X208259420Y-144990000D02*
X208540580Y-144990000D01*
%TO.C,C9*%
X205840580Y-153990000D02*
X205559420Y-153990000D01*
X205840580Y-155010000D02*
X205559420Y-155010000D01*
%TD*%
M02*
