%TF.GenerationSoftware,KiCad,Pcbnew,6.0.2+dfsg-1*%
%TF.CreationDate,2023-02-09T12:57:18+13:00*%
%TF.ProjectId,BRAWN-100_LOGIC,42524157-4e2d-4313-9030-5f4c4f474943,v1.0*%
%TF.SameCoordinates,Original*%
%TF.FileFunction,AssemblyDrawing,Bot*%
%FSLAX46Y46*%
G04 Gerber Fmt 4.6, Leading zero omitted, Abs format (unit mm)*
G04 Created by KiCad (PCBNEW 6.0.2+dfsg-1) date 2023-02-09 12:57:18*
%MOMM*%
%LPD*%
G01*
G04 APERTURE LIST*
%ADD10C,0.150000*%
G04 APERTURE END LIST*
D10*
%TO.C,TP1*%
X204603333Y-152472380D02*
X204031904Y-152472380D01*
X204317619Y-153472380D02*
X204317619Y-152472380D01*
X203317619Y-153424761D02*
X203412857Y-153472380D01*
X203603333Y-153472380D01*
X203698571Y-153424761D01*
X203746190Y-153329523D01*
X203746190Y-152948571D01*
X203698571Y-152853333D01*
X203603333Y-152805714D01*
X203412857Y-152805714D01*
X203317619Y-152853333D01*
X203270000Y-152948571D01*
X203270000Y-153043809D01*
X203746190Y-153139047D01*
X202889047Y-153424761D02*
X202793809Y-153472380D01*
X202603333Y-153472380D01*
X202508095Y-153424761D01*
X202460476Y-153329523D01*
X202460476Y-153281904D01*
X202508095Y-153186666D01*
X202603333Y-153139047D01*
X202746190Y-153139047D01*
X202841428Y-153091428D01*
X202889047Y-152996190D01*
X202889047Y-152948571D01*
X202841428Y-152853333D01*
X202746190Y-152805714D01*
X202603333Y-152805714D01*
X202508095Y-152853333D01*
X202174761Y-152805714D02*
X201793809Y-152805714D01*
X202031904Y-152472380D02*
X202031904Y-153329523D01*
X201984285Y-153424761D01*
X201889047Y-153472380D01*
X201793809Y-153472380D01*
X201460476Y-153472380D02*
X201460476Y-152472380D01*
X201079523Y-152472380D01*
X200984285Y-152520000D01*
X200936666Y-152567619D01*
X200889047Y-152662857D01*
X200889047Y-152805714D01*
X200936666Y-152900952D01*
X200984285Y-152948571D01*
X201079523Y-152996190D01*
X201460476Y-152996190D01*
X200317619Y-153472380D02*
X200412857Y-153424761D01*
X200460476Y-153377142D01*
X200508095Y-153281904D01*
X200508095Y-152996190D01*
X200460476Y-152900952D01*
X200412857Y-152853333D01*
X200317619Y-152805714D01*
X200174761Y-152805714D01*
X200079523Y-152853333D01*
X200031904Y-152900952D01*
X199984285Y-152996190D01*
X199984285Y-153281904D01*
X200031904Y-153377142D01*
X200079523Y-153424761D01*
X200174761Y-153472380D01*
X200317619Y-153472380D01*
X199555714Y-153472380D02*
X199555714Y-152805714D01*
X199555714Y-152472380D02*
X199603333Y-152520000D01*
X199555714Y-152567619D01*
X199508095Y-152520000D01*
X199555714Y-152472380D01*
X199555714Y-152567619D01*
X199079523Y-152805714D02*
X199079523Y-153472380D01*
X199079523Y-152900952D02*
X199031904Y-152853333D01*
X198936666Y-152805714D01*
X198793809Y-152805714D01*
X198698571Y-152853333D01*
X198650952Y-152948571D01*
X198650952Y-153472380D01*
X198317619Y-152805714D02*
X197936666Y-152805714D01*
X198174761Y-152472380D02*
X198174761Y-153329523D01*
X198127142Y-153424761D01*
X198031904Y-153472380D01*
X197936666Y-153472380D01*
X202531904Y-149072380D02*
X201960476Y-149072380D01*
X202246190Y-150072380D02*
X202246190Y-149072380D01*
X201627142Y-150072380D02*
X201627142Y-149072380D01*
X201246190Y-149072380D01*
X201150952Y-149120000D01*
X201103333Y-149167619D01*
X201055714Y-149262857D01*
X201055714Y-149405714D01*
X201103333Y-149500952D01*
X201150952Y-149548571D01*
X201246190Y-149596190D01*
X201627142Y-149596190D01*
X200103333Y-150072380D02*
X200674761Y-150072380D01*
X200389047Y-150072380D02*
X200389047Y-149072380D01*
X200484285Y-149215238D01*
X200579523Y-149310476D01*
X200674761Y-149358095D01*
%TO.C,TP2*%
X202063333Y-152472380D02*
X201491904Y-152472380D01*
X201777619Y-153472380D02*
X201777619Y-152472380D01*
X200777619Y-153424761D02*
X200872857Y-153472380D01*
X201063333Y-153472380D01*
X201158571Y-153424761D01*
X201206190Y-153329523D01*
X201206190Y-152948571D01*
X201158571Y-152853333D01*
X201063333Y-152805714D01*
X200872857Y-152805714D01*
X200777619Y-152853333D01*
X200730000Y-152948571D01*
X200730000Y-153043809D01*
X201206190Y-153139047D01*
X200349047Y-153424761D02*
X200253809Y-153472380D01*
X200063333Y-153472380D01*
X199968095Y-153424761D01*
X199920476Y-153329523D01*
X199920476Y-153281904D01*
X199968095Y-153186666D01*
X200063333Y-153139047D01*
X200206190Y-153139047D01*
X200301428Y-153091428D01*
X200349047Y-152996190D01*
X200349047Y-152948571D01*
X200301428Y-152853333D01*
X200206190Y-152805714D01*
X200063333Y-152805714D01*
X199968095Y-152853333D01*
X199634761Y-152805714D02*
X199253809Y-152805714D01*
X199491904Y-152472380D02*
X199491904Y-153329523D01*
X199444285Y-153424761D01*
X199349047Y-153472380D01*
X199253809Y-153472380D01*
X198920476Y-153472380D02*
X198920476Y-152472380D01*
X198539523Y-152472380D01*
X198444285Y-152520000D01*
X198396666Y-152567619D01*
X198349047Y-152662857D01*
X198349047Y-152805714D01*
X198396666Y-152900952D01*
X198444285Y-152948571D01*
X198539523Y-152996190D01*
X198920476Y-152996190D01*
X197777619Y-153472380D02*
X197872857Y-153424761D01*
X197920476Y-153377142D01*
X197968095Y-153281904D01*
X197968095Y-152996190D01*
X197920476Y-152900952D01*
X197872857Y-152853333D01*
X197777619Y-152805714D01*
X197634761Y-152805714D01*
X197539523Y-152853333D01*
X197491904Y-152900952D01*
X197444285Y-152996190D01*
X197444285Y-153281904D01*
X197491904Y-153377142D01*
X197539523Y-153424761D01*
X197634761Y-153472380D01*
X197777619Y-153472380D01*
X197015714Y-153472380D02*
X197015714Y-152805714D01*
X197015714Y-152472380D02*
X197063333Y-152520000D01*
X197015714Y-152567619D01*
X196968095Y-152520000D01*
X197015714Y-152472380D01*
X197015714Y-152567619D01*
X196539523Y-152805714D02*
X196539523Y-153472380D01*
X196539523Y-152900952D02*
X196491904Y-152853333D01*
X196396666Y-152805714D01*
X196253809Y-152805714D01*
X196158571Y-152853333D01*
X196110952Y-152948571D01*
X196110952Y-153472380D01*
X195777619Y-152805714D02*
X195396666Y-152805714D01*
X195634761Y-152472380D02*
X195634761Y-153329523D01*
X195587142Y-153424761D01*
X195491904Y-153472380D01*
X195396666Y-153472380D01*
X199991904Y-149072380D02*
X199420476Y-149072380D01*
X199706190Y-150072380D02*
X199706190Y-149072380D01*
X199087142Y-150072380D02*
X199087142Y-149072380D01*
X198706190Y-149072380D01*
X198610952Y-149120000D01*
X198563333Y-149167619D01*
X198515714Y-149262857D01*
X198515714Y-149405714D01*
X198563333Y-149500952D01*
X198610952Y-149548571D01*
X198706190Y-149596190D01*
X199087142Y-149596190D01*
X198134761Y-149167619D02*
X198087142Y-149120000D01*
X197991904Y-149072380D01*
X197753809Y-149072380D01*
X197658571Y-149120000D01*
X197610952Y-149167619D01*
X197563333Y-149262857D01*
X197563333Y-149358095D01*
X197610952Y-149500952D01*
X198182380Y-150072380D01*
X197563333Y-150072380D01*
%TO.C,TP3*%
X199523333Y-152472380D02*
X198951904Y-152472380D01*
X199237619Y-153472380D02*
X199237619Y-152472380D01*
X198237619Y-153424761D02*
X198332857Y-153472380D01*
X198523333Y-153472380D01*
X198618571Y-153424761D01*
X198666190Y-153329523D01*
X198666190Y-152948571D01*
X198618571Y-152853333D01*
X198523333Y-152805714D01*
X198332857Y-152805714D01*
X198237619Y-152853333D01*
X198190000Y-152948571D01*
X198190000Y-153043809D01*
X198666190Y-153139047D01*
X197809047Y-153424761D02*
X197713809Y-153472380D01*
X197523333Y-153472380D01*
X197428095Y-153424761D01*
X197380476Y-153329523D01*
X197380476Y-153281904D01*
X197428095Y-153186666D01*
X197523333Y-153139047D01*
X197666190Y-153139047D01*
X197761428Y-153091428D01*
X197809047Y-152996190D01*
X197809047Y-152948571D01*
X197761428Y-152853333D01*
X197666190Y-152805714D01*
X197523333Y-152805714D01*
X197428095Y-152853333D01*
X197094761Y-152805714D02*
X196713809Y-152805714D01*
X196951904Y-152472380D02*
X196951904Y-153329523D01*
X196904285Y-153424761D01*
X196809047Y-153472380D01*
X196713809Y-153472380D01*
X196380476Y-153472380D02*
X196380476Y-152472380D01*
X195999523Y-152472380D01*
X195904285Y-152520000D01*
X195856666Y-152567619D01*
X195809047Y-152662857D01*
X195809047Y-152805714D01*
X195856666Y-152900952D01*
X195904285Y-152948571D01*
X195999523Y-152996190D01*
X196380476Y-152996190D01*
X195237619Y-153472380D02*
X195332857Y-153424761D01*
X195380476Y-153377142D01*
X195428095Y-153281904D01*
X195428095Y-152996190D01*
X195380476Y-152900952D01*
X195332857Y-152853333D01*
X195237619Y-152805714D01*
X195094761Y-152805714D01*
X194999523Y-152853333D01*
X194951904Y-152900952D01*
X194904285Y-152996190D01*
X194904285Y-153281904D01*
X194951904Y-153377142D01*
X194999523Y-153424761D01*
X195094761Y-153472380D01*
X195237619Y-153472380D01*
X194475714Y-153472380D02*
X194475714Y-152805714D01*
X194475714Y-152472380D02*
X194523333Y-152520000D01*
X194475714Y-152567619D01*
X194428095Y-152520000D01*
X194475714Y-152472380D01*
X194475714Y-152567619D01*
X193999523Y-152805714D02*
X193999523Y-153472380D01*
X193999523Y-152900952D02*
X193951904Y-152853333D01*
X193856666Y-152805714D01*
X193713809Y-152805714D01*
X193618571Y-152853333D01*
X193570952Y-152948571D01*
X193570952Y-153472380D01*
X193237619Y-152805714D02*
X192856666Y-152805714D01*
X193094761Y-152472380D02*
X193094761Y-153329523D01*
X193047142Y-153424761D01*
X192951904Y-153472380D01*
X192856666Y-153472380D01*
X197451904Y-149072380D02*
X196880476Y-149072380D01*
X197166190Y-150072380D02*
X197166190Y-149072380D01*
X196547142Y-150072380D02*
X196547142Y-149072380D01*
X196166190Y-149072380D01*
X196070952Y-149120000D01*
X196023333Y-149167619D01*
X195975714Y-149262857D01*
X195975714Y-149405714D01*
X196023333Y-149500952D01*
X196070952Y-149548571D01*
X196166190Y-149596190D01*
X196547142Y-149596190D01*
X195642380Y-149072380D02*
X195023333Y-149072380D01*
X195356666Y-149453333D01*
X195213809Y-149453333D01*
X195118571Y-149500952D01*
X195070952Y-149548571D01*
X195023333Y-149643809D01*
X195023333Y-149881904D01*
X195070952Y-149977142D01*
X195118571Y-150024761D01*
X195213809Y-150072380D01*
X195499523Y-150072380D01*
X195594761Y-150024761D01*
X195642380Y-149977142D01*
%TO.C,TP4*%
X196998333Y-152472380D02*
X196426904Y-152472380D01*
X196712619Y-153472380D02*
X196712619Y-152472380D01*
X195712619Y-153424761D02*
X195807857Y-153472380D01*
X195998333Y-153472380D01*
X196093571Y-153424761D01*
X196141190Y-153329523D01*
X196141190Y-152948571D01*
X196093571Y-152853333D01*
X195998333Y-152805714D01*
X195807857Y-152805714D01*
X195712619Y-152853333D01*
X195665000Y-152948571D01*
X195665000Y-153043809D01*
X196141190Y-153139047D01*
X195284047Y-153424761D02*
X195188809Y-153472380D01*
X194998333Y-153472380D01*
X194903095Y-153424761D01*
X194855476Y-153329523D01*
X194855476Y-153281904D01*
X194903095Y-153186666D01*
X194998333Y-153139047D01*
X195141190Y-153139047D01*
X195236428Y-153091428D01*
X195284047Y-152996190D01*
X195284047Y-152948571D01*
X195236428Y-152853333D01*
X195141190Y-152805714D01*
X194998333Y-152805714D01*
X194903095Y-152853333D01*
X194569761Y-152805714D02*
X194188809Y-152805714D01*
X194426904Y-152472380D02*
X194426904Y-153329523D01*
X194379285Y-153424761D01*
X194284047Y-153472380D01*
X194188809Y-153472380D01*
X193855476Y-153472380D02*
X193855476Y-152472380D01*
X193474523Y-152472380D01*
X193379285Y-152520000D01*
X193331666Y-152567619D01*
X193284047Y-152662857D01*
X193284047Y-152805714D01*
X193331666Y-152900952D01*
X193379285Y-152948571D01*
X193474523Y-152996190D01*
X193855476Y-152996190D01*
X192712619Y-153472380D02*
X192807857Y-153424761D01*
X192855476Y-153377142D01*
X192903095Y-153281904D01*
X192903095Y-152996190D01*
X192855476Y-152900952D01*
X192807857Y-152853333D01*
X192712619Y-152805714D01*
X192569761Y-152805714D01*
X192474523Y-152853333D01*
X192426904Y-152900952D01*
X192379285Y-152996190D01*
X192379285Y-153281904D01*
X192426904Y-153377142D01*
X192474523Y-153424761D01*
X192569761Y-153472380D01*
X192712619Y-153472380D01*
X191950714Y-153472380D02*
X191950714Y-152805714D01*
X191950714Y-152472380D02*
X191998333Y-152520000D01*
X191950714Y-152567619D01*
X191903095Y-152520000D01*
X191950714Y-152472380D01*
X191950714Y-152567619D01*
X191474523Y-152805714D02*
X191474523Y-153472380D01*
X191474523Y-152900952D02*
X191426904Y-152853333D01*
X191331666Y-152805714D01*
X191188809Y-152805714D01*
X191093571Y-152853333D01*
X191045952Y-152948571D01*
X191045952Y-153472380D01*
X190712619Y-152805714D02*
X190331666Y-152805714D01*
X190569761Y-152472380D02*
X190569761Y-153329523D01*
X190522142Y-153424761D01*
X190426904Y-153472380D01*
X190331666Y-153472380D01*
X194926904Y-149072380D02*
X194355476Y-149072380D01*
X194641190Y-150072380D02*
X194641190Y-149072380D01*
X194022142Y-150072380D02*
X194022142Y-149072380D01*
X193641190Y-149072380D01*
X193545952Y-149120000D01*
X193498333Y-149167619D01*
X193450714Y-149262857D01*
X193450714Y-149405714D01*
X193498333Y-149500952D01*
X193545952Y-149548571D01*
X193641190Y-149596190D01*
X194022142Y-149596190D01*
X192593571Y-149405714D02*
X192593571Y-150072380D01*
X192831666Y-149024761D02*
X193069761Y-149739047D01*
X192450714Y-149739047D01*
%TO.C,JP1*%
X207595008Y-144112485D02*
X207642627Y-144255342D01*
X207642627Y-144493437D01*
X207595008Y-144588675D01*
X207547389Y-144636294D01*
X207452151Y-144683913D01*
X207356913Y-144683913D01*
X207261675Y-144636294D01*
X207214056Y-144588675D01*
X207166437Y-144493437D01*
X207118818Y-144302961D01*
X207071199Y-144207723D01*
X207023580Y-144160104D01*
X206928342Y-144112485D01*
X206833104Y-144112485D01*
X206737866Y-144160104D01*
X206690247Y-144207723D01*
X206642627Y-144302961D01*
X206642627Y-144541056D01*
X206690247Y-144683913D01*
X207642627Y-145255342D02*
X207595008Y-145160104D01*
X207547389Y-145112485D01*
X207452151Y-145064866D01*
X207166437Y-145064866D01*
X207071199Y-145112485D01*
X207023580Y-145160104D01*
X206975961Y-145255342D01*
X206975961Y-145398199D01*
X207023580Y-145493437D01*
X207071199Y-145541056D01*
X207166437Y-145588675D01*
X207452151Y-145588675D01*
X207547389Y-145541056D01*
X207595008Y-145493437D01*
X207642627Y-145398199D01*
X207642627Y-145255342D01*
X207642627Y-146160104D02*
X207595008Y-146064866D01*
X207499770Y-146017246D01*
X206642627Y-146017246D01*
X207642627Y-146969627D02*
X206642627Y-146969627D01*
X207595008Y-146969627D02*
X207642627Y-146874389D01*
X207642627Y-146683913D01*
X207595008Y-146588675D01*
X207547389Y-146541056D01*
X207452151Y-146493437D01*
X207166437Y-146493437D01*
X207071199Y-146541056D01*
X207023580Y-146588675D01*
X206975961Y-146683913D01*
X206975961Y-146874389D01*
X207023580Y-146969627D01*
X207595008Y-147826770D02*
X207642627Y-147731532D01*
X207642627Y-147541056D01*
X207595008Y-147445818D01*
X207499770Y-147398199D01*
X207118818Y-147398199D01*
X207023580Y-147445818D01*
X206975961Y-147541056D01*
X206975961Y-147731532D01*
X207023580Y-147826770D01*
X207118818Y-147874389D01*
X207214056Y-147874389D01*
X207309294Y-147398199D01*
X207642627Y-148302961D02*
X206975961Y-148302961D01*
X207166437Y-148302961D02*
X207071199Y-148350580D01*
X207023580Y-148398199D01*
X206975961Y-148493437D01*
X206975961Y-148588675D01*
X206642627Y-149207723D02*
X207356913Y-149207723D01*
X207499770Y-149160104D01*
X207595008Y-149064866D01*
X207642627Y-148922008D01*
X207642627Y-148826770D01*
X206975961Y-150112485D02*
X207642627Y-150112485D01*
X206975961Y-149683913D02*
X207499770Y-149683913D01*
X207595008Y-149731532D01*
X207642627Y-149826770D01*
X207642627Y-149969627D01*
X207595008Y-150064866D01*
X207547389Y-150112485D01*
X207642627Y-150588675D02*
X206975961Y-150588675D01*
X207071199Y-150588675D02*
X207023580Y-150636294D01*
X206975961Y-150731532D01*
X206975961Y-150874389D01*
X207023580Y-150969627D01*
X207118818Y-151017246D01*
X207642627Y-151017246D01*
X207118818Y-151017246D02*
X207023580Y-151064866D01*
X206975961Y-151160104D01*
X206975961Y-151302961D01*
X207023580Y-151398199D01*
X207118818Y-151445818D01*
X207642627Y-151445818D01*
X206975961Y-151922008D02*
X207975961Y-151922008D01*
X207023580Y-151922008D02*
X206975961Y-152017246D01*
X206975961Y-152207723D01*
X207023580Y-152302961D01*
X207071199Y-152350580D01*
X207166437Y-152398199D01*
X207452151Y-152398199D01*
X207547389Y-152350580D01*
X207595008Y-152302961D01*
X207642627Y-152207723D01*
X207642627Y-152017246D01*
X207595008Y-151922008D01*
X207595008Y-153207723D02*
X207642627Y-153112485D01*
X207642627Y-152922008D01*
X207595008Y-152826770D01*
X207499770Y-152779151D01*
X207118818Y-152779151D01*
X207023580Y-152826770D01*
X206975961Y-152922008D01*
X206975961Y-153112485D01*
X207023580Y-153207723D01*
X207118818Y-153255342D01*
X207214056Y-153255342D01*
X207309294Y-152779151D01*
X207642627Y-153683913D02*
X206975961Y-153683913D01*
X207166437Y-153683913D02*
X207071199Y-153731532D01*
X207023580Y-153779151D01*
X206975961Y-153874389D01*
X206975961Y-153969627D01*
X207737866Y-154064866D02*
X207737866Y-154826770D01*
X206737866Y-155017246D02*
X206690247Y-155064866D01*
X206642627Y-155160104D01*
X206642627Y-155398199D01*
X206690247Y-155493437D01*
X206737866Y-155541056D01*
X206833104Y-155588675D01*
X206928342Y-155588675D01*
X207071199Y-155541056D01*
X207642627Y-154969627D01*
X207642627Y-155588675D01*
X207737866Y-155779151D02*
X207737866Y-156541056D01*
X207118818Y-157112485D02*
X207166437Y-157255342D01*
X207214056Y-157302961D01*
X207309294Y-157350580D01*
X207452151Y-157350580D01*
X207547389Y-157302961D01*
X207595008Y-157255342D01*
X207642627Y-157160104D01*
X207642627Y-156779151D01*
X206642627Y-156779151D01*
X206642627Y-157112485D01*
X206690247Y-157207723D01*
X206737866Y-157255342D01*
X206833104Y-157302961D01*
X206928342Y-157302961D01*
X207023580Y-157255342D01*
X207071199Y-157207723D01*
X207118818Y-157112485D01*
X207118818Y-156779151D01*
X207642627Y-157779151D02*
X206975961Y-157779151D01*
X207166437Y-157779151D02*
X207071199Y-157826770D01*
X207023580Y-157874389D01*
X206975961Y-157969627D01*
X206975961Y-158064866D01*
X207642627Y-158398199D02*
X206975961Y-158398199D01*
X206642627Y-158398199D02*
X206690247Y-158350580D01*
X206737866Y-158398199D01*
X206690247Y-158445818D01*
X206642627Y-158398199D01*
X206737866Y-158398199D01*
X207642627Y-159302961D02*
X206642627Y-159302961D01*
X207595008Y-159302961D02*
X207642627Y-159207723D01*
X207642627Y-159017246D01*
X207595008Y-158922008D01*
X207547389Y-158874389D01*
X207452151Y-158826770D01*
X207166437Y-158826770D01*
X207071199Y-158874389D01*
X207023580Y-158922008D01*
X206975961Y-159017246D01*
X206975961Y-159207723D01*
X207023580Y-159302961D01*
X206975961Y-160207723D02*
X207785485Y-160207723D01*
X207880723Y-160160104D01*
X207928342Y-160112485D01*
X207975961Y-160017246D01*
X207975961Y-159874389D01*
X207928342Y-159779151D01*
X207595008Y-160207723D02*
X207642627Y-160112485D01*
X207642627Y-159922008D01*
X207595008Y-159826770D01*
X207547389Y-159779151D01*
X207452151Y-159731532D01*
X207166437Y-159731532D01*
X207071199Y-159779151D01*
X207023580Y-159826770D01*
X206975961Y-159922008D01*
X206975961Y-160112485D01*
X207023580Y-160207723D01*
X207595008Y-161064866D02*
X207642627Y-160969627D01*
X207642627Y-160779151D01*
X207595008Y-160683913D01*
X207499770Y-160636294D01*
X207118818Y-160636294D01*
X207023580Y-160683913D01*
X206975961Y-160779151D01*
X206975961Y-160969627D01*
X207023580Y-161064866D01*
X207118818Y-161112485D01*
X207214056Y-161112485D01*
X207309294Y-160636294D01*
X207642627Y-161969627D02*
X206642627Y-161969627D01*
X207595008Y-161969627D02*
X207642627Y-161874389D01*
X207642627Y-161683913D01*
X207595008Y-161588675D01*
X207547389Y-161541056D01*
X207452151Y-161493437D01*
X207166437Y-161493437D01*
X207071199Y-161541056D01*
X207023580Y-161588675D01*
X206975961Y-161683913D01*
X206975961Y-161874389D01*
X207023580Y-161969627D01*
%TD*%
M02*
