%TF.GenerationSoftware,KiCad,Pcbnew,6.0.2+dfsg-1*%
%TF.CreationDate,2023-02-09T12:57:17+13:00*%
%TF.ProjectId,BRAWN-100_LOGIC,42524157-4e2d-4313-9030-5f4c4f474943,v1.0*%
%TF.SameCoordinates,Original*%
%TF.FileFunction,Soldermask,Top*%
%TF.FilePolarity,Negative*%
%FSLAX46Y46*%
G04 Gerber Fmt 4.6, Leading zero omitted, Abs format (unit mm)*
G04 Created by KiCad (PCBNEW 6.0.2+dfsg-1) date 2023-02-09 12:57:17*
%MOMM*%
%LPD*%
G01*
G04 APERTURE LIST*
G04 Aperture macros list*
%AMRoundRect*
0 Rectangle with rounded corners*
0 $1 Rounding radius*
0 $2 $3 $4 $5 $6 $7 $8 $9 X,Y pos of 4 corners*
0 Add a 4 corners polygon primitive as box body*
4,1,4,$2,$3,$4,$5,$6,$7,$8,$9,$2,$3,0*
0 Add four circle primitives for the rounded corners*
1,1,$1+$1,$2,$3*
1,1,$1+$1,$4,$5*
1,1,$1+$1,$6,$7*
1,1,$1+$1,$8,$9*
0 Add four rect primitives between the rounded corners*
20,1,$1+$1,$2,$3,$4,$5,0*
20,1,$1+$1,$4,$5,$6,$7,0*
20,1,$1+$1,$6,$7,$8,$9,0*
20,1,$1+$1,$8,$9,$2,$3,0*%
G04 Aperture macros list end*
%ADD10RoundRect,0.200000X-0.250000X-0.200000X0.250000X-0.200000X0.250000X0.200000X-0.250000X0.200000X0*%
%ADD11RoundRect,0.218750X-0.218750X-0.256250X0.218750X-0.256250X0.218750X0.256250X-0.218750X0.256250X0*%
%ADD12RoundRect,0.150000X0.625000X0.150000X-0.625000X0.150000X-0.625000X-0.150000X0.625000X-0.150000X0*%
%ADD13RoundRect,0.225000X0.225000X0.250000X-0.225000X0.250000X-0.225000X-0.250000X0.225000X-0.250000X0*%
%ADD14C,1.400000*%
%ADD15R,2.500000X3.000000*%
%ADD16C,1.700000*%
%ADD17O,1.700000X1.700000*%
%ADD18RoundRect,0.225000X-0.225000X-0.250000X0.225000X-0.250000X0.225000X0.250000X-0.225000X0.250000X0*%
%ADD19RoundRect,0.200000X0.200000X0.275000X-0.200000X0.275000X-0.200000X-0.275000X0.200000X-0.275000X0*%
%ADD20O,0.500000X0.300000*%
%ADD21O,0.650000X0.300000*%
%ADD22O,0.300000X0.500000*%
%ADD23O,0.300000X0.650000*%
%ADD24RoundRect,0.150000X-0.150000X0.625000X-0.150000X-0.625000X0.150000X-0.625000X0.150000X0.625000X0*%
%ADD25RoundRect,0.200000X-0.200000X-0.275000X0.200000X-0.275000X0.200000X0.275000X-0.200000X0.275000X0*%
G04 APERTURE END LIST*
D10*
%TO.C,U1*%
X212350000Y-150700000D03*
X210350000Y-151650000D03*
X210350000Y-149750000D03*
%TD*%
D11*
%TO.C,DS1*%
X198212500Y-149500000D03*
X199787500Y-149500000D03*
%TD*%
D12*
%TO.C,U4*%
X193500000Y-149405000D03*
X193500000Y-148135000D03*
X193500000Y-146865000D03*
X193500000Y-145595000D03*
X188100000Y-145595000D03*
X188100000Y-146865000D03*
X188100000Y-148135000D03*
X188100000Y-149405000D03*
%TD*%
%TO.C,U3*%
X193500000Y-154455000D03*
X193500000Y-153185000D03*
X193500000Y-151915000D03*
X193500000Y-150645000D03*
X188100000Y-150645000D03*
X188100000Y-151915000D03*
X188100000Y-153185000D03*
X188100000Y-154455000D03*
%TD*%
D13*
%TO.C,C5*%
X212175000Y-146900000D03*
X210625000Y-146900000D03*
%TD*%
D14*
%TO.C,H2*%
X201000000Y-146000000D03*
D15*
X201000000Y-146000000D03*
%TD*%
D16*
%TO.C,J2*%
X186030000Y-146190000D03*
D17*
X186030000Y-148730000D03*
X186030000Y-151270000D03*
X186030000Y-153810000D03*
%TD*%
D13*
%TO.C,C1*%
X212175000Y-148300000D03*
X210625000Y-148300000D03*
%TD*%
D18*
%TO.C,C7*%
X210725000Y-153100000D03*
X212275000Y-153100000D03*
%TD*%
%TO.C,C13*%
X195225000Y-154500000D03*
X196775000Y-154500000D03*
%TD*%
%TO.C,C11*%
X207825000Y-154500000D03*
X209375000Y-154500000D03*
%TD*%
D16*
%TO.C,J1*%
X213995000Y-146290000D03*
D17*
X213995000Y-148830000D03*
X213995000Y-151370000D03*
X213995000Y-153910000D03*
%TD*%
D19*
%TO.C,R4*%
X196825000Y-153100000D03*
X195175000Y-153100000D03*
%TD*%
D20*
%TO.C,U2*%
X202975000Y-154400000D03*
D21*
X202900000Y-153900000D03*
X202900000Y-153400000D03*
X202900000Y-152900000D03*
X202900000Y-152400000D03*
X202900000Y-151900000D03*
D20*
X202975000Y-151400000D03*
D22*
X202500000Y-150925000D03*
D23*
X202000000Y-151000000D03*
X201500000Y-151000000D03*
X201000000Y-151000000D03*
X200500000Y-151000000D03*
X200000000Y-151000000D03*
D22*
X199500000Y-150925000D03*
D20*
X199025000Y-151400000D03*
D21*
X199100000Y-151900000D03*
X199100000Y-152400000D03*
X199100000Y-152900000D03*
X199100000Y-153400000D03*
X199100000Y-153900000D03*
D20*
X199025000Y-154400000D03*
D22*
X199500000Y-154875000D03*
D23*
X200000000Y-154800000D03*
X200500000Y-154800000D03*
X201000000Y-154800000D03*
X201500000Y-154800000D03*
X202000000Y-154800000D03*
D22*
X202500000Y-154875000D03*
%TD*%
D18*
%TO.C,C6*%
X210725000Y-154500000D03*
X212275000Y-154500000D03*
%TD*%
D24*
%TO.C,U5*%
X209105000Y-147300000D03*
X207835000Y-147300000D03*
X206565000Y-147300000D03*
X205295000Y-147300000D03*
X205295000Y-152700000D03*
X206565000Y-152700000D03*
X207835000Y-152700000D03*
X209105000Y-152700000D03*
%TD*%
D18*
%TO.C,C10*%
X204625000Y-145500000D03*
X206175000Y-145500000D03*
%TD*%
D25*
%TO.C,R5*%
X195175000Y-151700000D03*
X196825000Y-151700000D03*
%TD*%
D19*
%TO.C,R6*%
X202825000Y-149500000D03*
X201175000Y-149500000D03*
%TD*%
D14*
%TO.C,H1*%
X197000000Y-146000000D03*
D15*
X197000000Y-146000000D03*
%TD*%
D13*
%TO.C,C2*%
X212175000Y-145500000D03*
X210625000Y-145500000D03*
%TD*%
D19*
%TO.C,R1*%
X196825000Y-149500000D03*
X195175000Y-149500000D03*
%TD*%
D18*
%TO.C,C8*%
X207625000Y-145500000D03*
X209175000Y-145500000D03*
%TD*%
D13*
%TO.C,C9*%
X206475000Y-154500000D03*
X204925000Y-154500000D03*
%TD*%
M02*
