%TF.GenerationSoftware,KiCad,Pcbnew,6.0.2+dfsg-1*%
%TF.CreationDate,2023-02-09T12:57:17+13:00*%
%TF.ProjectId,BRAWN-100_LOGIC,42524157-4e2d-4313-9030-5f4c4f474943,v1.0*%
%TF.SameCoordinates,Original*%
%TF.FileFunction,Profile,NP*%
%FSLAX46Y46*%
G04 Gerber Fmt 4.6, Leading zero omitted, Abs format (unit mm)*
G04 Created by KiCad (PCBNEW 6.0.2+dfsg-1) date 2023-02-09 12:57:17*
%MOMM*%
%LPD*%
G01*
G04 APERTURE LIST*
%TA.AperFunction,Profile*%
%ADD10C,0.100000*%
%TD*%
G04 APERTURE END LIST*
D10*
X185000000Y-144500000D02*
G75*
G03*
X184000000Y-145500000I0J-1000000D01*
G01*
X184000000Y-154500000D02*
G75*
G03*
X185000000Y-155500000I1000000J0D01*
G01*
X215000000Y-155500000D02*
G75*
G03*
X216000000Y-154500000I0J1000000D01*
G01*
X216000000Y-145500000D02*
G75*
G03*
X215000000Y-144500000I-1000000J0D01*
G01*
X194750000Y-144500000D02*
X185000000Y-144500000D01*
X199750000Y-144500000D02*
X199750000Y-147500000D01*
X202250000Y-144500000D02*
X202250000Y-147500000D01*
X184000000Y-145500000D02*
X184000000Y-154500000D01*
X194750000Y-147500000D02*
G75*
G03*
X195250000Y-148000000I500001J1D01*
G01*
X195750000Y-144500000D02*
X195750000Y-147500000D01*
X215000000Y-144500000D02*
X203250000Y-144500000D01*
X199250000Y-148000000D02*
X198750000Y-148000000D01*
X199250000Y-148000000D02*
G75*
G03*
X199750000Y-147500000I-1J500001D01*
G01*
X198250000Y-144500000D02*
X198250000Y-147500000D01*
X202250000Y-147500000D02*
G75*
G03*
X202750000Y-148000000I500001J1D01*
G01*
X215000000Y-155500000D02*
X185000000Y-155500000D01*
X195250000Y-148000000D02*
G75*
G03*
X195750000Y-147500000I-1J500001D01*
G01*
X198250000Y-144500000D02*
X195750000Y-144500000D01*
X202250000Y-144500000D02*
X199750000Y-144500000D01*
X216000000Y-145500000D02*
X216000000Y-154500000D01*
X203250000Y-144500000D02*
X203250000Y-147500000D01*
X202750000Y-148000000D02*
G75*
G03*
X203250000Y-147500000I-1J500001D01*
G01*
X194750000Y-144500000D02*
X194750000Y-147500000D01*
X198250000Y-147500000D02*
G75*
G03*
X198750000Y-148000000I500001J1D01*
G01*
M02*
