M48
; DRILL file {KiCad 6.0.2+dfsg-1} date Thu 09 Feb 2023 12:57:20
; FORMAT={-:-/ absolute / inch / decimal}
; #@! TF.CreationDate,2023-02-09T12:57:20+13:00
; #@! TF.GenerationSoftware,Kicad,Pcbnew,6.0.2+dfsg-1
; #@! TF.FileFunction,Plated,1,4,PTH
FMAT,2
INCH
; #@! TA.AperFunction,Plated,PTH,ViaDrill
T1C0.0118
; #@! TA.AperFunction,Plated,PTH,ComponentDrill
T2C0.0394
%
G90
G05
T1
X7.2717Y-6.0079
X7.2736Y-5.9085
X7.2756Y-5.8051
X7.453Y-5.7323
X7.4574Y-5.8313
X7.4583Y-5.8825
X7.4587Y-6.0257
X7.4602Y-6.0803
X7.497Y-5.998
X7.498Y-6.1004
X7.502Y-5.7785
X7.5108Y-5.8947
X7.5491Y-6.1005
X7.562Y-6.0099
X7.563Y-5.9646
X7.565Y-5.7825
X7.5669Y-5.8327
X7.5784Y-5.7319
X7.5784Y-5.9307
X7.6752Y-5.9301
X7.7244Y-6.1004
X7.7742Y-5.9438
X7.7855Y-5.9904
X7.7864Y-6.0748
X7.8729Y-6.0178
X7.923Y-5.9951
X7.9542Y-6.0118
X8.0208Y-6.0099
X8.0423Y-5.873
X8.0423Y-6.1004
X8.0433Y-5.9095
X8.0433Y-5.9449
X8.0433Y-5.9803
X8.0482Y-5.8051
X8.0904Y-6.1004
X8.1073Y-5.8445
X8.1315Y-5.9642
X8.1827Y-5.9622
X8.2203Y-6.1006
X8.2329Y-5.9622
X8.2461Y-5.8957
X8.2579Y-6.1004
X8.2638Y-5.7618
X8.2657Y-5.811
X8.2736Y-5.7106
X8.315Y-5.7106
X8.3169Y-5.9469
X8.3189Y-5.7559
X8.3189Y-5.811
X8.3195Y-5.8953
X8.3346Y-6.1003
X8.3573Y-5.9941
X8.3878Y-6.1004
X8.4695Y-5.9085
X8.4705Y-5.814
X8.4724Y-6.0089
T2
X7.324Y-5.7555
X7.324Y-5.8555
X7.324Y-5.9555
X7.324Y-6.0555
X7.7559Y-5.748
X7.9134Y-5.748
X8.425Y-5.7594
X8.425Y-5.8594
X8.425Y-5.9594
X8.425Y-6.0594
T0
M30
