%TF.GenerationSoftware,KiCad,Pcbnew,6.0.2+dfsg-1*%
%TF.CreationDate,2023-02-09T12:57:16+13:00*%
%TF.ProjectId,BRAWN-100_LOGIC,42524157-4e2d-4313-9030-5f4c4f474943,v1.0*%
%TF.SameCoordinates,Original*%
%TF.FileFunction,Copper,L4,Bot*%
%TF.FilePolarity,Positive*%
%FSLAX46Y46*%
G04 Gerber Fmt 4.6, Leading zero omitted, Abs format (unit mm)*
G04 Created by KiCad (PCBNEW 6.0.2+dfsg-1) date 2023-02-09 12:57:16*
%MOMM*%
%LPD*%
G01*
G04 APERTURE LIST*
G04 Aperture macros list*
%AMFreePoly0*
4,1,22,0.500000,-0.750000,0.000000,-0.750000,0.000000,-0.745033,-0.079941,-0.743568,-0.215256,-0.701293,-0.333266,-0.622738,-0.424486,-0.514219,-0.481581,-0.384460,-0.499164,-0.250000,-0.500000,-0.250000,-0.500000,0.250000,-0.499164,0.250000,-0.499963,0.256109,-0.478152,0.396186,-0.417904,0.524511,-0.324060,0.630769,-0.204165,0.706417,-0.067858,0.745374,0.000000,0.744959,0.000000,0.750000,
0.500000,0.750000,0.500000,-0.750000,0.500000,-0.750000,$1*%
%AMFreePoly1*
4,1,20,0.000000,0.744959,0.073905,0.744508,0.209726,0.703889,0.328688,0.626782,0.421226,0.519385,0.479903,0.390333,0.500000,0.250000,0.500000,-0.250000,0.499851,-0.262216,0.476331,-0.402017,0.414519,-0.529596,0.319384,-0.634700,0.198574,-0.708877,0.061801,-0.746166,0.000000,-0.745033,0.000000,-0.750000,-0.500000,-0.750000,-0.500000,0.750000,0.000000,0.750000,0.000000,0.744959,
0.000000,0.744959,$1*%
G04 Aperture macros list end*
%TA.AperFunction,SMDPad,CuDef*%
%ADD10C,1.500000*%
%TD*%
%TA.AperFunction,ConnectorPad*%
%ADD11R,2.500000X3.000000*%
%TD*%
%TA.AperFunction,ComponentPad*%
%ADD12C,1.400000*%
%TD*%
%TA.AperFunction,ComponentPad*%
%ADD13C,1.700000*%
%TD*%
%TA.AperFunction,ComponentPad*%
%ADD14O,1.700000X1.700000*%
%TD*%
%TA.AperFunction,SMDPad,CuDef*%
%ADD15FreePoly0,90.000000*%
%TD*%
%TA.AperFunction,SMDPad,CuDef*%
%ADD16FreePoly1,90.000000*%
%TD*%
%TA.AperFunction,ViaPad*%
%ADD17C,0.700000*%
%TD*%
%TA.AperFunction,Conductor*%
%ADD18C,0.200000*%
%TD*%
%TA.AperFunction,Conductor*%
%ADD19C,0.300000*%
%TD*%
%TA.AperFunction,Conductor*%
%ADD20C,0.500000*%
%TD*%
G04 APERTURE END LIST*
%TO.C,JP1*%
G36*
X209390247Y-153314866D02*
G01*
X208790247Y-153314866D01*
X208790247Y-152814866D01*
X209390247Y-152814866D01*
X209390247Y-153314866D01*
G37*
%TD*%
D10*
%TO.P,TP1,1,1*%
%TO.N,+3V3*%
X201270000Y-151270000D03*
%TD*%
%TO.P,TP2,1,1*%
%TO.N,/nRST*%
X198730000Y-151270000D03*
%TD*%
%TO.P,TP3,1,1*%
%TO.N,/SWDCLK*%
X196190000Y-151270000D03*
%TD*%
%TO.P,TP4,1,1*%
%TO.N,/SWDIO*%
X193665000Y-151270000D03*
%TD*%
D11*
%TO.P,H2,1,1*%
%TO.N,Net-(H2-Pad1)*%
X201000000Y-146000000D03*
D12*
X201000000Y-146000000D03*
%TD*%
D13*
%TO.P,J2,1,Pin_1*%
%TO.N,/MOTOR-*%
X186030000Y-146190000D03*
D14*
%TO.P,J2,2,Pin_2*%
%TO.N,/GATE_N1*%
X186030000Y-148730000D03*
%TO.P,J2,3,Pin_3*%
%TO.N,/MOTOR+*%
X186030000Y-151270000D03*
%TO.P,J2,4,Pin_4*%
%TO.N,/GATE_N2*%
X186030000Y-153810000D03*
%TD*%
D13*
%TO.P,J1,1,Pin_1*%
%TO.N,+BATT*%
X213995000Y-146290000D03*
D14*
%TO.P,J1,2,Pin_2*%
%TO.N,GND*%
X213995000Y-148830000D03*
%TO.P,J1,3,Pin_3*%
%TO.N,/GATE_P1*%
X213995000Y-151370000D03*
%TO.P,J1,4,Pin_4*%
%TO.N,/GATE_P2*%
X213995000Y-153910000D03*
%TD*%
D12*
%TO.P,H1,1,1*%
%TO.N,GND*%
X197000000Y-146000000D03*
D11*
X197000000Y-146000000D03*
%TD*%
D15*
%TO.P,JP1,1,A*%
%TO.N,GND*%
X209090247Y-153714866D03*
D16*
%TO.P,JP1,2,B*%
%TO.N,Net-(JP1-Pad2)*%
X209090247Y-152414866D03*
%TD*%
D17*
%TO.N,GND*%
X190550000Y-146775000D03*
X215200000Y-152625000D03*
X215125000Y-150075000D03*
X215150000Y-147675000D03*
X184700000Y-152600000D03*
X184750000Y-150075000D03*
X184800000Y-147450000D03*
X190775000Y-149725000D03*
X205925000Y-148450000D03*
X204425000Y-147450000D03*
X209450000Y-149750000D03*
X211300000Y-147600000D03*
X209950000Y-147600000D03*
X209900000Y-146350000D03*
X211300000Y-146200000D03*
X210150000Y-145050000D03*
X211200000Y-145050000D03*
X211250000Y-151050000D03*
X212275000Y-152250000D03*
X211700000Y-154946365D03*
X213050000Y-154950000D03*
X190450000Y-154949989D03*
X191747168Y-154952832D03*
X190425000Y-152350000D03*
%TO.N,/FET_N2*%
X192150000Y-146875000D03*
%TO.N,/FET_P2*%
X192200000Y-148150000D03*
%TO.N,/FET_P1*%
X192075000Y-152652450D03*
%TO.N,/FET_N1*%
X192100000Y-151500000D03*
%TO.N,GND*%
X194950000Y-150625000D03*
X197464976Y-150972644D03*
%TO.N,+3V3*%
X201244141Y-152275609D03*
%TO.N,/SWDIO*%
X199972881Y-152852432D03*
%TO.N,/SWDCLK*%
X197752122Y-152156781D03*
%TO.N,/nRST*%
X202036964Y-152700500D03*
%TO.N,/FET_P1*%
X204275000Y-149175000D03*
%TO.N,/FET_P2*%
X204300000Y-151000497D03*
%TO.N,/FET_N2*%
X204300000Y-151900000D03*
%TO.N,GND*%
X203727358Y-152652449D03*
%TO.N,/FET_N1*%
X204300000Y-150100994D03*
%TO.N,/GATE_P2*%
X189417803Y-148114866D03*
%TO.N,/GATE_P1*%
X189450000Y-153051969D03*
%TO.N,/GATE_N2*%
X189305113Y-145600000D03*
%TO.N,GND*%
X192490247Y-145589866D03*
X208796613Y-154955962D03*
X207840247Y-151439866D03*
X192490247Y-150639866D03*
X205497111Y-154950000D03*
X196200000Y-154950000D03*
X209750000Y-154950000D03*
X211315247Y-149739866D03*
X204275000Y-154950000D03*
%TO.N,+12V*%
X206540247Y-151489866D03*
X189440247Y-149414866D03*
X197775000Y-154300972D03*
X189490247Y-154439866D03*
%TO.N,Net-(JP1-Pad2)*%
X209115247Y-151439866D03*
%TD*%
D18*
%TO.N,/SWDCLK*%
X197752122Y-152156781D02*
X197076781Y-152156781D01*
X197076781Y-152156781D02*
X196190000Y-151270000D01*
%TO.N,/SWDIO*%
X199972881Y-152852432D02*
X195247432Y-152852432D01*
X195247432Y-152852432D02*
X193665000Y-151270000D01*
%TO.N,/GATE_P1*%
X205491217Y-151055342D02*
X206155724Y-150390835D01*
X205491216Y-152958784D02*
X205491217Y-151055342D01*
X204948551Y-153501449D02*
X205491216Y-152958784D01*
X206155724Y-150390835D02*
X213015835Y-150390835D01*
X213015835Y-150390835D02*
X213995000Y-151370000D01*
X203258832Y-153501449D02*
X204948551Y-153501449D01*
X203258321Y-153501960D02*
X203258832Y-153501449D01*
X198459542Y-153501960D02*
X203258321Y-153501960D01*
X197090969Y-153501449D02*
X197340465Y-153251953D01*
X197340465Y-153251953D02*
X198209535Y-153251953D01*
X198209535Y-153251953D02*
X198459542Y-153501960D01*
X190426449Y-153501449D02*
X197090969Y-153501449D01*
X189976969Y-153051969D02*
X190426449Y-153501449D01*
X189450000Y-153051969D02*
X189976969Y-153051969D01*
%TO.N,/GATE_P2*%
X197255972Y-153901452D02*
X197505963Y-153651461D01*
X203423807Y-153901480D02*
X203424318Y-153900969D01*
X196710466Y-153901452D02*
X197255972Y-153901452D01*
X190200969Y-153900969D02*
X196709983Y-153900969D01*
X196709983Y-153900969D02*
X196710466Y-153901452D01*
X190001481Y-153701481D02*
X190200969Y-153900969D01*
X190100000Y-148797063D02*
X190100000Y-151450000D01*
X198044037Y-153651461D02*
X198294056Y-153901480D01*
X189176481Y-153701481D02*
X190001481Y-153701481D01*
X188800000Y-153325000D02*
X189176481Y-153701481D01*
X188800000Y-152750000D02*
X188800000Y-153325000D01*
X197505963Y-153651461D02*
X198044037Y-153651461D01*
X190100000Y-151450000D02*
X188800000Y-152750000D01*
X189417803Y-148114866D02*
X190100000Y-148797063D01*
X198294056Y-153901480D02*
X203423807Y-153901480D01*
X205890736Y-153157126D02*
X205890736Y-151220829D01*
X203424318Y-153900969D02*
X203755291Y-153900970D01*
X209472307Y-150790355D02*
X212591952Y-153910000D01*
X203755291Y-153900970D02*
X205150000Y-153900969D01*
X205150000Y-153900969D02*
X205150000Y-153897862D01*
X205150000Y-153897862D02*
X205890736Y-153157126D01*
X205890736Y-151220829D02*
X206321210Y-150790355D01*
X206321210Y-150790355D02*
X209472307Y-150790355D01*
X212591952Y-153910000D02*
X213995000Y-153910000D01*
%TO.N,+12V*%
X197775000Y-154300972D02*
X197775028Y-154301000D01*
X203589293Y-154301000D02*
X203589804Y-154300489D01*
X205474511Y-154300489D02*
X206540247Y-153234753D01*
X197775028Y-154301000D02*
X203589293Y-154301000D01*
X203589804Y-154300489D02*
X205474511Y-154300489D01*
X206540247Y-153234753D02*
X206540247Y-151489866D01*
X197775000Y-154300972D02*
X196544980Y-154300972D01*
X196544980Y-154300972D02*
X196544497Y-154300489D01*
X196544497Y-154300489D02*
X190177737Y-154300489D01*
X190177737Y-154300489D02*
X190038360Y-154439866D01*
X190038360Y-154439866D02*
X189490247Y-154439866D01*
%TO.N,/nRST*%
X199410000Y-151950000D02*
X198730000Y-151270000D01*
X200000000Y-151950000D02*
X199410000Y-151950000D01*
X201102429Y-153052429D02*
X200000000Y-151950000D01*
X201697571Y-153052429D02*
X201102429Y-153052429D01*
X202036964Y-152713036D02*
X201697571Y-153052429D01*
X202036964Y-152700500D02*
X202036964Y-152713036D01*
%TO.N,/FET_N2*%
X192150000Y-146875000D02*
X193900951Y-148625951D01*
X193900951Y-148625951D02*
X203340495Y-148625951D01*
X203340495Y-148625951D02*
X203840476Y-148125970D01*
X203840476Y-148125970D02*
X204709522Y-148125970D01*
X205041697Y-150939856D02*
X205041697Y-151248059D01*
X205041697Y-151248059D02*
X204389756Y-151900000D01*
X204709522Y-148125970D02*
X205349030Y-148765476D01*
X205349030Y-148765476D02*
X205349031Y-150632522D01*
X205349031Y-150632522D02*
X205041697Y-150939856D01*
X204389756Y-151900000D02*
X204300000Y-151900000D01*
%TO.N,/FET_P2*%
X204300000Y-151000497D02*
X204416050Y-151000497D01*
X204416050Y-151000497D02*
X204949511Y-150467036D01*
X204949511Y-150467036D02*
X204949511Y-148930963D01*
X204949511Y-148930963D02*
X204544037Y-148525489D01*
X204544037Y-148525489D02*
X204005963Y-148525489D01*
X204005963Y-148525489D02*
X203505981Y-149025471D01*
X203505981Y-149025471D02*
X193075471Y-149025471D01*
X193075471Y-149025471D02*
X192200000Y-148150000D01*
%TO.N,/FET_P1*%
X204275000Y-149175000D02*
X204025009Y-149424991D01*
X204025009Y-149424991D02*
X192050009Y-149424991D01*
X192050009Y-149424991D02*
X191250480Y-150224520D01*
X191250480Y-150224520D02*
X191250480Y-151215486D01*
X191250480Y-151215486D02*
X191250000Y-151215966D01*
X191250000Y-151215966D02*
X191250000Y-151827450D01*
X191250000Y-151827450D02*
X192075000Y-152652450D01*
%TO.N,/FET_N1*%
X204300000Y-150100994D02*
X204300000Y-150100000D01*
X204300000Y-150100000D02*
X204024511Y-149824511D01*
X191650000Y-151050000D02*
X192100000Y-151500000D01*
X204024511Y-149824511D02*
X192250489Y-149824511D01*
X192250489Y-149824511D02*
X191650000Y-150425000D01*
X191650000Y-150425000D02*
X191650000Y-151050000D01*
D19*
%TO.N,/FET_P2*%
X204300000Y-151000497D02*
X204345339Y-151000497D01*
%TO.N,+3V3*%
X201244141Y-152275609D02*
X201270000Y-152249750D01*
X201270000Y-152249750D02*
X201270000Y-151270000D01*
D18*
%TO.N,/GATE_N2*%
X188768292Y-148383903D02*
X188768292Y-146136821D01*
X186030000Y-153810000D02*
X188775000Y-151065000D01*
X188775000Y-151065000D02*
X188775000Y-148390611D01*
X188768292Y-146136821D02*
X189305113Y-145600000D01*
X188775000Y-148390611D02*
X188768292Y-148383903D01*
D20*
%TO.N,+12V*%
X189440247Y-149414866D02*
X189440247Y-151332615D01*
X188250480Y-153552618D02*
X189137728Y-154439866D01*
X189137728Y-154439866D02*
X189490247Y-154439866D01*
X188250481Y-152522381D02*
X188250480Y-153552618D01*
X189440247Y-151332615D02*
X188250481Y-152522381D01*
%TO.N,Net-(JP1-Pad2)*%
X209115247Y-151439866D02*
X209115247Y-152389866D01*
%TD*%
%TA.AperFunction,Conductor*%
%TO.N,GND*%
G36*
X194492121Y-144720002D02*
G01*
X194538614Y-144773658D01*
X194550000Y-144826000D01*
X194550000Y-147462688D01*
X194546746Y-147491137D01*
X194544858Y-147499284D01*
X194544857Y-147500000D01*
X194546439Y-147506937D01*
X194546602Y-147508391D01*
X194548726Y-147521460D01*
X194560129Y-147637224D01*
X194561924Y-147643140D01*
X194561924Y-147643142D01*
X194571614Y-147675087D01*
X194600155Y-147769175D01*
X194633035Y-147830688D01*
X194659395Y-147880004D01*
X194665155Y-147890781D01*
X194669080Y-147895564D01*
X194669081Y-147895565D01*
X194690186Y-147921281D01*
X194752631Y-147997369D01*
X194859219Y-148084845D01*
X194865739Y-148088330D01*
X194866191Y-148088774D01*
X194869825Y-148091202D01*
X194869364Y-148091891D01*
X194916386Y-148138082D01*
X194932095Y-148207319D01*
X194907879Y-148274057D01*
X194851425Y-148317109D01*
X194806341Y-148325451D01*
X194077613Y-148325451D01*
X194009492Y-148305449D01*
X193988518Y-148288546D01*
X192734031Y-147034059D01*
X192700005Y-146971747D01*
X192698204Y-146928517D01*
X192704172Y-146883187D01*
X192705250Y-146875000D01*
X192686330Y-146731291D01*
X192630861Y-146597375D01*
X192542621Y-146482379D01*
X192427625Y-146394139D01*
X192293709Y-146338670D01*
X192150000Y-146319750D01*
X192006291Y-146338670D01*
X191872375Y-146394139D01*
X191757379Y-146482379D01*
X191669139Y-146597375D01*
X191613670Y-146731291D01*
X191594750Y-146875000D01*
X191613670Y-147018709D01*
X191669139Y-147152625D01*
X191757379Y-147267621D01*
X191872375Y-147355861D01*
X191880002Y-147359020D01*
X191880007Y-147359023D01*
X191994499Y-147406446D01*
X192049781Y-147450994D01*
X192072202Y-147518357D01*
X192054644Y-147587148D01*
X192002682Y-147635527D01*
X191994500Y-147639264D01*
X191985138Y-147643142D01*
X191922375Y-147669139D01*
X191807379Y-147757379D01*
X191719139Y-147872375D01*
X191663670Y-148006291D01*
X191644750Y-148150000D01*
X191663670Y-148293709D01*
X191719139Y-148427625D01*
X191807379Y-148542621D01*
X191922375Y-148630861D01*
X192056291Y-148686330D01*
X192200000Y-148705250D01*
X192253519Y-148698204D01*
X192323667Y-148709143D01*
X192359060Y-148734031D01*
X192534425Y-148909396D01*
X192568451Y-148971708D01*
X192563386Y-149042523D01*
X192520839Y-149099359D01*
X192454319Y-149124170D01*
X192445330Y-149124491D01*
X192102379Y-149124491D01*
X192099704Y-149124295D01*
X192094667Y-149122565D01*
X192045739Y-149124402D01*
X192041012Y-149124491D01*
X192022061Y-149124491D01*
X192017328Y-149125373D01*
X192013801Y-149125601D01*
X191994429Y-149126328D01*
X191994427Y-149126329D01*
X191982801Y-149126765D01*
X191972109Y-149131359D01*
X191967506Y-149132396D01*
X191955795Y-149135953D01*
X191951392Y-149137652D01*
X191939956Y-149139782D01*
X191918970Y-149152718D01*
X191902598Y-149161222D01*
X191888118Y-149167443D01*
X191888113Y-149167446D01*
X191879946Y-149170955D01*
X191875060Y-149174968D01*
X191872877Y-149177151D01*
X191870601Y-149179215D01*
X191870455Y-149179054D01*
X191861469Y-149186157D01*
X191854562Y-149192420D01*
X191844661Y-149198523D01*
X191837622Y-149207780D01*
X191837620Y-149207782D01*
X191828102Y-149220300D01*
X191816899Y-149233130D01*
X191075028Y-149975001D01*
X191072994Y-149976757D01*
X191068211Y-149979095D01*
X191060299Y-149987624D01*
X191060298Y-149987625D01*
X191034907Y-150014997D01*
X191031627Y-150018402D01*
X191018232Y-150031797D01*
X191015508Y-150035767D01*
X191013183Y-150038415D01*
X190999988Y-150052639D01*
X190999986Y-150052642D01*
X190992079Y-150061166D01*
X190987769Y-150071970D01*
X190985247Y-150075959D01*
X190979486Y-150086747D01*
X190977569Y-150091072D01*
X190970988Y-150100666D01*
X190968302Y-150111985D01*
X190968301Y-150111987D01*
X190965297Y-150124647D01*
X190959732Y-150142244D01*
X190953892Y-150156882D01*
X190950597Y-150165142D01*
X190949980Y-150171435D01*
X190949980Y-150174514D01*
X190949830Y-150177587D01*
X190949614Y-150177576D01*
X190948282Y-150188951D01*
X190947826Y-150198266D01*
X190945140Y-150209586D01*
X190946709Y-150221115D01*
X190946709Y-150221116D01*
X190948829Y-150236693D01*
X190949980Y-150253684D01*
X190949980Y-151153062D01*
X190949830Y-151159214D01*
X190949801Y-151159814D01*
X190949500Y-151162881D01*
X190949500Y-151165965D01*
X190949350Y-151169033D01*
X190949134Y-151169022D01*
X190947802Y-151180397D01*
X190947346Y-151189712D01*
X190944660Y-151201032D01*
X190946229Y-151212561D01*
X190946229Y-151212562D01*
X190948349Y-151228139D01*
X190949500Y-151245130D01*
X190949500Y-151775084D01*
X190949304Y-151777757D01*
X190947575Y-151782792D01*
X190948011Y-151794414D01*
X190948011Y-151794416D01*
X190949411Y-151831705D01*
X190949500Y-151836431D01*
X190949500Y-151855398D01*
X190950382Y-151860133D01*
X190950610Y-151863659D01*
X190951774Y-151894658D01*
X190956364Y-151905343D01*
X190957401Y-151909943D01*
X190960962Y-151921664D01*
X190962661Y-151926067D01*
X190964791Y-151937503D01*
X190970895Y-151947405D01*
X190977727Y-151958489D01*
X190986231Y-151974861D01*
X190992451Y-151989338D01*
X190992453Y-151989342D01*
X190995964Y-151997513D01*
X190999978Y-152002399D01*
X191002163Y-152004584D01*
X191004215Y-152006847D01*
X191004055Y-152006992D01*
X191011175Y-152015999D01*
X191017427Y-152022894D01*
X191023532Y-152032798D01*
X191037881Y-152043709D01*
X191045307Y-152049356D01*
X191058136Y-152060557D01*
X191490970Y-152493392D01*
X191524995Y-152555704D01*
X191526796Y-152598931D01*
X191519750Y-152652450D01*
X191538670Y-152796159D01*
X191594139Y-152930075D01*
X191646448Y-152998245D01*
X191672049Y-153064465D01*
X191657784Y-153134014D01*
X191608183Y-153184810D01*
X191546486Y-153200949D01*
X190603112Y-153200949D01*
X190534991Y-153180947D01*
X190514017Y-153164045D01*
X190226485Y-152876514D01*
X190224732Y-152874484D01*
X190222394Y-152869700D01*
X190206550Y-152855002D01*
X190186492Y-152836396D01*
X190183087Y-152833116D01*
X190169692Y-152819721D01*
X190165722Y-152816997D01*
X190163074Y-152814672D01*
X190148850Y-152801477D01*
X190148847Y-152801475D01*
X190140323Y-152793568D01*
X190129519Y-152789258D01*
X190125530Y-152786736D01*
X190114742Y-152780975D01*
X190110417Y-152779058D01*
X190100823Y-152772477D01*
X190089504Y-152769791D01*
X190089502Y-152769790D01*
X190076842Y-152766786D01*
X190059245Y-152761221D01*
X190044607Y-152755381D01*
X190044604Y-152755380D01*
X190036347Y-152752086D01*
X190030054Y-152751469D01*
X190026975Y-152751469D01*
X190023902Y-152751319D01*
X190023913Y-152751103D01*
X190012538Y-152749771D01*
X190003223Y-152749315D01*
X189991903Y-152746629D01*
X189980374Y-152748198D01*
X189968757Y-152747630D01*
X189968947Y-152743752D01*
X189919615Y-152736274D01*
X189872869Y-152698768D01*
X189842621Y-152659348D01*
X189727625Y-152571108D01*
X189719998Y-152567949D01*
X189719993Y-152567946D01*
X189672909Y-152548444D01*
X189617628Y-152503896D01*
X189595206Y-152436533D01*
X189612764Y-152367742D01*
X189632031Y-152342940D01*
X190275452Y-151699519D01*
X190277486Y-151697763D01*
X190282269Y-151695425D01*
X190291801Y-151685150D01*
X190315573Y-151659523D01*
X190318853Y-151656118D01*
X190332248Y-151642723D01*
X190334972Y-151638753D01*
X190337297Y-151636105D01*
X190350490Y-151621882D01*
X190358401Y-151613354D01*
X190362713Y-151602547D01*
X190365232Y-151598562D01*
X190371004Y-151587753D01*
X190372911Y-151583448D01*
X190379493Y-151573854D01*
X190385186Y-151549864D01*
X190390751Y-151532268D01*
X190396586Y-151517642D01*
X190399883Y-151509378D01*
X190400500Y-151503085D01*
X190400500Y-151500000D01*
X190400650Y-151496933D01*
X190400866Y-151496944D01*
X190402198Y-151485569D01*
X190402653Y-151476255D01*
X190405340Y-151464934D01*
X190403342Y-151450249D01*
X190401651Y-151437827D01*
X190400500Y-151420836D01*
X190400500Y-148849429D01*
X190400696Y-148846756D01*
X190402425Y-148841721D01*
X190400589Y-148792807D01*
X190400500Y-148788081D01*
X190400500Y-148769115D01*
X190399619Y-148764380D01*
X190399390Y-148760853D01*
X190398662Y-148741478D01*
X190398226Y-148729854D01*
X190393634Y-148719167D01*
X190392595Y-148714555D01*
X190389043Y-148702863D01*
X190387339Y-148698446D01*
X190385209Y-148687010D01*
X190372272Y-148666022D01*
X190363769Y-148649652D01*
X190357549Y-148635175D01*
X190357547Y-148635171D01*
X190354036Y-148627000D01*
X190350022Y-148622114D01*
X190347837Y-148619929D01*
X190345785Y-148617666D01*
X190345945Y-148617521D01*
X190338825Y-148608514D01*
X190332573Y-148601619D01*
X190326468Y-148591715D01*
X190304680Y-148575147D01*
X190291861Y-148563953D01*
X190001834Y-148273926D01*
X189967808Y-148211614D01*
X189966007Y-148168384D01*
X189967350Y-148158188D01*
X189973053Y-148114866D01*
X189954133Y-147971157D01*
X189898664Y-147837241D01*
X189810424Y-147722245D01*
X189695428Y-147634005D01*
X189561512Y-147578536D01*
X189417803Y-147559616D01*
X189274094Y-147578536D01*
X189266460Y-147581698D01*
X189243009Y-147591411D01*
X189172419Y-147599000D01*
X189108932Y-147567220D01*
X189072706Y-147506161D01*
X189068792Y-147475002D01*
X189068792Y-146313482D01*
X189088794Y-146245361D01*
X189105697Y-146224387D01*
X189146053Y-146184031D01*
X189208365Y-146150005D01*
X189251593Y-146148204D01*
X189305113Y-146155250D01*
X189448822Y-146136330D01*
X189582738Y-146080861D01*
X189697734Y-145992621D01*
X189785974Y-145877625D01*
X189841443Y-145743709D01*
X189860363Y-145600000D01*
X189841443Y-145456291D01*
X189785974Y-145322375D01*
X189697734Y-145207379D01*
X189582738Y-145119139D01*
X189448822Y-145063670D01*
X189305113Y-145044750D01*
X189161404Y-145063670D01*
X189027488Y-145119139D01*
X188912492Y-145207379D01*
X188824252Y-145322375D01*
X188768783Y-145456291D01*
X188749863Y-145600000D01*
X188751350Y-145611290D01*
X188756909Y-145653518D01*
X188745970Y-145723667D01*
X188721082Y-145759060D01*
X188592840Y-145887302D01*
X188590806Y-145889058D01*
X188586023Y-145891396D01*
X188578111Y-145899925D01*
X188578110Y-145899926D01*
X188552719Y-145927298D01*
X188549439Y-145930703D01*
X188536044Y-145944098D01*
X188533320Y-145948068D01*
X188530995Y-145950716D01*
X188517800Y-145964940D01*
X188517798Y-145964943D01*
X188509891Y-145973467D01*
X188505581Y-145984271D01*
X188503059Y-145988260D01*
X188497298Y-145999048D01*
X188495381Y-146003373D01*
X188488800Y-146012967D01*
X188486114Y-146024286D01*
X188486113Y-146024288D01*
X188483109Y-146036948D01*
X188477544Y-146054545D01*
X188468409Y-146077443D01*
X188467792Y-146083736D01*
X188467792Y-146086815D01*
X188467642Y-146089888D01*
X188467426Y-146089877D01*
X188466094Y-146101252D01*
X188465638Y-146110567D01*
X188462952Y-146121887D01*
X188464521Y-146133416D01*
X188464521Y-146133417D01*
X188466641Y-146148994D01*
X188467792Y-146165985D01*
X188467792Y-148331537D01*
X188467596Y-148334210D01*
X188465867Y-148339245D01*
X188466303Y-148350867D01*
X188466303Y-148350869D01*
X188467703Y-148388158D01*
X188467792Y-148392884D01*
X188467792Y-148411851D01*
X188468674Y-148416586D01*
X188468902Y-148420112D01*
X188469629Y-148439486D01*
X188469630Y-148439489D01*
X188470066Y-148451111D01*
X188472444Y-148456646D01*
X188474500Y-148475119D01*
X188474500Y-150888339D01*
X188454498Y-150956460D01*
X188437595Y-150977434D01*
X186595734Y-152819295D01*
X186533422Y-152853321D01*
X186462607Y-152848256D01*
X186446717Y-152841039D01*
X186444480Y-152839830D01*
X186444478Y-152839829D01*
X186439055Y-152836897D01*
X186242254Y-152775977D01*
X186236129Y-152775333D01*
X186236128Y-152775333D01*
X186043498Y-152755087D01*
X186043496Y-152755087D01*
X186037369Y-152754443D01*
X185962889Y-152761221D01*
X185838342Y-152772555D01*
X185838339Y-152772556D01*
X185832203Y-152773114D01*
X185634572Y-152831280D01*
X185452002Y-152926726D01*
X185447201Y-152930586D01*
X185447198Y-152930588D01*
X185296254Y-153051950D01*
X185291447Y-153055815D01*
X185159024Y-153213630D01*
X185156056Y-153219028D01*
X185156053Y-153219033D01*
X185079322Y-153358607D01*
X185059776Y-153394162D01*
X184997484Y-153590532D01*
X184996798Y-153596649D01*
X184996797Y-153596653D01*
X184978950Y-153755768D01*
X184974520Y-153795262D01*
X184975036Y-153801406D01*
X184983861Y-153906494D01*
X184991759Y-154000553D01*
X184993458Y-154006478D01*
X185046707Y-154192178D01*
X185048544Y-154198586D01*
X185051359Y-154204063D01*
X185051360Y-154204066D01*
X185139897Y-154376341D01*
X185142712Y-154381818D01*
X185270677Y-154543270D01*
X185275370Y-154547264D01*
X185275371Y-154547265D01*
X185419310Y-154669766D01*
X185427564Y-154676791D01*
X185432942Y-154679797D01*
X185432944Y-154679798D01*
X185476308Y-154704033D01*
X185607398Y-154777297D01*
X185669481Y-154797469D01*
X185797471Y-154839056D01*
X185797475Y-154839057D01*
X185803329Y-154840959D01*
X186007894Y-154865351D01*
X186014029Y-154864879D01*
X186014031Y-154864879D01*
X186070039Y-154860569D01*
X186213300Y-154849546D01*
X186219230Y-154847890D01*
X186219232Y-154847890D01*
X186386249Y-154801258D01*
X186411725Y-154794145D01*
X186417214Y-154791372D01*
X186417220Y-154791370D01*
X186574069Y-154712139D01*
X186595610Y-154701258D01*
X186605026Y-154693902D01*
X186720831Y-154603425D01*
X186757951Y-154574424D01*
X186763576Y-154567908D01*
X186888540Y-154423134D01*
X186888540Y-154423133D01*
X186892564Y-154418472D01*
X186913387Y-154381818D01*
X186940840Y-154333491D01*
X186994323Y-154239344D01*
X187059351Y-154043863D01*
X187085171Y-153839474D01*
X187085583Y-153810000D01*
X187065480Y-153604970D01*
X187005935Y-153407749D01*
X187003043Y-153402310D01*
X187003041Y-153402305D01*
X186998083Y-153392980D01*
X186983764Y-153323442D01*
X187009313Y-153257202D01*
X187020240Y-153244733D01*
X187584886Y-152680087D01*
X187647198Y-152646061D01*
X187718013Y-152651126D01*
X187774849Y-152693673D01*
X187799660Y-152760193D01*
X187799981Y-152769176D01*
X187799980Y-153151950D01*
X187799980Y-153518398D01*
X187799107Y-153533207D01*
X187795116Y-153566928D01*
X187796808Y-153576192D01*
X187796808Y-153576193D01*
X187805652Y-153624619D01*
X187806302Y-153628522D01*
X187815031Y-153686580D01*
X187818159Y-153693093D01*
X187819455Y-153700191D01*
X187846505Y-153752265D01*
X187848248Y-153755755D01*
X187873671Y-153808697D01*
X187878557Y-153813983D01*
X187878590Y-153814031D01*
X187881901Y-153820406D01*
X187886205Y-153825446D01*
X187923432Y-153862673D01*
X187926861Y-153866238D01*
X187965626Y-153908174D01*
X187971985Y-153911867D01*
X187978143Y-153917384D01*
X188794975Y-154734216D01*
X188804829Y-154745305D01*
X188820021Y-154764575D01*
X188825856Y-154771976D01*
X188833603Y-154777331D01*
X188833605Y-154777332D01*
X188874103Y-154805321D01*
X188877325Y-154807623D01*
X188910988Y-154832487D01*
X188924544Y-154842500D01*
X188931360Y-154844893D01*
X188937297Y-154848997D01*
X188946277Y-154851837D01*
X188946279Y-154851838D01*
X188966445Y-154858216D01*
X188993247Y-154866692D01*
X188996978Y-154867937D01*
X189043465Y-154884262D01*
X189043467Y-154884262D01*
X189052359Y-154887385D01*
X189059547Y-154887667D01*
X189059606Y-154887678D01*
X189066458Y-154889846D01*
X189073065Y-154890366D01*
X189125742Y-154890366D01*
X189130687Y-154890463D01*
X189135474Y-154890651D01*
X189197958Y-154913238D01*
X189198920Y-154911571D01*
X189206068Y-154915698D01*
X189212622Y-154920727D01*
X189346538Y-154976196D01*
X189490247Y-154995116D01*
X189633956Y-154976196D01*
X189767872Y-154920727D01*
X189882868Y-154832487D01*
X189914790Y-154790885D01*
X189972127Y-154749018D01*
X190010026Y-154741678D01*
X190037723Y-154740639D01*
X190042616Y-154740455D01*
X190047341Y-154740366D01*
X190066308Y-154740366D01*
X190071043Y-154739484D01*
X190074569Y-154739256D01*
X190078309Y-154739115D01*
X190105568Y-154738092D01*
X190116253Y-154733502D01*
X190120853Y-154732465D01*
X190132574Y-154728904D01*
X190136977Y-154727205D01*
X190148413Y-154725075D01*
X190169401Y-154712138D01*
X190185771Y-154703635D01*
X190200248Y-154697415D01*
X190200252Y-154697413D01*
X190208423Y-154693902D01*
X190213309Y-154689888D01*
X190215494Y-154687703D01*
X190217757Y-154685651D01*
X190217902Y-154685811D01*
X190226909Y-154678691D01*
X190233804Y-154672439D01*
X190243708Y-154666334D01*
X190255581Y-154650720D01*
X190312736Y-154608604D01*
X190355876Y-154600989D01*
X196482014Y-154600989D01*
X196488166Y-154601139D01*
X196488830Y-154601171D01*
X196491895Y-154601472D01*
X196494978Y-154601472D01*
X196498047Y-154601622D01*
X196498036Y-154601838D01*
X196509411Y-154603170D01*
X196518726Y-154603626D01*
X196530046Y-154606312D01*
X196541575Y-154604743D01*
X196541576Y-154604743D01*
X196557153Y-154602623D01*
X196574144Y-154601472D01*
X197249556Y-154601472D01*
X197317677Y-154621474D01*
X197349518Y-154650768D01*
X197364096Y-154669766D01*
X197382379Y-154693593D01*
X197497375Y-154781833D01*
X197631291Y-154837302D01*
X197775000Y-154856222D01*
X197918709Y-154837302D01*
X198052625Y-154781833D01*
X198167621Y-154693593D01*
X198200462Y-154650794D01*
X198257800Y-154608928D01*
X198300423Y-154601500D01*
X203536927Y-154601500D01*
X203539600Y-154601696D01*
X203544635Y-154603425D01*
X203556257Y-154602989D01*
X203556259Y-154602989D01*
X203593548Y-154601589D01*
X203598274Y-154601500D01*
X203617241Y-154601500D01*
X203619067Y-154601160D01*
X203622775Y-154600989D01*
X205422145Y-154600989D01*
X205424818Y-154601185D01*
X205429853Y-154602914D01*
X205441475Y-154602478D01*
X205441477Y-154602478D01*
X205478766Y-154601078D01*
X205483492Y-154600989D01*
X205502459Y-154600989D01*
X205507194Y-154600107D01*
X205510720Y-154599879D01*
X205514460Y-154599738D01*
X205541719Y-154598715D01*
X205552404Y-154594125D01*
X205557004Y-154593088D01*
X205568725Y-154589527D01*
X205573128Y-154587828D01*
X205584564Y-154585698D01*
X205605552Y-154572761D01*
X205621922Y-154564258D01*
X205636399Y-154558038D01*
X205636403Y-154558036D01*
X205644574Y-154554525D01*
X205649460Y-154550511D01*
X205651645Y-154548326D01*
X205653908Y-154546274D01*
X205654053Y-154546434D01*
X205663060Y-154539314D01*
X205669955Y-154533062D01*
X205679859Y-154526957D01*
X205696427Y-154505169D01*
X205707621Y-154492350D01*
X206715703Y-153484269D01*
X206717734Y-153482515D01*
X206722516Y-153480178D01*
X206755807Y-153444290D01*
X206759087Y-153440885D01*
X206772495Y-153427477D01*
X206775225Y-153423498D01*
X206777533Y-153420869D01*
X206798648Y-153398107D01*
X206802959Y-153387300D01*
X206805485Y-153383305D01*
X206811248Y-153372511D01*
X206813159Y-153368199D01*
X206819739Y-153358607D01*
X206825430Y-153334626D01*
X206830995Y-153317029D01*
X206836835Y-153302391D01*
X206836836Y-153302388D01*
X206840130Y-153294131D01*
X206840747Y-153287838D01*
X206840747Y-153284759D01*
X206840897Y-153281686D01*
X206841113Y-153281697D01*
X206842445Y-153270322D01*
X206842901Y-153261007D01*
X206845587Y-153249687D01*
X206841898Y-153222580D01*
X206840747Y-153205589D01*
X206840747Y-152015310D01*
X206860749Y-151947189D01*
X206890043Y-151915348D01*
X206926318Y-151887513D01*
X206932868Y-151882487D01*
X207021108Y-151767491D01*
X207076577Y-151633575D01*
X207095497Y-151489866D01*
X207076577Y-151346157D01*
X207042991Y-151265072D01*
X207035402Y-151194483D01*
X207067181Y-151130996D01*
X207128239Y-151094769D01*
X207159400Y-151090855D01*
X208475383Y-151090855D01*
X208543504Y-151110857D01*
X208589997Y-151164513D01*
X208600101Y-151234787D01*
X208591792Y-151265072D01*
X208582079Y-151288523D01*
X208578917Y-151296157D01*
X208559997Y-151439866D01*
X208578917Y-151583575D01*
X208582078Y-151591206D01*
X208593746Y-151619377D01*
X208601334Y-151689967D01*
X208569553Y-151753454D01*
X208529487Y-151782294D01*
X208525343Y-151784178D01*
X208487557Y-151801358D01*
X208487553Y-151801360D01*
X208483478Y-151803213D01*
X208465635Y-151814624D01*
X208438926Y-151831705D01*
X208434649Y-151834440D01*
X208431257Y-151837363D01*
X208431254Y-151837365D01*
X208340052Y-151915950D01*
X208326148Y-151927930D01*
X208323209Y-151931299D01*
X208323205Y-151931303D01*
X208309821Y-151946646D01*
X208288045Y-151971608D01*
X208285602Y-151975376D01*
X208285602Y-151975377D01*
X208280574Y-151983134D01*
X208210145Y-152091793D01*
X208185833Y-152144411D01*
X208184548Y-152148709D01*
X208184545Y-152148716D01*
X208152659Y-152255340D01*
X208144797Y-152281629D01*
X208136230Y-152338952D01*
X208136054Y-152367742D01*
X208135452Y-152466361D01*
X208135355Y-152482173D01*
X208135694Y-152484646D01*
X208135819Y-152488501D01*
X208135819Y-152914866D01*
X208151380Y-152993097D01*
X208195695Y-153059418D01*
X208262016Y-153103733D01*
X208274185Y-153106154D01*
X208274186Y-153106154D01*
X208297710Y-153110833D01*
X208340247Y-153119294D01*
X208775727Y-153119294D01*
X208795110Y-153120794D01*
X208796614Y-153121028D01*
X208802626Y-153121964D01*
X208807092Y-153122019D01*
X208807097Y-153122019D01*
X208834205Y-153122350D01*
X208860582Y-153122672D01*
X208865024Y-153122091D01*
X208865027Y-153122091D01*
X208878278Y-153120358D01*
X208894615Y-153119294D01*
X209275727Y-153119294D01*
X209295110Y-153120794D01*
X209296614Y-153121028D01*
X209302626Y-153121964D01*
X209307092Y-153122019D01*
X209307097Y-153122019D01*
X209334205Y-153122350D01*
X209360582Y-153122672D01*
X209365024Y-153122091D01*
X209365027Y-153122091D01*
X209378278Y-153120358D01*
X209394615Y-153119294D01*
X209840247Y-153119294D01*
X209882784Y-153110833D01*
X209906308Y-153106154D01*
X209906309Y-153106154D01*
X209918478Y-153103733D01*
X209984799Y-153059418D01*
X210029114Y-152993097D01*
X210044675Y-152914866D01*
X210044675Y-152424711D01*
X210044696Y-152422402D01*
X210045828Y-152360650D01*
X210045910Y-152356177D01*
X210041979Y-152324622D01*
X210039298Y-152303095D01*
X210039297Y-152303091D01*
X210038745Y-152298658D01*
X210001072Y-152160478D01*
X209996550Y-152150027D01*
X209979834Y-152111400D01*
X209979832Y-152111397D01*
X209978053Y-152107285D01*
X209947354Y-152057286D01*
X209922825Y-152017337D01*
X209904227Y-151948820D01*
X209925624Y-151881125D01*
X209980224Y-151835744D01*
X210050691Y-151827086D01*
X210119295Y-151862314D01*
X211235105Y-152978125D01*
X212342436Y-154085456D01*
X212344190Y-154087487D01*
X212346527Y-154092269D01*
X212355056Y-154100181D01*
X212355057Y-154100182D01*
X212382415Y-154125560D01*
X212385820Y-154128840D01*
X212399228Y-154142248D01*
X212403207Y-154144978D01*
X212405836Y-154147286D01*
X212428598Y-154168401D01*
X212439405Y-154172712D01*
X212443400Y-154175238D01*
X212454194Y-154181001D01*
X212458506Y-154182912D01*
X212468098Y-154189492D01*
X212479415Y-154192178D01*
X212479416Y-154192178D01*
X212492079Y-154195183D01*
X212509676Y-154200748D01*
X212524314Y-154206588D01*
X212524317Y-154206589D01*
X212532574Y-154209883D01*
X212538867Y-154210500D01*
X212541946Y-154210500D01*
X212545019Y-154210650D01*
X212545008Y-154210866D01*
X212556383Y-154212198D01*
X212565698Y-154212654D01*
X212577018Y-154215340D01*
X212588547Y-154213771D01*
X212588548Y-154213771D01*
X212604125Y-154211651D01*
X212621116Y-154210500D01*
X212893686Y-154210500D01*
X212961807Y-154230502D01*
X213010840Y-154290121D01*
X213011843Y-154292655D01*
X213013544Y-154298586D01*
X213072403Y-154413114D01*
X213098325Y-154463552D01*
X213107712Y-154481818D01*
X213235677Y-154643270D01*
X213240370Y-154647264D01*
X213240371Y-154647265D01*
X213352027Y-154742291D01*
X213392564Y-154776791D01*
X213397942Y-154779797D01*
X213397944Y-154779798D01*
X213447731Y-154807623D01*
X213572398Y-154877297D01*
X213667238Y-154908112D01*
X213762471Y-154939056D01*
X213762475Y-154939057D01*
X213768329Y-154940959D01*
X213972894Y-154965351D01*
X213979029Y-154964879D01*
X213979031Y-154964879D01*
X214035039Y-154960569D01*
X214178300Y-154949546D01*
X214184230Y-154947890D01*
X214184232Y-154947890D01*
X214370797Y-154895800D01*
X214370796Y-154895800D01*
X214376725Y-154894145D01*
X214382214Y-154891372D01*
X214382220Y-154891370D01*
X214548009Y-154807623D01*
X214560610Y-154801258D01*
X214569551Y-154794273D01*
X214646420Y-154734216D01*
X214722951Y-154674424D01*
X214728544Y-154667945D01*
X214853540Y-154523134D01*
X214853540Y-154523133D01*
X214857564Y-154518472D01*
X214862132Y-154510432D01*
X214896056Y-154450714D01*
X214959323Y-154339344D01*
X215024351Y-154143863D01*
X215050171Y-153939474D01*
X215050583Y-153910000D01*
X215030480Y-153704970D01*
X214970935Y-153507749D01*
X214874218Y-153325849D01*
X214776136Y-153205589D01*
X214747906Y-153170975D01*
X214747903Y-153170972D01*
X214744011Y-153166200D01*
X214737173Y-153160543D01*
X214590025Y-153038811D01*
X214590021Y-153038809D01*
X214585275Y-153034882D01*
X214404055Y-152936897D01*
X214207254Y-152875977D01*
X214201129Y-152875333D01*
X214201128Y-152875333D01*
X214008498Y-152855087D01*
X214008496Y-152855087D01*
X214002369Y-152854443D01*
X213921670Y-152861787D01*
X213803342Y-152872555D01*
X213803339Y-152872556D01*
X213797203Y-152873114D01*
X213599572Y-152931280D01*
X213417002Y-153026726D01*
X213412201Y-153030586D01*
X213412198Y-153030588D01*
X213286160Y-153131925D01*
X213256447Y-153155815D01*
X213124024Y-153313630D01*
X213121056Y-153319028D01*
X213121053Y-153319033D01*
X213054065Y-153440885D01*
X213024776Y-153494162D01*
X213018595Y-153513649D01*
X213016073Y-153521598D01*
X212976410Y-153580482D01*
X212911208Y-153608575D01*
X212895971Y-153609500D01*
X212768613Y-153609500D01*
X212700492Y-153589498D01*
X212679518Y-153572595D01*
X210013353Y-150906430D01*
X209979327Y-150844118D01*
X209984392Y-150773303D01*
X210026939Y-150716467D01*
X210093459Y-150691656D01*
X210102448Y-150691335D01*
X212839174Y-150691335D01*
X212907295Y-150711337D01*
X212928269Y-150728240D01*
X213003789Y-150803760D01*
X213037815Y-150866072D01*
X213032750Y-150936887D01*
X213029949Y-150942999D01*
X213030173Y-150943095D01*
X213027743Y-150948765D01*
X213024776Y-150954162D01*
X212962484Y-151150532D01*
X212961798Y-151156649D01*
X212961797Y-151156653D01*
X212945231Y-151304346D01*
X212939520Y-151355262D01*
X212940036Y-151361406D01*
X212955342Y-151543675D01*
X212956759Y-151560553D01*
X212958458Y-151566478D01*
X213010986Y-151749664D01*
X213013544Y-151758586D01*
X213016359Y-151764063D01*
X213016360Y-151764066D01*
X213104897Y-151936341D01*
X213107712Y-151941818D01*
X213235677Y-152103270D01*
X213240370Y-152107264D01*
X213240371Y-152107265D01*
X213383988Y-152229492D01*
X213392564Y-152236791D01*
X213397942Y-152239797D01*
X213397944Y-152239798D01*
X213465098Y-152277329D01*
X213572398Y-152337297D01*
X213630505Y-152356177D01*
X213762471Y-152399056D01*
X213762475Y-152399057D01*
X213768329Y-152400959D01*
X213972894Y-152425351D01*
X213979029Y-152424879D01*
X213979031Y-152424879D01*
X214035039Y-152420569D01*
X214178300Y-152409546D01*
X214184230Y-152407890D01*
X214184232Y-152407890D01*
X214314312Y-152371571D01*
X214376725Y-152354145D01*
X214382214Y-152351372D01*
X214382220Y-152351370D01*
X214555116Y-152264033D01*
X214560610Y-152261258D01*
X214569715Y-152254145D01*
X214684080Y-152164793D01*
X214722951Y-152134424D01*
X214735269Y-152120154D01*
X214853540Y-151983134D01*
X214853540Y-151983133D01*
X214857564Y-151978472D01*
X214861464Y-151971608D01*
X214910055Y-151886071D01*
X214959323Y-151799344D01*
X215024351Y-151603863D01*
X215050171Y-151399474D01*
X215050507Y-151375471D01*
X215050534Y-151373522D01*
X215050534Y-151373518D01*
X215050583Y-151370000D01*
X215030480Y-151164970D01*
X214970935Y-150967749D01*
X214874218Y-150785849D01*
X214792660Y-150685849D01*
X214747906Y-150630975D01*
X214747903Y-150630972D01*
X214744011Y-150626200D01*
X214721861Y-150607876D01*
X214590025Y-150498811D01*
X214590021Y-150498809D01*
X214585275Y-150494882D01*
X214404055Y-150396897D01*
X214207254Y-150335977D01*
X214201129Y-150335333D01*
X214201128Y-150335333D01*
X214008498Y-150315087D01*
X214008496Y-150315087D01*
X214002369Y-150314443D01*
X213915529Y-150322346D01*
X213803342Y-150332555D01*
X213803339Y-150332556D01*
X213797203Y-150333114D01*
X213599572Y-150391280D01*
X213577627Y-150402752D01*
X213507994Y-150416587D01*
X213441933Y-150390578D01*
X213430157Y-150380186D01*
X213265354Y-150215383D01*
X213263598Y-150213349D01*
X213261260Y-150208566D01*
X213227853Y-150177576D01*
X213225358Y-150175262D01*
X213221953Y-150171982D01*
X213208558Y-150158587D01*
X213204588Y-150155863D01*
X213201940Y-150153538D01*
X213187716Y-150140343D01*
X213187713Y-150140341D01*
X213179189Y-150132434D01*
X213168385Y-150128124D01*
X213164396Y-150125602D01*
X213153608Y-150119841D01*
X213149283Y-150117924D01*
X213139689Y-150111343D01*
X213128370Y-150108657D01*
X213128368Y-150108656D01*
X213115708Y-150105652D01*
X213098111Y-150100087D01*
X213083473Y-150094247D01*
X213083470Y-150094246D01*
X213075213Y-150090952D01*
X213068920Y-150090335D01*
X213065841Y-150090335D01*
X213062768Y-150090185D01*
X213062779Y-150089969D01*
X213051404Y-150088637D01*
X213042089Y-150088181D01*
X213030769Y-150085495D01*
X213019240Y-150087064D01*
X213019239Y-150087064D01*
X213003662Y-150089184D01*
X212986671Y-150090335D01*
X206208090Y-150090335D01*
X206205417Y-150090139D01*
X206200382Y-150088410D01*
X206188760Y-150088846D01*
X206188758Y-150088846D01*
X206151469Y-150090246D01*
X206146743Y-150090335D01*
X206127776Y-150090335D01*
X206123041Y-150091217D01*
X206119515Y-150091445D01*
X206115775Y-150091586D01*
X206088516Y-150092609D01*
X206077831Y-150097199D01*
X206073231Y-150098236D01*
X206061510Y-150101797D01*
X206057107Y-150103496D01*
X206045671Y-150105626D01*
X206024685Y-150118562D01*
X206008313Y-150127066D01*
X205993836Y-150133286D01*
X205993832Y-150133288D01*
X205985661Y-150136799D01*
X205980775Y-150140813D01*
X205978590Y-150142998D01*
X205976327Y-150145050D01*
X205976182Y-150144890D01*
X205967175Y-150152010D01*
X205960280Y-150158262D01*
X205950376Y-150164367D01*
X205933808Y-150186155D01*
X205922614Y-150198974D01*
X205864626Y-150256962D01*
X205802314Y-150290988D01*
X205731499Y-150285923D01*
X205674663Y-150243376D01*
X205649852Y-150176856D01*
X205649531Y-150167867D01*
X205649530Y-148817839D01*
X205649726Y-148815168D01*
X205651455Y-148810133D01*
X205650805Y-148792807D01*
X205649619Y-148761231D01*
X205649530Y-148756504D01*
X205649530Y-148737528D01*
X205648648Y-148732789D01*
X205648418Y-148729249D01*
X205648315Y-148726494D01*
X205647255Y-148698267D01*
X205642662Y-148687576D01*
X205641623Y-148682967D01*
X205638068Y-148671267D01*
X205636370Y-148666866D01*
X205634239Y-148655423D01*
X205621299Y-148634430D01*
X205612796Y-148618062D01*
X205603065Y-148595413D01*
X205599052Y-148590526D01*
X205596857Y-148588331D01*
X205594799Y-148586061D01*
X205594961Y-148585914D01*
X205587865Y-148576937D01*
X205581601Y-148570030D01*
X205575498Y-148560128D01*
X205553719Y-148543567D01*
X205540898Y-148532372D01*
X204959038Y-147950514D01*
X204957285Y-147948484D01*
X204954947Y-147943701D01*
X204919046Y-147910398D01*
X204915641Y-147907118D01*
X204902245Y-147893722D01*
X204898275Y-147890998D01*
X204895627Y-147888673D01*
X204881404Y-147875480D01*
X204872876Y-147867569D01*
X204862069Y-147863257D01*
X204858084Y-147860738D01*
X204847275Y-147854966D01*
X204842970Y-147853059D01*
X204833376Y-147846477D01*
X204809386Y-147840784D01*
X204791790Y-147835219D01*
X204777164Y-147829384D01*
X204768900Y-147826087D01*
X204762607Y-147825470D01*
X204759525Y-147825470D01*
X204756455Y-147825320D01*
X204756466Y-147825104D01*
X204745091Y-147823772D01*
X204735777Y-147823317D01*
X204724456Y-147820630D01*
X204712927Y-147822199D01*
X204712926Y-147822199D01*
X204697349Y-147824319D01*
X204680358Y-147825470D01*
X203892842Y-147825470D01*
X203890169Y-147825274D01*
X203885134Y-147823545D01*
X203873512Y-147823981D01*
X203873510Y-147823981D01*
X203836221Y-147825381D01*
X203831495Y-147825470D01*
X203812528Y-147825470D01*
X203807793Y-147826352D01*
X203804267Y-147826580D01*
X203800527Y-147826721D01*
X203773268Y-147827744D01*
X203762583Y-147832334D01*
X203757983Y-147833371D01*
X203746262Y-147836932D01*
X203741859Y-147838631D01*
X203730423Y-147840761D01*
X203709437Y-147853697D01*
X203693065Y-147862201D01*
X203678588Y-147868421D01*
X203678584Y-147868423D01*
X203670413Y-147871934D01*
X203665527Y-147875948D01*
X203663342Y-147878133D01*
X203661079Y-147880185D01*
X203660934Y-147880025D01*
X203651927Y-147887145D01*
X203645032Y-147893397D01*
X203635128Y-147899502D01*
X203618560Y-147921290D01*
X203607366Y-147934109D01*
X203572794Y-147968681D01*
X203510482Y-148002707D01*
X203439667Y-147997642D01*
X203382831Y-147955095D01*
X203358020Y-147888575D01*
X203372577Y-147820190D01*
X203396929Y-147774631D01*
X203396930Y-147774628D01*
X203399845Y-147769175D01*
X203428386Y-147675087D01*
X203438076Y-147643142D01*
X203438076Y-147643140D01*
X203439871Y-147637224D01*
X203451167Y-147522546D01*
X203453339Y-147509335D01*
X203453531Y-147507669D01*
X203455142Y-147500716D01*
X203455143Y-147500000D01*
X203453154Y-147491282D01*
X203450000Y-147463267D01*
X203450000Y-146275262D01*
X212939520Y-146275262D01*
X212940036Y-146281406D01*
X212951999Y-146423863D01*
X212956759Y-146480553D01*
X212958458Y-146486478D01*
X212996557Y-146619344D01*
X213013544Y-146678586D01*
X213016359Y-146684063D01*
X213016360Y-146684066D01*
X213104897Y-146856341D01*
X213107712Y-146861818D01*
X213235677Y-147023270D01*
X213392564Y-147156791D01*
X213397942Y-147159797D01*
X213397944Y-147159798D01*
X213429563Y-147177469D01*
X213572398Y-147257297D01*
X213667238Y-147288112D01*
X213762471Y-147319056D01*
X213762475Y-147319057D01*
X213768329Y-147320959D01*
X213972894Y-147345351D01*
X213979029Y-147344879D01*
X213979031Y-147344879D01*
X214035039Y-147340569D01*
X214178300Y-147329546D01*
X214184230Y-147327890D01*
X214184232Y-147327890D01*
X214370797Y-147275800D01*
X214370796Y-147275800D01*
X214376725Y-147274145D01*
X214382214Y-147271372D01*
X214382220Y-147271370D01*
X214555116Y-147184033D01*
X214560610Y-147181258D01*
X214569715Y-147174145D01*
X214688605Y-147081258D01*
X214722951Y-147054424D01*
X214740530Y-147034059D01*
X214853540Y-146903134D01*
X214853540Y-146903133D01*
X214857564Y-146898472D01*
X214875550Y-146866812D01*
X214896056Y-146830714D01*
X214959323Y-146719344D01*
X215024351Y-146523863D01*
X215050171Y-146319474D01*
X215050583Y-146290000D01*
X215030480Y-146084970D01*
X214970935Y-145887749D01*
X214874218Y-145705849D01*
X214792660Y-145605849D01*
X214747906Y-145550975D01*
X214747903Y-145550972D01*
X214744011Y-145546200D01*
X214726786Y-145531950D01*
X214590025Y-145418811D01*
X214590021Y-145418809D01*
X214585275Y-145414882D01*
X214404055Y-145316897D01*
X214207254Y-145255977D01*
X214201129Y-145255333D01*
X214201128Y-145255333D01*
X214008498Y-145235087D01*
X214008496Y-145235087D01*
X214002369Y-145234443D01*
X213915529Y-145242346D01*
X213803342Y-145252555D01*
X213803339Y-145252556D01*
X213797203Y-145253114D01*
X213599572Y-145311280D01*
X213594107Y-145314137D01*
X213559833Y-145332055D01*
X213417002Y-145406726D01*
X213412201Y-145410586D01*
X213412198Y-145410588D01*
X213278142Y-145518372D01*
X213256447Y-145535815D01*
X213124024Y-145693630D01*
X213121056Y-145699028D01*
X213121053Y-145699033D01*
X213069038Y-145793649D01*
X213024776Y-145874162D01*
X212962484Y-146070532D01*
X212961798Y-146076649D01*
X212961797Y-146076653D01*
X212942874Y-146245361D01*
X212939520Y-146275262D01*
X203450000Y-146275262D01*
X203450000Y-144826000D01*
X203470002Y-144757879D01*
X203523658Y-144711386D01*
X203576000Y-144700000D01*
X214962976Y-144700000D01*
X214980182Y-144701953D01*
X214985813Y-144701963D01*
X214999642Y-144705143D01*
X215013481Y-144702011D01*
X215014472Y-144702013D01*
X215026601Y-144702620D01*
X215052218Y-144705143D01*
X215143722Y-144714156D01*
X215167939Y-144718972D01*
X215294273Y-144757294D01*
X215317093Y-144766747D01*
X215433511Y-144828974D01*
X215454048Y-144842697D01*
X215556092Y-144926442D01*
X215573558Y-144943908D01*
X215657303Y-145045952D01*
X215671026Y-145066489D01*
X215733253Y-145182907D01*
X215742706Y-145205726D01*
X215781028Y-145332061D01*
X215785844Y-145356278D01*
X215793298Y-145431950D01*
X215797429Y-145473898D01*
X215798010Y-145485930D01*
X215794857Y-145499642D01*
X215797989Y-145513482D01*
X215797980Y-145518372D01*
X215800000Y-145536448D01*
X215800000Y-154462976D01*
X215798047Y-154480182D01*
X215798037Y-154485813D01*
X215794857Y-154499642D01*
X215797989Y-154513481D01*
X215797987Y-154514472D01*
X215797380Y-154526601D01*
X215786432Y-154637764D01*
X215785845Y-154643719D01*
X215781028Y-154667939D01*
X215742745Y-154794145D01*
X215742706Y-154794273D01*
X215733253Y-154817093D01*
X215671026Y-154933511D01*
X215657303Y-154954048D01*
X215573558Y-155056092D01*
X215556092Y-155073558D01*
X215454048Y-155157303D01*
X215433511Y-155171026D01*
X215317093Y-155233253D01*
X215294274Y-155242706D01*
X215167939Y-155281028D01*
X215143722Y-155285844D01*
X215046147Y-155295455D01*
X215026102Y-155297429D01*
X215014070Y-155298010D01*
X215000358Y-155294857D01*
X214986518Y-155297989D01*
X214981628Y-155297980D01*
X214963552Y-155300000D01*
X185037024Y-155300000D01*
X185019818Y-155298047D01*
X185014187Y-155298037D01*
X185000358Y-155294857D01*
X184986519Y-155297989D01*
X184985528Y-155297987D01*
X184973399Y-155297380D01*
X184946607Y-155294741D01*
X184856278Y-155285844D01*
X184832061Y-155281028D01*
X184705726Y-155242706D01*
X184682907Y-155233253D01*
X184566489Y-155171026D01*
X184545952Y-155157303D01*
X184443908Y-155073558D01*
X184426442Y-155056092D01*
X184342697Y-154954048D01*
X184328974Y-154933511D01*
X184266747Y-154817093D01*
X184257294Y-154794273D01*
X184257255Y-154794145D01*
X184218972Y-154667939D01*
X184214155Y-154643719D01*
X184213569Y-154637764D01*
X184202571Y-154526102D01*
X184201990Y-154514070D01*
X184205143Y-154500358D01*
X184202011Y-154486518D01*
X184202020Y-154481628D01*
X184200000Y-154463552D01*
X184200000Y-151255262D01*
X184974520Y-151255262D01*
X184975036Y-151261406D01*
X184991159Y-151453404D01*
X184991759Y-151460553D01*
X184993458Y-151466478D01*
X185046834Y-151652621D01*
X185048544Y-151658586D01*
X185051359Y-151664063D01*
X185051360Y-151664066D01*
X185137678Y-151832023D01*
X185142712Y-151841818D01*
X185270677Y-152003270D01*
X185275370Y-152007264D01*
X185275371Y-152007265D01*
X185422251Y-152132269D01*
X185427564Y-152136791D01*
X185432942Y-152139797D01*
X185432944Y-152139798D01*
X185498745Y-152176573D01*
X185607398Y-152237297D01*
X185681142Y-152261258D01*
X185797471Y-152299056D01*
X185797475Y-152299057D01*
X185803329Y-152300959D01*
X186007894Y-152325351D01*
X186014029Y-152324879D01*
X186014031Y-152324879D01*
X186070039Y-152320569D01*
X186213300Y-152309546D01*
X186219230Y-152307890D01*
X186219232Y-152307890D01*
X186343104Y-152273304D01*
X186411725Y-152254145D01*
X186417214Y-152251372D01*
X186417220Y-152251370D01*
X186558578Y-152179964D01*
X186595610Y-152161258D01*
X186601341Y-152156781D01*
X186708998Y-152072670D01*
X186757951Y-152034424D01*
X186781630Y-152006992D01*
X186888540Y-151883134D01*
X186888540Y-151883133D01*
X186892564Y-151878472D01*
X186902615Y-151860780D01*
X186937515Y-151799344D01*
X186994323Y-151699344D01*
X187059351Y-151503863D01*
X187085171Y-151299474D01*
X187085390Y-151283806D01*
X187085534Y-151273522D01*
X187085534Y-151273518D01*
X187085583Y-151270000D01*
X187065480Y-151064970D01*
X187005935Y-150867749D01*
X186909218Y-150685849D01*
X186825947Y-150583749D01*
X186782906Y-150530975D01*
X186782903Y-150530972D01*
X186779011Y-150526200D01*
X186766458Y-150515815D01*
X186625025Y-150398811D01*
X186625021Y-150398809D01*
X186620275Y-150394882D01*
X186439055Y-150296897D01*
X186242254Y-150235977D01*
X186236129Y-150235333D01*
X186236128Y-150235333D01*
X186043498Y-150215087D01*
X186043496Y-150215087D01*
X186037369Y-150214443D01*
X185964043Y-150221116D01*
X185838342Y-150232555D01*
X185838339Y-150232556D01*
X185832203Y-150233114D01*
X185634572Y-150291280D01*
X185629107Y-150294137D01*
X185589196Y-150315002D01*
X185452002Y-150386726D01*
X185447201Y-150390586D01*
X185447198Y-150390588D01*
X185312596Y-150498811D01*
X185291447Y-150515815D01*
X185159024Y-150673630D01*
X185156056Y-150679028D01*
X185156053Y-150679033D01*
X185078140Y-150820757D01*
X185059776Y-150854162D01*
X184997484Y-151050532D01*
X184996798Y-151056649D01*
X184996797Y-151056653D01*
X184978209Y-151222375D01*
X184974520Y-151255262D01*
X184200000Y-151255262D01*
X184200000Y-148715262D01*
X184974520Y-148715262D01*
X184991759Y-148920553D01*
X184993458Y-148926478D01*
X185043031Y-149099359D01*
X185048544Y-149118586D01*
X185051359Y-149124063D01*
X185051360Y-149124066D01*
X185104307Y-149227090D01*
X185142712Y-149301818D01*
X185270677Y-149463270D01*
X185427564Y-149596791D01*
X185607398Y-149697297D01*
X185702238Y-149728113D01*
X185797471Y-149759056D01*
X185797475Y-149759057D01*
X185803329Y-149760959D01*
X186007894Y-149785351D01*
X186014029Y-149784879D01*
X186014031Y-149784879D01*
X186070039Y-149780569D01*
X186213300Y-149769546D01*
X186219230Y-149767890D01*
X186219232Y-149767890D01*
X186405797Y-149715800D01*
X186405796Y-149715800D01*
X186411725Y-149714145D01*
X186417214Y-149711372D01*
X186417220Y-149711370D01*
X186590116Y-149624033D01*
X186595610Y-149621258D01*
X186757951Y-149494424D01*
X186892564Y-149338472D01*
X186913387Y-149301818D01*
X186979091Y-149186157D01*
X186994323Y-149159344D01*
X187059351Y-148963863D01*
X187085171Y-148759474D01*
X187085583Y-148730000D01*
X187065480Y-148524970D01*
X187005935Y-148327749D01*
X186909218Y-148145849D01*
X186791320Y-148001292D01*
X186782906Y-147990975D01*
X186782903Y-147990972D01*
X186779011Y-147986200D01*
X186761786Y-147971950D01*
X186625025Y-147858811D01*
X186625021Y-147858809D01*
X186620275Y-147854882D01*
X186461763Y-147769175D01*
X186444474Y-147759827D01*
X186439055Y-147756897D01*
X186242254Y-147695977D01*
X186236129Y-147695333D01*
X186236128Y-147695333D01*
X186043498Y-147675087D01*
X186043496Y-147675087D01*
X186037369Y-147674443D01*
X185950529Y-147682346D01*
X185838342Y-147692555D01*
X185838339Y-147692556D01*
X185832203Y-147693114D01*
X185634572Y-147751280D01*
X185629107Y-147754137D01*
X185545456Y-147797869D01*
X185452002Y-147846726D01*
X185447201Y-147850586D01*
X185447198Y-147850588D01*
X185306731Y-147963526D01*
X185291447Y-147975815D01*
X185159024Y-148133630D01*
X185156056Y-148139028D01*
X185156053Y-148139033D01*
X185086735Y-148265123D01*
X185059776Y-148314162D01*
X184997484Y-148510532D01*
X184996798Y-148516649D01*
X184996797Y-148516653D01*
X184977422Y-148689387D01*
X184974520Y-148715262D01*
X184200000Y-148715262D01*
X184200000Y-146175262D01*
X184974520Y-146175262D01*
X184975036Y-146181406D01*
X184983861Y-146286494D01*
X184991759Y-146380553D01*
X184993458Y-146386478D01*
X185020434Y-146480553D01*
X185048544Y-146578586D01*
X185051359Y-146584063D01*
X185051360Y-146584066D01*
X185127023Y-146731291D01*
X185142712Y-146761818D01*
X185270677Y-146923270D01*
X185275370Y-146927264D01*
X185275371Y-146927265D01*
X185419310Y-147049766D01*
X185427564Y-147056791D01*
X185607398Y-147157297D01*
X185669481Y-147177469D01*
X185797471Y-147219056D01*
X185797475Y-147219057D01*
X185803329Y-147220959D01*
X186007894Y-147245351D01*
X186014029Y-147244879D01*
X186014031Y-147244879D01*
X186070039Y-147240569D01*
X186213300Y-147229546D01*
X186219230Y-147227890D01*
X186219232Y-147227890D01*
X186386249Y-147181258D01*
X186411725Y-147174145D01*
X186417214Y-147171372D01*
X186417220Y-147171370D01*
X186590116Y-147084033D01*
X186595610Y-147081258D01*
X186625107Y-147058213D01*
X186753101Y-146958213D01*
X186757951Y-146954424D01*
X186826508Y-146875000D01*
X186888540Y-146803134D01*
X186888540Y-146803133D01*
X186892564Y-146798472D01*
X186913387Y-146761818D01*
X186991276Y-146624707D01*
X186994323Y-146619344D01*
X187059351Y-146423863D01*
X187085171Y-146219474D01*
X187085583Y-146190000D01*
X187065480Y-145984970D01*
X187005935Y-145787749D01*
X186909218Y-145605849D01*
X186823181Y-145500358D01*
X186782906Y-145450975D01*
X186782903Y-145450972D01*
X186779011Y-145446200D01*
X186761786Y-145431950D01*
X186625025Y-145318811D01*
X186625021Y-145318809D01*
X186620275Y-145314882D01*
X186439055Y-145216897D01*
X186242254Y-145155977D01*
X186236129Y-145155333D01*
X186236128Y-145155333D01*
X186043498Y-145135087D01*
X186043496Y-145135087D01*
X186037369Y-145134443D01*
X185950529Y-145142346D01*
X185838342Y-145152555D01*
X185838339Y-145152556D01*
X185832203Y-145153114D01*
X185634572Y-145211280D01*
X185452002Y-145306726D01*
X185447201Y-145310586D01*
X185447198Y-145310588D01*
X185312596Y-145418811D01*
X185291447Y-145435815D01*
X185159024Y-145593630D01*
X185156056Y-145599028D01*
X185156053Y-145599033D01*
X185076518Y-145743709D01*
X185059776Y-145774162D01*
X184997484Y-145970532D01*
X184996798Y-145976649D01*
X184996797Y-145976653D01*
X184980507Y-146121887D01*
X184974520Y-146175262D01*
X184200000Y-146175262D01*
X184200000Y-145537024D01*
X184201953Y-145519818D01*
X184201963Y-145514187D01*
X184205143Y-145500358D01*
X184202011Y-145486519D01*
X184202013Y-145485528D01*
X184202620Y-145473399D01*
X184214155Y-145356281D01*
X184218972Y-145332061D01*
X184257294Y-145205726D01*
X184266747Y-145182907D01*
X184328974Y-145066489D01*
X184342697Y-145045952D01*
X184426442Y-144943908D01*
X184443908Y-144926442D01*
X184545952Y-144842697D01*
X184566489Y-144828974D01*
X184682907Y-144766747D01*
X184705727Y-144757294D01*
X184832061Y-144718972D01*
X184856278Y-144714156D01*
X184973400Y-144702620D01*
X184973898Y-144702571D01*
X184985930Y-144701990D01*
X184999642Y-144705143D01*
X185013482Y-144702011D01*
X185018372Y-144702020D01*
X185036448Y-144700000D01*
X194424000Y-144700000D01*
X194492121Y-144720002D01*
G37*
%TD.AperFunction*%
%TA.AperFunction,Conductor*%
G36*
X203705534Y-150145013D02*
G01*
X203752027Y-150198669D01*
X203762335Y-150234563D01*
X203763670Y-150244703D01*
X203819139Y-150378619D01*
X203848273Y-150416587D01*
X203892360Y-150474042D01*
X203917961Y-150540262D01*
X203903696Y-150609811D01*
X203892368Y-150627439D01*
X203819139Y-150722872D01*
X203763670Y-150856788D01*
X203744750Y-151000497D01*
X203763670Y-151144206D01*
X203819139Y-151278122D01*
X203892362Y-151373547D01*
X203917961Y-151439763D01*
X203903697Y-151509312D01*
X203892360Y-151526952D01*
X203819139Y-151622375D01*
X203763670Y-151756291D01*
X203744750Y-151900000D01*
X203763670Y-152043709D01*
X203819139Y-152177625D01*
X203907379Y-152292621D01*
X204022375Y-152380861D01*
X204156291Y-152436330D01*
X204300000Y-152455250D01*
X204443709Y-152436330D01*
X204577625Y-152380861D01*
X204692621Y-152292621D01*
X204780861Y-152177625D01*
X204836330Y-152043709D01*
X204855250Y-151900000D01*
X204857815Y-151900338D01*
X204874174Y-151844624D01*
X204891077Y-151823650D01*
X204975622Y-151739105D01*
X205037934Y-151705079D01*
X205108749Y-151710144D01*
X205165585Y-151752691D01*
X205190396Y-151819211D01*
X205190717Y-151828193D01*
X205190716Y-152307879D01*
X205190716Y-152782123D01*
X205170714Y-152850244D01*
X205153811Y-152871218D01*
X204860985Y-153164044D01*
X204798673Y-153198070D01*
X204771890Y-153200949D01*
X203311202Y-153200949D01*
X203308527Y-153200753D01*
X203303490Y-153199023D01*
X203254562Y-153200860D01*
X203249835Y-153200949D01*
X203230884Y-153200949D01*
X203229058Y-153201289D01*
X203225350Y-153201460D01*
X202601956Y-153201460D01*
X202533835Y-153181458D01*
X202487342Y-153127802D01*
X202477238Y-153057528D01*
X202501993Y-152998758D01*
X202517825Y-152978125D01*
X202573294Y-152844209D01*
X202592214Y-152700500D01*
X202573294Y-152556791D01*
X202517825Y-152422875D01*
X202429585Y-152307879D01*
X202314589Y-152219639D01*
X202180673Y-152164170D01*
X202036964Y-152145250D01*
X202037106Y-152144169D01*
X201976338Y-152126326D01*
X201929845Y-152072670D01*
X201919741Y-152002396D01*
X201949077Y-151937997D01*
X202046430Y-151825212D01*
X202046431Y-151825211D01*
X202050454Y-151820550D01*
X202053821Y-151814624D01*
X202092403Y-151746706D01*
X202142526Y-151658474D01*
X202201364Y-151481601D01*
X202212542Y-151393118D01*
X202224285Y-151300170D01*
X202224286Y-151300163D01*
X202224727Y-151296668D01*
X202225099Y-151270000D01*
X202206909Y-151084487D01*
X202205128Y-151078588D01*
X202205127Y-151078583D01*
X202154814Y-150911939D01*
X202153033Y-150906040D01*
X202086587Y-150781073D01*
X202068416Y-150746898D01*
X202068414Y-150746895D01*
X202065522Y-150741456D01*
X202061632Y-150736686D01*
X202061629Y-150736682D01*
X201951605Y-150601780D01*
X201951602Y-150601777D01*
X201947710Y-150597005D01*
X201942056Y-150592327D01*
X201829015Y-150498811D01*
X201804085Y-150478187D01*
X201640116Y-150389529D01*
X201581472Y-150371376D01*
X201522313Y-150332125D01*
X201493765Y-150267121D01*
X201504893Y-150197002D01*
X201552164Y-150144030D01*
X201618731Y-150125011D01*
X203637413Y-150125011D01*
X203705534Y-150145013D01*
G37*
%TD.AperFunction*%
%TA.AperFunction,Conductor*%
G36*
X195907447Y-150145013D02*
G01*
X195953940Y-150198669D01*
X195964044Y-150268943D01*
X195934550Y-150333523D01*
X195874902Y-150371884D01*
X195832214Y-150384448D01*
X195667023Y-150470807D01*
X195521752Y-150587608D01*
X195401935Y-150730401D01*
X195398971Y-150735793D01*
X195398968Y-150735797D01*
X195371452Y-150785849D01*
X195312135Y-150893746D01*
X195310274Y-150899613D01*
X195310273Y-150899615D01*
X195257819Y-151064970D01*
X195255772Y-151071424D01*
X195234994Y-151256665D01*
X195235510Y-151262809D01*
X195249497Y-151429370D01*
X195250592Y-151442414D01*
X195252291Y-151448339D01*
X195299608Y-151613354D01*
X195301971Y-151621595D01*
X195312829Y-151642723D01*
X195384360Y-151781905D01*
X195387176Y-151787385D01*
X195502959Y-151933468D01*
X195507652Y-151937462D01*
X195507653Y-151937463D01*
X195511384Y-151940638D01*
X195644912Y-152054279D01*
X195807627Y-152145217D01*
X195984907Y-152202819D01*
X196169998Y-152224890D01*
X196176133Y-152224418D01*
X196176135Y-152224418D01*
X196349710Y-152211062D01*
X196349715Y-152211061D01*
X196355851Y-152210589D01*
X196361781Y-152208933D01*
X196361783Y-152208933D01*
X196529460Y-152162117D01*
X196529462Y-152162116D01*
X196535387Y-152160462D01*
X196540883Y-152157686D01*
X196544878Y-152156136D01*
X196615621Y-152150148D01*
X196679541Y-152184512D01*
X196827262Y-152332233D01*
X196829018Y-152334268D01*
X196831356Y-152339050D01*
X196839883Y-152346960D01*
X196842743Y-152350811D01*
X196867299Y-152417426D01*
X196851941Y-152486742D01*
X196801546Y-152536751D01*
X196741586Y-152551932D01*
X195424093Y-152551932D01*
X195355972Y-152531930D01*
X195334998Y-152515027D01*
X194577805Y-151757834D01*
X194543779Y-151695522D01*
X194547342Y-151628967D01*
X194582256Y-151524010D01*
X194596364Y-151481601D01*
X194607542Y-151393118D01*
X194619285Y-151300170D01*
X194619286Y-151300163D01*
X194619727Y-151296668D01*
X194620099Y-151270000D01*
X194601909Y-151084487D01*
X194600128Y-151078588D01*
X194600127Y-151078583D01*
X194549814Y-150911939D01*
X194548033Y-150906040D01*
X194481587Y-150781073D01*
X194463416Y-150746898D01*
X194463414Y-150746895D01*
X194460522Y-150741456D01*
X194456632Y-150736686D01*
X194456629Y-150736682D01*
X194346605Y-150601780D01*
X194346602Y-150601777D01*
X194342710Y-150597005D01*
X194337056Y-150592327D01*
X194224015Y-150498811D01*
X194199085Y-150478187D01*
X194035116Y-150389529D01*
X193976472Y-150371376D01*
X193917313Y-150332125D01*
X193888765Y-150267121D01*
X193899893Y-150197002D01*
X193947164Y-150144030D01*
X194013731Y-150125011D01*
X195839326Y-150125011D01*
X195907447Y-150145013D01*
G37*
%TD.AperFunction*%
%TA.AperFunction,Conductor*%
G36*
X198447447Y-150145013D02*
G01*
X198493940Y-150198669D01*
X198504044Y-150268943D01*
X198474550Y-150333523D01*
X198414902Y-150371884D01*
X198372214Y-150384448D01*
X198207023Y-150470807D01*
X198061752Y-150587608D01*
X197941935Y-150730401D01*
X197938971Y-150735793D01*
X197938968Y-150735797D01*
X197911452Y-150785849D01*
X197852135Y-150893746D01*
X197850274Y-150899613D01*
X197850273Y-150899615D01*
X197797819Y-151064970D01*
X197795772Y-151071424D01*
X197774994Y-151256665D01*
X197775510Y-151262809D01*
X197789497Y-151429370D01*
X197790592Y-151442414D01*
X197792291Y-151448339D01*
X197792854Y-151450303D01*
X197792847Y-151451370D01*
X197793403Y-151454398D01*
X197792827Y-151454504D01*
X197792400Y-151521298D01*
X197753635Y-151580777D01*
X197688180Y-151609949D01*
X197644743Y-151615668D01*
X197608413Y-151620451D01*
X197474497Y-151675920D01*
X197359501Y-151764160D01*
X197338261Y-151791841D01*
X197280925Y-151833708D01*
X197210054Y-151837930D01*
X197149204Y-151804232D01*
X197102805Y-151757833D01*
X197068779Y-151695521D01*
X197072342Y-151628966D01*
X197099787Y-151546463D01*
X197121364Y-151481601D01*
X197132542Y-151393118D01*
X197144285Y-151300170D01*
X197144286Y-151300163D01*
X197144727Y-151296668D01*
X197145099Y-151270000D01*
X197126909Y-151084487D01*
X197125128Y-151078588D01*
X197125127Y-151078583D01*
X197074814Y-150911939D01*
X197073033Y-150906040D01*
X197006587Y-150781073D01*
X196988416Y-150746898D01*
X196988414Y-150746895D01*
X196985522Y-150741456D01*
X196981632Y-150736686D01*
X196981629Y-150736682D01*
X196871605Y-150601780D01*
X196871602Y-150601777D01*
X196867710Y-150597005D01*
X196862056Y-150592327D01*
X196749015Y-150498811D01*
X196724085Y-150478187D01*
X196560116Y-150389529D01*
X196501472Y-150371376D01*
X196442313Y-150332125D01*
X196413765Y-150267121D01*
X196424893Y-150197002D01*
X196472164Y-150144030D01*
X196538731Y-150125011D01*
X198379326Y-150125011D01*
X198447447Y-150145013D01*
G37*
%TD.AperFunction*%
%TA.AperFunction,Conductor*%
G36*
X193382447Y-150145013D02*
G01*
X193428940Y-150198669D01*
X193439044Y-150268943D01*
X193409550Y-150333523D01*
X193349902Y-150371884D01*
X193307214Y-150384448D01*
X193142023Y-150470807D01*
X192996752Y-150587608D01*
X192876935Y-150730401D01*
X192873971Y-150735793D01*
X192873968Y-150735797D01*
X192846452Y-150785849D01*
X192787135Y-150893746D01*
X192785274Y-150899613D01*
X192785273Y-150899615D01*
X192771511Y-150942999D01*
X192730772Y-151071424D01*
X192730226Y-151076290D01*
X192696708Y-151138377D01*
X192634559Y-151172699D01*
X192563720Y-151167973D01*
X192507227Y-151126413D01*
X192497649Y-151113931D01*
X192497647Y-151113929D01*
X192492621Y-151107379D01*
X192377625Y-151019139D01*
X192243709Y-150963670D01*
X192100000Y-150944750D01*
X192091812Y-150945828D01*
X192083554Y-150945828D01*
X192083554Y-150944213D01*
X192022803Y-150934742D01*
X191969702Y-150887616D01*
X191950500Y-150820757D01*
X191950500Y-150601661D01*
X191970502Y-150533540D01*
X191987405Y-150512566D01*
X192338055Y-150161916D01*
X192400367Y-150127890D01*
X192427150Y-150125011D01*
X193314326Y-150125011D01*
X193382447Y-150145013D01*
G37*
%TD.AperFunction*%
%TA.AperFunction,Conductor*%
G36*
X197992121Y-144720002D02*
G01*
X198038614Y-144773658D01*
X198050000Y-144826000D01*
X198050000Y-147462688D01*
X198046746Y-147491137D01*
X198044858Y-147499284D01*
X198044857Y-147500000D01*
X198046439Y-147506937D01*
X198046602Y-147508391D01*
X198048726Y-147521460D01*
X198060129Y-147637224D01*
X198061924Y-147643140D01*
X198061924Y-147643142D01*
X198071614Y-147675087D01*
X198100155Y-147769175D01*
X198133035Y-147830688D01*
X198159395Y-147880004D01*
X198165155Y-147890781D01*
X198169080Y-147895564D01*
X198169081Y-147895565D01*
X198190186Y-147921281D01*
X198252631Y-147997369D01*
X198359219Y-148084845D01*
X198365739Y-148088330D01*
X198366191Y-148088774D01*
X198369825Y-148091202D01*
X198369364Y-148091891D01*
X198416386Y-148138082D01*
X198432095Y-148207319D01*
X198407879Y-148274057D01*
X198351425Y-148317109D01*
X198306341Y-148325451D01*
X195693659Y-148325451D01*
X195625538Y-148305449D01*
X195579045Y-148251793D01*
X195568941Y-148181519D01*
X195598435Y-148116939D01*
X195630345Y-148091457D01*
X195630175Y-148091202D01*
X195633172Y-148089200D01*
X195634260Y-148088330D01*
X195640781Y-148084845D01*
X195747369Y-147997369D01*
X195809814Y-147921281D01*
X195830919Y-147895565D01*
X195830920Y-147895564D01*
X195834845Y-147890781D01*
X195840606Y-147880004D01*
X195866965Y-147830688D01*
X195899845Y-147769175D01*
X195928386Y-147675087D01*
X195938076Y-147643142D01*
X195938076Y-147643140D01*
X195939871Y-147637224D01*
X195951167Y-147522546D01*
X195953339Y-147509335D01*
X195953531Y-147507669D01*
X195955142Y-147500716D01*
X195955143Y-147500000D01*
X195953154Y-147491282D01*
X195950000Y-147463267D01*
X195950000Y-144826000D01*
X195970002Y-144757879D01*
X196023658Y-144711386D01*
X196076000Y-144700000D01*
X197924000Y-144700000D01*
X197992121Y-144720002D01*
G37*
%TD.AperFunction*%
%TD*%
M02*
