%TF.GenerationSoftware,KiCad,Pcbnew,6.0.2+dfsg-1*%
%TF.CreationDate,2023-02-09T12:57:16+13:00*%
%TF.ProjectId,BRAWN-100_LOGIC,42524157-4e2d-4313-9030-5f4c4f474943,v1.0*%
%TF.SameCoordinates,Original*%
%TF.FileFunction,Copper,L1,Top*%
%TF.FilePolarity,Positive*%
%FSLAX46Y46*%
G04 Gerber Fmt 4.6, Leading zero omitted, Abs format (unit mm)*
G04 Created by KiCad (PCBNEW 6.0.2+dfsg-1) date 2023-02-09 12:57:16*
%MOMM*%
%LPD*%
G01*
G04 APERTURE LIST*
G04 Aperture macros list*
%AMRoundRect*
0 Rectangle with rounded corners*
0 $1 Rounding radius*
0 $2 $3 $4 $5 $6 $7 $8 $9 X,Y pos of 4 corners*
0 Add a 4 corners polygon primitive as box body*
4,1,4,$2,$3,$4,$5,$6,$7,$8,$9,$2,$3,0*
0 Add four circle primitives for the rounded corners*
1,1,$1+$1,$2,$3*
1,1,$1+$1,$4,$5*
1,1,$1+$1,$6,$7*
1,1,$1+$1,$8,$9*
0 Add four rect primitives between the rounded corners*
20,1,$1+$1,$2,$3,$4,$5,0*
20,1,$1+$1,$4,$5,$6,$7,0*
20,1,$1+$1,$6,$7,$8,$9,0*
20,1,$1+$1,$8,$9,$2,$3,0*%
G04 Aperture macros list end*
%TA.AperFunction,SMDPad,CuDef*%
%ADD10RoundRect,0.200000X-0.250000X-0.200000X0.250000X-0.200000X0.250000X0.200000X-0.250000X0.200000X0*%
%TD*%
%TA.AperFunction,SMDPad,CuDef*%
%ADD11RoundRect,0.218750X-0.218750X-0.256250X0.218750X-0.256250X0.218750X0.256250X-0.218750X0.256250X0*%
%TD*%
%TA.AperFunction,SMDPad,CuDef*%
%ADD12RoundRect,0.150000X0.625000X0.150000X-0.625000X0.150000X-0.625000X-0.150000X0.625000X-0.150000X0*%
%TD*%
%TA.AperFunction,SMDPad,CuDef*%
%ADD13RoundRect,0.225000X0.225000X0.250000X-0.225000X0.250000X-0.225000X-0.250000X0.225000X-0.250000X0*%
%TD*%
%TA.AperFunction,ComponentPad*%
%ADD14C,1.400000*%
%TD*%
%TA.AperFunction,ConnectorPad*%
%ADD15R,2.500000X3.000000*%
%TD*%
%TA.AperFunction,ComponentPad*%
%ADD16C,1.700000*%
%TD*%
%TA.AperFunction,ComponentPad*%
%ADD17O,1.700000X1.700000*%
%TD*%
%TA.AperFunction,SMDPad,CuDef*%
%ADD18RoundRect,0.225000X-0.225000X-0.250000X0.225000X-0.250000X0.225000X0.250000X-0.225000X0.250000X0*%
%TD*%
%TA.AperFunction,SMDPad,CuDef*%
%ADD19RoundRect,0.200000X0.200000X0.275000X-0.200000X0.275000X-0.200000X-0.275000X0.200000X-0.275000X0*%
%TD*%
%TA.AperFunction,SMDPad,CuDef*%
%ADD20O,0.500000X0.300000*%
%TD*%
%TA.AperFunction,SMDPad,CuDef*%
%ADD21O,0.650000X0.300000*%
%TD*%
%TA.AperFunction,SMDPad,CuDef*%
%ADD22O,0.300000X0.500000*%
%TD*%
%TA.AperFunction,SMDPad,CuDef*%
%ADD23O,0.300000X0.650000*%
%TD*%
%TA.AperFunction,SMDPad,CuDef*%
%ADD24RoundRect,0.150000X-0.150000X0.625000X-0.150000X-0.625000X0.150000X-0.625000X0.150000X0.625000X0*%
%TD*%
%TA.AperFunction,SMDPad,CuDef*%
%ADD25RoundRect,0.200000X-0.200000X-0.275000X0.200000X-0.275000X0.200000X0.275000X-0.200000X0.275000X0*%
%TD*%
%TA.AperFunction,ViaPad*%
%ADD26C,0.700000*%
%TD*%
%TA.AperFunction,Conductor*%
%ADD27C,0.500000*%
%TD*%
%TA.AperFunction,Conductor*%
%ADD28C,0.200000*%
%TD*%
%TA.AperFunction,Conductor*%
%ADD29C,0.300000*%
%TD*%
G04 APERTURE END LIST*
D10*
%TO.P,U1,3,VIN*%
%TO.N,+BATT*%
X212350000Y-150700000D03*
%TO.P,U1,2,VOUT*%
%TO.N,+3V3*%
X210350000Y-151650000D03*
%TO.P,U1,1,GND*%
%TO.N,GND*%
X210350000Y-149750000D03*
%TD*%
D11*
%TO.P,DS1,1,K*%
%TO.N,Net-(DS1-Pad1)*%
X198212500Y-149500000D03*
%TO.P,DS1,2,A*%
%TO.N,Net-(DS1-Pad2)*%
X199787500Y-149500000D03*
%TD*%
D12*
%TO.P,U4,1,VCC*%
%TO.N,+8V*%
X193500000Y-149405000D03*
%TO.P,U4,2,HIN*%
%TO.N,/FET_P2*%
X193500000Y-148135000D03*
%TO.P,U4,3,LIN*%
%TO.N,/FET_N2*%
X193500000Y-146865000D03*
%TO.P,U4,4,GND*%
%TO.N,GND*%
X193500000Y-145595000D03*
%TO.P,U4,5,LOUT*%
%TO.N,/GATE_N2*%
X188100000Y-145595000D03*
%TO.P,U4,6,VS*%
%TO.N,/MOTOR-*%
X188100000Y-146865000D03*
%TO.P,U4,7,HOUT*%
%TO.N,/GATE_P2*%
X188100000Y-148135000D03*
%TO.P,U4,8,VB*%
%TO.N,+12V*%
X188100000Y-149405000D03*
%TD*%
%TO.P,U3,1,VCC*%
%TO.N,+8V*%
X193500000Y-154455000D03*
%TO.P,U3,2,HIN*%
%TO.N,/FET_P1*%
X193500000Y-153185000D03*
%TO.P,U3,3,LIN*%
%TO.N,/FET_N1*%
X193500000Y-151915000D03*
%TO.P,U3,4,GND*%
%TO.N,GND*%
X193500000Y-150645000D03*
%TO.P,U3,5,LOUT*%
%TO.N,/GATE_N1*%
X188100000Y-150645000D03*
%TO.P,U3,6,VS*%
%TO.N,/MOTOR+*%
X188100000Y-151915000D03*
%TO.P,U3,7,HOUT*%
%TO.N,/GATE_P1*%
X188100000Y-153185000D03*
%TO.P,U3,8,VB*%
%TO.N,+12V*%
X188100000Y-154455000D03*
%TD*%
D13*
%TO.P,C5,1*%
%TO.N,+BATT*%
X212175000Y-146900000D03*
%TO.P,C5,2*%
%TO.N,GND*%
X210625000Y-146900000D03*
%TD*%
D14*
%TO.P,H2,1,1*%
%TO.N,Net-(H2-Pad1)*%
X201000000Y-146000000D03*
D15*
X201000000Y-146000000D03*
%TD*%
D16*
%TO.P,J2,1,Pin_1*%
%TO.N,/MOTOR-*%
X186030000Y-146190000D03*
D17*
%TO.P,J2,2,Pin_2*%
%TO.N,/GATE_N1*%
X186030000Y-148730000D03*
%TO.P,J2,3,Pin_3*%
%TO.N,/MOTOR+*%
X186030000Y-151270000D03*
%TO.P,J2,4,Pin_4*%
%TO.N,/GATE_N2*%
X186030000Y-153810000D03*
%TD*%
D13*
%TO.P,C1,1*%
%TO.N,+BATT*%
X212175000Y-148300000D03*
%TO.P,C1,2*%
%TO.N,GND*%
X210625000Y-148300000D03*
%TD*%
D18*
%TO.P,C7,1*%
%TO.N,+3V3*%
X210725000Y-153100000D03*
%TO.P,C7,2*%
%TO.N,GND*%
X212275000Y-153100000D03*
%TD*%
%TO.P,C13,1*%
%TO.N,+8V*%
X195225000Y-154500000D03*
%TO.P,C13,2*%
%TO.N,GND*%
X196775000Y-154500000D03*
%TD*%
%TO.P,C11,1*%
%TO.N,+12V*%
X207825000Y-154500000D03*
%TO.P,C11,2*%
%TO.N,GND*%
X209375000Y-154500000D03*
%TD*%
D16*
%TO.P,J1,1,Pin_1*%
%TO.N,+BATT*%
X213995000Y-146290000D03*
D17*
%TO.P,J1,2,Pin_2*%
%TO.N,GND*%
X213995000Y-148830000D03*
%TO.P,J1,3,Pin_3*%
%TO.N,/GATE_P1*%
X213995000Y-151370000D03*
%TO.P,J1,4,Pin_4*%
%TO.N,/GATE_P2*%
X213995000Y-153910000D03*
%TD*%
D19*
%TO.P,R4,1*%
%TO.N,+12V*%
X196825000Y-153100000D03*
%TO.P,R4,2*%
%TO.N,+8V*%
X195175000Y-153100000D03*
%TD*%
D20*
%TO.P,U2,1,PC14/OSC32_IN*%
%TO.N,unconnected-(U2-Pad1)*%
X202975000Y-154400000D03*
D21*
%TO.P,U2,2,PC15/OSC32_OUT*%
%TO.N,unconnected-(U2-Pad2)*%
X202900000Y-153900000D03*
%TO.P,U2,3,VDD/VDDA*%
%TO.N,+3V3*%
X202900000Y-153400000D03*
%TO.P,U2,4,VSS/VSSA*%
%TO.N,GND*%
X202900000Y-152900000D03*
%TO.P,U2,5,PF2/NRST*%
%TO.N,/nRST*%
X202900000Y-152400000D03*
%TO.P,U2,6,PA0*%
%TO.N,/FET_N2*%
X202900000Y-151900000D03*
D20*
%TO.P,U2,7,PA1*%
%TO.N,/FET_P2*%
X202975000Y-151400000D03*
D22*
%TO.P,U2,8,PA2*%
%TO.N,/FET_N1*%
X202500000Y-150925000D03*
D23*
%TO.P,U2,9,PA3*%
%TO.N,/FET_P1*%
X202000000Y-151000000D03*
%TO.P,U2,10,PA4*%
%TO.N,unconnected-(U2-Pad10)*%
X201500000Y-151000000D03*
%TO.P,U2,11,PA5*%
%TO.N,/SIGNAL*%
X201000000Y-151000000D03*
%TO.P,U2,12,PA6*%
%TO.N,unconnected-(U2-Pad12)*%
X200500000Y-151000000D03*
%TO.P,U2,13,PA7*%
%TO.N,Net-(DS1-Pad2)*%
X200000000Y-151000000D03*
D22*
%TO.P,U2,14,PB0*%
%TO.N,unconnected-(U2-Pad14)*%
X199500000Y-150925000D03*
D20*
%TO.P,U2,15,PB1*%
%TO.N,unconnected-(U2-Pad15)*%
X199025000Y-151400000D03*
D21*
%TO.P,U2,16,PA8*%
%TO.N,unconnected-(U2-Pad16)*%
X199100000Y-151900000D03*
%TO.P,U2,17,PC6*%
%TO.N,unconnected-(U2-Pad17)*%
X199100000Y-152400000D03*
%TO.P,U2,18,PA9/PA11*%
%TO.N,unconnected-(U2-Pad18)*%
X199100000Y-152900000D03*
%TO.P,U2,19,PA10/PA12*%
%TO.N,unconnected-(U2-Pad19)*%
X199100000Y-153400000D03*
%TO.P,U2,20,SWDIO/PA13*%
%TO.N,/SWDIO*%
X199100000Y-153900000D03*
D20*
%TO.P,U2,21,SWCLK/PA14*%
%TO.N,/SWDCLK*%
X199025000Y-154400000D03*
D22*
%TO.P,U2,22,PA15*%
%TO.N,unconnected-(U2-Pad22)*%
X199500000Y-154875000D03*
D23*
%TO.P,U2,23,PB3*%
%TO.N,unconnected-(U2-Pad23)*%
X200000000Y-154800000D03*
%TO.P,U2,24,PB4*%
%TO.N,unconnected-(U2-Pad24)*%
X200500000Y-154800000D03*
%TO.P,U2,25,PB5*%
%TO.N,unconnected-(U2-Pad25)*%
X201000000Y-154800000D03*
%TO.P,U2,26,PB6*%
%TO.N,unconnected-(U2-Pad26)*%
X201500000Y-154800000D03*
%TO.P,U2,27,PB7*%
%TO.N,unconnected-(U2-Pad27)*%
X202000000Y-154800000D03*
D22*
%TO.P,U2,28,PB8*%
%TO.N,unconnected-(U2-Pad28)*%
X202500000Y-154875000D03*
%TD*%
D18*
%TO.P,C6,1*%
%TO.N,+3V3*%
X210725000Y-154500000D03*
%TO.P,C6,2*%
%TO.N,GND*%
X212275000Y-154500000D03*
%TD*%
D24*
%TO.P,U5,1,C1-*%
%TO.N,Net-(C8-Pad2)*%
X209105000Y-147300000D03*
%TO.P,U5,2,C1+*%
%TO.N,Net-(C8-Pad1)*%
X207835000Y-147300000D03*
%TO.P,U5,3,C2-*%
%TO.N,Net-(C10-Pad2)*%
X206565000Y-147300000D03*
%TO.P,U5,4,C2+*%
%TO.N,Net-(C10-Pad1)*%
X205295000Y-147300000D03*
%TO.P,U5,5,VCC*%
%TO.N,+3V3*%
X205295000Y-152700000D03*
%TO.P,U5,6,VOUT*%
%TO.N,+12V*%
X206565000Y-152700000D03*
%TO.P,U5,7,GND*%
%TO.N,GND*%
X207835000Y-152700000D03*
%TO.P,U5,8,SHDN*%
%TO.N,Net-(JP1-Pad2)*%
X209105000Y-152700000D03*
%TD*%
D18*
%TO.P,C10,1*%
%TO.N,Net-(C10-Pad1)*%
X204625000Y-145500000D03*
%TO.P,C10,2*%
%TO.N,Net-(C10-Pad2)*%
X206175000Y-145500000D03*
%TD*%
D25*
%TO.P,R5,1*%
%TO.N,+8V*%
X195175000Y-151700000D03*
%TO.P,R5,2*%
%TO.N,GND*%
X196825000Y-151700000D03*
%TD*%
D19*
%TO.P,R6,1*%
%TO.N,Net-(H2-Pad1)*%
X202825000Y-149500000D03*
%TO.P,R6,2*%
%TO.N,/SIGNAL*%
X201175000Y-149500000D03*
%TD*%
D14*
%TO.P,H1,1,1*%
%TO.N,GND*%
X197000000Y-146000000D03*
D15*
X197000000Y-146000000D03*
%TD*%
D13*
%TO.P,C2,1*%
%TO.N,+BATT*%
X212175000Y-145500000D03*
%TO.P,C2,2*%
%TO.N,GND*%
X210625000Y-145500000D03*
%TD*%
D19*
%TO.P,R1,1*%
%TO.N,Net-(DS1-Pad1)*%
X196825000Y-149500000D03*
%TO.P,R1,2*%
%TO.N,GND*%
X195175000Y-149500000D03*
%TD*%
D18*
%TO.P,C8,1*%
%TO.N,Net-(C8-Pad1)*%
X207625000Y-145500000D03*
%TO.P,C8,2*%
%TO.N,Net-(C8-Pad2)*%
X209175000Y-145500000D03*
%TD*%
D13*
%TO.P,C9,1*%
%TO.N,+3V3*%
X206475000Y-154500000D03*
%TO.P,C9,2*%
%TO.N,GND*%
X204925000Y-154500000D03*
%TD*%
D26*
%TO.N,GND*%
X190550000Y-146775000D03*
X215200000Y-152625000D03*
X215125000Y-150075000D03*
X215150000Y-147675000D03*
X184700000Y-152600000D03*
X184750000Y-150075000D03*
X184800000Y-147450000D03*
X190775000Y-149725000D03*
X205925000Y-148450000D03*
X204425000Y-147450000D03*
X209450000Y-149750000D03*
X211300000Y-147600000D03*
X209950000Y-147600000D03*
X209900000Y-146350000D03*
X211300000Y-146200000D03*
X210150000Y-145050000D03*
X211200000Y-145050000D03*
X211250000Y-151050000D03*
X212275000Y-152250000D03*
X211700000Y-154946365D03*
X213050000Y-154950000D03*
X190450000Y-154949989D03*
X191747168Y-154952832D03*
X190425000Y-152350000D03*
%TO.N,/FET_N2*%
X192150000Y-146875000D03*
%TO.N,/FET_P2*%
X192200000Y-148150000D03*
%TO.N,/FET_P1*%
X192075000Y-152652450D03*
%TO.N,/FET_N1*%
X192100000Y-151500000D03*
%TO.N,GND*%
X194950000Y-150625000D03*
X197464976Y-150972644D03*
%TO.N,+3V3*%
X201244141Y-152275609D03*
%TO.N,/SWDIO*%
X199972881Y-152852432D03*
%TO.N,/SWDCLK*%
X197752122Y-152156781D03*
%TO.N,/nRST*%
X202036964Y-152700500D03*
%TO.N,/FET_P1*%
X204275000Y-149175000D03*
%TO.N,/FET_P2*%
X204300000Y-151000497D03*
%TO.N,/FET_N2*%
X204300000Y-151900000D03*
%TO.N,GND*%
X203727358Y-152652449D03*
%TO.N,/FET_N1*%
X204300000Y-150100994D03*
%TO.N,/GATE_P2*%
X189417803Y-148114866D03*
%TO.N,/GATE_P1*%
X189450000Y-153051969D03*
%TO.N,/GATE_N2*%
X189305113Y-145600000D03*
%TO.N,GND*%
X192490247Y-145589866D03*
X208796613Y-154955962D03*
X207840247Y-151439866D03*
X192490247Y-150639866D03*
X205497111Y-154950000D03*
X196200000Y-154950000D03*
X209750000Y-154950000D03*
X211315247Y-149739866D03*
X204275000Y-154950000D03*
%TO.N,+12V*%
X206540247Y-151489866D03*
X189440247Y-149414866D03*
X197775000Y-154300972D03*
X189490247Y-154439866D03*
%TO.N,Net-(JP1-Pad2)*%
X209115247Y-151439866D03*
%TD*%
D27*
%TO.N,/GATE_N1*%
X187917151Y-150645000D02*
X187470000Y-150645000D01*
X187470000Y-150645000D02*
X186030000Y-149205000D01*
X186030000Y-149205000D02*
X186030000Y-148730000D01*
D28*
X188100000Y-150645000D02*
X187917151Y-150645000D01*
D27*
%TO.N,/MOTOR-*%
X188300000Y-146865000D02*
X187565000Y-146865000D01*
X187565000Y-146865000D02*
X186890000Y-146190000D01*
X186890000Y-146190000D02*
X186030000Y-146190000D01*
%TO.N,/MOTOR+*%
X188300000Y-151915000D02*
X187690000Y-151915000D01*
X187690000Y-151915000D02*
X187045000Y-151270000D01*
X187045000Y-151270000D02*
X186030000Y-151270000D01*
%TO.N,/GATE_N1*%
X186030000Y-148957849D02*
X186030000Y-148730000D01*
%TO.N,+12V*%
X197775000Y-154300972D02*
X197775000Y-154050000D01*
X197775000Y-154050000D02*
X196825000Y-153100000D01*
D28*
%TO.N,/SWDCLK*%
X197752122Y-152156781D02*
X198475480Y-152880139D01*
X198475480Y-152880139D02*
X198475480Y-154275480D01*
X198475480Y-154275480D02*
X198600000Y-154400000D01*
X198600000Y-154400000D02*
X199025000Y-154400000D01*
D27*
%TO.N,GND*%
X209750000Y-154950000D02*
X209585672Y-154950000D01*
X209585672Y-154950000D02*
X209175000Y-154539328D01*
%TO.N,+3V3*%
X210325381Y-151650000D02*
X210325381Y-151525381D01*
X209445927Y-150639866D02*
X206259567Y-150639866D01*
X210325381Y-151525381D02*
X209914758Y-151114758D01*
X209914758Y-151114758D02*
X209914758Y-151108697D01*
X209914758Y-151108697D02*
X209445927Y-150639866D01*
X206259567Y-150639866D02*
X205295000Y-151604433D01*
X205295000Y-151604433D02*
X205295000Y-152700000D01*
%TO.N,+BATT*%
X212175000Y-146900000D02*
X213385000Y-146900000D01*
X213385000Y-146900000D02*
X213995000Y-146290000D01*
D28*
%TO.N,/FET_N2*%
X192150000Y-146875000D02*
X193490000Y-146875000D01*
X193490000Y-146875000D02*
X193500000Y-146865000D01*
%TO.N,/FET_P2*%
X192200000Y-148150000D02*
X193485000Y-148150000D01*
X193485000Y-148150000D02*
X193500000Y-148135000D01*
D27*
%TO.N,+8V*%
X193700000Y-149405000D02*
X192295000Y-149405000D01*
X192295000Y-149405000D02*
X191275000Y-150425000D01*
X191275000Y-150425000D02*
X191275000Y-153350000D01*
X191275000Y-153350000D02*
X192380000Y-154455000D01*
X192380000Y-154455000D02*
X193700000Y-154455000D01*
D28*
%TO.N,/FET_N1*%
X192100000Y-151500000D02*
X192515000Y-151915000D01*
X192515000Y-151915000D02*
X193500000Y-151915000D01*
%TO.N,/FET_P1*%
X192075000Y-152652450D02*
X192607550Y-153185000D01*
X192607550Y-153185000D02*
X193500000Y-153185000D01*
%TO.N,GND*%
X194950000Y-150625000D02*
X194950000Y-149725000D01*
X194950000Y-149725000D02*
X195175000Y-149500000D01*
X197464976Y-150972644D02*
X197464976Y-151060024D01*
X197464976Y-151060024D02*
X196825000Y-151700000D01*
%TO.N,/FET_P1*%
X204275000Y-149175000D02*
X204275000Y-149207446D01*
X204275000Y-149207446D02*
X203622411Y-149860035D01*
X203622411Y-149860035D02*
X203622411Y-149884016D01*
X203622411Y-149884016D02*
X203130947Y-150375480D01*
X202000000Y-150575000D02*
X202000000Y-151000000D01*
X203130947Y-150375480D02*
X202199520Y-150375480D01*
X202199520Y-150375480D02*
X202000000Y-150575000D01*
%TO.N,/FET_N1*%
X204300000Y-150100994D02*
X204149006Y-150100994D01*
X204149006Y-150100994D02*
X203349520Y-150900480D01*
X203349520Y-150900480D02*
X202524520Y-150900480D01*
X202524520Y-150900480D02*
X202500000Y-150925000D01*
D29*
%TO.N,+3V3*%
X201244141Y-152275609D02*
X201244141Y-152896936D01*
X201244141Y-152896936D02*
X201747205Y-153400000D01*
X201747205Y-153400000D02*
X202900000Y-153400000D01*
%TO.N,/nRST*%
X202036964Y-152700500D02*
X202337464Y-152400000D01*
X202337464Y-152400000D02*
X202900000Y-152400000D01*
D28*
%TO.N,/SWDIO*%
X199972881Y-152852432D02*
X199972881Y-153527119D01*
X199972881Y-153527119D02*
X199600000Y-153900000D01*
X199600000Y-153900000D02*
X199100000Y-153900000D01*
D27*
%TO.N,+8V*%
X195175000Y-153100000D02*
X195175000Y-151700000D01*
D28*
%TO.N,/FET_P2*%
X204300000Y-151000497D02*
X203824503Y-151000497D01*
X203824503Y-151000497D02*
X203424520Y-151400480D01*
X203424520Y-151400480D02*
X202975480Y-151400480D01*
X202975480Y-151400480D02*
X202975000Y-151400000D01*
%TO.N,/FET_N2*%
X204300000Y-151900000D02*
X202900000Y-151900000D01*
D29*
%TO.N,GND*%
X203727358Y-152652449D02*
X203479807Y-152900000D01*
X203479807Y-152900000D02*
X202900000Y-152900000D01*
%TO.N,+3V3*%
X202900000Y-153400000D02*
X205295000Y-153400000D01*
X205295000Y-153400000D02*
X205295000Y-152700000D01*
D28*
%TO.N,/GATE_P2*%
X188120134Y-148114866D02*
X188100000Y-148135000D01*
X189417803Y-148114866D02*
X188120134Y-148114866D01*
%TO.N,/GATE_P1*%
X189450000Y-153051969D02*
X188233031Y-153051969D01*
X188233031Y-153051969D02*
X188100000Y-153185000D01*
%TO.N,/GATE_N2*%
X188105000Y-145600000D02*
X188100000Y-145595000D01*
X189305113Y-145600000D02*
X188105000Y-145600000D01*
D27*
%TO.N,/GATE_N1*%
X188300000Y-150645000D02*
X187917151Y-150645000D01*
%TO.N,+BATT*%
X212415247Y-149539866D02*
X212415247Y-150684753D01*
X212175000Y-148300000D02*
X212175000Y-149299619D01*
X212175000Y-145500000D02*
X212175000Y-148300000D01*
X212175000Y-149299619D02*
X212415247Y-149539866D01*
%TO.N,GND*%
X192490247Y-145589866D02*
X193745134Y-145589866D01*
X209375000Y-154500000D02*
X209282151Y-154500000D01*
X210625000Y-145500000D02*
X210625000Y-148300000D01*
X192490247Y-150639866D02*
X193745134Y-150639866D01*
X210625000Y-148300000D02*
X210625000Y-149475000D01*
X211315247Y-149739866D02*
X210360134Y-149739866D01*
X210625000Y-149475000D02*
X210350000Y-149750000D01*
X196237277Y-154967836D02*
X196740247Y-154464866D01*
X196825000Y-154450000D02*
X196775000Y-154500000D01*
X196904613Y-154489866D02*
X196715247Y-154489866D01*
%TO.N,+3V3*%
X210625000Y-154500000D02*
X210625000Y-153100000D01*
X206475000Y-154500000D02*
X205295000Y-153320000D01*
X205295000Y-153320000D02*
X205295000Y-152700000D01*
X210625000Y-153100000D02*
X210625000Y-151875000D01*
D29*
%TO.N,Net-(C8-Pad1)*%
X207835000Y-146610000D02*
X207625000Y-146400000D01*
X207835000Y-147300000D02*
X207835000Y-146610000D01*
X207625000Y-146400000D02*
X207625000Y-145500000D01*
%TO.N,Net-(C8-Pad2)*%
X209105000Y-147300000D02*
X209175000Y-147230000D01*
X209175000Y-147230000D02*
X209175000Y-145500000D01*
%TO.N,Net-(C10-Pad1)*%
X204625000Y-146125000D02*
X204625000Y-145500000D01*
X205295000Y-147300000D02*
X205295000Y-146795000D01*
X205295000Y-146795000D02*
X204625000Y-146125000D01*
%TO.N,Net-(C10-Pad2)*%
X206175000Y-146350000D02*
X206175000Y-145500000D01*
X206565000Y-147300000D02*
X206565000Y-146740000D01*
X206565000Y-146740000D02*
X206175000Y-146350000D01*
D27*
%TO.N,+12V*%
X189440247Y-149414866D02*
X188485134Y-149414866D01*
X207825000Y-154421085D02*
X206565000Y-153161085D01*
X206540247Y-151489866D02*
X206540247Y-152444979D01*
X189490247Y-154439866D02*
X188535134Y-154439866D01*
X207825000Y-154500000D02*
X207825000Y-154421085D01*
X206565000Y-153161085D02*
X206565000Y-152700000D01*
D29*
%TO.N,/SIGNAL*%
X201175000Y-150150000D02*
X201000000Y-150325000D01*
X201175000Y-149500000D02*
X201175000Y-150150000D01*
X201000000Y-150325000D02*
X201000000Y-151000000D01*
D27*
%TO.N,+8V*%
X195225000Y-154500000D02*
X193545000Y-154500000D01*
X195175000Y-154450000D02*
X195225000Y-154500000D01*
X195175000Y-153100000D02*
X195175000Y-154450000D01*
X193545000Y-154500000D02*
X193500000Y-154455000D01*
%TO.N,Net-(JP1-Pad2)*%
X209115247Y-151439866D02*
X209115247Y-152694753D01*
%TO.N,GND*%
X207840247Y-151439866D02*
X207840247Y-152694753D01*
D29*
%TO.N,Net-(H2-Pad1)*%
X201000000Y-146000000D02*
X201000000Y-148100000D01*
X201000000Y-148100000D02*
X201350000Y-148450000D01*
X201775000Y-148450000D02*
X202825000Y-149500000D01*
X201350000Y-148450000D02*
X201775000Y-148450000D01*
%TO.N,Net-(DS1-Pad1)*%
X198212500Y-149500000D02*
X196825000Y-149500000D01*
%TO.N,Net-(DS1-Pad2)*%
X199787500Y-150312500D02*
X199787500Y-149500000D01*
X200000000Y-151000000D02*
X200000000Y-150525000D01*
X200000000Y-150525000D02*
X199787500Y-150312500D01*
%TD*%
%TA.AperFunction,Conductor*%
%TO.N,GND*%
G36*
X194492121Y-144720002D02*
G01*
X194538614Y-144773658D01*
X194550000Y-144826000D01*
X194550000Y-146340160D01*
X194529998Y-146408281D01*
X194476342Y-146454774D01*
X194406068Y-146464878D01*
X194347803Y-146438268D01*
X194347200Y-146439113D01*
X194342834Y-146435999D01*
X194341488Y-146435384D01*
X194339896Y-146433903D01*
X194338720Y-146433064D01*
X194331350Y-146425707D01*
X194321449Y-146420867D01*
X194277057Y-146399168D01*
X194226518Y-146374464D01*
X194196027Y-146370016D01*
X194162744Y-146365160D01*
X194162740Y-146365160D01*
X194158218Y-146364500D01*
X192841782Y-146364500D01*
X192837232Y-146365170D01*
X192837229Y-146365170D01*
X192782574Y-146373216D01*
X192782573Y-146373216D01*
X192772888Y-146374642D01*
X192735365Y-146393065D01*
X192677493Y-146421478D01*
X192677491Y-146421479D01*
X192668145Y-146426068D01*
X192660786Y-146433439D01*
X192660787Y-146433439D01*
X192660008Y-146434219D01*
X192658688Y-146434942D01*
X192652319Y-146439501D01*
X192651766Y-146438729D01*
X192597728Y-146468302D01*
X192526907Y-146463302D01*
X192494127Y-146445168D01*
X192486236Y-146439113D01*
X192427625Y-146394139D01*
X192293709Y-146338670D01*
X192150000Y-146319750D01*
X192006291Y-146338670D01*
X191872375Y-146394139D01*
X191757379Y-146482379D01*
X191669139Y-146597375D01*
X191613670Y-146731291D01*
X191594750Y-146875000D01*
X191613670Y-147018709D01*
X191669139Y-147152625D01*
X191757379Y-147267621D01*
X191872375Y-147355861D01*
X191880002Y-147359020D01*
X191880007Y-147359023D01*
X191994499Y-147406446D01*
X192049781Y-147450994D01*
X192072202Y-147518357D01*
X192054644Y-147587148D01*
X192002682Y-147635527D01*
X191994500Y-147639264D01*
X191981517Y-147644642D01*
X191922375Y-147669139D01*
X191807379Y-147757379D01*
X191719139Y-147872375D01*
X191663670Y-148006291D01*
X191644750Y-148150000D01*
X191663670Y-148293709D01*
X191719139Y-148427625D01*
X191807379Y-148542621D01*
X191922375Y-148630861D01*
X192056291Y-148686330D01*
X192200000Y-148705250D01*
X192343709Y-148686330D01*
X192477625Y-148630861D01*
X192535307Y-148586600D01*
X192601527Y-148560999D01*
X192668440Y-148574723D01*
X192668650Y-148574293D01*
X192669530Y-148574723D01*
X192773482Y-148625536D01*
X192803973Y-148629984D01*
X192837256Y-148634840D01*
X192837260Y-148634840D01*
X192841782Y-148635500D01*
X194158218Y-148635500D01*
X194162768Y-148634830D01*
X194162771Y-148634830D01*
X194217426Y-148626784D01*
X194217427Y-148626784D01*
X194227112Y-148625358D01*
X194287464Y-148595727D01*
X194322507Y-148578522D01*
X194322509Y-148578521D01*
X194331855Y-148573932D01*
X194393167Y-148512513D01*
X194406935Y-148498721D01*
X194406935Y-148498720D01*
X194414293Y-148491350D01*
X194465536Y-148386518D01*
X194474110Y-148327749D01*
X194474840Y-148322744D01*
X194474840Y-148322740D01*
X194475500Y-148318218D01*
X194475500Y-148011831D01*
X194495502Y-147943710D01*
X194549158Y-147897217D01*
X194619432Y-147887113D01*
X194684012Y-147916607D01*
X194698896Y-147931894D01*
X194752631Y-147997369D01*
X194757411Y-148001292D01*
X194798857Y-148035306D01*
X194859219Y-148084845D01*
X194980825Y-148149845D01*
X194989080Y-148152349D01*
X195106858Y-148188076D01*
X195106860Y-148188076D01*
X195112776Y-148189871D01*
X195189144Y-148197393D01*
X195227454Y-148201167D01*
X195240665Y-148203339D01*
X195242332Y-148203531D01*
X195249284Y-148205142D01*
X195250000Y-148205143D01*
X195256937Y-148203561D01*
X195258391Y-148203398D01*
X195271460Y-148201274D01*
X195323459Y-148196152D01*
X195387224Y-148189871D01*
X195393140Y-148188076D01*
X195393142Y-148188076D01*
X195510920Y-148152349D01*
X195519175Y-148149845D01*
X195640781Y-148084845D01*
X195701144Y-148035306D01*
X195742589Y-148001292D01*
X195747369Y-147997369D01*
X195775763Y-147962771D01*
X195830919Y-147895565D01*
X195830920Y-147895564D01*
X195834845Y-147890781D01*
X195840606Y-147880004D01*
X195880369Y-147805612D01*
X195899845Y-147769175D01*
X195928386Y-147675087D01*
X195938076Y-147643142D01*
X195938076Y-147643140D01*
X195939871Y-147637224D01*
X195951167Y-147522546D01*
X195953339Y-147509335D01*
X195953531Y-147507669D01*
X195955142Y-147500716D01*
X195955143Y-147500000D01*
X195953154Y-147491282D01*
X195950000Y-147463267D01*
X195950000Y-144826000D01*
X195970002Y-144757879D01*
X196023658Y-144711386D01*
X196076000Y-144700000D01*
X197924000Y-144700000D01*
X197992121Y-144720002D01*
X198038614Y-144773658D01*
X198050000Y-144826000D01*
X198050000Y-147462688D01*
X198046746Y-147491137D01*
X198044858Y-147499284D01*
X198044857Y-147500000D01*
X198046439Y-147506937D01*
X198046602Y-147508391D01*
X198048726Y-147521460D01*
X198052485Y-147559616D01*
X198060129Y-147637224D01*
X198061924Y-147643140D01*
X198061924Y-147643142D01*
X198071614Y-147675087D01*
X198100155Y-147769175D01*
X198119631Y-147805612D01*
X198159395Y-147880004D01*
X198165155Y-147890781D01*
X198169080Y-147895564D01*
X198169081Y-147895565D01*
X198224237Y-147962771D01*
X198252631Y-147997369D01*
X198257411Y-148001292D01*
X198298857Y-148035306D01*
X198359219Y-148084845D01*
X198480825Y-148149845D01*
X198489080Y-148152349D01*
X198606858Y-148188076D01*
X198606860Y-148188076D01*
X198612776Y-148189871D01*
X198689144Y-148197393D01*
X198727454Y-148201167D01*
X198740665Y-148203339D01*
X198742331Y-148203531D01*
X198749284Y-148205142D01*
X198750000Y-148205143D01*
X198758718Y-148203154D01*
X198786733Y-148200000D01*
X199212688Y-148200000D01*
X199241137Y-148203254D01*
X199249284Y-148205142D01*
X199250000Y-148205143D01*
X199256937Y-148203561D01*
X199258391Y-148203398D01*
X199271460Y-148201274D01*
X199323459Y-148196152D01*
X199387224Y-148189871D01*
X199393140Y-148188076D01*
X199393142Y-148188076D01*
X199510920Y-148152349D01*
X199519175Y-148149845D01*
X199640781Y-148084845D01*
X199701144Y-148035306D01*
X199742589Y-148001292D01*
X199747369Y-147997369D01*
X199775763Y-147962771D01*
X199830919Y-147895565D01*
X199830920Y-147895564D01*
X199834845Y-147890781D01*
X199838747Y-147883482D01*
X199899845Y-147769175D01*
X199901877Y-147770261D01*
X199939971Y-147722996D01*
X200011825Y-147700500D01*
X200523500Y-147700500D01*
X200591621Y-147720502D01*
X200638114Y-147774158D01*
X200649500Y-147826500D01*
X200649500Y-148049176D01*
X200647467Y-148068275D01*
X200647240Y-148073083D01*
X200645049Y-148083261D01*
X200646938Y-148099218D01*
X200648627Y-148113491D01*
X200648937Y-148118746D01*
X200649072Y-148118735D01*
X200649500Y-148123914D01*
X200649500Y-148129115D01*
X200650354Y-148134243D01*
X200650354Y-148134249D01*
X200652389Y-148146473D01*
X200653226Y-148152349D01*
X200657455Y-148188076D01*
X200658764Y-148199138D01*
X200662423Y-148206758D01*
X200663812Y-148215103D01*
X200668757Y-148224267D01*
X200686192Y-148256580D01*
X200688884Y-148261865D01*
X200709274Y-148304326D01*
X200712592Y-148308274D01*
X200714525Y-148310207D01*
X200715990Y-148311804D01*
X200716254Y-148312294D01*
X200716234Y-148312313D01*
X200716313Y-148312402D01*
X200719222Y-148317794D01*
X200726870Y-148324864D01*
X200726871Y-148324865D01*
X200755636Y-148351455D01*
X200759202Y-148354884D01*
X201015099Y-148610781D01*
X201049125Y-148673093D01*
X201044060Y-148743908D01*
X201001513Y-148800744D01*
X200943203Y-148822737D01*
X200943482Y-148824501D01*
X200859494Y-148837802D01*
X200859492Y-148837803D01*
X200849696Y-148839354D01*
X200736658Y-148896950D01*
X200646950Y-148986658D01*
X200619369Y-149040788D01*
X200608637Y-149061851D01*
X200559888Y-149113466D01*
X200490973Y-149130532D01*
X200423772Y-149107631D01*
X200384103Y-149061851D01*
X200383580Y-149060825D01*
X200349658Y-148994249D01*
X200255751Y-148900342D01*
X200137420Y-148840049D01*
X200039246Y-148824500D01*
X199535754Y-148824500D01*
X199437580Y-148840049D01*
X199319249Y-148900342D01*
X199225342Y-148994249D01*
X199165049Y-149112580D01*
X199149500Y-149210754D01*
X199149500Y-149789246D01*
X199165049Y-149887420D01*
X199225342Y-150005751D01*
X199319249Y-150099658D01*
X199328081Y-150104158D01*
X199328084Y-150104160D01*
X199368202Y-150124601D01*
X199419818Y-150173349D01*
X199437000Y-150236868D01*
X199437000Y-150261676D01*
X199434967Y-150280775D01*
X199434740Y-150285583D01*
X199432549Y-150295761D01*
X199435498Y-150320673D01*
X199436127Y-150325991D01*
X199436437Y-150331246D01*
X199436572Y-150331235D01*
X199437000Y-150336414D01*
X199437000Y-150341615D01*
X199437854Y-150346743D01*
X199437854Y-150346749D01*
X199439889Y-150358973D01*
X199440724Y-150364834D01*
X199441008Y-150367231D01*
X199429160Y-150437232D01*
X199381347Y-150489715D01*
X199368020Y-150496608D01*
X199358875Y-150498880D01*
X199350129Y-150504527D01*
X199350127Y-150504528D01*
X199278548Y-150550746D01*
X199260848Y-150562175D01*
X199188608Y-150653811D01*
X199185158Y-150663635D01*
X199185157Y-150663637D01*
X199166655Y-150716323D01*
X199149945Y-150763906D01*
X199149500Y-150769044D01*
X199149500Y-150923500D01*
X199129498Y-150991621D01*
X199075842Y-151038114D01*
X199023500Y-151049500D01*
X198895885Y-151049500D01*
X198890756Y-151050354D01*
X198890752Y-151050354D01*
X198820169Y-151062102D01*
X198820167Y-151062103D01*
X198809897Y-151063812D01*
X198754925Y-151093474D01*
X198729155Y-151107379D01*
X198707206Y-151119222D01*
X198700135Y-151126871D01*
X198700134Y-151126872D01*
X198682915Y-151145500D01*
X198627999Y-151204907D01*
X198580818Y-151311629D01*
X198579919Y-151322003D01*
X198579919Y-151322005D01*
X198576577Y-151360595D01*
X198570749Y-151427880D01*
X198598880Y-151541125D01*
X198604531Y-151549877D01*
X198623146Y-151578707D01*
X198643294Y-151646785D01*
X198626215Y-151704118D01*
X198627999Y-151704907D01*
X198580818Y-151811629D01*
X198579919Y-151822003D01*
X198579919Y-151822005D01*
X198578203Y-151841818D01*
X198570749Y-151927880D01*
X198598880Y-152041125D01*
X198604531Y-152049877D01*
X198623146Y-152078707D01*
X198643294Y-152146785D01*
X198626215Y-152204118D01*
X198627999Y-152204907D01*
X198580818Y-152311629D01*
X198578323Y-152310526D01*
X198549996Y-152358111D01*
X198486462Y-152389798D01*
X198415884Y-152382107D01*
X198375176Y-152354863D01*
X198336153Y-152315840D01*
X198302127Y-152253528D01*
X198300326Y-152210298D01*
X198300787Y-152206801D01*
X198307372Y-152156781D01*
X198288452Y-152013072D01*
X198232983Y-151879156D01*
X198144743Y-151764160D01*
X198029747Y-151675920D01*
X197895831Y-151620451D01*
X197752122Y-151601531D01*
X197608413Y-151620451D01*
X197474497Y-151675920D01*
X197359501Y-151764160D01*
X197271261Y-151879156D01*
X197215792Y-152013072D01*
X197196872Y-152156781D01*
X197197950Y-152164968D01*
X197197950Y-152164970D01*
X197213833Y-152285614D01*
X197202894Y-152355762D01*
X197155766Y-152408861D01*
X197087412Y-152428051D01*
X197069199Y-152426508D01*
X197056519Y-152424500D01*
X196825047Y-152424500D01*
X196593482Y-152424501D01*
X196588589Y-152425276D01*
X196588588Y-152425276D01*
X196509494Y-152437802D01*
X196509492Y-152437803D01*
X196499696Y-152439354D01*
X196386658Y-152496950D01*
X196296950Y-152586658D01*
X196239354Y-152699696D01*
X196237804Y-152709485D01*
X196237803Y-152709487D01*
X196235018Y-152727074D01*
X196224500Y-152793481D01*
X196224501Y-153406518D01*
X196225276Y-153411409D01*
X196225276Y-153411412D01*
X196237527Y-153488765D01*
X196239354Y-153500304D01*
X196243855Y-153509137D01*
X196243857Y-153509142D01*
X196247691Y-153516667D01*
X196296950Y-153613342D01*
X196386658Y-153703050D01*
X196499696Y-153760646D01*
X196509485Y-153762196D01*
X196509487Y-153762197D01*
X196535685Y-153766346D01*
X196593481Y-153775500D01*
X196616876Y-153775500D01*
X196811206Y-153775499D01*
X196879326Y-153795501D01*
X196900301Y-153812404D01*
X197195488Y-154107591D01*
X197229514Y-154169903D01*
X197231315Y-154213130D01*
X197219750Y-154300972D01*
X197238670Y-154444681D01*
X197294139Y-154578597D01*
X197382379Y-154693593D01*
X197497375Y-154781833D01*
X197631291Y-154837302D01*
X197775000Y-154856222D01*
X197918709Y-154837302D01*
X198052625Y-154781833D01*
X198167621Y-154693593D01*
X198210845Y-154637262D01*
X198268181Y-154595396D01*
X198339052Y-154591174D01*
X198399901Y-154624872D01*
X198407277Y-154632248D01*
X198411247Y-154634972D01*
X198413895Y-154637297D01*
X198436646Y-154658401D01*
X198447453Y-154662713D01*
X198451438Y-154665232D01*
X198462247Y-154671004D01*
X198466552Y-154672911D01*
X198476146Y-154679493D01*
X198500099Y-154685177D01*
X198500136Y-154685186D01*
X198517732Y-154690751D01*
X198540622Y-154699883D01*
X198546915Y-154700500D01*
X198549997Y-154700500D01*
X198553067Y-154700650D01*
X198553056Y-154700866D01*
X198564431Y-154702198D01*
X198573745Y-154702653D01*
X198585066Y-154705340D01*
X198596595Y-154703771D01*
X198596596Y-154703771D01*
X198612173Y-154701651D01*
X198629164Y-154700500D01*
X198705197Y-154700500D01*
X198753299Y-154712850D01*
X198753811Y-154711392D01*
X198863906Y-154750055D01*
X198869044Y-154750500D01*
X199023500Y-154750500D01*
X199091621Y-154770502D01*
X199138114Y-154824158D01*
X199149500Y-154876500D01*
X199149500Y-155004115D01*
X199150354Y-155009244D01*
X199150354Y-155009248D01*
X199156066Y-155043567D01*
X199163812Y-155090103D01*
X199168756Y-155099265D01*
X199168758Y-155099272D01*
X199176796Y-155114169D01*
X199191540Y-155183618D01*
X199166397Y-155250013D01*
X199109349Y-155292275D01*
X199065908Y-155300000D01*
X195805938Y-155300000D01*
X195737817Y-155279998D01*
X195691324Y-155226342D01*
X195681220Y-155156068D01*
X195710714Y-155091488D01*
X195716843Y-155084905D01*
X195798528Y-155003220D01*
X195859719Y-154883126D01*
X195861487Y-154871967D01*
X195868777Y-154825937D01*
X195875500Y-154783488D01*
X195875500Y-154216512D01*
X195864969Y-154150022D01*
X195861270Y-154126665D01*
X195861269Y-154126663D01*
X195859719Y-154116874D01*
X195798528Y-153996780D01*
X195703220Y-153901472D01*
X195694296Y-153896925D01*
X195694213Y-153896847D01*
X195686360Y-153891141D01*
X195687097Y-153890126D01*
X195642682Y-153848178D01*
X195625500Y-153784659D01*
X195625500Y-153743082D01*
X195645502Y-153674961D01*
X195662405Y-153653987D01*
X195703050Y-153613342D01*
X195760646Y-153500304D01*
X195763089Y-153484883D01*
X195769658Y-153443401D01*
X195775500Y-153406519D01*
X195775499Y-152793482D01*
X195769405Y-152755002D01*
X195762198Y-152709494D01*
X195762197Y-152709492D01*
X195760646Y-152699696D01*
X195755456Y-152689509D01*
X195741274Y-152661677D01*
X195703050Y-152586658D01*
X195662405Y-152546013D01*
X195628379Y-152483701D01*
X195625500Y-152456918D01*
X195625500Y-152343082D01*
X195645502Y-152274961D01*
X195662405Y-152253987D01*
X195703050Y-152213342D01*
X195760646Y-152100304D01*
X195762713Y-152087258D01*
X195768633Y-152049877D01*
X195775500Y-152006519D01*
X195775499Y-151393482D01*
X195773245Y-151379251D01*
X195762198Y-151309494D01*
X195762197Y-151309492D01*
X195760646Y-151299696D01*
X195754278Y-151287197D01*
X195730373Y-151240283D01*
X195703050Y-151186658D01*
X195613342Y-151096950D01*
X195500304Y-151039354D01*
X195490515Y-151037804D01*
X195490513Y-151037803D01*
X195463151Y-151033470D01*
X195406519Y-151024500D01*
X195175047Y-151024500D01*
X194943482Y-151024501D01*
X194938589Y-151025276D01*
X194938588Y-151025276D01*
X194859494Y-151037802D01*
X194859492Y-151037803D01*
X194849696Y-151039354D01*
X194736658Y-151096950D01*
X194646950Y-151186658D01*
X194589354Y-151299696D01*
X194587804Y-151309485D01*
X194587803Y-151309487D01*
X194585427Y-151324491D01*
X194574500Y-151393481D01*
X194574500Y-151414617D01*
X194554498Y-151482738D01*
X194500842Y-151529231D01*
X194430568Y-151539335D01*
X194365988Y-151509841D01*
X194359482Y-151503790D01*
X194338721Y-151483065D01*
X194338720Y-151483065D01*
X194331350Y-151475707D01*
X194312470Y-151466478D01*
X194254185Y-151437988D01*
X194226518Y-151424464D01*
X194196027Y-151420016D01*
X194162744Y-151415160D01*
X194162740Y-151415160D01*
X194158218Y-151414500D01*
X192841782Y-151414500D01*
X192837232Y-151415170D01*
X192837229Y-151415170D01*
X192772888Y-151424642D01*
X192772493Y-151421961D01*
X192716371Y-151422838D01*
X192656052Y-151385392D01*
X192633567Y-151349620D01*
X192613221Y-151300500D01*
X192580861Y-151222375D01*
X192492621Y-151107379D01*
X192377625Y-151019139D01*
X192243709Y-150963670D01*
X192100000Y-150944750D01*
X191956291Y-150963670D01*
X191899718Y-150987103D01*
X191829128Y-150994692D01*
X191765641Y-150962912D01*
X191729414Y-150901854D01*
X191725500Y-150870694D01*
X191725500Y-150663793D01*
X191745502Y-150595672D01*
X191762405Y-150574698D01*
X192444698Y-149892405D01*
X192507010Y-149858379D01*
X192533793Y-149855500D01*
X192662430Y-149855500D01*
X192717763Y-149868300D01*
X192773482Y-149895536D01*
X192796452Y-149898887D01*
X192837256Y-149904840D01*
X192837260Y-149904840D01*
X192841782Y-149905500D01*
X194158218Y-149905500D01*
X194162768Y-149904830D01*
X194162771Y-149904830D01*
X194217426Y-149896784D01*
X194217427Y-149896784D01*
X194227112Y-149895358D01*
X194308294Y-149855500D01*
X194322507Y-149848522D01*
X194322509Y-149848521D01*
X194331855Y-149843932D01*
X194414293Y-149761350D01*
X194465536Y-149656518D01*
X194473811Y-149599798D01*
X194474840Y-149592744D01*
X194474840Y-149592740D01*
X194475500Y-149588218D01*
X194475500Y-149221782D01*
X194473157Y-149205862D01*
X194471334Y-149193481D01*
X196224500Y-149193481D01*
X196224501Y-149806518D01*
X196225276Y-149811409D01*
X196225276Y-149811412D01*
X196237791Y-149890433D01*
X196239354Y-149900304D01*
X196296950Y-150013342D01*
X196386658Y-150103050D01*
X196499696Y-150160646D01*
X196509485Y-150162196D01*
X196509487Y-150162197D01*
X196536849Y-150166530D01*
X196593481Y-150175500D01*
X196824953Y-150175500D01*
X197056518Y-150175499D01*
X197061412Y-150174724D01*
X197140506Y-150162198D01*
X197140508Y-150162197D01*
X197150304Y-150160646D01*
X197162414Y-150154476D01*
X197193104Y-150138838D01*
X197263342Y-150103050D01*
X197353050Y-150013342D01*
X197391363Y-149938149D01*
X197440112Y-149886534D01*
X197509027Y-149869468D01*
X197576228Y-149892369D01*
X197615897Y-149938149D01*
X197650342Y-150005751D01*
X197744249Y-150099658D01*
X197817568Y-150137016D01*
X197851835Y-150154476D01*
X197862580Y-150159951D01*
X197960754Y-150175500D01*
X198464246Y-150175500D01*
X198562420Y-150159951D01*
X198573166Y-150154476D01*
X198607432Y-150137016D01*
X198680751Y-150099658D01*
X198774658Y-150005751D01*
X198834951Y-149887420D01*
X198850500Y-149789246D01*
X198850500Y-149210754D01*
X198834951Y-149112580D01*
X198774658Y-148994249D01*
X198680751Y-148900342D01*
X198562420Y-148840049D01*
X198464246Y-148824500D01*
X197960754Y-148824500D01*
X197862580Y-148840049D01*
X197744249Y-148900342D01*
X197650342Y-148994249D01*
X197616420Y-149060825D01*
X197615897Y-149061851D01*
X197567149Y-149113466D01*
X197498234Y-149130532D01*
X197431032Y-149107631D01*
X197391363Y-149061851D01*
X197380631Y-149040788D01*
X197353050Y-148986658D01*
X197263342Y-148896950D01*
X197150304Y-148839354D01*
X197140515Y-148837804D01*
X197140513Y-148837803D01*
X197113151Y-148833470D01*
X197056519Y-148824500D01*
X196825047Y-148824500D01*
X196593482Y-148824501D01*
X196588589Y-148825276D01*
X196588588Y-148825276D01*
X196509494Y-148837802D01*
X196509492Y-148837803D01*
X196499696Y-148839354D01*
X196386658Y-148896950D01*
X196296950Y-148986658D01*
X196239354Y-149099696D01*
X196224500Y-149193481D01*
X194471334Y-149193481D01*
X194466784Y-149162574D01*
X194466784Y-149162573D01*
X194465358Y-149152888D01*
X194433307Y-149087608D01*
X194418522Y-149057493D01*
X194418521Y-149057491D01*
X194413932Y-149048145D01*
X194343979Y-148978314D01*
X194338721Y-148973065D01*
X194338720Y-148973065D01*
X194331350Y-148965707D01*
X194321357Y-148960822D01*
X194276783Y-148939034D01*
X194226518Y-148914464D01*
X194196027Y-148910016D01*
X194162744Y-148905160D01*
X194162740Y-148905160D01*
X194158218Y-148904500D01*
X192841782Y-148904500D01*
X192837232Y-148905170D01*
X192837229Y-148905170D01*
X192813575Y-148908652D01*
X192772888Y-148914642D01*
X192764097Y-148918958D01*
X192764094Y-148918959D01*
X192717974Y-148941603D01*
X192662444Y-148954500D01*
X192329220Y-148954500D01*
X192314411Y-148953627D01*
X192290043Y-148950743D01*
X192280690Y-148949636D01*
X192271426Y-148951328D01*
X192271422Y-148951328D01*
X192222989Y-148960173D01*
X192219088Y-148960822D01*
X192170355Y-148968149D01*
X192170347Y-148968151D01*
X192161038Y-148969551D01*
X192154528Y-148972677D01*
X192147427Y-148973974D01*
X192139072Y-148978314D01*
X192095363Y-149001018D01*
X192091825Y-149002786D01*
X192047411Y-149024114D01*
X192038921Y-149028191D01*
X192033635Y-149033078D01*
X192033595Y-149033105D01*
X192027212Y-149036420D01*
X192022172Y-149040725D01*
X191984945Y-149077952D01*
X191981380Y-149081381D01*
X191939444Y-149120146D01*
X191935751Y-149126505D01*
X191930234Y-149132663D01*
X190980650Y-150082247D01*
X190969561Y-150092101D01*
X190950291Y-150107293D01*
X190950289Y-150107295D01*
X190942890Y-150113128D01*
X190937535Y-150120875D01*
X190937534Y-150120877D01*
X190926380Y-150137016D01*
X190911692Y-150158269D01*
X190909545Y-150161375D01*
X190907250Y-150164587D01*
X190900336Y-150173948D01*
X190878867Y-150203015D01*
X190872366Y-150211816D01*
X190869973Y-150218632D01*
X190865869Y-150224569D01*
X190863029Y-150233549D01*
X190863028Y-150233551D01*
X190862091Y-150236514D01*
X190848192Y-150280464D01*
X190848182Y-150280495D01*
X190846929Y-150284250D01*
X190831629Y-150327820D01*
X190827481Y-150339631D01*
X190827199Y-150346819D01*
X190827188Y-150346878D01*
X190825020Y-150353730D01*
X190824500Y-150360337D01*
X190824500Y-150413016D01*
X190824403Y-150417962D01*
X190822162Y-150474994D01*
X190824046Y-150482100D01*
X190824500Y-150490347D01*
X190824500Y-153315780D01*
X190823627Y-153330589D01*
X190819636Y-153364310D01*
X190821328Y-153373574D01*
X190821328Y-153373575D01*
X190830172Y-153422001D01*
X190830822Y-153425904D01*
X190837801Y-153472320D01*
X190839551Y-153483962D01*
X190842679Y-153490475D01*
X190843975Y-153497573D01*
X190871025Y-153549647D01*
X190872768Y-153553137D01*
X190898191Y-153606079D01*
X190903077Y-153611365D01*
X190903110Y-153611413D01*
X190906421Y-153617788D01*
X190910725Y-153622828D01*
X190947952Y-153660055D01*
X190951381Y-153663620D01*
X190990146Y-153705556D01*
X190996505Y-153709249D01*
X191002663Y-153714766D01*
X192037247Y-154749350D01*
X192047101Y-154760439D01*
X192055035Y-154770502D01*
X192068128Y-154787110D01*
X192075876Y-154792465D01*
X192075878Y-154792467D01*
X192116400Y-154820474D01*
X192119619Y-154822774D01*
X192141664Y-154839056D01*
X192166817Y-154857634D01*
X192173631Y-154860027D01*
X192179569Y-154864131D01*
X192188546Y-154866970D01*
X192188548Y-154866971D01*
X192235517Y-154881825D01*
X192239266Y-154883076D01*
X192294631Y-154902519D01*
X192301818Y-154902801D01*
X192301880Y-154902813D01*
X192308730Y-154904980D01*
X192315337Y-154905500D01*
X192368016Y-154905500D01*
X192372962Y-154905597D01*
X192429994Y-154907838D01*
X192437100Y-154905954D01*
X192445347Y-154905500D01*
X192662430Y-154905500D01*
X192717763Y-154918300D01*
X192773482Y-154945536D01*
X192800969Y-154949546D01*
X192837256Y-154954840D01*
X192837260Y-154954840D01*
X192841782Y-154955500D01*
X194158218Y-154955500D01*
X194162768Y-154954830D01*
X194162771Y-154954830D01*
X194183060Y-154951843D01*
X194201411Y-154950500D01*
X194550887Y-154950500D01*
X194619008Y-154970502D01*
X194649452Y-154999255D01*
X194651472Y-155003220D01*
X194733157Y-155084905D01*
X194767183Y-155147217D01*
X194762118Y-155218032D01*
X194719571Y-155274868D01*
X194653051Y-155299679D01*
X194644062Y-155300000D01*
X185037024Y-155300000D01*
X185019818Y-155298047D01*
X185014187Y-155298037D01*
X185000358Y-155294857D01*
X184986519Y-155297989D01*
X184985528Y-155297987D01*
X184973399Y-155297380D01*
X184921567Y-155292275D01*
X184856278Y-155285844D01*
X184832061Y-155281028D01*
X184705726Y-155242706D01*
X184682907Y-155233253D01*
X184566489Y-155171026D01*
X184545952Y-155157303D01*
X184443908Y-155073558D01*
X184426442Y-155056092D01*
X184342697Y-154954048D01*
X184328974Y-154933511D01*
X184266747Y-154817093D01*
X184257294Y-154794273D01*
X184256746Y-154792467D01*
X184218972Y-154667939D01*
X184214155Y-154643719D01*
X184213614Y-154638218D01*
X184202571Y-154526102D01*
X184201990Y-154514070D01*
X184205143Y-154500358D01*
X184202011Y-154486518D01*
X184202020Y-154481628D01*
X184200000Y-154463552D01*
X184200000Y-153795262D01*
X184974520Y-153795262D01*
X184976975Y-153824500D01*
X184990820Y-153989366D01*
X184991759Y-154000553D01*
X184993458Y-154006478D01*
X185035770Y-154154036D01*
X185048544Y-154198586D01*
X185051359Y-154204063D01*
X185051360Y-154204066D01*
X185132617Y-154362175D01*
X185142712Y-154381818D01*
X185270677Y-154543270D01*
X185275370Y-154547264D01*
X185275371Y-154547265D01*
X185419310Y-154669766D01*
X185427564Y-154676791D01*
X185432942Y-154679797D01*
X185432944Y-154679798D01*
X185473024Y-154702198D01*
X185607398Y-154777297D01*
X185669481Y-154797469D01*
X185797471Y-154839056D01*
X185797475Y-154839057D01*
X185803329Y-154840959D01*
X186007894Y-154865351D01*
X186014029Y-154864879D01*
X186014031Y-154864879D01*
X186077086Y-154860027D01*
X186213300Y-154849546D01*
X186219230Y-154847890D01*
X186219232Y-154847890D01*
X186376310Y-154804033D01*
X186411725Y-154794145D01*
X186417214Y-154791372D01*
X186417220Y-154791370D01*
X186566620Y-154715902D01*
X186595610Y-154701258D01*
X186609059Y-154690751D01*
X186753101Y-154578213D01*
X186757951Y-154574424D01*
X186799231Y-154526601D01*
X186888540Y-154423134D01*
X186888540Y-154423133D01*
X186892564Y-154418472D01*
X186895563Y-154413193D01*
X186951149Y-154369077D01*
X187021793Y-154362013D01*
X187085042Y-154394263D01*
X187120814Y-154455589D01*
X187124500Y-154485841D01*
X187124500Y-154638218D01*
X187125170Y-154642768D01*
X187125170Y-154642771D01*
X187131688Y-154687044D01*
X187134642Y-154707112D01*
X187138958Y-154715902D01*
X187177436Y-154794273D01*
X187186068Y-154811855D01*
X187268650Y-154894293D01*
X187278006Y-154898866D01*
X187278007Y-154898867D01*
X187293134Y-154906261D01*
X187373482Y-154945536D01*
X187400969Y-154949546D01*
X187437256Y-154954840D01*
X187437260Y-154954840D01*
X187441782Y-154955500D01*
X188758218Y-154955500D01*
X188762768Y-154954830D01*
X188762771Y-154954830D01*
X188817426Y-154946784D01*
X188817427Y-154946784D01*
X188827112Y-154945358D01*
X188908294Y-154905500D01*
X188912850Y-154903263D01*
X188968381Y-154890366D01*
X189130284Y-154890366D01*
X189198405Y-154910368D01*
X189205608Y-154915433D01*
X189206072Y-154915701D01*
X189212622Y-154920727D01*
X189346538Y-154976196D01*
X189490247Y-154995116D01*
X189633956Y-154976196D01*
X189767872Y-154920727D01*
X189882868Y-154832487D01*
X189971108Y-154717491D01*
X190026577Y-154583575D01*
X190045497Y-154439866D01*
X190026577Y-154296157D01*
X189971108Y-154162241D01*
X189882868Y-154047245D01*
X189767872Y-153959005D01*
X189633956Y-153903536D01*
X189490247Y-153884616D01*
X189346538Y-153903536D01*
X189212622Y-153959005D01*
X189206069Y-153964033D01*
X189198920Y-153968161D01*
X189198112Y-153966761D01*
X189140766Y-153988929D01*
X189130284Y-153989366D01*
X188906609Y-153989366D01*
X188851276Y-153976566D01*
X188845519Y-153973752D01*
X188826518Y-153964464D01*
X188796027Y-153960016D01*
X188762744Y-153955160D01*
X188762740Y-153955160D01*
X188758218Y-153954500D01*
X187441782Y-153954500D01*
X187437232Y-153955170D01*
X187437229Y-153955170D01*
X187382574Y-153963216D01*
X187382573Y-153963216D01*
X187372888Y-153964642D01*
X187348602Y-153976566D01*
X187277493Y-154011478D01*
X187277491Y-154011479D01*
X187275335Y-154012538D01*
X187275332Y-154012539D01*
X187268145Y-154016068D01*
X187267717Y-154015197D01*
X187209625Y-154035468D01*
X187140587Y-154018905D01*
X187091464Y-153967647D01*
X187078303Y-153893837D01*
X187085171Y-153839474D01*
X187085390Y-153823806D01*
X187085534Y-153813522D01*
X187085534Y-153813518D01*
X187085583Y-153810000D01*
X187080896Y-153762197D01*
X187079060Y-153743470D01*
X187092320Y-153673722D01*
X187141183Y-153622216D01*
X187210135Y-153605303D01*
X187268146Y-153625324D01*
X187268650Y-153624293D01*
X187277033Y-153628391D01*
X187277035Y-153628392D01*
X187373482Y-153675536D01*
X187394869Y-153678656D01*
X187437256Y-153684840D01*
X187437260Y-153684840D01*
X187441782Y-153685500D01*
X188758218Y-153685500D01*
X188762768Y-153684830D01*
X188762771Y-153684830D01*
X188817426Y-153676784D01*
X188817427Y-153676784D01*
X188827112Y-153675358D01*
X188877008Y-153650860D01*
X188922507Y-153628522D01*
X188922509Y-153628521D01*
X188931855Y-153623932D01*
X189002514Y-153553150D01*
X189009908Y-153545743D01*
X189072191Y-153511664D01*
X189143011Y-153516667D01*
X189162082Y-153525642D01*
X189165820Y-153527800D01*
X189172375Y-153532830D01*
X189306291Y-153588299D01*
X189450000Y-153607219D01*
X189593709Y-153588299D01*
X189727625Y-153532830D01*
X189842621Y-153444590D01*
X189930861Y-153329594D01*
X189986330Y-153195678D01*
X190005250Y-153051969D01*
X189986330Y-152908260D01*
X189930861Y-152774344D01*
X189842621Y-152659348D01*
X189727625Y-152571108D01*
X189593709Y-152515639D01*
X189450000Y-152496719D01*
X189306291Y-152515639D01*
X189172375Y-152571108D01*
X189057379Y-152659348D01*
X189037537Y-152685207D01*
X188980200Y-152727074D01*
X188909329Y-152731296D01*
X188882248Y-152721706D01*
X188826518Y-152694464D01*
X188792553Y-152689509D01*
X188762744Y-152685160D01*
X188762740Y-152685160D01*
X188758218Y-152684500D01*
X187441782Y-152684500D01*
X187437232Y-152685170D01*
X187437229Y-152685170D01*
X187382574Y-152693216D01*
X187382573Y-152693216D01*
X187372888Y-152694642D01*
X187327607Y-152716874D01*
X187277493Y-152741478D01*
X187277491Y-152741479D01*
X187268145Y-152746068D01*
X187185707Y-152828650D01*
X187181134Y-152838006D01*
X187181133Y-152838007D01*
X187178084Y-152844244D01*
X187134464Y-152933482D01*
X187133052Y-152943162D01*
X187125333Y-152996074D01*
X187124500Y-153001782D01*
X187124500Y-153135961D01*
X187104498Y-153204082D01*
X187050842Y-153250575D01*
X186980568Y-153260679D01*
X186915988Y-153231185D01*
X186900857Y-153215597D01*
X186782906Y-153070975D01*
X186782903Y-153070972D01*
X186779011Y-153066200D01*
X186772173Y-153060543D01*
X186625025Y-152938811D01*
X186625021Y-152938809D01*
X186620275Y-152934882D01*
X186439055Y-152836897D01*
X186242254Y-152775977D01*
X186236129Y-152775333D01*
X186236128Y-152775333D01*
X186043498Y-152755087D01*
X186043496Y-152755087D01*
X186037369Y-152754443D01*
X185965120Y-152761018D01*
X185838342Y-152772555D01*
X185838339Y-152772556D01*
X185832203Y-152773114D01*
X185634572Y-152831280D01*
X185629107Y-152834137D01*
X185578450Y-152860620D01*
X185452002Y-152926726D01*
X185447201Y-152930586D01*
X185447198Y-152930588D01*
X185313618Y-153037989D01*
X185291447Y-153055815D01*
X185159024Y-153213630D01*
X185156056Y-153219028D01*
X185156053Y-153219033D01*
X185074039Y-153368218D01*
X185059776Y-153394162D01*
X184997484Y-153590532D01*
X184996798Y-153596649D01*
X184996797Y-153596653D01*
X184978908Y-153756145D01*
X184974520Y-153795262D01*
X184200000Y-153795262D01*
X184200000Y-151255262D01*
X184974520Y-151255262D01*
X184976812Y-151282555D01*
X184991130Y-151453057D01*
X184991759Y-151460553D01*
X184996104Y-151475707D01*
X185046451Y-151651286D01*
X185048544Y-151658586D01*
X185051359Y-151664063D01*
X185051360Y-151664066D01*
X185139897Y-151836341D01*
X185142712Y-151841818D01*
X185270677Y-152003270D01*
X185275370Y-152007264D01*
X185275371Y-152007265D01*
X185419310Y-152129766D01*
X185427564Y-152136791D01*
X185432942Y-152139797D01*
X185432944Y-152139798D01*
X185496478Y-152175306D01*
X185607398Y-152237297D01*
X185684986Y-152262507D01*
X185797471Y-152299056D01*
X185797475Y-152299057D01*
X185803329Y-152300959D01*
X186007894Y-152325351D01*
X186014029Y-152324879D01*
X186014031Y-152324879D01*
X186070039Y-152320569D01*
X186213300Y-152309546D01*
X186219230Y-152307890D01*
X186219232Y-152307890D01*
X186376310Y-152264033D01*
X186411725Y-152254145D01*
X186417214Y-152251372D01*
X186417220Y-152251370D01*
X186566620Y-152175902D01*
X186595610Y-152161258D01*
X186601268Y-152156838D01*
X186731295Y-152055250D01*
X186757951Y-152034424D01*
X186802704Y-151982577D01*
X186861322Y-151914667D01*
X186920975Y-151876169D01*
X186991971Y-151876033D01*
X187045799Y-151907902D01*
X187087595Y-151949698D01*
X187121621Y-152012010D01*
X187124500Y-152038793D01*
X187124500Y-152098218D01*
X187125170Y-152102768D01*
X187125170Y-152102771D01*
X187133216Y-152157426D01*
X187134642Y-152167112D01*
X187151035Y-152200500D01*
X187180164Y-152259829D01*
X187186068Y-152271855D01*
X187268650Y-152354293D01*
X187278006Y-152358866D01*
X187278007Y-152358867D01*
X187303997Y-152371571D01*
X187373482Y-152405536D01*
X187396274Y-152408861D01*
X187437256Y-152414840D01*
X187437260Y-152414840D01*
X187441782Y-152415500D01*
X188758218Y-152415500D01*
X188762768Y-152414830D01*
X188762771Y-152414830D01*
X188817426Y-152406784D01*
X188817427Y-152406784D01*
X188827112Y-152405358D01*
X188877008Y-152380860D01*
X188922507Y-152358522D01*
X188922509Y-152358521D01*
X188931855Y-152353932D01*
X188999598Y-152286071D01*
X189006935Y-152278721D01*
X189006935Y-152278720D01*
X189014293Y-152271350D01*
X189024060Y-152251370D01*
X189046771Y-152204907D01*
X189065536Y-152166518D01*
X189072672Y-152117604D01*
X189074840Y-152102744D01*
X189074840Y-152102740D01*
X189075500Y-152098218D01*
X189075500Y-151731782D01*
X189074681Y-151726215D01*
X189066784Y-151672574D01*
X189066784Y-151672573D01*
X189065358Y-151662888D01*
X189040860Y-151612992D01*
X189018522Y-151567493D01*
X189018521Y-151567491D01*
X189013932Y-151558145D01*
X188951147Y-151495469D01*
X188938721Y-151483065D01*
X188938720Y-151483065D01*
X188931350Y-151475707D01*
X188912470Y-151466478D01*
X188854185Y-151437988D01*
X188826518Y-151424464D01*
X188796027Y-151420016D01*
X188762744Y-151415160D01*
X188762740Y-151415160D01*
X188758218Y-151414500D01*
X187878793Y-151414500D01*
X187810672Y-151394498D01*
X187789698Y-151377595D01*
X187772698Y-151360595D01*
X187738672Y-151298283D01*
X187743737Y-151227468D01*
X187786284Y-151170632D01*
X187852804Y-151145821D01*
X187861793Y-151145500D01*
X188758218Y-151145500D01*
X188762768Y-151144830D01*
X188762771Y-151144830D01*
X188817426Y-151136784D01*
X188817427Y-151136784D01*
X188827112Y-151135358D01*
X188897670Y-151100716D01*
X188922507Y-151088522D01*
X188922509Y-151088521D01*
X188931855Y-151083932D01*
X189014293Y-151001350D01*
X189065536Y-150896518D01*
X189070137Y-150864977D01*
X189074840Y-150832744D01*
X189074840Y-150832740D01*
X189075500Y-150828218D01*
X189075500Y-150461782D01*
X189070469Y-150427603D01*
X189066784Y-150402574D01*
X189066784Y-150402573D01*
X189065358Y-150392888D01*
X189035703Y-150332488D01*
X189018522Y-150297493D01*
X189018521Y-150297491D01*
X189013932Y-150288145D01*
X188944298Y-150218632D01*
X188938721Y-150213065D01*
X188938720Y-150213065D01*
X188931350Y-150205707D01*
X188918450Y-150199401D01*
X188886163Y-150183619D01*
X188826518Y-150154464D01*
X188793567Y-150149657D01*
X188729047Y-150120031D01*
X188690787Y-150060226D01*
X188690933Y-149989230D01*
X188729440Y-149929583D01*
X188793405Y-149900320D01*
X188817426Y-149896784D01*
X188817427Y-149896784D01*
X188827112Y-149895358D01*
X188861933Y-149878262D01*
X188917462Y-149865366D01*
X189080284Y-149865366D01*
X189148405Y-149885368D01*
X189155608Y-149890433D01*
X189156072Y-149890701D01*
X189162622Y-149895727D01*
X189296538Y-149951196D01*
X189440247Y-149970116D01*
X189583956Y-149951196D01*
X189717872Y-149895727D01*
X189832868Y-149807487D01*
X189921108Y-149692491D01*
X189976577Y-149558575D01*
X189995497Y-149414866D01*
X189976577Y-149271157D01*
X189921108Y-149137241D01*
X189832868Y-149022245D01*
X189717872Y-148934005D01*
X189583956Y-148878536D01*
X189584717Y-148876698D01*
X189533342Y-148845382D01*
X189502320Y-148781521D01*
X189510749Y-148711027D01*
X189555952Y-148656280D01*
X189578359Y-148644218D01*
X189687796Y-148598889D01*
X189687801Y-148598886D01*
X189695428Y-148595727D01*
X189810424Y-148507487D01*
X189898664Y-148392491D01*
X189954133Y-148258575D01*
X189973053Y-148114866D01*
X189954133Y-147971157D01*
X189898664Y-147837241D01*
X189810424Y-147722245D01*
X189695428Y-147634005D01*
X189561512Y-147578536D01*
X189417803Y-147559616D01*
X189274094Y-147578536D01*
X189140178Y-147634005D01*
X189070452Y-147687508D01*
X189004232Y-147713109D01*
X188934683Y-147698844D01*
X188934183Y-147698535D01*
X188931350Y-147695707D01*
X188922699Y-147691478D01*
X188887280Y-147674165D01*
X188826518Y-147644464D01*
X188789297Y-147639034D01*
X188762744Y-147635160D01*
X188762740Y-147635160D01*
X188758218Y-147634500D01*
X187441782Y-147634500D01*
X187437232Y-147635170D01*
X187437229Y-147635170D01*
X187382574Y-147643216D01*
X187382573Y-147643216D01*
X187372888Y-147644642D01*
X187322993Y-147669139D01*
X187277493Y-147691478D01*
X187277491Y-147691479D01*
X187268145Y-147696068D01*
X187252355Y-147711886D01*
X187193994Y-147770349D01*
X187185707Y-147778650D01*
X187181134Y-147788006D01*
X187181133Y-147788007D01*
X187175271Y-147800000D01*
X187134464Y-147883482D01*
X187133052Y-147893162D01*
X187125678Y-147943710D01*
X187124500Y-147951782D01*
X187124500Y-148055961D01*
X187104498Y-148124082D01*
X187050842Y-148170575D01*
X186980568Y-148180679D01*
X186915988Y-148151185D01*
X186900857Y-148135597D01*
X186782906Y-147990975D01*
X186782903Y-147990972D01*
X186779011Y-147986200D01*
X186761786Y-147971950D01*
X186625025Y-147858811D01*
X186625021Y-147858809D01*
X186620275Y-147854882D01*
X186461763Y-147769175D01*
X186444474Y-147759827D01*
X186439055Y-147756897D01*
X186242254Y-147695977D01*
X186236129Y-147695333D01*
X186236128Y-147695333D01*
X186043498Y-147675087D01*
X186043496Y-147675087D01*
X186037369Y-147674443D01*
X185950529Y-147682346D01*
X185838342Y-147692555D01*
X185838339Y-147692556D01*
X185832203Y-147693114D01*
X185634572Y-147751280D01*
X185629107Y-147754137D01*
X185547539Y-147796780D01*
X185452002Y-147846726D01*
X185447201Y-147850586D01*
X185447198Y-147850588D01*
X185306731Y-147963526D01*
X185291447Y-147975815D01*
X185159024Y-148133630D01*
X185156056Y-148139028D01*
X185156053Y-148139033D01*
X185075522Y-148285520D01*
X185059776Y-148314162D01*
X185057913Y-148320035D01*
X185003301Y-148492196D01*
X184997484Y-148510532D01*
X184996798Y-148516649D01*
X184996797Y-148516653D01*
X184979250Y-148673093D01*
X184974520Y-148715262D01*
X184975036Y-148721406D01*
X184991096Y-148912652D01*
X184991759Y-148920553D01*
X184993458Y-148926478D01*
X185046822Y-149112580D01*
X185048544Y-149118586D01*
X185051359Y-149124063D01*
X185051360Y-149124066D01*
X185139897Y-149296341D01*
X185142712Y-149301818D01*
X185270677Y-149463270D01*
X185275370Y-149467264D01*
X185275371Y-149467265D01*
X185400886Y-149574086D01*
X185427564Y-149596791D01*
X185607398Y-149697297D01*
X185803329Y-149760959D01*
X185925234Y-149775495D01*
X185990507Y-149803422D01*
X185999410Y-149811514D01*
X186193607Y-150005711D01*
X186227633Y-150068023D01*
X186222568Y-150138838D01*
X186180021Y-150195674D01*
X186113501Y-150220485D01*
X186091345Y-150220116D01*
X186037369Y-150214443D01*
X185970977Y-150220485D01*
X185838342Y-150232555D01*
X185838339Y-150232556D01*
X185832203Y-150233114D01*
X185634572Y-150291280D01*
X185629107Y-150294137D01*
X185546085Y-150337540D01*
X185452002Y-150386726D01*
X185447201Y-150390586D01*
X185447198Y-150390588D01*
X185305797Y-150504277D01*
X185291447Y-150515815D01*
X185159024Y-150673630D01*
X185156056Y-150679028D01*
X185156053Y-150679033D01*
X185069833Y-150835869D01*
X185059776Y-150854162D01*
X184997484Y-151050532D01*
X184996798Y-151056649D01*
X184996797Y-151056653D01*
X184976871Y-151234298D01*
X184974520Y-151255262D01*
X184200000Y-151255262D01*
X184200000Y-146175262D01*
X184974520Y-146175262D01*
X184975036Y-146181406D01*
X184991181Y-146373664D01*
X184991759Y-146380553D01*
X184993458Y-146386478D01*
X185044561Y-146564694D01*
X185048544Y-146578586D01*
X185051359Y-146584063D01*
X185051360Y-146584066D01*
X185139897Y-146756341D01*
X185142712Y-146761818D01*
X185270677Y-146923270D01*
X185275370Y-146927264D01*
X185275371Y-146927265D01*
X185419310Y-147049766D01*
X185427564Y-147056791D01*
X185607398Y-147157297D01*
X185689683Y-147184033D01*
X185797471Y-147219056D01*
X185797475Y-147219057D01*
X185803329Y-147220959D01*
X186007894Y-147245351D01*
X186014029Y-147244879D01*
X186014031Y-147244879D01*
X186070039Y-147240569D01*
X186213300Y-147229546D01*
X186219230Y-147227890D01*
X186219232Y-147227890D01*
X186386249Y-147181258D01*
X186411725Y-147174145D01*
X186417214Y-147171372D01*
X186417220Y-147171370D01*
X186590116Y-147084033D01*
X186595610Y-147081258D01*
X186617810Y-147063914D01*
X186753101Y-146958213D01*
X186757951Y-146954424D01*
X186761971Y-146949766D01*
X186761978Y-146949760D01*
X186789515Y-146917858D01*
X186849168Y-146879361D01*
X186920164Y-146879226D01*
X186973991Y-146911094D01*
X187097322Y-147034425D01*
X187131348Y-147096737D01*
X187132884Y-147105169D01*
X187133130Y-147106838D01*
X187134642Y-147117112D01*
X187138957Y-147125900D01*
X187138957Y-147125901D01*
X187169632Y-147188378D01*
X187186068Y-147221855D01*
X187268650Y-147304293D01*
X187278006Y-147308866D01*
X187278007Y-147308867D01*
X187298852Y-147319056D01*
X187373482Y-147355536D01*
X187397816Y-147359086D01*
X187437256Y-147364840D01*
X187437260Y-147364840D01*
X187441782Y-147365500D01*
X188758218Y-147365500D01*
X188762768Y-147364830D01*
X188762771Y-147364830D01*
X188817426Y-147356784D01*
X188817427Y-147356784D01*
X188827112Y-147355358D01*
X188883058Y-147327890D01*
X188922507Y-147308522D01*
X188922509Y-147308521D01*
X188931855Y-147303932D01*
X189014293Y-147221350D01*
X189065536Y-147116518D01*
X189074042Y-147058213D01*
X189074840Y-147052744D01*
X189074840Y-147052740D01*
X189075500Y-147048218D01*
X189075500Y-146681782D01*
X189074524Y-146675148D01*
X189066784Y-146622574D01*
X189066784Y-146622573D01*
X189065358Y-146612888D01*
X189033306Y-146547605D01*
X189018522Y-146517493D01*
X189018521Y-146517491D01*
X189013932Y-146508145D01*
X188945168Y-146439501D01*
X188938721Y-146433065D01*
X188938720Y-146433065D01*
X188931350Y-146425707D01*
X188921449Y-146420867D01*
X188877057Y-146399168D01*
X188826518Y-146374464D01*
X188796027Y-146370016D01*
X188762744Y-146365160D01*
X188762740Y-146365160D01*
X188758218Y-146364500D01*
X187753793Y-146364500D01*
X187685672Y-146344498D01*
X187664698Y-146327595D01*
X187647698Y-146310595D01*
X187613672Y-146248283D01*
X187618737Y-146177468D01*
X187661284Y-146120632D01*
X187727804Y-146095821D01*
X187736793Y-146095500D01*
X188758218Y-146095500D01*
X188762768Y-146094830D01*
X188762771Y-146094830D01*
X188817426Y-146086784D01*
X188817427Y-146086784D01*
X188827112Y-146085358D01*
X188882683Y-146058074D01*
X188952647Y-146046006D01*
X189014918Y-146071216D01*
X189027488Y-146080861D01*
X189161404Y-146136330D01*
X189305113Y-146155250D01*
X189448822Y-146136330D01*
X189582738Y-146080861D01*
X189697734Y-145992621D01*
X189785974Y-145877625D01*
X189841443Y-145743709D01*
X189860363Y-145600000D01*
X189841443Y-145456291D01*
X189785974Y-145322375D01*
X189697734Y-145207379D01*
X189582738Y-145119139D01*
X189448822Y-145063670D01*
X189305113Y-145044750D01*
X189161404Y-145063670D01*
X189027488Y-145119139D01*
X189020935Y-145124167D01*
X189013786Y-145128295D01*
X189012792Y-145126574D01*
X188956665Y-145148272D01*
X188890848Y-145135909D01*
X188866828Y-145124168D01*
X188826518Y-145104464D01*
X188796027Y-145100016D01*
X188762744Y-145095160D01*
X188762740Y-145095160D01*
X188758218Y-145094500D01*
X187441782Y-145094500D01*
X187437232Y-145095170D01*
X187437229Y-145095170D01*
X187382574Y-145103216D01*
X187382573Y-145103216D01*
X187372888Y-145104642D01*
X187343361Y-145119139D01*
X187277493Y-145151478D01*
X187277491Y-145151479D01*
X187268145Y-145156068D01*
X187185707Y-145238650D01*
X187134464Y-145343482D01*
X187133052Y-145353162D01*
X187125238Y-145406726D01*
X187124500Y-145411782D01*
X187124500Y-145515961D01*
X187104498Y-145584082D01*
X187050842Y-145630575D01*
X186980568Y-145640679D01*
X186915988Y-145611185D01*
X186900857Y-145595597D01*
X186782906Y-145450975D01*
X186782903Y-145450972D01*
X186779011Y-145446200D01*
X186761786Y-145431950D01*
X186625025Y-145318811D01*
X186625021Y-145318809D01*
X186620275Y-145314882D01*
X186439055Y-145216897D01*
X186242254Y-145155977D01*
X186236129Y-145155333D01*
X186236128Y-145155333D01*
X186043498Y-145135087D01*
X186043496Y-145135087D01*
X186037369Y-145134443D01*
X185950529Y-145142346D01*
X185838342Y-145152555D01*
X185838339Y-145152556D01*
X185832203Y-145153114D01*
X185634572Y-145211280D01*
X185629107Y-145214137D01*
X185596318Y-145231279D01*
X185452002Y-145306726D01*
X185447201Y-145310586D01*
X185447198Y-145310588D01*
X185315650Y-145416355D01*
X185291447Y-145435815D01*
X185159024Y-145593630D01*
X185156056Y-145599028D01*
X185156053Y-145599033D01*
X185076518Y-145743709D01*
X185059776Y-145774162D01*
X184997484Y-145970532D01*
X184996798Y-145976649D01*
X184996797Y-145976653D01*
X184979241Y-146133169D01*
X184974520Y-146175262D01*
X184200000Y-146175262D01*
X184200000Y-145537024D01*
X184201953Y-145519818D01*
X184201963Y-145514187D01*
X184205143Y-145500358D01*
X184202011Y-145486519D01*
X184202013Y-145485528D01*
X184202620Y-145473399D01*
X184208806Y-145410588D01*
X184214156Y-145356278D01*
X184218972Y-145332061D01*
X184257294Y-145205726D01*
X184266747Y-145182907D01*
X184328974Y-145066489D01*
X184342697Y-145045952D01*
X184426442Y-144943908D01*
X184443908Y-144926442D01*
X184545952Y-144842697D01*
X184566489Y-144828974D01*
X184682907Y-144766747D01*
X184705727Y-144757294D01*
X184832061Y-144718972D01*
X184856278Y-144714156D01*
X184973400Y-144702620D01*
X184973898Y-144702571D01*
X184985930Y-144701990D01*
X184999642Y-144705143D01*
X185013482Y-144702011D01*
X185018372Y-144702020D01*
X185036448Y-144700000D01*
X194424000Y-144700000D01*
X194492121Y-144720002D01*
G37*
%TD.AperFunction*%
%TA.AperFunction,Conductor*%
G36*
X208543707Y-151110368D02*
G01*
X208590200Y-151164024D01*
X208600304Y-151234298D01*
X208591995Y-151264582D01*
X208578917Y-151296157D01*
X208559997Y-151439866D01*
X208578917Y-151583575D01*
X208634386Y-151717491D01*
X208639414Y-151724044D01*
X208643542Y-151731193D01*
X208642142Y-151732001D01*
X208664310Y-151789347D01*
X208664747Y-151799829D01*
X208664747Y-151841467D01*
X208651947Y-151896800D01*
X208614464Y-151973482D01*
X208610902Y-151997896D01*
X208606071Y-152031016D01*
X208604500Y-152041782D01*
X208604500Y-153358218D01*
X208605170Y-153362768D01*
X208605170Y-153362771D01*
X208613190Y-153417248D01*
X208614642Y-153427112D01*
X208624377Y-153446940D01*
X208656155Y-153511664D01*
X208666068Y-153531855D01*
X208683455Y-153549212D01*
X208733484Y-153599153D01*
X208748650Y-153614293D01*
X208758006Y-153618866D01*
X208758007Y-153618867D01*
X208767078Y-153623301D01*
X208853482Y-153665536D01*
X208873306Y-153668428D01*
X208917256Y-153674840D01*
X208917260Y-153674840D01*
X208921782Y-153675500D01*
X209288218Y-153675500D01*
X209292768Y-153674830D01*
X209292771Y-153674830D01*
X209347426Y-153666784D01*
X209347427Y-153666784D01*
X209357112Y-153665358D01*
X209432139Y-153628522D01*
X209452507Y-153618522D01*
X209452509Y-153618521D01*
X209461855Y-153613932D01*
X209533806Y-153541855D01*
X209536935Y-153538721D01*
X209536935Y-153538720D01*
X209544293Y-153531350D01*
X209552312Y-153514946D01*
X209584245Y-153449616D01*
X209595536Y-153426518D01*
X209601100Y-153388378D01*
X209604840Y-153362744D01*
X209604840Y-153362740D01*
X209605500Y-153358218D01*
X209605500Y-152226082D01*
X209625502Y-152157961D01*
X209679158Y-152111468D01*
X209749432Y-152101364D01*
X209814012Y-152130858D01*
X209820595Y-152136987D01*
X209861658Y-152178050D01*
X209974696Y-152235646D01*
X209984487Y-152237197D01*
X209984488Y-152237197D01*
X210033161Y-152244906D01*
X210066133Y-152250128D01*
X210068210Y-152250457D01*
X210132363Y-152280869D01*
X210169891Y-152341137D01*
X210174500Y-152374906D01*
X210174500Y-152526784D01*
X210154976Y-152593276D01*
X210151472Y-152596780D01*
X210090281Y-152716874D01*
X210088731Y-152726663D01*
X210088730Y-152726665D01*
X210086439Y-152741133D01*
X210074500Y-152816512D01*
X210074500Y-153383488D01*
X210080338Y-153420347D01*
X210088570Y-153472320D01*
X210090281Y-153483126D01*
X210117217Y-153535990D01*
X210144419Y-153589377D01*
X210151472Y-153603220D01*
X210152116Y-153603864D01*
X210174294Y-153666021D01*
X210174500Y-153673216D01*
X210174500Y-153926784D01*
X210154976Y-153993276D01*
X210151472Y-153996780D01*
X210146970Y-154005616D01*
X210146969Y-154005617D01*
X210128877Y-154041125D01*
X210090281Y-154116874D01*
X210088731Y-154126663D01*
X210088730Y-154126665D01*
X210085031Y-154150022D01*
X210074500Y-154216512D01*
X210074500Y-154783488D01*
X210081223Y-154825937D01*
X210088514Y-154871967D01*
X210090281Y-154883126D01*
X210151472Y-155003220D01*
X210233157Y-155084905D01*
X210267183Y-155147217D01*
X210262118Y-155218032D01*
X210219571Y-155274868D01*
X210153051Y-155299679D01*
X210144062Y-155300000D01*
X208405938Y-155300000D01*
X208337817Y-155279998D01*
X208291324Y-155226342D01*
X208281220Y-155156068D01*
X208310714Y-155091488D01*
X208316843Y-155084905D01*
X208398528Y-155003220D01*
X208459719Y-154883126D01*
X208461487Y-154871967D01*
X208468777Y-154825937D01*
X208475500Y-154783488D01*
X208475500Y-154216512D01*
X208464969Y-154150022D01*
X208461270Y-154126665D01*
X208461269Y-154126663D01*
X208459719Y-154116874D01*
X208398528Y-153996780D01*
X208303220Y-153901472D01*
X208183126Y-153840281D01*
X208173337Y-153838731D01*
X208173335Y-153838730D01*
X208143851Y-153834060D01*
X208083488Y-153824500D01*
X207917708Y-153824500D01*
X207849587Y-153804498D01*
X207828613Y-153787595D01*
X207102405Y-153061387D01*
X207068379Y-152999075D01*
X207065500Y-152972292D01*
X207065500Y-152041782D01*
X207064698Y-152036330D01*
X207056784Y-151982574D01*
X207056784Y-151982573D01*
X207055358Y-151972888D01*
X207051041Y-151964095D01*
X207014166Y-151888988D01*
X207002098Y-151819025D01*
X207017634Y-151772018D01*
X207021108Y-151767491D01*
X207076577Y-151633575D01*
X207095497Y-151489866D01*
X207076577Y-151346157D01*
X207057333Y-151299696D01*
X207042789Y-151264583D01*
X207035200Y-151193993D01*
X207066980Y-151130507D01*
X207128038Y-151094280D01*
X207159198Y-151090366D01*
X208475586Y-151090366D01*
X208543707Y-151110368D01*
G37*
%TD.AperFunction*%
%TA.AperFunction,Conductor*%
G36*
X204112183Y-144720002D02*
G01*
X204158676Y-144773658D01*
X204168780Y-144843932D01*
X204139286Y-144908512D01*
X204133157Y-144915095D01*
X204051472Y-144996780D01*
X203990281Y-145116874D01*
X203988731Y-145126663D01*
X203988730Y-145126665D01*
X203988472Y-145128295D01*
X203974500Y-145216512D01*
X203974500Y-145783488D01*
X203990281Y-145883126D01*
X204051472Y-146003220D01*
X204146780Y-146098528D01*
X204205704Y-146128551D01*
X204218239Y-146134938D01*
X204269854Y-146183686D01*
X204282032Y-146212050D01*
X204282540Y-146213800D01*
X204283764Y-146224138D01*
X204287423Y-146231758D01*
X204288812Y-146240103D01*
X204304985Y-146270076D01*
X204311192Y-146281580D01*
X204313884Y-146286865D01*
X204334274Y-146329326D01*
X204337592Y-146333274D01*
X204339525Y-146335207D01*
X204340990Y-146336804D01*
X204341254Y-146337294D01*
X204341234Y-146337313D01*
X204341313Y-146337402D01*
X204344222Y-146342794D01*
X204351870Y-146349864D01*
X204351871Y-146349865D01*
X204380636Y-146376455D01*
X204384202Y-146379884D01*
X204757595Y-146753277D01*
X204791621Y-146815589D01*
X204794500Y-146842372D01*
X204794500Y-147958218D01*
X204795170Y-147962768D01*
X204795170Y-147962771D01*
X204803216Y-148017426D01*
X204804642Y-148027112D01*
X204808958Y-148035902D01*
X204849632Y-148118746D01*
X204856068Y-148131855D01*
X204874245Y-148150000D01*
X204927493Y-148203155D01*
X204938650Y-148214293D01*
X204948006Y-148218866D01*
X204948007Y-148218867D01*
X204967950Y-148228615D01*
X205043482Y-148265536D01*
X205073973Y-148269984D01*
X205107256Y-148274840D01*
X205107260Y-148274840D01*
X205111782Y-148275500D01*
X205478218Y-148275500D01*
X205482768Y-148274830D01*
X205482771Y-148274830D01*
X205537426Y-148266784D01*
X205537427Y-148266784D01*
X205547112Y-148265358D01*
X205651855Y-148213932D01*
X205696101Y-148169609D01*
X205726935Y-148138721D01*
X205726935Y-148138720D01*
X205734293Y-148131350D01*
X205740460Y-148118735D01*
X205771144Y-148055961D01*
X205785536Y-148026518D01*
X205793497Y-147971950D01*
X205794840Y-147962744D01*
X205794840Y-147962740D01*
X205795500Y-147958218D01*
X205795500Y-146770372D01*
X205815502Y-146702251D01*
X205869158Y-146655758D01*
X205939432Y-146645654D01*
X206004012Y-146675148D01*
X206010595Y-146681277D01*
X206027595Y-146698277D01*
X206061621Y-146760589D01*
X206064500Y-146787372D01*
X206064500Y-147958218D01*
X206065170Y-147962768D01*
X206065170Y-147962771D01*
X206073216Y-148017426D01*
X206074642Y-148027112D01*
X206078958Y-148035902D01*
X206119632Y-148118746D01*
X206126068Y-148131855D01*
X206144245Y-148150000D01*
X206197493Y-148203155D01*
X206208650Y-148214293D01*
X206218006Y-148218866D01*
X206218007Y-148218867D01*
X206237950Y-148228615D01*
X206313482Y-148265536D01*
X206343973Y-148269984D01*
X206377256Y-148274840D01*
X206377260Y-148274840D01*
X206381782Y-148275500D01*
X206748218Y-148275500D01*
X206752768Y-148274830D01*
X206752771Y-148274830D01*
X206807426Y-148266784D01*
X206807427Y-148266784D01*
X206817112Y-148265358D01*
X206921855Y-148213932D01*
X206966101Y-148169609D01*
X206996935Y-148138721D01*
X206996935Y-148138720D01*
X207004293Y-148131350D01*
X207010460Y-148118735D01*
X207041144Y-148055961D01*
X207055536Y-148026518D01*
X207063497Y-147971950D01*
X207064840Y-147962744D01*
X207064840Y-147962740D01*
X207065500Y-147958218D01*
X207065500Y-146641782D01*
X207062673Y-146622574D01*
X207060272Y-146606268D01*
X207064952Y-146572926D01*
X207042945Y-146547605D01*
X207008523Y-146477495D01*
X207008522Y-146477493D01*
X207003932Y-146468145D01*
X206961420Y-146425707D01*
X206928721Y-146393065D01*
X206928720Y-146393065D01*
X206921350Y-146385707D01*
X206909438Y-146379884D01*
X206877965Y-146364500D01*
X206816518Y-146334464D01*
X206779791Y-146329106D01*
X206752744Y-146325160D01*
X206752740Y-146325160D01*
X206748218Y-146324500D01*
X206727345Y-146324500D01*
X206659224Y-146304498D01*
X206612731Y-146250842D01*
X206602627Y-146180568D01*
X206632121Y-146115988D01*
X206648552Y-146100906D01*
X206653220Y-146098528D01*
X206748528Y-146003220D01*
X206787733Y-145926276D01*
X206836481Y-145874661D01*
X206905396Y-145857595D01*
X206972598Y-145880496D01*
X207012267Y-145926276D01*
X207051472Y-146003220D01*
X207146780Y-146098528D01*
X207190162Y-146120632D01*
X207205703Y-146128551D01*
X207257318Y-146177300D01*
X207274500Y-146240818D01*
X207274500Y-146349176D01*
X207272467Y-146368275D01*
X207272240Y-146373083D01*
X207270049Y-146383261D01*
X207273010Y-146408281D01*
X207273627Y-146413491D01*
X207273937Y-146418746D01*
X207274072Y-146418735D01*
X207274500Y-146423914D01*
X207274500Y-146429115D01*
X207275354Y-146434243D01*
X207275354Y-146434249D01*
X207277389Y-146446473D01*
X207278226Y-146452349D01*
X207281175Y-146477265D01*
X207276151Y-146506927D01*
X207295817Y-146528085D01*
X207311192Y-146556580D01*
X207313888Y-146561872D01*
X207322607Y-146580030D01*
X207334332Y-146641782D01*
X207334500Y-146641782D01*
X207334500Y-147958218D01*
X207335170Y-147962768D01*
X207335170Y-147962771D01*
X207343216Y-148017426D01*
X207344642Y-148027112D01*
X207348958Y-148035902D01*
X207389632Y-148118746D01*
X207396068Y-148131855D01*
X207414245Y-148150000D01*
X207467493Y-148203155D01*
X207478650Y-148214293D01*
X207488006Y-148218866D01*
X207488007Y-148218867D01*
X207507950Y-148228615D01*
X207583482Y-148265536D01*
X207613973Y-148269984D01*
X207647256Y-148274840D01*
X207647260Y-148274840D01*
X207651782Y-148275500D01*
X208018218Y-148275500D01*
X208022768Y-148274830D01*
X208022771Y-148274830D01*
X208077426Y-148266784D01*
X208077427Y-148266784D01*
X208087112Y-148265358D01*
X208191855Y-148213932D01*
X208236101Y-148169609D01*
X208266935Y-148138721D01*
X208266935Y-148138720D01*
X208274293Y-148131350D01*
X208280460Y-148118735D01*
X208311144Y-148055961D01*
X208325536Y-148026518D01*
X208333497Y-147971950D01*
X208334840Y-147962744D01*
X208334840Y-147962740D01*
X208335500Y-147958218D01*
X208335500Y-146641782D01*
X208332673Y-146622574D01*
X208326784Y-146582574D01*
X208326784Y-146582573D01*
X208325358Y-146572888D01*
X208289149Y-146499138D01*
X208278522Y-146477493D01*
X208278521Y-146477491D01*
X208273932Y-146468145D01*
X208231420Y-146425707D01*
X208198721Y-146393065D01*
X208198720Y-146393065D01*
X208191350Y-146385707D01*
X208179438Y-146379884D01*
X208086518Y-146334464D01*
X208088141Y-146331143D01*
X208044230Y-146302029D01*
X208015661Y-146237034D01*
X208026767Y-146166911D01*
X208074021Y-146113925D01*
X208083420Y-146108617D01*
X208094385Y-146103030D01*
X208094388Y-146103028D01*
X208103220Y-146098528D01*
X208198528Y-146003220D01*
X208259719Y-145883126D01*
X208271839Y-145806606D01*
X208275500Y-145783488D01*
X208277750Y-145783844D01*
X208299674Y-145726324D01*
X208356812Y-145684184D01*
X208427662Y-145679625D01*
X208489729Y-145714094D01*
X208523309Y-145776648D01*
X208524297Y-145783520D01*
X208524500Y-145783488D01*
X208528162Y-145806606D01*
X208540281Y-145883126D01*
X208601472Y-146003220D01*
X208696780Y-146098528D01*
X208740162Y-146120632D01*
X208755703Y-146128551D01*
X208807318Y-146177300D01*
X208824500Y-146240818D01*
X208824500Y-146270076D01*
X208804498Y-146338197D01*
X208764705Y-146373664D01*
X208765960Y-146375417D01*
X208757494Y-146381478D01*
X208748145Y-146386068D01*
X208740788Y-146393437D01*
X208740789Y-146393437D01*
X208681980Y-146452349D01*
X208665707Y-146468650D01*
X208614464Y-146573482D01*
X208613052Y-146583162D01*
X208608187Y-146616512D01*
X208604500Y-146641782D01*
X208604500Y-147958218D01*
X208605170Y-147962768D01*
X208605170Y-147962771D01*
X208613216Y-148017426D01*
X208614642Y-148027112D01*
X208618958Y-148035902D01*
X208659632Y-148118746D01*
X208666068Y-148131855D01*
X208684245Y-148150000D01*
X208737493Y-148203155D01*
X208748650Y-148214293D01*
X208758006Y-148218866D01*
X208758007Y-148218867D01*
X208777950Y-148228615D01*
X208853482Y-148265536D01*
X208883973Y-148269984D01*
X208917256Y-148274840D01*
X208917260Y-148274840D01*
X208921782Y-148275500D01*
X209288218Y-148275500D01*
X209292768Y-148274830D01*
X209292771Y-148274830D01*
X209347426Y-148266784D01*
X209347427Y-148266784D01*
X209357112Y-148265358D01*
X209461855Y-148213932D01*
X209506101Y-148169609D01*
X209536935Y-148138721D01*
X209536935Y-148138720D01*
X209544293Y-148131350D01*
X209550460Y-148118735D01*
X209581144Y-148055961D01*
X209595536Y-148026518D01*
X209603497Y-147971950D01*
X209604840Y-147962744D01*
X209604840Y-147962740D01*
X209605500Y-147958218D01*
X209605500Y-146641782D01*
X209602673Y-146622574D01*
X209596784Y-146582574D01*
X209596784Y-146582573D01*
X209595358Y-146572888D01*
X209543932Y-146468145D01*
X209545555Y-146467348D01*
X209525500Y-146404883D01*
X209525500Y-146240818D01*
X209545502Y-146172697D01*
X209594297Y-146128551D01*
X209609838Y-146120632D01*
X209653220Y-146098528D01*
X209748528Y-146003220D01*
X209809719Y-145883126D01*
X209825500Y-145783488D01*
X209825500Y-145216512D01*
X209811528Y-145128295D01*
X209811270Y-145126665D01*
X209811269Y-145126663D01*
X209809719Y-145116874D01*
X209748528Y-144996780D01*
X209666843Y-144915095D01*
X209632817Y-144852783D01*
X209637882Y-144781968D01*
X209680429Y-144725132D01*
X209746949Y-144700321D01*
X209755938Y-144700000D01*
X211594062Y-144700000D01*
X211662183Y-144720002D01*
X211708676Y-144773658D01*
X211718780Y-144843932D01*
X211689286Y-144908512D01*
X211683157Y-144915095D01*
X211601472Y-144996780D01*
X211540281Y-145116874D01*
X211538731Y-145126663D01*
X211538730Y-145126665D01*
X211538472Y-145128295D01*
X211524500Y-145216512D01*
X211524500Y-145783488D01*
X211540281Y-145883126D01*
X211601472Y-146003220D01*
X211687595Y-146089343D01*
X211721621Y-146151655D01*
X211724500Y-146178438D01*
X211724500Y-146221562D01*
X211704498Y-146289683D01*
X211687595Y-146310657D01*
X211601472Y-146396780D01*
X211540281Y-146516874D01*
X211538731Y-146526663D01*
X211538730Y-146526665D01*
X211538505Y-146528085D01*
X211524500Y-146616512D01*
X211524500Y-147183488D01*
X211540281Y-147283126D01*
X211601472Y-147403220D01*
X211687595Y-147489343D01*
X211721621Y-147551655D01*
X211724500Y-147578438D01*
X211724500Y-147621562D01*
X211704498Y-147689683D01*
X211687595Y-147710657D01*
X211601472Y-147796780D01*
X211540281Y-147916874D01*
X211538731Y-147926663D01*
X211538730Y-147926665D01*
X211536031Y-147943710D01*
X211524500Y-148016512D01*
X211524500Y-148583488D01*
X211540281Y-148683126D01*
X211601472Y-148803220D01*
X211687595Y-148889343D01*
X211721621Y-148951655D01*
X211724500Y-148978438D01*
X211724500Y-149265399D01*
X211723627Y-149280208D01*
X211719636Y-149313929D01*
X211721328Y-149323193D01*
X211721328Y-149323194D01*
X211730172Y-149371620D01*
X211730822Y-149375523D01*
X211737598Y-149420589D01*
X211739551Y-149433581D01*
X211742679Y-149440094D01*
X211743975Y-149447192D01*
X211771025Y-149499266D01*
X211772768Y-149502756D01*
X211798191Y-149555698D01*
X211803077Y-149560984D01*
X211803110Y-149561032D01*
X211806421Y-149567407D01*
X211810725Y-149572447D01*
X211847952Y-149609674D01*
X211851381Y-149613239D01*
X211890146Y-149655175D01*
X211896505Y-149658868D01*
X211902663Y-149664385D01*
X211927842Y-149689564D01*
X211961868Y-149751876D01*
X211964747Y-149778659D01*
X211964747Y-150042210D01*
X211944745Y-150110331D01*
X211895951Y-150154476D01*
X211870493Y-150167448D01*
X211870492Y-150167449D01*
X211861658Y-150171950D01*
X211771950Y-150261658D01*
X211714354Y-150374696D01*
X211712804Y-150384485D01*
X211712803Y-150384487D01*
X211709852Y-150403118D01*
X211699500Y-150468481D01*
X211699501Y-150931518D01*
X211700276Y-150936411D01*
X211700276Y-150936412D01*
X211711728Y-151008721D01*
X211714354Y-151025304D01*
X211718857Y-151034141D01*
X211718857Y-151034142D01*
X211727077Y-151050275D01*
X211771950Y-151138342D01*
X211861658Y-151228050D01*
X211974696Y-151285646D01*
X211984485Y-151287196D01*
X211984487Y-151287197D01*
X212007603Y-151290858D01*
X212068481Y-151300500D01*
X212349943Y-151300500D01*
X212631518Y-151300499D01*
X212636412Y-151299724D01*
X212715506Y-151287198D01*
X212715508Y-151287197D01*
X212725304Y-151285646D01*
X212758054Y-151268959D01*
X212827831Y-151255855D01*
X212893615Y-151282555D01*
X212934522Y-151340583D01*
X212940815Y-151370683D01*
X212955400Y-151544364D01*
X212956759Y-151560553D01*
X212958458Y-151566478D01*
X213011118Y-151750124D01*
X213013544Y-151758586D01*
X213016359Y-151764063D01*
X213016360Y-151764066D01*
X213100549Y-151927880D01*
X213107712Y-151941818D01*
X213235677Y-152103270D01*
X213240370Y-152107264D01*
X213240371Y-152107265D01*
X213386787Y-152231874D01*
X213392564Y-152236791D01*
X213397942Y-152239797D01*
X213397944Y-152239798D01*
X213467589Y-152278721D01*
X213572398Y-152337297D01*
X213639753Y-152359182D01*
X213762471Y-152399056D01*
X213762475Y-152399057D01*
X213768329Y-152400959D01*
X213972894Y-152425351D01*
X213979029Y-152424879D01*
X213979031Y-152424879D01*
X214051300Y-152419318D01*
X214178300Y-152409546D01*
X214184230Y-152407890D01*
X214184232Y-152407890D01*
X214325630Y-152368411D01*
X214376725Y-152354145D01*
X214382214Y-152351372D01*
X214382220Y-152351370D01*
X214532200Y-152275609D01*
X214560610Y-152261258D01*
X214569715Y-152254145D01*
X214683856Y-152164968D01*
X214722951Y-152134424D01*
X214731717Y-152124269D01*
X214853540Y-151983134D01*
X214853540Y-151983133D01*
X214857564Y-151978472D01*
X214878387Y-151941818D01*
X214908398Y-151888988D01*
X214959323Y-151799344D01*
X215024351Y-151603863D01*
X215050171Y-151399474D01*
X215050515Y-151374848D01*
X215050534Y-151373522D01*
X215050534Y-151373518D01*
X215050583Y-151370000D01*
X215030480Y-151164970D01*
X214970935Y-150967749D01*
X214874218Y-150785849D01*
X214778839Y-150668903D01*
X214747906Y-150630975D01*
X214747903Y-150630972D01*
X214744011Y-150626200D01*
X214726786Y-150611950D01*
X214590025Y-150498811D01*
X214590021Y-150498809D01*
X214585275Y-150494882D01*
X214404055Y-150396897D01*
X214207254Y-150335977D01*
X214201129Y-150335333D01*
X214201128Y-150335333D01*
X214008498Y-150315087D01*
X214008496Y-150315087D01*
X214002369Y-150314443D01*
X213933911Y-150320673D01*
X213803342Y-150332555D01*
X213803339Y-150332556D01*
X213797203Y-150333114D01*
X213599572Y-150391280D01*
X213594107Y-150394137D01*
X213548003Y-150418240D01*
X213417002Y-150486726D01*
X213412201Y-150490586D01*
X213412198Y-150490588D01*
X213307586Y-150574698D01*
X213256447Y-150615815D01*
X213223020Y-150655652D01*
X213163910Y-150694978D01*
X213092922Y-150696104D01*
X213032595Y-150658672D01*
X213002082Y-150594567D01*
X213000499Y-150574660D01*
X213000499Y-150468482D01*
X212998717Y-150457229D01*
X212987198Y-150384494D01*
X212987197Y-150384492D01*
X212985646Y-150374696D01*
X212981125Y-150365822D01*
X212962882Y-150330019D01*
X212928050Y-150261658D01*
X212902652Y-150236260D01*
X212868626Y-150173948D01*
X212865747Y-150147165D01*
X212865747Y-149574086D01*
X212866620Y-149559277D01*
X212869504Y-149534909D01*
X212870611Y-149525556D01*
X212868919Y-149516292D01*
X212868919Y-149516288D01*
X212860074Y-149467855D01*
X212859425Y-149463954D01*
X212852098Y-149415221D01*
X212852096Y-149415213D01*
X212850696Y-149405904D01*
X212847570Y-149399394D01*
X212846273Y-149392293D01*
X212819229Y-149340229D01*
X212817461Y-149336691D01*
X212796133Y-149292277D01*
X212792056Y-149283787D01*
X212787173Y-149278506D01*
X212787138Y-149278454D01*
X212783827Y-149272078D01*
X212779523Y-149267038D01*
X212742285Y-149229800D01*
X212738855Y-149226234D01*
X212729125Y-149215708D01*
X212700101Y-149184310D01*
X212693743Y-149180617D01*
X212687590Y-149175105D01*
X212662405Y-149149920D01*
X212628379Y-149087608D01*
X212625500Y-149060825D01*
X212625500Y-148978438D01*
X212645502Y-148910317D01*
X212662405Y-148889343D01*
X212748528Y-148803220D01*
X212809719Y-148683126D01*
X212825500Y-148583488D01*
X212825500Y-148016512D01*
X212813969Y-147943710D01*
X212811270Y-147926665D01*
X212811269Y-147926663D01*
X212809719Y-147916874D01*
X212748528Y-147796780D01*
X212662405Y-147710657D01*
X212628379Y-147648345D01*
X212625500Y-147621562D01*
X212625500Y-147578438D01*
X212645502Y-147510317D01*
X212662405Y-147489343D01*
X212748528Y-147403220D01*
X212750058Y-147400218D01*
X212803398Y-147359086D01*
X212849113Y-147350500D01*
X213350780Y-147350500D01*
X213365589Y-147351373D01*
X213399310Y-147355364D01*
X213408574Y-147353672D01*
X213408575Y-147353672D01*
X213457001Y-147344828D01*
X213460904Y-147344178D01*
X213509645Y-147336850D01*
X213509646Y-147336850D01*
X213518962Y-147335449D01*
X213525475Y-147332321D01*
X213532573Y-147331025D01*
X213575230Y-147308867D01*
X213584599Y-147304000D01*
X213588111Y-147302245D01*
X213592082Y-147300337D01*
X213662146Y-147288863D01*
X213685582Y-147294073D01*
X213768329Y-147320959D01*
X213972894Y-147345351D01*
X213979029Y-147344879D01*
X213979031Y-147344879D01*
X214035039Y-147340569D01*
X214178300Y-147329546D01*
X214184230Y-147327890D01*
X214184232Y-147327890D01*
X214340096Y-147284372D01*
X214376725Y-147274145D01*
X214382214Y-147271372D01*
X214382220Y-147271370D01*
X214514952Y-147204322D01*
X214560610Y-147181258D01*
X214569715Y-147174145D01*
X214658000Y-147105169D01*
X214722951Y-147054424D01*
X214747193Y-147026340D01*
X214853540Y-146903134D01*
X214853540Y-146903133D01*
X214857564Y-146898472D01*
X214875550Y-146866812D01*
X214930335Y-146770372D01*
X214959323Y-146719344D01*
X215024351Y-146523863D01*
X215050171Y-146319474D01*
X215050583Y-146290000D01*
X215030480Y-146084970D01*
X214970935Y-145887749D01*
X214874218Y-145705849D01*
X214792660Y-145605849D01*
X214747906Y-145550975D01*
X214747903Y-145550972D01*
X214744011Y-145546200D01*
X214726786Y-145531950D01*
X214590025Y-145418811D01*
X214590021Y-145418809D01*
X214585275Y-145414882D01*
X214414186Y-145322375D01*
X214409474Y-145319827D01*
X214404055Y-145316897D01*
X214207254Y-145255977D01*
X214201129Y-145255333D01*
X214201128Y-145255333D01*
X214008498Y-145235087D01*
X214008496Y-145235087D01*
X214002369Y-145234443D01*
X213915529Y-145242346D01*
X213803342Y-145252555D01*
X213803339Y-145252556D01*
X213797203Y-145253114D01*
X213599572Y-145311280D01*
X213594107Y-145314137D01*
X213559833Y-145332055D01*
X213417002Y-145406726D01*
X213412201Y-145410586D01*
X213412198Y-145410588D01*
X213281140Y-145515961D01*
X213256447Y-145535815D01*
X213124024Y-145693630D01*
X213121056Y-145699028D01*
X213121053Y-145699033D01*
X213061915Y-145806606D01*
X213011569Y-145856665D01*
X212942152Y-145871558D01*
X212875703Y-145846557D01*
X212833319Y-145789600D01*
X212825500Y-145745905D01*
X212825500Y-145216512D01*
X212811528Y-145128295D01*
X212811270Y-145126665D01*
X212811269Y-145126663D01*
X212809719Y-145116874D01*
X212748528Y-144996780D01*
X212666843Y-144915095D01*
X212632817Y-144852783D01*
X212637882Y-144781968D01*
X212680429Y-144725132D01*
X212746949Y-144700321D01*
X212755938Y-144700000D01*
X214962976Y-144700000D01*
X214980182Y-144701953D01*
X214985813Y-144701963D01*
X214999642Y-144705143D01*
X215013481Y-144702011D01*
X215014472Y-144702013D01*
X215026601Y-144702620D01*
X215052218Y-144705143D01*
X215143722Y-144714156D01*
X215167939Y-144718972D01*
X215294273Y-144757294D01*
X215317093Y-144766747D01*
X215433511Y-144828974D01*
X215454048Y-144842697D01*
X215556092Y-144926442D01*
X215573558Y-144943908D01*
X215657303Y-145045952D01*
X215671026Y-145066489D01*
X215733253Y-145182907D01*
X215742706Y-145205726D01*
X215781028Y-145332061D01*
X215785844Y-145356278D01*
X215793298Y-145431950D01*
X215797429Y-145473898D01*
X215798010Y-145485930D01*
X215794857Y-145499642D01*
X215797989Y-145513482D01*
X215797980Y-145518372D01*
X215800000Y-145536448D01*
X215800000Y-154462976D01*
X215798047Y-154480182D01*
X215798037Y-154485813D01*
X215794857Y-154499642D01*
X215797989Y-154513481D01*
X215797987Y-154514472D01*
X215797380Y-154526601D01*
X215786478Y-154637297D01*
X215785845Y-154643719D01*
X215781028Y-154667939D01*
X215743254Y-154792467D01*
X215742706Y-154794273D01*
X215733253Y-154817093D01*
X215671026Y-154933511D01*
X215657303Y-154954048D01*
X215573558Y-155056092D01*
X215556092Y-155073558D01*
X215454048Y-155157303D01*
X215433511Y-155171026D01*
X215317093Y-155233253D01*
X215294274Y-155242706D01*
X215167939Y-155281028D01*
X215143722Y-155285844D01*
X215046147Y-155295455D01*
X215026102Y-155297429D01*
X215014070Y-155298010D01*
X215000358Y-155294857D01*
X214986518Y-155297989D01*
X214981628Y-155297980D01*
X214963552Y-155300000D01*
X211305938Y-155300000D01*
X211237817Y-155279998D01*
X211191324Y-155226342D01*
X211181220Y-155156068D01*
X211210714Y-155091488D01*
X211216843Y-155084905D01*
X211298528Y-155003220D01*
X211359719Y-154883126D01*
X211361487Y-154871967D01*
X211368777Y-154825937D01*
X211375500Y-154783488D01*
X211375500Y-154216512D01*
X211364969Y-154150022D01*
X211361270Y-154126665D01*
X211361269Y-154126663D01*
X211359719Y-154116874D01*
X211298528Y-153996780D01*
X211203220Y-153901472D01*
X211199334Y-153899492D01*
X211196072Y-153895262D01*
X212939520Y-153895262D01*
X212941912Y-153923752D01*
X212952833Y-154053795D01*
X212956759Y-154100553D01*
X212958458Y-154106478D01*
X213009657Y-154285029D01*
X213013544Y-154298586D01*
X213016359Y-154304063D01*
X213016360Y-154304066D01*
X213104897Y-154476341D01*
X213107712Y-154481818D01*
X213235677Y-154643270D01*
X213240370Y-154647264D01*
X213240371Y-154647265D01*
X213375051Y-154761886D01*
X213392564Y-154776791D01*
X213397942Y-154779797D01*
X213397944Y-154779798D01*
X213464676Y-154817093D01*
X213572398Y-154877297D01*
X213650023Y-154902519D01*
X213762471Y-154939056D01*
X213762475Y-154939057D01*
X213768329Y-154940959D01*
X213972894Y-154965351D01*
X213979029Y-154964879D01*
X213979031Y-154964879D01*
X214035039Y-154960569D01*
X214178300Y-154949546D01*
X214184230Y-154947890D01*
X214184232Y-154947890D01*
X214345719Y-154902802D01*
X214376725Y-154894145D01*
X214382214Y-154891372D01*
X214382220Y-154891370D01*
X214518016Y-154822774D01*
X214560610Y-154801258D01*
X214569551Y-154794273D01*
X214688605Y-154701258D01*
X214722951Y-154674424D01*
X214728544Y-154667945D01*
X214853540Y-154523134D01*
X214853540Y-154523133D01*
X214857564Y-154518472D01*
X214862132Y-154510432D01*
X214910673Y-154424983D01*
X214959323Y-154339344D01*
X215024351Y-154143863D01*
X215050171Y-153939474D01*
X215050583Y-153910000D01*
X215030480Y-153704970D01*
X214970935Y-153507749D01*
X214874218Y-153325849D01*
X214784895Y-153216328D01*
X214747906Y-153170975D01*
X214747903Y-153170972D01*
X214744011Y-153166200D01*
X214722485Y-153148392D01*
X214590025Y-153038811D01*
X214590021Y-153038809D01*
X214585275Y-153034882D01*
X214404055Y-152936897D01*
X214207254Y-152875977D01*
X214201129Y-152875333D01*
X214201128Y-152875333D01*
X214008498Y-152855087D01*
X214008496Y-152855087D01*
X214002369Y-152854443D01*
X213915529Y-152862346D01*
X213803342Y-152872555D01*
X213803339Y-152872556D01*
X213797203Y-152873114D01*
X213599572Y-152931280D01*
X213594107Y-152934137D01*
X213570740Y-152946353D01*
X213417002Y-153026726D01*
X213412201Y-153030586D01*
X213412198Y-153030588D01*
X213261254Y-153151950D01*
X213256447Y-153155815D01*
X213124024Y-153313630D01*
X213121056Y-153319028D01*
X213121053Y-153319033D01*
X213032211Y-153480637D01*
X213024776Y-153494162D01*
X213015234Y-153524242D01*
X212982132Y-153628595D01*
X212962484Y-153690532D01*
X212961798Y-153696649D01*
X212961797Y-153696653D01*
X212945687Y-153840281D01*
X212939520Y-153895262D01*
X211196072Y-153895262D01*
X211157865Y-153845712D01*
X211151790Y-153774976D01*
X211184923Y-153712185D01*
X211197064Y-153701665D01*
X211203220Y-153698528D01*
X211298528Y-153603220D01*
X211359719Y-153483126D01*
X211361431Y-153472320D01*
X211369662Y-153420347D01*
X211375500Y-153383488D01*
X211375500Y-152816512D01*
X211363561Y-152741133D01*
X211361270Y-152726665D01*
X211361269Y-152726663D01*
X211359719Y-152716874D01*
X211298528Y-152596780D01*
X211203220Y-152501472D01*
X211156513Y-152477674D01*
X211144297Y-152471449D01*
X211092682Y-152422700D01*
X211075500Y-152359182D01*
X211075500Y-151841150D01*
X211066608Y-151782001D01*
X211061849Y-151750349D01*
X211061849Y-151750348D01*
X211060449Y-151741038D01*
X211012916Y-151642051D01*
X211000499Y-151587509D01*
X211000499Y-151418482D01*
X210997489Y-151399474D01*
X210987198Y-151334494D01*
X210987197Y-151334492D01*
X210985646Y-151324696D01*
X210973318Y-151300500D01*
X210964174Y-151282555D01*
X210928050Y-151211658D01*
X210838342Y-151121950D01*
X210725304Y-151064354D01*
X210715515Y-151062804D01*
X210715513Y-151062803D01*
X210688151Y-151058470D01*
X210631519Y-151049500D01*
X210538795Y-151049500D01*
X210470674Y-151029498D01*
X210449700Y-151012596D01*
X210299920Y-150862817D01*
X210291638Y-150852765D01*
X210291567Y-150852618D01*
X210291101Y-150852114D01*
X210285843Y-150845733D01*
X210283337Y-150840908D01*
X210279033Y-150835869D01*
X210241806Y-150798642D01*
X210238376Y-150795076D01*
X210209563Y-150763906D01*
X210199612Y-150753141D01*
X210193253Y-150749448D01*
X210187095Y-150743931D01*
X209788680Y-150345516D01*
X209778826Y-150334427D01*
X209763634Y-150315157D01*
X209763632Y-150315155D01*
X209757799Y-150307756D01*
X209750052Y-150302401D01*
X209750050Y-150302400D01*
X209713803Y-150277349D01*
X209709542Y-150274404D01*
X209706330Y-150272109D01*
X209706007Y-150271870D01*
X209659111Y-150237232D01*
X209652295Y-150234839D01*
X209646358Y-150230735D01*
X209637378Y-150227895D01*
X209637376Y-150227894D01*
X209617210Y-150221516D01*
X209590408Y-150213040D01*
X209586677Y-150211795D01*
X209540190Y-150195470D01*
X209540188Y-150195470D01*
X209531296Y-150192347D01*
X209524108Y-150192065D01*
X209524049Y-150192054D01*
X209517197Y-150189886D01*
X209510590Y-150189366D01*
X209457911Y-150189366D01*
X209452964Y-150189269D01*
X209395933Y-150187028D01*
X209388827Y-150188912D01*
X209380580Y-150189366D01*
X206293787Y-150189366D01*
X206278978Y-150188493D01*
X206254610Y-150185609D01*
X206245257Y-150184502D01*
X206235993Y-150186194D01*
X206235989Y-150186194D01*
X206187556Y-150195039D01*
X206183655Y-150195688D01*
X206134922Y-150203015D01*
X206134914Y-150203017D01*
X206125605Y-150204417D01*
X206119095Y-150207543D01*
X206111994Y-150208840D01*
X206100131Y-150215002D01*
X206059930Y-150235884D01*
X206056392Y-150237652D01*
X206055526Y-150238068D01*
X206003488Y-150263057D01*
X205998202Y-150267944D01*
X205998162Y-150267971D01*
X205991779Y-150271286D01*
X205986739Y-150275591D01*
X205949512Y-150312818D01*
X205945947Y-150316247D01*
X205904011Y-150355012D01*
X205900318Y-150361371D01*
X205894801Y-150367529D01*
X205056073Y-151206257D01*
X204993761Y-151240283D01*
X204922946Y-151235218D01*
X204866110Y-151192671D01*
X204841299Y-151126151D01*
X204842056Y-151100716D01*
X204854172Y-151008686D01*
X204854172Y-151008685D01*
X204855250Y-151000497D01*
X204836330Y-150856788D01*
X204780861Y-150722872D01*
X204707638Y-150627447D01*
X204682039Y-150561231D01*
X204696303Y-150491682D01*
X204707640Y-150474042D01*
X204725209Y-150451146D01*
X204780861Y-150378619D01*
X204836330Y-150244703D01*
X204855250Y-150100994D01*
X204836330Y-149957285D01*
X204780861Y-149823369D01*
X204693226Y-149709161D01*
X204693224Y-149709158D01*
X204692621Y-149708373D01*
X204692743Y-149708279D01*
X204660811Y-149649801D01*
X204665876Y-149578986D01*
X204683967Y-149546319D01*
X204755861Y-149452625D01*
X204811330Y-149318709D01*
X204830250Y-149175000D01*
X204811330Y-149031291D01*
X204755861Y-148897375D01*
X204667621Y-148782379D01*
X204552625Y-148694139D01*
X204418709Y-148638670D01*
X204275000Y-148619750D01*
X204131291Y-148638670D01*
X203997375Y-148694139D01*
X203882379Y-148782379D01*
X203794139Y-148897375D01*
X203738670Y-149031291D01*
X203719750Y-149175000D01*
X203726516Y-149226388D01*
X203730571Y-149257189D01*
X203719632Y-149327338D01*
X203694744Y-149362731D01*
X203640594Y-149416881D01*
X203578282Y-149450907D01*
X203507467Y-149445842D01*
X203450631Y-149403295D01*
X203425820Y-149336775D01*
X203425499Y-149327786D01*
X203425499Y-149193482D01*
X203420604Y-149162574D01*
X203412198Y-149109494D01*
X203412197Y-149109492D01*
X203410646Y-149099696D01*
X203353050Y-148986658D01*
X203263342Y-148896950D01*
X203150304Y-148839354D01*
X203140515Y-148837804D01*
X203140513Y-148837803D01*
X203113151Y-148833470D01*
X203056519Y-148824500D01*
X203020866Y-148824500D01*
X202697373Y-148824501D01*
X202629253Y-148804499D01*
X202608278Y-148787596D01*
X202058783Y-148238101D01*
X202046705Y-148223147D01*
X202043473Y-148219595D01*
X202037825Y-148210848D01*
X202013914Y-148191998D01*
X202009979Y-148188501D01*
X202009891Y-148188605D01*
X202005932Y-148185250D01*
X202002254Y-148181572D01*
X201998029Y-148178553D01*
X201998021Y-148178546D01*
X201987920Y-148171328D01*
X201983173Y-148167764D01*
X201963619Y-148152349D01*
X201946189Y-148138608D01*
X201938213Y-148135807D01*
X201931331Y-148130889D01*
X201886164Y-148117381D01*
X201880558Y-148115559D01*
X201843577Y-148102572D01*
X201843571Y-148102571D01*
X201836094Y-148099945D01*
X201830956Y-148099500D01*
X201828237Y-148099500D01*
X201826055Y-148099405D01*
X201825520Y-148099245D01*
X201825521Y-148099218D01*
X201825403Y-148099211D01*
X201819536Y-148097456D01*
X201769981Y-148099403D01*
X201765034Y-148099500D01*
X201547372Y-148099500D01*
X201479251Y-148079498D01*
X201458277Y-148062595D01*
X201387405Y-147991723D01*
X201353379Y-147929411D01*
X201350500Y-147902628D01*
X201350500Y-147826500D01*
X201370502Y-147758379D01*
X201424158Y-147711886D01*
X201476500Y-147700500D01*
X201988175Y-147700500D01*
X202056296Y-147720502D01*
X202097958Y-147770349D01*
X202100155Y-147769175D01*
X202161254Y-147883482D01*
X202165155Y-147890781D01*
X202169080Y-147895564D01*
X202169081Y-147895565D01*
X202224237Y-147962771D01*
X202252631Y-147997369D01*
X202257411Y-148001292D01*
X202298857Y-148035306D01*
X202359219Y-148084845D01*
X202480825Y-148149845D01*
X202489080Y-148152349D01*
X202606858Y-148188076D01*
X202606860Y-148188076D01*
X202612776Y-148189871D01*
X202689144Y-148197393D01*
X202727454Y-148201167D01*
X202740665Y-148203339D01*
X202742332Y-148203531D01*
X202749284Y-148205142D01*
X202750000Y-148205143D01*
X202756937Y-148203561D01*
X202758391Y-148203398D01*
X202771460Y-148201274D01*
X202823459Y-148196152D01*
X202887224Y-148189871D01*
X202893140Y-148188076D01*
X202893142Y-148188076D01*
X203010920Y-148152349D01*
X203019175Y-148149845D01*
X203140781Y-148084845D01*
X203201144Y-148035306D01*
X203242589Y-148001292D01*
X203247369Y-147997369D01*
X203275763Y-147962771D01*
X203330919Y-147895565D01*
X203330920Y-147895564D01*
X203334845Y-147890781D01*
X203340606Y-147880004D01*
X203380369Y-147805612D01*
X203399845Y-147769175D01*
X203428386Y-147675087D01*
X203438076Y-147643142D01*
X203438076Y-147643140D01*
X203439871Y-147637224D01*
X203451167Y-147522546D01*
X203453339Y-147509335D01*
X203453531Y-147507669D01*
X203455142Y-147500716D01*
X203455143Y-147500000D01*
X203453154Y-147491282D01*
X203450000Y-147463267D01*
X203450000Y-144826000D01*
X203470002Y-144757879D01*
X203523658Y-144711386D01*
X203576000Y-144700000D01*
X204044062Y-144700000D01*
X204112183Y-144720002D01*
G37*
%TD.AperFunction*%
%TA.AperFunction,Conductor*%
G36*
X205104328Y-153770502D02*
G01*
X205125302Y-153787405D01*
X205787595Y-154449698D01*
X205821621Y-154512010D01*
X205824500Y-154538793D01*
X205824500Y-154783488D01*
X205831223Y-154825937D01*
X205838514Y-154871967D01*
X205840281Y-154883126D01*
X205901472Y-155003220D01*
X205983157Y-155084905D01*
X206017183Y-155147217D01*
X206012118Y-155218032D01*
X205969571Y-155274868D01*
X205903051Y-155299679D01*
X205894062Y-155300000D01*
X202935169Y-155300000D01*
X202867048Y-155279998D01*
X202820555Y-155226342D01*
X202810451Y-155156068D01*
X202816284Y-155132258D01*
X202850055Y-155036094D01*
X202850500Y-155030956D01*
X202850500Y-154876500D01*
X202870502Y-154808379D01*
X202924158Y-154761886D01*
X202976500Y-154750500D01*
X203104115Y-154750500D01*
X203109244Y-154749646D01*
X203109248Y-154749646D01*
X203179831Y-154737898D01*
X203179833Y-154737897D01*
X203190103Y-154736188D01*
X203280666Y-154687322D01*
X203283628Y-154685724D01*
X203283629Y-154685723D01*
X203292794Y-154680778D01*
X203302974Y-154669766D01*
X203337655Y-154632248D01*
X203372001Y-154595093D01*
X203419182Y-154488371D01*
X203420113Y-154477629D01*
X203428352Y-154382498D01*
X203429251Y-154372120D01*
X203401120Y-154258875D01*
X203376965Y-154221465D01*
X203376854Y-154221293D01*
X203356706Y-154153215D01*
X203373785Y-154095882D01*
X203372001Y-154095093D01*
X203407322Y-154015197D01*
X203419182Y-153988371D01*
X203420205Y-153976566D01*
X203429251Y-153872120D01*
X203431612Y-153872324D01*
X203443254Y-153816906D01*
X203493097Y-153766346D01*
X203554270Y-153750500D01*
X205036207Y-153750500D01*
X205104328Y-153770502D01*
G37*
%TD.AperFunction*%
%TA.AperFunction,Conductor*%
G36*
X203842677Y-152220502D02*
G01*
X203874518Y-152249796D01*
X203893342Y-152274328D01*
X203907379Y-152292621D01*
X204022375Y-152380861D01*
X204156291Y-152436330D01*
X204300000Y-152455250D01*
X204443709Y-152436330D01*
X204577625Y-152380861D01*
X204591797Y-152369986D01*
X204658015Y-152344386D01*
X204727564Y-152358650D01*
X204778361Y-152408251D01*
X204794500Y-152469949D01*
X204794500Y-152923500D01*
X204774498Y-152991621D01*
X204720842Y-153038114D01*
X204668500Y-153049500D01*
X202676832Y-153049500D01*
X202608711Y-153029498D01*
X202562218Y-152975842D01*
X202552114Y-152905568D01*
X202560422Y-152875286D01*
X202573294Y-152844209D01*
X202573631Y-152841646D01*
X202609211Y-152783269D01*
X202673071Y-152752245D01*
X202693970Y-152750500D01*
X203104115Y-152750500D01*
X203109244Y-152749646D01*
X203109248Y-152749646D01*
X203179831Y-152737898D01*
X203179833Y-152737897D01*
X203190103Y-152736188D01*
X203267430Y-152694464D01*
X203283628Y-152685724D01*
X203283629Y-152685723D01*
X203292794Y-152680778D01*
X203304394Y-152668230D01*
X203332669Y-152637642D01*
X203372001Y-152595093D01*
X203419182Y-152488371D01*
X203421089Y-152466361D01*
X203428352Y-152382498D01*
X203429251Y-152372120D01*
X203425465Y-152356878D01*
X203428453Y-152285945D01*
X203469317Y-152227887D01*
X203535082Y-152201138D01*
X203547748Y-152200500D01*
X203774556Y-152200500D01*
X203842677Y-152220502D01*
G37*
%TD.AperFunction*%
%TD*%
M02*
