G04*
G04 #@! TF.GenerationSoftware,Altium Limited,Altium Designer,21.8.1 (53)*
G04*
G04 Layer_Physical_Order=1*
G04 Layer_Color=255*
%FSLAX25Y25*%
%MOIN*%
G70*
G04*
G04 #@! TF.SameCoordinates,FA860FD0-AEA4-4FFE-92F8-4FAB6C871CC1*
G04*
G04*
G04 #@! TF.FilePolarity,Positive*
G04*
G01*
G75*
%ADD10C,0.00787*%
G04:AMPARAMS|DCode=13|XSize=23.62mil|YSize=25.59mil|CornerRadius=3.9mil|HoleSize=0mil|Usage=FLASHONLY|Rotation=180.000|XOffset=0mil|YOffset=0mil|HoleType=Round|Shape=RoundedRectangle|*
%AMROUNDEDRECTD13*
21,1,0.02362,0.01780,0,0,180.0*
21,1,0.01583,0.02559,0,0,180.0*
1,1,0.00780,-0.00791,0.00890*
1,1,0.00780,0.00791,0.00890*
1,1,0.00780,0.00791,-0.00890*
1,1,0.00780,-0.00791,-0.00890*
%
%ADD13ROUNDEDRECTD13*%
G04:AMPARAMS|DCode=14|XSize=16.54mil|YSize=19.68mil|CornerRadius=2.4mil|HoleSize=0mil|Usage=FLASHONLY|Rotation=180.000|XOffset=0mil|YOffset=0mil|HoleType=Round|Shape=RoundedRectangle|*
%AMROUNDEDRECTD14*
21,1,0.01654,0.01489,0,0,180.0*
21,1,0.01174,0.01968,0,0,180.0*
1,1,0.00480,-0.00587,0.00745*
1,1,0.00480,0.00587,0.00745*
1,1,0.00480,0.00587,-0.00745*
1,1,0.00480,-0.00587,-0.00745*
%
%ADD14ROUNDEDRECTD14*%
G04:AMPARAMS|DCode=15|XSize=12.6mil|YSize=19.68mil|CornerRadius=1.83mil|HoleSize=0mil|Usage=FLASHONLY|Rotation=180.000|XOffset=0mil|YOffset=0mil|HoleType=Round|Shape=RoundedRectangle|*
%AMROUNDEDRECTD15*
21,1,0.01260,0.01603,0,0,180.0*
21,1,0.00895,0.01968,0,0,180.0*
1,1,0.00365,-0.00447,0.00802*
1,1,0.00365,0.00447,0.00802*
1,1,0.00365,0.00447,-0.00802*
1,1,0.00365,-0.00447,-0.00802*
%
%ADD15ROUNDEDRECTD15*%
G04:AMPARAMS|DCode=16|XSize=19.68mil|YSize=55.12mil|CornerRadius=4.92mil|HoleSize=0mil|Usage=FLASHONLY|Rotation=0.000|XOffset=0mil|YOffset=0mil|HoleType=Round|Shape=RoundedRectangle|*
%AMROUNDEDRECTD16*
21,1,0.01968,0.04528,0,0,0.0*
21,1,0.00984,0.05512,0,0,0.0*
1,1,0.00984,0.00492,-0.02264*
1,1,0.00984,-0.00492,-0.02264*
1,1,0.00984,-0.00492,0.02264*
1,1,0.00984,0.00492,0.02264*
%
%ADD16ROUNDEDRECTD16*%
G04:AMPARAMS|DCode=17|XSize=19.68mil|YSize=55.12mil|CornerRadius=4.92mil|HoleSize=0mil|Usage=FLASHONLY|Rotation=270.000|XOffset=0mil|YOffset=0mil|HoleType=Round|Shape=RoundedRectangle|*
%AMROUNDEDRECTD17*
21,1,0.01968,0.04528,0,0,270.0*
21,1,0.00984,0.05512,0,0,270.0*
1,1,0.00984,-0.02264,-0.00492*
1,1,0.00984,-0.02264,0.00492*
1,1,0.00984,0.02264,0.00492*
1,1,0.00984,0.02264,-0.00492*
%
%ADD17ROUNDEDRECTD17*%
G04:AMPARAMS|DCode=18|XSize=23.62mil|YSize=25.59mil|CornerRadius=3.9mil|HoleSize=0mil|Usage=FLASHONLY|Rotation=270.000|XOffset=0mil|YOffset=0mil|HoleType=Round|Shape=RoundedRectangle|*
%AMROUNDEDRECTD18*
21,1,0.02362,0.01780,0,0,270.0*
21,1,0.01583,0.02559,0,0,270.0*
1,1,0.00780,-0.00890,-0.00791*
1,1,0.00780,-0.00890,0.00791*
1,1,0.00780,0.00890,0.00791*
1,1,0.00780,0.00890,-0.00791*
%
%ADD18ROUNDEDRECTD18*%
G04:AMPARAMS|DCode=19|XSize=37.4mil|YSize=37.4mil|CornerRadius=5.98mil|HoleSize=0mil|Usage=FLASHONLY|Rotation=180.000|XOffset=0mil|YOffset=0mil|HoleType=Round|Shape=RoundedRectangle|*
%AMROUNDEDRECTD19*
21,1,0.03740,0.02543,0,0,180.0*
21,1,0.02543,0.03740,0,0,180.0*
1,1,0.01197,-0.01272,0.01272*
1,1,0.01197,0.01272,0.01272*
1,1,0.01197,0.01272,-0.01272*
1,1,0.01197,-0.01272,-0.01272*
%
%ADD19ROUNDEDRECTD19*%
G04:AMPARAMS|DCode=20|XSize=31.5mil|YSize=31.5mil|CornerRadius=3.94mil|HoleSize=0mil|Usage=FLASHONLY|Rotation=270.000|XOffset=0mil|YOffset=0mil|HoleType=Round|Shape=RoundedRectangle|*
%AMROUNDEDRECTD20*
21,1,0.03150,0.02362,0,0,270.0*
21,1,0.02362,0.03150,0,0,270.0*
1,1,0.00787,-0.01181,-0.01181*
1,1,0.00787,-0.01181,0.01181*
1,1,0.00787,0.01181,0.01181*
1,1,0.00787,0.01181,-0.01181*
%
%ADD20ROUNDEDRECTD20*%
G04:AMPARAMS|DCode=23|XSize=57.09mil|YSize=45.28mil|CornerRadius=5.89mil|HoleSize=0mil|Usage=FLASHONLY|Rotation=0.000|XOffset=0mil|YOffset=0mil|HoleType=Round|Shape=RoundedRectangle|*
%AMROUNDEDRECTD23*
21,1,0.05709,0.03350,0,0,0.0*
21,1,0.04532,0.04528,0,0,0.0*
1,1,0.01177,0.02266,-0.01675*
1,1,0.01177,-0.02266,-0.01675*
1,1,0.01177,-0.02266,0.01675*
1,1,0.01177,0.02266,0.01675*
%
%ADD23ROUNDEDRECTD23*%
%ADD24C,0.03937*%
G04:AMPARAMS|DCode=37|XSize=13.78mil|YSize=33.47mil|CornerRadius=2.27mil|HoleSize=0mil|Usage=FLASHONLY|Rotation=0.000|XOffset=0mil|YOffset=0mil|HoleType=Round|Shape=RoundedRectangle|*
%AMROUNDEDRECTD37*
21,1,0.01378,0.02892,0,0,0.0*
21,1,0.00923,0.03347,0,0,0.0*
1,1,0.00455,0.00462,-0.01446*
1,1,0.00455,-0.00462,-0.01446*
1,1,0.00455,-0.00462,0.01446*
1,1,0.00455,0.00462,0.01446*
%
%ADD37ROUNDEDRECTD37*%
G04:AMPARAMS|DCode=38|XSize=40.16mil|YSize=62.99mil|CornerRadius=2.01mil|HoleSize=0mil|Usage=FLASHONLY|Rotation=270.000|XOffset=0mil|YOffset=0mil|HoleType=Round|Shape=RoundedRectangle|*
%AMROUNDEDRECTD38*
21,1,0.04016,0.05898,0,0,270.0*
21,1,0.03614,0.06299,0,0,270.0*
1,1,0.00402,-0.02949,-0.01807*
1,1,0.00402,-0.02949,0.01807*
1,1,0.00402,0.02949,0.01807*
1,1,0.00402,0.02949,-0.01807*
%
%ADD38ROUNDEDRECTD38*%
%ADD39C,0.01575*%
%ADD40C,0.02362*%
%ADD41C,0.01575*%
G36*
X77741Y5863D02*
X77498Y5784D01*
X77241Y5779D01*
X77002Y6136D01*
X76580Y6418D01*
X76083Y6517D01*
X71555D01*
X71057Y6418D01*
X70635Y6136D01*
X70354Y5714D01*
X70254Y5217D01*
Y4232D01*
X70354Y3735D01*
X70635Y3313D01*
Y2987D01*
X70354Y2565D01*
X70254Y2067D01*
Y1083D01*
X70354Y585D01*
X70635Y163D01*
Y-163D01*
X70354Y-585D01*
X70254Y-1083D01*
Y-2067D01*
X70354Y-2565D01*
X70508Y-2796D01*
X70595Y-3150D01*
X70508Y-3503D01*
X70354Y-3735D01*
X70254Y-4232D01*
Y-5217D01*
X70354Y-5714D01*
X70508Y-5946D01*
X70595Y-6299D01*
X70508Y-6653D01*
X70354Y-6884D01*
X70254Y-7382D01*
Y-8366D01*
X70354Y-8864D01*
X70508Y-9095D01*
X70595Y-9449D01*
X70508Y-9802D01*
X70354Y-10034D01*
X70254Y-10531D01*
Y-11516D01*
X70354Y-12014D01*
X70635Y-12435D01*
X71057Y-12717D01*
X71555Y-12816D01*
X74144D01*
X74259Y-13094D01*
X74701Y-13536D01*
X75278Y-13776D01*
X75903D01*
X76480Y-13536D01*
X76922Y-13094D01*
X77161Y-12517D01*
X77241Y-12415D01*
X77548Y-12488D01*
X77741Y-12643D01*
Y-28528D01*
X803D01*
Y28528D01*
X77741D01*
Y5863D01*
D02*
G37*
G36*
X75965Y-11512D02*
X74931Y-11775D01*
X74948Y-11741D01*
X74957Y-11704D01*
X74958Y-11664D01*
X74950Y-11620D01*
X74934Y-11575D01*
X74910Y-11526D01*
X74877Y-11474D01*
X74836Y-11420D01*
X74787Y-11362D01*
X74729Y-11302D01*
X75364Y-10824D01*
X75965Y-11512D01*
D02*
G37*
%LPC*%
G36*
X55836Y27256D02*
X55211D01*
X54634Y27017D01*
X54466Y26849D01*
X54140Y26613D01*
X53813Y26849D01*
X53646Y27017D01*
X53068Y27256D01*
X52443D01*
X51866Y27017D01*
X51424Y26575D01*
X51185Y25997D01*
Y25373D01*
X51081Y25177D01*
X50818Y25125D01*
X50430Y24866D01*
X50170Y24477D01*
X50079Y24020D01*
Y22240D01*
X50170Y21782D01*
X50430Y21394D01*
X50818Y21135D01*
X51162Y21067D01*
Y20254D01*
X50711Y19980D01*
X50700Y19977D01*
X50434Y20043D01*
X50202Y20198D01*
X49705Y20297D01*
X49376D01*
X49366Y20303D01*
X49259Y20383D01*
X48997Y20612D01*
X48095Y21514D01*
X47706Y21774D01*
X47247Y21866D01*
X46882D01*
X46574Y22240D01*
Y24020D01*
X46483Y24477D01*
X46224Y24866D01*
X45836Y25125D01*
X45378Y25216D01*
X43795D01*
X43338Y25125D01*
X42949Y24866D01*
X42690Y24477D01*
X42599Y24020D01*
Y22240D01*
X42292Y21866D01*
X38475D01*
X38131Y22256D01*
X38145Y22328D01*
Y23932D01*
X38070Y24308D01*
X37856Y24628D01*
X37537Y24842D01*
X37160Y24917D01*
X36265D01*
X35888Y24842D01*
X35569Y24628D01*
X35355Y24308D01*
X35280Y23932D01*
Y22328D01*
X35355Y21951D01*
X35569Y21632D01*
X35703Y21542D01*
X35715Y21481D01*
X35452Y21046D01*
X35444Y21040D01*
X35344Y20981D01*
X34551D01*
X34152Y20901D01*
X33813Y20675D01*
X33587Y20337D01*
X33507Y19937D01*
Y18593D01*
X33122Y18255D01*
X33086Y18237D01*
X32795Y18339D01*
Y20020D01*
X32703Y20479D01*
X32443Y20868D01*
X30268Y23044D01*
X30160Y23160D01*
X30087Y23251D01*
X30074Y23270D01*
Y23932D01*
X29999Y24308D01*
X29785Y24628D01*
X29466Y24842D01*
X29089Y24917D01*
X28194D01*
X27817Y24842D01*
X27498Y24628D01*
X27284Y24308D01*
X27209Y23932D01*
Y22328D01*
X27284Y21951D01*
X27498Y21632D01*
X27741Y21469D01*
X27700Y21235D01*
X27700D01*
X27654Y20981D01*
X27632Y20981D01*
X26480D01*
X26081Y20901D01*
X25742Y20675D01*
X25674Y20573D01*
X25214Y20764D01*
X24589D01*
X24012Y20525D01*
X23570Y20083D01*
X23331Y19505D01*
Y18880D01*
X23543Y18369D01*
X23498Y18099D01*
X23393Y17800D01*
X23067Y17582D01*
X22808Y17194D01*
X22717Y16736D01*
Y14957D01*
X22808Y14499D01*
X23067Y14111D01*
X23456Y13852D01*
X23913Y13760D01*
X25496D01*
X25954Y13852D01*
X26342Y14111D01*
X26373Y14157D01*
X26974D01*
X27005Y14111D01*
X27393Y13852D01*
X27850Y13760D01*
X29433D01*
X29808Y13453D01*
Y11906D01*
X29899Y11446D01*
X30159Y11057D01*
X31208Y10008D01*
X31329Y9878D01*
X31379Y9817D01*
Y8658D01*
X31470Y8200D01*
X31729Y7812D01*
X32117Y7552D01*
X32575Y7461D01*
X34354D01*
X34812Y7552D01*
X35200Y7812D01*
X35460Y8200D01*
X35469Y8249D01*
X35531D01*
X35991Y8340D01*
X36318Y8559D01*
X36581Y8465D01*
X36790Y8303D01*
Y7382D01*
X36889Y6884D01*
X37044Y6653D01*
X37131Y6299D01*
X37044Y5946D01*
X36889Y5714D01*
X36790Y5217D01*
Y4286D01*
X36662Y4146D01*
X36340Y3931D01*
X36336Y3933D01*
X35711D01*
X35134Y3694D01*
X35107Y3668D01*
X35010Y3732D01*
X35009Y3733D01*
X35009Y3734D01*
X34812Y3865D01*
X34354Y3956D01*
X32575D01*
X32117Y3865D01*
X31729Y3606D01*
X31470Y3218D01*
X31379Y2760D01*
Y1177D01*
X31470Y719D01*
X31729Y331D01*
X31775Y301D01*
Y-301D01*
X31729Y-331D01*
X31470Y-719D01*
X31379Y-1177D01*
Y-2760D01*
X31470Y-3218D01*
X31729Y-3606D01*
X31854Y-3689D01*
Y-4284D01*
X31729Y-4367D01*
X31470Y-4755D01*
X31379Y-5213D01*
Y-6795D01*
X31470Y-7253D01*
X31729Y-7641D01*
X32117Y-7900D01*
X32575Y-7992D01*
X34354D01*
X34812Y-7900D01*
X35200Y-7641D01*
X35460Y-7253D01*
X35517Y-6966D01*
X35923Y-6885D01*
X36313Y-6625D01*
X36498Y-6440D01*
X36808Y-6554D01*
X36938Y-6811D01*
X36889Y-6884D01*
X36790Y-7382D01*
Y-8366D01*
X36889Y-8864D01*
X37171Y-9286D01*
X37593Y-9568D01*
X38091Y-9667D01*
X42618D01*
X43116Y-9568D01*
X43538Y-9286D01*
X43820Y-8864D01*
X43919Y-8366D01*
Y-7382D01*
X43820Y-6884D01*
X43538Y-6462D01*
X43665Y-5946D01*
X43820Y-5714D01*
X43919Y-5217D01*
Y-4232D01*
X43820Y-3735D01*
X43665Y-3503D01*
X43578Y-3150D01*
X43665Y-2796D01*
X43820Y-2565D01*
X43919Y-2067D01*
Y-1083D01*
X43820Y-585D01*
X43665Y-353D01*
X43578Y0D01*
X43665Y353D01*
X43820Y585D01*
X43919Y1083D01*
Y2067D01*
X43820Y2565D01*
X43665Y2796D01*
X43578Y3150D01*
X43665Y3503D01*
X43820Y3735D01*
X43919Y4232D01*
Y5217D01*
X43820Y5714D01*
X43665Y5946D01*
X43578Y6299D01*
X43665Y6653D01*
X43820Y6884D01*
X43919Y7382D01*
Y8366D01*
X43820Y8864D01*
X43538Y9286D01*
Y9612D01*
X43820Y10034D01*
X43919Y10531D01*
Y11516D01*
X43820Y12014D01*
X43538Y12435D01*
X43116Y12717D01*
X42618Y12816D01*
X39530D01*
X39252Y13232D01*
X39268Y13270D01*
Y13895D01*
X39087Y14331D01*
X39200Y14499D01*
X39291Y14957D01*
Y16736D01*
X39200Y17194D01*
X38940Y17582D01*
X38552Y17841D01*
X38094Y17932D01*
X37771D01*
X37761Y17980D01*
X37501Y18370D01*
X36957Y18914D01*
X36918Y18956D01*
X36937Y19334D01*
X36937Y19334D01*
X37438Y19557D01*
X37898Y19465D01*
X43970D01*
X44287Y19079D01*
X44270Y18996D01*
Y14469D01*
X44369Y13971D01*
X44651Y13549D01*
X45073Y13267D01*
X45571Y13168D01*
X46555D01*
X47053Y13267D01*
X47284Y13422D01*
X47638Y13509D01*
X47991Y13422D01*
X48223Y13267D01*
X48720Y13168D01*
X49705D01*
X50202Y13267D01*
X50434Y13422D01*
X50787Y13509D01*
X51141Y13422D01*
X51372Y13267D01*
X51870Y13168D01*
X52854D01*
X52937Y13184D01*
X53323Y12867D01*
Y11790D01*
X53415Y11331D01*
X53675Y10942D01*
X54921Y9696D01*
X55310Y9436D01*
X55770Y9344D01*
X57870D01*
X58330Y9436D01*
X58719Y9696D01*
X59948Y10925D01*
X59965Y10936D01*
X60628Y11599D01*
X66395D01*
X66855Y11690D01*
X67244Y11951D01*
X68429Y13136D01*
X68451Y13168D01*
X68602D01*
X69100Y13267D01*
X69522Y13549D01*
X69804Y13971D01*
X69903Y14469D01*
Y18996D01*
X69804Y19494D01*
X69522Y19916D01*
X69100Y20198D01*
X68602Y20297D01*
X67618D01*
X67120Y20198D01*
X66698Y19916D01*
X66182Y20043D01*
X65951Y20198D01*
X65453Y20297D01*
X64468D01*
X63971Y20198D01*
X63549Y19916D01*
X63443D01*
X63011Y20328D01*
Y20861D01*
X63019Y20869D01*
X63145Y20986D01*
X63217Y21044D01*
X65059D01*
X65518Y21135D01*
X65908Y21395D01*
X66168Y21785D01*
X66259Y22244D01*
Y24606D01*
X66168Y25066D01*
X65908Y25455D01*
X65518Y25715D01*
X65059Y25806D01*
X62697D01*
X62238Y25715D01*
X61848Y25455D01*
X61588Y25066D01*
X61497Y24606D01*
Y22767D01*
X61351Y22596D01*
X60962Y22207D01*
X60702Y21818D01*
X60611Y21358D01*
Y20254D01*
X60160Y19980D01*
X60149Y19977D01*
X59883Y20043D01*
X59651Y20198D01*
X59153Y20297D01*
X58169D01*
X57672Y20198D01*
X57440Y20043D01*
X57174Y19977D01*
X57165Y19979D01*
X56712Y20334D01*
Y21106D01*
X56859Y21135D01*
X57247Y21394D01*
X57507Y21782D01*
X57598Y22240D01*
Y24020D01*
X57507Y24477D01*
X57247Y24866D01*
X56963Y25056D01*
X57094Y25373D01*
Y25997D01*
X56855Y26575D01*
X56413Y27017D01*
X55836Y27256D01*
D02*
G37*
G36*
X70965Y25806D02*
X68602D01*
X68143Y25715D01*
X67754Y25455D01*
X67493Y25066D01*
X67402Y24606D01*
Y22244D01*
X67493Y21785D01*
X67754Y21395D01*
X68143Y21135D01*
X68602Y21044D01*
X70965D01*
X71424Y21135D01*
X71813Y21395D01*
X71851Y21452D01*
X72508Y21604D01*
X72619Y21527D01*
Y20627D01*
X72471Y20597D01*
X72083Y20338D01*
X71824Y19950D01*
X71733Y19492D01*
Y17909D01*
X71824Y17452D01*
X72083Y17064D01*
X72471Y16804D01*
X72929Y16713D01*
X74709D01*
X75166Y16804D01*
X75555Y17064D01*
X75814Y17452D01*
X75905Y17909D01*
Y19492D01*
X75814Y19950D01*
X75555Y20338D01*
X75166Y20597D01*
X75019Y20627D01*
Y22539D01*
X74928Y22999D01*
X74668Y23388D01*
X73782Y24274D01*
X73392Y24534D01*
X72933Y24625D01*
X72161D01*
X72073Y25066D01*
X71813Y25455D01*
X71424Y25715D01*
X70965Y25806D01*
D02*
G37*
G36*
X21850Y13791D02*
X12303D01*
X11998Y13730D01*
X11738Y13557D01*
X11565Y13298D01*
X11504Y12992D01*
Y5776D01*
X11165Y5549D01*
X10540D01*
X9963Y5310D01*
X9521Y4868D01*
X9282Y4291D01*
Y3666D01*
X9521Y3089D01*
X9963Y2647D01*
X10540Y2408D01*
X11165D01*
X11504Y2181D01*
Y1602D01*
X11270D01*
X11115Y1571D01*
X10957D01*
X10812Y1510D01*
X10657Y1480D01*
X10526Y1392D01*
X10380Y1332D01*
X10268Y1220D01*
X10137Y1132D01*
X10050Y1001D01*
X9938Y890D01*
X9878Y744D01*
X9790Y613D01*
X9759Y458D01*
X9699Y313D01*
Y155D01*
X9668Y0D01*
X9699Y-155D01*
Y-313D01*
X9759Y-458D01*
X9790Y-613D01*
X9878Y-744D01*
X9938Y-890D01*
X10050Y-1001D01*
X10137Y-1132D01*
X10268Y-1220D01*
X10380Y-1332D01*
X10526Y-1392D01*
X10657Y-1480D01*
X10749Y-1498D01*
X11395Y-2144D01*
X11659Y-2428D01*
X11848Y-2664D01*
X11985Y-2859D01*
Y-4421D01*
X12092Y-4961D01*
X12397Y-5418D01*
X12855Y-5723D01*
X13394Y-5830D01*
X15937D01*
X16476Y-5723D01*
X16933Y-5418D01*
X17239Y-4961D01*
X17346Y-4421D01*
Y-1878D01*
X17239Y-1339D01*
X16933Y-882D01*
X16526Y-610D01*
X16524Y-575D01*
X16704Y-110D01*
X17010Y-49D01*
X17269Y124D01*
X18610Y1465D01*
X19795D01*
X19872Y1480D01*
X19951D01*
X20023Y1510D01*
X20100Y1526D01*
X20166Y1570D01*
X20238Y1600D01*
X20294Y1655D01*
X20359Y1699D01*
X20403Y1764D01*
X20459Y1820D01*
X20798Y1834D01*
X21192Y1756D01*
X22115D01*
X22510Y1834D01*
X22638Y1920D01*
X22766Y1834D01*
X23160Y1756D01*
X24084D01*
X24478Y1834D01*
X24812Y2058D01*
X25036Y2392D01*
X25114Y2786D01*
Y5678D01*
X25059Y5955D01*
X25064Y5963D01*
X25080Y6000D01*
X25105Y6030D01*
X25139Y6143D01*
X25184Y6251D01*
Y6291D01*
X25195Y6329D01*
X25233Y6712D01*
X25229Y6752D01*
X25237Y6791D01*
X25214Y6906D01*
X25202Y7023D01*
X25184Y7057D01*
X25176Y7096D01*
X25111Y7194D01*
X25056Y7297D01*
X25025Y7323D01*
X25003Y7356D01*
X24421Y7937D01*
Y8857D01*
X24406Y8934D01*
Y9013D01*
X24402Y9031D01*
Y10654D01*
X24406Y10672D01*
Y10751D01*
X24421Y10828D01*
Y11220D01*
X24360Y11526D01*
X24187Y11785D01*
X22415Y13557D01*
X22156Y13730D01*
X21850Y13791D01*
D02*
G37*
G36*
X65716Y4327D02*
X65091D01*
X64514Y4088D01*
X64072Y3646D01*
X63833Y3068D01*
Y2443D01*
X64072Y1866D01*
X64514Y1424D01*
X65091Y1185D01*
X65716D01*
X66294Y1424D01*
X66735Y1866D01*
X66975Y2443D01*
Y3068D01*
X66735Y3646D01*
X66294Y4088D01*
X65716Y4327D01*
D02*
G37*
G36*
X26052Y-1756D02*
X25129D01*
X24735Y-1834D01*
X24606Y-1920D01*
X24478Y-1834D01*
X24084Y-1756D01*
X23160D01*
X22766Y-1834D01*
X22638Y-1920D01*
X22510Y-1834D01*
X22115Y-1756D01*
X21192D01*
X20798Y-1834D01*
X20589Y-1974D01*
X20530Y-1935D01*
X20507Y-1925D01*
X20488Y-1908D01*
X20364Y-1866D01*
X20242Y-1815D01*
X20217D01*
X20193Y-1807D01*
X20062Y-1815D01*
X19931D01*
X19907Y-1825D01*
X19882Y-1827D01*
X19382Y-1959D01*
X19334Y-1983D01*
X19281Y-1993D01*
X19195Y-2051D01*
X19102Y-2096D01*
X19067Y-2137D01*
X19022Y-2166D01*
X18964Y-2252D01*
X18896Y-2330D01*
X18879Y-2381D01*
X18849Y-2426D01*
X18828Y-2527D01*
X18795Y-2625D01*
X18798Y-2679D01*
X18788Y-2731D01*
Y-6386D01*
X17875D01*
X17817Y-6375D01*
X13285D01*
X12750Y-6481D01*
X12296Y-6784D01*
X11993Y-7238D01*
X11886Y-7774D01*
Y-11124D01*
X11993Y-11659D01*
X12296Y-12113D01*
X12750Y-12416D01*
X13285Y-12523D01*
X17594D01*
X18788Y-13717D01*
Y-15748D01*
X18849Y-16054D01*
X19022Y-16313D01*
X19281Y-16486D01*
X19587Y-16547D01*
X20365D01*
X20442Y-16532D01*
X20521D01*
X20594Y-16501D01*
X20671Y-16486D01*
X20677Y-16482D01*
X20941Y-16429D01*
X22366D01*
X22630Y-16482D01*
X22637Y-16486D01*
X22714Y-16501D01*
X22786Y-16532D01*
X22865Y-16532D01*
X22942Y-16547D01*
X23149D01*
X23603Y-16827D01*
Y-18606D01*
X23694Y-19064D01*
X23953Y-19452D01*
X23806Y-19919D01*
X23775Y-19965D01*
X23174D01*
X23143Y-19919D01*
X22755Y-19659D01*
X22297Y-19568D01*
X20715D01*
X20257Y-19659D01*
X19869Y-19919D01*
X19726Y-20133D01*
X19604Y-20083D01*
X18979D01*
X18402Y-20322D01*
X17960Y-20764D01*
X17720Y-21341D01*
Y-21966D01*
X17960Y-22543D01*
X18402Y-22985D01*
X18979Y-23224D01*
X19604D01*
X19725Y-23174D01*
X19869Y-23390D01*
X20257Y-23649D01*
X20715Y-23740D01*
X22297D01*
X22755Y-23649D01*
X23143Y-23390D01*
X23174Y-23344D01*
X23775D01*
X23806Y-23390D01*
X24194Y-23649D01*
X24652Y-23740D01*
X26234D01*
X26692Y-23649D01*
X27080Y-23390D01*
X27224Y-23174D01*
X27345Y-23224D01*
X27970D01*
X28547Y-22985D01*
X28989Y-22543D01*
X29228Y-21966D01*
Y-21341D01*
X28989Y-20764D01*
X28547Y-20322D01*
X27970Y-20083D01*
X27689D01*
X27219Y-19646D01*
X27212Y-19621D01*
X27219Y-19479D01*
X27228Y-19452D01*
X27487Y-19064D01*
X27578Y-18606D01*
Y-16827D01*
X27528Y-16574D01*
X27528Y-16565D01*
X27523Y-16550D01*
X27487Y-16369D01*
X27428Y-16280D01*
X27424Y-16271D01*
X27544Y-15946D01*
X27562Y-15919D01*
X27630Y-15855D01*
X27751Y-15786D01*
X27760Y-15783D01*
X31693D01*
X32459Y-15630D01*
X33109Y-15196D01*
X33544Y-14546D01*
X33696Y-13780D01*
X33544Y-13013D01*
X33109Y-12363D01*
X32459Y-11929D01*
X31693Y-11777D01*
X26799D01*
X26382Y-11694D01*
X24799D01*
X24421Y-11383D01*
Y-10828D01*
X24406Y-10751D01*
Y-10672D01*
X24402Y-10654D01*
Y-9150D01*
X24458Y-8658D01*
X24530Y-8627D01*
X24608Y-8612D01*
X24614Y-8608D01*
X24878Y-8555D01*
X26303D01*
X26655Y-8625D01*
X26703Y-8645D01*
X26705Y-8646D01*
X26706Y-8646D01*
X26860D01*
X27015Y-8647D01*
X27515Y-8550D01*
X27589Y-8519D01*
X27668Y-8503D01*
X27732Y-8461D01*
X27803Y-8432D01*
X27860Y-8375D01*
X27927Y-8330D01*
X27970Y-8266D01*
X28025Y-8212D01*
X28056Y-8138D01*
X28100Y-8071D01*
X28115Y-7996D01*
X28145Y-7925D01*
X28145Y-7844D01*
X28161Y-7765D01*
Y-3063D01*
X28153Y-3022D01*
X28157Y-2979D01*
X28122Y-2870D01*
X28100Y-2758D01*
X28076Y-2722D01*
X28064Y-2682D01*
X27991Y-2594D01*
X27927Y-2499D01*
X27892Y-2475D01*
X27864Y-2442D01*
X27700Y-2309D01*
X27632Y-2273D01*
X27572Y-2225D01*
X27236Y-2047D01*
X27125Y-2014D01*
X27018Y-1969D01*
X26977D01*
X26938Y-1957D01*
X26822Y-1969D01*
X26706D01*
X26662Y-1978D01*
X26447Y-1834D01*
X26052Y-1756D01*
D02*
G37*
G36*
X65584Y-10835D02*
X64959D01*
X64382Y-11074D01*
X63940Y-11516D01*
X63701Y-12093D01*
Y-12718D01*
X63898Y-13193D01*
X63544Y-13549D01*
X63223D01*
X62801Y-13267D01*
X62303Y-13168D01*
X61319D01*
X60821Y-13267D01*
X60590Y-13422D01*
X60236Y-13509D01*
X59883Y-13422D01*
X59651Y-13267D01*
X59153Y-13168D01*
X58169D01*
X57672Y-13267D01*
X57440Y-13422D01*
X57087Y-13509D01*
X56733Y-13422D01*
X56502Y-13267D01*
X56004Y-13168D01*
X55020D01*
X54522Y-13267D01*
X54290Y-13422D01*
X53937Y-13509D01*
X53584Y-13422D01*
X53352Y-13267D01*
X52854Y-13168D01*
X51870D01*
X51372Y-13267D01*
X50950Y-13549D01*
X50624D01*
X50202Y-13267D01*
X50190Y-13264D01*
X50123Y-12924D01*
X49862Y-12535D01*
X48683Y-11356D01*
X48294Y-11096D01*
X47835Y-11005D01*
X45474D01*
X45015Y-11096D01*
X44625Y-11356D01*
X40490Y-15491D01*
X40230Y-15881D01*
X40138Y-16340D01*
Y-20267D01*
X40136Y-20291D01*
X40127Y-20348D01*
X40124Y-20358D01*
X39649Y-20632D01*
X39136Y-21145D01*
X38774Y-21772D01*
X38587Y-22472D01*
Y-23197D01*
X38774Y-23897D01*
X39136Y-24524D01*
X39649Y-25037D01*
X40276Y-25399D01*
X40976Y-25587D01*
X41701D01*
X42401Y-25399D01*
X43028Y-25037D01*
X43541Y-24524D01*
X43903Y-23897D01*
X44091Y-23197D01*
Y-22472D01*
X43903Y-21772D01*
X43541Y-21145D01*
X43028Y-20632D01*
X42553Y-20358D01*
X42550Y-20348D01*
X42541Y-20291D01*
X42539Y-20267D01*
Y-16837D01*
X43808Y-15568D01*
X44270Y-15759D01*
Y-18996D01*
X44369Y-19494D01*
X44651Y-19916D01*
X44861Y-20056D01*
X44863Y-20080D01*
Y-21063D01*
X44954Y-21522D01*
X45214Y-21912D01*
X45963Y-22661D01*
X46076Y-22782D01*
X46142Y-22865D01*
Y-24020D01*
X46233Y-24477D01*
X46379Y-24696D01*
X46342Y-24786D01*
Y-25411D01*
X46581Y-25988D01*
X47023Y-26430D01*
X47600Y-26669D01*
X48225D01*
X48803Y-26430D01*
X49245Y-25988D01*
X49484Y-25411D01*
Y-25055D01*
X49767Y-24866D01*
X50026Y-24477D01*
X50117Y-24020D01*
Y-22240D01*
X50026Y-21782D01*
X49767Y-21394D01*
X49379Y-21135D01*
X48921Y-21044D01*
X47765D01*
X47602Y-20904D01*
X47398Y-20700D01*
X47447Y-20142D01*
X47714Y-19980D01*
X47725Y-19977D01*
X47991Y-20043D01*
X48223Y-20198D01*
X48720Y-20297D01*
X49705D01*
X50202Y-20198D01*
X50624Y-19916D01*
X50950D01*
X51372Y-20198D01*
X51870Y-20297D01*
X52854D01*
X53352Y-20198D01*
X53584Y-20043D01*
X53849Y-19977D01*
X53859Y-19979D01*
X54312Y-20334D01*
Y-21168D01*
X53973Y-21394D01*
X53714Y-21782D01*
X53623Y-22240D01*
Y-24020D01*
X53714Y-24477D01*
X53973Y-24866D01*
X54151Y-24984D01*
X53990Y-25373D01*
Y-25997D01*
X54229Y-26575D01*
X54671Y-27017D01*
X55249Y-27256D01*
X55874D01*
X56451Y-27017D01*
X56893Y-26575D01*
X57132Y-25997D01*
Y-25373D01*
X56992Y-25036D01*
X57247Y-24866D01*
X57507Y-24477D01*
X57598Y-24020D01*
Y-22240D01*
X57507Y-21782D01*
X57247Y-21394D01*
X56859Y-21135D01*
X56712Y-21106D01*
Y-20254D01*
X57163Y-19980D01*
X57174Y-19977D01*
X57440Y-20043D01*
X57672Y-20198D01*
X58169Y-20297D01*
X59153D01*
X59651Y-20198D01*
X59883Y-20043D01*
X60149Y-19977D01*
X60158Y-19979D01*
X60611Y-20334D01*
Y-21358D01*
X60702Y-21818D01*
X60962Y-22207D01*
X61322Y-22567D01*
X61439Y-22692D01*
X61497Y-22764D01*
Y-24606D01*
X61588Y-25066D01*
X61848Y-25455D01*
X62238Y-25715D01*
X62697Y-25806D01*
X65059D01*
X65518Y-25715D01*
X65908Y-25455D01*
X66168Y-25066D01*
X66259Y-24606D01*
Y-22244D01*
X66168Y-21785D01*
X65908Y-21395D01*
X65518Y-21135D01*
X65059Y-21044D01*
X63220D01*
X63048Y-20898D01*
X63011Y-20861D01*
Y-20080D01*
X63013Y-20056D01*
X63223Y-19916D01*
X63549D01*
X63971Y-20198D01*
X64468Y-20297D01*
X65453D01*
X65951Y-20198D01*
X66372Y-19916D01*
X66698D01*
X67120Y-20198D01*
X67618Y-20297D01*
X68602D01*
X69100Y-20198D01*
X69522Y-19916D01*
X69804Y-19494D01*
X69903Y-18996D01*
Y-14469D01*
X69804Y-13971D01*
X69522Y-13549D01*
X69100Y-13267D01*
X68602Y-13168D01*
X67618D01*
X67159Y-13259D01*
X67014Y-13157D01*
X66766Y-12902D01*
X66843Y-12718D01*
Y-12093D01*
X66603Y-11516D01*
X66162Y-11074D01*
X65584Y-10835D01*
D02*
G37*
G36*
X74709Y-16713D02*
X72929D01*
X72471Y-16804D01*
X72083Y-17064D01*
X71824Y-17452D01*
X71733Y-17909D01*
Y-19492D01*
X71780Y-19731D01*
X70642Y-20869D01*
X70517Y-20986D01*
X70445Y-21044D01*
X68602D01*
X68143Y-21135D01*
X67754Y-21395D01*
X67493Y-21785D01*
X67402Y-22244D01*
Y-24606D01*
X67493Y-25066D01*
X67754Y-25455D01*
X68143Y-25715D01*
X68602Y-25806D01*
X70965D01*
X71424Y-25715D01*
X71813Y-25455D01*
X72073Y-25066D01*
X72165Y-24606D01*
Y-22767D01*
X72310Y-22596D01*
X73848Y-21058D01*
X74095Y-20688D01*
X74709D01*
X75166Y-20597D01*
X75555Y-20338D01*
X75814Y-19950D01*
X75905Y-19492D01*
Y-17909D01*
X75814Y-17452D01*
X75555Y-17064D01*
X75166Y-16804D01*
X74709Y-16713D01*
D02*
G37*
%LPD*%
G36*
X52753Y25123D02*
X53306Y25122D01*
X53276Y25088D01*
X53250Y25049D01*
X53226Y25004D01*
X53205Y24953D01*
X53188Y24897D01*
X53174Y24835D01*
X53163Y24767D01*
X53159Y24736D01*
X53190Y24234D01*
X53202Y24194D01*
X53214Y24167D01*
X51968Y24393D01*
X52042Y24388D01*
X52109Y24402D01*
X52168Y24435D01*
X52219Y24487D01*
X52263Y24557D01*
X52298Y24646D01*
X52326Y24755D01*
X52337Y24829D01*
X52336Y24836D01*
X52322Y24898D01*
X52305Y24955D01*
X52284Y25005D01*
X52261Y25050D01*
X52234Y25090D01*
X52204Y25123D01*
X52359Y25123D01*
X52361Y25192D01*
X52753Y25123D01*
D02*
G37*
G36*
X55920Y25123D02*
X56076Y25123D01*
X56046Y25090D01*
X56019Y25050D01*
X55995Y25005D01*
X55975Y24955D01*
X55958Y24898D01*
X55944Y24840D01*
X55954Y24783D01*
X55981Y24679D01*
X56017Y24591D01*
X56060Y24519D01*
X56111Y24463D01*
X56170Y24423D01*
X56237Y24400D01*
X56312Y24393D01*
X54739Y24377D01*
X54814Y24386D01*
X54880Y24411D01*
X54939Y24452D01*
X54990Y24509D01*
X55033Y24583D01*
X55068Y24672D01*
X55096Y24778D01*
X55105Y24837D01*
X55091Y24897D01*
X55074Y24953D01*
X55054Y25004D01*
X55030Y25049D01*
X55003Y25088D01*
X54973Y25122D01*
X55129Y25122D01*
X55131Y25192D01*
X55918D01*
X55920Y25123D01*
D02*
G37*
G36*
X63421Y21867D02*
X63361Y21910D01*
X63289Y21931D01*
X63207Y21930D01*
X63112Y21907D01*
X63007Y21861D01*
X62890Y21793D01*
X62761Y21703D01*
X62621Y21590D01*
X62308Y21298D01*
X61751Y21855D01*
X61908Y22017D01*
X62155Y22308D01*
X62246Y22437D01*
X62314Y22554D01*
X62359Y22660D01*
X62383Y22754D01*
X62384Y22837D01*
X62363Y22908D01*
X62320Y22968D01*
X63421Y21867D01*
D02*
G37*
G36*
X37286Y22191D02*
X37282Y22174D01*
X37279Y22148D01*
X37273Y22066D01*
X37268Y21689D01*
X36481D01*
X36480Y21778D01*
X36459Y22082D01*
X36450Y22115D01*
X36441Y22138D01*
X36431Y22151D01*
X36419Y22156D01*
X37290Y22198D01*
X37286Y22191D01*
D02*
G37*
G36*
X29227Y23385D02*
X29213Y23307D01*
X29219Y23219D01*
X29245Y23122D01*
X29292Y23015D01*
X29359Y22899D01*
X29446Y22773D01*
X29554Y22639D01*
X29831Y22341D01*
X29471Y21587D01*
X29299Y21753D01*
X28997Y22012D01*
X28865Y22105D01*
X28747Y22174D01*
X28643Y22219D01*
X28551Y22239D01*
X28473Y22236D01*
X28408Y22208D01*
X28357Y22156D01*
X29262Y23454D01*
X29227Y23385D01*
D02*
G37*
G36*
X56299Y21867D02*
X56224Y21860D01*
X56157Y21836D01*
X56098Y21797D01*
X56047Y21741D01*
X56004Y21669D01*
X55968Y21581D01*
X55941Y21477D01*
X55921Y21357D01*
X55910Y21220D01*
X55905Y21068D01*
X55118D01*
X55114Y21222D01*
X55102Y21361D01*
X55083Y21483D01*
X55055Y21589D01*
X55020Y21679D01*
X54977Y21753D01*
X54926Y21810D01*
X54868Y21851D01*
X54801Y21877D01*
X54727Y21886D01*
X56299Y21867D01*
D02*
G37*
G36*
X53059Y21914D02*
X52996Y21852D01*
X52939Y21782D01*
X52891Y21704D01*
X52850Y21618D01*
X52816Y21524D01*
X52790Y21421D01*
X52771Y21312D01*
X52760Y21194D01*
X52756Y21068D01*
X51968D01*
X51965Y21224D01*
X51953Y21363D01*
X51933Y21486D01*
X51906Y21591D01*
X51870Y21680D01*
X51827Y21751D01*
X51776Y21806D01*
X51717Y21843D01*
X51650Y21864D01*
X51575Y21867D01*
X53131Y21968D01*
X53059Y21914D01*
D02*
G37*
G36*
X45298Y21859D02*
X45232Y21835D01*
X45173Y21795D01*
X45121Y21739D01*
X45078Y21667D01*
X45043Y21579D01*
X45026Y21518D01*
X45050Y21445D01*
X45105Y21342D01*
X45176Y21256D01*
X45263Y21185D01*
X45365Y21130D01*
X45483Y21091D01*
X45617Y21067D01*
X45767Y21059D01*
X44586Y20272D01*
X43405Y21059D01*
X43554Y21067D01*
X43688Y21091D01*
X43806Y21130D01*
X43909Y21185D01*
X43995Y21256D01*
X44066Y21342D01*
X44121Y21445D01*
X44146Y21518D01*
X44129Y21579D01*
X44094Y21667D01*
X44050Y21739D01*
X43999Y21795D01*
X43940Y21835D01*
X43873Y21859D01*
X43799Y21867D01*
X45373D01*
X45298Y21859D01*
D02*
G37*
G36*
X26262Y18410D02*
X26254Y18484D01*
X26230Y18550D01*
X26189Y18609D01*
X26132Y18659D01*
X26058Y18702D01*
X25968Y18737D01*
X25862Y18764D01*
X25776Y18778D01*
X25751Y18774D01*
X25689Y18760D01*
X25633Y18743D01*
X25582Y18722D01*
X25537Y18698D01*
X25498Y18672D01*
X25464Y18642D01*
Y18799D01*
X25446Y18799D01*
Y19587D01*
X25464Y19587D01*
Y19744D01*
X25498Y19714D01*
X25537Y19687D01*
X25582Y19664D01*
X25633Y19643D01*
X25689Y19626D01*
X25751Y19612D01*
X25776Y19608D01*
X25862Y19622D01*
X25968Y19649D01*
X26058Y19684D01*
X26132Y19727D01*
X26189Y19777D01*
X26230Y19836D01*
X26254Y19902D01*
X26262Y19976D01*
X26262Y18410D01*
D02*
G37*
G36*
X62209Y20101D02*
X62220Y19947D01*
X62240Y19811D01*
X62267Y19693D01*
X62301Y19593D01*
X62344Y19511D01*
X62394Y19448D01*
X62452Y19402D01*
X62518Y19375D01*
X62592Y19366D01*
X61030D01*
X61104Y19375D01*
X61170Y19402D01*
X61228Y19448D01*
X61278Y19511D01*
X61321Y19593D01*
X61355Y19693D01*
X61383Y19811D01*
X61402Y19947D01*
X61414Y20101D01*
X61417Y20273D01*
X62205D01*
X62209Y20101D01*
D02*
G37*
G36*
X55909D02*
X55921Y19947D01*
X55940Y19811D01*
X55967Y19693D01*
X56002Y19593D01*
X56045Y19511D01*
X56095Y19448D01*
X56153Y19402D01*
X56219Y19375D01*
X56292Y19366D01*
X54731D01*
X54805Y19375D01*
X54870Y19402D01*
X54928Y19448D01*
X54979Y19511D01*
X55021Y19593D01*
X55056Y19693D01*
X55083Y19811D01*
X55103Y19947D01*
X55114Y20101D01*
X55118Y20273D01*
X55905D01*
X55909Y20101D01*
D02*
G37*
G36*
X52760D02*
X52771Y19947D01*
X52791Y19811D01*
X52818Y19693D01*
X52853Y19593D01*
X52895Y19511D01*
X52946Y19448D01*
X53004Y19402D01*
X53069Y19375D01*
X53143Y19366D01*
X51582D01*
X51655Y19375D01*
X51721Y19402D01*
X51779Y19448D01*
X51829Y19511D01*
X51872Y19593D01*
X51907Y19693D01*
X51934Y19811D01*
X51953Y19947D01*
X51965Y20101D01*
X51968Y20273D01*
X52756D01*
X52760Y20101D01*
D02*
G37*
G36*
X48407Y20067D02*
X48755Y19763D01*
X48908Y19648D01*
X49048Y19557D01*
X49174Y19491D01*
X49286Y19450D01*
X49384Y19433D01*
X49469Y19441D01*
X49540Y19474D01*
X48243Y18567D01*
X48295Y18619D01*
X48324Y18683D01*
X48328Y18760D01*
X48309Y18850D01*
X48266Y18952D01*
X48200Y19068D01*
X48109Y19197D01*
X47995Y19338D01*
X47695Y19660D01*
X48213Y20256D01*
X48407Y20067D01*
D02*
G37*
G36*
X25423Y18597D02*
X25396Y18557D01*
X25372Y18512D01*
X25352Y18462D01*
X25335Y18405D01*
X25321Y18343D01*
X25309Y18276D01*
X25302Y18202D01*
X25295Y18039D01*
X24508D01*
X24506Y18123D01*
X24494Y18276D01*
X24483Y18343D01*
X24468Y18405D01*
X24451Y18462D01*
X24431Y18512D01*
X24407Y18557D01*
X24380Y18597D01*
X24350Y18631D01*
X25453D01*
X25423Y18597D01*
D02*
G37*
G36*
X35916Y19255D02*
X35895Y19184D01*
X35896Y19101D01*
X35920Y19006D01*
X35965Y18901D01*
X36033Y18784D01*
X36124Y18655D01*
X36236Y18516D01*
X36528Y18202D01*
X35971Y17645D01*
X35809Y17802D01*
X35518Y18050D01*
X35389Y18140D01*
X35272Y18208D01*
X35167Y18254D01*
X35072Y18277D01*
X34990Y18278D01*
X34918Y18257D01*
X34858Y18214D01*
X35959Y19316D01*
X35916Y19255D01*
D02*
G37*
G36*
X25299Y17749D02*
X25311Y17605D01*
X25330Y17478D01*
X25357Y17367D01*
X25392Y17273D01*
X25435Y17196D01*
X25485Y17135D01*
X25543Y17090D01*
X25609Y17063D01*
X25682Y17052D01*
X24114Y17109D01*
X24189Y17115D01*
X24256Y17137D01*
X24315Y17175D01*
X24366Y17230D01*
X24409Y17302D01*
X24445Y17390D01*
X24472Y17495D01*
X24492Y17616D01*
X24504Y17754D01*
X24508Y17909D01*
X25295D01*
X25299Y17749D01*
D02*
G37*
G36*
X29465Y17902D02*
X29467Y17762D01*
X29486Y17514D01*
X29503Y17408D01*
X29525Y17312D01*
X29551Y17229D01*
X29583Y17157D01*
X29619Y17096D01*
X29660Y17047D01*
X29705Y17009D01*
X28284Y17109D01*
X28358Y17112D01*
X28425Y17132D01*
X28484Y17170D01*
X28535Y17224D01*
X28579Y17295D01*
X28614Y17384D01*
X28642Y17489D01*
X28661Y17612D01*
X28673Y17752D01*
X28677Y17909D01*
X29465Y17902D01*
D02*
G37*
G36*
X37052Y17109D02*
X36259Y17007D01*
X36259Y17521D01*
X37046D01*
X37052Y17109D01*
D02*
G37*
G36*
X33760Y14639D02*
X33761Y14583D01*
X34154D01*
X34079Y14575D01*
X34012Y14552D01*
X33953Y14512D01*
X33902Y14456D01*
X33858Y14384D01*
X33823Y14296D01*
X33808Y14242D01*
X33816Y14215D01*
X33837Y14165D01*
X33861Y14120D01*
X33887Y14080D01*
X33917Y14047D01*
X33773D01*
X33764Y13936D01*
X33760Y13784D01*
X32972D01*
X32969Y13936D01*
X32959Y14047D01*
X32815D01*
X32845Y14080D01*
X32872Y14120D01*
X32895Y14165D01*
X32916Y14215D01*
X32924Y14242D01*
X32910Y14296D01*
X32874Y14384D01*
X32831Y14456D01*
X32779Y14512D01*
X32721Y14552D01*
X32654Y14575D01*
X32579Y14583D01*
X32970D01*
X32972Y14639D01*
X33760Y14639D01*
D02*
G37*
G36*
X37942Y14719D02*
X37949Y14651D01*
X38327Y14672D01*
X38253Y14659D01*
X38188Y14630D01*
X38129Y14583D01*
X38079Y14520D01*
X38037Y14439D01*
X38015Y14378D01*
X38033Y14344D01*
X38062Y14303D01*
X38094Y14268D01*
X38130Y14240D01*
X37972Y14209D01*
X37955Y14097D01*
X37944Y13949D01*
X37940Y13784D01*
X37152D01*
X37149Y13940D01*
X37139Y14047D01*
X37048Y14029D01*
X37068Y14062D01*
X37086Y14101D01*
X37101Y14146D01*
X37115Y14197D01*
X37116Y14204D01*
X37089Y14306D01*
X37054Y14395D01*
X37011Y14466D01*
X36960Y14521D01*
X36900Y14559D01*
X36834Y14580D01*
X36759Y14583D01*
X37152Y14606D01*
X37152Y14624D01*
X37940Y14804D01*
X37942Y14719D01*
D02*
G37*
G36*
X37725Y10236D02*
X37713Y10283D01*
X37687Y10324D01*
X37647Y10361D01*
X37592Y10392D01*
X37522Y10419D01*
X37438Y10441D01*
X37339Y10458D01*
X37226Y10470D01*
X36957Y10480D01*
Y11268D01*
X37085Y11270D01*
X37301Y11290D01*
X37387Y11307D01*
X37460Y11330D01*
X37519Y11357D01*
X37563Y11389D01*
X37594Y11427D01*
X37611Y11469D01*
X37613Y11516D01*
X37725Y10236D01*
D02*
G37*
G36*
X32446Y11029D02*
X32731Y10788D01*
X32858Y10699D01*
X32975Y10632D01*
X33081Y10585D01*
X33177Y10560D01*
X33262Y10557D01*
X33337Y10574D01*
X33402Y10613D01*
X32202Y9610D01*
X32249Y9666D01*
X32274Y9734D01*
X32275Y9815D01*
X32253Y9907D01*
X32208Y10013D01*
X32139Y10130D01*
X32048Y10260D01*
X31933Y10402D01*
X31633Y10724D01*
X32288Y11182D01*
X32446Y11029D01*
D02*
G37*
G36*
X34736Y10161D02*
X34760Y10095D01*
X34800Y10035D01*
X34855Y9984D01*
X34927Y9941D01*
X35015Y9905D01*
X35119Y9878D01*
X35239Y9858D01*
X35375Y9847D01*
X35527Y9843D01*
Y9055D01*
X35375Y9051D01*
X35239Y9039D01*
X35119Y9020D01*
X35015Y8992D01*
X34927Y8957D01*
X34855Y8913D01*
X34800Y8862D01*
X34760Y8803D01*
X34736Y8736D01*
X34727Y8661D01*
Y10236D01*
X34736Y10161D01*
D02*
G37*
G36*
X34669Y2980D02*
X34721Y2934D01*
X34784Y2893D01*
X34858Y2857D01*
X34943Y2827D01*
X35038Y2802D01*
X35144Y2783D01*
X35161Y2781D01*
X35176Y2784D01*
X35238Y2798D01*
X35294Y2815D01*
X35345Y2836D01*
X35390Y2859D01*
X35430Y2886D01*
X35463Y2915D01*
X35463Y2761D01*
X35527Y2759D01*
Y1971D01*
X35460Y1970D01*
X35459Y1813D01*
X35426Y1843D01*
X35386Y1870D01*
X35341Y1894D01*
X35291Y1914D01*
X35234Y1932D01*
X35172Y1946D01*
X35171Y1946D01*
X35108Y1936D01*
X35002Y1908D01*
X34914Y1873D01*
X34842Y1830D01*
X34788Y1778D01*
X34751Y1719D01*
X34731Y1653D01*
X34727Y1578D01*
X34627Y3032D01*
X34669Y2980D01*
D02*
G37*
G36*
X34177Y-3141D02*
X34110Y-3165D01*
X34051Y-3205D01*
X34000Y-3261D01*
X33957Y-3333D01*
X33921Y-3421D01*
X33894Y-3525D01*
X33874Y-3645D01*
X33862Y-3780D01*
X33858Y-3932D01*
X33071D01*
X33067Y-3780D01*
X33055Y-3645D01*
X33035Y-3525D01*
X33008Y-3421D01*
X32972Y-3333D01*
X32929Y-3261D01*
X32878Y-3205D01*
X32819Y-3165D01*
X32752Y-3141D01*
X32677Y-3133D01*
X34252D01*
X34177Y-3141D01*
D02*
G37*
G36*
X33862Y-4192D02*
X33874Y-4328D01*
X33894Y-4448D01*
X33921Y-4552D01*
X33957Y-4640D01*
X34000Y-4712D01*
X34051Y-4767D01*
X34110Y-4808D01*
X34177Y-4831D01*
X34252Y-4839D01*
X32677D01*
X32752Y-4831D01*
X32819Y-4808D01*
X32878Y-4767D01*
X32929Y-4712D01*
X32972Y-4640D01*
X33008Y-4552D01*
X33035Y-4448D01*
X33055Y-4328D01*
X33067Y-4192D01*
X33071Y-4040D01*
X33858D01*
X33862Y-4192D01*
D02*
G37*
G36*
X37720Y-5505D02*
X37711Y-5432D01*
X37684Y-5366D01*
X37639Y-5308D01*
X37575Y-5257D01*
X37494Y-5215D01*
X37394Y-5180D01*
X37276Y-5153D01*
X37140Y-5134D01*
X36986Y-5122D01*
X36814Y-5118D01*
Y-4331D01*
X36986Y-4327D01*
X37140Y-4315D01*
X37276Y-4296D01*
X37394Y-4269D01*
X37494Y-4234D01*
X37575Y-4191D01*
X37639Y-4141D01*
X37684Y-4083D01*
X37711Y-4017D01*
X37720Y-3944D01*
Y-5505D01*
D02*
G37*
G36*
X34700Y-5120D02*
X34725Y-5175D01*
X34764Y-5224D01*
X34819Y-5266D01*
X34888Y-5302D01*
X34973Y-5331D01*
X35073Y-5353D01*
X35188Y-5370D01*
X35319Y-5379D01*
X35464Y-5382D01*
Y-6170D01*
X35322Y-6173D01*
X35196Y-6183D01*
X35085Y-6200D01*
X34989Y-6223D01*
X34907Y-6253D01*
X34841Y-6289D01*
X34790Y-6332D01*
X34754Y-6382D01*
X34733Y-6438D01*
X34727Y-6501D01*
X34691Y-5058D01*
X34700Y-5120D01*
D02*
G37*
G36*
X71350Y24138D02*
X71374Y24071D01*
X71414Y24012D01*
X71470Y23961D01*
X71542Y23917D01*
X71630Y23882D01*
X71733Y23854D01*
X71853Y23835D01*
X71989Y23823D01*
X72141Y23819D01*
Y23031D01*
X71989Y23028D01*
X71853Y23016D01*
X71733Y22996D01*
X71630Y22968D01*
X71542Y22933D01*
X71470Y22890D01*
X71414Y22839D01*
X71374Y22780D01*
X71350Y22713D01*
X71342Y22638D01*
Y24213D01*
X71350Y24138D01*
D02*
G37*
G36*
X74217Y20513D02*
X74228Y20377D01*
X74248Y20257D01*
X74276Y20153D01*
X74311Y20065D01*
X74354Y19993D01*
X74405Y19937D01*
X74465Y19897D01*
X74532Y19873D01*
X74606Y19865D01*
X73032D01*
X73106Y19873D01*
X73173Y19897D01*
X73232Y19937D01*
X73283Y19993D01*
X73327Y20065D01*
X73362Y20153D01*
X73390Y20257D01*
X73409Y20377D01*
X73421Y20513D01*
X73425Y20665D01*
X74213D01*
X74217Y20513D01*
D02*
G37*
G36*
X23622Y11220D02*
Y10828D01*
X23603Y10732D01*
Y8953D01*
X23622Y8857D01*
Y7607D01*
X24438Y6791D01*
X24400Y6407D01*
X24177Y6072D01*
X24098Y5678D01*
Y2811D01*
X20673D01*
X20289Y2734D01*
X19964Y2517D01*
X19795Y2264D01*
X18279D01*
X16704Y689D01*
X13092D01*
X12648Y1132D01*
X12303Y1363D01*
Y3376D01*
X12423Y3666D01*
Y4291D01*
X12303Y4581D01*
Y12992D01*
X21850D01*
X23622Y11220D01*
D02*
G37*
G36*
X13120Y-479D02*
X13700Y-972D01*
X13957Y-1151D01*
X14191Y-1286D01*
X14402Y-1376D01*
X14591Y-1422D01*
X14758Y-1423D01*
X14901Y-1380D01*
X15023Y-1292D01*
X12808Y-3507D01*
X12896Y-3386D01*
X12939Y-3242D01*
X12938Y-3075D01*
X12892Y-2886D01*
X12802Y-2675D01*
X12667Y-2441D01*
X12488Y-2184D01*
X12264Y-1905D01*
X11682Y-1280D01*
X12796Y-166D01*
X13120Y-479D01*
D02*
G37*
G36*
X20289Y-2734D02*
X20673Y-2811D01*
X22130D01*
Y-5678D01*
X22208Y-6072D01*
X22432Y-6407D01*
X22766Y-6630D01*
X23160Y-6709D01*
X24084D01*
X24478Y-6630D01*
X24812Y-6407D01*
X25036Y-6072D01*
X25114Y-5678D01*
Y-2811D01*
X26571D01*
X26862Y-2753D01*
X27198Y-2930D01*
X27362Y-3063D01*
Y-7765D01*
X26862Y-7863D01*
X26840Y-7848D01*
X26382Y-7757D01*
X24799D01*
X24341Y-7848D01*
X24302Y-7874D01*
X23622D01*
Y-8857D01*
X23603Y-8953D01*
Y-10732D01*
X23622Y-10828D01*
Y-12794D01*
X23603Y-12890D01*
Y-13702D01*
X23587Y-13780D01*
X23603Y-13858D01*
Y-14669D01*
X23622Y-14765D01*
Y-15748D01*
X22942D01*
X22903Y-15722D01*
X22445Y-15631D01*
X20862D01*
X20404Y-15722D01*
X20365Y-15748D01*
X19587D01*
Y-13386D01*
X17913Y-11713D01*
X15453D01*
Y-7185D01*
X19587D01*
Y-2731D01*
X20087Y-2599D01*
X20289Y-2734D01*
D02*
G37*
G36*
X26481Y-14559D02*
X26459Y-14591D01*
X26440Y-14625D01*
X26424Y-14661D01*
X26410Y-14697D01*
X26398Y-14735D01*
X26389Y-14773D01*
X26383Y-14813D01*
X26383Y-14817D01*
X26738D01*
X26669Y-14932D01*
X26608Y-15062D01*
X26554Y-15206D01*
X26507Y-15365D01*
X26468Y-15539D01*
X26436Y-15728D01*
X26434Y-15746D01*
X26436Y-15768D01*
X26468Y-15957D01*
X26507Y-16131D01*
X26554Y-16290D01*
X26608Y-16435D01*
X26669Y-16564D01*
X26738Y-16679D01*
X24443D01*
X24512Y-16564D01*
X24573Y-16435D01*
X24627Y-16290D01*
X24674Y-16131D01*
X24713Y-15957D01*
X24746Y-15768D01*
X24747Y-15750D01*
X24746Y-15728D01*
X24713Y-15539D01*
X24674Y-15365D01*
X24627Y-15206D01*
X24573Y-15062D01*
X24512Y-14932D01*
X24443Y-14817D01*
X24798D01*
X24798Y-14813D01*
X24792Y-14773D01*
X24783Y-14735D01*
X24771Y-14697D01*
X24757Y-14661D01*
X24741Y-14625D01*
X24722Y-14591D01*
X24700Y-14559D01*
X24676Y-14527D01*
X26505D01*
X26481Y-14559D01*
D02*
G37*
G36*
X20341Y-21256D02*
X20446Y-21260D01*
Y-22047D01*
X20361Y-22049D01*
X20341Y-22050D01*
Y-22441D01*
X20333Y-22366D01*
X20309Y-22299D01*
X20269Y-22240D01*
X20213Y-22189D01*
X20142Y-22146D01*
X20054Y-22110D01*
X20026Y-22103D01*
X20022Y-22104D01*
X19972Y-22124D01*
X19927Y-22148D01*
X19887Y-22175D01*
X19854Y-22205D01*
Y-22067D01*
X19830Y-22063D01*
X19694Y-22051D01*
X19542Y-22047D01*
Y-21260D01*
X19694Y-21256D01*
X19830Y-21244D01*
X19854Y-21240D01*
Y-21102D01*
X19887Y-21132D01*
X19927Y-21159D01*
X19972Y-21183D01*
X20022Y-21203D01*
X20026Y-21204D01*
X20054Y-21197D01*
X20142Y-21161D01*
X20213Y-21118D01*
X20269Y-21067D01*
X20309Y-21008D01*
X20333Y-20941D01*
X20341Y-20866D01*
Y-21256D01*
D02*
G37*
G36*
X26615Y-20941D02*
X26639Y-21008D01*
X26679Y-21067D01*
X26735Y-21118D01*
X26807Y-21162D01*
X26895Y-21197D01*
X26923Y-21205D01*
X26926Y-21204D01*
X26977Y-21183D01*
X27022Y-21159D01*
X27061Y-21133D01*
X27095Y-21103D01*
X27095Y-21240D01*
X27119Y-21245D01*
X27255Y-21256D01*
X27407Y-21260D01*
Y-22048D01*
X27255Y-22052D01*
X27119Y-22063D01*
X27095Y-22067D01*
X27095Y-22205D01*
X27062Y-22175D01*
X27022Y-22148D01*
X26977Y-22125D01*
X26927Y-22104D01*
X26923Y-22103D01*
X26895Y-22111D01*
X26807Y-22146D01*
X26735Y-22189D01*
X26679Y-22241D01*
X26639Y-22300D01*
X26615Y-22367D01*
X26607Y-22441D01*
Y-22052D01*
X26503Y-22048D01*
X26503Y-21260D01*
X26588Y-21259D01*
X26607Y-21257D01*
Y-20867D01*
X26615Y-20941D01*
D02*
G37*
G36*
X21007Y-22263D02*
X20956Y-22222D01*
X20757Y-22082D01*
X20729Y-22067D01*
X20704Y-22056D01*
X20683Y-22049D01*
X20666Y-22047D01*
Y-21260D01*
X20683Y-21258D01*
X20704Y-21251D01*
X20729Y-21240D01*
X20757Y-21225D01*
X20789Y-21206D01*
X20865Y-21154D01*
X21007Y-21044D01*
Y-22263D01*
D02*
G37*
G36*
X49409Y-13503D02*
X49426Y-13701D01*
X49440Y-13781D01*
X49458Y-13849D01*
X49480Y-13903D01*
X49506Y-13944D01*
X49536Y-13973D01*
X49571Y-13988D01*
X49609Y-13991D01*
X48425Y-14103D01*
X48462Y-14092D01*
X48495Y-14068D01*
X48524Y-14030D01*
X48550Y-13979D01*
X48571Y-13914D01*
X48589Y-13835D01*
X48603Y-13743D01*
X48612Y-13637D01*
X48620Y-13384D01*
X49407D01*
X49409Y-13503D01*
D02*
G37*
G36*
X62518Y-19375D02*
X62452Y-19402D01*
X62394Y-19448D01*
X62344Y-19511D01*
X62301Y-19593D01*
X62267Y-19693D01*
X62239Y-19811D01*
X62220Y-19947D01*
X62209Y-20101D01*
X62205Y-20273D01*
X61417D01*
X61414Y-20101D01*
X61402Y-19947D01*
X61383Y-19811D01*
X61355Y-19693D01*
X61321Y-19593D01*
X61278Y-19511D01*
X61228Y-19448D01*
X61170Y-19402D01*
X61104Y-19375D01*
X61030Y-19366D01*
X62592D01*
X62518Y-19375D01*
D02*
G37*
G36*
X56219D02*
X56153Y-19402D01*
X56095Y-19448D01*
X56045Y-19511D01*
X56002Y-19593D01*
X55967Y-19693D01*
X55940Y-19811D01*
X55921Y-19947D01*
X55909Y-20101D01*
X55905Y-20273D01*
X55118D01*
X55114Y-20101D01*
X55103Y-19947D01*
X55083Y-19811D01*
X55056Y-19693D01*
X55021Y-19593D01*
X54979Y-19511D01*
X54928Y-19448D01*
X54870Y-19402D01*
X54805Y-19375D01*
X54731Y-19366D01*
X56292D01*
X56219Y-19375D01*
D02*
G37*
G36*
X46770D02*
X46704Y-19402D01*
X46646Y-19448D01*
X46596Y-19511D01*
X46553Y-19593D01*
X46519Y-19693D01*
X46492Y-19811D01*
X46472Y-19947D01*
X46461Y-20101D01*
X46457Y-20273D01*
X45669D01*
X45665Y-20101D01*
X45654Y-19947D01*
X45634Y-19811D01*
X45607Y-19693D01*
X45573Y-19593D01*
X45530Y-19511D01*
X45480Y-19448D01*
X45422Y-19402D01*
X45356Y-19375D01*
X45282Y-19366D01*
X46844D01*
X46770Y-19375D01*
D02*
G37*
G36*
X41736Y-20261D02*
X41748Y-20392D01*
X41768Y-20511D01*
X41795Y-20620D01*
X41831Y-20717D01*
X41874Y-20802D01*
X41925Y-20876D01*
X41984Y-20939D01*
X42051Y-20990D01*
X42126Y-21031D01*
X40551D01*
X40626Y-20990D01*
X40693Y-20939D01*
X40752Y-20876D01*
X40803Y-20802D01*
X40846Y-20717D01*
X40882Y-20620D01*
X40909Y-20511D01*
X40929Y-20392D01*
X40941Y-20261D01*
X40945Y-20119D01*
X41732D01*
X41736Y-20261D01*
D02*
G37*
G36*
X55909Y-21220D02*
X55921Y-21357D01*
X55941Y-21477D01*
X55968Y-21581D01*
X56004Y-21669D01*
X56047Y-21741D01*
X56098Y-21797D01*
X56157Y-21836D01*
X56224Y-21860D01*
X56299Y-21867D01*
X54727Y-21886D01*
X54801Y-21877D01*
X54868Y-21851D01*
X54926Y-21810D01*
X54977Y-21753D01*
X55020Y-21679D01*
X55055Y-21589D01*
X55083Y-21483D01*
X55102Y-21361D01*
X55114Y-21222D01*
X55118Y-21068D01*
X55905D01*
X55909Y-21220D01*
D02*
G37*
G36*
X62470Y-21455D02*
X62761Y-21703D01*
X62890Y-21793D01*
X63007Y-21861D01*
X63112Y-21907D01*
X63207Y-21930D01*
X63289Y-21931D01*
X63361Y-21910D01*
X63421Y-21867D01*
X62320Y-22968D01*
X62363Y-22908D01*
X62384Y-22837D01*
X62383Y-22754D01*
X62359Y-22660D01*
X62314Y-22554D01*
X62246Y-22437D01*
X62155Y-22308D01*
X62043Y-22169D01*
X61751Y-21855D01*
X62308Y-21298D01*
X62470Y-21455D01*
D02*
G37*
G36*
X47022Y-21460D02*
X47319Y-21713D01*
X47449Y-21805D01*
X47566Y-21873D01*
X47671Y-21918D01*
X47764Y-21940D01*
X47845Y-21939D01*
X47913Y-21915D01*
X47969Y-21867D01*
X46965Y-23067D01*
X47004Y-23002D01*
X47022Y-22928D01*
X47018Y-22842D01*
X46993Y-22746D01*
X46947Y-22640D01*
X46880Y-22524D01*
X46791Y-22397D01*
X46681Y-22259D01*
X46397Y-21953D01*
X46855Y-21298D01*
X47022Y-21460D01*
D02*
G37*
G36*
X48415Y-24020D02*
X48416Y-24105D01*
X48434Y-24327D01*
X48445Y-24389D01*
X48446Y-24393D01*
X48607D01*
X48570Y-24399D01*
X48538Y-24417D01*
X48509Y-24447D01*
X48484Y-24488D01*
X48478Y-24505D01*
X48493Y-24543D01*
X48513Y-24583D01*
X48536Y-24617D01*
X48447Y-24605D01*
X48446Y-24608D01*
X48432Y-24685D01*
X48423Y-24775D01*
X48415Y-24990D01*
X47628D01*
X47626Y-24877D01*
X47611Y-24685D01*
X47597Y-24608D01*
X47580Y-24542D01*
X47559Y-24488D01*
X47554Y-24481D01*
X47444Y-24465D01*
X47479Y-24435D01*
X47499Y-24413D01*
X47473Y-24399D01*
X47436Y-24393D01*
X47515D01*
X47538Y-24357D01*
X47562Y-24309D01*
X47582Y-24254D01*
X47598Y-24194D01*
X47611Y-24127D01*
X47620Y-24055D01*
X47626Y-23977D01*
X47628Y-23892D01*
X48415Y-24020D01*
D02*
G37*
G36*
X56349Y-24393D02*
X56275Y-24400D01*
X56208Y-24424D01*
X56149Y-24464D01*
X56098Y-24520D01*
X56054Y-24592D01*
X56019Y-24680D01*
X55991Y-24784D01*
X55982Y-24840D01*
X55995Y-24898D01*
X56012Y-24955D01*
X56033Y-25005D01*
X56056Y-25050D01*
X56083Y-25090D01*
X56113Y-25123D01*
X55958Y-25123D01*
X55956Y-25192D01*
X55168D01*
X55167Y-25122D01*
X55011Y-25122D01*
X55041Y-25088D01*
X55067Y-25049D01*
X55091Y-25004D01*
X55111Y-24953D01*
X55129Y-24897D01*
X55142Y-24838D01*
X55133Y-24781D01*
X55106Y-24676D01*
X55071Y-24587D01*
X55027Y-24515D01*
X54977Y-24458D01*
X54918Y-24417D01*
X54851Y-24393D01*
X54777Y-24384D01*
X56349Y-24393D01*
D02*
G37*
G36*
X71911Y-21855D02*
X71753Y-22017D01*
X71506Y-22308D01*
X71416Y-22437D01*
X71348Y-22554D01*
X71302Y-22660D01*
X71279Y-22754D01*
X71277Y-22837D01*
X71298Y-22908D01*
X71342Y-22968D01*
X70240Y-21867D01*
X70300Y-21910D01*
X70372Y-21931D01*
X70455Y-21930D01*
X70549Y-21907D01*
X70655Y-21861D01*
X70772Y-21793D01*
X70900Y-21703D01*
X71040Y-21590D01*
X71354Y-21298D01*
X71911Y-21855D01*
D02*
G37*
D10*
X28642Y15846D02*
X29071Y16276D01*
Y18326D01*
X29528Y18783D01*
Y18996D01*
X67580Y13984D02*
Y16203D01*
X66395Y12799D02*
X67580Y13984D01*
X60131Y12799D02*
X66395D01*
X67580Y16203D02*
X68110Y16732D01*
X73819Y-11024D02*
X75007D01*
X75590Y-11607D01*
Y-12205D02*
Y-11607D01*
X37546Y13733D02*
X37697Y13583D01*
X37546Y13733D02*
Y15603D01*
X36652Y16497D02*
X37546Y15603D01*
X36652Y16497D02*
Y17521D01*
X33366Y13484D02*
X33366Y13484D01*
Y15846D01*
X35138Y19035D02*
X36652Y17521D01*
X35138Y19035D02*
Y19193D01*
X31594Y17972D02*
Y20020D01*
X31008Y11906D02*
Y17385D01*
X31594Y17972D01*
X28839Y22776D02*
X31594Y20020D01*
X31008Y11906D02*
X32579Y10335D01*
X33366Y9449D02*
X35531D01*
X36713Y23130D02*
X36874Y22968D01*
Y21689D02*
X37898Y20665D01*
X44586D01*
X36874Y21689D02*
Y22968D01*
X59116Y11785D02*
X60131Y12799D01*
X55770Y10544D02*
X57870D01*
X59111Y11785D02*
X59116D01*
X57870Y10544D02*
X59111Y11785D01*
X54524Y11790D02*
X55770Y10544D01*
X54524Y11790D02*
Y13919D01*
X55512Y14907D01*
Y22146D01*
X48021Y-23140D02*
X48130Y-23031D01*
X48021Y-24990D02*
Y-23140D01*
X47913Y-25098D02*
X48021Y-24990D01*
X55524Y25685D02*
X55525Y25684D01*
Y23314D02*
X55610Y23228D01*
X55525Y23314D02*
Y25684D01*
X19587Y8071D02*
X19737Y8222D01*
X21654Y9744D02*
Y9843D01*
Y4232D02*
Y9843D01*
X14665Y8563D02*
X15551Y9449D01*
X14665Y3150D02*
Y8563D01*
X15748Y4232D02*
X21654D01*
X23622D01*
X19291Y-21654D02*
X21505D01*
X25443Y-21654D02*
X25443Y-21654D01*
X27657D01*
X27657Y-21654D01*
X49014Y-16533D02*
Y-13384D01*
X47835Y-12205D02*
X49014Y-13384D01*
Y-16533D02*
X49213Y-16732D01*
X45474Y-12205D02*
X47835D01*
X41339Y-16340D02*
X45474Y-12205D01*
X41339Y-22835D02*
Y-16340D01*
X27264Y19193D02*
X27264Y19193D01*
X24902Y19193D02*
X27264D01*
X24902Y15846D02*
X24902Y15846D01*
X24902Y15846D02*
Y19193D01*
X33465Y1969D02*
X33861Y2365D01*
X36021D01*
X36024Y2362D01*
X35464Y-5776D02*
X36516Y-4724D01*
X33692Y-5776D02*
X35464D01*
X36516Y-4724D02*
X40354D01*
X33465Y-6004D02*
X33692Y-5776D01*
X33465Y-6004D02*
Y-1969D01*
X32579Y10236D02*
Y10335D01*
Y10236D02*
X33366Y9449D01*
X35531D02*
X36957Y10874D01*
X40205D02*
X40354Y11024D01*
X36957Y10874D02*
X40205D01*
X73819Y7874D02*
X73819Y7874D01*
Y11024D01*
X44586Y20665D02*
Y23129D01*
X44587Y23130D01*
X44586Y20665D02*
X47247D01*
X48683Y17262D02*
Y19229D01*
X47247Y20665D02*
X48683Y19229D01*
Y17262D02*
X49213Y16732D01*
X52067Y23130D02*
X52755Y23818D01*
Y25684D01*
X52756Y25685D01*
X47343Y-22244D02*
X48130Y-23031D01*
X47244Y-22244D02*
X47343D01*
X48130Y-23130D02*
Y-23031D01*
X46063Y-21063D02*
X47244Y-22244D01*
X46063Y-21063D02*
Y-16732D01*
X55561Y-23179D02*
X55562Y-23180D01*
Y-25684D02*
Y-23180D01*
X55561Y-25685D02*
X55562Y-25684D01*
X55512Y-23031D02*
Y-16732D01*
Y-23031D02*
X55610Y-23130D01*
X73000Y-20209D02*
Y-19488D01*
X73787Y-18701D02*
X73819D01*
X69784Y-23425D02*
X73000Y-20209D01*
Y-19488D02*
X73787Y-18701D01*
X61811Y-21358D02*
Y-16732D01*
Y-21358D02*
X63878Y-23425D01*
X61811Y21358D02*
X63878Y23425D01*
X61811Y16732D02*
Y21358D01*
X69784Y23425D02*
X72933D01*
X73819Y18701D02*
Y22539D01*
X72933Y23425D02*
X73819Y22539D01*
X73819Y11024D02*
X73819Y11024D01*
Y14764D01*
X52067Y22244D02*
X52362Y21949D01*
Y16732D02*
Y21949D01*
X55512Y22146D02*
X55610Y22244D01*
X40354Y-7874D02*
X40455Y-7975D01*
X33465Y5512D02*
X33858Y5906D01*
X40650Y23130D02*
X41043Y22736D01*
D13*
X28642Y15846D02*
D03*
X24705D02*
D03*
X25591Y-17717D02*
D03*
X21654D02*
D03*
Y-13780D02*
D03*
X25591D02*
D03*
X37303Y15846D02*
D03*
X33366D02*
D03*
X40650Y23130D02*
D03*
X44587D02*
D03*
X59547Y-23130D02*
D03*
X55610D02*
D03*
X48130Y23130D02*
D03*
X52067D02*
D03*
X21654Y-9843D02*
D03*
X25591D02*
D03*
Y9843D02*
D03*
X21654D02*
D03*
X21506Y-21654D02*
D03*
X25443D02*
D03*
X52067Y-23130D02*
D03*
X48130D02*
D03*
X59547Y23130D02*
D03*
X55610D02*
D03*
D14*
X27067Y19193D02*
D03*
X35138D02*
D03*
D15*
X25492Y23130D02*
D03*
X28642D02*
D03*
X33563D02*
D03*
X36713D02*
D03*
D16*
X68110Y16732D02*
D03*
X64961Y16732D02*
D03*
X61811D02*
D03*
X58661D02*
D03*
X55512D02*
D03*
X52362D02*
D03*
X49213D02*
D03*
X46063D02*
D03*
X46063Y-16732D02*
D03*
X49213Y-16732D02*
D03*
X52362Y-16732D02*
D03*
X55512D02*
D03*
X58661D02*
D03*
X61811D02*
D03*
X64961Y-16732D02*
D03*
X68110Y-16732D02*
D03*
D17*
X73819Y-11024D02*
D03*
Y-7874D02*
D03*
X73819Y-4724D02*
D03*
Y-1575D02*
D03*
Y1575D02*
D03*
Y4724D02*
D03*
Y7874D02*
D03*
X73819Y11024D02*
D03*
X40354Y11024D02*
D03*
Y7874D02*
D03*
Y4724D02*
D03*
Y1575D02*
D03*
Y-1575D02*
D03*
Y-4724D02*
D03*
X40354Y-7874D02*
D03*
X40354Y-11024D02*
D03*
D18*
X33465Y5512D02*
D03*
Y9449D02*
D03*
X73819Y-18701D02*
D03*
Y-14764D02*
D03*
X33465Y-9941D02*
D03*
Y-6004D02*
D03*
Y1969D02*
D03*
Y-1969D02*
D03*
X73819Y14764D02*
D03*
Y18701D02*
D03*
D19*
X14665Y-3150D02*
D03*
Y3150D02*
D03*
D20*
X69784Y-23425D02*
D03*
X63878D02*
D03*
Y23425D02*
D03*
X69784D02*
D03*
D23*
X15551Y16535D02*
D03*
Y9449D02*
D03*
Y-16535D02*
D03*
Y-9449D02*
D03*
D24*
X41339Y-22835D02*
D03*
X35433D02*
D03*
D37*
X25591Y4232D02*
D03*
X23622D02*
D03*
X21654D02*
D03*
Y-4232D02*
D03*
X23622D02*
D03*
X25591D02*
D03*
D38*
X23622Y0D02*
D03*
D39*
X17067Y8071D02*
X19587D01*
X16476Y8661D02*
X17067Y8071D01*
X21505Y-21654D02*
X21506Y-21654D01*
X15945Y-9843D02*
X21654D01*
X15551Y-9449D02*
X15945Y-9843D01*
X21654Y-13780D02*
Y-9843D01*
X25591Y-17717D02*
Y-13780D01*
X11270Y0D02*
X11516D01*
X14665Y-3150D01*
X48130Y26208D02*
X49966Y28043D01*
X48130Y23130D02*
Y26208D01*
X57587Y28043D02*
X59547Y26083D01*
X49966Y28043D02*
X57587D01*
X59547Y23130D02*
Y26083D01*
D40*
X29724Y-13780D02*
X31693D01*
X27756D02*
X29724D01*
X25591D02*
X27756D01*
D41*
X71260Y14764D02*
D03*
X73228D02*
D03*
Y12795D02*
D03*
X71260D02*
D03*
X73228Y10827D02*
D03*
X71260D02*
D03*
X73228Y8858D02*
D03*
X71260D02*
D03*
X67323Y10827D02*
D03*
Y6890D02*
D03*
X65404Y2756D02*
D03*
X65354Y6890D02*
D03*
Y8858D02*
D03*
X67323D02*
D03*
X69291Y10827D02*
D03*
Y8858D02*
D03*
Y6890D02*
D03*
Y4921D02*
D03*
X69291Y-98D02*
D03*
Y-2067D02*
D03*
Y-4035D02*
D03*
Y-6004D02*
D03*
Y-7972D02*
D03*
Y-11909D02*
D03*
Y-9941D02*
D03*
X67323Y-7972D02*
D03*
Y-6004D02*
D03*
Y-4035D02*
D03*
Y-2067D02*
D03*
Y-98D02*
D03*
X63386D02*
D03*
X65354D02*
D03*
Y-2067D02*
D03*
Y-4035D02*
D03*
Y-6004D02*
D03*
Y-7972D02*
D03*
X65272Y-12405D02*
D03*
X36283Y-89D02*
D03*
X10853Y3979D02*
D03*
X38287Y-20571D02*
D03*
X30413D02*
D03*
X36319D02*
D03*
X34350D02*
D03*
X32382D02*
D03*
Y-18602D02*
D03*
X34350D02*
D03*
X36319D02*
D03*
X28445D02*
D03*
X30413D02*
D03*
X38287D02*
D03*
X30413Y-16634D02*
D03*
X28445D02*
D03*
X36319D02*
D03*
X34350D02*
D03*
X32382D02*
D03*
X38287D02*
D03*
X10827Y-8071D02*
D03*
X6102Y-11713D02*
D03*
X8465D02*
D03*
Y-14764D02*
D03*
X75590Y-12205D02*
D03*
X37697Y13583D02*
D03*
X33366Y13484D02*
D03*
X29528Y18996D02*
D03*
X47913Y-25098D02*
D03*
X55524Y25685D02*
D03*
X19587Y8071D02*
D03*
X39370Y-27559D02*
D03*
X33465D02*
D03*
X35433D02*
D03*
X37402D02*
D03*
X23622D02*
D03*
X25591D02*
D03*
X27559D02*
D03*
X29528D02*
D03*
X31496D02*
D03*
X3937D02*
D03*
X5906D02*
D03*
X7874D02*
D03*
X9843D02*
D03*
X11811D02*
D03*
X13780D02*
D03*
X15748D02*
D03*
X17717D02*
D03*
X19685D02*
D03*
X21654D02*
D03*
X1969Y-5905D02*
D03*
Y-7874D02*
D03*
Y-9843D02*
D03*
Y-11811D02*
D03*
Y-13780D02*
D03*
Y-15748D02*
D03*
Y-17717D02*
D03*
Y-19685D02*
D03*
Y-21654D02*
D03*
Y-23622D02*
D03*
Y-25591D02*
D03*
X6102Y-14764D02*
D03*
X10728D02*
D03*
X1969Y-27559D02*
D03*
X10827Y-11713D02*
D03*
Y-4331D02*
D03*
X19291Y-21654D02*
D03*
X27657D02*
D03*
X27756Y-13780D02*
D03*
X29724D02*
D03*
X31693D02*
D03*
X11270Y0D02*
D03*
X24902Y19193D02*
D03*
X36024Y2362D02*
D03*
X52756Y25685D02*
D03*
X55561Y-25685D02*
D03*
M02*
