M48
;Layer_Color=9474304
;FILE_FORMAT=2:5
INCH,LZ
;TYPE=PLATED
T1F00S00C0.00787
%
T01
X0001969Y-0027559
X0003937
X0005906
X0007874
X0009843
X0011811
X001378
X0015748
X0017717
X0019685
X0021654
X0023622
X0025591
X0027559
X0029528
X0031496
X0033465
X0035433
X0037402
X003937
X0038287Y-0020571
X0036319
Y-0018602
X0038287
Y-0016634
X0036319
X003435
Y-0018602
Y-0020571
X0032382
Y-0018602
Y-0016634
X0030413
Y-0018602
Y-0020571
X0027657Y-0021654
X0028445Y-0018602
Y-0016634
X0027756Y-001378
X0029724
X0031693
X0036283Y-0000089
X0036024Y0002362
X0037697Y0013583
X0033366Y0013484
X0029528Y0018996
X0024902Y0019193
X0019587Y0008071
X0010853Y0003979
X001127Y0
X0010827Y-0004331
Y-0008071
Y-0011713
X0008465
X0006102
Y-0014764
X0008465
X0010728
X0001969Y-0015748
Y-001378
Y-0011811
Y-0009843
Y-0007874
Y-0005905
Y-0017717
Y-0019685
Y-0021654
Y-0023622
Y-0025591
X0019291Y-0021654
X0047913Y-0025098
X0055561Y-0025685
X0065272Y-0012405
X0069291Y-0011909
Y-0009941
Y-0007972
Y-0006004
Y-0004035
Y-0002067
Y-0000098
X0067323
Y-0002067
Y-0004035
Y-0006004
Y-0007972
X0065354
Y-0006004
Y-0004035
Y-0002067
Y-0000098
X0063386
X0065404Y0002756
X0065354Y000689
X0067323
Y0008858
Y0010827
X0069291
X007126
Y0012795
Y0014764
X0073228
Y0012795
Y0010827
Y0008858
X007126
X0069291
Y000689
Y0004921
X0065354Y0008858
X0055524Y0025685
X0052756
X007559Y-0012205
M30
