G04*
G04 #@! TF.GenerationSoftware,Altium Limited,Altium Designer,21.8.1 (53)*
G04*
G04 Layer_Physical_Order=2*
G04 Layer_Color=36540*
%FSLAX25Y25*%
%MOIN*%
G70*
G04*
G04 #@! TF.SameCoordinates,FA860FD0-AEA4-4FFE-92F8-4FAB6C871CC1*
G04*
G04*
G04 #@! TF.FilePolarity,Positive*
G04*
G01*
G75*
%ADD10C,0.00787*%
%ADD39C,0.01575*%
%ADD41C,0.01575*%
G36*
X53226Y25049D02*
X53224Y25033D01*
X53222Y25008D01*
X53216Y24814D01*
X53215Y24573D01*
X52427Y24541D01*
X52427Y24622D01*
X52406Y24963D01*
X52400Y24978D01*
X52393Y24986D01*
X53229Y25055D01*
X53226Y25049D01*
D02*
G37*
G36*
X51197Y26026D02*
X51185Y25997D01*
Y25373D01*
X51424Y24795D01*
X51621Y24599D01*
Y24541D01*
X51712Y24082D01*
X51972Y23693D01*
X53515Y22150D01*
X53904Y21890D01*
X54364Y21798D01*
X56454D01*
X56914Y21890D01*
X57303Y22150D01*
X58337Y23184D01*
X58597Y23573D01*
X58688Y24032D01*
Y25487D01*
X59560Y26359D01*
X73121D01*
X75178Y24302D01*
Y5332D01*
X73802Y3956D01*
X66425D01*
X66425Y3956D01*
X66294Y4088D01*
X65716Y4327D01*
X65091D01*
X64514Y4088D01*
X64072Y3646D01*
X63833Y3068D01*
Y2443D01*
X64072Y1866D01*
X64514Y1424D01*
X65091Y1185D01*
X65716D01*
X66294Y1424D01*
X66424Y1555D01*
X66432Y1556D01*
X74299D01*
X74758Y1647D01*
X75148Y1907D01*
X77227Y3986D01*
X77241Y4007D01*
X77741Y3855D01*
Y-28528D01*
X58045D01*
X57838Y-28028D01*
X59568Y-26299D01*
X67485D01*
X67945Y-26207D01*
X68334Y-25947D01*
X76439Y-17842D01*
X76699Y-17453D01*
X76791Y-16993D01*
Y-13226D01*
X76791Y-13226D01*
X76922Y-13094D01*
X77161Y-12517D01*
Y-11892D01*
X76922Y-11315D01*
X76480Y-10873D01*
X75903Y-10634D01*
X75278D01*
X74701Y-10873D01*
X74259Y-11315D01*
X74020Y-11892D01*
Y-12517D01*
X74259Y-13094D01*
X74390Y-13225D01*
X74390Y-13233D01*
Y-16496D01*
X66988Y-23898D01*
X59752D01*
X59545Y-23398D01*
X66120Y-16823D01*
X66381Y-16434D01*
X66472Y-15974D01*
Y-13427D01*
X66472Y-13427D01*
X66603Y-13295D01*
X66843Y-12718D01*
Y-12093D01*
X66603Y-11516D01*
X66162Y-11074D01*
X65584Y-10835D01*
X64959D01*
X64382Y-11074D01*
X63940Y-11516D01*
X63701Y-12093D01*
Y-12718D01*
X63940Y-13295D01*
X64071Y-13426D01*
X64071Y-13434D01*
Y-15477D01*
X55435Y-24114D01*
X55435Y-24114D01*
X55249D01*
X54671Y-24353D01*
X54229Y-24795D01*
X54052Y-25223D01*
X53528Y-25407D01*
X50407Y-22285D01*
X50017Y-22025D01*
X49558Y-21934D01*
X47099D01*
X46640Y-22025D01*
X46251Y-22285D01*
X46216Y-22320D01*
X37697D01*
X37697Y-22320D01*
X30021D01*
X29228Y-21527D01*
X29228Y-21527D01*
Y-21341D01*
X28989Y-20764D01*
X28547Y-20322D01*
X27970Y-20083D01*
X27345D01*
X26768Y-20322D01*
X26326Y-20764D01*
X26087Y-21341D01*
Y-21966D01*
X26326Y-22543D01*
X26768Y-22985D01*
X27043Y-23099D01*
X26943Y-23599D01*
X24388D01*
X23251Y-22463D01*
Y-20370D01*
X23129Y-19757D01*
X22782Y-19238D01*
X21188Y-17644D01*
Y8071D01*
Y23943D01*
X23687Y26442D01*
X50919D01*
X51197Y26026D01*
D02*
G37*
G36*
X10290Y3427D02*
X10257Y3457D01*
X10217Y3484D01*
X10172Y3508D01*
X10121Y3528D01*
X10065Y3545D01*
X10003Y3560D01*
X9935Y3571D01*
X9862Y3579D01*
X9698Y3585D01*
X9698Y4372D01*
X9783Y4374D01*
X9935Y4386D01*
X10003Y4397D01*
X10065Y4412D01*
X10121Y4429D01*
X10172Y4449D01*
X10217Y4473D01*
X10257Y4500D01*
X10290Y4530D01*
X10290Y3427D01*
D02*
G37*
G36*
X20781Y28066D02*
X18454Y25739D01*
X18107Y25219D01*
X17985Y24606D01*
Y8071D01*
Y-18307D01*
X18107Y-18920D01*
X18454Y-19440D01*
X18680Y-19665D01*
X18563Y-20255D01*
X18402Y-20322D01*
X18270Y-20453D01*
X18262Y-20454D01*
X5952D01*
X5338Y-19840D01*
Y-754D01*
X8871Y2778D01*
X9831D01*
X9831Y2778D01*
X9963Y2647D01*
X10540Y2408D01*
X11165D01*
X11743Y2647D01*
X12184Y3089D01*
X12423Y3666D01*
Y4291D01*
X12184Y4868D01*
X11743Y5310D01*
X11165Y5549D01*
X10540D01*
X9963Y5310D01*
X9832Y5179D01*
X9824Y5179D01*
X8374D01*
X7914Y5087D01*
X7525Y4827D01*
X3289Y591D01*
X3029Y202D01*
X2938Y-257D01*
Y-20337D01*
X3029Y-20796D01*
X3289Y-21185D01*
X4606Y-22503D01*
X4996Y-22763D01*
X5455Y-22854D01*
X18270D01*
X18271Y-22854D01*
X18402Y-22985D01*
X18979Y-23224D01*
X19604D01*
X20132Y-23547D01*
X20170Y-23739D01*
X20517Y-24259D01*
X22592Y-26333D01*
X23112Y-26680D01*
X23724Y-26803D01*
X38393D01*
X38394Y-26802D01*
X39684D01*
X39998Y-27117D01*
X40518Y-27464D01*
X41131Y-27586D01*
X47027D01*
X47640Y-27464D01*
X48160Y-27117D01*
X49045Y-26231D01*
X49133Y-26100D01*
X49245Y-25988D01*
X49305Y-25842D01*
X49393Y-25711D01*
X49423Y-25557D01*
X49484Y-25411D01*
X49962Y-25264D01*
X49991Y-25264D01*
X52755Y-28028D01*
X52548Y-28528D01*
X803D01*
Y28528D01*
X20590D01*
X20781Y28066D01*
D02*
G37*
G36*
X66000Y3277D02*
X66039Y3250D01*
X66084Y3227D01*
X66135Y3206D01*
X66191Y3189D01*
X66253Y3175D01*
X66321Y3164D01*
X66394Y3156D01*
X66558Y3150D01*
Y2362D01*
X66473Y2361D01*
X66321Y2348D01*
X66253Y2337D01*
X66191Y2323D01*
X66135Y2306D01*
X66084Y2285D01*
X66039Y2261D01*
X66000Y2235D01*
X65966Y2205D01*
Y3307D01*
X66000Y3277D01*
D02*
G37*
G36*
X76112Y-12801D02*
X76085Y-12840D01*
X76061Y-12885D01*
X76041Y-12936D01*
X76024Y-12992D01*
X76010Y-13054D01*
X75998Y-13122D01*
X75990Y-13195D01*
X75984Y-13359D01*
X75197D01*
X75195Y-13274D01*
X75183Y-13122D01*
X75172Y-13054D01*
X75157Y-12992D01*
X75140Y-12936D01*
X75120Y-12885D01*
X75096Y-12840D01*
X75069Y-12801D01*
X75039Y-12767D01*
X76142D01*
X76112Y-12801D01*
D02*
G37*
G36*
X65793Y-13002D02*
X65766Y-13041D01*
X65742Y-13086D01*
X65722Y-13137D01*
X65705Y-13193D01*
X65690Y-13255D01*
X65680Y-13323D01*
X65672Y-13396D01*
X65665Y-13560D01*
X64878D01*
X64876Y-13475D01*
X64864Y-13323D01*
X64853Y-13255D01*
X64839Y-13193D01*
X64821Y-13137D01*
X64801Y-13086D01*
X64777Y-13041D01*
X64750Y-13002D01*
X64720Y-12968D01*
X65823D01*
X65793Y-13002D01*
D02*
G37*
G36*
X18729Y-22205D02*
X18696Y-22175D01*
X18656Y-22149D01*
X18611Y-22125D01*
X18561Y-22104D01*
X18504Y-22087D01*
X18442Y-22073D01*
X18374Y-22062D01*
X18301Y-22054D01*
X18137Y-22048D01*
X18137Y-21260D01*
X18221Y-21259D01*
X18374Y-21246D01*
X18441Y-21235D01*
X18504Y-21221D01*
X18560Y-21204D01*
X18610Y-21183D01*
X18656Y-21159D01*
X18695Y-21133D01*
X18729Y-21103D01*
X18729Y-22205D01*
D02*
G37*
G36*
X28447Y-21706D02*
X28456Y-21753D01*
X28472Y-21802D01*
X28493Y-21852D01*
X28521Y-21904D01*
X28554Y-21958D01*
X28594Y-22014D01*
X28641Y-22071D01*
X28752Y-22191D01*
X28195Y-22748D01*
X28134Y-22689D01*
X28018Y-22591D01*
X27962Y-22550D01*
X27908Y-22517D01*
X27856Y-22489D01*
X27806Y-22468D01*
X27757Y-22453D01*
X27710Y-22444D01*
X27665Y-22441D01*
X28445Y-21661D01*
X28447Y-21706D01*
D02*
G37*
G36*
X56656Y-25147D02*
X56597Y-25208D01*
X56498Y-25325D01*
X56458Y-25381D01*
X56424Y-25434D01*
X56397Y-25486D01*
X56375Y-25537D01*
X56360Y-25585D01*
X56351Y-25632D01*
X56348Y-25677D01*
X55569Y-24898D01*
X55614Y-24895D01*
X55661Y-24886D01*
X55709Y-24871D01*
X55760Y-24850D01*
X55812Y-24822D01*
X55866Y-24788D01*
X55921Y-24748D01*
X55979Y-24702D01*
X56099Y-24590D01*
X56656Y-25147D01*
D02*
G37*
%LPC*%
G36*
X29840Y20567D02*
X29215D01*
X28638Y20328D01*
X28196Y19886D01*
X27957Y19308D01*
Y18684D01*
X28196Y18106D01*
X28638Y17664D01*
X29215Y17425D01*
X29840D01*
X30417Y17664D01*
X30859Y18106D01*
X31098Y18684D01*
Y19308D01*
X30859Y19886D01*
X30417Y20328D01*
X29840Y20567D01*
D02*
G37*
G36*
X38009Y15154D02*
X37384D01*
X36807Y14914D01*
X36365Y14472D01*
X36126Y13895D01*
Y13270D01*
X36365Y12693D01*
X36807Y12251D01*
X37384Y12012D01*
X38009D01*
X38587Y12251D01*
X39029Y12693D01*
X39268Y13270D01*
Y13895D01*
X39029Y14472D01*
X38587Y14914D01*
X38009Y15154D01*
D02*
G37*
G36*
X33679Y15055D02*
X33054D01*
X32476Y14816D01*
X32034Y14374D01*
X31795Y13797D01*
Y13172D01*
X32034Y12594D01*
X32476Y12152D01*
X33054Y11913D01*
X33679D01*
X34256Y12152D01*
X34698Y12594D01*
X34937Y13172D01*
Y13797D01*
X34698Y14374D01*
X34256Y14816D01*
X33679Y15055D01*
D02*
G37*
G36*
X25214Y20764D02*
X24589D01*
X24012Y20525D01*
X23570Y20083D01*
X23331Y19505D01*
Y18880D01*
X23570Y18303D01*
X23701Y18172D01*
X23701Y18165D01*
Y10039D01*
X23793Y9580D01*
X24053Y9191D01*
X34203Y-959D01*
X34592Y-1220D01*
X35052Y-1311D01*
X35283D01*
X35393Y-1420D01*
X35970Y-1660D01*
X36595D01*
X37173Y-1420D01*
X37615Y-979D01*
X37854Y-401D01*
Y224D01*
X37615Y801D01*
X37496Y919D01*
X37355Y1472D01*
X37595Y2050D01*
Y2675D01*
X37355Y3252D01*
X36913Y3694D01*
X36336Y3933D01*
X35711D01*
X35134Y3694D01*
X34692Y3252D01*
X34517Y2829D01*
X33991Y2647D01*
X26102Y10537D01*
Y18171D01*
X26102Y18172D01*
X26233Y18303D01*
X26472Y18880D01*
Y19505D01*
X26233Y20083D01*
X25791Y20525D01*
X25214Y20764D01*
D02*
G37*
G36*
X32005Y-12209D02*
X31381D01*
X30803Y-12448D01*
X30709Y-12542D01*
X30614Y-12448D01*
X30037Y-12209D01*
X29412D01*
X28835Y-12448D01*
X28740Y-12542D01*
X28646Y-12448D01*
X28068Y-12209D01*
X27444D01*
X26866Y-12448D01*
X26424Y-12890D01*
X26185Y-13467D01*
Y-14092D01*
X26424Y-14669D01*
X26866Y-15111D01*
X27444Y-15350D01*
X28068D01*
X28646Y-15111D01*
X28740Y-15017D01*
X28835Y-15111D01*
X29412Y-15350D01*
X30037D01*
X30614Y-15111D01*
X30709Y-15017D01*
X30803Y-15111D01*
X31381Y-15350D01*
X32005D01*
X32583Y-15111D01*
X33025Y-14669D01*
X33264Y-14092D01*
Y-13467D01*
X33025Y-12890D01*
X32583Y-12448D01*
X32005Y-12209D01*
D02*
G37*
%LPD*%
G36*
X25423Y18597D02*
X25396Y18557D01*
X25372Y18512D01*
X25352Y18462D01*
X25335Y18405D01*
X25321Y18343D01*
X25309Y18276D01*
X25302Y18202D01*
X25295Y18039D01*
X24508D01*
X24506Y18123D01*
X24494Y18276D01*
X24483Y18343D01*
X24468Y18405D01*
X24451Y18462D01*
X24431Y18512D01*
X24407Y18557D01*
X24380Y18597D01*
X24350Y18631D01*
X25453D01*
X25423Y18597D01*
D02*
G37*
G36*
X35704Y-623D02*
X35679Y-601D01*
X35647Y-580D01*
X35608Y-563D01*
X35562Y-547D01*
X35509Y-534D01*
X35449Y-523D01*
X35383Y-515D01*
X35229Y-506D01*
X35142Y-504D01*
X35116Y283D01*
X35203Y284D01*
X35357Y295D01*
X35423Y304D01*
X35482Y315D01*
X35535Y330D01*
X35580Y346D01*
X35619Y366D01*
X35651Y388D01*
X35675Y412D01*
X35704Y-623D01*
D02*
G37*
%LPC*%
G36*
X11582Y1571D02*
X10957D01*
X10380Y1332D01*
X9938Y890D01*
X9699Y313D01*
Y-313D01*
X9938Y-890D01*
X10380Y-1332D01*
X10957Y-1571D01*
X11582D01*
X12160Y-1332D01*
X12601Y-890D01*
X12841Y-313D01*
Y313D01*
X12601Y890D01*
X12160Y1332D01*
X11582Y1571D01*
D02*
G37*
%LPD*%
D10*
X74299Y2756D02*
X76378Y4835D01*
X65404Y2756D02*
X74299D01*
X52756Y25685D02*
X52821Y25620D01*
Y24541D02*
X54364Y22999D01*
X52821Y24541D02*
Y25620D01*
X57488Y25984D02*
X59063Y27559D01*
X73618D01*
X76378Y24799D01*
Y4835D02*
Y24799D01*
X57488Y24032D02*
Y25984D01*
X54364Y22999D02*
X56454D01*
X57488Y24032D01*
X65272Y-15974D02*
Y-12457D01*
X55561Y-25685D02*
X65272Y-15974D01*
X35052Y-111D02*
X36261D01*
X36283Y-89D01*
X24902Y10039D02*
X35052Y-111D01*
X4138Y-20337D02*
X5455Y-21654D01*
X19291D01*
X4138Y-257D02*
X8374Y3979D01*
X4138Y-20337D02*
Y-257D01*
X8374Y3979D02*
X10853D01*
X46713Y-23520D02*
X47099Y-23134D01*
X37697Y-23520D02*
X46713D01*
X37697Y-23520D02*
X37697Y-23520D01*
X27657Y-21654D02*
X29524Y-23520D01*
X37697D01*
X54074Y-27650D02*
X56519D01*
X47099Y-23134D02*
X49558D01*
X54074Y-27650D01*
X56519D02*
X59070Y-25098D01*
X67485D01*
X75590Y-16993D01*
Y-12205D01*
X24902Y10039D02*
Y19193D01*
D39*
X23724Y-25201D02*
X38393D01*
X38393Y-25201D01*
X21650Y-23126D02*
X23724Y-25201D01*
X47027Y-25984D02*
X47913Y-25098D01*
X41131Y-25984D02*
X47027D01*
X38393Y-25201D02*
X40347D01*
X41131Y-25984D01*
X21650Y-23126D02*
Y-20370D01*
X19587Y-18307D02*
X21650Y-20370D01*
X19587Y-18307D02*
Y8071D01*
Y24606D02*
X23024Y28043D01*
X54424D01*
X19587Y8071D02*
Y24606D01*
X55524Y25685D02*
Y26943D01*
X54424Y28043D02*
X55524Y26943D01*
D41*
X71260Y14764D02*
D03*
X73228D02*
D03*
Y12795D02*
D03*
X71260D02*
D03*
X73228Y10827D02*
D03*
X71260D02*
D03*
X73228Y8858D02*
D03*
X71260D02*
D03*
X67323Y10827D02*
D03*
Y6890D02*
D03*
X65404Y2756D02*
D03*
X65354Y6890D02*
D03*
Y8858D02*
D03*
X67323D02*
D03*
X69291Y10827D02*
D03*
Y8858D02*
D03*
Y6890D02*
D03*
Y4921D02*
D03*
X69291Y-98D02*
D03*
Y-2067D02*
D03*
Y-4035D02*
D03*
Y-6004D02*
D03*
Y-7972D02*
D03*
Y-11909D02*
D03*
Y-9941D02*
D03*
X67323Y-7972D02*
D03*
Y-6004D02*
D03*
Y-4035D02*
D03*
Y-2067D02*
D03*
Y-98D02*
D03*
X63386D02*
D03*
X65354D02*
D03*
Y-2067D02*
D03*
Y-4035D02*
D03*
Y-6004D02*
D03*
Y-7972D02*
D03*
X65272Y-12405D02*
D03*
X36283Y-89D02*
D03*
X10853Y3979D02*
D03*
X38287Y-20571D02*
D03*
X30413D02*
D03*
X36319D02*
D03*
X34350D02*
D03*
X32382D02*
D03*
Y-18602D02*
D03*
X34350D02*
D03*
X36319D02*
D03*
X28445D02*
D03*
X30413D02*
D03*
X38287D02*
D03*
X30413Y-16634D02*
D03*
X28445D02*
D03*
X36319D02*
D03*
X34350D02*
D03*
X32382D02*
D03*
X38287D02*
D03*
X10827Y-8071D02*
D03*
X6102Y-11713D02*
D03*
X8465D02*
D03*
Y-14764D02*
D03*
X75590Y-12205D02*
D03*
X47913Y-25098D02*
D03*
X55524Y25685D02*
D03*
X19587Y8071D02*
D03*
X39370Y-27559D02*
D03*
X33465D02*
D03*
X35433D02*
D03*
X37402D02*
D03*
X23622D02*
D03*
X25591D02*
D03*
X27559D02*
D03*
X29528D02*
D03*
X31496D02*
D03*
X3937D02*
D03*
X5906D02*
D03*
X7874D02*
D03*
X9843D02*
D03*
X11811D02*
D03*
X13780D02*
D03*
X15748D02*
D03*
X17717D02*
D03*
X19685D02*
D03*
X21654D02*
D03*
X1969Y-5905D02*
D03*
Y-7874D02*
D03*
Y-9843D02*
D03*
Y-11811D02*
D03*
Y-13780D02*
D03*
Y-15748D02*
D03*
Y-17717D02*
D03*
Y-19685D02*
D03*
Y-21654D02*
D03*
Y-23622D02*
D03*
Y-25591D02*
D03*
X6102Y-14764D02*
D03*
X10728D02*
D03*
X1969Y-27559D02*
D03*
X10827Y-11713D02*
D03*
Y-4331D02*
D03*
X19291Y-21654D02*
D03*
X27657D02*
D03*
X24902Y19193D02*
D03*
X52756Y25685D02*
D03*
X55561Y-25685D02*
D03*
M02*
