G04*
G04 #@! TF.GenerationSoftware,Altium Limited,Altium Designer,21.8.1 (53)*
G04*
G04 Layer_Color=16711935*
%FSLAX25Y25*%
%MOIN*%
G70*
G04*
G04 #@! TF.SameCoordinates,FA860FD0-AEA4-4FFE-92F8-4FAB6C871CC1*
G04*
G04*
G04 #@! TF.FilePolarity,Negative*
G04*
G01*
G75*
G04:AMPARAMS|DCode=30|XSize=27.56mil|YSize=29.53mil|CornerRadius=5.87mil|HoleSize=0mil|Usage=FLASHONLY|Rotation=270.000|XOffset=0mil|YOffset=0mil|HoleType=Round|Shape=RoundedRectangle|*
%AMROUNDEDRECTD30*
21,1,0.02756,0.01780,0,0,270.0*
21,1,0.01583,0.02953,0,0,270.0*
1,1,0.01173,-0.00890,-0.00791*
1,1,0.01173,-0.00890,0.00791*
1,1,0.01173,0.00890,0.00791*
1,1,0.01173,0.00890,-0.00791*
%
%ADD30ROUNDEDRECTD30*%
G04:AMPARAMS|DCode=47|XSize=23.62mil|YSize=17.72mil|CornerRadius=3.97mil|HoleSize=0mil|Usage=FLASHONLY|Rotation=180.000|XOffset=0mil|YOffset=0mil|HoleType=Round|Shape=RoundedRectangle|*
%AMROUNDEDRECTD47*
21,1,0.02362,0.00978,0,0,180.0*
21,1,0.01569,0.01772,0,0,180.0*
1,1,0.00793,-0.00784,0.00489*
1,1,0.00793,0.00784,0.00489*
1,1,0.00793,0.00784,-0.00489*
1,1,0.00793,-0.00784,-0.00489*
%
%ADD47ROUNDEDRECTD47*%
G04:AMPARAMS|DCode=48|XSize=23.62mil|YSize=19.68mil|CornerRadius=4.25mil|HoleSize=0mil|Usage=FLASHONLY|Rotation=180.000|XOffset=0mil|YOffset=0mil|HoleType=Round|Shape=RoundedRectangle|*
%AMROUNDEDRECTD48*
21,1,0.02362,0.01118,0,0,180.0*
21,1,0.01512,0.01968,0,0,180.0*
1,1,0.00850,-0.00756,0.00559*
1,1,0.00850,0.00756,0.00559*
1,1,0.00850,0.00756,-0.00559*
1,1,0.00850,-0.00756,-0.00559*
%
%ADD48ROUNDEDRECTD48*%
G04:AMPARAMS|DCode=49|XSize=82.68mil|YSize=62.99mil|CornerRadius=9.35mil|HoleSize=0mil|Usage=FLASHONLY|Rotation=0.000|XOffset=0mil|YOffset=0mil|HoleType=Round|Shape=RoundedRectangle|*
%AMROUNDEDRECTD49*
21,1,0.08268,0.04429,0,0,0.0*
21,1,0.06398,0.06299,0,0,0.0*
1,1,0.01870,0.03199,-0.02215*
1,1,0.01870,-0.03199,-0.02215*
1,1,0.01870,-0.03199,0.02215*
1,1,0.01870,0.03199,0.02215*
%
%ADD49ROUNDEDRECTD49*%
G04:AMPARAMS|DCode=50|XSize=161.42mil|YSize=102.36mil|CornerRadius=14.27mil|HoleSize=0mil|Usage=FLASHONLY|Rotation=0.000|XOffset=0mil|YOffset=0mil|HoleType=Round|Shape=RoundedRectangle|*
%AMROUNDEDRECTD50*
21,1,0.16142,0.07382,0,0,0.0*
21,1,0.13287,0.10236,0,0,0.0*
1,1,0.02854,0.06644,-0.03691*
1,1,0.02854,-0.06644,-0.03691*
1,1,0.02854,-0.06644,0.03691*
1,1,0.02854,0.06644,0.03691*
%
%ADD50ROUNDEDRECTD50*%
G04:AMPARAMS|DCode=51|XSize=161.42mil|YSize=122.05mil|CornerRadius=16.73mil|HoleSize=0mil|Usage=FLASHONLY|Rotation=180.000|XOffset=0mil|YOffset=0mil|HoleType=Round|Shape=RoundedRectangle|*
%AMROUNDEDRECTD51*
21,1,0.16142,0.08858,0,0,180.0*
21,1,0.12795,0.12205,0,0,180.0*
1,1,0.03347,-0.06398,0.04429*
1,1,0.03347,0.06398,0.04429*
1,1,0.03347,0.06398,-0.04429*
1,1,0.03347,-0.06398,-0.04429*
%
%ADD51ROUNDEDRECTD51*%
G36*
X62067Y14095D02*
X62106Y14092D01*
X62143Y14080D01*
X62177Y14062D01*
X62207Y14038D01*
X62231Y14007D01*
X62250Y13973D01*
X62261Y13936D01*
X62265Y13898D01*
Y12599D01*
X63701Y12599D01*
X63739Y12596D01*
X63776Y12584D01*
X63811Y12566D01*
X63841Y12541D01*
X63865Y12512D01*
X63884Y12477D01*
X63895Y12440D01*
X63899Y12402D01*
X63899Y2756D01*
X63895Y2717D01*
X63884Y2680D01*
X63865Y2646D01*
X63841Y2616D01*
X63811Y2591D01*
X63776Y2573D01*
X63739Y2562D01*
X63701Y2558D01*
X62265Y2558D01*
X62265Y1260D01*
X62261Y1221D01*
X62250Y1184D01*
X62231Y1150D01*
X62207Y1120D01*
X62177Y1095D01*
X62143Y1077D01*
X62106Y1066D01*
X62067Y1062D01*
X60374Y1062D01*
X60335Y1066D01*
X60298Y1077D01*
X60264Y1095D01*
X60234Y1120D01*
X60210Y1150D01*
X60191Y1184D01*
X60180Y1221D01*
X60176Y1260D01*
Y2558D01*
X55905D01*
X55867Y2562D01*
X55830Y2573D01*
X55796Y2591D01*
X55766Y2616D01*
X55741Y2646D01*
X55723Y2680D01*
X55712Y2717D01*
X55708Y2756D01*
X55708Y12402D01*
X55712Y12440D01*
X55723Y12477D01*
X55741Y12512D01*
X55766Y12541D01*
X55796Y12566D01*
X55830Y12584D01*
X55867Y12596D01*
X55905Y12599D01*
X60176Y12599D01*
Y13898D01*
X60180Y13936D01*
X60191Y13973D01*
X60210Y14007D01*
X60234Y14038D01*
X60264Y14062D01*
X60298Y14080D01*
X60335Y14092D01*
X60374Y14095D01*
X62067Y14095D01*
D02*
G37*
G36*
X43208Y14092D02*
X43245Y14080D01*
X43279Y14062D01*
X43309Y14038D01*
X43334Y14007D01*
X43352Y13973D01*
X43363Y13936D01*
X43367Y13898D01*
Y12599D01*
X47638D01*
X47676Y12596D01*
X47714Y12584D01*
X47748Y12566D01*
X47778Y12541D01*
X47802Y12512D01*
X47820Y12477D01*
X47832Y12440D01*
X47836Y12402D01*
Y2756D01*
X47832Y2717D01*
X47820Y2680D01*
X47802Y2646D01*
X47778Y2616D01*
X47748Y2591D01*
X47714Y2573D01*
X47676Y2562D01*
X47638Y2558D01*
X43367D01*
Y1260D01*
X43363Y1221D01*
X43352Y1184D01*
X43334Y1150D01*
X43309Y1120D01*
X43279Y1095D01*
X43245Y1077D01*
X43208Y1066D01*
X43169Y1062D01*
X41476D01*
X41438Y1066D01*
X41401Y1077D01*
X41366Y1095D01*
X41337Y1120D01*
X41312Y1150D01*
X41294Y1184D01*
X41282Y1221D01*
X41279Y1260D01*
X41279Y2558D01*
X39843Y2558D01*
X39804Y2562D01*
X39767Y2573D01*
X39733Y2591D01*
X39703Y2616D01*
X39678Y2646D01*
X39660Y2680D01*
X39649Y2717D01*
X39645Y2756D01*
X39645Y12402D01*
X39649Y12440D01*
X39660Y12477D01*
X39678Y12512D01*
X39703Y12541D01*
X39733Y12566D01*
X39767Y12584D01*
X39804Y12596D01*
X39843Y12599D01*
X41279D01*
Y13898D01*
X41282Y13936D01*
X41294Y13973D01*
X41312Y14007D01*
X41337Y14038D01*
X41366Y14062D01*
X41401Y14080D01*
X41438Y14092D01*
X41476Y14095D01*
X43169Y14095D01*
X43208Y14092D01*
D02*
G37*
G36*
X22539Y6513D02*
X22576Y6502D01*
X22610Y6483D01*
X22640Y6459D01*
X22664Y6429D01*
X22683Y6395D01*
X22694Y6357D01*
X22698Y6319D01*
Y5021D01*
X24134D01*
X24172Y5017D01*
X24209Y5006D01*
X24244Y4987D01*
X24274Y4963D01*
X24298Y4933D01*
X24317Y4899D01*
X24328Y4861D01*
X24332Y4823D01*
X24332Y-4823D01*
X24328Y-4861D01*
X24317Y-4899D01*
X24298Y-4933D01*
X24274Y-4963D01*
X24244Y-4987D01*
X24210Y-5006D01*
X24172Y-5017D01*
X24134Y-5021D01*
X22698Y-5021D01*
Y-6319D01*
X22694Y-6357D01*
X22683Y-6395D01*
X22664Y-6429D01*
X22640Y-6459D01*
X22610Y-6483D01*
X22576Y-6502D01*
X22539Y-6513D01*
X22500Y-6517D01*
X20807D01*
X20768Y-6513D01*
X20731Y-6502D01*
X20697Y-6483D01*
X20667Y-6459D01*
X20643Y-6429D01*
X20624Y-6395D01*
X20613Y-6357D01*
X20609Y-6319D01*
Y-5021D01*
X16339D01*
X16300Y-5017D01*
X16263Y-5006D01*
X16229Y-4987D01*
X16199Y-4963D01*
X16174Y-4933D01*
X16156Y-4899D01*
X16145Y-4861D01*
X16141Y-4823D01*
Y4823D01*
X16145Y4861D01*
X16156Y4899D01*
X16174Y4933D01*
X16199Y4963D01*
X16229Y4987D01*
X16263Y5006D01*
X16300Y5017D01*
X16339Y5021D01*
X20609D01*
Y6319D01*
X20613Y6357D01*
X20624Y6395D01*
X20643Y6429D01*
X20667Y6459D01*
X20697Y6483D01*
X20731Y6502D01*
X20768Y6513D01*
X20807Y6517D01*
X22500D01*
X22539Y6513D01*
D02*
G37*
G36*
X43208Y-1066D02*
X43245Y-1077D01*
X43279Y-1095D01*
X43309Y-1120D01*
X43334Y-1150D01*
X43352Y-1184D01*
X43363Y-1221D01*
X43367Y-1260D01*
Y-2558D01*
X47638Y-2558D01*
X47676Y-2562D01*
X47714Y-2573D01*
X47748Y-2592D01*
X47778Y-2616D01*
X47802Y-2646D01*
X47820Y-2680D01*
X47832Y-2717D01*
X47836Y-2756D01*
Y-12402D01*
X47832Y-12440D01*
X47820Y-12477D01*
X47802Y-12512D01*
X47778Y-12541D01*
X47748Y-12566D01*
X47714Y-12584D01*
X47676Y-12596D01*
X47638Y-12599D01*
X43367Y-12599D01*
Y-13898D01*
X43363Y-13936D01*
X43352Y-13973D01*
X43334Y-14007D01*
X43309Y-14038D01*
X43279Y-14062D01*
X43245Y-14080D01*
X43208Y-14092D01*
X43169Y-14095D01*
X41476Y-14095D01*
X41438Y-14092D01*
X41401Y-14080D01*
X41366Y-14062D01*
X41337Y-14038D01*
X41312Y-14007D01*
X41294Y-13973D01*
X41282Y-13936D01*
X41279Y-13898D01*
Y-12599D01*
X39843Y-12599D01*
X39804Y-12596D01*
X39767Y-12584D01*
X39733Y-12566D01*
X39703Y-12541D01*
X39678Y-12512D01*
X39660Y-12477D01*
X39649Y-12440D01*
X39645Y-12402D01*
Y-2756D01*
X39649Y-2717D01*
X39660Y-2680D01*
X39678Y-2646D01*
X39703Y-2616D01*
X39733Y-2592D01*
X39767Y-2573D01*
X39804Y-2562D01*
X39843Y-2558D01*
X41279Y-2558D01*
Y-1260D01*
X41282Y-1221D01*
X41294Y-1184D01*
X41312Y-1150D01*
X41337Y-1120D01*
X41366Y-1095D01*
X41401Y-1077D01*
X41438Y-1066D01*
X41476Y-1062D01*
X43169Y-1062D01*
X43208Y-1066D01*
D02*
G37*
G36*
X62106D02*
X62143Y-1077D01*
X62177Y-1095D01*
X62207Y-1120D01*
X62231Y-1150D01*
X62250Y-1184D01*
X62261Y-1221D01*
X62265Y-1260D01*
X62265Y-2558D01*
X63701D01*
X63739Y-2562D01*
X63776Y-2573D01*
X63811Y-2591D01*
X63841Y-2616D01*
X63865Y-2646D01*
X63884Y-2680D01*
X63895Y-2717D01*
X63899Y-2756D01*
X63899Y-12402D01*
X63895Y-12440D01*
X63884Y-12477D01*
X63865Y-12512D01*
X63841Y-12541D01*
X63811Y-12566D01*
X63776Y-12584D01*
X63739Y-12596D01*
X63701Y-12599D01*
X62265Y-12599D01*
X62265Y-13898D01*
X62261Y-13936D01*
X62250Y-13973D01*
X62231Y-14007D01*
X62207Y-14038D01*
X62177Y-14062D01*
X62143Y-14080D01*
X62106Y-14092D01*
X62067Y-14095D01*
X60374D01*
X60335Y-14092D01*
X60298Y-14080D01*
X60264Y-14062D01*
X60234Y-14038D01*
X60210Y-14007D01*
X60191Y-13973D01*
X60180Y-13936D01*
X60176Y-13898D01*
Y-12599D01*
X55905Y-12599D01*
X55867Y-12596D01*
X55830Y-12584D01*
X55796Y-12566D01*
X55766Y-12541D01*
X55741Y-12512D01*
X55723Y-12477D01*
X55712Y-12440D01*
X55708Y-12402D01*
Y-2756D01*
X55712Y-2717D01*
X55723Y-2680D01*
X55741Y-2646D01*
X55766Y-2616D01*
X55796Y-2591D01*
X55830Y-2573D01*
X55867Y-2562D01*
X55905Y-2558D01*
X60176Y-2558D01*
Y-1260D01*
X60180Y-1221D01*
X60191Y-1184D01*
X60210Y-1150D01*
X60234Y-1120D01*
X60264Y-1095D01*
X60298Y-1077D01*
X60335Y-1066D01*
X60374Y-1062D01*
X62067D01*
X62106Y-1066D01*
D02*
G37*
D30*
X51772Y1969D02*
D03*
X51772Y-1969D02*
D03*
D47*
X66732Y11417D02*
D03*
Y8858D02*
D03*
Y6299D02*
D03*
Y3740D02*
D03*
X36811Y-3740D02*
D03*
Y-6299D02*
D03*
Y-8858D02*
D03*
Y-11417D02*
D03*
Y11417D02*
D03*
Y8858D02*
D03*
Y6299D02*
D03*
Y3740D02*
D03*
X66732Y-11417D02*
D03*
X66732Y-8858D02*
D03*
X66732Y-6299D02*
D03*
X66732Y-3740D02*
D03*
X27165Y-3839D02*
D03*
Y-1280D02*
D03*
Y1280D02*
D03*
X27165Y3839D02*
D03*
D48*
X55709Y3740D02*
D03*
Y6299D02*
D03*
Y8858D02*
D03*
Y11417D02*
D03*
X47835Y-11417D02*
D03*
Y-8858D02*
D03*
Y-6299D02*
D03*
Y-3740D02*
D03*
Y3740D02*
D03*
Y6299D02*
D03*
X47835Y8858D02*
D03*
X47835Y11417D02*
D03*
X55709Y-3740D02*
D03*
X55709Y-6299D02*
D03*
X55709Y-8858D02*
D03*
Y-11417D02*
D03*
X16142Y3839D02*
D03*
X16142Y1280D02*
D03*
X16142Y-1280D02*
D03*
Y-3839D02*
D03*
D49*
X6102Y7874D02*
D03*
X5906Y-7874D02*
D03*
X6102Y0D02*
D03*
D50*
X68898Y22638D02*
D03*
Y-22638D02*
D03*
D51*
X9843Y-21654D02*
D03*
Y21654D02*
D03*
M02*
