G04*
G04 #@! TF.GenerationSoftware,Altium Limited,Altium Designer,21.8.1 (53)*
G04*
G04 Layer_Color=32896*
%FSLAX25Y25*%
%MOIN*%
G70*
G04*
G04 #@! TF.SameCoordinates,FA860FD0-AEA4-4FFE-92F8-4FAB6C871CC1*
G04*
G04*
G04 #@! TF.FilePolarity,Positive*
G04*
G01*
G75*
%ADD10C,0.00787*%
%ADD11C,0.00984*%
D10*
X63681Y13681D02*
X67323Y13681D01*
X55118D02*
X58760D01*
X55118Y1476D02*
X58760D01*
X63681Y1476D02*
X67323Y1476D01*
X36220Y-1476D02*
X39862Y-1476D01*
X44783Y-1476D02*
X48425Y-1476D01*
X44783Y-13681D02*
X48425Y-13681D01*
X36220D02*
X39862Y-13681D01*
X36220Y13681D02*
X39862Y13681D01*
X44783Y13681D02*
X48425D01*
X44783Y1476D02*
X48425D01*
X36220D02*
X39862Y1476D01*
X63681Y-13681D02*
X67323Y-13681D01*
X55118D02*
X58760Y-13681D01*
X55118Y-1476D02*
X58760D01*
X63681Y-1476D02*
X67323Y-1476D01*
X24114Y-6102D02*
X27756Y-6102D01*
X15551D02*
X19193D01*
X15551Y6102D02*
X19193D01*
X24114Y6102D02*
X27756Y6102D01*
X11746Y8999D02*
X12045Y9298D01*
X12495Y9448D01*
X13095D01*
X13545Y9298D01*
X13845Y8999D01*
Y8699D01*
X13695Y8399D01*
X13545Y8249D01*
X13245Y8099D01*
X12345Y7799D01*
X12045Y7649D01*
X11896Y7499D01*
X11746Y7199D01*
Y6749D01*
X12045Y6449D01*
X12495Y6300D01*
X13095D01*
X13545Y6449D01*
X13845Y6749D01*
X11446Y0D02*
X14145D01*
X12795Y-1350D02*
Y1350D01*
Y-9224D02*
Y-6525D01*
D11*
X58867Y24606D02*
Y20670D01*
Y24606D02*
X57367Y20670D01*
X55868Y24606D02*
X57367Y20670D01*
X55868Y24606D02*
Y20670D01*
X53056Y24044D02*
Y20670D01*
X54743Y22357D02*
X51369D01*
X58867Y-20670D02*
Y-24606D01*
Y-20670D02*
X57367Y-24606D01*
X55868Y-20670D02*
X57367Y-24606D01*
X55868Y-20670D02*
Y-24606D01*
X54743Y-22919D02*
X51369D01*
X27802Y-21607D02*
X27990Y-21232D01*
X28365Y-20857D01*
X28740Y-20670D01*
X29489D01*
X29864Y-20857D01*
X30239Y-21232D01*
X30426Y-21607D01*
X30614Y-22169D01*
Y-23106D01*
X30426Y-23669D01*
X30239Y-24044D01*
X29864Y-24418D01*
X29489Y-24606D01*
X28740D01*
X28365Y-24418D01*
X27990Y-24044D01*
X27802Y-23669D01*
Y-23106D01*
X28740D02*
X27802D01*
X26903Y-20670D02*
Y-24606D01*
Y-20670D02*
X24279Y-24606D01*
Y-20670D02*
Y-24606D01*
X23191Y-20670D02*
Y-24606D01*
Y-20670D02*
X21879D01*
X21317Y-20857D01*
X20942Y-21232D01*
X20755Y-21607D01*
X20567Y-22169D01*
Y-23106D01*
X20755Y-23669D01*
X20942Y-24044D01*
X21317Y-24418D01*
X21879Y-24606D01*
X23191D01*
X30708Y24606D02*
X29208Y20670D01*
X27709Y24606D02*
X29208Y20670D01*
X24391Y23669D02*
X24578Y24044D01*
X24953Y24419D01*
X25328Y24606D01*
X26078D01*
X26453Y24419D01*
X26828Y24044D01*
X27015Y23669D01*
X27202Y23106D01*
Y22169D01*
X27015Y21607D01*
X26828Y21232D01*
X26453Y20857D01*
X26078Y20670D01*
X25328D01*
X24953Y20857D01*
X24578Y21232D01*
X24391Y21607D01*
X20473Y23669D02*
X20661Y24044D01*
X21036Y24419D01*
X21411Y24606D01*
X22161D01*
X22535Y24419D01*
X22910Y24044D01*
X23098Y23669D01*
X23285Y23106D01*
Y22169D01*
X23098Y21607D01*
X22910Y21232D01*
X22535Y20857D01*
X22161Y20670D01*
X21411D01*
X21036Y20857D01*
X20661Y21232D01*
X20473Y21607D01*
M02*
