%TF.GenerationSoftware,KiCad,Pcbnew,7.0.2-6a45011f42~172~ubuntu22.04.1*%
%TF.CreationDate,2023-05-30T13:32:28+12:00*%
%TF.ProjectId,THE_BRAWN-20A_POWER_FIXTURE,5448455f-4252-4415-974e-2d3230415f50,v1.0*%
%TF.SameCoordinates,Original*%
%TF.FileFunction,AssemblyDrawing,Bot*%
%FSLAX46Y46*%
G04 Gerber Fmt 4.6, Leading zero omitted, Abs format (unit mm)*
G04 Created by KiCad (PCBNEW 7.0.2-6a45011f42~172~ubuntu22.04.1) date 2023-05-30 13:32:28*
%MOMM*%
%LPD*%
G01*
G04 APERTURE LIST*
%ADD10C,0.060000*%
%ADD11C,0.150000*%
%ADD12C,0.100000*%
G04 APERTURE END LIST*
D10*
%TO.C,R8*%
X220185047Y-128333333D02*
X219994571Y-128200000D01*
X220185047Y-128104762D02*
X219785047Y-128104762D01*
X219785047Y-128104762D02*
X219785047Y-128257143D01*
X219785047Y-128257143D02*
X219804095Y-128295238D01*
X219804095Y-128295238D02*
X219823142Y-128314285D01*
X219823142Y-128314285D02*
X219861238Y-128333333D01*
X219861238Y-128333333D02*
X219918380Y-128333333D01*
X219918380Y-128333333D02*
X219956476Y-128314285D01*
X219956476Y-128314285D02*
X219975523Y-128295238D01*
X219975523Y-128295238D02*
X219994571Y-128257143D01*
X219994571Y-128257143D02*
X219994571Y-128104762D01*
X219956476Y-128561904D02*
X219937428Y-128523809D01*
X219937428Y-128523809D02*
X219918380Y-128504762D01*
X219918380Y-128504762D02*
X219880285Y-128485714D01*
X219880285Y-128485714D02*
X219861238Y-128485714D01*
X219861238Y-128485714D02*
X219823142Y-128504762D01*
X219823142Y-128504762D02*
X219804095Y-128523809D01*
X219804095Y-128523809D02*
X219785047Y-128561904D01*
X219785047Y-128561904D02*
X219785047Y-128638095D01*
X219785047Y-128638095D02*
X219804095Y-128676190D01*
X219804095Y-128676190D02*
X219823142Y-128695238D01*
X219823142Y-128695238D02*
X219861238Y-128714285D01*
X219861238Y-128714285D02*
X219880285Y-128714285D01*
X219880285Y-128714285D02*
X219918380Y-128695238D01*
X219918380Y-128695238D02*
X219937428Y-128676190D01*
X219937428Y-128676190D02*
X219956476Y-128638095D01*
X219956476Y-128638095D02*
X219956476Y-128561904D01*
X219956476Y-128561904D02*
X219975523Y-128523809D01*
X219975523Y-128523809D02*
X219994571Y-128504762D01*
X219994571Y-128504762D02*
X220032666Y-128485714D01*
X220032666Y-128485714D02*
X220108857Y-128485714D01*
X220108857Y-128485714D02*
X220146952Y-128504762D01*
X220146952Y-128504762D02*
X220166000Y-128523809D01*
X220166000Y-128523809D02*
X220185047Y-128561904D01*
X220185047Y-128561904D02*
X220185047Y-128638095D01*
X220185047Y-128638095D02*
X220166000Y-128676190D01*
X220166000Y-128676190D02*
X220146952Y-128695238D01*
X220146952Y-128695238D02*
X220108857Y-128714285D01*
X220108857Y-128714285D02*
X220032666Y-128714285D01*
X220032666Y-128714285D02*
X219994571Y-128695238D01*
X219994571Y-128695238D02*
X219975523Y-128676190D01*
X219975523Y-128676190D02*
X219956476Y-128638095D01*
%TO.C,R3*%
X218685047Y-128333333D02*
X218494571Y-128200000D01*
X218685047Y-128104762D02*
X218285047Y-128104762D01*
X218285047Y-128104762D02*
X218285047Y-128257143D01*
X218285047Y-128257143D02*
X218304095Y-128295238D01*
X218304095Y-128295238D02*
X218323142Y-128314285D01*
X218323142Y-128314285D02*
X218361238Y-128333333D01*
X218361238Y-128333333D02*
X218418380Y-128333333D01*
X218418380Y-128333333D02*
X218456476Y-128314285D01*
X218456476Y-128314285D02*
X218475523Y-128295238D01*
X218475523Y-128295238D02*
X218494571Y-128257143D01*
X218494571Y-128257143D02*
X218494571Y-128104762D01*
X218285047Y-128466666D02*
X218285047Y-128714285D01*
X218285047Y-128714285D02*
X218437428Y-128580952D01*
X218437428Y-128580952D02*
X218437428Y-128638095D01*
X218437428Y-128638095D02*
X218456476Y-128676190D01*
X218456476Y-128676190D02*
X218475523Y-128695238D01*
X218475523Y-128695238D02*
X218513619Y-128714285D01*
X218513619Y-128714285D02*
X218608857Y-128714285D01*
X218608857Y-128714285D02*
X218646952Y-128695238D01*
X218646952Y-128695238D02*
X218666000Y-128676190D01*
X218666000Y-128676190D02*
X218685047Y-128638095D01*
X218685047Y-128638095D02*
X218685047Y-128523809D01*
X218685047Y-128523809D02*
X218666000Y-128485714D01*
X218666000Y-128485714D02*
X218646952Y-128466666D01*
D11*
%TO.C,J3*%
X190643333Y-105572619D02*
X190643333Y-106286904D01*
X190643333Y-106286904D02*
X190690952Y-106429761D01*
X190690952Y-106429761D02*
X190786190Y-106525000D01*
X190786190Y-106525000D02*
X190929047Y-106572619D01*
X190929047Y-106572619D02*
X191024285Y-106572619D01*
X190262380Y-105572619D02*
X189643333Y-105572619D01*
X189643333Y-105572619D02*
X189976666Y-105953571D01*
X189976666Y-105953571D02*
X189833809Y-105953571D01*
X189833809Y-105953571D02*
X189738571Y-106001190D01*
X189738571Y-106001190D02*
X189690952Y-106048809D01*
X189690952Y-106048809D02*
X189643333Y-106144047D01*
X189643333Y-106144047D02*
X189643333Y-106382142D01*
X189643333Y-106382142D02*
X189690952Y-106477380D01*
X189690952Y-106477380D02*
X189738571Y-106525000D01*
X189738571Y-106525000D02*
X189833809Y-106572619D01*
X189833809Y-106572619D02*
X190119523Y-106572619D01*
X190119523Y-106572619D02*
X190214761Y-106525000D01*
X190214761Y-106525000D02*
X190262380Y-106477380D01*
D10*
%TO.C,R14*%
X231557142Y-141465047D02*
X231690475Y-141274571D01*
X231785713Y-141465047D02*
X231785713Y-141065047D01*
X231785713Y-141065047D02*
X231633332Y-141065047D01*
X231633332Y-141065047D02*
X231595237Y-141084095D01*
X231595237Y-141084095D02*
X231576190Y-141103142D01*
X231576190Y-141103142D02*
X231557142Y-141141238D01*
X231557142Y-141141238D02*
X231557142Y-141198380D01*
X231557142Y-141198380D02*
X231576190Y-141236476D01*
X231576190Y-141236476D02*
X231595237Y-141255523D01*
X231595237Y-141255523D02*
X231633332Y-141274571D01*
X231633332Y-141274571D02*
X231785713Y-141274571D01*
X231176190Y-141465047D02*
X231404761Y-141465047D01*
X231290475Y-141465047D02*
X231290475Y-141065047D01*
X231290475Y-141065047D02*
X231328571Y-141122190D01*
X231328571Y-141122190D02*
X231366666Y-141160285D01*
X231366666Y-141160285D02*
X231404761Y-141179333D01*
X230833333Y-141198380D02*
X230833333Y-141465047D01*
X230928571Y-141046000D02*
X231023809Y-141331714D01*
X231023809Y-141331714D02*
X230776190Y-141331714D01*
%TO.C,R1*%
X208766666Y-136385047D02*
X208899999Y-136194571D01*
X208995237Y-136385047D02*
X208995237Y-135985047D01*
X208995237Y-135985047D02*
X208842856Y-135985047D01*
X208842856Y-135985047D02*
X208804761Y-136004095D01*
X208804761Y-136004095D02*
X208785714Y-136023142D01*
X208785714Y-136023142D02*
X208766666Y-136061238D01*
X208766666Y-136061238D02*
X208766666Y-136118380D01*
X208766666Y-136118380D02*
X208785714Y-136156476D01*
X208785714Y-136156476D02*
X208804761Y-136175523D01*
X208804761Y-136175523D02*
X208842856Y-136194571D01*
X208842856Y-136194571D02*
X208995237Y-136194571D01*
X208385714Y-136385047D02*
X208614285Y-136385047D01*
X208499999Y-136385047D02*
X208499999Y-135985047D01*
X208499999Y-135985047D02*
X208538095Y-136042190D01*
X208538095Y-136042190D02*
X208576190Y-136080285D01*
X208576190Y-136080285D02*
X208614285Y-136099333D01*
%TO.C,R10*%
X226185047Y-128142857D02*
X225994571Y-128009524D01*
X226185047Y-127914286D02*
X225785047Y-127914286D01*
X225785047Y-127914286D02*
X225785047Y-128066667D01*
X225785047Y-128066667D02*
X225804095Y-128104762D01*
X225804095Y-128104762D02*
X225823142Y-128123809D01*
X225823142Y-128123809D02*
X225861238Y-128142857D01*
X225861238Y-128142857D02*
X225918380Y-128142857D01*
X225918380Y-128142857D02*
X225956476Y-128123809D01*
X225956476Y-128123809D02*
X225975523Y-128104762D01*
X225975523Y-128104762D02*
X225994571Y-128066667D01*
X225994571Y-128066667D02*
X225994571Y-127914286D01*
X226185047Y-128523809D02*
X226185047Y-128295238D01*
X226185047Y-128409524D02*
X225785047Y-128409524D01*
X225785047Y-128409524D02*
X225842190Y-128371428D01*
X225842190Y-128371428D02*
X225880285Y-128333333D01*
X225880285Y-128333333D02*
X225899333Y-128295238D01*
X225785047Y-128771428D02*
X225785047Y-128809523D01*
X225785047Y-128809523D02*
X225804095Y-128847619D01*
X225804095Y-128847619D02*
X225823142Y-128866666D01*
X225823142Y-128866666D02*
X225861238Y-128885714D01*
X225861238Y-128885714D02*
X225937428Y-128904761D01*
X225937428Y-128904761D02*
X226032666Y-128904761D01*
X226032666Y-128904761D02*
X226108857Y-128885714D01*
X226108857Y-128885714D02*
X226146952Y-128866666D01*
X226146952Y-128866666D02*
X226166000Y-128847619D01*
X226166000Y-128847619D02*
X226185047Y-128809523D01*
X226185047Y-128809523D02*
X226185047Y-128771428D01*
X226185047Y-128771428D02*
X226166000Y-128733333D01*
X226166000Y-128733333D02*
X226146952Y-128714285D01*
X226146952Y-128714285D02*
X226108857Y-128695238D01*
X226108857Y-128695238D02*
X226032666Y-128676190D01*
X226032666Y-128676190D02*
X225937428Y-128676190D01*
X225937428Y-128676190D02*
X225861238Y-128695238D01*
X225861238Y-128695238D02*
X225823142Y-128714285D01*
X225823142Y-128714285D02*
X225804095Y-128733333D01*
X225804095Y-128733333D02*
X225785047Y-128771428D01*
D11*
%TO.C,J2*%
X255103333Y-107232119D02*
X255103333Y-107946404D01*
X255103333Y-107946404D02*
X255150952Y-108089261D01*
X255150952Y-108089261D02*
X255246190Y-108184500D01*
X255246190Y-108184500D02*
X255389047Y-108232119D01*
X255389047Y-108232119D02*
X255484285Y-108232119D01*
X254674761Y-107327357D02*
X254627142Y-107279738D01*
X254627142Y-107279738D02*
X254531904Y-107232119D01*
X254531904Y-107232119D02*
X254293809Y-107232119D01*
X254293809Y-107232119D02*
X254198571Y-107279738D01*
X254198571Y-107279738D02*
X254150952Y-107327357D01*
X254150952Y-107327357D02*
X254103333Y-107422595D01*
X254103333Y-107422595D02*
X254103333Y-107517833D01*
X254103333Y-107517833D02*
X254150952Y-107660690D01*
X254150952Y-107660690D02*
X254722380Y-108232119D01*
X254722380Y-108232119D02*
X254103333Y-108232119D01*
D10*
%TO.C,R11*%
X221685047Y-128142857D02*
X221494571Y-128009524D01*
X221685047Y-127914286D02*
X221285047Y-127914286D01*
X221285047Y-127914286D02*
X221285047Y-128066667D01*
X221285047Y-128066667D02*
X221304095Y-128104762D01*
X221304095Y-128104762D02*
X221323142Y-128123809D01*
X221323142Y-128123809D02*
X221361238Y-128142857D01*
X221361238Y-128142857D02*
X221418380Y-128142857D01*
X221418380Y-128142857D02*
X221456476Y-128123809D01*
X221456476Y-128123809D02*
X221475523Y-128104762D01*
X221475523Y-128104762D02*
X221494571Y-128066667D01*
X221494571Y-128066667D02*
X221494571Y-127914286D01*
X221685047Y-128523809D02*
X221685047Y-128295238D01*
X221685047Y-128409524D02*
X221285047Y-128409524D01*
X221285047Y-128409524D02*
X221342190Y-128371428D01*
X221342190Y-128371428D02*
X221380285Y-128333333D01*
X221380285Y-128333333D02*
X221399333Y-128295238D01*
X221685047Y-128904761D02*
X221685047Y-128676190D01*
X221685047Y-128790476D02*
X221285047Y-128790476D01*
X221285047Y-128790476D02*
X221342190Y-128752380D01*
X221342190Y-128752380D02*
X221380285Y-128714285D01*
X221380285Y-128714285D02*
X221399333Y-128676190D01*
%TO.C,R4*%
X214185047Y-128333333D02*
X213994571Y-128200000D01*
X214185047Y-128104762D02*
X213785047Y-128104762D01*
X213785047Y-128104762D02*
X213785047Y-128257143D01*
X213785047Y-128257143D02*
X213804095Y-128295238D01*
X213804095Y-128295238D02*
X213823142Y-128314285D01*
X213823142Y-128314285D02*
X213861238Y-128333333D01*
X213861238Y-128333333D02*
X213918380Y-128333333D01*
X213918380Y-128333333D02*
X213956476Y-128314285D01*
X213956476Y-128314285D02*
X213975523Y-128295238D01*
X213975523Y-128295238D02*
X213994571Y-128257143D01*
X213994571Y-128257143D02*
X213994571Y-128104762D01*
X213918380Y-128676190D02*
X214185047Y-128676190D01*
X213766000Y-128580952D02*
X214051714Y-128485714D01*
X214051714Y-128485714D02*
X214051714Y-128733333D01*
%TO.C,R15*%
X231557142Y-144005047D02*
X231690475Y-143814571D01*
X231785713Y-144005047D02*
X231785713Y-143605047D01*
X231785713Y-143605047D02*
X231633332Y-143605047D01*
X231633332Y-143605047D02*
X231595237Y-143624095D01*
X231595237Y-143624095D02*
X231576190Y-143643142D01*
X231576190Y-143643142D02*
X231557142Y-143681238D01*
X231557142Y-143681238D02*
X231557142Y-143738380D01*
X231557142Y-143738380D02*
X231576190Y-143776476D01*
X231576190Y-143776476D02*
X231595237Y-143795523D01*
X231595237Y-143795523D02*
X231633332Y-143814571D01*
X231633332Y-143814571D02*
X231785713Y-143814571D01*
X231176190Y-144005047D02*
X231404761Y-144005047D01*
X231290475Y-144005047D02*
X231290475Y-143605047D01*
X231290475Y-143605047D02*
X231328571Y-143662190D01*
X231328571Y-143662190D02*
X231366666Y-143700285D01*
X231366666Y-143700285D02*
X231404761Y-143719333D01*
X230814285Y-143605047D02*
X231004761Y-143605047D01*
X231004761Y-143605047D02*
X231023809Y-143795523D01*
X231023809Y-143795523D02*
X231004761Y-143776476D01*
X231004761Y-143776476D02*
X230966666Y-143757428D01*
X230966666Y-143757428D02*
X230871428Y-143757428D01*
X230871428Y-143757428D02*
X230833333Y-143776476D01*
X230833333Y-143776476D02*
X230814285Y-143795523D01*
X230814285Y-143795523D02*
X230795238Y-143833619D01*
X230795238Y-143833619D02*
X230795238Y-143928857D01*
X230795238Y-143928857D02*
X230814285Y-143966952D01*
X230814285Y-143966952D02*
X230833333Y-143986000D01*
X230833333Y-143986000D02*
X230871428Y-144005047D01*
X230871428Y-144005047D02*
X230966666Y-144005047D01*
X230966666Y-144005047D02*
X231004761Y-143986000D01*
X231004761Y-143986000D02*
X231023809Y-143966952D01*
%TO.C,R7*%
X217185047Y-128333333D02*
X216994571Y-128200000D01*
X217185047Y-128104762D02*
X216785047Y-128104762D01*
X216785047Y-128104762D02*
X216785047Y-128257143D01*
X216785047Y-128257143D02*
X216804095Y-128295238D01*
X216804095Y-128295238D02*
X216823142Y-128314285D01*
X216823142Y-128314285D02*
X216861238Y-128333333D01*
X216861238Y-128333333D02*
X216918380Y-128333333D01*
X216918380Y-128333333D02*
X216956476Y-128314285D01*
X216956476Y-128314285D02*
X216975523Y-128295238D01*
X216975523Y-128295238D02*
X216994571Y-128257143D01*
X216994571Y-128257143D02*
X216994571Y-128104762D01*
X216785047Y-128466666D02*
X216785047Y-128733333D01*
X216785047Y-128733333D02*
X217185047Y-128561904D01*
D11*
%TO.C,J1*%
X256772619Y-102356166D02*
X257486904Y-102356166D01*
X257486904Y-102356166D02*
X257629761Y-102308547D01*
X257629761Y-102308547D02*
X257725000Y-102213309D01*
X257725000Y-102213309D02*
X257772619Y-102070452D01*
X257772619Y-102070452D02*
X257772619Y-101975214D01*
X257772619Y-103356166D02*
X257772619Y-102784738D01*
X257772619Y-103070452D02*
X256772619Y-103070452D01*
X256772619Y-103070452D02*
X256915476Y-102975214D01*
X256915476Y-102975214D02*
X257010714Y-102879976D01*
X257010714Y-102879976D02*
X257058333Y-102784738D01*
D10*
%TO.C,R9*%
X223185047Y-128333333D02*
X222994571Y-128200000D01*
X223185047Y-128104762D02*
X222785047Y-128104762D01*
X222785047Y-128104762D02*
X222785047Y-128257143D01*
X222785047Y-128257143D02*
X222804095Y-128295238D01*
X222804095Y-128295238D02*
X222823142Y-128314285D01*
X222823142Y-128314285D02*
X222861238Y-128333333D01*
X222861238Y-128333333D02*
X222918380Y-128333333D01*
X222918380Y-128333333D02*
X222956476Y-128314285D01*
X222956476Y-128314285D02*
X222975523Y-128295238D01*
X222975523Y-128295238D02*
X222994571Y-128257143D01*
X222994571Y-128257143D02*
X222994571Y-128104762D01*
X223185047Y-128523809D02*
X223185047Y-128600000D01*
X223185047Y-128600000D02*
X223166000Y-128638095D01*
X223166000Y-128638095D02*
X223146952Y-128657143D01*
X223146952Y-128657143D02*
X223089809Y-128695238D01*
X223089809Y-128695238D02*
X223013619Y-128714285D01*
X223013619Y-128714285D02*
X222861238Y-128714285D01*
X222861238Y-128714285D02*
X222823142Y-128695238D01*
X222823142Y-128695238D02*
X222804095Y-128676190D01*
X222804095Y-128676190D02*
X222785047Y-128638095D01*
X222785047Y-128638095D02*
X222785047Y-128561904D01*
X222785047Y-128561904D02*
X222804095Y-128523809D01*
X222804095Y-128523809D02*
X222823142Y-128504762D01*
X222823142Y-128504762D02*
X222861238Y-128485714D01*
X222861238Y-128485714D02*
X222956476Y-128485714D01*
X222956476Y-128485714D02*
X222994571Y-128504762D01*
X222994571Y-128504762D02*
X223013619Y-128523809D01*
X223013619Y-128523809D02*
X223032666Y-128561904D01*
X223032666Y-128561904D02*
X223032666Y-128638095D01*
X223032666Y-128638095D02*
X223013619Y-128676190D01*
X223013619Y-128676190D02*
X222994571Y-128695238D01*
X222994571Y-128695238D02*
X222956476Y-128714285D01*
%TO.C,R2*%
X208766666Y-138925047D02*
X208899999Y-138734571D01*
X208995237Y-138925047D02*
X208995237Y-138525047D01*
X208995237Y-138525047D02*
X208842856Y-138525047D01*
X208842856Y-138525047D02*
X208804761Y-138544095D01*
X208804761Y-138544095D02*
X208785714Y-138563142D01*
X208785714Y-138563142D02*
X208766666Y-138601238D01*
X208766666Y-138601238D02*
X208766666Y-138658380D01*
X208766666Y-138658380D02*
X208785714Y-138696476D01*
X208785714Y-138696476D02*
X208804761Y-138715523D01*
X208804761Y-138715523D02*
X208842856Y-138734571D01*
X208842856Y-138734571D02*
X208995237Y-138734571D01*
X208614285Y-138563142D02*
X208595237Y-138544095D01*
X208595237Y-138544095D02*
X208557142Y-138525047D01*
X208557142Y-138525047D02*
X208461904Y-138525047D01*
X208461904Y-138525047D02*
X208423809Y-138544095D01*
X208423809Y-138544095D02*
X208404761Y-138563142D01*
X208404761Y-138563142D02*
X208385714Y-138601238D01*
X208385714Y-138601238D02*
X208385714Y-138639333D01*
X208385714Y-138639333D02*
X208404761Y-138696476D01*
X208404761Y-138696476D02*
X208633333Y-138925047D01*
X208633333Y-138925047D02*
X208385714Y-138925047D01*
D11*
%TO.C,J4*%
X189373333Y-123352619D02*
X189373333Y-124066904D01*
X189373333Y-124066904D02*
X189420952Y-124209761D01*
X189420952Y-124209761D02*
X189516190Y-124305000D01*
X189516190Y-124305000D02*
X189659047Y-124352619D01*
X189659047Y-124352619D02*
X189754285Y-124352619D01*
X188468571Y-123685952D02*
X188468571Y-124352619D01*
X188706666Y-123305000D02*
X188944761Y-124019285D01*
X188944761Y-124019285D02*
X188325714Y-124019285D01*
D12*
%TO.C,R8*%
X220412500Y-127600000D02*
X219587500Y-127600000D01*
X219587500Y-127600000D02*
X219587500Y-129200000D01*
X220412500Y-129200000D02*
X220412500Y-127600000D01*
X219587500Y-129200000D02*
X220412500Y-129200000D01*
%TO.C,R3*%
X218912500Y-127600000D02*
X218087500Y-127600000D01*
X218087500Y-127600000D02*
X218087500Y-129200000D01*
X218912500Y-129200000D02*
X218912500Y-127600000D01*
X218087500Y-129200000D02*
X218912500Y-129200000D01*
%TO.C,J3*%
X181410000Y-107380000D02*
X190945000Y-107380000D01*
X190945000Y-107380000D02*
X191580000Y-106745000D01*
X191580000Y-106745000D02*
X191580000Y-104840000D01*
X181410000Y-104840000D02*
X181410000Y-107380000D01*
X191580000Y-104840000D02*
X181410000Y-104840000D01*
%TO.C,R14*%
X230500000Y-140867500D02*
X230500000Y-141692500D01*
X230500000Y-141692500D02*
X232100000Y-141692500D01*
X232100000Y-140867500D02*
X230500000Y-140867500D01*
X232100000Y-141692500D02*
X232100000Y-140867500D01*
%TO.C,R1*%
X207900000Y-135787500D02*
X207900000Y-136612500D01*
X207900000Y-136612500D02*
X209500000Y-136612500D01*
X209500000Y-135787500D02*
X207900000Y-135787500D01*
X209500000Y-136612500D02*
X209500000Y-135787500D01*
%TO.C,R10*%
X225587500Y-129200000D02*
X226412500Y-129200000D01*
X226412500Y-129200000D02*
X226412500Y-127600000D01*
X225587500Y-127600000D02*
X225587500Y-129200000D01*
X226412500Y-127600000D02*
X225587500Y-127600000D01*
%TO.C,J2*%
X248370000Y-109039500D02*
X255405000Y-109039500D01*
X255405000Y-109039500D02*
X256040000Y-108404500D01*
X256040000Y-108404500D02*
X256040000Y-106499500D01*
X248370000Y-106499500D02*
X248370000Y-109039500D01*
X256040000Y-106499500D02*
X248370000Y-106499500D01*
%TO.C,R11*%
X221912500Y-127600000D02*
X221087500Y-127600000D01*
X221087500Y-127600000D02*
X221087500Y-129200000D01*
X221912500Y-129200000D02*
X221912500Y-127600000D01*
X221087500Y-129200000D02*
X221912500Y-129200000D01*
%TO.C,R4*%
X213587500Y-129200000D02*
X214412500Y-129200000D01*
X214412500Y-129200000D02*
X214412500Y-127600000D01*
X213587500Y-127600000D02*
X213587500Y-129200000D01*
X214412500Y-127600000D02*
X213587500Y-127600000D01*
%TO.C,R15*%
X230500000Y-143407500D02*
X230500000Y-144232500D01*
X230500000Y-144232500D02*
X232100000Y-144232500D01*
X232100000Y-143407500D02*
X230500000Y-143407500D01*
X232100000Y-144232500D02*
X232100000Y-143407500D01*
%TO.C,R7*%
X217412500Y-127600000D02*
X216587500Y-127600000D01*
X216587500Y-127600000D02*
X216587500Y-129200000D01*
X217412500Y-129200000D02*
X217412500Y-127600000D01*
X216587500Y-129200000D02*
X217412500Y-129200000D01*
%TO.C,J1*%
X258580000Y-109089500D02*
X258580000Y-102054500D01*
X258580000Y-102054500D02*
X257945000Y-101419500D01*
X257945000Y-101419500D02*
X256040000Y-101419500D01*
X256040000Y-109089500D02*
X258580000Y-109089500D01*
X256040000Y-101419500D02*
X256040000Y-109089500D01*
%TO.C,R9*%
X223412500Y-127600000D02*
X222587500Y-127600000D01*
X222587500Y-127600000D02*
X222587500Y-129200000D01*
X223412500Y-129200000D02*
X223412500Y-127600000D01*
X222587500Y-129200000D02*
X223412500Y-129200000D01*
%TO.C,R2*%
X207900000Y-138327500D02*
X207900000Y-139152500D01*
X207900000Y-139152500D02*
X209500000Y-139152500D01*
X209500000Y-138327500D02*
X207900000Y-138327500D01*
X209500000Y-139152500D02*
X209500000Y-138327500D01*
%TO.C,J4*%
X182640000Y-125160000D02*
X189675000Y-125160000D01*
X189675000Y-125160000D02*
X190310000Y-124525000D01*
X190310000Y-124525000D02*
X190310000Y-122620000D01*
X182640000Y-122620000D02*
X182640000Y-125160000D01*
X190310000Y-122620000D02*
X182640000Y-122620000D01*
%TD*%
M02*
