%TF.GenerationSoftware,KiCad,Pcbnew,7.0.2-6a45011f42~172~ubuntu22.04.1*%
%TF.CreationDate,2023-05-30T13:32:24+12:00*%
%TF.ProjectId,THE_BRAWN-20A_POWER_FIXTURE,5448455f-4252-4415-974e-2d3230415f50,v1.0*%
%TF.SameCoordinates,Original*%
%TF.FileFunction,Drillmap*%
%TF.FilePolarity,Positive*%
%FSLAX45Y45*%
G04 Gerber Fmt 4.5, Leading zero omitted, Abs format (unit mm)*
G04 Created by KiCad (PCBNEW 7.0.2-6a45011f42~172~ubuntu22.04.1) date 2023-05-30 13:32:24*
%MOMM*%
%LPD*%
G01*
G04 APERTURE LIST*
%ADD10C,0.100000*%
%ADD11C,0.200000*%
%ADD12C,0.300000*%
%ADD13C,0.320000*%
G04 APERTURE END LIST*
D10*
X17200000Y-19000000D02*
X26800000Y-19000000D01*
X18050000Y-18000000D02*
X25950000Y-18000000D01*
X26800000Y-9000000D02*
X17200000Y-9000000D01*
X27000000Y-9200000D02*
G75*
G03*
X26800000Y-9000000I-200000J0D01*
G01*
X17000000Y-18800000D02*
G75*
G03*
X17200000Y-19000000I200000J0D01*
G01*
X18000000Y-17950000D02*
G75*
G03*
X18050000Y-18000000I50000J0D01*
G01*
X27000000Y-18800000D02*
X27000000Y-9200000D01*
X26000000Y-17050000D02*
G75*
G03*
X25950000Y-17000000I-50000J0D01*
G01*
X26800000Y-19000000D02*
G75*
G03*
X27000000Y-18800000I0J200000D01*
G01*
X18050000Y-17000000D02*
X25950000Y-17000000D01*
X18000000Y-17050000D02*
X18000000Y-17950000D01*
X25950000Y-18000000D02*
G75*
G03*
X26000000Y-17950000I0J50000D01*
G01*
X26000000Y-17050000D02*
X26000000Y-17950000D01*
X17200000Y-9000000D02*
G75*
G03*
X17000000Y-9200000I0J-200000D01*
G01*
X18050000Y-17000000D02*
G75*
G03*
X18000000Y-17050000I0J-50000D01*
G01*
X17000000Y-9200000D02*
X17000000Y-18800000D01*
D11*
D12*
X20550000Y-14750000D02*
X20850000Y-15050000D01*
X20850000Y-14750000D02*
X20550000Y-15050000D01*
X20550000Y-15650000D02*
X20850000Y-15950000D01*
X20850000Y-15650000D02*
X20550000Y-15950000D01*
X21850000Y-14750000D02*
X22150000Y-15050000D01*
X22150000Y-14750000D02*
X21850000Y-15050000D01*
X21850000Y-15650000D02*
X22150000Y-15950000D01*
X22150000Y-15650000D02*
X21850000Y-15950000D01*
D13*
X17660000Y-9500000D02*
G75*
G03*
X17660000Y-9500000I-160000J0D01*
G01*
X17660000Y-14000000D02*
G75*
G03*
X17660000Y-14000000I-160000J0D01*
G01*
X17660000Y-18500000D02*
G75*
G03*
X17660000Y-18500000I-160000J0D01*
G01*
X22160000Y-9500000D02*
G75*
G03*
X22160000Y-9500000I-160000J0D01*
G01*
X22160000Y-18500000D02*
G75*
G03*
X22160000Y-18500000I-160000J0D01*
G01*
X22810000Y-10452500D02*
G75*
G03*
X22810000Y-10452500I-160000J0D01*
G01*
X23410000Y-10452500D02*
G75*
G03*
X23410000Y-10452500I-160000J0D01*
G01*
X23460000Y-14900000D02*
G75*
G03*
X23460000Y-14900000I-160000J0D01*
G01*
X23460000Y-15800000D02*
G75*
G03*
X23460000Y-15800000I-160000J0D01*
G01*
X26660000Y-9500000D02*
G75*
G03*
X26660000Y-9500000I-160000J0D01*
G01*
X26660000Y-14000000D02*
G75*
G03*
X26660000Y-14000000I-160000J0D01*
G01*
X26660000Y-18500000D02*
G75*
G03*
X26660000Y-18500000I-160000J0D01*
G01*
D11*
X17242619Y-19317524D02*
X17242619Y-19117524D01*
X17242619Y-19117524D02*
X17290238Y-19117524D01*
X17290238Y-19117524D02*
X17318810Y-19127048D01*
X17318810Y-19127048D02*
X17337857Y-19146095D01*
X17337857Y-19146095D02*
X17347381Y-19165143D01*
X17347381Y-19165143D02*
X17356905Y-19203238D01*
X17356905Y-19203238D02*
X17356905Y-19231810D01*
X17356905Y-19231810D02*
X17347381Y-19269905D01*
X17347381Y-19269905D02*
X17337857Y-19288952D01*
X17337857Y-19288952D02*
X17318810Y-19308000D01*
X17318810Y-19308000D02*
X17290238Y-19317524D01*
X17290238Y-19317524D02*
X17242619Y-19317524D01*
X17442619Y-19317524D02*
X17442619Y-19184190D01*
X17442619Y-19222286D02*
X17452143Y-19203238D01*
X17452143Y-19203238D02*
X17461667Y-19193714D01*
X17461667Y-19193714D02*
X17480714Y-19184190D01*
X17480714Y-19184190D02*
X17499762Y-19184190D01*
X17566429Y-19317524D02*
X17566429Y-19184190D01*
X17566429Y-19117524D02*
X17556905Y-19127048D01*
X17556905Y-19127048D02*
X17566429Y-19136571D01*
X17566429Y-19136571D02*
X17575952Y-19127048D01*
X17575952Y-19127048D02*
X17566429Y-19117524D01*
X17566429Y-19117524D02*
X17566429Y-19136571D01*
X17690238Y-19317524D02*
X17671190Y-19308000D01*
X17671190Y-19308000D02*
X17661667Y-19288952D01*
X17661667Y-19288952D02*
X17661667Y-19117524D01*
X17795000Y-19317524D02*
X17775952Y-19308000D01*
X17775952Y-19308000D02*
X17766429Y-19288952D01*
X17766429Y-19288952D02*
X17766429Y-19117524D01*
X18023571Y-19317524D02*
X18023571Y-19117524D01*
X18023571Y-19117524D02*
X18090238Y-19260381D01*
X18090238Y-19260381D02*
X18156905Y-19117524D01*
X18156905Y-19117524D02*
X18156905Y-19317524D01*
X18337857Y-19317524D02*
X18337857Y-19212762D01*
X18337857Y-19212762D02*
X18328333Y-19193714D01*
X18328333Y-19193714D02*
X18309286Y-19184190D01*
X18309286Y-19184190D02*
X18271190Y-19184190D01*
X18271190Y-19184190D02*
X18252143Y-19193714D01*
X18337857Y-19308000D02*
X18318810Y-19317524D01*
X18318810Y-19317524D02*
X18271190Y-19317524D01*
X18271190Y-19317524D02*
X18252143Y-19308000D01*
X18252143Y-19308000D02*
X18242619Y-19288952D01*
X18242619Y-19288952D02*
X18242619Y-19269905D01*
X18242619Y-19269905D02*
X18252143Y-19250857D01*
X18252143Y-19250857D02*
X18271190Y-19241333D01*
X18271190Y-19241333D02*
X18318810Y-19241333D01*
X18318810Y-19241333D02*
X18337857Y-19231810D01*
X18433095Y-19184190D02*
X18433095Y-19384190D01*
X18433095Y-19193714D02*
X18452143Y-19184190D01*
X18452143Y-19184190D02*
X18490238Y-19184190D01*
X18490238Y-19184190D02*
X18509286Y-19193714D01*
X18509286Y-19193714D02*
X18518810Y-19203238D01*
X18518810Y-19203238D02*
X18528333Y-19222286D01*
X18528333Y-19222286D02*
X18528333Y-19279429D01*
X18528333Y-19279429D02*
X18518810Y-19298476D01*
X18518810Y-19298476D02*
X18509286Y-19308000D01*
X18509286Y-19308000D02*
X18490238Y-19317524D01*
X18490238Y-19317524D02*
X18452143Y-19317524D01*
X18452143Y-19317524D02*
X18433095Y-19308000D01*
X18614048Y-19298476D02*
X18623571Y-19308000D01*
X18623571Y-19308000D02*
X18614048Y-19317524D01*
X18614048Y-19317524D02*
X18604524Y-19308000D01*
X18604524Y-19308000D02*
X18614048Y-19298476D01*
X18614048Y-19298476D02*
X18614048Y-19317524D01*
X18614048Y-19193714D02*
X18623571Y-19203238D01*
X18623571Y-19203238D02*
X18614048Y-19212762D01*
X18614048Y-19212762D02*
X18604524Y-19203238D01*
X18604524Y-19203238D02*
X18614048Y-19193714D01*
X18614048Y-19193714D02*
X18614048Y-19212762D01*
X16795000Y-19545000D02*
X16995000Y-19745000D01*
X16995000Y-19545000D02*
X16795000Y-19745000D01*
X17223571Y-19537524D02*
X17347381Y-19537524D01*
X17347381Y-19537524D02*
X17280714Y-19613714D01*
X17280714Y-19613714D02*
X17309286Y-19613714D01*
X17309286Y-19613714D02*
X17328333Y-19623238D01*
X17328333Y-19623238D02*
X17337857Y-19632762D01*
X17337857Y-19632762D02*
X17347381Y-19651810D01*
X17347381Y-19651810D02*
X17347381Y-19699429D01*
X17347381Y-19699429D02*
X17337857Y-19718476D01*
X17337857Y-19718476D02*
X17328333Y-19728000D01*
X17328333Y-19728000D02*
X17309286Y-19737524D01*
X17309286Y-19737524D02*
X17252143Y-19737524D01*
X17252143Y-19737524D02*
X17233095Y-19728000D01*
X17233095Y-19728000D02*
X17223571Y-19718476D01*
X17433095Y-19718476D02*
X17442619Y-19728000D01*
X17442619Y-19728000D02*
X17433095Y-19737524D01*
X17433095Y-19737524D02*
X17423571Y-19728000D01*
X17423571Y-19728000D02*
X17433095Y-19718476D01*
X17433095Y-19718476D02*
X17433095Y-19737524D01*
X17566429Y-19537524D02*
X17585476Y-19537524D01*
X17585476Y-19537524D02*
X17604524Y-19547048D01*
X17604524Y-19547048D02*
X17614048Y-19556571D01*
X17614048Y-19556571D02*
X17623571Y-19575619D01*
X17623571Y-19575619D02*
X17633095Y-19613714D01*
X17633095Y-19613714D02*
X17633095Y-19661333D01*
X17633095Y-19661333D02*
X17623571Y-19699429D01*
X17623571Y-19699429D02*
X17614048Y-19718476D01*
X17614048Y-19718476D02*
X17604524Y-19728000D01*
X17604524Y-19728000D02*
X17585476Y-19737524D01*
X17585476Y-19737524D02*
X17566429Y-19737524D01*
X17566429Y-19737524D02*
X17547381Y-19728000D01*
X17547381Y-19728000D02*
X17537857Y-19718476D01*
X17537857Y-19718476D02*
X17528333Y-19699429D01*
X17528333Y-19699429D02*
X17518810Y-19661333D01*
X17518810Y-19661333D02*
X17518810Y-19613714D01*
X17518810Y-19613714D02*
X17528333Y-19575619D01*
X17528333Y-19575619D02*
X17537857Y-19556571D01*
X17537857Y-19556571D02*
X17547381Y-19547048D01*
X17547381Y-19547048D02*
X17566429Y-19537524D01*
X17756905Y-19537524D02*
X17775952Y-19537524D01*
X17775952Y-19537524D02*
X17795000Y-19547048D01*
X17795000Y-19547048D02*
X17804524Y-19556571D01*
X17804524Y-19556571D02*
X17814048Y-19575619D01*
X17814048Y-19575619D02*
X17823571Y-19613714D01*
X17823571Y-19613714D02*
X17823571Y-19661333D01*
X17823571Y-19661333D02*
X17814048Y-19699429D01*
X17814048Y-19699429D02*
X17804524Y-19718476D01*
X17804524Y-19718476D02*
X17795000Y-19728000D01*
X17795000Y-19728000D02*
X17775952Y-19737524D01*
X17775952Y-19737524D02*
X17756905Y-19737524D01*
X17756905Y-19737524D02*
X17737857Y-19728000D01*
X17737857Y-19728000D02*
X17728333Y-19718476D01*
X17728333Y-19718476D02*
X17718810Y-19699429D01*
X17718810Y-19699429D02*
X17709286Y-19661333D01*
X17709286Y-19661333D02*
X17709286Y-19613714D01*
X17709286Y-19613714D02*
X17718810Y-19575619D01*
X17718810Y-19575619D02*
X17728333Y-19556571D01*
X17728333Y-19556571D02*
X17737857Y-19547048D01*
X17737857Y-19547048D02*
X17756905Y-19537524D01*
X17947381Y-19537524D02*
X17966429Y-19537524D01*
X17966429Y-19537524D02*
X17985476Y-19547048D01*
X17985476Y-19547048D02*
X17995000Y-19556571D01*
X17995000Y-19556571D02*
X18004524Y-19575619D01*
X18004524Y-19575619D02*
X18014048Y-19613714D01*
X18014048Y-19613714D02*
X18014048Y-19661333D01*
X18014048Y-19661333D02*
X18004524Y-19699429D01*
X18004524Y-19699429D02*
X17995000Y-19718476D01*
X17995000Y-19718476D02*
X17985476Y-19728000D01*
X17985476Y-19728000D02*
X17966429Y-19737524D01*
X17966429Y-19737524D02*
X17947381Y-19737524D01*
X17947381Y-19737524D02*
X17928333Y-19728000D01*
X17928333Y-19728000D02*
X17918810Y-19718476D01*
X17918810Y-19718476D02*
X17909286Y-19699429D01*
X17909286Y-19699429D02*
X17899762Y-19661333D01*
X17899762Y-19661333D02*
X17899762Y-19613714D01*
X17899762Y-19613714D02*
X17909286Y-19575619D01*
X17909286Y-19575619D02*
X17918810Y-19556571D01*
X17918810Y-19556571D02*
X17928333Y-19547048D01*
X17928333Y-19547048D02*
X17947381Y-19537524D01*
X18099762Y-19737524D02*
X18099762Y-19604190D01*
X18099762Y-19623238D02*
X18109286Y-19613714D01*
X18109286Y-19613714D02*
X18128333Y-19604190D01*
X18128333Y-19604190D02*
X18156905Y-19604190D01*
X18156905Y-19604190D02*
X18175952Y-19613714D01*
X18175952Y-19613714D02*
X18185476Y-19632762D01*
X18185476Y-19632762D02*
X18185476Y-19737524D01*
X18185476Y-19632762D02*
X18195000Y-19613714D01*
X18195000Y-19613714D02*
X18214048Y-19604190D01*
X18214048Y-19604190D02*
X18242619Y-19604190D01*
X18242619Y-19604190D02*
X18261667Y-19613714D01*
X18261667Y-19613714D02*
X18271191Y-19632762D01*
X18271191Y-19632762D02*
X18271191Y-19737524D01*
X18366429Y-19737524D02*
X18366429Y-19604190D01*
X18366429Y-19623238D02*
X18375952Y-19613714D01*
X18375952Y-19613714D02*
X18395000Y-19604190D01*
X18395000Y-19604190D02*
X18423572Y-19604190D01*
X18423572Y-19604190D02*
X18442619Y-19613714D01*
X18442619Y-19613714D02*
X18452143Y-19632762D01*
X18452143Y-19632762D02*
X18452143Y-19737524D01*
X18452143Y-19632762D02*
X18461667Y-19613714D01*
X18461667Y-19613714D02*
X18480714Y-19604190D01*
X18480714Y-19604190D02*
X18509286Y-19604190D01*
X18509286Y-19604190D02*
X18528333Y-19613714D01*
X18528333Y-19613714D02*
X18537857Y-19632762D01*
X18537857Y-19632762D02*
X18537857Y-19737524D01*
X18928333Y-19528000D02*
X18756905Y-19785143D01*
X19185476Y-19537524D02*
X19204524Y-19537524D01*
X19204524Y-19537524D02*
X19223572Y-19547048D01*
X19223572Y-19547048D02*
X19233095Y-19556571D01*
X19233095Y-19556571D02*
X19242619Y-19575619D01*
X19242619Y-19575619D02*
X19252143Y-19613714D01*
X19252143Y-19613714D02*
X19252143Y-19661333D01*
X19252143Y-19661333D02*
X19242619Y-19699429D01*
X19242619Y-19699429D02*
X19233095Y-19718476D01*
X19233095Y-19718476D02*
X19223572Y-19728000D01*
X19223572Y-19728000D02*
X19204524Y-19737524D01*
X19204524Y-19737524D02*
X19185476Y-19737524D01*
X19185476Y-19737524D02*
X19166429Y-19728000D01*
X19166429Y-19728000D02*
X19156905Y-19718476D01*
X19156905Y-19718476D02*
X19147381Y-19699429D01*
X19147381Y-19699429D02*
X19137857Y-19661333D01*
X19137857Y-19661333D02*
X19137857Y-19613714D01*
X19137857Y-19613714D02*
X19147381Y-19575619D01*
X19147381Y-19575619D02*
X19156905Y-19556571D01*
X19156905Y-19556571D02*
X19166429Y-19547048D01*
X19166429Y-19547048D02*
X19185476Y-19537524D01*
X19337857Y-19718476D02*
X19347381Y-19728000D01*
X19347381Y-19728000D02*
X19337857Y-19737524D01*
X19337857Y-19737524D02*
X19328334Y-19728000D01*
X19328334Y-19728000D02*
X19337857Y-19718476D01*
X19337857Y-19718476D02*
X19337857Y-19737524D01*
X19537857Y-19737524D02*
X19423572Y-19737524D01*
X19480714Y-19737524D02*
X19480714Y-19537524D01*
X19480714Y-19537524D02*
X19461667Y-19566095D01*
X19461667Y-19566095D02*
X19442619Y-19585143D01*
X19442619Y-19585143D02*
X19423572Y-19594667D01*
X19728334Y-19737524D02*
X19614048Y-19737524D01*
X19671191Y-19737524D02*
X19671191Y-19537524D01*
X19671191Y-19537524D02*
X19652143Y-19566095D01*
X19652143Y-19566095D02*
X19633095Y-19585143D01*
X19633095Y-19585143D02*
X19614048Y-19594667D01*
X19842619Y-19623238D02*
X19823572Y-19613714D01*
X19823572Y-19613714D02*
X19814048Y-19604190D01*
X19814048Y-19604190D02*
X19804524Y-19585143D01*
X19804524Y-19585143D02*
X19804524Y-19575619D01*
X19804524Y-19575619D02*
X19814048Y-19556571D01*
X19814048Y-19556571D02*
X19823572Y-19547048D01*
X19823572Y-19547048D02*
X19842619Y-19537524D01*
X19842619Y-19537524D02*
X19880715Y-19537524D01*
X19880715Y-19537524D02*
X19899762Y-19547048D01*
X19899762Y-19547048D02*
X19909286Y-19556571D01*
X19909286Y-19556571D02*
X19918810Y-19575619D01*
X19918810Y-19575619D02*
X19918810Y-19585143D01*
X19918810Y-19585143D02*
X19909286Y-19604190D01*
X19909286Y-19604190D02*
X19899762Y-19613714D01*
X19899762Y-19613714D02*
X19880715Y-19623238D01*
X19880715Y-19623238D02*
X19842619Y-19623238D01*
X19842619Y-19623238D02*
X19823572Y-19632762D01*
X19823572Y-19632762D02*
X19814048Y-19642286D01*
X19814048Y-19642286D02*
X19804524Y-19661333D01*
X19804524Y-19661333D02*
X19804524Y-19699429D01*
X19804524Y-19699429D02*
X19814048Y-19718476D01*
X19814048Y-19718476D02*
X19823572Y-19728000D01*
X19823572Y-19728000D02*
X19842619Y-19737524D01*
X19842619Y-19737524D02*
X19880715Y-19737524D01*
X19880715Y-19737524D02*
X19899762Y-19728000D01*
X19899762Y-19728000D02*
X19909286Y-19718476D01*
X19909286Y-19718476D02*
X19918810Y-19699429D01*
X19918810Y-19699429D02*
X19918810Y-19661333D01*
X19918810Y-19661333D02*
X19909286Y-19642286D01*
X19909286Y-19642286D02*
X19899762Y-19632762D01*
X19899762Y-19632762D02*
X19880715Y-19623238D01*
X20109286Y-19737524D02*
X19995000Y-19737524D01*
X20052143Y-19737524D02*
X20052143Y-19537524D01*
X20052143Y-19537524D02*
X20033095Y-19566095D01*
X20033095Y-19566095D02*
X20014048Y-19585143D01*
X20014048Y-19585143D02*
X19995000Y-19594667D01*
X20185476Y-19537524D02*
X20185476Y-19575619D01*
X20261667Y-19537524D02*
X20261667Y-19575619D01*
X20556905Y-19813714D02*
X20547381Y-19804190D01*
X20547381Y-19804190D02*
X20528334Y-19775619D01*
X20528334Y-19775619D02*
X20518810Y-19756571D01*
X20518810Y-19756571D02*
X20509286Y-19728000D01*
X20509286Y-19728000D02*
X20499762Y-19680381D01*
X20499762Y-19680381D02*
X20499762Y-19642286D01*
X20499762Y-19642286D02*
X20509286Y-19594667D01*
X20509286Y-19594667D02*
X20518810Y-19566095D01*
X20518810Y-19566095D02*
X20528334Y-19547048D01*
X20528334Y-19547048D02*
X20547381Y-19518476D01*
X20547381Y-19518476D02*
X20556905Y-19508952D01*
X20718810Y-19604190D02*
X20718810Y-19737524D01*
X20671191Y-19528000D02*
X20623572Y-19670857D01*
X20623572Y-19670857D02*
X20747381Y-19670857D01*
X20975953Y-19737524D02*
X20975953Y-19537524D01*
X21061667Y-19737524D02*
X21061667Y-19632762D01*
X21061667Y-19632762D02*
X21052143Y-19613714D01*
X21052143Y-19613714D02*
X21033096Y-19604190D01*
X21033096Y-19604190D02*
X21004524Y-19604190D01*
X21004524Y-19604190D02*
X20985477Y-19613714D01*
X20985477Y-19613714D02*
X20975953Y-19623238D01*
X21185477Y-19737524D02*
X21166429Y-19728000D01*
X21166429Y-19728000D02*
X21156905Y-19718476D01*
X21156905Y-19718476D02*
X21147381Y-19699429D01*
X21147381Y-19699429D02*
X21147381Y-19642286D01*
X21147381Y-19642286D02*
X21156905Y-19623238D01*
X21156905Y-19623238D02*
X21166429Y-19613714D01*
X21166429Y-19613714D02*
X21185477Y-19604190D01*
X21185477Y-19604190D02*
X21214048Y-19604190D01*
X21214048Y-19604190D02*
X21233096Y-19613714D01*
X21233096Y-19613714D02*
X21242619Y-19623238D01*
X21242619Y-19623238D02*
X21252143Y-19642286D01*
X21252143Y-19642286D02*
X21252143Y-19699429D01*
X21252143Y-19699429D02*
X21242619Y-19718476D01*
X21242619Y-19718476D02*
X21233096Y-19728000D01*
X21233096Y-19728000D02*
X21214048Y-19737524D01*
X21214048Y-19737524D02*
X21185477Y-19737524D01*
X21366429Y-19737524D02*
X21347381Y-19728000D01*
X21347381Y-19728000D02*
X21337858Y-19708952D01*
X21337858Y-19708952D02*
X21337858Y-19537524D01*
X21518810Y-19728000D02*
X21499762Y-19737524D01*
X21499762Y-19737524D02*
X21461667Y-19737524D01*
X21461667Y-19737524D02*
X21442619Y-19728000D01*
X21442619Y-19728000D02*
X21433096Y-19708952D01*
X21433096Y-19708952D02*
X21433096Y-19632762D01*
X21433096Y-19632762D02*
X21442619Y-19613714D01*
X21442619Y-19613714D02*
X21461667Y-19604190D01*
X21461667Y-19604190D02*
X21499762Y-19604190D01*
X21499762Y-19604190D02*
X21518810Y-19613714D01*
X21518810Y-19613714D02*
X21528334Y-19632762D01*
X21528334Y-19632762D02*
X21528334Y-19651810D01*
X21528334Y-19651810D02*
X21433096Y-19670857D01*
X21604524Y-19728000D02*
X21623572Y-19737524D01*
X21623572Y-19737524D02*
X21661667Y-19737524D01*
X21661667Y-19737524D02*
X21680715Y-19728000D01*
X21680715Y-19728000D02*
X21690239Y-19708952D01*
X21690239Y-19708952D02*
X21690239Y-19699429D01*
X21690239Y-19699429D02*
X21680715Y-19680381D01*
X21680715Y-19680381D02*
X21661667Y-19670857D01*
X21661667Y-19670857D02*
X21633096Y-19670857D01*
X21633096Y-19670857D02*
X21614048Y-19661333D01*
X21614048Y-19661333D02*
X21604524Y-19642286D01*
X21604524Y-19642286D02*
X21604524Y-19632762D01*
X21604524Y-19632762D02*
X21614048Y-19613714D01*
X21614048Y-19613714D02*
X21633096Y-19604190D01*
X21633096Y-19604190D02*
X21661667Y-19604190D01*
X21661667Y-19604190D02*
X21680715Y-19613714D01*
X21756905Y-19813714D02*
X21766429Y-19804190D01*
X21766429Y-19804190D02*
X21785477Y-19775619D01*
X21785477Y-19775619D02*
X21795000Y-19756571D01*
X21795000Y-19756571D02*
X21804524Y-19728000D01*
X21804524Y-19728000D02*
X21814048Y-19680381D01*
X21814048Y-19680381D02*
X21814048Y-19642286D01*
X21814048Y-19642286D02*
X21804524Y-19594667D01*
X21804524Y-19594667D02*
X21795000Y-19566095D01*
X21795000Y-19566095D02*
X21785477Y-19547048D01*
X21785477Y-19547048D02*
X21766429Y-19518476D01*
X21766429Y-19518476D02*
X21756905Y-19508952D01*
X22118810Y-19813714D02*
X22109286Y-19804190D01*
X22109286Y-19804190D02*
X22090239Y-19775619D01*
X22090239Y-19775619D02*
X22080715Y-19756571D01*
X22080715Y-19756571D02*
X22071191Y-19728000D01*
X22071191Y-19728000D02*
X22061667Y-19680381D01*
X22061667Y-19680381D02*
X22061667Y-19642286D01*
X22061667Y-19642286D02*
X22071191Y-19594667D01*
X22071191Y-19594667D02*
X22080715Y-19566095D01*
X22080715Y-19566095D02*
X22090239Y-19547048D01*
X22090239Y-19547048D02*
X22109286Y-19518476D01*
X22109286Y-19518476D02*
X22118810Y-19508952D01*
X22195000Y-19604190D02*
X22195000Y-19737524D01*
X22195000Y-19623238D02*
X22204524Y-19613714D01*
X22204524Y-19613714D02*
X22223572Y-19604190D01*
X22223572Y-19604190D02*
X22252143Y-19604190D01*
X22252143Y-19604190D02*
X22271191Y-19613714D01*
X22271191Y-19613714D02*
X22280715Y-19632762D01*
X22280715Y-19632762D02*
X22280715Y-19737524D01*
X22404524Y-19737524D02*
X22385477Y-19728000D01*
X22385477Y-19728000D02*
X22375953Y-19718476D01*
X22375953Y-19718476D02*
X22366429Y-19699429D01*
X22366429Y-19699429D02*
X22366429Y-19642286D01*
X22366429Y-19642286D02*
X22375953Y-19623238D01*
X22375953Y-19623238D02*
X22385477Y-19613714D01*
X22385477Y-19613714D02*
X22404524Y-19604190D01*
X22404524Y-19604190D02*
X22433096Y-19604190D01*
X22433096Y-19604190D02*
X22452143Y-19613714D01*
X22452143Y-19613714D02*
X22461667Y-19623238D01*
X22461667Y-19623238D02*
X22471191Y-19642286D01*
X22471191Y-19642286D02*
X22471191Y-19699429D01*
X22471191Y-19699429D02*
X22461667Y-19718476D01*
X22461667Y-19718476D02*
X22452143Y-19728000D01*
X22452143Y-19728000D02*
X22433096Y-19737524D01*
X22433096Y-19737524D02*
X22404524Y-19737524D01*
X22528334Y-19604190D02*
X22604524Y-19604190D01*
X22556905Y-19537524D02*
X22556905Y-19708952D01*
X22556905Y-19708952D02*
X22566429Y-19728000D01*
X22566429Y-19728000D02*
X22585477Y-19737524D01*
X22585477Y-19737524D02*
X22604524Y-19737524D01*
X22823572Y-19604190D02*
X22823572Y-19804190D01*
X22823572Y-19613714D02*
X22842619Y-19604190D01*
X22842619Y-19604190D02*
X22880715Y-19604190D01*
X22880715Y-19604190D02*
X22899762Y-19613714D01*
X22899762Y-19613714D02*
X22909286Y-19623238D01*
X22909286Y-19623238D02*
X22918810Y-19642286D01*
X22918810Y-19642286D02*
X22918810Y-19699429D01*
X22918810Y-19699429D02*
X22909286Y-19718476D01*
X22909286Y-19718476D02*
X22899762Y-19728000D01*
X22899762Y-19728000D02*
X22880715Y-19737524D01*
X22880715Y-19737524D02*
X22842619Y-19737524D01*
X22842619Y-19737524D02*
X22823572Y-19728000D01*
X23033096Y-19737524D02*
X23014048Y-19728000D01*
X23014048Y-19728000D02*
X23004524Y-19708952D01*
X23004524Y-19708952D02*
X23004524Y-19537524D01*
X23195000Y-19737524D02*
X23195000Y-19632762D01*
X23195000Y-19632762D02*
X23185477Y-19613714D01*
X23185477Y-19613714D02*
X23166429Y-19604190D01*
X23166429Y-19604190D02*
X23128334Y-19604190D01*
X23128334Y-19604190D02*
X23109286Y-19613714D01*
X23195000Y-19728000D02*
X23175953Y-19737524D01*
X23175953Y-19737524D02*
X23128334Y-19737524D01*
X23128334Y-19737524D02*
X23109286Y-19728000D01*
X23109286Y-19728000D02*
X23099762Y-19708952D01*
X23099762Y-19708952D02*
X23099762Y-19689905D01*
X23099762Y-19689905D02*
X23109286Y-19670857D01*
X23109286Y-19670857D02*
X23128334Y-19661333D01*
X23128334Y-19661333D02*
X23175953Y-19661333D01*
X23175953Y-19661333D02*
X23195000Y-19651810D01*
X23261667Y-19604190D02*
X23337858Y-19604190D01*
X23290239Y-19537524D02*
X23290239Y-19708952D01*
X23290239Y-19708952D02*
X23299762Y-19728000D01*
X23299762Y-19728000D02*
X23318810Y-19737524D01*
X23318810Y-19737524D02*
X23337858Y-19737524D01*
X23480715Y-19728000D02*
X23461667Y-19737524D01*
X23461667Y-19737524D02*
X23423572Y-19737524D01*
X23423572Y-19737524D02*
X23404524Y-19728000D01*
X23404524Y-19728000D02*
X23395000Y-19708952D01*
X23395000Y-19708952D02*
X23395000Y-19632762D01*
X23395000Y-19632762D02*
X23404524Y-19613714D01*
X23404524Y-19613714D02*
X23423572Y-19604190D01*
X23423572Y-19604190D02*
X23461667Y-19604190D01*
X23461667Y-19604190D02*
X23480715Y-19613714D01*
X23480715Y-19613714D02*
X23490239Y-19632762D01*
X23490239Y-19632762D02*
X23490239Y-19651810D01*
X23490239Y-19651810D02*
X23395000Y-19670857D01*
X23661667Y-19737524D02*
X23661667Y-19537524D01*
X23661667Y-19728000D02*
X23642620Y-19737524D01*
X23642620Y-19737524D02*
X23604524Y-19737524D01*
X23604524Y-19737524D02*
X23585477Y-19728000D01*
X23585477Y-19728000D02*
X23575953Y-19718476D01*
X23575953Y-19718476D02*
X23566429Y-19699429D01*
X23566429Y-19699429D02*
X23566429Y-19642286D01*
X23566429Y-19642286D02*
X23575953Y-19623238D01*
X23575953Y-19623238D02*
X23585477Y-19613714D01*
X23585477Y-19613714D02*
X23604524Y-19604190D01*
X23604524Y-19604190D02*
X23642620Y-19604190D01*
X23642620Y-19604190D02*
X23661667Y-19613714D01*
X23737858Y-19813714D02*
X23747381Y-19804190D01*
X23747381Y-19804190D02*
X23766429Y-19775619D01*
X23766429Y-19775619D02*
X23775953Y-19756571D01*
X23775953Y-19756571D02*
X23785477Y-19728000D01*
X23785477Y-19728000D02*
X23795000Y-19680381D01*
X23795000Y-19680381D02*
X23795000Y-19642286D01*
X23795000Y-19642286D02*
X23785477Y-19594667D01*
X23785477Y-19594667D02*
X23775953Y-19566095D01*
X23775953Y-19566095D02*
X23766429Y-19547048D01*
X23766429Y-19547048D02*
X23747381Y-19518476D01*
X23747381Y-19518476D02*
X23737858Y-19508952D01*
X16995000Y-19965000D02*
G75*
G03*
X16995000Y-19965000I-100000J0D01*
G01*
X17223571Y-19857524D02*
X17347381Y-19857524D01*
X17347381Y-19857524D02*
X17280714Y-19933714D01*
X17280714Y-19933714D02*
X17309286Y-19933714D01*
X17309286Y-19933714D02*
X17328333Y-19943238D01*
X17328333Y-19943238D02*
X17337857Y-19952762D01*
X17337857Y-19952762D02*
X17347381Y-19971810D01*
X17347381Y-19971810D02*
X17347381Y-20019429D01*
X17347381Y-20019429D02*
X17337857Y-20038476D01*
X17337857Y-20038476D02*
X17328333Y-20048000D01*
X17328333Y-20048000D02*
X17309286Y-20057524D01*
X17309286Y-20057524D02*
X17252143Y-20057524D01*
X17252143Y-20057524D02*
X17233095Y-20048000D01*
X17233095Y-20048000D02*
X17223571Y-20038476D01*
X17433095Y-20038476D02*
X17442619Y-20048000D01*
X17442619Y-20048000D02*
X17433095Y-20057524D01*
X17433095Y-20057524D02*
X17423571Y-20048000D01*
X17423571Y-20048000D02*
X17433095Y-20038476D01*
X17433095Y-20038476D02*
X17433095Y-20057524D01*
X17518810Y-19876571D02*
X17528333Y-19867048D01*
X17528333Y-19867048D02*
X17547381Y-19857524D01*
X17547381Y-19857524D02*
X17595000Y-19857524D01*
X17595000Y-19857524D02*
X17614048Y-19867048D01*
X17614048Y-19867048D02*
X17623571Y-19876571D01*
X17623571Y-19876571D02*
X17633095Y-19895619D01*
X17633095Y-19895619D02*
X17633095Y-19914667D01*
X17633095Y-19914667D02*
X17623571Y-19943238D01*
X17623571Y-19943238D02*
X17509286Y-20057524D01*
X17509286Y-20057524D02*
X17633095Y-20057524D01*
X17756905Y-19857524D02*
X17775952Y-19857524D01*
X17775952Y-19857524D02*
X17795000Y-19867048D01*
X17795000Y-19867048D02*
X17804524Y-19876571D01*
X17804524Y-19876571D02*
X17814048Y-19895619D01*
X17814048Y-19895619D02*
X17823571Y-19933714D01*
X17823571Y-19933714D02*
X17823571Y-19981333D01*
X17823571Y-19981333D02*
X17814048Y-20019429D01*
X17814048Y-20019429D02*
X17804524Y-20038476D01*
X17804524Y-20038476D02*
X17795000Y-20048000D01*
X17795000Y-20048000D02*
X17775952Y-20057524D01*
X17775952Y-20057524D02*
X17756905Y-20057524D01*
X17756905Y-20057524D02*
X17737857Y-20048000D01*
X17737857Y-20048000D02*
X17728333Y-20038476D01*
X17728333Y-20038476D02*
X17718810Y-20019429D01*
X17718810Y-20019429D02*
X17709286Y-19981333D01*
X17709286Y-19981333D02*
X17709286Y-19933714D01*
X17709286Y-19933714D02*
X17718810Y-19895619D01*
X17718810Y-19895619D02*
X17728333Y-19876571D01*
X17728333Y-19876571D02*
X17737857Y-19867048D01*
X17737857Y-19867048D02*
X17756905Y-19857524D01*
X17947381Y-19857524D02*
X17966429Y-19857524D01*
X17966429Y-19857524D02*
X17985476Y-19867048D01*
X17985476Y-19867048D02*
X17995000Y-19876571D01*
X17995000Y-19876571D02*
X18004524Y-19895619D01*
X18004524Y-19895619D02*
X18014048Y-19933714D01*
X18014048Y-19933714D02*
X18014048Y-19981333D01*
X18014048Y-19981333D02*
X18004524Y-20019429D01*
X18004524Y-20019429D02*
X17995000Y-20038476D01*
X17995000Y-20038476D02*
X17985476Y-20048000D01*
X17985476Y-20048000D02*
X17966429Y-20057524D01*
X17966429Y-20057524D02*
X17947381Y-20057524D01*
X17947381Y-20057524D02*
X17928333Y-20048000D01*
X17928333Y-20048000D02*
X17918810Y-20038476D01*
X17918810Y-20038476D02*
X17909286Y-20019429D01*
X17909286Y-20019429D02*
X17899762Y-19981333D01*
X17899762Y-19981333D02*
X17899762Y-19933714D01*
X17899762Y-19933714D02*
X17909286Y-19895619D01*
X17909286Y-19895619D02*
X17918810Y-19876571D01*
X17918810Y-19876571D02*
X17928333Y-19867048D01*
X17928333Y-19867048D02*
X17947381Y-19857524D01*
X18099762Y-20057524D02*
X18099762Y-19924190D01*
X18099762Y-19943238D02*
X18109286Y-19933714D01*
X18109286Y-19933714D02*
X18128333Y-19924190D01*
X18128333Y-19924190D02*
X18156905Y-19924190D01*
X18156905Y-19924190D02*
X18175952Y-19933714D01*
X18175952Y-19933714D02*
X18185476Y-19952762D01*
X18185476Y-19952762D02*
X18185476Y-20057524D01*
X18185476Y-19952762D02*
X18195000Y-19933714D01*
X18195000Y-19933714D02*
X18214048Y-19924190D01*
X18214048Y-19924190D02*
X18242619Y-19924190D01*
X18242619Y-19924190D02*
X18261667Y-19933714D01*
X18261667Y-19933714D02*
X18271191Y-19952762D01*
X18271191Y-19952762D02*
X18271191Y-20057524D01*
X18366429Y-20057524D02*
X18366429Y-19924190D01*
X18366429Y-19943238D02*
X18375952Y-19933714D01*
X18375952Y-19933714D02*
X18395000Y-19924190D01*
X18395000Y-19924190D02*
X18423572Y-19924190D01*
X18423572Y-19924190D02*
X18442619Y-19933714D01*
X18442619Y-19933714D02*
X18452143Y-19952762D01*
X18452143Y-19952762D02*
X18452143Y-20057524D01*
X18452143Y-19952762D02*
X18461667Y-19933714D01*
X18461667Y-19933714D02*
X18480714Y-19924190D01*
X18480714Y-19924190D02*
X18509286Y-19924190D01*
X18509286Y-19924190D02*
X18528333Y-19933714D01*
X18528333Y-19933714D02*
X18537857Y-19952762D01*
X18537857Y-19952762D02*
X18537857Y-20057524D01*
X18928333Y-19848000D02*
X18756905Y-20105143D01*
X19185476Y-19857524D02*
X19204524Y-19857524D01*
X19204524Y-19857524D02*
X19223572Y-19867048D01*
X19223572Y-19867048D02*
X19233095Y-19876571D01*
X19233095Y-19876571D02*
X19242619Y-19895619D01*
X19242619Y-19895619D02*
X19252143Y-19933714D01*
X19252143Y-19933714D02*
X19252143Y-19981333D01*
X19252143Y-19981333D02*
X19242619Y-20019429D01*
X19242619Y-20019429D02*
X19233095Y-20038476D01*
X19233095Y-20038476D02*
X19223572Y-20048000D01*
X19223572Y-20048000D02*
X19204524Y-20057524D01*
X19204524Y-20057524D02*
X19185476Y-20057524D01*
X19185476Y-20057524D02*
X19166429Y-20048000D01*
X19166429Y-20048000D02*
X19156905Y-20038476D01*
X19156905Y-20038476D02*
X19147381Y-20019429D01*
X19147381Y-20019429D02*
X19137857Y-19981333D01*
X19137857Y-19981333D02*
X19137857Y-19933714D01*
X19137857Y-19933714D02*
X19147381Y-19895619D01*
X19147381Y-19895619D02*
X19156905Y-19876571D01*
X19156905Y-19876571D02*
X19166429Y-19867048D01*
X19166429Y-19867048D02*
X19185476Y-19857524D01*
X19337857Y-20038476D02*
X19347381Y-20048000D01*
X19347381Y-20048000D02*
X19337857Y-20057524D01*
X19337857Y-20057524D02*
X19328334Y-20048000D01*
X19328334Y-20048000D02*
X19337857Y-20038476D01*
X19337857Y-20038476D02*
X19337857Y-20057524D01*
X19537857Y-20057524D02*
X19423572Y-20057524D01*
X19480714Y-20057524D02*
X19480714Y-19857524D01*
X19480714Y-19857524D02*
X19461667Y-19886095D01*
X19461667Y-19886095D02*
X19442619Y-19905143D01*
X19442619Y-19905143D02*
X19423572Y-19914667D01*
X19614048Y-19876571D02*
X19623572Y-19867048D01*
X19623572Y-19867048D02*
X19642619Y-19857524D01*
X19642619Y-19857524D02*
X19690238Y-19857524D01*
X19690238Y-19857524D02*
X19709286Y-19867048D01*
X19709286Y-19867048D02*
X19718810Y-19876571D01*
X19718810Y-19876571D02*
X19728334Y-19895619D01*
X19728334Y-19895619D02*
X19728334Y-19914667D01*
X19728334Y-19914667D02*
X19718810Y-19943238D01*
X19718810Y-19943238D02*
X19604524Y-20057524D01*
X19604524Y-20057524D02*
X19728334Y-20057524D01*
X19899762Y-19857524D02*
X19861667Y-19857524D01*
X19861667Y-19857524D02*
X19842619Y-19867048D01*
X19842619Y-19867048D02*
X19833095Y-19876571D01*
X19833095Y-19876571D02*
X19814048Y-19905143D01*
X19814048Y-19905143D02*
X19804524Y-19943238D01*
X19804524Y-19943238D02*
X19804524Y-20019429D01*
X19804524Y-20019429D02*
X19814048Y-20038476D01*
X19814048Y-20038476D02*
X19823572Y-20048000D01*
X19823572Y-20048000D02*
X19842619Y-20057524D01*
X19842619Y-20057524D02*
X19880715Y-20057524D01*
X19880715Y-20057524D02*
X19899762Y-20048000D01*
X19899762Y-20048000D02*
X19909286Y-20038476D01*
X19909286Y-20038476D02*
X19918810Y-20019429D01*
X19918810Y-20019429D02*
X19918810Y-19971810D01*
X19918810Y-19971810D02*
X19909286Y-19952762D01*
X19909286Y-19952762D02*
X19899762Y-19943238D01*
X19899762Y-19943238D02*
X19880715Y-19933714D01*
X19880715Y-19933714D02*
X19842619Y-19933714D01*
X19842619Y-19933714D02*
X19823572Y-19943238D01*
X19823572Y-19943238D02*
X19814048Y-19952762D01*
X19814048Y-19952762D02*
X19804524Y-19971810D01*
X20042619Y-19857524D02*
X20061667Y-19857524D01*
X20061667Y-19857524D02*
X20080715Y-19867048D01*
X20080715Y-19867048D02*
X20090238Y-19876571D01*
X20090238Y-19876571D02*
X20099762Y-19895619D01*
X20099762Y-19895619D02*
X20109286Y-19933714D01*
X20109286Y-19933714D02*
X20109286Y-19981333D01*
X20109286Y-19981333D02*
X20099762Y-20019429D01*
X20099762Y-20019429D02*
X20090238Y-20038476D01*
X20090238Y-20038476D02*
X20080715Y-20048000D01*
X20080715Y-20048000D02*
X20061667Y-20057524D01*
X20061667Y-20057524D02*
X20042619Y-20057524D01*
X20042619Y-20057524D02*
X20023572Y-20048000D01*
X20023572Y-20048000D02*
X20014048Y-20038476D01*
X20014048Y-20038476D02*
X20004524Y-20019429D01*
X20004524Y-20019429D02*
X19995000Y-19981333D01*
X19995000Y-19981333D02*
X19995000Y-19933714D01*
X19995000Y-19933714D02*
X20004524Y-19895619D01*
X20004524Y-19895619D02*
X20014048Y-19876571D01*
X20014048Y-19876571D02*
X20023572Y-19867048D01*
X20023572Y-19867048D02*
X20042619Y-19857524D01*
X20185476Y-19857524D02*
X20185476Y-19895619D01*
X20261667Y-19857524D02*
X20261667Y-19895619D01*
X20556905Y-20133714D02*
X20547381Y-20124190D01*
X20547381Y-20124190D02*
X20528334Y-20095619D01*
X20528334Y-20095619D02*
X20518810Y-20076571D01*
X20518810Y-20076571D02*
X20509286Y-20048000D01*
X20509286Y-20048000D02*
X20499762Y-20000381D01*
X20499762Y-20000381D02*
X20499762Y-19962286D01*
X20499762Y-19962286D02*
X20509286Y-19914667D01*
X20509286Y-19914667D02*
X20518810Y-19886095D01*
X20518810Y-19886095D02*
X20528334Y-19867048D01*
X20528334Y-19867048D02*
X20547381Y-19838476D01*
X20547381Y-19838476D02*
X20556905Y-19828952D01*
X20737857Y-20057524D02*
X20623572Y-20057524D01*
X20680715Y-20057524D02*
X20680715Y-19857524D01*
X20680715Y-19857524D02*
X20661667Y-19886095D01*
X20661667Y-19886095D02*
X20642619Y-19905143D01*
X20642619Y-19905143D02*
X20623572Y-19914667D01*
X20814048Y-19876571D02*
X20823572Y-19867048D01*
X20823572Y-19867048D02*
X20842619Y-19857524D01*
X20842619Y-19857524D02*
X20890238Y-19857524D01*
X20890238Y-19857524D02*
X20909286Y-19867048D01*
X20909286Y-19867048D02*
X20918810Y-19876571D01*
X20918810Y-19876571D02*
X20928334Y-19895619D01*
X20928334Y-19895619D02*
X20928334Y-19914667D01*
X20928334Y-19914667D02*
X20918810Y-19943238D01*
X20918810Y-19943238D02*
X20804524Y-20057524D01*
X20804524Y-20057524D02*
X20928334Y-20057524D01*
X21166429Y-20057524D02*
X21166429Y-19857524D01*
X21252143Y-20057524D02*
X21252143Y-19952762D01*
X21252143Y-19952762D02*
X21242619Y-19933714D01*
X21242619Y-19933714D02*
X21223572Y-19924190D01*
X21223572Y-19924190D02*
X21195000Y-19924190D01*
X21195000Y-19924190D02*
X21175953Y-19933714D01*
X21175953Y-19933714D02*
X21166429Y-19943238D01*
X21375953Y-20057524D02*
X21356905Y-20048000D01*
X21356905Y-20048000D02*
X21347381Y-20038476D01*
X21347381Y-20038476D02*
X21337858Y-20019429D01*
X21337858Y-20019429D02*
X21337858Y-19962286D01*
X21337858Y-19962286D02*
X21347381Y-19943238D01*
X21347381Y-19943238D02*
X21356905Y-19933714D01*
X21356905Y-19933714D02*
X21375953Y-19924190D01*
X21375953Y-19924190D02*
X21404524Y-19924190D01*
X21404524Y-19924190D02*
X21423572Y-19933714D01*
X21423572Y-19933714D02*
X21433096Y-19943238D01*
X21433096Y-19943238D02*
X21442619Y-19962286D01*
X21442619Y-19962286D02*
X21442619Y-20019429D01*
X21442619Y-20019429D02*
X21433096Y-20038476D01*
X21433096Y-20038476D02*
X21423572Y-20048000D01*
X21423572Y-20048000D02*
X21404524Y-20057524D01*
X21404524Y-20057524D02*
X21375953Y-20057524D01*
X21556905Y-20057524D02*
X21537858Y-20048000D01*
X21537858Y-20048000D02*
X21528334Y-20028952D01*
X21528334Y-20028952D02*
X21528334Y-19857524D01*
X21709286Y-20048000D02*
X21690239Y-20057524D01*
X21690239Y-20057524D02*
X21652143Y-20057524D01*
X21652143Y-20057524D02*
X21633096Y-20048000D01*
X21633096Y-20048000D02*
X21623572Y-20028952D01*
X21623572Y-20028952D02*
X21623572Y-19952762D01*
X21623572Y-19952762D02*
X21633096Y-19933714D01*
X21633096Y-19933714D02*
X21652143Y-19924190D01*
X21652143Y-19924190D02*
X21690239Y-19924190D01*
X21690239Y-19924190D02*
X21709286Y-19933714D01*
X21709286Y-19933714D02*
X21718810Y-19952762D01*
X21718810Y-19952762D02*
X21718810Y-19971810D01*
X21718810Y-19971810D02*
X21623572Y-19990857D01*
X21795000Y-20048000D02*
X21814048Y-20057524D01*
X21814048Y-20057524D02*
X21852143Y-20057524D01*
X21852143Y-20057524D02*
X21871191Y-20048000D01*
X21871191Y-20048000D02*
X21880715Y-20028952D01*
X21880715Y-20028952D02*
X21880715Y-20019429D01*
X21880715Y-20019429D02*
X21871191Y-20000381D01*
X21871191Y-20000381D02*
X21852143Y-19990857D01*
X21852143Y-19990857D02*
X21823572Y-19990857D01*
X21823572Y-19990857D02*
X21804524Y-19981333D01*
X21804524Y-19981333D02*
X21795000Y-19962286D01*
X21795000Y-19962286D02*
X21795000Y-19952762D01*
X21795000Y-19952762D02*
X21804524Y-19933714D01*
X21804524Y-19933714D02*
X21823572Y-19924190D01*
X21823572Y-19924190D02*
X21852143Y-19924190D01*
X21852143Y-19924190D02*
X21871191Y-19933714D01*
X21947381Y-20133714D02*
X21956905Y-20124190D01*
X21956905Y-20124190D02*
X21975953Y-20095619D01*
X21975953Y-20095619D02*
X21985477Y-20076571D01*
X21985477Y-20076571D02*
X21995000Y-20048000D01*
X21995000Y-20048000D02*
X22004524Y-20000381D01*
X22004524Y-20000381D02*
X22004524Y-19962286D01*
X22004524Y-19962286D02*
X21995000Y-19914667D01*
X21995000Y-19914667D02*
X21985477Y-19886095D01*
X21985477Y-19886095D02*
X21975953Y-19867048D01*
X21975953Y-19867048D02*
X21956905Y-19838476D01*
X21956905Y-19838476D02*
X21947381Y-19828952D01*
X22309286Y-20133714D02*
X22299762Y-20124190D01*
X22299762Y-20124190D02*
X22280715Y-20095619D01*
X22280715Y-20095619D02*
X22271191Y-20076571D01*
X22271191Y-20076571D02*
X22261667Y-20048000D01*
X22261667Y-20048000D02*
X22252143Y-20000381D01*
X22252143Y-20000381D02*
X22252143Y-19962286D01*
X22252143Y-19962286D02*
X22261667Y-19914667D01*
X22261667Y-19914667D02*
X22271191Y-19886095D01*
X22271191Y-19886095D02*
X22280715Y-19867048D01*
X22280715Y-19867048D02*
X22299762Y-19838476D01*
X22299762Y-19838476D02*
X22309286Y-19828952D01*
X22385477Y-19924190D02*
X22385477Y-20057524D01*
X22385477Y-19943238D02*
X22395000Y-19933714D01*
X22395000Y-19933714D02*
X22414048Y-19924190D01*
X22414048Y-19924190D02*
X22442619Y-19924190D01*
X22442619Y-19924190D02*
X22461667Y-19933714D01*
X22461667Y-19933714D02*
X22471191Y-19952762D01*
X22471191Y-19952762D02*
X22471191Y-20057524D01*
X22595000Y-20057524D02*
X22575953Y-20048000D01*
X22575953Y-20048000D02*
X22566429Y-20038476D01*
X22566429Y-20038476D02*
X22556905Y-20019429D01*
X22556905Y-20019429D02*
X22556905Y-19962286D01*
X22556905Y-19962286D02*
X22566429Y-19943238D01*
X22566429Y-19943238D02*
X22575953Y-19933714D01*
X22575953Y-19933714D02*
X22595000Y-19924190D01*
X22595000Y-19924190D02*
X22623572Y-19924190D01*
X22623572Y-19924190D02*
X22642619Y-19933714D01*
X22642619Y-19933714D02*
X22652143Y-19943238D01*
X22652143Y-19943238D02*
X22661667Y-19962286D01*
X22661667Y-19962286D02*
X22661667Y-20019429D01*
X22661667Y-20019429D02*
X22652143Y-20038476D01*
X22652143Y-20038476D02*
X22642619Y-20048000D01*
X22642619Y-20048000D02*
X22623572Y-20057524D01*
X22623572Y-20057524D02*
X22595000Y-20057524D01*
X22718810Y-19924190D02*
X22795000Y-19924190D01*
X22747381Y-19857524D02*
X22747381Y-20028952D01*
X22747381Y-20028952D02*
X22756905Y-20048000D01*
X22756905Y-20048000D02*
X22775953Y-20057524D01*
X22775953Y-20057524D02*
X22795000Y-20057524D01*
X23014048Y-19924190D02*
X23014048Y-20124190D01*
X23014048Y-19933714D02*
X23033096Y-19924190D01*
X23033096Y-19924190D02*
X23071191Y-19924190D01*
X23071191Y-19924190D02*
X23090239Y-19933714D01*
X23090239Y-19933714D02*
X23099762Y-19943238D01*
X23099762Y-19943238D02*
X23109286Y-19962286D01*
X23109286Y-19962286D02*
X23109286Y-20019429D01*
X23109286Y-20019429D02*
X23099762Y-20038476D01*
X23099762Y-20038476D02*
X23090239Y-20048000D01*
X23090239Y-20048000D02*
X23071191Y-20057524D01*
X23071191Y-20057524D02*
X23033096Y-20057524D01*
X23033096Y-20057524D02*
X23014048Y-20048000D01*
X23223572Y-20057524D02*
X23204524Y-20048000D01*
X23204524Y-20048000D02*
X23195000Y-20028952D01*
X23195000Y-20028952D02*
X23195000Y-19857524D01*
X23385477Y-20057524D02*
X23385477Y-19952762D01*
X23385477Y-19952762D02*
X23375953Y-19933714D01*
X23375953Y-19933714D02*
X23356905Y-19924190D01*
X23356905Y-19924190D02*
X23318810Y-19924190D01*
X23318810Y-19924190D02*
X23299762Y-19933714D01*
X23385477Y-20048000D02*
X23366429Y-20057524D01*
X23366429Y-20057524D02*
X23318810Y-20057524D01*
X23318810Y-20057524D02*
X23299762Y-20048000D01*
X23299762Y-20048000D02*
X23290239Y-20028952D01*
X23290239Y-20028952D02*
X23290239Y-20009905D01*
X23290239Y-20009905D02*
X23299762Y-19990857D01*
X23299762Y-19990857D02*
X23318810Y-19981333D01*
X23318810Y-19981333D02*
X23366429Y-19981333D01*
X23366429Y-19981333D02*
X23385477Y-19971810D01*
X23452143Y-19924190D02*
X23528334Y-19924190D01*
X23480715Y-19857524D02*
X23480715Y-20028952D01*
X23480715Y-20028952D02*
X23490239Y-20048000D01*
X23490239Y-20048000D02*
X23509286Y-20057524D01*
X23509286Y-20057524D02*
X23528334Y-20057524D01*
X23671191Y-20048000D02*
X23652143Y-20057524D01*
X23652143Y-20057524D02*
X23614048Y-20057524D01*
X23614048Y-20057524D02*
X23595000Y-20048000D01*
X23595000Y-20048000D02*
X23585477Y-20028952D01*
X23585477Y-20028952D02*
X23585477Y-19952762D01*
X23585477Y-19952762D02*
X23595000Y-19933714D01*
X23595000Y-19933714D02*
X23614048Y-19924190D01*
X23614048Y-19924190D02*
X23652143Y-19924190D01*
X23652143Y-19924190D02*
X23671191Y-19933714D01*
X23671191Y-19933714D02*
X23680715Y-19952762D01*
X23680715Y-19952762D02*
X23680715Y-19971810D01*
X23680715Y-19971810D02*
X23585477Y-19990857D01*
X23852143Y-20057524D02*
X23852143Y-19857524D01*
X23852143Y-20048000D02*
X23833096Y-20057524D01*
X23833096Y-20057524D02*
X23795000Y-20057524D01*
X23795000Y-20057524D02*
X23775953Y-20048000D01*
X23775953Y-20048000D02*
X23766429Y-20038476D01*
X23766429Y-20038476D02*
X23756905Y-20019429D01*
X23756905Y-20019429D02*
X23756905Y-19962286D01*
X23756905Y-19962286D02*
X23766429Y-19943238D01*
X23766429Y-19943238D02*
X23775953Y-19933714D01*
X23775953Y-19933714D02*
X23795000Y-19924190D01*
X23795000Y-19924190D02*
X23833096Y-19924190D01*
X23833096Y-19924190D02*
X23852143Y-19933714D01*
X23928334Y-20133714D02*
X23937858Y-20124190D01*
X23937858Y-20124190D02*
X23956905Y-20095619D01*
X23956905Y-20095619D02*
X23966429Y-20076571D01*
X23966429Y-20076571D02*
X23975953Y-20048000D01*
X23975953Y-20048000D02*
X23985477Y-20000381D01*
X23985477Y-20000381D02*
X23985477Y-19962286D01*
X23985477Y-19962286D02*
X23975953Y-19914667D01*
X23975953Y-19914667D02*
X23966429Y-19886095D01*
X23966429Y-19886095D02*
X23956905Y-19867048D01*
X23956905Y-19867048D02*
X23937858Y-19838476D01*
X23937858Y-19838476D02*
X23928334Y-19828952D01*
M02*
