%TF.GenerationSoftware,KiCad,Pcbnew,7.0.2-6a45011f42~172~ubuntu22.04.1*%
%TF.CreationDate,2023-05-30T13:32:28+12:00*%
%TF.ProjectId,THE_BRAWN-20A_POWER_FIXTURE,5448455f-4252-4415-974e-2d3230415f50,v1.0*%
%TF.SameCoordinates,Original*%
%TF.FileFunction,Other,User*%
%FSLAX46Y46*%
G04 Gerber Fmt 4.6, Leading zero omitted, Abs format (unit mm)*
G04 Created by KiCad (PCBNEW 7.0.2-6a45011f42~172~ubuntu22.04.1) date 2023-05-30 13:32:28*
%MOMM*%
%LPD*%
G01*
G04 APERTURE LIST*
%ADD10C,0.050000*%
G04 APERTURE END LIST*
D10*
%TO.C,R8*%
X220730000Y-126920000D02*
X219270000Y-126920000D01*
X219270000Y-126920000D02*
X219270000Y-129880000D01*
X220730000Y-129880000D02*
X220730000Y-126920000D01*
X219270000Y-129880000D02*
X220730000Y-129880000D01*
%TO.C,R3*%
X219230000Y-126920000D02*
X217770000Y-126920000D01*
X217770000Y-126920000D02*
X217770000Y-129880000D01*
X219230000Y-129880000D02*
X219230000Y-126920000D01*
X217770000Y-129880000D02*
X219230000Y-129880000D01*
%TO.C,J3*%
X180910000Y-107910000D02*
X180910000Y-104310000D01*
X192110000Y-107910000D02*
X180910000Y-107910000D01*
X180910000Y-104310000D02*
X192110000Y-104310000D01*
X192110000Y-104310000D02*
X192110000Y-107910000D01*
%TO.C,R14*%
X229820000Y-140550000D02*
X229820000Y-142010000D01*
X229820000Y-142010000D02*
X232780000Y-142010000D01*
X232780000Y-140550000D02*
X229820000Y-140550000D01*
X232780000Y-142010000D02*
X232780000Y-140550000D01*
%TO.C,R1*%
X207220000Y-135470000D02*
X207220000Y-136930000D01*
X207220000Y-136930000D02*
X210180000Y-136930000D01*
X210180000Y-135470000D02*
X207220000Y-135470000D01*
X210180000Y-136930000D02*
X210180000Y-135470000D01*
%TO.C,R10*%
X225270000Y-129880000D02*
X226730000Y-129880000D01*
X226730000Y-129880000D02*
X226730000Y-126920000D01*
X225270000Y-126920000D02*
X225270000Y-129880000D01*
X226730000Y-126920000D02*
X225270000Y-126920000D01*
%TO.C,J2*%
X247870000Y-109569500D02*
X247870000Y-105969500D01*
X256570000Y-109569500D02*
X247870000Y-109569500D01*
X247870000Y-105969500D02*
X256570000Y-105969500D01*
X256570000Y-105969500D02*
X256570000Y-109569500D01*
%TO.C,R11*%
X222230000Y-126920000D02*
X220770000Y-126920000D01*
X220770000Y-126920000D02*
X220770000Y-129880000D01*
X222230000Y-129880000D02*
X222230000Y-126920000D01*
X220770000Y-129880000D02*
X222230000Y-129880000D01*
%TO.C,R4*%
X213270000Y-129880000D02*
X214730000Y-129880000D01*
X214730000Y-129880000D02*
X214730000Y-126920000D01*
X213270000Y-126920000D02*
X213270000Y-129880000D01*
X214730000Y-126920000D02*
X213270000Y-126920000D01*
%TO.C,R15*%
X229820000Y-143090000D02*
X229820000Y-144550000D01*
X229820000Y-144550000D02*
X232780000Y-144550000D01*
X232780000Y-143090000D02*
X229820000Y-143090000D01*
X232780000Y-144550000D02*
X232780000Y-143090000D01*
%TO.C,R7*%
X217730000Y-126920000D02*
X216270000Y-126920000D01*
X216270000Y-126920000D02*
X216270000Y-129880000D01*
X217730000Y-129880000D02*
X217730000Y-126920000D01*
X216270000Y-129880000D02*
X217730000Y-129880000D01*
%TO.C,J1*%
X259110000Y-109589500D02*
X255510000Y-109589500D01*
X259110000Y-100889500D02*
X259110000Y-109589500D01*
X255510000Y-109589500D02*
X255510000Y-100889500D01*
X255510000Y-100889500D02*
X259110000Y-100889500D01*
%TO.C,R9*%
X223730000Y-126920000D02*
X222270000Y-126920000D01*
X222270000Y-126920000D02*
X222270000Y-129880000D01*
X223730000Y-129880000D02*
X223730000Y-126920000D01*
X222270000Y-129880000D02*
X223730000Y-129880000D01*
%TO.C,R2*%
X207220000Y-138010000D02*
X207220000Y-139470000D01*
X207220000Y-139470000D02*
X210180000Y-139470000D01*
X210180000Y-138010000D02*
X207220000Y-138010000D01*
X210180000Y-139470000D02*
X210180000Y-138010000D01*
%TO.C,J4*%
X182140000Y-125690000D02*
X182140000Y-122090000D01*
X190840000Y-125690000D02*
X182140000Y-125690000D01*
X182140000Y-122090000D02*
X190840000Y-122090000D01*
X190840000Y-122090000D02*
X190840000Y-125690000D01*
%TD*%
M02*
