%TF.GenerationSoftware,KiCad,Pcbnew,7.0.2-6a45011f42~172~ubuntu22.04.1*%
%TF.CreationDate,2023-05-30T13:32:28+12:00*%
%TF.ProjectId,THE_BRAWN-20A_POWER_FIXTURE,5448455f-4252-4415-974e-2d3230415f50,v1.0*%
%TF.SameCoordinates,Original*%
%TF.FileFunction,AssemblyDrawing,Top*%
%FSLAX46Y46*%
G04 Gerber Fmt 4.6, Leading zero omitted, Abs format (unit mm)*
G04 Created by KiCad (PCBNEW 7.0.2-6a45011f42~172~ubuntu22.04.1) date 2023-05-30 13:32:28*
%MOMM*%
%LPD*%
G01*
G04 APERTURE LIST*
%ADD10C,0.150000*%
%ADD11C,0.100000*%
G04 APERTURE END LIST*
D10*
%TO.C,TP13*%
X219666666Y-134912619D02*
X220238094Y-134912619D01*
X219952380Y-135912619D02*
X219952380Y-134912619D01*
X220952380Y-135865000D02*
X220857142Y-135912619D01*
X220857142Y-135912619D02*
X220666666Y-135912619D01*
X220666666Y-135912619D02*
X220571428Y-135865000D01*
X220571428Y-135865000D02*
X220523809Y-135769761D01*
X220523809Y-135769761D02*
X220523809Y-135388809D01*
X220523809Y-135388809D02*
X220571428Y-135293571D01*
X220571428Y-135293571D02*
X220666666Y-135245952D01*
X220666666Y-135245952D02*
X220857142Y-135245952D01*
X220857142Y-135245952D02*
X220952380Y-135293571D01*
X220952380Y-135293571D02*
X220999999Y-135388809D01*
X220999999Y-135388809D02*
X220999999Y-135484047D01*
X220999999Y-135484047D02*
X220523809Y-135579285D01*
X221380952Y-135865000D02*
X221476190Y-135912619D01*
X221476190Y-135912619D02*
X221666666Y-135912619D01*
X221666666Y-135912619D02*
X221761904Y-135865000D01*
X221761904Y-135865000D02*
X221809523Y-135769761D01*
X221809523Y-135769761D02*
X221809523Y-135722142D01*
X221809523Y-135722142D02*
X221761904Y-135626904D01*
X221761904Y-135626904D02*
X221666666Y-135579285D01*
X221666666Y-135579285D02*
X221523809Y-135579285D01*
X221523809Y-135579285D02*
X221428571Y-135531666D01*
X221428571Y-135531666D02*
X221380952Y-135436428D01*
X221380952Y-135436428D02*
X221380952Y-135388809D01*
X221380952Y-135388809D02*
X221428571Y-135293571D01*
X221428571Y-135293571D02*
X221523809Y-135245952D01*
X221523809Y-135245952D02*
X221666666Y-135245952D01*
X221666666Y-135245952D02*
X221761904Y-135293571D01*
X222095238Y-135245952D02*
X222476190Y-135245952D01*
X222238095Y-134912619D02*
X222238095Y-135769761D01*
X222238095Y-135769761D02*
X222285714Y-135865000D01*
X222285714Y-135865000D02*
X222380952Y-135912619D01*
X222380952Y-135912619D02*
X222476190Y-135912619D01*
X222809524Y-135912619D02*
X222809524Y-134912619D01*
X222809524Y-134912619D02*
X223190476Y-134912619D01*
X223190476Y-134912619D02*
X223285714Y-134960238D01*
X223285714Y-134960238D02*
X223333333Y-135007857D01*
X223333333Y-135007857D02*
X223380952Y-135103095D01*
X223380952Y-135103095D02*
X223380952Y-135245952D01*
X223380952Y-135245952D02*
X223333333Y-135341190D01*
X223333333Y-135341190D02*
X223285714Y-135388809D01*
X223285714Y-135388809D02*
X223190476Y-135436428D01*
X223190476Y-135436428D02*
X222809524Y-135436428D01*
X223952381Y-135912619D02*
X223857143Y-135865000D01*
X223857143Y-135865000D02*
X223809524Y-135817380D01*
X223809524Y-135817380D02*
X223761905Y-135722142D01*
X223761905Y-135722142D02*
X223761905Y-135436428D01*
X223761905Y-135436428D02*
X223809524Y-135341190D01*
X223809524Y-135341190D02*
X223857143Y-135293571D01*
X223857143Y-135293571D02*
X223952381Y-135245952D01*
X223952381Y-135245952D02*
X224095238Y-135245952D01*
X224095238Y-135245952D02*
X224190476Y-135293571D01*
X224190476Y-135293571D02*
X224238095Y-135341190D01*
X224238095Y-135341190D02*
X224285714Y-135436428D01*
X224285714Y-135436428D02*
X224285714Y-135722142D01*
X224285714Y-135722142D02*
X224238095Y-135817380D01*
X224238095Y-135817380D02*
X224190476Y-135865000D01*
X224190476Y-135865000D02*
X224095238Y-135912619D01*
X224095238Y-135912619D02*
X223952381Y-135912619D01*
X224714286Y-135912619D02*
X224714286Y-135245952D01*
X224714286Y-134912619D02*
X224666667Y-134960238D01*
X224666667Y-134960238D02*
X224714286Y-135007857D01*
X224714286Y-135007857D02*
X224761905Y-134960238D01*
X224761905Y-134960238D02*
X224714286Y-134912619D01*
X224714286Y-134912619D02*
X224714286Y-135007857D01*
X225190476Y-135245952D02*
X225190476Y-135912619D01*
X225190476Y-135341190D02*
X225238095Y-135293571D01*
X225238095Y-135293571D02*
X225333333Y-135245952D01*
X225333333Y-135245952D02*
X225476190Y-135245952D01*
X225476190Y-135245952D02*
X225571428Y-135293571D01*
X225571428Y-135293571D02*
X225619047Y-135388809D01*
X225619047Y-135388809D02*
X225619047Y-135912619D01*
X225952381Y-135245952D02*
X226333333Y-135245952D01*
X226095238Y-134912619D02*
X226095238Y-135769761D01*
X226095238Y-135769761D02*
X226142857Y-135865000D01*
X226142857Y-135865000D02*
X226238095Y-135912619D01*
X226238095Y-135912619D02*
X226333333Y-135912619D01*
X221261905Y-129962619D02*
X221833333Y-129962619D01*
X221547619Y-130962619D02*
X221547619Y-129962619D01*
X222166667Y-130962619D02*
X222166667Y-129962619D01*
X222166667Y-129962619D02*
X222547619Y-129962619D01*
X222547619Y-129962619D02*
X222642857Y-130010238D01*
X222642857Y-130010238D02*
X222690476Y-130057857D01*
X222690476Y-130057857D02*
X222738095Y-130153095D01*
X222738095Y-130153095D02*
X222738095Y-130295952D01*
X222738095Y-130295952D02*
X222690476Y-130391190D01*
X222690476Y-130391190D02*
X222642857Y-130438809D01*
X222642857Y-130438809D02*
X222547619Y-130486428D01*
X222547619Y-130486428D02*
X222166667Y-130486428D01*
X223690476Y-130962619D02*
X223119048Y-130962619D01*
X223404762Y-130962619D02*
X223404762Y-129962619D01*
X223404762Y-129962619D02*
X223309524Y-130105476D01*
X223309524Y-130105476D02*
X223214286Y-130200714D01*
X223214286Y-130200714D02*
X223119048Y-130248333D01*
X224023810Y-129962619D02*
X224642857Y-129962619D01*
X224642857Y-129962619D02*
X224309524Y-130343571D01*
X224309524Y-130343571D02*
X224452381Y-130343571D01*
X224452381Y-130343571D02*
X224547619Y-130391190D01*
X224547619Y-130391190D02*
X224595238Y-130438809D01*
X224595238Y-130438809D02*
X224642857Y-130534047D01*
X224642857Y-130534047D02*
X224642857Y-130772142D01*
X224642857Y-130772142D02*
X224595238Y-130867380D01*
X224595238Y-130867380D02*
X224547619Y-130915000D01*
X224547619Y-130915000D02*
X224452381Y-130962619D01*
X224452381Y-130962619D02*
X224166667Y-130962619D01*
X224166667Y-130962619D02*
X224071429Y-130915000D01*
X224071429Y-130915000D02*
X224023810Y-130867380D01*
%TO.C,TP5*%
X213666666Y-134912619D02*
X214238094Y-134912619D01*
X213952380Y-135912619D02*
X213952380Y-134912619D01*
X214952380Y-135865000D02*
X214857142Y-135912619D01*
X214857142Y-135912619D02*
X214666666Y-135912619D01*
X214666666Y-135912619D02*
X214571428Y-135865000D01*
X214571428Y-135865000D02*
X214523809Y-135769761D01*
X214523809Y-135769761D02*
X214523809Y-135388809D01*
X214523809Y-135388809D02*
X214571428Y-135293571D01*
X214571428Y-135293571D02*
X214666666Y-135245952D01*
X214666666Y-135245952D02*
X214857142Y-135245952D01*
X214857142Y-135245952D02*
X214952380Y-135293571D01*
X214952380Y-135293571D02*
X214999999Y-135388809D01*
X214999999Y-135388809D02*
X214999999Y-135484047D01*
X214999999Y-135484047D02*
X214523809Y-135579285D01*
X215380952Y-135865000D02*
X215476190Y-135912619D01*
X215476190Y-135912619D02*
X215666666Y-135912619D01*
X215666666Y-135912619D02*
X215761904Y-135865000D01*
X215761904Y-135865000D02*
X215809523Y-135769761D01*
X215809523Y-135769761D02*
X215809523Y-135722142D01*
X215809523Y-135722142D02*
X215761904Y-135626904D01*
X215761904Y-135626904D02*
X215666666Y-135579285D01*
X215666666Y-135579285D02*
X215523809Y-135579285D01*
X215523809Y-135579285D02*
X215428571Y-135531666D01*
X215428571Y-135531666D02*
X215380952Y-135436428D01*
X215380952Y-135436428D02*
X215380952Y-135388809D01*
X215380952Y-135388809D02*
X215428571Y-135293571D01*
X215428571Y-135293571D02*
X215523809Y-135245952D01*
X215523809Y-135245952D02*
X215666666Y-135245952D01*
X215666666Y-135245952D02*
X215761904Y-135293571D01*
X216095238Y-135245952D02*
X216476190Y-135245952D01*
X216238095Y-134912619D02*
X216238095Y-135769761D01*
X216238095Y-135769761D02*
X216285714Y-135865000D01*
X216285714Y-135865000D02*
X216380952Y-135912619D01*
X216380952Y-135912619D02*
X216476190Y-135912619D01*
X216809524Y-135912619D02*
X216809524Y-134912619D01*
X216809524Y-134912619D02*
X217190476Y-134912619D01*
X217190476Y-134912619D02*
X217285714Y-134960238D01*
X217285714Y-134960238D02*
X217333333Y-135007857D01*
X217333333Y-135007857D02*
X217380952Y-135103095D01*
X217380952Y-135103095D02*
X217380952Y-135245952D01*
X217380952Y-135245952D02*
X217333333Y-135341190D01*
X217333333Y-135341190D02*
X217285714Y-135388809D01*
X217285714Y-135388809D02*
X217190476Y-135436428D01*
X217190476Y-135436428D02*
X216809524Y-135436428D01*
X217952381Y-135912619D02*
X217857143Y-135865000D01*
X217857143Y-135865000D02*
X217809524Y-135817380D01*
X217809524Y-135817380D02*
X217761905Y-135722142D01*
X217761905Y-135722142D02*
X217761905Y-135436428D01*
X217761905Y-135436428D02*
X217809524Y-135341190D01*
X217809524Y-135341190D02*
X217857143Y-135293571D01*
X217857143Y-135293571D02*
X217952381Y-135245952D01*
X217952381Y-135245952D02*
X218095238Y-135245952D01*
X218095238Y-135245952D02*
X218190476Y-135293571D01*
X218190476Y-135293571D02*
X218238095Y-135341190D01*
X218238095Y-135341190D02*
X218285714Y-135436428D01*
X218285714Y-135436428D02*
X218285714Y-135722142D01*
X218285714Y-135722142D02*
X218238095Y-135817380D01*
X218238095Y-135817380D02*
X218190476Y-135865000D01*
X218190476Y-135865000D02*
X218095238Y-135912619D01*
X218095238Y-135912619D02*
X217952381Y-135912619D01*
X218714286Y-135912619D02*
X218714286Y-135245952D01*
X218714286Y-134912619D02*
X218666667Y-134960238D01*
X218666667Y-134960238D02*
X218714286Y-135007857D01*
X218714286Y-135007857D02*
X218761905Y-134960238D01*
X218761905Y-134960238D02*
X218714286Y-134912619D01*
X218714286Y-134912619D02*
X218714286Y-135007857D01*
X219190476Y-135245952D02*
X219190476Y-135912619D01*
X219190476Y-135341190D02*
X219238095Y-135293571D01*
X219238095Y-135293571D02*
X219333333Y-135245952D01*
X219333333Y-135245952D02*
X219476190Y-135245952D01*
X219476190Y-135245952D02*
X219571428Y-135293571D01*
X219571428Y-135293571D02*
X219619047Y-135388809D01*
X219619047Y-135388809D02*
X219619047Y-135912619D01*
X219952381Y-135245952D02*
X220333333Y-135245952D01*
X220095238Y-134912619D02*
X220095238Y-135769761D01*
X220095238Y-135769761D02*
X220142857Y-135865000D01*
X220142857Y-135865000D02*
X220238095Y-135912619D01*
X220238095Y-135912619D02*
X220333333Y-135912619D01*
X215738095Y-129962619D02*
X216309523Y-129962619D01*
X216023809Y-130962619D02*
X216023809Y-129962619D01*
X216642857Y-130962619D02*
X216642857Y-129962619D01*
X216642857Y-129962619D02*
X217023809Y-129962619D01*
X217023809Y-129962619D02*
X217119047Y-130010238D01*
X217119047Y-130010238D02*
X217166666Y-130057857D01*
X217166666Y-130057857D02*
X217214285Y-130153095D01*
X217214285Y-130153095D02*
X217214285Y-130295952D01*
X217214285Y-130295952D02*
X217166666Y-130391190D01*
X217166666Y-130391190D02*
X217119047Y-130438809D01*
X217119047Y-130438809D02*
X217023809Y-130486428D01*
X217023809Y-130486428D02*
X216642857Y-130486428D01*
X218119047Y-129962619D02*
X217642857Y-129962619D01*
X217642857Y-129962619D02*
X217595238Y-130438809D01*
X217595238Y-130438809D02*
X217642857Y-130391190D01*
X217642857Y-130391190D02*
X217738095Y-130343571D01*
X217738095Y-130343571D02*
X217976190Y-130343571D01*
X217976190Y-130343571D02*
X218071428Y-130391190D01*
X218071428Y-130391190D02*
X218119047Y-130438809D01*
X218119047Y-130438809D02*
X218166666Y-130534047D01*
X218166666Y-130534047D02*
X218166666Y-130772142D01*
X218166666Y-130772142D02*
X218119047Y-130867380D01*
X218119047Y-130867380D02*
X218071428Y-130915000D01*
X218071428Y-130915000D02*
X217976190Y-130962619D01*
X217976190Y-130962619D02*
X217738095Y-130962619D01*
X217738095Y-130962619D02*
X217642857Y-130915000D01*
X217642857Y-130915000D02*
X217595238Y-130867380D01*
%TO.C,TP6*%
X210666666Y-133212619D02*
X211238094Y-133212619D01*
X210952380Y-134212619D02*
X210952380Y-133212619D01*
X211952380Y-134165000D02*
X211857142Y-134212619D01*
X211857142Y-134212619D02*
X211666666Y-134212619D01*
X211666666Y-134212619D02*
X211571428Y-134165000D01*
X211571428Y-134165000D02*
X211523809Y-134069761D01*
X211523809Y-134069761D02*
X211523809Y-133688809D01*
X211523809Y-133688809D02*
X211571428Y-133593571D01*
X211571428Y-133593571D02*
X211666666Y-133545952D01*
X211666666Y-133545952D02*
X211857142Y-133545952D01*
X211857142Y-133545952D02*
X211952380Y-133593571D01*
X211952380Y-133593571D02*
X211999999Y-133688809D01*
X211999999Y-133688809D02*
X211999999Y-133784047D01*
X211999999Y-133784047D02*
X211523809Y-133879285D01*
X212380952Y-134165000D02*
X212476190Y-134212619D01*
X212476190Y-134212619D02*
X212666666Y-134212619D01*
X212666666Y-134212619D02*
X212761904Y-134165000D01*
X212761904Y-134165000D02*
X212809523Y-134069761D01*
X212809523Y-134069761D02*
X212809523Y-134022142D01*
X212809523Y-134022142D02*
X212761904Y-133926904D01*
X212761904Y-133926904D02*
X212666666Y-133879285D01*
X212666666Y-133879285D02*
X212523809Y-133879285D01*
X212523809Y-133879285D02*
X212428571Y-133831666D01*
X212428571Y-133831666D02*
X212380952Y-133736428D01*
X212380952Y-133736428D02*
X212380952Y-133688809D01*
X212380952Y-133688809D02*
X212428571Y-133593571D01*
X212428571Y-133593571D02*
X212523809Y-133545952D01*
X212523809Y-133545952D02*
X212666666Y-133545952D01*
X212666666Y-133545952D02*
X212761904Y-133593571D01*
X213095238Y-133545952D02*
X213476190Y-133545952D01*
X213238095Y-133212619D02*
X213238095Y-134069761D01*
X213238095Y-134069761D02*
X213285714Y-134165000D01*
X213285714Y-134165000D02*
X213380952Y-134212619D01*
X213380952Y-134212619D02*
X213476190Y-134212619D01*
X213809524Y-134212619D02*
X213809524Y-133212619D01*
X213809524Y-133212619D02*
X214190476Y-133212619D01*
X214190476Y-133212619D02*
X214285714Y-133260238D01*
X214285714Y-133260238D02*
X214333333Y-133307857D01*
X214333333Y-133307857D02*
X214380952Y-133403095D01*
X214380952Y-133403095D02*
X214380952Y-133545952D01*
X214380952Y-133545952D02*
X214333333Y-133641190D01*
X214333333Y-133641190D02*
X214285714Y-133688809D01*
X214285714Y-133688809D02*
X214190476Y-133736428D01*
X214190476Y-133736428D02*
X213809524Y-133736428D01*
X214952381Y-134212619D02*
X214857143Y-134165000D01*
X214857143Y-134165000D02*
X214809524Y-134117380D01*
X214809524Y-134117380D02*
X214761905Y-134022142D01*
X214761905Y-134022142D02*
X214761905Y-133736428D01*
X214761905Y-133736428D02*
X214809524Y-133641190D01*
X214809524Y-133641190D02*
X214857143Y-133593571D01*
X214857143Y-133593571D02*
X214952381Y-133545952D01*
X214952381Y-133545952D02*
X215095238Y-133545952D01*
X215095238Y-133545952D02*
X215190476Y-133593571D01*
X215190476Y-133593571D02*
X215238095Y-133641190D01*
X215238095Y-133641190D02*
X215285714Y-133736428D01*
X215285714Y-133736428D02*
X215285714Y-134022142D01*
X215285714Y-134022142D02*
X215238095Y-134117380D01*
X215238095Y-134117380D02*
X215190476Y-134165000D01*
X215190476Y-134165000D02*
X215095238Y-134212619D01*
X215095238Y-134212619D02*
X214952381Y-134212619D01*
X215714286Y-134212619D02*
X215714286Y-133545952D01*
X215714286Y-133212619D02*
X215666667Y-133260238D01*
X215666667Y-133260238D02*
X215714286Y-133307857D01*
X215714286Y-133307857D02*
X215761905Y-133260238D01*
X215761905Y-133260238D02*
X215714286Y-133212619D01*
X215714286Y-133212619D02*
X215714286Y-133307857D01*
X216190476Y-133545952D02*
X216190476Y-134212619D01*
X216190476Y-133641190D02*
X216238095Y-133593571D01*
X216238095Y-133593571D02*
X216333333Y-133545952D01*
X216333333Y-133545952D02*
X216476190Y-133545952D01*
X216476190Y-133545952D02*
X216571428Y-133593571D01*
X216571428Y-133593571D02*
X216619047Y-133688809D01*
X216619047Y-133688809D02*
X216619047Y-134212619D01*
X216952381Y-133545952D02*
X217333333Y-133545952D01*
X217095238Y-133212619D02*
X217095238Y-134069761D01*
X217095238Y-134069761D02*
X217142857Y-134165000D01*
X217142857Y-134165000D02*
X217238095Y-134212619D01*
X217238095Y-134212619D02*
X217333333Y-134212619D01*
X212738095Y-128262619D02*
X213309523Y-128262619D01*
X213023809Y-129262619D02*
X213023809Y-128262619D01*
X213642857Y-129262619D02*
X213642857Y-128262619D01*
X213642857Y-128262619D02*
X214023809Y-128262619D01*
X214023809Y-128262619D02*
X214119047Y-128310238D01*
X214119047Y-128310238D02*
X214166666Y-128357857D01*
X214166666Y-128357857D02*
X214214285Y-128453095D01*
X214214285Y-128453095D02*
X214214285Y-128595952D01*
X214214285Y-128595952D02*
X214166666Y-128691190D01*
X214166666Y-128691190D02*
X214119047Y-128738809D01*
X214119047Y-128738809D02*
X214023809Y-128786428D01*
X214023809Y-128786428D02*
X213642857Y-128786428D01*
X215071428Y-128262619D02*
X214880952Y-128262619D01*
X214880952Y-128262619D02*
X214785714Y-128310238D01*
X214785714Y-128310238D02*
X214738095Y-128357857D01*
X214738095Y-128357857D02*
X214642857Y-128500714D01*
X214642857Y-128500714D02*
X214595238Y-128691190D01*
X214595238Y-128691190D02*
X214595238Y-129072142D01*
X214595238Y-129072142D02*
X214642857Y-129167380D01*
X214642857Y-129167380D02*
X214690476Y-129215000D01*
X214690476Y-129215000D02*
X214785714Y-129262619D01*
X214785714Y-129262619D02*
X214976190Y-129262619D01*
X214976190Y-129262619D02*
X215071428Y-129215000D01*
X215071428Y-129215000D02*
X215119047Y-129167380D01*
X215119047Y-129167380D02*
X215166666Y-129072142D01*
X215166666Y-129072142D02*
X215166666Y-128834047D01*
X215166666Y-128834047D02*
X215119047Y-128738809D01*
X215119047Y-128738809D02*
X215071428Y-128691190D01*
X215071428Y-128691190D02*
X214976190Y-128643571D01*
X214976190Y-128643571D02*
X214785714Y-128643571D01*
X214785714Y-128643571D02*
X214690476Y-128691190D01*
X214690476Y-128691190D02*
X214642857Y-128738809D01*
X214642857Y-128738809D02*
X214595238Y-128834047D01*
%TO.C,TP7*%
X220012619Y-134533333D02*
X220012619Y-133961905D01*
X221012619Y-134247619D02*
X220012619Y-134247619D01*
X220965000Y-133247619D02*
X221012619Y-133342857D01*
X221012619Y-133342857D02*
X221012619Y-133533333D01*
X221012619Y-133533333D02*
X220965000Y-133628571D01*
X220965000Y-133628571D02*
X220869761Y-133676190D01*
X220869761Y-133676190D02*
X220488809Y-133676190D01*
X220488809Y-133676190D02*
X220393571Y-133628571D01*
X220393571Y-133628571D02*
X220345952Y-133533333D01*
X220345952Y-133533333D02*
X220345952Y-133342857D01*
X220345952Y-133342857D02*
X220393571Y-133247619D01*
X220393571Y-133247619D02*
X220488809Y-133200000D01*
X220488809Y-133200000D02*
X220584047Y-133200000D01*
X220584047Y-133200000D02*
X220679285Y-133676190D01*
X220965000Y-132819047D02*
X221012619Y-132723809D01*
X221012619Y-132723809D02*
X221012619Y-132533333D01*
X221012619Y-132533333D02*
X220965000Y-132438095D01*
X220965000Y-132438095D02*
X220869761Y-132390476D01*
X220869761Y-132390476D02*
X220822142Y-132390476D01*
X220822142Y-132390476D02*
X220726904Y-132438095D01*
X220726904Y-132438095D02*
X220679285Y-132533333D01*
X220679285Y-132533333D02*
X220679285Y-132676190D01*
X220679285Y-132676190D02*
X220631666Y-132771428D01*
X220631666Y-132771428D02*
X220536428Y-132819047D01*
X220536428Y-132819047D02*
X220488809Y-132819047D01*
X220488809Y-132819047D02*
X220393571Y-132771428D01*
X220393571Y-132771428D02*
X220345952Y-132676190D01*
X220345952Y-132676190D02*
X220345952Y-132533333D01*
X220345952Y-132533333D02*
X220393571Y-132438095D01*
X220345952Y-132104761D02*
X220345952Y-131723809D01*
X220012619Y-131961904D02*
X220869761Y-131961904D01*
X220869761Y-131961904D02*
X220965000Y-131914285D01*
X220965000Y-131914285D02*
X221012619Y-131819047D01*
X221012619Y-131819047D02*
X221012619Y-131723809D01*
X221012619Y-131390475D02*
X220012619Y-131390475D01*
X220012619Y-131390475D02*
X220012619Y-131009523D01*
X220012619Y-131009523D02*
X220060238Y-130914285D01*
X220060238Y-130914285D02*
X220107857Y-130866666D01*
X220107857Y-130866666D02*
X220203095Y-130819047D01*
X220203095Y-130819047D02*
X220345952Y-130819047D01*
X220345952Y-130819047D02*
X220441190Y-130866666D01*
X220441190Y-130866666D02*
X220488809Y-130914285D01*
X220488809Y-130914285D02*
X220536428Y-131009523D01*
X220536428Y-131009523D02*
X220536428Y-131390475D01*
X221012619Y-130247618D02*
X220965000Y-130342856D01*
X220965000Y-130342856D02*
X220917380Y-130390475D01*
X220917380Y-130390475D02*
X220822142Y-130438094D01*
X220822142Y-130438094D02*
X220536428Y-130438094D01*
X220536428Y-130438094D02*
X220441190Y-130390475D01*
X220441190Y-130390475D02*
X220393571Y-130342856D01*
X220393571Y-130342856D02*
X220345952Y-130247618D01*
X220345952Y-130247618D02*
X220345952Y-130104761D01*
X220345952Y-130104761D02*
X220393571Y-130009523D01*
X220393571Y-130009523D02*
X220441190Y-129961904D01*
X220441190Y-129961904D02*
X220536428Y-129914285D01*
X220536428Y-129914285D02*
X220822142Y-129914285D01*
X220822142Y-129914285D02*
X220917380Y-129961904D01*
X220917380Y-129961904D02*
X220965000Y-130009523D01*
X220965000Y-130009523D02*
X221012619Y-130104761D01*
X221012619Y-130104761D02*
X221012619Y-130247618D01*
X221012619Y-129485713D02*
X220345952Y-129485713D01*
X220012619Y-129485713D02*
X220060238Y-129533332D01*
X220060238Y-129533332D02*
X220107857Y-129485713D01*
X220107857Y-129485713D02*
X220060238Y-129438094D01*
X220060238Y-129438094D02*
X220012619Y-129485713D01*
X220012619Y-129485713D02*
X220107857Y-129485713D01*
X220345952Y-129009523D02*
X221012619Y-129009523D01*
X220441190Y-129009523D02*
X220393571Y-128961904D01*
X220393571Y-128961904D02*
X220345952Y-128866666D01*
X220345952Y-128866666D02*
X220345952Y-128723809D01*
X220345952Y-128723809D02*
X220393571Y-128628571D01*
X220393571Y-128628571D02*
X220488809Y-128580952D01*
X220488809Y-128580952D02*
X221012619Y-128580952D01*
X220345952Y-128247618D02*
X220345952Y-127866666D01*
X220012619Y-128104761D02*
X220869761Y-128104761D01*
X220869761Y-128104761D02*
X220965000Y-128057142D01*
X220965000Y-128057142D02*
X221012619Y-127961904D01*
X221012619Y-127961904D02*
X221012619Y-127866666D01*
X215062619Y-132461904D02*
X215062619Y-131890476D01*
X216062619Y-132176190D02*
X215062619Y-132176190D01*
X216062619Y-131557142D02*
X215062619Y-131557142D01*
X215062619Y-131557142D02*
X215062619Y-131176190D01*
X215062619Y-131176190D02*
X215110238Y-131080952D01*
X215110238Y-131080952D02*
X215157857Y-131033333D01*
X215157857Y-131033333D02*
X215253095Y-130985714D01*
X215253095Y-130985714D02*
X215395952Y-130985714D01*
X215395952Y-130985714D02*
X215491190Y-131033333D01*
X215491190Y-131033333D02*
X215538809Y-131080952D01*
X215538809Y-131080952D02*
X215586428Y-131176190D01*
X215586428Y-131176190D02*
X215586428Y-131557142D01*
X215062619Y-130652380D02*
X215062619Y-129985714D01*
X215062619Y-129985714D02*
X216062619Y-130414285D01*
%TO.C,TP11*%
X218666666Y-133212619D02*
X219238094Y-133212619D01*
X218952380Y-134212619D02*
X218952380Y-133212619D01*
X219952380Y-134165000D02*
X219857142Y-134212619D01*
X219857142Y-134212619D02*
X219666666Y-134212619D01*
X219666666Y-134212619D02*
X219571428Y-134165000D01*
X219571428Y-134165000D02*
X219523809Y-134069761D01*
X219523809Y-134069761D02*
X219523809Y-133688809D01*
X219523809Y-133688809D02*
X219571428Y-133593571D01*
X219571428Y-133593571D02*
X219666666Y-133545952D01*
X219666666Y-133545952D02*
X219857142Y-133545952D01*
X219857142Y-133545952D02*
X219952380Y-133593571D01*
X219952380Y-133593571D02*
X219999999Y-133688809D01*
X219999999Y-133688809D02*
X219999999Y-133784047D01*
X219999999Y-133784047D02*
X219523809Y-133879285D01*
X220380952Y-134165000D02*
X220476190Y-134212619D01*
X220476190Y-134212619D02*
X220666666Y-134212619D01*
X220666666Y-134212619D02*
X220761904Y-134165000D01*
X220761904Y-134165000D02*
X220809523Y-134069761D01*
X220809523Y-134069761D02*
X220809523Y-134022142D01*
X220809523Y-134022142D02*
X220761904Y-133926904D01*
X220761904Y-133926904D02*
X220666666Y-133879285D01*
X220666666Y-133879285D02*
X220523809Y-133879285D01*
X220523809Y-133879285D02*
X220428571Y-133831666D01*
X220428571Y-133831666D02*
X220380952Y-133736428D01*
X220380952Y-133736428D02*
X220380952Y-133688809D01*
X220380952Y-133688809D02*
X220428571Y-133593571D01*
X220428571Y-133593571D02*
X220523809Y-133545952D01*
X220523809Y-133545952D02*
X220666666Y-133545952D01*
X220666666Y-133545952D02*
X220761904Y-133593571D01*
X221095238Y-133545952D02*
X221476190Y-133545952D01*
X221238095Y-133212619D02*
X221238095Y-134069761D01*
X221238095Y-134069761D02*
X221285714Y-134165000D01*
X221285714Y-134165000D02*
X221380952Y-134212619D01*
X221380952Y-134212619D02*
X221476190Y-134212619D01*
X221809524Y-134212619D02*
X221809524Y-133212619D01*
X221809524Y-133212619D02*
X222190476Y-133212619D01*
X222190476Y-133212619D02*
X222285714Y-133260238D01*
X222285714Y-133260238D02*
X222333333Y-133307857D01*
X222333333Y-133307857D02*
X222380952Y-133403095D01*
X222380952Y-133403095D02*
X222380952Y-133545952D01*
X222380952Y-133545952D02*
X222333333Y-133641190D01*
X222333333Y-133641190D02*
X222285714Y-133688809D01*
X222285714Y-133688809D02*
X222190476Y-133736428D01*
X222190476Y-133736428D02*
X221809524Y-133736428D01*
X222952381Y-134212619D02*
X222857143Y-134165000D01*
X222857143Y-134165000D02*
X222809524Y-134117380D01*
X222809524Y-134117380D02*
X222761905Y-134022142D01*
X222761905Y-134022142D02*
X222761905Y-133736428D01*
X222761905Y-133736428D02*
X222809524Y-133641190D01*
X222809524Y-133641190D02*
X222857143Y-133593571D01*
X222857143Y-133593571D02*
X222952381Y-133545952D01*
X222952381Y-133545952D02*
X223095238Y-133545952D01*
X223095238Y-133545952D02*
X223190476Y-133593571D01*
X223190476Y-133593571D02*
X223238095Y-133641190D01*
X223238095Y-133641190D02*
X223285714Y-133736428D01*
X223285714Y-133736428D02*
X223285714Y-134022142D01*
X223285714Y-134022142D02*
X223238095Y-134117380D01*
X223238095Y-134117380D02*
X223190476Y-134165000D01*
X223190476Y-134165000D02*
X223095238Y-134212619D01*
X223095238Y-134212619D02*
X222952381Y-134212619D01*
X223714286Y-134212619D02*
X223714286Y-133545952D01*
X223714286Y-133212619D02*
X223666667Y-133260238D01*
X223666667Y-133260238D02*
X223714286Y-133307857D01*
X223714286Y-133307857D02*
X223761905Y-133260238D01*
X223761905Y-133260238D02*
X223714286Y-133212619D01*
X223714286Y-133212619D02*
X223714286Y-133307857D01*
X224190476Y-133545952D02*
X224190476Y-134212619D01*
X224190476Y-133641190D02*
X224238095Y-133593571D01*
X224238095Y-133593571D02*
X224333333Y-133545952D01*
X224333333Y-133545952D02*
X224476190Y-133545952D01*
X224476190Y-133545952D02*
X224571428Y-133593571D01*
X224571428Y-133593571D02*
X224619047Y-133688809D01*
X224619047Y-133688809D02*
X224619047Y-134212619D01*
X224952381Y-133545952D02*
X225333333Y-133545952D01*
X225095238Y-133212619D02*
X225095238Y-134069761D01*
X225095238Y-134069761D02*
X225142857Y-134165000D01*
X225142857Y-134165000D02*
X225238095Y-134212619D01*
X225238095Y-134212619D02*
X225333333Y-134212619D01*
X220261905Y-128262619D02*
X220833333Y-128262619D01*
X220547619Y-129262619D02*
X220547619Y-128262619D01*
X221166667Y-129262619D02*
X221166667Y-128262619D01*
X221166667Y-128262619D02*
X221547619Y-128262619D01*
X221547619Y-128262619D02*
X221642857Y-128310238D01*
X221642857Y-128310238D02*
X221690476Y-128357857D01*
X221690476Y-128357857D02*
X221738095Y-128453095D01*
X221738095Y-128453095D02*
X221738095Y-128595952D01*
X221738095Y-128595952D02*
X221690476Y-128691190D01*
X221690476Y-128691190D02*
X221642857Y-128738809D01*
X221642857Y-128738809D02*
X221547619Y-128786428D01*
X221547619Y-128786428D02*
X221166667Y-128786428D01*
X222690476Y-129262619D02*
X222119048Y-129262619D01*
X222404762Y-129262619D02*
X222404762Y-128262619D01*
X222404762Y-128262619D02*
X222309524Y-128405476D01*
X222309524Y-128405476D02*
X222214286Y-128500714D01*
X222214286Y-128500714D02*
X222119048Y-128548333D01*
X223642857Y-129262619D02*
X223071429Y-129262619D01*
X223357143Y-129262619D02*
X223357143Y-128262619D01*
X223357143Y-128262619D02*
X223261905Y-128405476D01*
X223261905Y-128405476D02*
X223166667Y-128500714D01*
X223166667Y-128500714D02*
X223071429Y-128548333D01*
%TO.C,TP12*%
X222666666Y-133212619D02*
X223238094Y-133212619D01*
X222952380Y-134212619D02*
X222952380Y-133212619D01*
X223952380Y-134165000D02*
X223857142Y-134212619D01*
X223857142Y-134212619D02*
X223666666Y-134212619D01*
X223666666Y-134212619D02*
X223571428Y-134165000D01*
X223571428Y-134165000D02*
X223523809Y-134069761D01*
X223523809Y-134069761D02*
X223523809Y-133688809D01*
X223523809Y-133688809D02*
X223571428Y-133593571D01*
X223571428Y-133593571D02*
X223666666Y-133545952D01*
X223666666Y-133545952D02*
X223857142Y-133545952D01*
X223857142Y-133545952D02*
X223952380Y-133593571D01*
X223952380Y-133593571D02*
X223999999Y-133688809D01*
X223999999Y-133688809D02*
X223999999Y-133784047D01*
X223999999Y-133784047D02*
X223523809Y-133879285D01*
X224380952Y-134165000D02*
X224476190Y-134212619D01*
X224476190Y-134212619D02*
X224666666Y-134212619D01*
X224666666Y-134212619D02*
X224761904Y-134165000D01*
X224761904Y-134165000D02*
X224809523Y-134069761D01*
X224809523Y-134069761D02*
X224809523Y-134022142D01*
X224809523Y-134022142D02*
X224761904Y-133926904D01*
X224761904Y-133926904D02*
X224666666Y-133879285D01*
X224666666Y-133879285D02*
X224523809Y-133879285D01*
X224523809Y-133879285D02*
X224428571Y-133831666D01*
X224428571Y-133831666D02*
X224380952Y-133736428D01*
X224380952Y-133736428D02*
X224380952Y-133688809D01*
X224380952Y-133688809D02*
X224428571Y-133593571D01*
X224428571Y-133593571D02*
X224523809Y-133545952D01*
X224523809Y-133545952D02*
X224666666Y-133545952D01*
X224666666Y-133545952D02*
X224761904Y-133593571D01*
X225095238Y-133545952D02*
X225476190Y-133545952D01*
X225238095Y-133212619D02*
X225238095Y-134069761D01*
X225238095Y-134069761D02*
X225285714Y-134165000D01*
X225285714Y-134165000D02*
X225380952Y-134212619D01*
X225380952Y-134212619D02*
X225476190Y-134212619D01*
X225809524Y-134212619D02*
X225809524Y-133212619D01*
X225809524Y-133212619D02*
X226190476Y-133212619D01*
X226190476Y-133212619D02*
X226285714Y-133260238D01*
X226285714Y-133260238D02*
X226333333Y-133307857D01*
X226333333Y-133307857D02*
X226380952Y-133403095D01*
X226380952Y-133403095D02*
X226380952Y-133545952D01*
X226380952Y-133545952D02*
X226333333Y-133641190D01*
X226333333Y-133641190D02*
X226285714Y-133688809D01*
X226285714Y-133688809D02*
X226190476Y-133736428D01*
X226190476Y-133736428D02*
X225809524Y-133736428D01*
X226952381Y-134212619D02*
X226857143Y-134165000D01*
X226857143Y-134165000D02*
X226809524Y-134117380D01*
X226809524Y-134117380D02*
X226761905Y-134022142D01*
X226761905Y-134022142D02*
X226761905Y-133736428D01*
X226761905Y-133736428D02*
X226809524Y-133641190D01*
X226809524Y-133641190D02*
X226857143Y-133593571D01*
X226857143Y-133593571D02*
X226952381Y-133545952D01*
X226952381Y-133545952D02*
X227095238Y-133545952D01*
X227095238Y-133545952D02*
X227190476Y-133593571D01*
X227190476Y-133593571D02*
X227238095Y-133641190D01*
X227238095Y-133641190D02*
X227285714Y-133736428D01*
X227285714Y-133736428D02*
X227285714Y-134022142D01*
X227285714Y-134022142D02*
X227238095Y-134117380D01*
X227238095Y-134117380D02*
X227190476Y-134165000D01*
X227190476Y-134165000D02*
X227095238Y-134212619D01*
X227095238Y-134212619D02*
X226952381Y-134212619D01*
X227714286Y-134212619D02*
X227714286Y-133545952D01*
X227714286Y-133212619D02*
X227666667Y-133260238D01*
X227666667Y-133260238D02*
X227714286Y-133307857D01*
X227714286Y-133307857D02*
X227761905Y-133260238D01*
X227761905Y-133260238D02*
X227714286Y-133212619D01*
X227714286Y-133212619D02*
X227714286Y-133307857D01*
X228190476Y-133545952D02*
X228190476Y-134212619D01*
X228190476Y-133641190D02*
X228238095Y-133593571D01*
X228238095Y-133593571D02*
X228333333Y-133545952D01*
X228333333Y-133545952D02*
X228476190Y-133545952D01*
X228476190Y-133545952D02*
X228571428Y-133593571D01*
X228571428Y-133593571D02*
X228619047Y-133688809D01*
X228619047Y-133688809D02*
X228619047Y-134212619D01*
X228952381Y-133545952D02*
X229333333Y-133545952D01*
X229095238Y-133212619D02*
X229095238Y-134069761D01*
X229095238Y-134069761D02*
X229142857Y-134165000D01*
X229142857Y-134165000D02*
X229238095Y-134212619D01*
X229238095Y-134212619D02*
X229333333Y-134212619D01*
X224261905Y-128262619D02*
X224833333Y-128262619D01*
X224547619Y-129262619D02*
X224547619Y-128262619D01*
X225166667Y-129262619D02*
X225166667Y-128262619D01*
X225166667Y-128262619D02*
X225547619Y-128262619D01*
X225547619Y-128262619D02*
X225642857Y-128310238D01*
X225642857Y-128310238D02*
X225690476Y-128357857D01*
X225690476Y-128357857D02*
X225738095Y-128453095D01*
X225738095Y-128453095D02*
X225738095Y-128595952D01*
X225738095Y-128595952D02*
X225690476Y-128691190D01*
X225690476Y-128691190D02*
X225642857Y-128738809D01*
X225642857Y-128738809D02*
X225547619Y-128786428D01*
X225547619Y-128786428D02*
X225166667Y-128786428D01*
X226690476Y-129262619D02*
X226119048Y-129262619D01*
X226404762Y-129262619D02*
X226404762Y-128262619D01*
X226404762Y-128262619D02*
X226309524Y-128405476D01*
X226309524Y-128405476D02*
X226214286Y-128500714D01*
X226214286Y-128500714D02*
X226119048Y-128548333D01*
X227071429Y-128357857D02*
X227119048Y-128310238D01*
X227119048Y-128310238D02*
X227214286Y-128262619D01*
X227214286Y-128262619D02*
X227452381Y-128262619D01*
X227452381Y-128262619D02*
X227547619Y-128310238D01*
X227547619Y-128310238D02*
X227595238Y-128357857D01*
X227595238Y-128357857D02*
X227642857Y-128453095D01*
X227642857Y-128453095D02*
X227642857Y-128548333D01*
X227642857Y-128548333D02*
X227595238Y-128691190D01*
X227595238Y-128691190D02*
X227023810Y-129262619D01*
X227023810Y-129262619D02*
X227642857Y-129262619D01*
%TO.C,TP10*%
X216666666Y-134912619D02*
X217238094Y-134912619D01*
X216952380Y-135912619D02*
X216952380Y-134912619D01*
X217952380Y-135865000D02*
X217857142Y-135912619D01*
X217857142Y-135912619D02*
X217666666Y-135912619D01*
X217666666Y-135912619D02*
X217571428Y-135865000D01*
X217571428Y-135865000D02*
X217523809Y-135769761D01*
X217523809Y-135769761D02*
X217523809Y-135388809D01*
X217523809Y-135388809D02*
X217571428Y-135293571D01*
X217571428Y-135293571D02*
X217666666Y-135245952D01*
X217666666Y-135245952D02*
X217857142Y-135245952D01*
X217857142Y-135245952D02*
X217952380Y-135293571D01*
X217952380Y-135293571D02*
X217999999Y-135388809D01*
X217999999Y-135388809D02*
X217999999Y-135484047D01*
X217999999Y-135484047D02*
X217523809Y-135579285D01*
X218380952Y-135865000D02*
X218476190Y-135912619D01*
X218476190Y-135912619D02*
X218666666Y-135912619D01*
X218666666Y-135912619D02*
X218761904Y-135865000D01*
X218761904Y-135865000D02*
X218809523Y-135769761D01*
X218809523Y-135769761D02*
X218809523Y-135722142D01*
X218809523Y-135722142D02*
X218761904Y-135626904D01*
X218761904Y-135626904D02*
X218666666Y-135579285D01*
X218666666Y-135579285D02*
X218523809Y-135579285D01*
X218523809Y-135579285D02*
X218428571Y-135531666D01*
X218428571Y-135531666D02*
X218380952Y-135436428D01*
X218380952Y-135436428D02*
X218380952Y-135388809D01*
X218380952Y-135388809D02*
X218428571Y-135293571D01*
X218428571Y-135293571D02*
X218523809Y-135245952D01*
X218523809Y-135245952D02*
X218666666Y-135245952D01*
X218666666Y-135245952D02*
X218761904Y-135293571D01*
X219095238Y-135245952D02*
X219476190Y-135245952D01*
X219238095Y-134912619D02*
X219238095Y-135769761D01*
X219238095Y-135769761D02*
X219285714Y-135865000D01*
X219285714Y-135865000D02*
X219380952Y-135912619D01*
X219380952Y-135912619D02*
X219476190Y-135912619D01*
X219809524Y-135912619D02*
X219809524Y-134912619D01*
X219809524Y-134912619D02*
X220190476Y-134912619D01*
X220190476Y-134912619D02*
X220285714Y-134960238D01*
X220285714Y-134960238D02*
X220333333Y-135007857D01*
X220333333Y-135007857D02*
X220380952Y-135103095D01*
X220380952Y-135103095D02*
X220380952Y-135245952D01*
X220380952Y-135245952D02*
X220333333Y-135341190D01*
X220333333Y-135341190D02*
X220285714Y-135388809D01*
X220285714Y-135388809D02*
X220190476Y-135436428D01*
X220190476Y-135436428D02*
X219809524Y-135436428D01*
X220952381Y-135912619D02*
X220857143Y-135865000D01*
X220857143Y-135865000D02*
X220809524Y-135817380D01*
X220809524Y-135817380D02*
X220761905Y-135722142D01*
X220761905Y-135722142D02*
X220761905Y-135436428D01*
X220761905Y-135436428D02*
X220809524Y-135341190D01*
X220809524Y-135341190D02*
X220857143Y-135293571D01*
X220857143Y-135293571D02*
X220952381Y-135245952D01*
X220952381Y-135245952D02*
X221095238Y-135245952D01*
X221095238Y-135245952D02*
X221190476Y-135293571D01*
X221190476Y-135293571D02*
X221238095Y-135341190D01*
X221238095Y-135341190D02*
X221285714Y-135436428D01*
X221285714Y-135436428D02*
X221285714Y-135722142D01*
X221285714Y-135722142D02*
X221238095Y-135817380D01*
X221238095Y-135817380D02*
X221190476Y-135865000D01*
X221190476Y-135865000D02*
X221095238Y-135912619D01*
X221095238Y-135912619D02*
X220952381Y-135912619D01*
X221714286Y-135912619D02*
X221714286Y-135245952D01*
X221714286Y-134912619D02*
X221666667Y-134960238D01*
X221666667Y-134960238D02*
X221714286Y-135007857D01*
X221714286Y-135007857D02*
X221761905Y-134960238D01*
X221761905Y-134960238D02*
X221714286Y-134912619D01*
X221714286Y-134912619D02*
X221714286Y-135007857D01*
X222190476Y-135245952D02*
X222190476Y-135912619D01*
X222190476Y-135341190D02*
X222238095Y-135293571D01*
X222238095Y-135293571D02*
X222333333Y-135245952D01*
X222333333Y-135245952D02*
X222476190Y-135245952D01*
X222476190Y-135245952D02*
X222571428Y-135293571D01*
X222571428Y-135293571D02*
X222619047Y-135388809D01*
X222619047Y-135388809D02*
X222619047Y-135912619D01*
X222952381Y-135245952D02*
X223333333Y-135245952D01*
X223095238Y-134912619D02*
X223095238Y-135769761D01*
X223095238Y-135769761D02*
X223142857Y-135865000D01*
X223142857Y-135865000D02*
X223238095Y-135912619D01*
X223238095Y-135912619D02*
X223333333Y-135912619D01*
X218261905Y-129962619D02*
X218833333Y-129962619D01*
X218547619Y-130962619D02*
X218547619Y-129962619D01*
X219166667Y-130962619D02*
X219166667Y-129962619D01*
X219166667Y-129962619D02*
X219547619Y-129962619D01*
X219547619Y-129962619D02*
X219642857Y-130010238D01*
X219642857Y-130010238D02*
X219690476Y-130057857D01*
X219690476Y-130057857D02*
X219738095Y-130153095D01*
X219738095Y-130153095D02*
X219738095Y-130295952D01*
X219738095Y-130295952D02*
X219690476Y-130391190D01*
X219690476Y-130391190D02*
X219642857Y-130438809D01*
X219642857Y-130438809D02*
X219547619Y-130486428D01*
X219547619Y-130486428D02*
X219166667Y-130486428D01*
X220690476Y-130962619D02*
X220119048Y-130962619D01*
X220404762Y-130962619D02*
X220404762Y-129962619D01*
X220404762Y-129962619D02*
X220309524Y-130105476D01*
X220309524Y-130105476D02*
X220214286Y-130200714D01*
X220214286Y-130200714D02*
X220119048Y-130248333D01*
X221309524Y-129962619D02*
X221404762Y-129962619D01*
X221404762Y-129962619D02*
X221500000Y-130010238D01*
X221500000Y-130010238D02*
X221547619Y-130057857D01*
X221547619Y-130057857D02*
X221595238Y-130153095D01*
X221595238Y-130153095D02*
X221642857Y-130343571D01*
X221642857Y-130343571D02*
X221642857Y-130581666D01*
X221642857Y-130581666D02*
X221595238Y-130772142D01*
X221595238Y-130772142D02*
X221547619Y-130867380D01*
X221547619Y-130867380D02*
X221500000Y-130915000D01*
X221500000Y-130915000D02*
X221404762Y-130962619D01*
X221404762Y-130962619D02*
X221309524Y-130962619D01*
X221309524Y-130962619D02*
X221214286Y-130915000D01*
X221214286Y-130915000D02*
X221166667Y-130867380D01*
X221166667Y-130867380D02*
X221119048Y-130772142D01*
X221119048Y-130772142D02*
X221071429Y-130581666D01*
X221071429Y-130581666D02*
X221071429Y-130343571D01*
X221071429Y-130343571D02*
X221119048Y-130153095D01*
X221119048Y-130153095D02*
X221166667Y-130057857D01*
X221166667Y-130057857D02*
X221214286Y-130010238D01*
X221214286Y-130010238D02*
X221309524Y-129962619D01*
%TO.C,J5*%
X214666666Y-135462619D02*
X214666666Y-136176904D01*
X214666666Y-136176904D02*
X214619047Y-136319761D01*
X214619047Y-136319761D02*
X214523809Y-136415000D01*
X214523809Y-136415000D02*
X214380952Y-136462619D01*
X214380952Y-136462619D02*
X214285714Y-136462619D01*
X215619047Y-135462619D02*
X215142857Y-135462619D01*
X215142857Y-135462619D02*
X215095238Y-135938809D01*
X215095238Y-135938809D02*
X215142857Y-135891190D01*
X215142857Y-135891190D02*
X215238095Y-135843571D01*
X215238095Y-135843571D02*
X215476190Y-135843571D01*
X215476190Y-135843571D02*
X215571428Y-135891190D01*
X215571428Y-135891190D02*
X215619047Y-135938809D01*
X215619047Y-135938809D02*
X215666666Y-136034047D01*
X215666666Y-136034047D02*
X215666666Y-136272142D01*
X215666666Y-136272142D02*
X215619047Y-136367380D01*
X215619047Y-136367380D02*
X215571428Y-136415000D01*
X215571428Y-136415000D02*
X215476190Y-136462619D01*
X215476190Y-136462619D02*
X215238095Y-136462619D01*
X215238095Y-136462619D02*
X215142857Y-136415000D01*
X215142857Y-136415000D02*
X215095238Y-136367380D01*
%TO.C,TP21*%
X225166666Y-145832619D02*
X225738094Y-145832619D01*
X225452380Y-146832619D02*
X225452380Y-145832619D01*
X226452380Y-146785000D02*
X226357142Y-146832619D01*
X226357142Y-146832619D02*
X226166666Y-146832619D01*
X226166666Y-146832619D02*
X226071428Y-146785000D01*
X226071428Y-146785000D02*
X226023809Y-146689761D01*
X226023809Y-146689761D02*
X226023809Y-146308809D01*
X226023809Y-146308809D02*
X226071428Y-146213571D01*
X226071428Y-146213571D02*
X226166666Y-146165952D01*
X226166666Y-146165952D02*
X226357142Y-146165952D01*
X226357142Y-146165952D02*
X226452380Y-146213571D01*
X226452380Y-146213571D02*
X226499999Y-146308809D01*
X226499999Y-146308809D02*
X226499999Y-146404047D01*
X226499999Y-146404047D02*
X226023809Y-146499285D01*
X226880952Y-146785000D02*
X226976190Y-146832619D01*
X226976190Y-146832619D02*
X227166666Y-146832619D01*
X227166666Y-146832619D02*
X227261904Y-146785000D01*
X227261904Y-146785000D02*
X227309523Y-146689761D01*
X227309523Y-146689761D02*
X227309523Y-146642142D01*
X227309523Y-146642142D02*
X227261904Y-146546904D01*
X227261904Y-146546904D02*
X227166666Y-146499285D01*
X227166666Y-146499285D02*
X227023809Y-146499285D01*
X227023809Y-146499285D02*
X226928571Y-146451666D01*
X226928571Y-146451666D02*
X226880952Y-146356428D01*
X226880952Y-146356428D02*
X226880952Y-146308809D01*
X226880952Y-146308809D02*
X226928571Y-146213571D01*
X226928571Y-146213571D02*
X227023809Y-146165952D01*
X227023809Y-146165952D02*
X227166666Y-146165952D01*
X227166666Y-146165952D02*
X227261904Y-146213571D01*
X227595238Y-146165952D02*
X227976190Y-146165952D01*
X227738095Y-145832619D02*
X227738095Y-146689761D01*
X227738095Y-146689761D02*
X227785714Y-146785000D01*
X227785714Y-146785000D02*
X227880952Y-146832619D01*
X227880952Y-146832619D02*
X227976190Y-146832619D01*
X228309524Y-146832619D02*
X228309524Y-145832619D01*
X228309524Y-145832619D02*
X228690476Y-145832619D01*
X228690476Y-145832619D02*
X228785714Y-145880238D01*
X228785714Y-145880238D02*
X228833333Y-145927857D01*
X228833333Y-145927857D02*
X228880952Y-146023095D01*
X228880952Y-146023095D02*
X228880952Y-146165952D01*
X228880952Y-146165952D02*
X228833333Y-146261190D01*
X228833333Y-146261190D02*
X228785714Y-146308809D01*
X228785714Y-146308809D02*
X228690476Y-146356428D01*
X228690476Y-146356428D02*
X228309524Y-146356428D01*
X229452381Y-146832619D02*
X229357143Y-146785000D01*
X229357143Y-146785000D02*
X229309524Y-146737380D01*
X229309524Y-146737380D02*
X229261905Y-146642142D01*
X229261905Y-146642142D02*
X229261905Y-146356428D01*
X229261905Y-146356428D02*
X229309524Y-146261190D01*
X229309524Y-146261190D02*
X229357143Y-146213571D01*
X229357143Y-146213571D02*
X229452381Y-146165952D01*
X229452381Y-146165952D02*
X229595238Y-146165952D01*
X229595238Y-146165952D02*
X229690476Y-146213571D01*
X229690476Y-146213571D02*
X229738095Y-146261190D01*
X229738095Y-146261190D02*
X229785714Y-146356428D01*
X229785714Y-146356428D02*
X229785714Y-146642142D01*
X229785714Y-146642142D02*
X229738095Y-146737380D01*
X229738095Y-146737380D02*
X229690476Y-146785000D01*
X229690476Y-146785000D02*
X229595238Y-146832619D01*
X229595238Y-146832619D02*
X229452381Y-146832619D01*
X230214286Y-146832619D02*
X230214286Y-146165952D01*
X230214286Y-145832619D02*
X230166667Y-145880238D01*
X230166667Y-145880238D02*
X230214286Y-145927857D01*
X230214286Y-145927857D02*
X230261905Y-145880238D01*
X230261905Y-145880238D02*
X230214286Y-145832619D01*
X230214286Y-145832619D02*
X230214286Y-145927857D01*
X230690476Y-146165952D02*
X230690476Y-146832619D01*
X230690476Y-146261190D02*
X230738095Y-146213571D01*
X230738095Y-146213571D02*
X230833333Y-146165952D01*
X230833333Y-146165952D02*
X230976190Y-146165952D01*
X230976190Y-146165952D02*
X231071428Y-146213571D01*
X231071428Y-146213571D02*
X231119047Y-146308809D01*
X231119047Y-146308809D02*
X231119047Y-146832619D01*
X231452381Y-146165952D02*
X231833333Y-146165952D01*
X231595238Y-145832619D02*
X231595238Y-146689761D01*
X231595238Y-146689761D02*
X231642857Y-146785000D01*
X231642857Y-146785000D02*
X231738095Y-146832619D01*
X231738095Y-146832619D02*
X231833333Y-146832619D01*
X226761905Y-140882619D02*
X227333333Y-140882619D01*
X227047619Y-141882619D02*
X227047619Y-140882619D01*
X227666667Y-141882619D02*
X227666667Y-140882619D01*
X227666667Y-140882619D02*
X228047619Y-140882619D01*
X228047619Y-140882619D02*
X228142857Y-140930238D01*
X228142857Y-140930238D02*
X228190476Y-140977857D01*
X228190476Y-140977857D02*
X228238095Y-141073095D01*
X228238095Y-141073095D02*
X228238095Y-141215952D01*
X228238095Y-141215952D02*
X228190476Y-141311190D01*
X228190476Y-141311190D02*
X228142857Y-141358809D01*
X228142857Y-141358809D02*
X228047619Y-141406428D01*
X228047619Y-141406428D02*
X227666667Y-141406428D01*
X228619048Y-140977857D02*
X228666667Y-140930238D01*
X228666667Y-140930238D02*
X228761905Y-140882619D01*
X228761905Y-140882619D02*
X229000000Y-140882619D01*
X229000000Y-140882619D02*
X229095238Y-140930238D01*
X229095238Y-140930238D02*
X229142857Y-140977857D01*
X229142857Y-140977857D02*
X229190476Y-141073095D01*
X229190476Y-141073095D02*
X229190476Y-141168333D01*
X229190476Y-141168333D02*
X229142857Y-141311190D01*
X229142857Y-141311190D02*
X228571429Y-141882619D01*
X228571429Y-141882619D02*
X229190476Y-141882619D01*
X230142857Y-141882619D02*
X229571429Y-141882619D01*
X229857143Y-141882619D02*
X229857143Y-140882619D01*
X229857143Y-140882619D02*
X229761905Y-141025476D01*
X229761905Y-141025476D02*
X229666667Y-141120714D01*
X229666667Y-141120714D02*
X229571429Y-141168333D01*
%TO.C,TP1*%
X208166666Y-138212619D02*
X208738094Y-138212619D01*
X208452380Y-139212619D02*
X208452380Y-138212619D01*
X209452380Y-139165000D02*
X209357142Y-139212619D01*
X209357142Y-139212619D02*
X209166666Y-139212619D01*
X209166666Y-139212619D02*
X209071428Y-139165000D01*
X209071428Y-139165000D02*
X209023809Y-139069761D01*
X209023809Y-139069761D02*
X209023809Y-138688809D01*
X209023809Y-138688809D02*
X209071428Y-138593571D01*
X209071428Y-138593571D02*
X209166666Y-138545952D01*
X209166666Y-138545952D02*
X209357142Y-138545952D01*
X209357142Y-138545952D02*
X209452380Y-138593571D01*
X209452380Y-138593571D02*
X209499999Y-138688809D01*
X209499999Y-138688809D02*
X209499999Y-138784047D01*
X209499999Y-138784047D02*
X209023809Y-138879285D01*
X209880952Y-139165000D02*
X209976190Y-139212619D01*
X209976190Y-139212619D02*
X210166666Y-139212619D01*
X210166666Y-139212619D02*
X210261904Y-139165000D01*
X210261904Y-139165000D02*
X210309523Y-139069761D01*
X210309523Y-139069761D02*
X210309523Y-139022142D01*
X210309523Y-139022142D02*
X210261904Y-138926904D01*
X210261904Y-138926904D02*
X210166666Y-138879285D01*
X210166666Y-138879285D02*
X210023809Y-138879285D01*
X210023809Y-138879285D02*
X209928571Y-138831666D01*
X209928571Y-138831666D02*
X209880952Y-138736428D01*
X209880952Y-138736428D02*
X209880952Y-138688809D01*
X209880952Y-138688809D02*
X209928571Y-138593571D01*
X209928571Y-138593571D02*
X210023809Y-138545952D01*
X210023809Y-138545952D02*
X210166666Y-138545952D01*
X210166666Y-138545952D02*
X210261904Y-138593571D01*
X210595238Y-138545952D02*
X210976190Y-138545952D01*
X210738095Y-138212619D02*
X210738095Y-139069761D01*
X210738095Y-139069761D02*
X210785714Y-139165000D01*
X210785714Y-139165000D02*
X210880952Y-139212619D01*
X210880952Y-139212619D02*
X210976190Y-139212619D01*
X211309524Y-139212619D02*
X211309524Y-138212619D01*
X211309524Y-138212619D02*
X211690476Y-138212619D01*
X211690476Y-138212619D02*
X211785714Y-138260238D01*
X211785714Y-138260238D02*
X211833333Y-138307857D01*
X211833333Y-138307857D02*
X211880952Y-138403095D01*
X211880952Y-138403095D02*
X211880952Y-138545952D01*
X211880952Y-138545952D02*
X211833333Y-138641190D01*
X211833333Y-138641190D02*
X211785714Y-138688809D01*
X211785714Y-138688809D02*
X211690476Y-138736428D01*
X211690476Y-138736428D02*
X211309524Y-138736428D01*
X212452381Y-139212619D02*
X212357143Y-139165000D01*
X212357143Y-139165000D02*
X212309524Y-139117380D01*
X212309524Y-139117380D02*
X212261905Y-139022142D01*
X212261905Y-139022142D02*
X212261905Y-138736428D01*
X212261905Y-138736428D02*
X212309524Y-138641190D01*
X212309524Y-138641190D02*
X212357143Y-138593571D01*
X212357143Y-138593571D02*
X212452381Y-138545952D01*
X212452381Y-138545952D02*
X212595238Y-138545952D01*
X212595238Y-138545952D02*
X212690476Y-138593571D01*
X212690476Y-138593571D02*
X212738095Y-138641190D01*
X212738095Y-138641190D02*
X212785714Y-138736428D01*
X212785714Y-138736428D02*
X212785714Y-139022142D01*
X212785714Y-139022142D02*
X212738095Y-139117380D01*
X212738095Y-139117380D02*
X212690476Y-139165000D01*
X212690476Y-139165000D02*
X212595238Y-139212619D01*
X212595238Y-139212619D02*
X212452381Y-139212619D01*
X213214286Y-139212619D02*
X213214286Y-138545952D01*
X213214286Y-138212619D02*
X213166667Y-138260238D01*
X213166667Y-138260238D02*
X213214286Y-138307857D01*
X213214286Y-138307857D02*
X213261905Y-138260238D01*
X213261905Y-138260238D02*
X213214286Y-138212619D01*
X213214286Y-138212619D02*
X213214286Y-138307857D01*
X213690476Y-138545952D02*
X213690476Y-139212619D01*
X213690476Y-138641190D02*
X213738095Y-138593571D01*
X213738095Y-138593571D02*
X213833333Y-138545952D01*
X213833333Y-138545952D02*
X213976190Y-138545952D01*
X213976190Y-138545952D02*
X214071428Y-138593571D01*
X214071428Y-138593571D02*
X214119047Y-138688809D01*
X214119047Y-138688809D02*
X214119047Y-139212619D01*
X214452381Y-138545952D02*
X214833333Y-138545952D01*
X214595238Y-138212619D02*
X214595238Y-139069761D01*
X214595238Y-139069761D02*
X214642857Y-139165000D01*
X214642857Y-139165000D02*
X214738095Y-139212619D01*
X214738095Y-139212619D02*
X214833333Y-139212619D01*
X210238095Y-133262619D02*
X210809523Y-133262619D01*
X210523809Y-134262619D02*
X210523809Y-133262619D01*
X211142857Y-134262619D02*
X211142857Y-133262619D01*
X211142857Y-133262619D02*
X211523809Y-133262619D01*
X211523809Y-133262619D02*
X211619047Y-133310238D01*
X211619047Y-133310238D02*
X211666666Y-133357857D01*
X211666666Y-133357857D02*
X211714285Y-133453095D01*
X211714285Y-133453095D02*
X211714285Y-133595952D01*
X211714285Y-133595952D02*
X211666666Y-133691190D01*
X211666666Y-133691190D02*
X211619047Y-133738809D01*
X211619047Y-133738809D02*
X211523809Y-133786428D01*
X211523809Y-133786428D02*
X211142857Y-133786428D01*
X212666666Y-134262619D02*
X212095238Y-134262619D01*
X212380952Y-134262619D02*
X212380952Y-133262619D01*
X212380952Y-133262619D02*
X212285714Y-133405476D01*
X212285714Y-133405476D02*
X212190476Y-133500714D01*
X212190476Y-133500714D02*
X212095238Y-133548333D01*
%TO.C,TP19*%
X225166666Y-140752619D02*
X225738094Y-140752619D01*
X225452380Y-141752619D02*
X225452380Y-140752619D01*
X226452380Y-141705000D02*
X226357142Y-141752619D01*
X226357142Y-141752619D02*
X226166666Y-141752619D01*
X226166666Y-141752619D02*
X226071428Y-141705000D01*
X226071428Y-141705000D02*
X226023809Y-141609761D01*
X226023809Y-141609761D02*
X226023809Y-141228809D01*
X226023809Y-141228809D02*
X226071428Y-141133571D01*
X226071428Y-141133571D02*
X226166666Y-141085952D01*
X226166666Y-141085952D02*
X226357142Y-141085952D01*
X226357142Y-141085952D02*
X226452380Y-141133571D01*
X226452380Y-141133571D02*
X226499999Y-141228809D01*
X226499999Y-141228809D02*
X226499999Y-141324047D01*
X226499999Y-141324047D02*
X226023809Y-141419285D01*
X226880952Y-141705000D02*
X226976190Y-141752619D01*
X226976190Y-141752619D02*
X227166666Y-141752619D01*
X227166666Y-141752619D02*
X227261904Y-141705000D01*
X227261904Y-141705000D02*
X227309523Y-141609761D01*
X227309523Y-141609761D02*
X227309523Y-141562142D01*
X227309523Y-141562142D02*
X227261904Y-141466904D01*
X227261904Y-141466904D02*
X227166666Y-141419285D01*
X227166666Y-141419285D02*
X227023809Y-141419285D01*
X227023809Y-141419285D02*
X226928571Y-141371666D01*
X226928571Y-141371666D02*
X226880952Y-141276428D01*
X226880952Y-141276428D02*
X226880952Y-141228809D01*
X226880952Y-141228809D02*
X226928571Y-141133571D01*
X226928571Y-141133571D02*
X227023809Y-141085952D01*
X227023809Y-141085952D02*
X227166666Y-141085952D01*
X227166666Y-141085952D02*
X227261904Y-141133571D01*
X227595238Y-141085952D02*
X227976190Y-141085952D01*
X227738095Y-140752619D02*
X227738095Y-141609761D01*
X227738095Y-141609761D02*
X227785714Y-141705000D01*
X227785714Y-141705000D02*
X227880952Y-141752619D01*
X227880952Y-141752619D02*
X227976190Y-141752619D01*
X228309524Y-141752619D02*
X228309524Y-140752619D01*
X228309524Y-140752619D02*
X228690476Y-140752619D01*
X228690476Y-140752619D02*
X228785714Y-140800238D01*
X228785714Y-140800238D02*
X228833333Y-140847857D01*
X228833333Y-140847857D02*
X228880952Y-140943095D01*
X228880952Y-140943095D02*
X228880952Y-141085952D01*
X228880952Y-141085952D02*
X228833333Y-141181190D01*
X228833333Y-141181190D02*
X228785714Y-141228809D01*
X228785714Y-141228809D02*
X228690476Y-141276428D01*
X228690476Y-141276428D02*
X228309524Y-141276428D01*
X229452381Y-141752619D02*
X229357143Y-141705000D01*
X229357143Y-141705000D02*
X229309524Y-141657380D01*
X229309524Y-141657380D02*
X229261905Y-141562142D01*
X229261905Y-141562142D02*
X229261905Y-141276428D01*
X229261905Y-141276428D02*
X229309524Y-141181190D01*
X229309524Y-141181190D02*
X229357143Y-141133571D01*
X229357143Y-141133571D02*
X229452381Y-141085952D01*
X229452381Y-141085952D02*
X229595238Y-141085952D01*
X229595238Y-141085952D02*
X229690476Y-141133571D01*
X229690476Y-141133571D02*
X229738095Y-141181190D01*
X229738095Y-141181190D02*
X229785714Y-141276428D01*
X229785714Y-141276428D02*
X229785714Y-141562142D01*
X229785714Y-141562142D02*
X229738095Y-141657380D01*
X229738095Y-141657380D02*
X229690476Y-141705000D01*
X229690476Y-141705000D02*
X229595238Y-141752619D01*
X229595238Y-141752619D02*
X229452381Y-141752619D01*
X230214286Y-141752619D02*
X230214286Y-141085952D01*
X230214286Y-140752619D02*
X230166667Y-140800238D01*
X230166667Y-140800238D02*
X230214286Y-140847857D01*
X230214286Y-140847857D02*
X230261905Y-140800238D01*
X230261905Y-140800238D02*
X230214286Y-140752619D01*
X230214286Y-140752619D02*
X230214286Y-140847857D01*
X230690476Y-141085952D02*
X230690476Y-141752619D01*
X230690476Y-141181190D02*
X230738095Y-141133571D01*
X230738095Y-141133571D02*
X230833333Y-141085952D01*
X230833333Y-141085952D02*
X230976190Y-141085952D01*
X230976190Y-141085952D02*
X231071428Y-141133571D01*
X231071428Y-141133571D02*
X231119047Y-141228809D01*
X231119047Y-141228809D02*
X231119047Y-141752619D01*
X231452381Y-141085952D02*
X231833333Y-141085952D01*
X231595238Y-140752619D02*
X231595238Y-141609761D01*
X231595238Y-141609761D02*
X231642857Y-141705000D01*
X231642857Y-141705000D02*
X231738095Y-141752619D01*
X231738095Y-141752619D02*
X231833333Y-141752619D01*
X226761905Y-135802619D02*
X227333333Y-135802619D01*
X227047619Y-136802619D02*
X227047619Y-135802619D01*
X227666667Y-136802619D02*
X227666667Y-135802619D01*
X227666667Y-135802619D02*
X228047619Y-135802619D01*
X228047619Y-135802619D02*
X228142857Y-135850238D01*
X228142857Y-135850238D02*
X228190476Y-135897857D01*
X228190476Y-135897857D02*
X228238095Y-135993095D01*
X228238095Y-135993095D02*
X228238095Y-136135952D01*
X228238095Y-136135952D02*
X228190476Y-136231190D01*
X228190476Y-136231190D02*
X228142857Y-136278809D01*
X228142857Y-136278809D02*
X228047619Y-136326428D01*
X228047619Y-136326428D02*
X227666667Y-136326428D01*
X229190476Y-136802619D02*
X228619048Y-136802619D01*
X228904762Y-136802619D02*
X228904762Y-135802619D01*
X228904762Y-135802619D02*
X228809524Y-135945476D01*
X228809524Y-135945476D02*
X228714286Y-136040714D01*
X228714286Y-136040714D02*
X228619048Y-136088333D01*
X229666667Y-136802619D02*
X229857143Y-136802619D01*
X229857143Y-136802619D02*
X229952381Y-136755000D01*
X229952381Y-136755000D02*
X230000000Y-136707380D01*
X230000000Y-136707380D02*
X230095238Y-136564523D01*
X230095238Y-136564523D02*
X230142857Y-136374047D01*
X230142857Y-136374047D02*
X230142857Y-135993095D01*
X230142857Y-135993095D02*
X230095238Y-135897857D01*
X230095238Y-135897857D02*
X230047619Y-135850238D01*
X230047619Y-135850238D02*
X229952381Y-135802619D01*
X229952381Y-135802619D02*
X229761905Y-135802619D01*
X229761905Y-135802619D02*
X229666667Y-135850238D01*
X229666667Y-135850238D02*
X229619048Y-135897857D01*
X229619048Y-135897857D02*
X229571429Y-135993095D01*
X229571429Y-135993095D02*
X229571429Y-136231190D01*
X229571429Y-136231190D02*
X229619048Y-136326428D01*
X229619048Y-136326428D02*
X229666667Y-136374047D01*
X229666667Y-136374047D02*
X229761905Y-136421666D01*
X229761905Y-136421666D02*
X229952381Y-136421666D01*
X229952381Y-136421666D02*
X230047619Y-136374047D01*
X230047619Y-136374047D02*
X230095238Y-136326428D01*
X230095238Y-136326428D02*
X230142857Y-136231190D01*
%TO.C,TP18*%
X225166666Y-138212619D02*
X225738094Y-138212619D01*
X225452380Y-139212619D02*
X225452380Y-138212619D01*
X226452380Y-139165000D02*
X226357142Y-139212619D01*
X226357142Y-139212619D02*
X226166666Y-139212619D01*
X226166666Y-139212619D02*
X226071428Y-139165000D01*
X226071428Y-139165000D02*
X226023809Y-139069761D01*
X226023809Y-139069761D02*
X226023809Y-138688809D01*
X226023809Y-138688809D02*
X226071428Y-138593571D01*
X226071428Y-138593571D02*
X226166666Y-138545952D01*
X226166666Y-138545952D02*
X226357142Y-138545952D01*
X226357142Y-138545952D02*
X226452380Y-138593571D01*
X226452380Y-138593571D02*
X226499999Y-138688809D01*
X226499999Y-138688809D02*
X226499999Y-138784047D01*
X226499999Y-138784047D02*
X226023809Y-138879285D01*
X226880952Y-139165000D02*
X226976190Y-139212619D01*
X226976190Y-139212619D02*
X227166666Y-139212619D01*
X227166666Y-139212619D02*
X227261904Y-139165000D01*
X227261904Y-139165000D02*
X227309523Y-139069761D01*
X227309523Y-139069761D02*
X227309523Y-139022142D01*
X227309523Y-139022142D02*
X227261904Y-138926904D01*
X227261904Y-138926904D02*
X227166666Y-138879285D01*
X227166666Y-138879285D02*
X227023809Y-138879285D01*
X227023809Y-138879285D02*
X226928571Y-138831666D01*
X226928571Y-138831666D02*
X226880952Y-138736428D01*
X226880952Y-138736428D02*
X226880952Y-138688809D01*
X226880952Y-138688809D02*
X226928571Y-138593571D01*
X226928571Y-138593571D02*
X227023809Y-138545952D01*
X227023809Y-138545952D02*
X227166666Y-138545952D01*
X227166666Y-138545952D02*
X227261904Y-138593571D01*
X227595238Y-138545952D02*
X227976190Y-138545952D01*
X227738095Y-138212619D02*
X227738095Y-139069761D01*
X227738095Y-139069761D02*
X227785714Y-139165000D01*
X227785714Y-139165000D02*
X227880952Y-139212619D01*
X227880952Y-139212619D02*
X227976190Y-139212619D01*
X228309524Y-139212619D02*
X228309524Y-138212619D01*
X228309524Y-138212619D02*
X228690476Y-138212619D01*
X228690476Y-138212619D02*
X228785714Y-138260238D01*
X228785714Y-138260238D02*
X228833333Y-138307857D01*
X228833333Y-138307857D02*
X228880952Y-138403095D01*
X228880952Y-138403095D02*
X228880952Y-138545952D01*
X228880952Y-138545952D02*
X228833333Y-138641190D01*
X228833333Y-138641190D02*
X228785714Y-138688809D01*
X228785714Y-138688809D02*
X228690476Y-138736428D01*
X228690476Y-138736428D02*
X228309524Y-138736428D01*
X229452381Y-139212619D02*
X229357143Y-139165000D01*
X229357143Y-139165000D02*
X229309524Y-139117380D01*
X229309524Y-139117380D02*
X229261905Y-139022142D01*
X229261905Y-139022142D02*
X229261905Y-138736428D01*
X229261905Y-138736428D02*
X229309524Y-138641190D01*
X229309524Y-138641190D02*
X229357143Y-138593571D01*
X229357143Y-138593571D02*
X229452381Y-138545952D01*
X229452381Y-138545952D02*
X229595238Y-138545952D01*
X229595238Y-138545952D02*
X229690476Y-138593571D01*
X229690476Y-138593571D02*
X229738095Y-138641190D01*
X229738095Y-138641190D02*
X229785714Y-138736428D01*
X229785714Y-138736428D02*
X229785714Y-139022142D01*
X229785714Y-139022142D02*
X229738095Y-139117380D01*
X229738095Y-139117380D02*
X229690476Y-139165000D01*
X229690476Y-139165000D02*
X229595238Y-139212619D01*
X229595238Y-139212619D02*
X229452381Y-139212619D01*
X230214286Y-139212619D02*
X230214286Y-138545952D01*
X230214286Y-138212619D02*
X230166667Y-138260238D01*
X230166667Y-138260238D02*
X230214286Y-138307857D01*
X230214286Y-138307857D02*
X230261905Y-138260238D01*
X230261905Y-138260238D02*
X230214286Y-138212619D01*
X230214286Y-138212619D02*
X230214286Y-138307857D01*
X230690476Y-138545952D02*
X230690476Y-139212619D01*
X230690476Y-138641190D02*
X230738095Y-138593571D01*
X230738095Y-138593571D02*
X230833333Y-138545952D01*
X230833333Y-138545952D02*
X230976190Y-138545952D01*
X230976190Y-138545952D02*
X231071428Y-138593571D01*
X231071428Y-138593571D02*
X231119047Y-138688809D01*
X231119047Y-138688809D02*
X231119047Y-139212619D01*
X231452381Y-138545952D02*
X231833333Y-138545952D01*
X231595238Y-138212619D02*
X231595238Y-139069761D01*
X231595238Y-139069761D02*
X231642857Y-139165000D01*
X231642857Y-139165000D02*
X231738095Y-139212619D01*
X231738095Y-139212619D02*
X231833333Y-139212619D01*
X226761905Y-133262619D02*
X227333333Y-133262619D01*
X227047619Y-134262619D02*
X227047619Y-133262619D01*
X227666667Y-134262619D02*
X227666667Y-133262619D01*
X227666667Y-133262619D02*
X228047619Y-133262619D01*
X228047619Y-133262619D02*
X228142857Y-133310238D01*
X228142857Y-133310238D02*
X228190476Y-133357857D01*
X228190476Y-133357857D02*
X228238095Y-133453095D01*
X228238095Y-133453095D02*
X228238095Y-133595952D01*
X228238095Y-133595952D02*
X228190476Y-133691190D01*
X228190476Y-133691190D02*
X228142857Y-133738809D01*
X228142857Y-133738809D02*
X228047619Y-133786428D01*
X228047619Y-133786428D02*
X227666667Y-133786428D01*
X229190476Y-134262619D02*
X228619048Y-134262619D01*
X228904762Y-134262619D02*
X228904762Y-133262619D01*
X228904762Y-133262619D02*
X228809524Y-133405476D01*
X228809524Y-133405476D02*
X228714286Y-133500714D01*
X228714286Y-133500714D02*
X228619048Y-133548333D01*
X229761905Y-133691190D02*
X229666667Y-133643571D01*
X229666667Y-133643571D02*
X229619048Y-133595952D01*
X229619048Y-133595952D02*
X229571429Y-133500714D01*
X229571429Y-133500714D02*
X229571429Y-133453095D01*
X229571429Y-133453095D02*
X229619048Y-133357857D01*
X229619048Y-133357857D02*
X229666667Y-133310238D01*
X229666667Y-133310238D02*
X229761905Y-133262619D01*
X229761905Y-133262619D02*
X229952381Y-133262619D01*
X229952381Y-133262619D02*
X230047619Y-133310238D01*
X230047619Y-133310238D02*
X230095238Y-133357857D01*
X230095238Y-133357857D02*
X230142857Y-133453095D01*
X230142857Y-133453095D02*
X230142857Y-133500714D01*
X230142857Y-133500714D02*
X230095238Y-133595952D01*
X230095238Y-133595952D02*
X230047619Y-133643571D01*
X230047619Y-133643571D02*
X229952381Y-133691190D01*
X229952381Y-133691190D02*
X229761905Y-133691190D01*
X229761905Y-133691190D02*
X229666667Y-133738809D01*
X229666667Y-133738809D02*
X229619048Y-133786428D01*
X229619048Y-133786428D02*
X229571429Y-133881666D01*
X229571429Y-133881666D02*
X229571429Y-134072142D01*
X229571429Y-134072142D02*
X229619048Y-134167380D01*
X229619048Y-134167380D02*
X229666667Y-134215000D01*
X229666667Y-134215000D02*
X229761905Y-134262619D01*
X229761905Y-134262619D02*
X229952381Y-134262619D01*
X229952381Y-134262619D02*
X230047619Y-134215000D01*
X230047619Y-134215000D02*
X230095238Y-134167380D01*
X230095238Y-134167380D02*
X230142857Y-134072142D01*
X230142857Y-134072142D02*
X230142857Y-133881666D01*
X230142857Y-133881666D02*
X230095238Y-133786428D01*
X230095238Y-133786428D02*
X230047619Y-133738809D01*
X230047619Y-133738809D02*
X229952381Y-133691190D01*
%TO.C,TP2*%
X208166666Y-140752619D02*
X208738094Y-140752619D01*
X208452380Y-141752619D02*
X208452380Y-140752619D01*
X209452380Y-141705000D02*
X209357142Y-141752619D01*
X209357142Y-141752619D02*
X209166666Y-141752619D01*
X209166666Y-141752619D02*
X209071428Y-141705000D01*
X209071428Y-141705000D02*
X209023809Y-141609761D01*
X209023809Y-141609761D02*
X209023809Y-141228809D01*
X209023809Y-141228809D02*
X209071428Y-141133571D01*
X209071428Y-141133571D02*
X209166666Y-141085952D01*
X209166666Y-141085952D02*
X209357142Y-141085952D01*
X209357142Y-141085952D02*
X209452380Y-141133571D01*
X209452380Y-141133571D02*
X209499999Y-141228809D01*
X209499999Y-141228809D02*
X209499999Y-141324047D01*
X209499999Y-141324047D02*
X209023809Y-141419285D01*
X209880952Y-141705000D02*
X209976190Y-141752619D01*
X209976190Y-141752619D02*
X210166666Y-141752619D01*
X210166666Y-141752619D02*
X210261904Y-141705000D01*
X210261904Y-141705000D02*
X210309523Y-141609761D01*
X210309523Y-141609761D02*
X210309523Y-141562142D01*
X210309523Y-141562142D02*
X210261904Y-141466904D01*
X210261904Y-141466904D02*
X210166666Y-141419285D01*
X210166666Y-141419285D02*
X210023809Y-141419285D01*
X210023809Y-141419285D02*
X209928571Y-141371666D01*
X209928571Y-141371666D02*
X209880952Y-141276428D01*
X209880952Y-141276428D02*
X209880952Y-141228809D01*
X209880952Y-141228809D02*
X209928571Y-141133571D01*
X209928571Y-141133571D02*
X210023809Y-141085952D01*
X210023809Y-141085952D02*
X210166666Y-141085952D01*
X210166666Y-141085952D02*
X210261904Y-141133571D01*
X210595238Y-141085952D02*
X210976190Y-141085952D01*
X210738095Y-140752619D02*
X210738095Y-141609761D01*
X210738095Y-141609761D02*
X210785714Y-141705000D01*
X210785714Y-141705000D02*
X210880952Y-141752619D01*
X210880952Y-141752619D02*
X210976190Y-141752619D01*
X211309524Y-141752619D02*
X211309524Y-140752619D01*
X211309524Y-140752619D02*
X211690476Y-140752619D01*
X211690476Y-140752619D02*
X211785714Y-140800238D01*
X211785714Y-140800238D02*
X211833333Y-140847857D01*
X211833333Y-140847857D02*
X211880952Y-140943095D01*
X211880952Y-140943095D02*
X211880952Y-141085952D01*
X211880952Y-141085952D02*
X211833333Y-141181190D01*
X211833333Y-141181190D02*
X211785714Y-141228809D01*
X211785714Y-141228809D02*
X211690476Y-141276428D01*
X211690476Y-141276428D02*
X211309524Y-141276428D01*
X212452381Y-141752619D02*
X212357143Y-141705000D01*
X212357143Y-141705000D02*
X212309524Y-141657380D01*
X212309524Y-141657380D02*
X212261905Y-141562142D01*
X212261905Y-141562142D02*
X212261905Y-141276428D01*
X212261905Y-141276428D02*
X212309524Y-141181190D01*
X212309524Y-141181190D02*
X212357143Y-141133571D01*
X212357143Y-141133571D02*
X212452381Y-141085952D01*
X212452381Y-141085952D02*
X212595238Y-141085952D01*
X212595238Y-141085952D02*
X212690476Y-141133571D01*
X212690476Y-141133571D02*
X212738095Y-141181190D01*
X212738095Y-141181190D02*
X212785714Y-141276428D01*
X212785714Y-141276428D02*
X212785714Y-141562142D01*
X212785714Y-141562142D02*
X212738095Y-141657380D01*
X212738095Y-141657380D02*
X212690476Y-141705000D01*
X212690476Y-141705000D02*
X212595238Y-141752619D01*
X212595238Y-141752619D02*
X212452381Y-141752619D01*
X213214286Y-141752619D02*
X213214286Y-141085952D01*
X213214286Y-140752619D02*
X213166667Y-140800238D01*
X213166667Y-140800238D02*
X213214286Y-140847857D01*
X213214286Y-140847857D02*
X213261905Y-140800238D01*
X213261905Y-140800238D02*
X213214286Y-140752619D01*
X213214286Y-140752619D02*
X213214286Y-140847857D01*
X213690476Y-141085952D02*
X213690476Y-141752619D01*
X213690476Y-141181190D02*
X213738095Y-141133571D01*
X213738095Y-141133571D02*
X213833333Y-141085952D01*
X213833333Y-141085952D02*
X213976190Y-141085952D01*
X213976190Y-141085952D02*
X214071428Y-141133571D01*
X214071428Y-141133571D02*
X214119047Y-141228809D01*
X214119047Y-141228809D02*
X214119047Y-141752619D01*
X214452381Y-141085952D02*
X214833333Y-141085952D01*
X214595238Y-140752619D02*
X214595238Y-141609761D01*
X214595238Y-141609761D02*
X214642857Y-141705000D01*
X214642857Y-141705000D02*
X214738095Y-141752619D01*
X214738095Y-141752619D02*
X214833333Y-141752619D01*
X204813095Y-134752619D02*
X205384523Y-134752619D01*
X205098809Y-135752619D02*
X205098809Y-134752619D01*
X205717857Y-135752619D02*
X205717857Y-134752619D01*
X205717857Y-134752619D02*
X206098809Y-134752619D01*
X206098809Y-134752619D02*
X206194047Y-134800238D01*
X206194047Y-134800238D02*
X206241666Y-134847857D01*
X206241666Y-134847857D02*
X206289285Y-134943095D01*
X206289285Y-134943095D02*
X206289285Y-135085952D01*
X206289285Y-135085952D02*
X206241666Y-135181190D01*
X206241666Y-135181190D02*
X206194047Y-135228809D01*
X206194047Y-135228809D02*
X206098809Y-135276428D01*
X206098809Y-135276428D02*
X205717857Y-135276428D01*
X206670238Y-134847857D02*
X206717857Y-134800238D01*
X206717857Y-134800238D02*
X206813095Y-134752619D01*
X206813095Y-134752619D02*
X207051190Y-134752619D01*
X207051190Y-134752619D02*
X207146428Y-134800238D01*
X207146428Y-134800238D02*
X207194047Y-134847857D01*
X207194047Y-134847857D02*
X207241666Y-134943095D01*
X207241666Y-134943095D02*
X207241666Y-135038333D01*
X207241666Y-135038333D02*
X207194047Y-135181190D01*
X207194047Y-135181190D02*
X206622619Y-135752619D01*
X206622619Y-135752619D02*
X207241666Y-135752619D01*
%TO.C,TP20*%
X225166666Y-143292619D02*
X225738094Y-143292619D01*
X225452380Y-144292619D02*
X225452380Y-143292619D01*
X226452380Y-144245000D02*
X226357142Y-144292619D01*
X226357142Y-144292619D02*
X226166666Y-144292619D01*
X226166666Y-144292619D02*
X226071428Y-144245000D01*
X226071428Y-144245000D02*
X226023809Y-144149761D01*
X226023809Y-144149761D02*
X226023809Y-143768809D01*
X226023809Y-143768809D02*
X226071428Y-143673571D01*
X226071428Y-143673571D02*
X226166666Y-143625952D01*
X226166666Y-143625952D02*
X226357142Y-143625952D01*
X226357142Y-143625952D02*
X226452380Y-143673571D01*
X226452380Y-143673571D02*
X226499999Y-143768809D01*
X226499999Y-143768809D02*
X226499999Y-143864047D01*
X226499999Y-143864047D02*
X226023809Y-143959285D01*
X226880952Y-144245000D02*
X226976190Y-144292619D01*
X226976190Y-144292619D02*
X227166666Y-144292619D01*
X227166666Y-144292619D02*
X227261904Y-144245000D01*
X227261904Y-144245000D02*
X227309523Y-144149761D01*
X227309523Y-144149761D02*
X227309523Y-144102142D01*
X227309523Y-144102142D02*
X227261904Y-144006904D01*
X227261904Y-144006904D02*
X227166666Y-143959285D01*
X227166666Y-143959285D02*
X227023809Y-143959285D01*
X227023809Y-143959285D02*
X226928571Y-143911666D01*
X226928571Y-143911666D02*
X226880952Y-143816428D01*
X226880952Y-143816428D02*
X226880952Y-143768809D01*
X226880952Y-143768809D02*
X226928571Y-143673571D01*
X226928571Y-143673571D02*
X227023809Y-143625952D01*
X227023809Y-143625952D02*
X227166666Y-143625952D01*
X227166666Y-143625952D02*
X227261904Y-143673571D01*
X227595238Y-143625952D02*
X227976190Y-143625952D01*
X227738095Y-143292619D02*
X227738095Y-144149761D01*
X227738095Y-144149761D02*
X227785714Y-144245000D01*
X227785714Y-144245000D02*
X227880952Y-144292619D01*
X227880952Y-144292619D02*
X227976190Y-144292619D01*
X228309524Y-144292619D02*
X228309524Y-143292619D01*
X228309524Y-143292619D02*
X228690476Y-143292619D01*
X228690476Y-143292619D02*
X228785714Y-143340238D01*
X228785714Y-143340238D02*
X228833333Y-143387857D01*
X228833333Y-143387857D02*
X228880952Y-143483095D01*
X228880952Y-143483095D02*
X228880952Y-143625952D01*
X228880952Y-143625952D02*
X228833333Y-143721190D01*
X228833333Y-143721190D02*
X228785714Y-143768809D01*
X228785714Y-143768809D02*
X228690476Y-143816428D01*
X228690476Y-143816428D02*
X228309524Y-143816428D01*
X229452381Y-144292619D02*
X229357143Y-144245000D01*
X229357143Y-144245000D02*
X229309524Y-144197380D01*
X229309524Y-144197380D02*
X229261905Y-144102142D01*
X229261905Y-144102142D02*
X229261905Y-143816428D01*
X229261905Y-143816428D02*
X229309524Y-143721190D01*
X229309524Y-143721190D02*
X229357143Y-143673571D01*
X229357143Y-143673571D02*
X229452381Y-143625952D01*
X229452381Y-143625952D02*
X229595238Y-143625952D01*
X229595238Y-143625952D02*
X229690476Y-143673571D01*
X229690476Y-143673571D02*
X229738095Y-143721190D01*
X229738095Y-143721190D02*
X229785714Y-143816428D01*
X229785714Y-143816428D02*
X229785714Y-144102142D01*
X229785714Y-144102142D02*
X229738095Y-144197380D01*
X229738095Y-144197380D02*
X229690476Y-144245000D01*
X229690476Y-144245000D02*
X229595238Y-144292619D01*
X229595238Y-144292619D02*
X229452381Y-144292619D01*
X230214286Y-144292619D02*
X230214286Y-143625952D01*
X230214286Y-143292619D02*
X230166667Y-143340238D01*
X230166667Y-143340238D02*
X230214286Y-143387857D01*
X230214286Y-143387857D02*
X230261905Y-143340238D01*
X230261905Y-143340238D02*
X230214286Y-143292619D01*
X230214286Y-143292619D02*
X230214286Y-143387857D01*
X230690476Y-143625952D02*
X230690476Y-144292619D01*
X230690476Y-143721190D02*
X230738095Y-143673571D01*
X230738095Y-143673571D02*
X230833333Y-143625952D01*
X230833333Y-143625952D02*
X230976190Y-143625952D01*
X230976190Y-143625952D02*
X231071428Y-143673571D01*
X231071428Y-143673571D02*
X231119047Y-143768809D01*
X231119047Y-143768809D02*
X231119047Y-144292619D01*
X231452381Y-143625952D02*
X231833333Y-143625952D01*
X231595238Y-143292619D02*
X231595238Y-144149761D01*
X231595238Y-144149761D02*
X231642857Y-144245000D01*
X231642857Y-144245000D02*
X231738095Y-144292619D01*
X231738095Y-144292619D02*
X231833333Y-144292619D01*
X226761905Y-138342619D02*
X227333333Y-138342619D01*
X227047619Y-139342619D02*
X227047619Y-138342619D01*
X227666667Y-139342619D02*
X227666667Y-138342619D01*
X227666667Y-138342619D02*
X228047619Y-138342619D01*
X228047619Y-138342619D02*
X228142857Y-138390238D01*
X228142857Y-138390238D02*
X228190476Y-138437857D01*
X228190476Y-138437857D02*
X228238095Y-138533095D01*
X228238095Y-138533095D02*
X228238095Y-138675952D01*
X228238095Y-138675952D02*
X228190476Y-138771190D01*
X228190476Y-138771190D02*
X228142857Y-138818809D01*
X228142857Y-138818809D02*
X228047619Y-138866428D01*
X228047619Y-138866428D02*
X227666667Y-138866428D01*
X228619048Y-138437857D02*
X228666667Y-138390238D01*
X228666667Y-138390238D02*
X228761905Y-138342619D01*
X228761905Y-138342619D02*
X229000000Y-138342619D01*
X229000000Y-138342619D02*
X229095238Y-138390238D01*
X229095238Y-138390238D02*
X229142857Y-138437857D01*
X229142857Y-138437857D02*
X229190476Y-138533095D01*
X229190476Y-138533095D02*
X229190476Y-138628333D01*
X229190476Y-138628333D02*
X229142857Y-138771190D01*
X229142857Y-138771190D02*
X228571429Y-139342619D01*
X228571429Y-139342619D02*
X229190476Y-139342619D01*
X229809524Y-138342619D02*
X229904762Y-138342619D01*
X229904762Y-138342619D02*
X230000000Y-138390238D01*
X230000000Y-138390238D02*
X230047619Y-138437857D01*
X230047619Y-138437857D02*
X230095238Y-138533095D01*
X230095238Y-138533095D02*
X230142857Y-138723571D01*
X230142857Y-138723571D02*
X230142857Y-138961666D01*
X230142857Y-138961666D02*
X230095238Y-139152142D01*
X230095238Y-139152142D02*
X230047619Y-139247380D01*
X230047619Y-139247380D02*
X230000000Y-139295000D01*
X230000000Y-139295000D02*
X229904762Y-139342619D01*
X229904762Y-139342619D02*
X229809524Y-139342619D01*
X229809524Y-139342619D02*
X229714286Y-139295000D01*
X229714286Y-139295000D02*
X229666667Y-139247380D01*
X229666667Y-139247380D02*
X229619048Y-139152142D01*
X229619048Y-139152142D02*
X229571429Y-138961666D01*
X229571429Y-138961666D02*
X229571429Y-138723571D01*
X229571429Y-138723571D02*
X229619048Y-138533095D01*
X229619048Y-138533095D02*
X229666667Y-138437857D01*
X229666667Y-138437857D02*
X229714286Y-138390238D01*
X229714286Y-138390238D02*
X229809524Y-138342619D01*
%TO.C,TP3*%
X208166666Y-143292619D02*
X208738094Y-143292619D01*
X208452380Y-144292619D02*
X208452380Y-143292619D01*
X209452380Y-144245000D02*
X209357142Y-144292619D01*
X209357142Y-144292619D02*
X209166666Y-144292619D01*
X209166666Y-144292619D02*
X209071428Y-144245000D01*
X209071428Y-144245000D02*
X209023809Y-144149761D01*
X209023809Y-144149761D02*
X209023809Y-143768809D01*
X209023809Y-143768809D02*
X209071428Y-143673571D01*
X209071428Y-143673571D02*
X209166666Y-143625952D01*
X209166666Y-143625952D02*
X209357142Y-143625952D01*
X209357142Y-143625952D02*
X209452380Y-143673571D01*
X209452380Y-143673571D02*
X209499999Y-143768809D01*
X209499999Y-143768809D02*
X209499999Y-143864047D01*
X209499999Y-143864047D02*
X209023809Y-143959285D01*
X209880952Y-144245000D02*
X209976190Y-144292619D01*
X209976190Y-144292619D02*
X210166666Y-144292619D01*
X210166666Y-144292619D02*
X210261904Y-144245000D01*
X210261904Y-144245000D02*
X210309523Y-144149761D01*
X210309523Y-144149761D02*
X210309523Y-144102142D01*
X210309523Y-144102142D02*
X210261904Y-144006904D01*
X210261904Y-144006904D02*
X210166666Y-143959285D01*
X210166666Y-143959285D02*
X210023809Y-143959285D01*
X210023809Y-143959285D02*
X209928571Y-143911666D01*
X209928571Y-143911666D02*
X209880952Y-143816428D01*
X209880952Y-143816428D02*
X209880952Y-143768809D01*
X209880952Y-143768809D02*
X209928571Y-143673571D01*
X209928571Y-143673571D02*
X210023809Y-143625952D01*
X210023809Y-143625952D02*
X210166666Y-143625952D01*
X210166666Y-143625952D02*
X210261904Y-143673571D01*
X210595238Y-143625952D02*
X210976190Y-143625952D01*
X210738095Y-143292619D02*
X210738095Y-144149761D01*
X210738095Y-144149761D02*
X210785714Y-144245000D01*
X210785714Y-144245000D02*
X210880952Y-144292619D01*
X210880952Y-144292619D02*
X210976190Y-144292619D01*
X211309524Y-144292619D02*
X211309524Y-143292619D01*
X211309524Y-143292619D02*
X211690476Y-143292619D01*
X211690476Y-143292619D02*
X211785714Y-143340238D01*
X211785714Y-143340238D02*
X211833333Y-143387857D01*
X211833333Y-143387857D02*
X211880952Y-143483095D01*
X211880952Y-143483095D02*
X211880952Y-143625952D01*
X211880952Y-143625952D02*
X211833333Y-143721190D01*
X211833333Y-143721190D02*
X211785714Y-143768809D01*
X211785714Y-143768809D02*
X211690476Y-143816428D01*
X211690476Y-143816428D02*
X211309524Y-143816428D01*
X212452381Y-144292619D02*
X212357143Y-144245000D01*
X212357143Y-144245000D02*
X212309524Y-144197380D01*
X212309524Y-144197380D02*
X212261905Y-144102142D01*
X212261905Y-144102142D02*
X212261905Y-143816428D01*
X212261905Y-143816428D02*
X212309524Y-143721190D01*
X212309524Y-143721190D02*
X212357143Y-143673571D01*
X212357143Y-143673571D02*
X212452381Y-143625952D01*
X212452381Y-143625952D02*
X212595238Y-143625952D01*
X212595238Y-143625952D02*
X212690476Y-143673571D01*
X212690476Y-143673571D02*
X212738095Y-143721190D01*
X212738095Y-143721190D02*
X212785714Y-143816428D01*
X212785714Y-143816428D02*
X212785714Y-144102142D01*
X212785714Y-144102142D02*
X212738095Y-144197380D01*
X212738095Y-144197380D02*
X212690476Y-144245000D01*
X212690476Y-144245000D02*
X212595238Y-144292619D01*
X212595238Y-144292619D02*
X212452381Y-144292619D01*
X213214286Y-144292619D02*
X213214286Y-143625952D01*
X213214286Y-143292619D02*
X213166667Y-143340238D01*
X213166667Y-143340238D02*
X213214286Y-143387857D01*
X213214286Y-143387857D02*
X213261905Y-143340238D01*
X213261905Y-143340238D02*
X213214286Y-143292619D01*
X213214286Y-143292619D02*
X213214286Y-143387857D01*
X213690476Y-143625952D02*
X213690476Y-144292619D01*
X213690476Y-143721190D02*
X213738095Y-143673571D01*
X213738095Y-143673571D02*
X213833333Y-143625952D01*
X213833333Y-143625952D02*
X213976190Y-143625952D01*
X213976190Y-143625952D02*
X214071428Y-143673571D01*
X214071428Y-143673571D02*
X214119047Y-143768809D01*
X214119047Y-143768809D02*
X214119047Y-144292619D01*
X214452381Y-143625952D02*
X214833333Y-143625952D01*
X214595238Y-143292619D02*
X214595238Y-144149761D01*
X214595238Y-144149761D02*
X214642857Y-144245000D01*
X214642857Y-144245000D02*
X214738095Y-144292619D01*
X214738095Y-144292619D02*
X214833333Y-144292619D01*
X210238095Y-138342619D02*
X210809523Y-138342619D01*
X210523809Y-139342619D02*
X210523809Y-138342619D01*
X211142857Y-139342619D02*
X211142857Y-138342619D01*
X211142857Y-138342619D02*
X211523809Y-138342619D01*
X211523809Y-138342619D02*
X211619047Y-138390238D01*
X211619047Y-138390238D02*
X211666666Y-138437857D01*
X211666666Y-138437857D02*
X211714285Y-138533095D01*
X211714285Y-138533095D02*
X211714285Y-138675952D01*
X211714285Y-138675952D02*
X211666666Y-138771190D01*
X211666666Y-138771190D02*
X211619047Y-138818809D01*
X211619047Y-138818809D02*
X211523809Y-138866428D01*
X211523809Y-138866428D02*
X211142857Y-138866428D01*
X212047619Y-138342619D02*
X212666666Y-138342619D01*
X212666666Y-138342619D02*
X212333333Y-138723571D01*
X212333333Y-138723571D02*
X212476190Y-138723571D01*
X212476190Y-138723571D02*
X212571428Y-138771190D01*
X212571428Y-138771190D02*
X212619047Y-138818809D01*
X212619047Y-138818809D02*
X212666666Y-138914047D01*
X212666666Y-138914047D02*
X212666666Y-139152142D01*
X212666666Y-139152142D02*
X212619047Y-139247380D01*
X212619047Y-139247380D02*
X212571428Y-139295000D01*
X212571428Y-139295000D02*
X212476190Y-139342619D01*
X212476190Y-139342619D02*
X212190476Y-139342619D01*
X212190476Y-139342619D02*
X212095238Y-139295000D01*
X212095238Y-139295000D02*
X212047619Y-139247380D01*
%TO.C,TP17*%
X227916666Y-111512619D02*
X228488094Y-111512619D01*
X228202380Y-112512619D02*
X228202380Y-111512619D01*
X229202380Y-112465000D02*
X229107142Y-112512619D01*
X229107142Y-112512619D02*
X228916666Y-112512619D01*
X228916666Y-112512619D02*
X228821428Y-112465000D01*
X228821428Y-112465000D02*
X228773809Y-112369761D01*
X228773809Y-112369761D02*
X228773809Y-111988809D01*
X228773809Y-111988809D02*
X228821428Y-111893571D01*
X228821428Y-111893571D02*
X228916666Y-111845952D01*
X228916666Y-111845952D02*
X229107142Y-111845952D01*
X229107142Y-111845952D02*
X229202380Y-111893571D01*
X229202380Y-111893571D02*
X229249999Y-111988809D01*
X229249999Y-111988809D02*
X229249999Y-112084047D01*
X229249999Y-112084047D02*
X228773809Y-112179285D01*
X229630952Y-112465000D02*
X229726190Y-112512619D01*
X229726190Y-112512619D02*
X229916666Y-112512619D01*
X229916666Y-112512619D02*
X230011904Y-112465000D01*
X230011904Y-112465000D02*
X230059523Y-112369761D01*
X230059523Y-112369761D02*
X230059523Y-112322142D01*
X230059523Y-112322142D02*
X230011904Y-112226904D01*
X230011904Y-112226904D02*
X229916666Y-112179285D01*
X229916666Y-112179285D02*
X229773809Y-112179285D01*
X229773809Y-112179285D02*
X229678571Y-112131666D01*
X229678571Y-112131666D02*
X229630952Y-112036428D01*
X229630952Y-112036428D02*
X229630952Y-111988809D01*
X229630952Y-111988809D02*
X229678571Y-111893571D01*
X229678571Y-111893571D02*
X229773809Y-111845952D01*
X229773809Y-111845952D02*
X229916666Y-111845952D01*
X229916666Y-111845952D02*
X230011904Y-111893571D01*
X230345238Y-111845952D02*
X230726190Y-111845952D01*
X230488095Y-111512619D02*
X230488095Y-112369761D01*
X230488095Y-112369761D02*
X230535714Y-112465000D01*
X230535714Y-112465000D02*
X230630952Y-112512619D01*
X230630952Y-112512619D02*
X230726190Y-112512619D01*
X231059524Y-112512619D02*
X231059524Y-111512619D01*
X231059524Y-111512619D02*
X231440476Y-111512619D01*
X231440476Y-111512619D02*
X231535714Y-111560238D01*
X231535714Y-111560238D02*
X231583333Y-111607857D01*
X231583333Y-111607857D02*
X231630952Y-111703095D01*
X231630952Y-111703095D02*
X231630952Y-111845952D01*
X231630952Y-111845952D02*
X231583333Y-111941190D01*
X231583333Y-111941190D02*
X231535714Y-111988809D01*
X231535714Y-111988809D02*
X231440476Y-112036428D01*
X231440476Y-112036428D02*
X231059524Y-112036428D01*
X232202381Y-112512619D02*
X232107143Y-112465000D01*
X232107143Y-112465000D02*
X232059524Y-112417380D01*
X232059524Y-112417380D02*
X232011905Y-112322142D01*
X232011905Y-112322142D02*
X232011905Y-112036428D01*
X232011905Y-112036428D02*
X232059524Y-111941190D01*
X232059524Y-111941190D02*
X232107143Y-111893571D01*
X232107143Y-111893571D02*
X232202381Y-111845952D01*
X232202381Y-111845952D02*
X232345238Y-111845952D01*
X232345238Y-111845952D02*
X232440476Y-111893571D01*
X232440476Y-111893571D02*
X232488095Y-111941190D01*
X232488095Y-111941190D02*
X232535714Y-112036428D01*
X232535714Y-112036428D02*
X232535714Y-112322142D01*
X232535714Y-112322142D02*
X232488095Y-112417380D01*
X232488095Y-112417380D02*
X232440476Y-112465000D01*
X232440476Y-112465000D02*
X232345238Y-112512619D01*
X232345238Y-112512619D02*
X232202381Y-112512619D01*
X232964286Y-112512619D02*
X232964286Y-111845952D01*
X232964286Y-111512619D02*
X232916667Y-111560238D01*
X232916667Y-111560238D02*
X232964286Y-111607857D01*
X232964286Y-111607857D02*
X233011905Y-111560238D01*
X233011905Y-111560238D02*
X232964286Y-111512619D01*
X232964286Y-111512619D02*
X232964286Y-111607857D01*
X233440476Y-111845952D02*
X233440476Y-112512619D01*
X233440476Y-111941190D02*
X233488095Y-111893571D01*
X233488095Y-111893571D02*
X233583333Y-111845952D01*
X233583333Y-111845952D02*
X233726190Y-111845952D01*
X233726190Y-111845952D02*
X233821428Y-111893571D01*
X233821428Y-111893571D02*
X233869047Y-111988809D01*
X233869047Y-111988809D02*
X233869047Y-112512619D01*
X234202381Y-111845952D02*
X234583333Y-111845952D01*
X234345238Y-111512619D02*
X234345238Y-112369761D01*
X234345238Y-112369761D02*
X234392857Y-112465000D01*
X234392857Y-112465000D02*
X234488095Y-112512619D01*
X234488095Y-112512619D02*
X234583333Y-112512619D01*
X229511905Y-106562619D02*
X230083333Y-106562619D01*
X229797619Y-107562619D02*
X229797619Y-106562619D01*
X230416667Y-107562619D02*
X230416667Y-106562619D01*
X230416667Y-106562619D02*
X230797619Y-106562619D01*
X230797619Y-106562619D02*
X230892857Y-106610238D01*
X230892857Y-106610238D02*
X230940476Y-106657857D01*
X230940476Y-106657857D02*
X230988095Y-106753095D01*
X230988095Y-106753095D02*
X230988095Y-106895952D01*
X230988095Y-106895952D02*
X230940476Y-106991190D01*
X230940476Y-106991190D02*
X230892857Y-107038809D01*
X230892857Y-107038809D02*
X230797619Y-107086428D01*
X230797619Y-107086428D02*
X230416667Y-107086428D01*
X231940476Y-107562619D02*
X231369048Y-107562619D01*
X231654762Y-107562619D02*
X231654762Y-106562619D01*
X231654762Y-106562619D02*
X231559524Y-106705476D01*
X231559524Y-106705476D02*
X231464286Y-106800714D01*
X231464286Y-106800714D02*
X231369048Y-106848333D01*
X232273810Y-106562619D02*
X232940476Y-106562619D01*
X232940476Y-106562619D02*
X232511905Y-107562619D01*
%TO.C,TP16*%
X224416666Y-111512619D02*
X224988094Y-111512619D01*
X224702380Y-112512619D02*
X224702380Y-111512619D01*
X225702380Y-112465000D02*
X225607142Y-112512619D01*
X225607142Y-112512619D02*
X225416666Y-112512619D01*
X225416666Y-112512619D02*
X225321428Y-112465000D01*
X225321428Y-112465000D02*
X225273809Y-112369761D01*
X225273809Y-112369761D02*
X225273809Y-111988809D01*
X225273809Y-111988809D02*
X225321428Y-111893571D01*
X225321428Y-111893571D02*
X225416666Y-111845952D01*
X225416666Y-111845952D02*
X225607142Y-111845952D01*
X225607142Y-111845952D02*
X225702380Y-111893571D01*
X225702380Y-111893571D02*
X225749999Y-111988809D01*
X225749999Y-111988809D02*
X225749999Y-112084047D01*
X225749999Y-112084047D02*
X225273809Y-112179285D01*
X226130952Y-112465000D02*
X226226190Y-112512619D01*
X226226190Y-112512619D02*
X226416666Y-112512619D01*
X226416666Y-112512619D02*
X226511904Y-112465000D01*
X226511904Y-112465000D02*
X226559523Y-112369761D01*
X226559523Y-112369761D02*
X226559523Y-112322142D01*
X226559523Y-112322142D02*
X226511904Y-112226904D01*
X226511904Y-112226904D02*
X226416666Y-112179285D01*
X226416666Y-112179285D02*
X226273809Y-112179285D01*
X226273809Y-112179285D02*
X226178571Y-112131666D01*
X226178571Y-112131666D02*
X226130952Y-112036428D01*
X226130952Y-112036428D02*
X226130952Y-111988809D01*
X226130952Y-111988809D02*
X226178571Y-111893571D01*
X226178571Y-111893571D02*
X226273809Y-111845952D01*
X226273809Y-111845952D02*
X226416666Y-111845952D01*
X226416666Y-111845952D02*
X226511904Y-111893571D01*
X226845238Y-111845952D02*
X227226190Y-111845952D01*
X226988095Y-111512619D02*
X226988095Y-112369761D01*
X226988095Y-112369761D02*
X227035714Y-112465000D01*
X227035714Y-112465000D02*
X227130952Y-112512619D01*
X227130952Y-112512619D02*
X227226190Y-112512619D01*
X227559524Y-112512619D02*
X227559524Y-111512619D01*
X227559524Y-111512619D02*
X227940476Y-111512619D01*
X227940476Y-111512619D02*
X228035714Y-111560238D01*
X228035714Y-111560238D02*
X228083333Y-111607857D01*
X228083333Y-111607857D02*
X228130952Y-111703095D01*
X228130952Y-111703095D02*
X228130952Y-111845952D01*
X228130952Y-111845952D02*
X228083333Y-111941190D01*
X228083333Y-111941190D02*
X228035714Y-111988809D01*
X228035714Y-111988809D02*
X227940476Y-112036428D01*
X227940476Y-112036428D02*
X227559524Y-112036428D01*
X228702381Y-112512619D02*
X228607143Y-112465000D01*
X228607143Y-112465000D02*
X228559524Y-112417380D01*
X228559524Y-112417380D02*
X228511905Y-112322142D01*
X228511905Y-112322142D02*
X228511905Y-112036428D01*
X228511905Y-112036428D02*
X228559524Y-111941190D01*
X228559524Y-111941190D02*
X228607143Y-111893571D01*
X228607143Y-111893571D02*
X228702381Y-111845952D01*
X228702381Y-111845952D02*
X228845238Y-111845952D01*
X228845238Y-111845952D02*
X228940476Y-111893571D01*
X228940476Y-111893571D02*
X228988095Y-111941190D01*
X228988095Y-111941190D02*
X229035714Y-112036428D01*
X229035714Y-112036428D02*
X229035714Y-112322142D01*
X229035714Y-112322142D02*
X228988095Y-112417380D01*
X228988095Y-112417380D02*
X228940476Y-112465000D01*
X228940476Y-112465000D02*
X228845238Y-112512619D01*
X228845238Y-112512619D02*
X228702381Y-112512619D01*
X229464286Y-112512619D02*
X229464286Y-111845952D01*
X229464286Y-111512619D02*
X229416667Y-111560238D01*
X229416667Y-111560238D02*
X229464286Y-111607857D01*
X229464286Y-111607857D02*
X229511905Y-111560238D01*
X229511905Y-111560238D02*
X229464286Y-111512619D01*
X229464286Y-111512619D02*
X229464286Y-111607857D01*
X229940476Y-111845952D02*
X229940476Y-112512619D01*
X229940476Y-111941190D02*
X229988095Y-111893571D01*
X229988095Y-111893571D02*
X230083333Y-111845952D01*
X230083333Y-111845952D02*
X230226190Y-111845952D01*
X230226190Y-111845952D02*
X230321428Y-111893571D01*
X230321428Y-111893571D02*
X230369047Y-111988809D01*
X230369047Y-111988809D02*
X230369047Y-112512619D01*
X230702381Y-111845952D02*
X231083333Y-111845952D01*
X230845238Y-111512619D02*
X230845238Y-112369761D01*
X230845238Y-112369761D02*
X230892857Y-112465000D01*
X230892857Y-112465000D02*
X230988095Y-112512619D01*
X230988095Y-112512619D02*
X231083333Y-112512619D01*
X226011905Y-106562619D02*
X226583333Y-106562619D01*
X226297619Y-107562619D02*
X226297619Y-106562619D01*
X226916667Y-107562619D02*
X226916667Y-106562619D01*
X226916667Y-106562619D02*
X227297619Y-106562619D01*
X227297619Y-106562619D02*
X227392857Y-106610238D01*
X227392857Y-106610238D02*
X227440476Y-106657857D01*
X227440476Y-106657857D02*
X227488095Y-106753095D01*
X227488095Y-106753095D02*
X227488095Y-106895952D01*
X227488095Y-106895952D02*
X227440476Y-106991190D01*
X227440476Y-106991190D02*
X227392857Y-107038809D01*
X227392857Y-107038809D02*
X227297619Y-107086428D01*
X227297619Y-107086428D02*
X226916667Y-107086428D01*
X228440476Y-107562619D02*
X227869048Y-107562619D01*
X228154762Y-107562619D02*
X228154762Y-106562619D01*
X228154762Y-106562619D02*
X228059524Y-106705476D01*
X228059524Y-106705476D02*
X227964286Y-106800714D01*
X227964286Y-106800714D02*
X227869048Y-106848333D01*
X229297619Y-106562619D02*
X229107143Y-106562619D01*
X229107143Y-106562619D02*
X229011905Y-106610238D01*
X229011905Y-106610238D02*
X228964286Y-106657857D01*
X228964286Y-106657857D02*
X228869048Y-106800714D01*
X228869048Y-106800714D02*
X228821429Y-106991190D01*
X228821429Y-106991190D02*
X228821429Y-107372142D01*
X228821429Y-107372142D02*
X228869048Y-107467380D01*
X228869048Y-107467380D02*
X228916667Y-107515000D01*
X228916667Y-107515000D02*
X229011905Y-107562619D01*
X229011905Y-107562619D02*
X229202381Y-107562619D01*
X229202381Y-107562619D02*
X229297619Y-107515000D01*
X229297619Y-107515000D02*
X229345238Y-107467380D01*
X229345238Y-107467380D02*
X229392857Y-107372142D01*
X229392857Y-107372142D02*
X229392857Y-107134047D01*
X229392857Y-107134047D02*
X229345238Y-107038809D01*
X229345238Y-107038809D02*
X229297619Y-106991190D01*
X229297619Y-106991190D02*
X229202381Y-106943571D01*
X229202381Y-106943571D02*
X229011905Y-106943571D01*
X229011905Y-106943571D02*
X228916667Y-106991190D01*
X228916667Y-106991190D02*
X228869048Y-107038809D01*
X228869048Y-107038809D02*
X228821429Y-107134047D01*
%TO.C,TP4*%
X208166666Y-145832619D02*
X208738094Y-145832619D01*
X208452380Y-146832619D02*
X208452380Y-145832619D01*
X209452380Y-146785000D02*
X209357142Y-146832619D01*
X209357142Y-146832619D02*
X209166666Y-146832619D01*
X209166666Y-146832619D02*
X209071428Y-146785000D01*
X209071428Y-146785000D02*
X209023809Y-146689761D01*
X209023809Y-146689761D02*
X209023809Y-146308809D01*
X209023809Y-146308809D02*
X209071428Y-146213571D01*
X209071428Y-146213571D02*
X209166666Y-146165952D01*
X209166666Y-146165952D02*
X209357142Y-146165952D01*
X209357142Y-146165952D02*
X209452380Y-146213571D01*
X209452380Y-146213571D02*
X209499999Y-146308809D01*
X209499999Y-146308809D02*
X209499999Y-146404047D01*
X209499999Y-146404047D02*
X209023809Y-146499285D01*
X209880952Y-146785000D02*
X209976190Y-146832619D01*
X209976190Y-146832619D02*
X210166666Y-146832619D01*
X210166666Y-146832619D02*
X210261904Y-146785000D01*
X210261904Y-146785000D02*
X210309523Y-146689761D01*
X210309523Y-146689761D02*
X210309523Y-146642142D01*
X210309523Y-146642142D02*
X210261904Y-146546904D01*
X210261904Y-146546904D02*
X210166666Y-146499285D01*
X210166666Y-146499285D02*
X210023809Y-146499285D01*
X210023809Y-146499285D02*
X209928571Y-146451666D01*
X209928571Y-146451666D02*
X209880952Y-146356428D01*
X209880952Y-146356428D02*
X209880952Y-146308809D01*
X209880952Y-146308809D02*
X209928571Y-146213571D01*
X209928571Y-146213571D02*
X210023809Y-146165952D01*
X210023809Y-146165952D02*
X210166666Y-146165952D01*
X210166666Y-146165952D02*
X210261904Y-146213571D01*
X210595238Y-146165952D02*
X210976190Y-146165952D01*
X210738095Y-145832619D02*
X210738095Y-146689761D01*
X210738095Y-146689761D02*
X210785714Y-146785000D01*
X210785714Y-146785000D02*
X210880952Y-146832619D01*
X210880952Y-146832619D02*
X210976190Y-146832619D01*
X211309524Y-146832619D02*
X211309524Y-145832619D01*
X211309524Y-145832619D02*
X211690476Y-145832619D01*
X211690476Y-145832619D02*
X211785714Y-145880238D01*
X211785714Y-145880238D02*
X211833333Y-145927857D01*
X211833333Y-145927857D02*
X211880952Y-146023095D01*
X211880952Y-146023095D02*
X211880952Y-146165952D01*
X211880952Y-146165952D02*
X211833333Y-146261190D01*
X211833333Y-146261190D02*
X211785714Y-146308809D01*
X211785714Y-146308809D02*
X211690476Y-146356428D01*
X211690476Y-146356428D02*
X211309524Y-146356428D01*
X212452381Y-146832619D02*
X212357143Y-146785000D01*
X212357143Y-146785000D02*
X212309524Y-146737380D01*
X212309524Y-146737380D02*
X212261905Y-146642142D01*
X212261905Y-146642142D02*
X212261905Y-146356428D01*
X212261905Y-146356428D02*
X212309524Y-146261190D01*
X212309524Y-146261190D02*
X212357143Y-146213571D01*
X212357143Y-146213571D02*
X212452381Y-146165952D01*
X212452381Y-146165952D02*
X212595238Y-146165952D01*
X212595238Y-146165952D02*
X212690476Y-146213571D01*
X212690476Y-146213571D02*
X212738095Y-146261190D01*
X212738095Y-146261190D02*
X212785714Y-146356428D01*
X212785714Y-146356428D02*
X212785714Y-146642142D01*
X212785714Y-146642142D02*
X212738095Y-146737380D01*
X212738095Y-146737380D02*
X212690476Y-146785000D01*
X212690476Y-146785000D02*
X212595238Y-146832619D01*
X212595238Y-146832619D02*
X212452381Y-146832619D01*
X213214286Y-146832619D02*
X213214286Y-146165952D01*
X213214286Y-145832619D02*
X213166667Y-145880238D01*
X213166667Y-145880238D02*
X213214286Y-145927857D01*
X213214286Y-145927857D02*
X213261905Y-145880238D01*
X213261905Y-145880238D02*
X213214286Y-145832619D01*
X213214286Y-145832619D02*
X213214286Y-145927857D01*
X213690476Y-146165952D02*
X213690476Y-146832619D01*
X213690476Y-146261190D02*
X213738095Y-146213571D01*
X213738095Y-146213571D02*
X213833333Y-146165952D01*
X213833333Y-146165952D02*
X213976190Y-146165952D01*
X213976190Y-146165952D02*
X214071428Y-146213571D01*
X214071428Y-146213571D02*
X214119047Y-146308809D01*
X214119047Y-146308809D02*
X214119047Y-146832619D01*
X214452381Y-146165952D02*
X214833333Y-146165952D01*
X214595238Y-145832619D02*
X214595238Y-146689761D01*
X214595238Y-146689761D02*
X214642857Y-146785000D01*
X214642857Y-146785000D02*
X214738095Y-146832619D01*
X214738095Y-146832619D02*
X214833333Y-146832619D01*
X210238095Y-140882619D02*
X210809523Y-140882619D01*
X210523809Y-141882619D02*
X210523809Y-140882619D01*
X211142857Y-141882619D02*
X211142857Y-140882619D01*
X211142857Y-140882619D02*
X211523809Y-140882619D01*
X211523809Y-140882619D02*
X211619047Y-140930238D01*
X211619047Y-140930238D02*
X211666666Y-140977857D01*
X211666666Y-140977857D02*
X211714285Y-141073095D01*
X211714285Y-141073095D02*
X211714285Y-141215952D01*
X211714285Y-141215952D02*
X211666666Y-141311190D01*
X211666666Y-141311190D02*
X211619047Y-141358809D01*
X211619047Y-141358809D02*
X211523809Y-141406428D01*
X211523809Y-141406428D02*
X211142857Y-141406428D01*
X212571428Y-141215952D02*
X212571428Y-141882619D01*
X212333333Y-140835000D02*
X212095238Y-141549285D01*
X212095238Y-141549285D02*
X212714285Y-141549285D01*
D11*
%TO.C,J5*%
X214365000Y-137270000D02*
X213730000Y-136635000D01*
X218800000Y-137270000D02*
X214365000Y-137270000D01*
X213730000Y-136635000D02*
X213730000Y-134730000D01*
X213730000Y-134730000D02*
X218800000Y-134730000D01*
X218800000Y-134730000D02*
X218800000Y-137270000D01*
D10*
%TO.C,M3*%
X268200000Y-185000000D02*
G75*
G03*
X268200000Y-185000000I-3200000J0D01*
G01*
%TO.C,M5*%
X178200000Y-95000000D02*
G75*
G03*
X178200000Y-95000000I-3200000J0D01*
G01*
%TO.C,M6*%
X268200000Y-140000000D02*
G75*
G03*
X268200000Y-140000000I-3200000J0D01*
G01*
%TO.C,M11*%
X235700000Y-104525000D02*
G75*
G03*
X235700000Y-104525000I-3200000J0D01*
G01*
%TO.C,M4*%
X223200000Y-95000000D02*
G75*
G03*
X223200000Y-95000000I-3200000J0D01*
G01*
%TO.C,M7*%
X178200000Y-140000000D02*
G75*
G03*
X178200000Y-140000000I-3200000J0D01*
G01*
%TO.C,M12*%
X229700000Y-104525000D02*
G75*
G03*
X229700000Y-104525000I-3200000J0D01*
G01*
%TO.C,M1*%
X178200000Y-185000000D02*
G75*
G03*
X178200000Y-185000000I-3200000J0D01*
G01*
%TO.C,M2*%
X268200000Y-95000000D02*
G75*
G03*
X268200000Y-95000000I-3200000J0D01*
G01*
%TO.C,M8*%
X223200000Y-185000000D02*
G75*
G03*
X223200000Y-185000000I-3200000J0D01*
G01*
%TD*%
M02*
