%TF.GenerationSoftware,KiCad,Pcbnew,7.0.2-6a45011f42~172~ubuntu22.04.1*%
%TF.CreationDate,2023-05-30T13:32:28+12:00*%
%TF.ProjectId,THE_BRAWN-20A_POWER_FIXTURE,5448455f-4252-4415-974e-2d3230415f50,v1.0*%
%TF.SameCoordinates,Original*%
%TF.FileFunction,Copper,L2,Bot*%
%TF.FilePolarity,Positive*%
%FSLAX46Y46*%
G04 Gerber Fmt 4.6, Leading zero omitted, Abs format (unit mm)*
G04 Created by KiCad (PCBNEW 7.0.2-6a45011f42~172~ubuntu22.04.1) date 2023-05-30 13:32:28*
%MOMM*%
%LPD*%
G01*
G04 APERTURE LIST*
G04 Aperture macros list*
%AMRoundRect*
0 Rectangle with rounded corners*
0 $1 Rounding radius*
0 $2 $3 $4 $5 $6 $7 $8 $9 X,Y pos of 4 corners*
0 Add a 4 corners polygon primitive as box body*
4,1,4,$2,$3,$4,$5,$6,$7,$8,$9,$2,$3,0*
0 Add four circle primitives for the rounded corners*
1,1,$1+$1,$2,$3*
1,1,$1+$1,$4,$5*
1,1,$1+$1,$6,$7*
1,1,$1+$1,$8,$9*
0 Add four rect primitives between the rounded corners*
20,1,$1+$1,$2,$3,$4,$5,0*
20,1,$1+$1,$4,$5,$6,$7,0*
20,1,$1+$1,$6,$7,$8,$9,0*
20,1,$1+$1,$8,$9,$2,$3,0*%
G04 Aperture macros list end*
%TA.AperFunction,ComponentPad*%
%ADD10C,1.300000*%
%TD*%
%TA.AperFunction,ComponentPad*%
%ADD11C,2.200000*%
%TD*%
%TA.AperFunction,ComponentPad*%
%ADD12C,1.400000*%
%TD*%
%TA.AperFunction,ComponentPad*%
%ADD13RoundRect,0.450000X0.450000X-0.450000X0.450000X0.450000X-0.450000X0.450000X-0.450000X-0.450000X0*%
%TD*%
%TA.AperFunction,ComponentPad*%
%ADD14C,3.000000*%
%TD*%
%TA.AperFunction,SMDPad,CuDef*%
%ADD15RoundRect,0.200000X0.275000X-0.200000X0.275000X0.200000X-0.275000X0.200000X-0.275000X-0.200000X0*%
%TD*%
%TA.AperFunction,SMDPad,CuDef*%
%ADD16RoundRect,0.200000X-0.200000X-0.275000X0.200000X-0.275000X0.200000X0.275000X-0.200000X0.275000X0*%
%TD*%
%TA.AperFunction,ComponentPad*%
%ADD17RoundRect,0.450000X0.450000X0.450000X-0.450000X0.450000X-0.450000X-0.450000X0.450000X-0.450000X0*%
%TD*%
%TA.AperFunction,ViaPad*%
%ADD18C,0.800000*%
%TD*%
%TA.AperFunction,Conductor*%
%ADD19C,1.000000*%
%TD*%
%TA.AperFunction,Conductor*%
%ADD20C,0.400000*%
%TD*%
%TA.AperFunction,Conductor*%
%ADD21C,0.200000*%
%TD*%
G04 APERTURE END LIST*
D10*
%TO.P,TP13,1,1*%
%TO.N,Net-(R11-Pad1)*%
X223000000Y-132900000D03*
%TD*%
%TO.P,TP5,1,1*%
%TO.N,Net-(R3-Pad1)*%
X217000000Y-132900000D03*
%TD*%
D11*
%TO.P,TP6,1,1*%
%TO.N,Net-(R4-Pad1)*%
X214000000Y-131200000D03*
%TD*%
%TO.P,TP7,1,1*%
%TO.N,Net-(R7-Pad1)*%
X218000000Y-131200000D03*
%TD*%
%TO.P,TP11,1,1*%
%TO.N,Net-(R9-Pad1)*%
X222000000Y-131200000D03*
%TD*%
%TO.P,TP12,1,1*%
%TO.N,Net-(R10-Pad1)*%
X226000000Y-131200000D03*
%TD*%
D12*
%TO.P,TP10,1,1*%
%TO.N,Net-(R8-Pad1)*%
X220000000Y-132900000D03*
%TD*%
D13*
%TO.P,J5,1,1*%
%TO.N,/MOTOR_1+*%
X215000000Y-136000000D03*
%TO.P,J5,2,2*%
%TO.N,/MOTOR_1-*%
X217540000Y-136000000D03*
%TD*%
D11*
%TO.P,TP21,1,1*%
%TO.N,Net-(R15-Pad1)*%
X228500000Y-143820000D03*
%TD*%
%TO.P,TP1,1,1*%
%TO.N,Net-(R1-Pad2)*%
X211500000Y-136200000D03*
%TD*%
%TO.P,TP19,1,1*%
%TO.N,/B_FET_N2_HS*%
X228500000Y-138740000D03*
%TD*%
%TO.P,TP18,1,1*%
%TO.N,/B_FET_N1_HS*%
X228500000Y-136200000D03*
%TD*%
%TO.P,TP2,1,1*%
%TO.N,Net-(R2-Pad2)*%
X211500000Y-138740000D03*
%TD*%
%TO.P,TP20,1,1*%
%TO.N,Net-(R14-Pad1)*%
X228500000Y-141280000D03*
%TD*%
%TO.P,TP3,1,1*%
%TO.N,/A_FET_N2*%
X211500000Y-141280000D03*
%TD*%
D14*
%TO.P,TP17,1,1*%
%TO.N,/GND*%
X231250000Y-109500000D03*
%TD*%
%TO.P,TP16,1,1*%
%TO.N,/BATT+*%
X227750000Y-109500000D03*
%TD*%
D11*
%TO.P,TP4,1,1*%
%TO.N,/A_FET_N1*%
X211500000Y-143820000D03*
%TD*%
D15*
%TO.P,R8,2*%
%TO.N,/GND*%
X220000000Y-127575000D03*
%TO.P,R8,1*%
%TO.N,Net-(R8-Pad1)*%
X220000000Y-129225000D03*
%TD*%
%TO.P,R3,2*%
%TO.N,/SIGNAL1*%
X218500000Y-127575000D03*
%TO.P,R3,1*%
%TO.N,Net-(R3-Pad1)*%
X218500000Y-129225000D03*
%TD*%
D13*
%TO.P,J3,1,1*%
%TO.N,/BATT+*%
X190310000Y-106110000D03*
%TO.P,J3,2,2*%
%TO.N,/GND*%
X187770000Y-106110000D03*
%TO.P,J3,3,3*%
X185230000Y-106110000D03*
%TO.P,J3,4,4*%
%TO.N,/SERVO*%
X182690000Y-106110000D03*
%TD*%
D16*
%TO.P,R14,1*%
%TO.N,Net-(R14-Pad1)*%
X230475000Y-141280000D03*
%TO.P,R14,2*%
%TO.N,/VCC*%
X232125000Y-141280000D03*
%TD*%
%TO.P,R1,1*%
%TO.N,/GND*%
X207875000Y-136200000D03*
%TO.P,R1,2*%
%TO.N,Net-(R1-Pad2)*%
X209525000Y-136200000D03*
%TD*%
D15*
%TO.P,R10,1*%
%TO.N,Net-(R10-Pad1)*%
X226000000Y-129225000D03*
%TO.P,R10,2*%
%TO.N,/GND*%
X226000000Y-127575000D03*
%TD*%
D13*
%TO.P,J2,1,1*%
%TO.N,unconnected-(J2-Pad1)*%
X254770000Y-107769500D03*
%TO.P,J2,2,2*%
%TO.N,/INVERT*%
X252230000Y-107769500D03*
%TO.P,J2,3,3*%
%TO.N,unconnected-(J2-Pad3)*%
X249690000Y-107769500D03*
%TD*%
D15*
%TO.P,R11,2*%
%TO.N,/INVERT*%
X221500000Y-127575000D03*
%TO.P,R11,1*%
%TO.N,Net-(R11-Pad1)*%
X221500000Y-129225000D03*
%TD*%
%TO.P,R4,1*%
%TO.N,Net-(R4-Pad1)*%
X214000000Y-129225000D03*
%TO.P,R4,2*%
%TO.N,/MOTOR_1+*%
X214000000Y-127575000D03*
%TD*%
D16*
%TO.P,R15,1*%
%TO.N,Net-(R15-Pad1)*%
X230475000Y-143820000D03*
%TO.P,R15,2*%
%TO.N,/GND*%
X232125000Y-143820000D03*
%TD*%
D15*
%TO.P,R7,2*%
%TO.N,/MOTOR_1-*%
X217000000Y-127575000D03*
%TO.P,R7,1*%
%TO.N,Net-(R7-Pad1)*%
X217000000Y-129225000D03*
%TD*%
D17*
%TO.P,J1,1,1*%
%TO.N,/GND*%
X257310000Y-102689500D03*
%TO.P,J1,2,2*%
%TO.N,/5V0*%
X257310000Y-105229500D03*
%TO.P,J1,3,3*%
%TO.N,/SIGNAL1*%
X257310000Y-107769500D03*
%TD*%
D15*
%TO.P,R9,2*%
%TO.N,/BATT+*%
X223000000Y-127575000D03*
%TO.P,R9,1*%
%TO.N,Net-(R9-Pad1)*%
X223000000Y-129225000D03*
%TD*%
D16*
%TO.P,R2,1*%
%TO.N,/GND*%
X207875000Y-138740000D03*
%TO.P,R2,2*%
%TO.N,Net-(R2-Pad2)*%
X209525000Y-138740000D03*
%TD*%
D13*
%TO.P,J4,1,1*%
%TO.N,/GND*%
X189040000Y-123890000D03*
%TO.P,J4,2,2*%
%TO.N,/5V0*%
X186500000Y-123890000D03*
%TO.P,J4,3,3*%
%TO.N,/SERVO_OUT*%
X183960000Y-123890000D03*
%TD*%
D18*
%TO.N,/GND*%
X218065247Y-138614866D03*
X224415247Y-138614866D03*
X237115247Y-106864866D03*
%TO.N,/BATT+*%
X223000000Y-126875000D03*
%TO.N,/SIGNAL1*%
X218500000Y-126825000D03*
%TO.N,/GND*%
X211715247Y-125914866D03*
X224415247Y-157664866D03*
X186315247Y-151314866D03*
X179965247Y-94164866D03*
X186315247Y-164014866D03*
X256165247Y-144964866D03*
X211715247Y-183064866D03*
X186315247Y-113214866D03*
X205365247Y-144964866D03*
X192665247Y-125914866D03*
X237115247Y-183064866D03*
X192665247Y-100514866D03*
X249815247Y-94164866D03*
X205365247Y-100514866D03*
X179965247Y-164014866D03*
X179965247Y-100514866D03*
X179965247Y-125914866D03*
X173615247Y-132264866D03*
X205365247Y-164014866D03*
X226000000Y-126825000D03*
X173615247Y-106864866D03*
X211715247Y-119564866D03*
X199015247Y-164014866D03*
X230765247Y-164014866D03*
X173615247Y-164014866D03*
X199015247Y-100514866D03*
X205365247Y-183064866D03*
X173615247Y-113214866D03*
X262515247Y-144964866D03*
X211715247Y-164014866D03*
X173615247Y-100514866D03*
X199015247Y-113214866D03*
X173615247Y-170364866D03*
X230765247Y-144964866D03*
X230765247Y-94164866D03*
X186315247Y-119564866D03*
X186315247Y-100514866D03*
X262515247Y-157664866D03*
X262515247Y-176714866D03*
X205365247Y-113214866D03*
X243465247Y-132264866D03*
X186315247Y-138614866D03*
X205365247Y-125914866D03*
X230765247Y-113214866D03*
X186315247Y-144964866D03*
X243465247Y-100514866D03*
X218065247Y-164014866D03*
X249815247Y-151314866D03*
X218065247Y-106864866D03*
X199015247Y-183064866D03*
X224415247Y-183064866D03*
X243465247Y-138614866D03*
X237115247Y-113214866D03*
X179965247Y-138614866D03*
X218065247Y-144964866D03*
X186315247Y-100514866D03*
X211715247Y-151314866D03*
X205365247Y-106864866D03*
X199015247Y-151314866D03*
X211715247Y-106864866D03*
X205365247Y-94164866D03*
X224415247Y-144964866D03*
X243465247Y-157664866D03*
X192665247Y-113214866D03*
X243465247Y-151314866D03*
X237115247Y-164014866D03*
X262515247Y-132264866D03*
X243375000Y-106875000D03*
X256165247Y-100514866D03*
X230765247Y-138614866D03*
X192665247Y-151314866D03*
X205365247Y-119564866D03*
X192665247Y-132264866D03*
X262515247Y-170364866D03*
X237115247Y-138614866D03*
X230765247Y-183064866D03*
X192665247Y-183064866D03*
X249815247Y-132264866D03*
X237115247Y-151314866D03*
X249815247Y-164014866D03*
X218122904Y-125622904D03*
X211715247Y-100514866D03*
X262515247Y-151314866D03*
X262515247Y-113214866D03*
X199015247Y-138614866D03*
X192665247Y-138614866D03*
X243465247Y-183064866D03*
X243465247Y-119564866D03*
X243465247Y-164014866D03*
X199015247Y-106864866D03*
X192665247Y-144964866D03*
X186315247Y-157664866D03*
X230765247Y-100514866D03*
X179965247Y-151314866D03*
X230765247Y-125914866D03*
X262515247Y-164014866D03*
X224415247Y-113214866D03*
X179965247Y-119564866D03*
X192665247Y-119564866D03*
X262515247Y-125914866D03*
X173615247Y-144964866D03*
X237115247Y-132264866D03*
X186315247Y-132264866D03*
X218065247Y-113214866D03*
X179965247Y-132264866D03*
X192665247Y-94164866D03*
X237115247Y-119564866D03*
X218065247Y-100514866D03*
X256165247Y-119564866D03*
X256165247Y-151314866D03*
X211715247Y-113214866D03*
X224584901Y-132286490D03*
X249815247Y-144964866D03*
X224415247Y-151314866D03*
X192665247Y-164014866D03*
X173615247Y-151314866D03*
X224415247Y-164014866D03*
X249815247Y-138614866D03*
X230765247Y-119564866D03*
X205365247Y-132264866D03*
X237115247Y-144964866D03*
X199015247Y-157664866D03*
X243465247Y-113214866D03*
X249815247Y-100514866D03*
X173615247Y-119564866D03*
X186315247Y-183064866D03*
X249815247Y-125914866D03*
X256165247Y-157664866D03*
X179965247Y-113214866D03*
X256165247Y-183064866D03*
X199015247Y-132264866D03*
X173615247Y-125914866D03*
X256165247Y-138614866D03*
X256165247Y-132264866D03*
X199015247Y-94164866D03*
X211715247Y-157664866D03*
X173615247Y-176714866D03*
X220000000Y-126825000D03*
X179965247Y-157664866D03*
X186315247Y-94164866D03*
X186315247Y-113214866D03*
X179965247Y-183064866D03*
X262515247Y-100514866D03*
X186315247Y-119564866D03*
X224415247Y-125914866D03*
X237115247Y-100514866D03*
X192665247Y-157664866D03*
X199015247Y-119564866D03*
X262515247Y-119564866D03*
X218065247Y-119564866D03*
X256165247Y-113214866D03*
X211715247Y-132264866D03*
X237115247Y-94164866D03*
X256165247Y-164014866D03*
X199015247Y-144964866D03*
X205365247Y-138614866D03*
X243465247Y-94164866D03*
X249815247Y-157664866D03*
X256165247Y-125914866D03*
X192665247Y-106864866D03*
X262515247Y-106864866D03*
X243465247Y-144964866D03*
X224415247Y-100514866D03*
X179965247Y-106864866D03*
X230765247Y-132264866D03*
X237115247Y-157664866D03*
X199015247Y-125914866D03*
X211715247Y-94164866D03*
X249815247Y-119564866D03*
X249815247Y-183064866D03*
X179965247Y-144964866D03*
X173615247Y-157664866D03*
X249815247Y-113214866D03*
X256165247Y-94164866D03*
X237115247Y-125914866D03*
X243465247Y-125914866D03*
X224415247Y-119564866D03*
%TO.N,/INVERT*%
X221500000Y-126825000D03*
%TO.N,/MOTOR_1+*%
X214000000Y-126750000D03*
%TO.N,/5V0*%
X225750000Y-122150000D03*
%TD*%
D19*
%TO.N,/BATT+*%
X223000000Y-127575000D02*
X223000000Y-123350000D01*
X223000000Y-123350000D02*
X222000000Y-123350000D01*
D20*
%TO.N,/MOTOR_1-*%
X217540000Y-136000000D02*
X217500000Y-136000000D01*
X215600000Y-134100000D02*
X215600000Y-132609188D01*
X217500000Y-136000000D02*
X215600000Y-134100000D01*
X215600000Y-132609188D02*
X216100000Y-132109188D01*
X216100000Y-132109188D02*
X216100000Y-128475000D01*
X216100000Y-128475000D02*
X217000000Y-127575000D01*
%TO.N,/MOTOR_1+*%
X215000000Y-136000000D02*
X215000000Y-132360660D01*
X215000000Y-132360660D02*
X215500000Y-131860660D01*
X215500000Y-131860660D02*
X215500000Y-129075000D01*
X215500000Y-129075000D02*
X214000000Y-127575000D01*
%TO.N,Net-(R9-Pad1)*%
X223000000Y-129225000D02*
X223000000Y-130200000D01*
X223000000Y-130200000D02*
X222000000Y-131200000D01*
%TO.N,Net-(R7-Pad1)*%
X217000000Y-129225000D02*
X217000000Y-130200000D01*
X217000000Y-130200000D02*
X218000000Y-131200000D01*
D21*
%TO.N,Net-(R3-Pad1)*%
X217000000Y-132900000D02*
X218279899Y-132900000D01*
X218279899Y-132900000D02*
X219400000Y-131779899D01*
X219400000Y-131779899D02*
X219400000Y-130125000D01*
X219400000Y-130125000D02*
X218500000Y-129225000D01*
%TO.N,Net-(R11-Pad1)*%
X223000000Y-132900000D02*
X221414214Y-132900000D01*
X221414214Y-132900000D02*
X220500000Y-131985786D01*
X220500000Y-130225000D02*
X221500000Y-129225000D01*
X220500000Y-131985786D02*
X220500000Y-130225000D01*
D19*
%TO.N,/BATT+*%
X182300000Y-125150000D02*
X182300000Y-122024478D01*
D20*
X222950000Y-126925000D02*
X222950000Y-127650000D01*
D19*
X198647056Y-123350000D02*
X193697056Y-128300000D01*
D20*
X222950000Y-126825000D02*
X223000000Y-126875000D01*
D19*
X227050000Y-123350000D02*
X222000000Y-123350000D01*
D20*
X222950000Y-126800000D02*
X222950000Y-126825000D01*
D19*
X182300000Y-122024478D02*
X190310000Y-114014478D01*
X227750000Y-122650000D02*
X227050000Y-123350000D01*
X227750000Y-109500000D02*
X227750000Y-122650000D01*
X193697056Y-128300000D02*
X185450000Y-128300000D01*
X223000000Y-126875000D02*
X223000000Y-126775000D01*
D20*
X223000000Y-126875000D02*
X222950000Y-126925000D01*
D19*
X190310000Y-114014478D02*
X190310000Y-106110000D01*
X222000000Y-123350000D02*
X198647056Y-123350000D01*
X223000000Y-126875000D02*
X223000000Y-127575000D01*
X185450000Y-128300000D02*
X182300000Y-125150000D01*
%TO.N,Net-(R1-Pad2)*%
X211500000Y-136200000D02*
X209525000Y-136200000D01*
%TO.N,Net-(R2-Pad2)*%
X209525000Y-138740000D02*
X211500000Y-138740000D01*
D20*
%TO.N,/SIGNAL1*%
X218500000Y-126825000D02*
X218500000Y-127650000D01*
%TO.N,/GND*%
X220000000Y-126825000D02*
X220000000Y-127650000D01*
D21*
X237125381Y-100525000D02*
X237115247Y-100514866D01*
D20*
X226000000Y-126825000D02*
X226000000Y-127650000D01*
%TO.N,/INVERT*%
X221500000Y-126825000D02*
X221500000Y-127650000D01*
X252200000Y-107799500D02*
X252230000Y-107769500D01*
%TO.N,unconnected-(J2-Pad1)*%
X254800000Y-107799500D02*
X254770000Y-107769500D01*
%TO.N,/MOTOR_1+*%
X214000000Y-126750000D02*
X214000000Y-127575000D01*
D19*
%TO.N,Net-(R14-Pad1)*%
X230475000Y-141280000D02*
X228500000Y-141280000D01*
%TO.N,Net-(R15-Pad1)*%
X230475000Y-143820000D02*
X228500000Y-143820000D01*
D21*
%TO.N,Net-(R8-Pad1)*%
X220000000Y-132900000D02*
X220000000Y-129625000D01*
D20*
%TO.N,Net-(R10-Pad1)*%
X226000000Y-129625000D02*
X226000000Y-131200000D01*
%TO.N,Net-(R4-Pad1)*%
X214000000Y-129625000D02*
X214000000Y-131200000D01*
D19*
%TO.N,/5V0*%
X188140000Y-127100000D02*
X193190000Y-127100000D01*
X186490000Y-123890000D02*
X186490000Y-125500000D01*
X186490000Y-125500000D02*
X187240000Y-126250000D01*
X187290000Y-126250000D02*
X188140000Y-127100000D01*
X193190000Y-127100000D02*
X198140000Y-122150000D01*
X198140000Y-122150000D02*
X225750000Y-122150000D01*
%TD*%
%TA.AperFunction,Conductor*%
%TO.N,/GND*%
G36*
X229579662Y-106281555D02*
G01*
X229607963Y-106314216D01*
X229681310Y-106436119D01*
X229904462Y-106729670D01*
X229906813Y-106732152D01*
X229906814Y-106732153D01*
X230155698Y-106994897D01*
X230155703Y-106994902D01*
X230158044Y-106997373D01*
X230439083Y-107236090D01*
X230637849Y-107370857D01*
X230683007Y-107425641D01*
X230691377Y-107496143D01*
X230660303Y-107559978D01*
X230601135Y-107596473D01*
X230580139Y-107602355D01*
X230572039Y-107605235D01*
X230327981Y-107711245D01*
X230320352Y-107715197D01*
X230092997Y-107853454D01*
X230085983Y-107858405D01*
X230020715Y-107911504D01*
X230020714Y-107911505D01*
X230928201Y-108818992D01*
X230911109Y-108825213D01*
X230764627Y-108921555D01*
X230644312Y-109049082D01*
X230569482Y-109178691D01*
X229660541Y-108269750D01*
X229532796Y-108450724D01*
X229528339Y-108458056D01*
X229437317Y-108633719D01*
X229388218Y-108685000D01*
X229319188Y-108701595D01*
X229252144Y-108678235D01*
X229216325Y-108638749D01*
X229158962Y-108539393D01*
X229158961Y-108539392D01*
X229158959Y-108539388D01*
X229000050Y-108340123D01*
X228813217Y-108166768D01*
X228813214Y-108166766D01*
X228813212Y-108166764D01*
X228602634Y-108023195D01*
X228373004Y-107912610D01*
X228129461Y-107837488D01*
X228129458Y-107837487D01*
X228026240Y-107821929D01*
X227961864Y-107791998D01*
X227923887Y-107732012D01*
X227924370Y-107661017D01*
X227963159Y-107601553D01*
X227985996Y-107586018D01*
X228255716Y-107443022D01*
X228560917Y-107236090D01*
X228841956Y-106997373D01*
X229095538Y-106729670D01*
X229318690Y-106436119D01*
X229392036Y-106314215D01*
X229444293Y-106266159D01*
X229514238Y-106253983D01*
X229579662Y-106281555D01*
G37*
%TD.AperFunction*%
%TA.AperFunction,Conductor*%
G36*
X187310507Y-105900156D02*
G01*
X187270000Y-106038111D01*
X187270000Y-106181889D01*
X187310507Y-106319844D01*
X187338884Y-106364000D01*
X185661116Y-106364000D01*
X185689493Y-106319844D01*
X185730000Y-106181889D01*
X185730000Y-106038111D01*
X185689493Y-105900156D01*
X185661116Y-105856000D01*
X187338884Y-105856000D01*
X187310507Y-105900156D01*
G37*
%TD.AperFunction*%
%TA.AperFunction,Conductor*%
G36*
X268004119Y-90100770D02*
G01*
X268016905Y-90101608D01*
X268239699Y-90116210D01*
X268256022Y-90118358D01*
X268483539Y-90163615D01*
X268499442Y-90167876D01*
X268719095Y-90242439D01*
X268734302Y-90248738D01*
X268942351Y-90351336D01*
X268956608Y-90359567D01*
X269149478Y-90488438D01*
X269162543Y-90498463D01*
X269336946Y-90651411D01*
X269348588Y-90663053D01*
X269501532Y-90837451D01*
X269511565Y-90850527D01*
X269640427Y-91043383D01*
X269648668Y-91057657D01*
X269751257Y-91265687D01*
X269757564Y-91280914D01*
X269832120Y-91500549D01*
X269836386Y-91516468D01*
X269881639Y-91743967D01*
X269883790Y-91760308D01*
X269899230Y-91995880D01*
X269899500Y-92004121D01*
X269899500Y-187995878D01*
X269899230Y-188004119D01*
X269883790Y-188239691D01*
X269881639Y-188256032D01*
X269836386Y-188483531D01*
X269832120Y-188499450D01*
X269757564Y-188719085D01*
X269751257Y-188734312D01*
X269648668Y-188942342D01*
X269640427Y-188956616D01*
X269511565Y-189149472D01*
X269501532Y-189162548D01*
X269348594Y-189336940D01*
X269336940Y-189348594D01*
X269162548Y-189501532D01*
X269149472Y-189511565D01*
X268956616Y-189640427D01*
X268942342Y-189648668D01*
X268734312Y-189751257D01*
X268719085Y-189757564D01*
X268499450Y-189832120D01*
X268483531Y-189836386D01*
X268256032Y-189881639D01*
X268239691Y-189883790D01*
X268004120Y-189899230D01*
X267995879Y-189899500D01*
X172004121Y-189899500D01*
X171995880Y-189899230D01*
X171760308Y-189883790D01*
X171743967Y-189881639D01*
X171516468Y-189836386D01*
X171500549Y-189832120D01*
X171280914Y-189757564D01*
X171265687Y-189751257D01*
X171263643Y-189750249D01*
X171057653Y-189648666D01*
X171043387Y-189640429D01*
X170850524Y-189511562D01*
X170837451Y-189501532D01*
X170707911Y-189387928D01*
X170663053Y-189348588D01*
X170651411Y-189336946D01*
X170498463Y-189162543D01*
X170488438Y-189149478D01*
X170359567Y-188956608D01*
X170351336Y-188942351D01*
X170248738Y-188734302D01*
X170242439Y-188719095D01*
X170167876Y-188499442D01*
X170163615Y-188483539D01*
X170118358Y-188256022D01*
X170116210Y-188239701D01*
X170100768Y-188004089D01*
X170100500Y-187995902D01*
X170100500Y-187973071D01*
X170100500Y-185184370D01*
X171599500Y-185184370D01*
X171599868Y-185187757D01*
X171599869Y-185187768D01*
X171638092Y-185539220D01*
X171639368Y-185550948D01*
X171640100Y-185554275D01*
X171640101Y-185554279D01*
X171717901Y-185907730D01*
X171717904Y-185907741D01*
X171718636Y-185911066D01*
X171836375Y-186260503D01*
X171991205Y-186595162D01*
X172181310Y-186911119D01*
X172404462Y-187204670D01*
X172406813Y-187207152D01*
X172406814Y-187207153D01*
X172655698Y-187469897D01*
X172655703Y-187469902D01*
X172658044Y-187472373D01*
X172939083Y-187711090D01*
X173244284Y-187918022D01*
X173570070Y-188090743D01*
X173912621Y-188227227D01*
X174267919Y-188325875D01*
X174631801Y-188385531D01*
X174907890Y-188400500D01*
X174909610Y-188400500D01*
X175090390Y-188400500D01*
X175092110Y-188400500D01*
X175368199Y-188385531D01*
X175732081Y-188325875D01*
X176087379Y-188227227D01*
X176429930Y-188090743D01*
X176755716Y-187918022D01*
X177060917Y-187711090D01*
X177341956Y-187472373D01*
X177595538Y-187204670D01*
X177818690Y-186911119D01*
X178008795Y-186595162D01*
X178163625Y-186260503D01*
X178281364Y-185911066D01*
X178360632Y-185550948D01*
X178400500Y-185184370D01*
X216599500Y-185184370D01*
X216599868Y-185187757D01*
X216599869Y-185187768D01*
X216638092Y-185539220D01*
X216639368Y-185550948D01*
X216640100Y-185554275D01*
X216640101Y-185554279D01*
X216717901Y-185907730D01*
X216717904Y-185907741D01*
X216718636Y-185911066D01*
X216836375Y-186260503D01*
X216991205Y-186595162D01*
X217181310Y-186911119D01*
X217404462Y-187204670D01*
X217406813Y-187207152D01*
X217406814Y-187207153D01*
X217655698Y-187469897D01*
X217655703Y-187469902D01*
X217658044Y-187472373D01*
X217939083Y-187711090D01*
X218244284Y-187918022D01*
X218570070Y-188090743D01*
X218912621Y-188227227D01*
X219267919Y-188325875D01*
X219631801Y-188385531D01*
X219907890Y-188400500D01*
X219909610Y-188400500D01*
X220090390Y-188400500D01*
X220092110Y-188400500D01*
X220368199Y-188385531D01*
X220732081Y-188325875D01*
X221087379Y-188227227D01*
X221429930Y-188090743D01*
X221755716Y-187918022D01*
X222060917Y-187711090D01*
X222341956Y-187472373D01*
X222595538Y-187204670D01*
X222818690Y-186911119D01*
X223008795Y-186595162D01*
X223163625Y-186260503D01*
X223281364Y-185911066D01*
X223360632Y-185550948D01*
X223400500Y-185184370D01*
X261599500Y-185184370D01*
X261599868Y-185187757D01*
X261599869Y-185187768D01*
X261638092Y-185539220D01*
X261639368Y-185550948D01*
X261640100Y-185554275D01*
X261640101Y-185554279D01*
X261717901Y-185907730D01*
X261717904Y-185907741D01*
X261718636Y-185911066D01*
X261836375Y-186260503D01*
X261991205Y-186595162D01*
X262181310Y-186911119D01*
X262404462Y-187204670D01*
X262406813Y-187207152D01*
X262406814Y-187207153D01*
X262655698Y-187469897D01*
X262655703Y-187469902D01*
X262658044Y-187472373D01*
X262939083Y-187711090D01*
X263244284Y-187918022D01*
X263570070Y-188090743D01*
X263912621Y-188227227D01*
X264267919Y-188325875D01*
X264631801Y-188385531D01*
X264907890Y-188400500D01*
X264909610Y-188400500D01*
X265090390Y-188400500D01*
X265092110Y-188400500D01*
X265368199Y-188385531D01*
X265732081Y-188325875D01*
X266087379Y-188227227D01*
X266429930Y-188090743D01*
X266755716Y-187918022D01*
X267060917Y-187711090D01*
X267341956Y-187472373D01*
X267595538Y-187204670D01*
X267818690Y-186911119D01*
X268008795Y-186595162D01*
X268163625Y-186260503D01*
X268281364Y-185911066D01*
X268360632Y-185550948D01*
X268400500Y-185184370D01*
X268400500Y-184815630D01*
X268360632Y-184449052D01*
X268281364Y-184088934D01*
X268163625Y-183739497D01*
X268008795Y-183404838D01*
X267818690Y-183088881D01*
X267595538Y-182795330D01*
X267581231Y-182780227D01*
X267344301Y-182530102D01*
X267344295Y-182530096D01*
X267341956Y-182527627D01*
X267060917Y-182288910D01*
X267004169Y-182250434D01*
X266758538Y-182083891D01*
X266758533Y-182083888D01*
X266755716Y-182081978D01*
X266715275Y-182060537D01*
X266432941Y-181910853D01*
X266432936Y-181910850D01*
X266429930Y-181909257D01*
X266426763Y-181907995D01*
X266090548Y-181774035D01*
X266090537Y-181774031D01*
X266087379Y-181772773D01*
X266084098Y-181771862D01*
X266084092Y-181771860D01*
X265735375Y-181675039D01*
X265735365Y-181675036D01*
X265732081Y-181674125D01*
X265728722Y-181673574D01*
X265728707Y-181673571D01*
X265371576Y-181615022D01*
X265371564Y-181615020D01*
X265368199Y-181614469D01*
X265364789Y-181614284D01*
X265364779Y-181614283D01*
X265093831Y-181599593D01*
X265093819Y-181599592D01*
X265092110Y-181599500D01*
X264907890Y-181599500D01*
X264906181Y-181599592D01*
X264906168Y-181599593D01*
X264635220Y-181614283D01*
X264635208Y-181614284D01*
X264631801Y-181614469D01*
X264628437Y-181615020D01*
X264628423Y-181615022D01*
X264271292Y-181673571D01*
X264271273Y-181673574D01*
X264267919Y-181674125D01*
X264264638Y-181675035D01*
X264264624Y-181675039D01*
X263915907Y-181771860D01*
X263915896Y-181771863D01*
X263912621Y-181772773D01*
X263909467Y-181774029D01*
X263909451Y-181774035D01*
X263573236Y-181907995D01*
X263573227Y-181907999D01*
X263570070Y-181909257D01*
X263567070Y-181910847D01*
X263567058Y-181910853D01*
X263247301Y-182080378D01*
X263247294Y-182080382D01*
X263244284Y-182081978D01*
X263241474Y-182083882D01*
X263241461Y-182083891D01*
X262941908Y-182286994D01*
X262941900Y-182286999D01*
X262939083Y-182288910D01*
X262936483Y-182291118D01*
X262936477Y-182291123D01*
X262660640Y-182525421D01*
X262660630Y-182525430D01*
X262658044Y-182527627D01*
X262655713Y-182530087D01*
X262655698Y-182530102D01*
X262406814Y-182792846D01*
X262406805Y-182792855D01*
X262404462Y-182795330D01*
X262402395Y-182798048D01*
X262402395Y-182798049D01*
X262183380Y-183086157D01*
X262183373Y-183086165D01*
X262181310Y-183088881D01*
X262179552Y-183091801D01*
X262179545Y-183091813D01*
X261992966Y-183401911D01*
X261991205Y-183404838D01*
X261989775Y-183407928D01*
X261989768Y-183407942D01*
X261837808Y-183736398D01*
X261837803Y-183736409D01*
X261836375Y-183739497D01*
X261835289Y-183742719D01*
X261835285Y-183742730D01*
X261719726Y-184085697D01*
X261719722Y-184085708D01*
X261718636Y-184088934D01*
X261717905Y-184092253D01*
X261717901Y-184092269D01*
X261640101Y-184445720D01*
X261639368Y-184449052D01*
X261638999Y-184452442D01*
X261638999Y-184452444D01*
X261599869Y-184812231D01*
X261599868Y-184812243D01*
X261599500Y-184815630D01*
X261599500Y-185184370D01*
X223400500Y-185184370D01*
X223400500Y-184815630D01*
X223360632Y-184449052D01*
X223281364Y-184088934D01*
X223163625Y-183739497D01*
X223008795Y-183404838D01*
X222818690Y-183088881D01*
X222595538Y-182795330D01*
X222581231Y-182780227D01*
X222344301Y-182530102D01*
X222344295Y-182530096D01*
X222341956Y-182527627D01*
X222060917Y-182288910D01*
X222004169Y-182250434D01*
X221758538Y-182083891D01*
X221758533Y-182083888D01*
X221755716Y-182081978D01*
X221715275Y-182060537D01*
X221432941Y-181910853D01*
X221432936Y-181910850D01*
X221429930Y-181909257D01*
X221426763Y-181907995D01*
X221090548Y-181774035D01*
X221090537Y-181774031D01*
X221087379Y-181772773D01*
X221084098Y-181771862D01*
X221084092Y-181771860D01*
X220735375Y-181675039D01*
X220735365Y-181675036D01*
X220732081Y-181674125D01*
X220728722Y-181673574D01*
X220728707Y-181673571D01*
X220371576Y-181615022D01*
X220371564Y-181615020D01*
X220368199Y-181614469D01*
X220364789Y-181614284D01*
X220364779Y-181614283D01*
X220093831Y-181599593D01*
X220093819Y-181599592D01*
X220092110Y-181599500D01*
X219907890Y-181599500D01*
X219906181Y-181599592D01*
X219906168Y-181599593D01*
X219635220Y-181614283D01*
X219635208Y-181614284D01*
X219631801Y-181614469D01*
X219628437Y-181615020D01*
X219628423Y-181615022D01*
X219271292Y-181673571D01*
X219271273Y-181673574D01*
X219267919Y-181674125D01*
X219264638Y-181675035D01*
X219264624Y-181675039D01*
X218915907Y-181771860D01*
X218915896Y-181771863D01*
X218912621Y-181772773D01*
X218909467Y-181774029D01*
X218909451Y-181774035D01*
X218573236Y-181907995D01*
X218573227Y-181907999D01*
X218570070Y-181909257D01*
X218567070Y-181910847D01*
X218567058Y-181910853D01*
X218247301Y-182080378D01*
X218247294Y-182080382D01*
X218244284Y-182081978D01*
X218241474Y-182083882D01*
X218241461Y-182083891D01*
X217941908Y-182286994D01*
X217941900Y-182286999D01*
X217939083Y-182288910D01*
X217936483Y-182291118D01*
X217936477Y-182291123D01*
X217660640Y-182525421D01*
X217660630Y-182525430D01*
X217658044Y-182527627D01*
X217655713Y-182530087D01*
X217655698Y-182530102D01*
X217406814Y-182792846D01*
X217406805Y-182792855D01*
X217404462Y-182795330D01*
X217402395Y-182798048D01*
X217402395Y-182798049D01*
X217183380Y-183086157D01*
X217183373Y-183086165D01*
X217181310Y-183088881D01*
X217179552Y-183091801D01*
X217179545Y-183091813D01*
X216992966Y-183401911D01*
X216991205Y-183404838D01*
X216989775Y-183407928D01*
X216989768Y-183407942D01*
X216837808Y-183736398D01*
X216837803Y-183736409D01*
X216836375Y-183739497D01*
X216835289Y-183742719D01*
X216835285Y-183742730D01*
X216719726Y-184085697D01*
X216719722Y-184085708D01*
X216718636Y-184088934D01*
X216717905Y-184092253D01*
X216717901Y-184092269D01*
X216640101Y-184445720D01*
X216639368Y-184449052D01*
X216638999Y-184452442D01*
X216638999Y-184452444D01*
X216599869Y-184812231D01*
X216599868Y-184812243D01*
X216599500Y-184815630D01*
X216599500Y-185184370D01*
X178400500Y-185184370D01*
X178400500Y-184815630D01*
X178360632Y-184449052D01*
X178281364Y-184088934D01*
X178163625Y-183739497D01*
X178008795Y-183404838D01*
X177818690Y-183088881D01*
X177595538Y-182795330D01*
X177581231Y-182780227D01*
X177344301Y-182530102D01*
X177344295Y-182530096D01*
X177341956Y-182527627D01*
X177060917Y-182288910D01*
X177004169Y-182250434D01*
X176758538Y-182083891D01*
X176758533Y-182083888D01*
X176755716Y-182081978D01*
X176715275Y-182060537D01*
X176432941Y-181910853D01*
X176432936Y-181910850D01*
X176429930Y-181909257D01*
X176426763Y-181907995D01*
X176090548Y-181774035D01*
X176090537Y-181774031D01*
X176087379Y-181772773D01*
X176084098Y-181771862D01*
X176084092Y-181771860D01*
X175735375Y-181675039D01*
X175735365Y-181675036D01*
X175732081Y-181674125D01*
X175728722Y-181673574D01*
X175728707Y-181673571D01*
X175371576Y-181615022D01*
X175371564Y-181615020D01*
X175368199Y-181614469D01*
X175364789Y-181614284D01*
X175364779Y-181614283D01*
X175093831Y-181599593D01*
X175093819Y-181599592D01*
X175092110Y-181599500D01*
X174907890Y-181599500D01*
X174906181Y-181599592D01*
X174906168Y-181599593D01*
X174635220Y-181614283D01*
X174635208Y-181614284D01*
X174631801Y-181614469D01*
X174628437Y-181615020D01*
X174628423Y-181615022D01*
X174271292Y-181673571D01*
X174271273Y-181673574D01*
X174267919Y-181674125D01*
X174264638Y-181675035D01*
X174264624Y-181675039D01*
X173915907Y-181771860D01*
X173915896Y-181771863D01*
X173912621Y-181772773D01*
X173909467Y-181774029D01*
X173909451Y-181774035D01*
X173573236Y-181907995D01*
X173573227Y-181907999D01*
X173570070Y-181909257D01*
X173567070Y-181910847D01*
X173567058Y-181910853D01*
X173247301Y-182080378D01*
X173247294Y-182080382D01*
X173244284Y-182081978D01*
X173241474Y-182083882D01*
X173241461Y-182083891D01*
X172941908Y-182286994D01*
X172941900Y-182286999D01*
X172939083Y-182288910D01*
X172936483Y-182291118D01*
X172936477Y-182291123D01*
X172660640Y-182525421D01*
X172660630Y-182525430D01*
X172658044Y-182527627D01*
X172655713Y-182530087D01*
X172655698Y-182530102D01*
X172406814Y-182792846D01*
X172406805Y-182792855D01*
X172404462Y-182795330D01*
X172402395Y-182798048D01*
X172402395Y-182798049D01*
X172183380Y-183086157D01*
X172183373Y-183086165D01*
X172181310Y-183088881D01*
X172179552Y-183091801D01*
X172179545Y-183091813D01*
X171992966Y-183401911D01*
X171991205Y-183404838D01*
X171989775Y-183407928D01*
X171989768Y-183407942D01*
X171837808Y-183736398D01*
X171837803Y-183736409D01*
X171836375Y-183739497D01*
X171835289Y-183742719D01*
X171835285Y-183742730D01*
X171719726Y-184085697D01*
X171719722Y-184085708D01*
X171718636Y-184088934D01*
X171717905Y-184092253D01*
X171717901Y-184092269D01*
X171640101Y-184445720D01*
X171639368Y-184449052D01*
X171638999Y-184452442D01*
X171638999Y-184452444D01*
X171599869Y-184812231D01*
X171599868Y-184812243D01*
X171599500Y-184815630D01*
X171599500Y-185184370D01*
X170100500Y-185184370D01*
X170100500Y-179567659D01*
X179899500Y-179567659D01*
X179929610Y-179699587D01*
X179958967Y-179760547D01*
X179988325Y-179821507D01*
X180072695Y-179927305D01*
X180178493Y-180011675D01*
X180300412Y-180070389D01*
X180432340Y-180100500D01*
X259567660Y-180100500D01*
X259699588Y-180070389D01*
X259821507Y-180011675D01*
X259927305Y-179927305D01*
X260011675Y-179821507D01*
X260070389Y-179699588D01*
X260100500Y-179567660D01*
X260100500Y-179500000D01*
X260100500Y-179473071D01*
X260100500Y-170484083D01*
X260100500Y-170432340D01*
X260070389Y-170300412D01*
X260011675Y-170178493D01*
X259927305Y-170072695D01*
X259821507Y-169988325D01*
X259760547Y-169958968D01*
X259699587Y-169929610D01*
X259567660Y-169899500D01*
X259515917Y-169899500D01*
X180526929Y-169899500D01*
X180500000Y-169899500D01*
X180432340Y-169899500D01*
X180300412Y-169929610D01*
X180178491Y-169988326D01*
X180072695Y-170072695D01*
X179988326Y-170178491D01*
X179929610Y-170300412D01*
X179899500Y-170432340D01*
X179899500Y-179567659D01*
X170100500Y-179567659D01*
X170100500Y-157908919D01*
X203695736Y-157908919D01*
X203695831Y-157912375D01*
X203695831Y-157912386D01*
X203703329Y-158184370D01*
X203705771Y-158272968D01*
X203706247Y-158276407D01*
X203706248Y-158276408D01*
X203744779Y-158554279D01*
X203755793Y-158633703D01*
X203756644Y-158637066D01*
X203756647Y-158637078D01*
X203844341Y-158983370D01*
X203845196Y-158986746D01*
X203846411Y-158989991D01*
X203846416Y-158990007D01*
X203971673Y-159324552D01*
X203972894Y-159327812D01*
X203974461Y-159330908D01*
X203974463Y-159330913D01*
X204135764Y-159649652D01*
X204135769Y-159649661D01*
X204137337Y-159652759D01*
X204139237Y-159655668D01*
X204139241Y-159655674D01*
X204240554Y-159810745D01*
X204336528Y-159957645D01*
X204568051Y-160238767D01*
X204570538Y-160241186D01*
X204808184Y-160472373D01*
X204829094Y-160492714D01*
X204831836Y-160494848D01*
X205112124Y-160713005D01*
X205116489Y-160716402D01*
X205426747Y-160907117D01*
X205756102Y-161062544D01*
X206100557Y-161180795D01*
X206455929Y-161260436D01*
X206817906Y-161300500D01*
X206821388Y-161300500D01*
X207089250Y-161300500D01*
X207090972Y-161300500D01*
X207363634Y-161285457D01*
X207722855Y-161225513D01*
X208073300Y-161126417D01*
X208410718Y-160989370D01*
X208731011Y-160816036D01*
X209030292Y-160608519D01*
X209304928Y-160369338D01*
X209551585Y-160101397D01*
X209767270Y-159807948D01*
X209949363Y-159492552D01*
X210095656Y-159159039D01*
X210204371Y-158811457D01*
X210274190Y-158454025D01*
X210304264Y-158091081D01*
X210299243Y-157908919D01*
X216695736Y-157908919D01*
X216695831Y-157912375D01*
X216695831Y-157912386D01*
X216703329Y-158184370D01*
X216705771Y-158272968D01*
X216706247Y-158276407D01*
X216706248Y-158276408D01*
X216744779Y-158554279D01*
X216755793Y-158633703D01*
X216756644Y-158637066D01*
X216756647Y-158637078D01*
X216844341Y-158983370D01*
X216845196Y-158986746D01*
X216846411Y-158989991D01*
X216846416Y-158990007D01*
X216971673Y-159324552D01*
X216972894Y-159327812D01*
X216974461Y-159330908D01*
X216974463Y-159330913D01*
X217135764Y-159649652D01*
X217135769Y-159649661D01*
X217137337Y-159652759D01*
X217139237Y-159655668D01*
X217139241Y-159655674D01*
X217240554Y-159810745D01*
X217336528Y-159957645D01*
X217568051Y-160238767D01*
X217570538Y-160241186D01*
X217808184Y-160472373D01*
X217829094Y-160492714D01*
X217831836Y-160494848D01*
X218112124Y-160713005D01*
X218116489Y-160716402D01*
X218426747Y-160907117D01*
X218756102Y-161062544D01*
X219100557Y-161180795D01*
X219455929Y-161260436D01*
X219817906Y-161300500D01*
X219821388Y-161300500D01*
X220089250Y-161300500D01*
X220090972Y-161300500D01*
X220363634Y-161285457D01*
X220722855Y-161225513D01*
X221073300Y-161126417D01*
X221410718Y-160989370D01*
X221731011Y-160816036D01*
X222030292Y-160608519D01*
X222304928Y-160369338D01*
X222551585Y-160101397D01*
X222767270Y-159807948D01*
X222949363Y-159492552D01*
X223095656Y-159159039D01*
X223204371Y-158811457D01*
X223274190Y-158454025D01*
X223296534Y-158184370D01*
X229599500Y-158184370D01*
X229599868Y-158187757D01*
X229599869Y-158187768D01*
X229628450Y-158450561D01*
X229639368Y-158550948D01*
X229640100Y-158554275D01*
X229640101Y-158554279D01*
X229717901Y-158907730D01*
X229717904Y-158907741D01*
X229718636Y-158911066D01*
X229719724Y-158914296D01*
X229719726Y-158914302D01*
X229802187Y-159159039D01*
X229836375Y-159260503D01*
X229837806Y-159263596D01*
X229837808Y-159263601D01*
X229945124Y-159495561D01*
X229991205Y-159595162D01*
X230181310Y-159911119D01*
X230404462Y-160204670D01*
X230406813Y-160207152D01*
X230406814Y-160207153D01*
X230655698Y-160469897D01*
X230655703Y-160469902D01*
X230658044Y-160472373D01*
X230939083Y-160711090D01*
X231244284Y-160918022D01*
X231570070Y-161090743D01*
X231912621Y-161227227D01*
X232267919Y-161325875D01*
X232631801Y-161385531D01*
X232907890Y-161400500D01*
X232909610Y-161400500D01*
X233090390Y-161400500D01*
X233092110Y-161400500D01*
X233368199Y-161385531D01*
X233732081Y-161325875D01*
X234087379Y-161227227D01*
X234429930Y-161090743D01*
X234755716Y-160918022D01*
X235060917Y-160711090D01*
X235341956Y-160472373D01*
X235595538Y-160204670D01*
X235818690Y-159911119D01*
X236008795Y-159595162D01*
X236163625Y-159260503D01*
X236281364Y-158911066D01*
X236360632Y-158550948D01*
X236400500Y-158184370D01*
X236400500Y-157815630D01*
X236360632Y-157449052D01*
X236281364Y-157088934D01*
X236163625Y-156739497D01*
X236008795Y-156404838D01*
X235818690Y-156088881D01*
X235595538Y-155795330D01*
X235437393Y-155628378D01*
X235344301Y-155530102D01*
X235344295Y-155530096D01*
X235341956Y-155527627D01*
X235060917Y-155288910D01*
X234771800Y-155092883D01*
X234758538Y-155083891D01*
X234758533Y-155083888D01*
X234755716Y-155081978D01*
X234618676Y-155009324D01*
X234432941Y-154910853D01*
X234432936Y-154910850D01*
X234429930Y-154909257D01*
X234426763Y-154907995D01*
X234090548Y-154774035D01*
X234090537Y-154774031D01*
X234087379Y-154772773D01*
X234084098Y-154771862D01*
X234084092Y-154771860D01*
X233735375Y-154675039D01*
X233735365Y-154675036D01*
X233732081Y-154674125D01*
X233728722Y-154673574D01*
X233728707Y-154673571D01*
X233371576Y-154615022D01*
X233371564Y-154615020D01*
X233368199Y-154614469D01*
X233364789Y-154614284D01*
X233364779Y-154614283D01*
X233093831Y-154599593D01*
X233093819Y-154599592D01*
X233092110Y-154599500D01*
X232907890Y-154599500D01*
X232906181Y-154599592D01*
X232906168Y-154599593D01*
X232635220Y-154614283D01*
X232635208Y-154614284D01*
X232631801Y-154614469D01*
X232628437Y-154615020D01*
X232628423Y-154615022D01*
X232271292Y-154673571D01*
X232271273Y-154673574D01*
X232267919Y-154674125D01*
X232264638Y-154675035D01*
X232264624Y-154675039D01*
X231915907Y-154771860D01*
X231915896Y-154771863D01*
X231912621Y-154772773D01*
X231909467Y-154774029D01*
X231909451Y-154774035D01*
X231573236Y-154907995D01*
X231573227Y-154907999D01*
X231570070Y-154909257D01*
X231567070Y-154910847D01*
X231567058Y-154910853D01*
X231247301Y-155080378D01*
X231247294Y-155080382D01*
X231244284Y-155081978D01*
X231241474Y-155083882D01*
X231241461Y-155083891D01*
X230941908Y-155286994D01*
X230941900Y-155286999D01*
X230939083Y-155288910D01*
X230936483Y-155291118D01*
X230936477Y-155291123D01*
X230660640Y-155525421D01*
X230660630Y-155525430D01*
X230658044Y-155527627D01*
X230655713Y-155530087D01*
X230655698Y-155530102D01*
X230406814Y-155792846D01*
X230406805Y-155792855D01*
X230404462Y-155795330D01*
X230402395Y-155798048D01*
X230402395Y-155798049D01*
X230183380Y-156086157D01*
X230183373Y-156086165D01*
X230181310Y-156088881D01*
X230179552Y-156091801D01*
X230179545Y-156091813D01*
X230117425Y-156195058D01*
X229991205Y-156404838D01*
X229989775Y-156407928D01*
X229989768Y-156407942D01*
X229837808Y-156736398D01*
X229837803Y-156736409D01*
X229836375Y-156739497D01*
X229835289Y-156742719D01*
X229835285Y-156742730D01*
X229719726Y-157085697D01*
X229719722Y-157085708D01*
X229718636Y-157088934D01*
X229717905Y-157092253D01*
X229717901Y-157092269D01*
X229640101Y-157445720D01*
X229639368Y-157449052D01*
X229638999Y-157452442D01*
X229638999Y-157452444D01*
X229599869Y-157812231D01*
X229599868Y-157812243D01*
X229599500Y-157815630D01*
X229599500Y-158184370D01*
X223296534Y-158184370D01*
X223304264Y-158091081D01*
X223294229Y-157727032D01*
X223244207Y-157366297D01*
X223154804Y-157013254D01*
X223027106Y-156672188D01*
X222939648Y-156499368D01*
X222864235Y-156350347D01*
X222864233Y-156350344D01*
X222862663Y-156347241D01*
X222663472Y-156042355D01*
X222431949Y-155761233D01*
X222194360Y-155530102D01*
X222173399Y-155509711D01*
X222173396Y-155509709D01*
X222170906Y-155507286D01*
X222168163Y-155505151D01*
X221886252Y-155285731D01*
X221886247Y-155285727D01*
X221883511Y-155283598D01*
X221573253Y-155092883D01*
X221570127Y-155091407D01*
X221570120Y-155091404D01*
X221247043Y-154938940D01*
X221247040Y-154938938D01*
X221243898Y-154937456D01*
X221240610Y-154936327D01*
X221240607Y-154936326D01*
X220902723Y-154820331D01*
X220902722Y-154820330D01*
X220899443Y-154819205D01*
X220896067Y-154818448D01*
X220896055Y-154818445D01*
X220547456Y-154740322D01*
X220547445Y-154740320D01*
X220544071Y-154739564D01*
X220540626Y-154739182D01*
X220540622Y-154739182D01*
X220185557Y-154699883D01*
X220185551Y-154699882D01*
X220182094Y-154699500D01*
X219909028Y-154699500D01*
X219907334Y-154699593D01*
X219907314Y-154699594D01*
X219639824Y-154714352D01*
X219639820Y-154714352D01*
X219636366Y-154714543D01*
X219632950Y-154715112D01*
X219632941Y-154715114D01*
X219280582Y-154773913D01*
X219280573Y-154773914D01*
X219277145Y-154774487D01*
X219273809Y-154775430D01*
X219273797Y-154775433D01*
X218930046Y-154872636D01*
X218930032Y-154872640D01*
X218926700Y-154873583D01*
X218923478Y-154874891D01*
X218923474Y-154874893D01*
X218592496Y-155009324D01*
X218592487Y-155009328D01*
X218589282Y-155010630D01*
X218586240Y-155012276D01*
X218586232Y-155012280D01*
X218272046Y-155182309D01*
X218272037Y-155182314D01*
X218268989Y-155183964D01*
X218266144Y-155185936D01*
X218266132Y-155185944D01*
X217972561Y-155389502D01*
X217972551Y-155389509D01*
X217969708Y-155391481D01*
X217967093Y-155393757D01*
X217967087Y-155393763D01*
X217697693Y-155628378D01*
X217697679Y-155628391D01*
X217695072Y-155630662D01*
X217692718Y-155633218D01*
X217692715Y-155633222D01*
X217450770Y-155896044D01*
X217450763Y-155896051D01*
X217448415Y-155898603D01*
X217446363Y-155901393D01*
X217446357Y-155901402D01*
X217234785Y-156189254D01*
X217234772Y-156189272D01*
X217232730Y-156192052D01*
X217230998Y-156195051D01*
X217230994Y-156195058D01*
X217052374Y-156504438D01*
X217052368Y-156504449D01*
X217050637Y-156507448D01*
X217049242Y-156510626D01*
X217049241Y-156510630D01*
X216905737Y-156837783D01*
X216905731Y-156837798D01*
X216904344Y-156840961D01*
X216903311Y-156844263D01*
X216903309Y-156844269D01*
X216796665Y-157185228D01*
X216796661Y-157185242D01*
X216795629Y-157188543D01*
X216794966Y-157191937D01*
X216794963Y-157191949D01*
X216726476Y-157542562D01*
X216726474Y-157542573D01*
X216725810Y-157545975D01*
X216725523Y-157549437D01*
X216725523Y-157549438D01*
X216710520Y-157730506D01*
X216695736Y-157908919D01*
X210299243Y-157908919D01*
X210294229Y-157727032D01*
X210244207Y-157366297D01*
X210154804Y-157013254D01*
X210027106Y-156672188D01*
X209939648Y-156499368D01*
X209864235Y-156350347D01*
X209864233Y-156350344D01*
X209862663Y-156347241D01*
X209663472Y-156042355D01*
X209431949Y-155761233D01*
X209194360Y-155530102D01*
X209173399Y-155509711D01*
X209173396Y-155509709D01*
X209170906Y-155507286D01*
X209168163Y-155505151D01*
X208886252Y-155285731D01*
X208886247Y-155285727D01*
X208883511Y-155283598D01*
X208573253Y-155092883D01*
X208570127Y-155091407D01*
X208570120Y-155091404D01*
X208247043Y-154938940D01*
X208247040Y-154938938D01*
X208243898Y-154937456D01*
X208240610Y-154936327D01*
X208240607Y-154936326D01*
X207902723Y-154820331D01*
X207902722Y-154820330D01*
X207899443Y-154819205D01*
X207896067Y-154818448D01*
X207896055Y-154818445D01*
X207547456Y-154740322D01*
X207547445Y-154740320D01*
X207544071Y-154739564D01*
X207540626Y-154739182D01*
X207540622Y-154739182D01*
X207185557Y-154699883D01*
X207185551Y-154699882D01*
X207182094Y-154699500D01*
X206909028Y-154699500D01*
X206907334Y-154699593D01*
X206907314Y-154699594D01*
X206639824Y-154714352D01*
X206639820Y-154714352D01*
X206636366Y-154714543D01*
X206632950Y-154715112D01*
X206632941Y-154715114D01*
X206280582Y-154773913D01*
X206280573Y-154773914D01*
X206277145Y-154774487D01*
X206273809Y-154775430D01*
X206273797Y-154775433D01*
X205930046Y-154872636D01*
X205930032Y-154872640D01*
X205926700Y-154873583D01*
X205923478Y-154874891D01*
X205923474Y-154874893D01*
X205592496Y-155009324D01*
X205592487Y-155009328D01*
X205589282Y-155010630D01*
X205586240Y-155012276D01*
X205586232Y-155012280D01*
X205272046Y-155182309D01*
X205272037Y-155182314D01*
X205268989Y-155183964D01*
X205266144Y-155185936D01*
X205266132Y-155185944D01*
X204972561Y-155389502D01*
X204972551Y-155389509D01*
X204969708Y-155391481D01*
X204967093Y-155393757D01*
X204967087Y-155393763D01*
X204697693Y-155628378D01*
X204697679Y-155628391D01*
X204695072Y-155630662D01*
X204692718Y-155633218D01*
X204692715Y-155633222D01*
X204450770Y-155896044D01*
X204450763Y-155896051D01*
X204448415Y-155898603D01*
X204446363Y-155901393D01*
X204446357Y-155901402D01*
X204234785Y-156189254D01*
X204234772Y-156189272D01*
X204232730Y-156192052D01*
X204230998Y-156195051D01*
X204230994Y-156195058D01*
X204052374Y-156504438D01*
X204052368Y-156504449D01*
X204050637Y-156507448D01*
X204049242Y-156510626D01*
X204049241Y-156510630D01*
X203905737Y-156837783D01*
X203905731Y-156837798D01*
X203904344Y-156840961D01*
X203903311Y-156844263D01*
X203903309Y-156844269D01*
X203796665Y-157185228D01*
X203796661Y-157185242D01*
X203795629Y-157188543D01*
X203794966Y-157191937D01*
X203794963Y-157191949D01*
X203726476Y-157542562D01*
X203726474Y-157542573D01*
X203725810Y-157545975D01*
X203725523Y-157549437D01*
X203725523Y-157549438D01*
X203710520Y-157730506D01*
X203695736Y-157908919D01*
X170100500Y-157908919D01*
X170100500Y-148908919D01*
X203695736Y-148908919D01*
X203695831Y-148912375D01*
X203695831Y-148912386D01*
X203703329Y-149184370D01*
X203705771Y-149272968D01*
X203706247Y-149276407D01*
X203706248Y-149276408D01*
X203744779Y-149554279D01*
X203755793Y-149633703D01*
X203756644Y-149637066D01*
X203756647Y-149637078D01*
X203844341Y-149983370D01*
X203845196Y-149986746D01*
X203846411Y-149989991D01*
X203846416Y-149990007D01*
X203971673Y-150324552D01*
X203972894Y-150327812D01*
X203974461Y-150330908D01*
X203974463Y-150330913D01*
X204135764Y-150649652D01*
X204135769Y-150649661D01*
X204137337Y-150652759D01*
X204139237Y-150655668D01*
X204139241Y-150655674D01*
X204240554Y-150810745D01*
X204336528Y-150957645D01*
X204568051Y-151238767D01*
X204570538Y-151241186D01*
X204808184Y-151472373D01*
X204829094Y-151492714D01*
X204831836Y-151494848D01*
X205112124Y-151713005D01*
X205116489Y-151716402D01*
X205426747Y-151907117D01*
X205756102Y-152062544D01*
X206100557Y-152180795D01*
X206455929Y-152260436D01*
X206817906Y-152300500D01*
X206821388Y-152300500D01*
X207089250Y-152300500D01*
X207090972Y-152300500D01*
X207363634Y-152285457D01*
X207722855Y-152225513D01*
X208073300Y-152126417D01*
X208410718Y-151989370D01*
X208731011Y-151816036D01*
X209030292Y-151608519D01*
X209304928Y-151369338D01*
X209551585Y-151101397D01*
X209767270Y-150807948D01*
X209949363Y-150492552D01*
X210095656Y-150159039D01*
X210204371Y-149811457D01*
X210274190Y-149454025D01*
X210304264Y-149091081D01*
X210299243Y-148908919D01*
X216695736Y-148908919D01*
X216695831Y-148912375D01*
X216695831Y-148912386D01*
X216703329Y-149184370D01*
X216705771Y-149272968D01*
X216706247Y-149276407D01*
X216706248Y-149276408D01*
X216744779Y-149554279D01*
X216755793Y-149633703D01*
X216756644Y-149637066D01*
X216756647Y-149637078D01*
X216844341Y-149983370D01*
X216845196Y-149986746D01*
X216846411Y-149989991D01*
X216846416Y-149990007D01*
X216971673Y-150324552D01*
X216972894Y-150327812D01*
X216974461Y-150330908D01*
X216974463Y-150330913D01*
X217135764Y-150649652D01*
X217135769Y-150649661D01*
X217137337Y-150652759D01*
X217139237Y-150655668D01*
X217139241Y-150655674D01*
X217240554Y-150810745D01*
X217336528Y-150957645D01*
X217568051Y-151238767D01*
X217570538Y-151241186D01*
X217808184Y-151472373D01*
X217829094Y-151492714D01*
X217831836Y-151494848D01*
X218112124Y-151713005D01*
X218116489Y-151716402D01*
X218426747Y-151907117D01*
X218756102Y-152062544D01*
X219100557Y-152180795D01*
X219455929Y-152260436D01*
X219817906Y-152300500D01*
X219821388Y-152300500D01*
X220089250Y-152300500D01*
X220090972Y-152300500D01*
X220363634Y-152285457D01*
X220722855Y-152225513D01*
X221073300Y-152126417D01*
X221410718Y-151989370D01*
X221731011Y-151816036D01*
X222030292Y-151608519D01*
X222304928Y-151369338D01*
X222551585Y-151101397D01*
X222767270Y-150807948D01*
X222949363Y-150492552D01*
X223095656Y-150159039D01*
X223204371Y-149811457D01*
X223274190Y-149454025D01*
X223296534Y-149184370D01*
X229599500Y-149184370D01*
X229599868Y-149187757D01*
X229599869Y-149187768D01*
X229628450Y-149450561D01*
X229639368Y-149550948D01*
X229640100Y-149554275D01*
X229640101Y-149554279D01*
X229717901Y-149907730D01*
X229717904Y-149907741D01*
X229718636Y-149911066D01*
X229719724Y-149914296D01*
X229719726Y-149914302D01*
X229802187Y-150159039D01*
X229836375Y-150260503D01*
X229837806Y-150263596D01*
X229837808Y-150263601D01*
X229945124Y-150495561D01*
X229991205Y-150595162D01*
X230181310Y-150911119D01*
X230404462Y-151204670D01*
X230406813Y-151207152D01*
X230406814Y-151207153D01*
X230655698Y-151469897D01*
X230655703Y-151469902D01*
X230658044Y-151472373D01*
X230939083Y-151711090D01*
X231244284Y-151918022D01*
X231570070Y-152090743D01*
X231912621Y-152227227D01*
X232267919Y-152325875D01*
X232631801Y-152385531D01*
X232907890Y-152400500D01*
X232909610Y-152400500D01*
X233090390Y-152400500D01*
X233092110Y-152400500D01*
X233368199Y-152385531D01*
X233732081Y-152325875D01*
X234087379Y-152227227D01*
X234429930Y-152090743D01*
X234755716Y-151918022D01*
X235060917Y-151711090D01*
X235341956Y-151472373D01*
X235595538Y-151204670D01*
X235818690Y-150911119D01*
X236008795Y-150595162D01*
X236163625Y-150260503D01*
X236281364Y-149911066D01*
X236360632Y-149550948D01*
X236400500Y-149184370D01*
X236400500Y-148815630D01*
X236360632Y-148449052D01*
X236281364Y-148088934D01*
X236163625Y-147739497D01*
X236008795Y-147404838D01*
X235818690Y-147088881D01*
X235595538Y-146795330D01*
X235437393Y-146628378D01*
X235344301Y-146530102D01*
X235344295Y-146530096D01*
X235341956Y-146527627D01*
X235060917Y-146288910D01*
X234771800Y-146092883D01*
X234758538Y-146083891D01*
X234758533Y-146083888D01*
X234755716Y-146081978D01*
X234618676Y-146009324D01*
X234432941Y-145910853D01*
X234432936Y-145910850D01*
X234429930Y-145909257D01*
X234426763Y-145907995D01*
X234090548Y-145774035D01*
X234090537Y-145774031D01*
X234087379Y-145772773D01*
X234084098Y-145771862D01*
X234084092Y-145771860D01*
X233735375Y-145675039D01*
X233735365Y-145675036D01*
X233732081Y-145674125D01*
X233728722Y-145673574D01*
X233728707Y-145673571D01*
X233371576Y-145615022D01*
X233371564Y-145615020D01*
X233368199Y-145614469D01*
X233364789Y-145614284D01*
X233364779Y-145614283D01*
X233093831Y-145599593D01*
X233093819Y-145599592D01*
X233092110Y-145599500D01*
X232907890Y-145599500D01*
X232906181Y-145599592D01*
X232906168Y-145599593D01*
X232635220Y-145614283D01*
X232635208Y-145614284D01*
X232631801Y-145614469D01*
X232628437Y-145615020D01*
X232628423Y-145615022D01*
X232271292Y-145673571D01*
X232271273Y-145673574D01*
X232267919Y-145674125D01*
X232264638Y-145675035D01*
X232264624Y-145675039D01*
X231915907Y-145771860D01*
X231915896Y-145771863D01*
X231912621Y-145772773D01*
X231909467Y-145774029D01*
X231909451Y-145774035D01*
X231573236Y-145907995D01*
X231573227Y-145907999D01*
X231570070Y-145909257D01*
X231567070Y-145910847D01*
X231567058Y-145910853D01*
X231247301Y-146080378D01*
X231247294Y-146080382D01*
X231244284Y-146081978D01*
X231241474Y-146083882D01*
X231241461Y-146083891D01*
X230941908Y-146286994D01*
X230941900Y-146286999D01*
X230939083Y-146288910D01*
X230936483Y-146291118D01*
X230936477Y-146291123D01*
X230660640Y-146525421D01*
X230660630Y-146525430D01*
X230658044Y-146527627D01*
X230655713Y-146530087D01*
X230655698Y-146530102D01*
X230406814Y-146792846D01*
X230406805Y-146792855D01*
X230404462Y-146795330D01*
X230402395Y-146798048D01*
X230402395Y-146798049D01*
X230183380Y-147086157D01*
X230183373Y-147086165D01*
X230181310Y-147088881D01*
X230179552Y-147091801D01*
X230179545Y-147091813D01*
X230117425Y-147195058D01*
X229991205Y-147404838D01*
X229989775Y-147407928D01*
X229989768Y-147407942D01*
X229837808Y-147736398D01*
X229837803Y-147736409D01*
X229836375Y-147739497D01*
X229835289Y-147742719D01*
X229835285Y-147742730D01*
X229719726Y-148085697D01*
X229719722Y-148085708D01*
X229718636Y-148088934D01*
X229717905Y-148092253D01*
X229717901Y-148092269D01*
X229640101Y-148445720D01*
X229639368Y-148449052D01*
X229638999Y-148452442D01*
X229638999Y-148452444D01*
X229599869Y-148812231D01*
X229599868Y-148812243D01*
X229599500Y-148815630D01*
X229599500Y-149184370D01*
X223296534Y-149184370D01*
X223304264Y-149091081D01*
X223294229Y-148727032D01*
X223244207Y-148366297D01*
X223154804Y-148013254D01*
X223027106Y-147672188D01*
X222939648Y-147499368D01*
X222864235Y-147350347D01*
X222864233Y-147350344D01*
X222862663Y-147347241D01*
X222663472Y-147042355D01*
X222431949Y-146761233D01*
X222194360Y-146530102D01*
X222173399Y-146509711D01*
X222173396Y-146509709D01*
X222170906Y-146507286D01*
X222168163Y-146505151D01*
X221886252Y-146285731D01*
X221886247Y-146285727D01*
X221883511Y-146283598D01*
X221573253Y-146092883D01*
X221570127Y-146091407D01*
X221570120Y-146091404D01*
X221247043Y-145938940D01*
X221247040Y-145938938D01*
X221243898Y-145937456D01*
X221240610Y-145936327D01*
X221240607Y-145936326D01*
X220902723Y-145820331D01*
X220902722Y-145820330D01*
X220899443Y-145819205D01*
X220896067Y-145818448D01*
X220896055Y-145818445D01*
X220547456Y-145740322D01*
X220547445Y-145740320D01*
X220544071Y-145739564D01*
X220540626Y-145739182D01*
X220540622Y-145739182D01*
X220185557Y-145699883D01*
X220185551Y-145699882D01*
X220182094Y-145699500D01*
X219909028Y-145699500D01*
X219907334Y-145699593D01*
X219907314Y-145699594D01*
X219639824Y-145714352D01*
X219639820Y-145714352D01*
X219636366Y-145714543D01*
X219632950Y-145715112D01*
X219632941Y-145715114D01*
X219280582Y-145773913D01*
X219280573Y-145773914D01*
X219277145Y-145774487D01*
X219273809Y-145775430D01*
X219273797Y-145775433D01*
X218930046Y-145872636D01*
X218930032Y-145872640D01*
X218926700Y-145873583D01*
X218923478Y-145874891D01*
X218923474Y-145874893D01*
X218592496Y-146009324D01*
X218592487Y-146009328D01*
X218589282Y-146010630D01*
X218586240Y-146012276D01*
X218586232Y-146012280D01*
X218272046Y-146182309D01*
X218272037Y-146182314D01*
X218268989Y-146183964D01*
X218266144Y-146185936D01*
X218266132Y-146185944D01*
X217972561Y-146389502D01*
X217972551Y-146389509D01*
X217969708Y-146391481D01*
X217967093Y-146393757D01*
X217967087Y-146393763D01*
X217697693Y-146628378D01*
X217697679Y-146628391D01*
X217695072Y-146630662D01*
X217692718Y-146633218D01*
X217692715Y-146633222D01*
X217450770Y-146896044D01*
X217450763Y-146896051D01*
X217448415Y-146898603D01*
X217446363Y-146901393D01*
X217446357Y-146901402D01*
X217234785Y-147189254D01*
X217234772Y-147189272D01*
X217232730Y-147192052D01*
X217230998Y-147195051D01*
X217230994Y-147195058D01*
X217052374Y-147504438D01*
X217052368Y-147504449D01*
X217050637Y-147507448D01*
X217049242Y-147510626D01*
X217049241Y-147510630D01*
X216905737Y-147837783D01*
X216905731Y-147837798D01*
X216904344Y-147840961D01*
X216903311Y-147844263D01*
X216903309Y-147844269D01*
X216796665Y-148185228D01*
X216796661Y-148185242D01*
X216795629Y-148188543D01*
X216794966Y-148191937D01*
X216794963Y-148191949D01*
X216726476Y-148542562D01*
X216726474Y-148542573D01*
X216725810Y-148545975D01*
X216725523Y-148549437D01*
X216725523Y-148549438D01*
X216710520Y-148730506D01*
X216695736Y-148908919D01*
X210299243Y-148908919D01*
X210294229Y-148727032D01*
X210244207Y-148366297D01*
X210154804Y-148013254D01*
X210027106Y-147672188D01*
X209939648Y-147499368D01*
X209864235Y-147350347D01*
X209864233Y-147350344D01*
X209862663Y-147347241D01*
X209663472Y-147042355D01*
X209431949Y-146761233D01*
X209194360Y-146530102D01*
X209173399Y-146509711D01*
X209173396Y-146509709D01*
X209170906Y-146507286D01*
X209168163Y-146505151D01*
X208886252Y-146285731D01*
X208886247Y-146285727D01*
X208883511Y-146283598D01*
X208573253Y-146092883D01*
X208570127Y-146091407D01*
X208570120Y-146091404D01*
X208247043Y-145938940D01*
X208247040Y-145938938D01*
X208243898Y-145937456D01*
X208240610Y-145936327D01*
X208240607Y-145936326D01*
X207902723Y-145820331D01*
X207902722Y-145820330D01*
X207899443Y-145819205D01*
X207896067Y-145818448D01*
X207896055Y-145818445D01*
X207547456Y-145740322D01*
X207547445Y-145740320D01*
X207544071Y-145739564D01*
X207540626Y-145739182D01*
X207540622Y-145739182D01*
X207185557Y-145699883D01*
X207185551Y-145699882D01*
X207182094Y-145699500D01*
X206909028Y-145699500D01*
X206907334Y-145699593D01*
X206907314Y-145699594D01*
X206639824Y-145714352D01*
X206639820Y-145714352D01*
X206636366Y-145714543D01*
X206632950Y-145715112D01*
X206632941Y-145715114D01*
X206280582Y-145773913D01*
X206280573Y-145773914D01*
X206277145Y-145774487D01*
X206273809Y-145775430D01*
X206273797Y-145775433D01*
X205930046Y-145872636D01*
X205930032Y-145872640D01*
X205926700Y-145873583D01*
X205923478Y-145874891D01*
X205923474Y-145874893D01*
X205592496Y-146009324D01*
X205592487Y-146009328D01*
X205589282Y-146010630D01*
X205586240Y-146012276D01*
X205586232Y-146012280D01*
X205272046Y-146182309D01*
X205272037Y-146182314D01*
X205268989Y-146183964D01*
X205266144Y-146185936D01*
X205266132Y-146185944D01*
X204972561Y-146389502D01*
X204972551Y-146389509D01*
X204969708Y-146391481D01*
X204967093Y-146393757D01*
X204967087Y-146393763D01*
X204697693Y-146628378D01*
X204697679Y-146628391D01*
X204695072Y-146630662D01*
X204692718Y-146633218D01*
X204692715Y-146633222D01*
X204450770Y-146896044D01*
X204450763Y-146896051D01*
X204448415Y-146898603D01*
X204446363Y-146901393D01*
X204446357Y-146901402D01*
X204234785Y-147189254D01*
X204234772Y-147189272D01*
X204232730Y-147192052D01*
X204230998Y-147195051D01*
X204230994Y-147195058D01*
X204052374Y-147504438D01*
X204052368Y-147504449D01*
X204050637Y-147507448D01*
X204049242Y-147510626D01*
X204049241Y-147510630D01*
X203905737Y-147837783D01*
X203905731Y-147837798D01*
X203904344Y-147840961D01*
X203903311Y-147844263D01*
X203903309Y-147844269D01*
X203796665Y-148185228D01*
X203796661Y-148185242D01*
X203795629Y-148188543D01*
X203794966Y-148191937D01*
X203794963Y-148191949D01*
X203726476Y-148542562D01*
X203726474Y-148542573D01*
X203725810Y-148545975D01*
X203725523Y-148549437D01*
X203725523Y-148549438D01*
X203710520Y-148730506D01*
X203695736Y-148908919D01*
X170100500Y-148908919D01*
X170100500Y-140184370D01*
X171599500Y-140184370D01*
X171599868Y-140187757D01*
X171599869Y-140187768D01*
X171627395Y-140440858D01*
X171639368Y-140550948D01*
X171640100Y-140554275D01*
X171640101Y-140554279D01*
X171717901Y-140907730D01*
X171717904Y-140907741D01*
X171718636Y-140911066D01*
X171719724Y-140914296D01*
X171719726Y-140914302D01*
X171814285Y-141194944D01*
X171836375Y-141260503D01*
X171837806Y-141263596D01*
X171837808Y-141263601D01*
X171987205Y-141586518D01*
X171991205Y-141595162D01*
X172181310Y-141911119D01*
X172404462Y-142204670D01*
X172406813Y-142207152D01*
X172406814Y-142207153D01*
X172655698Y-142469897D01*
X172655703Y-142469902D01*
X172658044Y-142472373D01*
X172939083Y-142711090D01*
X173244284Y-142918022D01*
X173570070Y-143090743D01*
X173912621Y-143227227D01*
X174267919Y-143325875D01*
X174631801Y-143385531D01*
X174907890Y-143400500D01*
X174909610Y-143400500D01*
X175090390Y-143400500D01*
X175092110Y-143400500D01*
X175368199Y-143385531D01*
X175732081Y-143325875D01*
X176087379Y-143227227D01*
X176429930Y-143090743D01*
X176755716Y-142918022D01*
X177060917Y-142711090D01*
X177341956Y-142472373D01*
X177595538Y-142204670D01*
X177818690Y-141911119D01*
X178008795Y-141595162D01*
X178163625Y-141260503D01*
X178281364Y-140911066D01*
X178360632Y-140550948D01*
X178400500Y-140184370D01*
X178400500Y-139815630D01*
X178360632Y-139449052D01*
X178281364Y-139088934D01*
X178249377Y-138994000D01*
X206967001Y-138994000D01*
X206967001Y-139069360D01*
X206967260Y-139075077D01*
X206973481Y-139143556D01*
X207024633Y-139307706D01*
X207113582Y-139454846D01*
X207235153Y-139576417D01*
X207382293Y-139665366D01*
X207546443Y-139716518D01*
X207614913Y-139722739D01*
X207620648Y-139722999D01*
X207620999Y-139722999D01*
X208129000Y-139722999D01*
X208129361Y-139722999D01*
X208135077Y-139722739D01*
X208203556Y-139716518D01*
X208367706Y-139665366D01*
X208514846Y-139576417D01*
X208636417Y-139454846D01*
X208725366Y-139307705D01*
X208746874Y-139238686D01*
X208786236Y-139179600D01*
X208851294Y-139151175D01*
X208921392Y-139162435D01*
X208974275Y-139209806D01*
X208979436Y-139218969D01*
X208996950Y-139253343D01*
X209086655Y-139343048D01*
X209086657Y-139343049D01*
X209086658Y-139343050D01*
X209199696Y-139400646D01*
X209293481Y-139415500D01*
X209307616Y-139415499D01*
X209352297Y-139423687D01*
X209356128Y-139425140D01*
X209482628Y-139440500D01*
X210337286Y-139440500D01*
X210405407Y-139460502D01*
X210440499Y-139494229D01*
X210499953Y-139579139D01*
X210660861Y-139740047D01*
X210804272Y-139840463D01*
X210847267Y-139870569D01*
X210901387Y-139895806D01*
X210954672Y-139942723D01*
X210974132Y-140011000D01*
X210953590Y-140078960D01*
X210901387Y-140124194D01*
X210847267Y-140149430D01*
X210660858Y-140279955D01*
X210499955Y-140440858D01*
X210369432Y-140627265D01*
X210273260Y-140833504D01*
X210214365Y-141053307D01*
X210194532Y-141280000D01*
X210214365Y-141506692D01*
X210273260Y-141726495D01*
X210304432Y-141793342D01*
X210369432Y-141932734D01*
X210499953Y-142119139D01*
X210660861Y-142280047D01*
X210800664Y-142377937D01*
X210847267Y-142410569D01*
X210901387Y-142435806D01*
X210954672Y-142482723D01*
X210974132Y-142551000D01*
X210953590Y-142618960D01*
X210901387Y-142664194D01*
X210847267Y-142689430D01*
X210660858Y-142819955D01*
X210499955Y-142980858D01*
X210369432Y-143167265D01*
X210273260Y-143373504D01*
X210214365Y-143593307D01*
X210194532Y-143820000D01*
X210214365Y-144046692D01*
X210273260Y-144266495D01*
X210346263Y-144423048D01*
X210369432Y-144472734D01*
X210499953Y-144659139D01*
X210660861Y-144820047D01*
X210847266Y-144950568D01*
X211053504Y-145046739D01*
X211273308Y-145105635D01*
X211500000Y-145125468D01*
X211726692Y-145105635D01*
X211946496Y-145046739D01*
X212152734Y-144950568D01*
X212339139Y-144820047D01*
X212500047Y-144659139D01*
X212630568Y-144472734D01*
X212726739Y-144266496D01*
X212785635Y-144046692D01*
X212805468Y-143820000D01*
X212805468Y-143819999D01*
X227194532Y-143819999D01*
X227214365Y-144046692D01*
X227273260Y-144266495D01*
X227346263Y-144423048D01*
X227369432Y-144472734D01*
X227499953Y-144659139D01*
X227660861Y-144820047D01*
X227847266Y-144950568D01*
X228053504Y-145046739D01*
X228273308Y-145105635D01*
X228500000Y-145125468D01*
X228726692Y-145105635D01*
X228946496Y-145046739D01*
X229152734Y-144950568D01*
X229339139Y-144820047D01*
X229500047Y-144659139D01*
X229559500Y-144574229D01*
X229614957Y-144529901D01*
X229662714Y-144520500D01*
X230513563Y-144520500D01*
X230517372Y-144520500D01*
X230643872Y-144505140D01*
X230647703Y-144503686D01*
X230692383Y-144495499D01*
X230706518Y-144495499D01*
X230800304Y-144480646D01*
X230913342Y-144423050D01*
X231003050Y-144333342D01*
X231020565Y-144298966D01*
X231069309Y-144247354D01*
X231138224Y-144230286D01*
X231205426Y-144253186D01*
X231249579Y-144308783D01*
X231253125Y-144318685D01*
X231274633Y-144387706D01*
X231363582Y-144534846D01*
X231485153Y-144656417D01*
X231632293Y-144745366D01*
X231796443Y-144796518D01*
X231864913Y-144802739D01*
X231870648Y-144802999D01*
X231870999Y-144802999D01*
X231871000Y-144802998D01*
X231871000Y-144074000D01*
X232379000Y-144074000D01*
X232379000Y-144802999D01*
X232379361Y-144802999D01*
X232385077Y-144802739D01*
X232453556Y-144796518D01*
X232617706Y-144745366D01*
X232764846Y-144656417D01*
X232886417Y-144534846D01*
X232975366Y-144387706D01*
X233026518Y-144223556D01*
X233032741Y-144155074D01*
X233033000Y-144149363D01*
X233033000Y-144074000D01*
X232379000Y-144074000D01*
X231871000Y-144074000D01*
X231871000Y-142837000D01*
X232379000Y-142837000D01*
X232379000Y-143566000D01*
X233032999Y-143566000D01*
X233032999Y-143490639D01*
X233032739Y-143484922D01*
X233026518Y-143416443D01*
X232975366Y-143252293D01*
X232886417Y-143105153D01*
X232764846Y-142983582D01*
X232617706Y-142894633D01*
X232453556Y-142843481D01*
X232385074Y-142837258D01*
X232379363Y-142837000D01*
X232379000Y-142837000D01*
X231871000Y-142837000D01*
X231870626Y-142837000D01*
X231864935Y-142837259D01*
X231796443Y-142843481D01*
X231632293Y-142894633D01*
X231485153Y-142983582D01*
X231363582Y-143105153D01*
X231274632Y-143252296D01*
X231253124Y-143321315D01*
X231213761Y-143380400D01*
X231148703Y-143408824D01*
X231078605Y-143397563D01*
X231025723Y-143350192D01*
X231020572Y-143341047D01*
X231003050Y-143306658D01*
X231003049Y-143306657D01*
X231003048Y-143306655D01*
X230913344Y-143216951D01*
X230800304Y-143159354D01*
X230800303Y-143159354D01*
X230706519Y-143144500D01*
X230706518Y-143144500D01*
X230692381Y-143144500D01*
X230647703Y-143136313D01*
X230643871Y-143134859D01*
X230521155Y-143119959D01*
X230521149Y-143119958D01*
X230517372Y-143119500D01*
X230513563Y-143119500D01*
X229662714Y-143119500D01*
X229594593Y-143099498D01*
X229559500Y-143065770D01*
X229500046Y-142980860D01*
X229435294Y-142916108D01*
X229339139Y-142819953D01*
X229245936Y-142754692D01*
X229152735Y-142689432D01*
X229098613Y-142664195D01*
X229045328Y-142617278D01*
X229025867Y-142549000D01*
X229046409Y-142481040D01*
X229098613Y-142435805D01*
X229152734Y-142410568D01*
X229339139Y-142280047D01*
X229500047Y-142119139D01*
X229559500Y-142034229D01*
X229614957Y-141989901D01*
X229662714Y-141980500D01*
X230513563Y-141980500D01*
X230517372Y-141980500D01*
X230643872Y-141965140D01*
X230647703Y-141963686D01*
X230692383Y-141955499D01*
X230706518Y-141955499D01*
X230800304Y-141940646D01*
X230913342Y-141883050D01*
X231003050Y-141793342D01*
X231060646Y-141680304D01*
X231060646Y-141680299D01*
X231064548Y-141672643D01*
X231072278Y-141649328D01*
X231105244Y-141586518D01*
X231524500Y-141586518D01*
X231537323Y-141667480D01*
X231539354Y-141680304D01*
X231562890Y-141726495D01*
X231596951Y-141793344D01*
X231686655Y-141883048D01*
X231686657Y-141883049D01*
X231686658Y-141883050D01*
X231799696Y-141940646D01*
X231893481Y-141955500D01*
X232356518Y-141955499D01*
X232450304Y-141940646D01*
X232563342Y-141883050D01*
X232653050Y-141793342D01*
X232710646Y-141680304D01*
X232725500Y-141586519D01*
X232725499Y-140973482D01*
X232710646Y-140879696D01*
X232653050Y-140766658D01*
X232653049Y-140766657D01*
X232653048Y-140766655D01*
X232563344Y-140676951D01*
X232450304Y-140619354D01*
X232356519Y-140604500D01*
X232356517Y-140604500D01*
X231893481Y-140604500D01*
X231799696Y-140619354D01*
X231686655Y-140676951D01*
X231596951Y-140766655D01*
X231539354Y-140879695D01*
X231524500Y-140973482D01*
X231524500Y-141586518D01*
X231105244Y-141586518D01*
X231134790Y-141530225D01*
X231175500Y-141365056D01*
X231175500Y-141194944D01*
X231134790Y-141029775D01*
X231072281Y-140910676D01*
X231064550Y-140887360D01*
X231060646Y-140879698D01*
X231060646Y-140879696D01*
X231003050Y-140766658D01*
X231003049Y-140766657D01*
X231003048Y-140766655D01*
X230913344Y-140676951D01*
X230800304Y-140619354D01*
X230800303Y-140619354D01*
X230706519Y-140604500D01*
X230706518Y-140604500D01*
X230692381Y-140604500D01*
X230647703Y-140596313D01*
X230643871Y-140594859D01*
X230521155Y-140579959D01*
X230521149Y-140579958D01*
X230517372Y-140579500D01*
X230513563Y-140579500D01*
X229662714Y-140579500D01*
X229594593Y-140559498D01*
X229559500Y-140525770D01*
X229500046Y-140440860D01*
X229500044Y-140440858D01*
X229339139Y-140279953D01*
X229207484Y-140187768D01*
X229202631Y-140184370D01*
X261599500Y-140184370D01*
X261599868Y-140187757D01*
X261599869Y-140187768D01*
X261627395Y-140440858D01*
X261639368Y-140550948D01*
X261640100Y-140554275D01*
X261640101Y-140554279D01*
X261717901Y-140907730D01*
X261717904Y-140907741D01*
X261718636Y-140911066D01*
X261719724Y-140914296D01*
X261719726Y-140914302D01*
X261814285Y-141194944D01*
X261836375Y-141260503D01*
X261837806Y-141263596D01*
X261837808Y-141263601D01*
X261987205Y-141586518D01*
X261991205Y-141595162D01*
X262181310Y-141911119D01*
X262404462Y-142204670D01*
X262406813Y-142207152D01*
X262406814Y-142207153D01*
X262655698Y-142469897D01*
X262655703Y-142469902D01*
X262658044Y-142472373D01*
X262939083Y-142711090D01*
X263244284Y-142918022D01*
X263570070Y-143090743D01*
X263912621Y-143227227D01*
X264267919Y-143325875D01*
X264631801Y-143385531D01*
X264907890Y-143400500D01*
X264909610Y-143400500D01*
X265090390Y-143400500D01*
X265092110Y-143400500D01*
X265368199Y-143385531D01*
X265732081Y-143325875D01*
X266087379Y-143227227D01*
X266429930Y-143090743D01*
X266755716Y-142918022D01*
X267060917Y-142711090D01*
X267341956Y-142472373D01*
X267595538Y-142204670D01*
X267818690Y-141911119D01*
X268008795Y-141595162D01*
X268163625Y-141260503D01*
X268281364Y-140911066D01*
X268360632Y-140550948D01*
X268400500Y-140184370D01*
X268400500Y-139815630D01*
X268360632Y-139449052D01*
X268281364Y-139088934D01*
X268163625Y-138739497D01*
X268008795Y-138404838D01*
X267818690Y-138088881D01*
X267595538Y-137795330D01*
X267419444Y-137609430D01*
X267344301Y-137530102D01*
X267344295Y-137530096D01*
X267341956Y-137527627D01*
X267060917Y-137288910D01*
X266929850Y-137200044D01*
X266758538Y-137083891D01*
X266758533Y-137083888D01*
X266755716Y-137081978D01*
X266514758Y-136954230D01*
X266432941Y-136910853D01*
X266432936Y-136910850D01*
X266429930Y-136909257D01*
X266426763Y-136907995D01*
X266090548Y-136774035D01*
X266090537Y-136774031D01*
X266087379Y-136772773D01*
X266084098Y-136771862D01*
X266084092Y-136771860D01*
X265735375Y-136675039D01*
X265735365Y-136675036D01*
X265732081Y-136674125D01*
X265728722Y-136673574D01*
X265728707Y-136673571D01*
X265371576Y-136615022D01*
X265371564Y-136615020D01*
X265368199Y-136614469D01*
X265364789Y-136614284D01*
X265364779Y-136614283D01*
X265093831Y-136599593D01*
X265093819Y-136599592D01*
X265092110Y-136599500D01*
X264907890Y-136599500D01*
X264906181Y-136599592D01*
X264906168Y-136599593D01*
X264635220Y-136614283D01*
X264635208Y-136614284D01*
X264631801Y-136614469D01*
X264628437Y-136615020D01*
X264628423Y-136615022D01*
X264271292Y-136673571D01*
X264271273Y-136673574D01*
X264267919Y-136674125D01*
X264264638Y-136675035D01*
X264264624Y-136675039D01*
X263915907Y-136771860D01*
X263915896Y-136771863D01*
X263912621Y-136772773D01*
X263909467Y-136774029D01*
X263909451Y-136774035D01*
X263573236Y-136907995D01*
X263573227Y-136907999D01*
X263570070Y-136909257D01*
X263567070Y-136910847D01*
X263567058Y-136910853D01*
X263247301Y-137080378D01*
X263247294Y-137080382D01*
X263244284Y-137081978D01*
X263241474Y-137083882D01*
X263241461Y-137083891D01*
X262941908Y-137286994D01*
X262941900Y-137286999D01*
X262939083Y-137288910D01*
X262936483Y-137291118D01*
X262936477Y-137291123D01*
X262660640Y-137525421D01*
X262660630Y-137525430D01*
X262658044Y-137527627D01*
X262655713Y-137530087D01*
X262655698Y-137530102D01*
X262406814Y-137792846D01*
X262406805Y-137792855D01*
X262404462Y-137795330D01*
X262402395Y-137798048D01*
X262402395Y-137798049D01*
X262183380Y-138086157D01*
X262183373Y-138086165D01*
X262181310Y-138088881D01*
X262179552Y-138091801D01*
X262179545Y-138091813D01*
X261992966Y-138401911D01*
X261991205Y-138404838D01*
X261989775Y-138407928D01*
X261989768Y-138407942D01*
X261837808Y-138736398D01*
X261837803Y-138736409D01*
X261836375Y-138739497D01*
X261835289Y-138742719D01*
X261835285Y-138742730D01*
X261719726Y-139085697D01*
X261719722Y-139085708D01*
X261718636Y-139088934D01*
X261717905Y-139092253D01*
X261717901Y-139092269D01*
X261641250Y-139440500D01*
X261639368Y-139449052D01*
X261638999Y-139452442D01*
X261638999Y-139452444D01*
X261599869Y-139812231D01*
X261599868Y-139812243D01*
X261599500Y-139815630D01*
X261599500Y-140184370D01*
X229202631Y-140184370D01*
X229152735Y-140149432D01*
X229098613Y-140124195D01*
X229045328Y-140077278D01*
X229025867Y-140009000D01*
X229046409Y-139941040D01*
X229098613Y-139895805D01*
X229152734Y-139870568D01*
X229339139Y-139740047D01*
X229500047Y-139579139D01*
X229630568Y-139392734D01*
X229726739Y-139186496D01*
X229785635Y-138966692D01*
X229805468Y-138740000D01*
X229785635Y-138513308D01*
X229726739Y-138293504D01*
X229630568Y-138087266D01*
X229500047Y-137900861D01*
X229339139Y-137739953D01*
X229253151Y-137679744D01*
X229152735Y-137609432D01*
X229098613Y-137584195D01*
X229045328Y-137537278D01*
X229025867Y-137469000D01*
X229046409Y-137401040D01*
X229098613Y-137355805D01*
X229152734Y-137330568D01*
X229339139Y-137200047D01*
X229500047Y-137039139D01*
X229630568Y-136852734D01*
X229726739Y-136646496D01*
X229785635Y-136426692D01*
X229805468Y-136200000D01*
X229785635Y-135973308D01*
X229726739Y-135753504D01*
X229630568Y-135547266D01*
X229500047Y-135360861D01*
X229339139Y-135199953D01*
X229152734Y-135069432D01*
X229072288Y-135031919D01*
X228946495Y-134973260D01*
X228726692Y-134914365D01*
X228558990Y-134899693D01*
X228500000Y-134894532D01*
X228499999Y-134894532D01*
X228273307Y-134914365D01*
X228053504Y-134973260D01*
X227847265Y-135069432D01*
X227660858Y-135199955D01*
X227499955Y-135360858D01*
X227369432Y-135547265D01*
X227273260Y-135753504D01*
X227214365Y-135973307D01*
X227194532Y-136200000D01*
X227214365Y-136426692D01*
X227273260Y-136646495D01*
X227332145Y-136772773D01*
X227369432Y-136852734D01*
X227499953Y-137039139D01*
X227660861Y-137200047D01*
X227785035Y-137286994D01*
X227847267Y-137330569D01*
X227901387Y-137355806D01*
X227954672Y-137402723D01*
X227974132Y-137471000D01*
X227953590Y-137538960D01*
X227901387Y-137584194D01*
X227847267Y-137609430D01*
X227660858Y-137739955D01*
X227499955Y-137900858D01*
X227369432Y-138087265D01*
X227273260Y-138293504D01*
X227214365Y-138513307D01*
X227194532Y-138740000D01*
X227214365Y-138966692D01*
X227273260Y-139186495D01*
X227346263Y-139343048D01*
X227369432Y-139392734D01*
X227499953Y-139579139D01*
X227660861Y-139740047D01*
X227800664Y-139837937D01*
X227847267Y-139870569D01*
X227901387Y-139895806D01*
X227954672Y-139942723D01*
X227974132Y-140011000D01*
X227953590Y-140078960D01*
X227901387Y-140124194D01*
X227847267Y-140149430D01*
X227660858Y-140279955D01*
X227499955Y-140440858D01*
X227369432Y-140627265D01*
X227273260Y-140833504D01*
X227214365Y-141053307D01*
X227194532Y-141279999D01*
X227214365Y-141506692D01*
X227273260Y-141726495D01*
X227304432Y-141793342D01*
X227369432Y-141932734D01*
X227499953Y-142119139D01*
X227660861Y-142280047D01*
X227800664Y-142377937D01*
X227847267Y-142410569D01*
X227901387Y-142435806D01*
X227954672Y-142482723D01*
X227974132Y-142551000D01*
X227953590Y-142618960D01*
X227901387Y-142664194D01*
X227847267Y-142689430D01*
X227660858Y-142819955D01*
X227499955Y-142980858D01*
X227369432Y-143167265D01*
X227273260Y-143373504D01*
X227214365Y-143593307D01*
X227194532Y-143819999D01*
X212805468Y-143819999D01*
X212785635Y-143593308D01*
X212726739Y-143373504D01*
X212630568Y-143167266D01*
X212500047Y-142980861D01*
X212339139Y-142819953D01*
X212253151Y-142759744D01*
X212152735Y-142689432D01*
X212098613Y-142664195D01*
X212045328Y-142617278D01*
X212025867Y-142549000D01*
X212046409Y-142481040D01*
X212098613Y-142435805D01*
X212152734Y-142410568D01*
X212339139Y-142280047D01*
X212500047Y-142119139D01*
X212630568Y-141932734D01*
X212726739Y-141726496D01*
X212785635Y-141506692D01*
X212805468Y-141280000D01*
X212785635Y-141053308D01*
X212726739Y-140833504D01*
X212630568Y-140627266D01*
X212500047Y-140440861D01*
X212339139Y-140279953D01*
X212207484Y-140187768D01*
X212152735Y-140149432D01*
X212098613Y-140124195D01*
X212045328Y-140077278D01*
X212025867Y-140009000D01*
X212046409Y-139941040D01*
X212098613Y-139895805D01*
X212152734Y-139870568D01*
X212339139Y-139740047D01*
X212500047Y-139579139D01*
X212630568Y-139392734D01*
X212726739Y-139186496D01*
X212785635Y-138966692D01*
X212805468Y-138740000D01*
X212785635Y-138513308D01*
X212726739Y-138293504D01*
X212630568Y-138087266D01*
X212500047Y-137900861D01*
X212339139Y-137739953D01*
X212253151Y-137679744D01*
X212152735Y-137609432D01*
X212098613Y-137584195D01*
X212045328Y-137537278D01*
X212025867Y-137469000D01*
X212046409Y-137401040D01*
X212098613Y-137355805D01*
X212152734Y-137330568D01*
X212339139Y-137200047D01*
X212500047Y-137039139D01*
X212630568Y-136852734D01*
X212726739Y-136646496D01*
X212785635Y-136426692D01*
X212805468Y-136200000D01*
X212785635Y-135973308D01*
X212726739Y-135753504D01*
X212630568Y-135547266D01*
X212500047Y-135360861D01*
X212339139Y-135199953D01*
X212152734Y-135069432D01*
X212072288Y-135031919D01*
X211946495Y-134973260D01*
X211726692Y-134914365D01*
X211500000Y-134894532D01*
X211273307Y-134914365D01*
X211053504Y-134973260D01*
X210847265Y-135069432D01*
X210660861Y-135199953D01*
X210499953Y-135360860D01*
X210440500Y-135445770D01*
X210385043Y-135490099D01*
X210337286Y-135499500D01*
X209482628Y-135499500D01*
X209478853Y-135499958D01*
X209478842Y-135499959D01*
X209356125Y-135514859D01*
X209352287Y-135516315D01*
X209307621Y-135524500D01*
X209293484Y-135524500D01*
X209199696Y-135539354D01*
X209086655Y-135596951D01*
X208996949Y-135686657D01*
X208979435Y-135721031D01*
X208930686Y-135772646D01*
X208861771Y-135789711D01*
X208794570Y-135766810D01*
X208750418Y-135711211D01*
X208746874Y-135701313D01*
X208725366Y-135632293D01*
X208636417Y-135485153D01*
X208514846Y-135363582D01*
X208367706Y-135274633D01*
X208203556Y-135223481D01*
X208135074Y-135217258D01*
X208129363Y-135217000D01*
X208129000Y-135217000D01*
X208129000Y-137182999D01*
X208129361Y-137182999D01*
X208135077Y-137182739D01*
X208203556Y-137176518D01*
X208367706Y-137125366D01*
X208514846Y-137036417D01*
X208636417Y-136914846D01*
X208725366Y-136767705D01*
X208746874Y-136698686D01*
X208786236Y-136639600D01*
X208851294Y-136611175D01*
X208921392Y-136622435D01*
X208974275Y-136669806D01*
X208979436Y-136678969D01*
X208996950Y-136713343D01*
X209086655Y-136803048D01*
X209086657Y-136803049D01*
X209086658Y-136803050D01*
X209199696Y-136860646D01*
X209293481Y-136875500D01*
X209307616Y-136875499D01*
X209352297Y-136883687D01*
X209356128Y-136885140D01*
X209482628Y-136900500D01*
X210337286Y-136900500D01*
X210405407Y-136920502D01*
X210440499Y-136954229D01*
X210499953Y-137039139D01*
X210660861Y-137200047D01*
X210787772Y-137288910D01*
X210847267Y-137330569D01*
X210901387Y-137355806D01*
X210954672Y-137402723D01*
X210974132Y-137471000D01*
X210953590Y-137538960D01*
X210901387Y-137584194D01*
X210847267Y-137609430D01*
X210660861Y-137739953D01*
X210499953Y-137900860D01*
X210440500Y-137985770D01*
X210385043Y-138030099D01*
X210337286Y-138039500D01*
X209482628Y-138039500D01*
X209478853Y-138039958D01*
X209478842Y-138039959D01*
X209356125Y-138054859D01*
X209352287Y-138056315D01*
X209307621Y-138064500D01*
X209293484Y-138064500D01*
X209199696Y-138079354D01*
X209086655Y-138136951D01*
X208996949Y-138226657D01*
X208979435Y-138261031D01*
X208930686Y-138312646D01*
X208861771Y-138329711D01*
X208794570Y-138306810D01*
X208750418Y-138251211D01*
X208746874Y-138241313D01*
X208725366Y-138172293D01*
X208636417Y-138025153D01*
X208514846Y-137903582D01*
X208367706Y-137814633D01*
X208203556Y-137763481D01*
X208135074Y-137757258D01*
X208129363Y-137757000D01*
X208129000Y-137757000D01*
X208129000Y-139722999D01*
X207620999Y-139722999D01*
X207621000Y-139722998D01*
X207621000Y-138994000D01*
X206967001Y-138994000D01*
X178249377Y-138994000D01*
X178163625Y-138739497D01*
X178046345Y-138486000D01*
X206967000Y-138486000D01*
X207621000Y-138486000D01*
X207621000Y-137757000D01*
X207620626Y-137757000D01*
X207614935Y-137757259D01*
X207546443Y-137763481D01*
X207382293Y-137814633D01*
X207235153Y-137903582D01*
X207113582Y-138025153D01*
X207024633Y-138172293D01*
X206973481Y-138336443D01*
X206967258Y-138404925D01*
X206967000Y-138410636D01*
X206967000Y-138486000D01*
X178046345Y-138486000D01*
X178008795Y-138404838D01*
X177818690Y-138088881D01*
X177595538Y-137795330D01*
X177419444Y-137609430D01*
X177344301Y-137530102D01*
X177344295Y-137530096D01*
X177341956Y-137527627D01*
X177060917Y-137288910D01*
X176929850Y-137200044D01*
X176758538Y-137083891D01*
X176758533Y-137083888D01*
X176755716Y-137081978D01*
X176514758Y-136954230D01*
X176432941Y-136910853D01*
X176432936Y-136910850D01*
X176429930Y-136909257D01*
X176426763Y-136907995D01*
X176090548Y-136774035D01*
X176090537Y-136774031D01*
X176087379Y-136772773D01*
X176084098Y-136771862D01*
X176084092Y-136771860D01*
X175735375Y-136675039D01*
X175735365Y-136675036D01*
X175732081Y-136674125D01*
X175728722Y-136673574D01*
X175728707Y-136673571D01*
X175371576Y-136615022D01*
X175371564Y-136615020D01*
X175368199Y-136614469D01*
X175364789Y-136614284D01*
X175364779Y-136614283D01*
X175093831Y-136599593D01*
X175093819Y-136599592D01*
X175092110Y-136599500D01*
X174907890Y-136599500D01*
X174906181Y-136599592D01*
X174906168Y-136599593D01*
X174635220Y-136614283D01*
X174635208Y-136614284D01*
X174631801Y-136614469D01*
X174628437Y-136615020D01*
X174628423Y-136615022D01*
X174271292Y-136673571D01*
X174271273Y-136673574D01*
X174267919Y-136674125D01*
X174264638Y-136675035D01*
X174264624Y-136675039D01*
X173915907Y-136771860D01*
X173915896Y-136771863D01*
X173912621Y-136772773D01*
X173909467Y-136774029D01*
X173909451Y-136774035D01*
X173573236Y-136907995D01*
X173573227Y-136907999D01*
X173570070Y-136909257D01*
X173567070Y-136910847D01*
X173567058Y-136910853D01*
X173247301Y-137080378D01*
X173247294Y-137080382D01*
X173244284Y-137081978D01*
X173241474Y-137083882D01*
X173241461Y-137083891D01*
X172941908Y-137286994D01*
X172941900Y-137286999D01*
X172939083Y-137288910D01*
X172936483Y-137291118D01*
X172936477Y-137291123D01*
X172660640Y-137525421D01*
X172660630Y-137525430D01*
X172658044Y-137527627D01*
X172655713Y-137530087D01*
X172655698Y-137530102D01*
X172406814Y-137792846D01*
X172406805Y-137792855D01*
X172404462Y-137795330D01*
X172402395Y-137798048D01*
X172402395Y-137798049D01*
X172183380Y-138086157D01*
X172183373Y-138086165D01*
X172181310Y-138088881D01*
X172179552Y-138091801D01*
X172179545Y-138091813D01*
X171992966Y-138401911D01*
X171991205Y-138404838D01*
X171989775Y-138407928D01*
X171989768Y-138407942D01*
X171837808Y-138736398D01*
X171837803Y-138736409D01*
X171836375Y-138739497D01*
X171835289Y-138742719D01*
X171835285Y-138742730D01*
X171719726Y-139085697D01*
X171719722Y-139085708D01*
X171718636Y-139088934D01*
X171717905Y-139092253D01*
X171717901Y-139092269D01*
X171641250Y-139440500D01*
X171639368Y-139449052D01*
X171638999Y-139452442D01*
X171638999Y-139452444D01*
X171599869Y-139812231D01*
X171599868Y-139812243D01*
X171599500Y-139815630D01*
X171599500Y-140184370D01*
X170100500Y-140184370D01*
X170100500Y-136454000D01*
X206967001Y-136454000D01*
X206967001Y-136529360D01*
X206967260Y-136535077D01*
X206973481Y-136603556D01*
X207024633Y-136767706D01*
X207113582Y-136914846D01*
X207235153Y-137036417D01*
X207382293Y-137125366D01*
X207546443Y-137176518D01*
X207614913Y-137182739D01*
X207620648Y-137182999D01*
X207620999Y-137182999D01*
X207621000Y-137182998D01*
X207621000Y-136454000D01*
X206967001Y-136454000D01*
X170100500Y-136454000D01*
X170100500Y-135946000D01*
X206967000Y-135946000D01*
X207621000Y-135946000D01*
X207621000Y-135217000D01*
X207620626Y-135217000D01*
X207614935Y-135217259D01*
X207546443Y-135223481D01*
X207382293Y-135274633D01*
X207235153Y-135363582D01*
X207113582Y-135485153D01*
X207024633Y-135632293D01*
X206973481Y-135796443D01*
X206967258Y-135864925D01*
X206967000Y-135870636D01*
X206967000Y-135946000D01*
X170100500Y-135946000D01*
X170100500Y-106625694D01*
X181589500Y-106625694D01*
X181592402Y-106662569D01*
X181638256Y-106820398D01*
X181721919Y-106961865D01*
X181721921Y-106961868D01*
X181838131Y-107078078D01*
X181838133Y-107078079D01*
X181838135Y-107078081D01*
X181979602Y-107161744D01*
X182137431Y-107207598D01*
X182174306Y-107210500D01*
X182176777Y-107210500D01*
X183203223Y-107210500D01*
X183205694Y-107210500D01*
X183242569Y-107207598D01*
X183400398Y-107161744D01*
X183541865Y-107078081D01*
X183658081Y-106961865D01*
X183676084Y-106931422D01*
X183727976Y-106882970D01*
X183797826Y-106870264D01*
X183863458Y-106897338D01*
X183896219Y-106937223D01*
X183975970Y-107089897D01*
X184099098Y-107240901D01*
X184250102Y-107364029D01*
X184422794Y-107454237D01*
X184610120Y-107507837D01*
X184721647Y-107517753D01*
X184727215Y-107518000D01*
X184976000Y-107518000D01*
X184976000Y-106543674D01*
X185087685Y-106594680D01*
X185194237Y-106610000D01*
X185265763Y-106610000D01*
X185372315Y-106594680D01*
X185484000Y-106543674D01*
X185484000Y-107518000D01*
X185732785Y-107518000D01*
X185738352Y-107517753D01*
X185849879Y-107507837D01*
X186037205Y-107454237D01*
X186209897Y-107364029D01*
X186360904Y-107240900D01*
X186402348Y-107190073D01*
X186460898Y-107149918D01*
X186531863Y-107147792D01*
X186592711Y-107184371D01*
X186597652Y-107190073D01*
X186639095Y-107240900D01*
X186790102Y-107364029D01*
X186962794Y-107454237D01*
X187150120Y-107507837D01*
X187261647Y-107517753D01*
X187267215Y-107518000D01*
X187516000Y-107518000D01*
X187516000Y-106543674D01*
X187627685Y-106594680D01*
X187734237Y-106610000D01*
X187805763Y-106610000D01*
X187912315Y-106594680D01*
X188024000Y-106543674D01*
X188024000Y-107518000D01*
X188272785Y-107518000D01*
X188278352Y-107517753D01*
X188389879Y-107507837D01*
X188577205Y-107454237D01*
X188749897Y-107364029D01*
X188900901Y-107240901D01*
X189024028Y-107089899D01*
X189103779Y-106937224D01*
X189153048Y-106886105D01*
X189222132Y-106869738D01*
X189289098Y-106893318D01*
X189323914Y-106931421D01*
X189341919Y-106961866D01*
X189458132Y-107078079D01*
X189458134Y-107078080D01*
X189458135Y-107078081D01*
X189547639Y-107131013D01*
X189596091Y-107182904D01*
X189609500Y-107239466D01*
X189609500Y-113672130D01*
X189589498Y-113740251D01*
X189572595Y-113761225D01*
X181822334Y-121511485D01*
X181816794Y-121516701D01*
X181771816Y-121556549D01*
X181737679Y-121606003D01*
X181733171Y-121612129D01*
X181696122Y-121659419D01*
X181692038Y-121668494D01*
X181680839Y-121688351D01*
X181675181Y-121696548D01*
X181653875Y-121752725D01*
X181650964Y-121759753D01*
X181626304Y-121814546D01*
X181624508Y-121824347D01*
X181618389Y-121846299D01*
X181614860Y-121855605D01*
X181607618Y-121915243D01*
X181606473Y-121922764D01*
X181595641Y-121981871D01*
X181599270Y-122041843D01*
X181599500Y-122049452D01*
X181599500Y-125125024D01*
X181599270Y-125132633D01*
X181595641Y-125192606D01*
X181606473Y-125251715D01*
X181607618Y-125259236D01*
X181614860Y-125318874D01*
X181618387Y-125328175D01*
X181624508Y-125350131D01*
X181626304Y-125359931D01*
X181650968Y-125414735D01*
X181653879Y-125421762D01*
X181675182Y-125477930D01*
X181680834Y-125486118D01*
X181692036Y-125505979D01*
X181696122Y-125515057D01*
X181733182Y-125562361D01*
X181737684Y-125568480D01*
X181771816Y-125617928D01*
X181816794Y-125657775D01*
X181822336Y-125662993D01*
X184937014Y-128777671D01*
X184942216Y-128783196D01*
X184982071Y-128828183D01*
X185031532Y-128862324D01*
X185037641Y-128866820D01*
X185084944Y-128903878D01*
X185094015Y-128907961D01*
X185113880Y-128919165D01*
X185116313Y-128920844D01*
X185122070Y-128924818D01*
X185178266Y-128946130D01*
X185185244Y-128949020D01*
X185240069Y-128973695D01*
X185249866Y-128975490D01*
X185271825Y-128981612D01*
X185281128Y-128985140D01*
X185340752Y-128992379D01*
X185348275Y-128993524D01*
X185407393Y-129004358D01*
X185407393Y-129004357D01*
X185407394Y-129004358D01*
X185467367Y-129000729D01*
X185474975Y-129000500D01*
X193672081Y-129000500D01*
X193679688Y-129000729D01*
X193709145Y-129002511D01*
X193739661Y-129004358D01*
X193739661Y-129004357D01*
X193739662Y-129004358D01*
X193798785Y-128993522D01*
X193806303Y-128992379D01*
X193865928Y-128985140D01*
X193875230Y-128981611D01*
X193897188Y-128975490D01*
X193906988Y-128973695D01*
X193961812Y-128949020D01*
X193968794Y-128946128D01*
X194024986Y-128924818D01*
X194033175Y-128919165D01*
X194053043Y-128907960D01*
X194057217Y-128906081D01*
X194062113Y-128903878D01*
X194109416Y-128866817D01*
X194115518Y-128862326D01*
X194164985Y-128828183D01*
X194204840Y-128783194D01*
X194210025Y-128777686D01*
X198900307Y-124087405D01*
X198962620Y-124053379D01*
X198989403Y-124050500D01*
X221957628Y-124050500D01*
X222173500Y-124050500D01*
X222241621Y-124070502D01*
X222288114Y-124124158D01*
X222299500Y-124176500D01*
X222299500Y-126552535D01*
X222279498Y-126620656D01*
X222225842Y-126667149D01*
X222155568Y-126677253D01*
X222090988Y-126647759D01*
X222057091Y-126600753D01*
X222024535Y-126522157D01*
X221928282Y-126396717D01*
X221802842Y-126300464D01*
X221656761Y-126239955D01*
X221500000Y-126219318D01*
X221343238Y-126239955D01*
X221197157Y-126300464D01*
X221071717Y-126396717D01*
X220975464Y-126522157D01*
X220914955Y-126668238D01*
X220907638Y-126723822D01*
X220878916Y-126788749D01*
X220819651Y-126827841D01*
X220748659Y-126828686D01*
X220717532Y-126815205D01*
X220567706Y-126724633D01*
X220403556Y-126673481D01*
X220335074Y-126667258D01*
X220329363Y-126667000D01*
X220254000Y-126667000D01*
X220254000Y-127703000D01*
X220233998Y-127771121D01*
X220180342Y-127817614D01*
X220128000Y-127829000D01*
X219872000Y-127829000D01*
X219803879Y-127808998D01*
X219757386Y-127755342D01*
X219746000Y-127703000D01*
X219746000Y-126666999D01*
X219670639Y-126667000D01*
X219664922Y-126667260D01*
X219596443Y-126673481D01*
X219432292Y-126724633D01*
X219282467Y-126815205D01*
X219213822Y-126833328D01*
X219146277Y-126811463D01*
X219101275Y-126756550D01*
X219092361Y-126723820D01*
X219085044Y-126668238D01*
X219024535Y-126522157D01*
X218928282Y-126396717D01*
X218802842Y-126300464D01*
X218656761Y-126239955D01*
X218500000Y-126219318D01*
X218343238Y-126239955D01*
X218197157Y-126300464D01*
X218071717Y-126396717D01*
X217975464Y-126522157D01*
X217914955Y-126668238D01*
X217894318Y-126824999D01*
X217914955Y-126981762D01*
X217922832Y-127000778D01*
X217930420Y-127071368D01*
X217898639Y-127134854D01*
X217897006Y-127136546D01*
X217862265Y-127204728D01*
X217813516Y-127256343D01*
X217744601Y-127273408D01*
X217677400Y-127250506D01*
X217637733Y-127204727D01*
X217603050Y-127136658D01*
X217603049Y-127136656D01*
X217513344Y-127046951D01*
X217400304Y-126989354D01*
X217400303Y-126989353D01*
X217306519Y-126974500D01*
X217306517Y-126974500D01*
X216693481Y-126974500D01*
X216599696Y-126989354D01*
X216486655Y-127046951D01*
X216396951Y-127136655D01*
X216339354Y-127249695D01*
X216324500Y-127343482D01*
X216324500Y-127631915D01*
X216304498Y-127700036D01*
X216287596Y-127721010D01*
X215794519Y-128214087D01*
X215794517Y-128214089D01*
X215794516Y-128214091D01*
X215794513Y-128214094D01*
X215783231Y-128225376D01*
X215771948Y-128236659D01*
X215761963Y-128256256D01*
X215751639Y-128273104D01*
X215738702Y-128290911D01*
X215731904Y-128311834D01*
X215724340Y-128330096D01*
X215714354Y-128349695D01*
X215710912Y-128371424D01*
X215706298Y-128390642D01*
X215693334Y-128430545D01*
X215691825Y-128430054D01*
X215679498Y-128472038D01*
X215625842Y-128518531D01*
X215555568Y-128528635D01*
X215490988Y-128499141D01*
X215484405Y-128493012D01*
X214712404Y-127721011D01*
X214678378Y-127658699D01*
X214675499Y-127631916D01*
X214675499Y-127517532D01*
X214675499Y-127343482D01*
X214660646Y-127249696D01*
X214603050Y-127136658D01*
X214603049Y-127136657D01*
X214603048Y-127136655D01*
X214582515Y-127116122D01*
X214548489Y-127053810D01*
X214553554Y-126982995D01*
X214555201Y-126978809D01*
X214585044Y-126906762D01*
X214605682Y-126750000D01*
X214585044Y-126593238D01*
X214524536Y-126447159D01*
X214524535Y-126447158D01*
X214524535Y-126447157D01*
X214428282Y-126321717D01*
X214302842Y-126225464D01*
X214156761Y-126164955D01*
X214000000Y-126144318D01*
X213843238Y-126164955D01*
X213697157Y-126225464D01*
X213571717Y-126321717D01*
X213475464Y-126447157D01*
X213414955Y-126593238D01*
X213394318Y-126749999D01*
X213414955Y-126906761D01*
X213444798Y-126978808D01*
X213452387Y-127049398D01*
X213420607Y-127112885D01*
X213417487Y-127116119D01*
X213396950Y-127136656D01*
X213339354Y-127249695D01*
X213324500Y-127343482D01*
X213324500Y-127806518D01*
X213337323Y-127887480D01*
X213339354Y-127900304D01*
X213394874Y-128009268D01*
X213396951Y-128013344D01*
X213486655Y-128103048D01*
X213486657Y-128103049D01*
X213486658Y-128103050D01*
X213599696Y-128160646D01*
X213693481Y-128175500D01*
X213981916Y-128175499D01*
X214050036Y-128195501D01*
X214071011Y-128212404D01*
X214268012Y-128409405D01*
X214302038Y-128471717D01*
X214296973Y-128542532D01*
X214254426Y-128599368D01*
X214187906Y-128624179D01*
X214178917Y-128624500D01*
X213693481Y-128624500D01*
X213599696Y-128639354D01*
X213486655Y-128696951D01*
X213396951Y-128786655D01*
X213339354Y-128899695D01*
X213324500Y-128993482D01*
X213324500Y-129456518D01*
X213337323Y-129537480D01*
X213339354Y-129550304D01*
X213394874Y-129659268D01*
X213396951Y-129663344D01*
X213486655Y-129753048D01*
X213486657Y-129753049D01*
X213486658Y-129753050D01*
X213514084Y-129767024D01*
X213565699Y-129815772D01*
X213582765Y-129884687D01*
X213559864Y-129951889D01*
X213510131Y-129993486D01*
X213347265Y-130069432D01*
X213160858Y-130199955D01*
X212999955Y-130360858D01*
X212869432Y-130547265D01*
X212773260Y-130753504D01*
X212714365Y-130973307D01*
X212694532Y-131200000D01*
X212714365Y-131426692D01*
X212773260Y-131646495D01*
X212862866Y-131838653D01*
X212869432Y-131852734D01*
X212999953Y-132039139D01*
X213160861Y-132200047D01*
X213347266Y-132330568D01*
X213553504Y-132426739D01*
X213773308Y-132485635D01*
X214000000Y-132505468D01*
X214226692Y-132485635D01*
X214440893Y-132428240D01*
X214511865Y-132429930D01*
X214570661Y-132469724D01*
X214598609Y-132534988D01*
X214599500Y-132549947D01*
X214599500Y-134773960D01*
X214579498Y-134842081D01*
X214525842Y-134888574D01*
X214483387Y-134899572D01*
X214447430Y-134902402D01*
X214289602Y-134948256D01*
X214148131Y-135031921D01*
X214031921Y-135148131D01*
X213948256Y-135289602D01*
X213902402Y-135447430D01*
X213899817Y-135480282D01*
X213899500Y-135484306D01*
X213899500Y-136515694D01*
X213902402Y-136552569D01*
X213948256Y-136710398D01*
X213985891Y-136774035D01*
X214031921Y-136851868D01*
X214148131Y-136968078D01*
X214148133Y-136968079D01*
X214148135Y-136968081D01*
X214289602Y-137051744D01*
X214447431Y-137097598D01*
X214484306Y-137100500D01*
X214486777Y-137100500D01*
X215513223Y-137100500D01*
X215515694Y-137100500D01*
X215552569Y-137097598D01*
X215710398Y-137051744D01*
X215851865Y-136968081D01*
X215968081Y-136851865D01*
X216051744Y-136710398D01*
X216097598Y-136552569D01*
X216100500Y-136515694D01*
X216100500Y-135484306D01*
X216100183Y-135480280D01*
X216100235Y-135480032D01*
X216100209Y-135479363D01*
X216100245Y-135479983D01*
X216114768Y-135410800D01*
X216164602Y-135360232D01*
X216233864Y-135344635D01*
X216300564Y-135368959D01*
X216314888Y-135381281D01*
X216402595Y-135468988D01*
X216436621Y-135531300D01*
X216439500Y-135558082D01*
X216439500Y-136515694D01*
X216442402Y-136552569D01*
X216488256Y-136710398D01*
X216525891Y-136774035D01*
X216571921Y-136851868D01*
X216688131Y-136968078D01*
X216688133Y-136968079D01*
X216688135Y-136968081D01*
X216829602Y-137051744D01*
X216987431Y-137097598D01*
X217024306Y-137100500D01*
X217026777Y-137100500D01*
X218053223Y-137100500D01*
X218055694Y-137100500D01*
X218092569Y-137097598D01*
X218250398Y-137051744D01*
X218391865Y-136968081D01*
X218508081Y-136851865D01*
X218591744Y-136710398D01*
X218637598Y-136552569D01*
X218640500Y-136515694D01*
X218640500Y-135484306D01*
X218637598Y-135447431D01*
X218591744Y-135289602D01*
X218508081Y-135148135D01*
X218508079Y-135148133D01*
X218508078Y-135148131D01*
X218391868Y-135031921D01*
X218292679Y-134973261D01*
X218250398Y-134948256D01*
X218092569Y-134902402D01*
X218092568Y-134902402D01*
X218058150Y-134899693D01*
X218058142Y-134899692D01*
X218055694Y-134899500D01*
X217024306Y-134899500D01*
X217023076Y-134899596D01*
X216954390Y-134882312D01*
X216929224Y-134862829D01*
X216037405Y-133971010D01*
X216003379Y-133908698D01*
X216000500Y-133881915D01*
X216000500Y-133340053D01*
X216020502Y-133271932D01*
X216074158Y-133225439D01*
X216144432Y-133215335D01*
X216209012Y-133244829D01*
X216235619Y-133277053D01*
X216308139Y-133402663D01*
X216308141Y-133402665D01*
X216427770Y-133535526D01*
X216572407Y-133640612D01*
X216735733Y-133713329D01*
X216910609Y-133750500D01*
X216910611Y-133750500D01*
X217089389Y-133750500D01*
X217089391Y-133750500D01*
X217264267Y-133713329D01*
X217427593Y-133640612D01*
X217572230Y-133535526D01*
X217691859Y-133402665D01*
X217769444Y-133268284D01*
X217772206Y-133263500D01*
X217823588Y-133214507D01*
X217881325Y-133200500D01*
X218210329Y-133200500D01*
X218227220Y-133203255D01*
X218237662Y-133202772D01*
X218237664Y-133202773D01*
X218281681Y-133200738D01*
X218283936Y-133200634D01*
X218289753Y-133200500D01*
X218308803Y-133200500D01*
X218323341Y-133198811D01*
X218349891Y-133197585D01*
X218356017Y-133194879D01*
X218383756Y-133186290D01*
X218390332Y-133185061D01*
X218412925Y-133171071D01*
X218428353Y-133162940D01*
X218452664Y-133152206D01*
X218457394Y-133147475D01*
X218480162Y-133129441D01*
X218485851Y-133125919D01*
X218501872Y-133104702D01*
X218513314Y-133091554D01*
X218888710Y-132716158D01*
X218951020Y-132682134D01*
X219021835Y-132687199D01*
X219078671Y-132729746D01*
X219103482Y-132796266D01*
X219103113Y-132818424D01*
X219094540Y-132899999D01*
X219114325Y-133088257D01*
X219172820Y-133268283D01*
X219267465Y-133432214D01*
X219267467Y-133432216D01*
X219394129Y-133572888D01*
X219547270Y-133684151D01*
X219547271Y-133684151D01*
X219547272Y-133684152D01*
X219720192Y-133761142D01*
X219720197Y-133761144D01*
X219905354Y-133800500D01*
X219905356Y-133800500D01*
X220094644Y-133800500D01*
X220094646Y-133800500D01*
X220279803Y-133761144D01*
X220452730Y-133684151D01*
X220605871Y-133572888D01*
X220732533Y-133432216D01*
X220827179Y-133268284D01*
X220870121Y-133136122D01*
X220885674Y-133088257D01*
X220885816Y-133086907D01*
X220887228Y-133083472D01*
X220889767Y-133075661D01*
X220890362Y-133075854D01*
X220912826Y-133021249D01*
X220971046Y-132980617D01*
X221041992Y-132977912D01*
X221100221Y-133010978D01*
X221152533Y-133063290D01*
X221162531Y-133077186D01*
X221204496Y-133115442D01*
X221208685Y-133119442D01*
X221218684Y-133129441D01*
X221222161Y-133132918D01*
X221233640Y-133142011D01*
X221253281Y-133159916D01*
X221259521Y-133162333D01*
X221285209Y-133175873D01*
X221290733Y-133179657D01*
X221316603Y-133185741D01*
X221333256Y-133190898D01*
X221358041Y-133200500D01*
X221364733Y-133200500D01*
X221393580Y-133203846D01*
X221400095Y-133205379D01*
X221426410Y-133201707D01*
X221443818Y-133200500D01*
X222118675Y-133200500D01*
X222186796Y-133220502D01*
X222227794Y-133263500D01*
X222308139Y-133402663D01*
X222308141Y-133402665D01*
X222427770Y-133535526D01*
X222572407Y-133640612D01*
X222735733Y-133713329D01*
X222910609Y-133750500D01*
X222910611Y-133750500D01*
X223089389Y-133750500D01*
X223089391Y-133750500D01*
X223264267Y-133713329D01*
X223427593Y-133640612D01*
X223572230Y-133535526D01*
X223691859Y-133402665D01*
X223781250Y-133247835D01*
X223836497Y-133077803D01*
X223855185Y-132900000D01*
X223836497Y-132722197D01*
X223781250Y-132552165D01*
X223781250Y-132552164D01*
X223691860Y-132397336D01*
X223572229Y-132264473D01*
X223427594Y-132159389D01*
X223427593Y-132159388D01*
X223264267Y-132086671D01*
X223264266Y-132086670D01*
X223264262Y-132086669D01*
X223191509Y-132071205D01*
X223129036Y-132037477D01*
X223094715Y-131975327D01*
X223099443Y-131904488D01*
X223114491Y-131875694D01*
X223130568Y-131852734D01*
X223226739Y-131646496D01*
X223285635Y-131426692D01*
X223305468Y-131200000D01*
X224694532Y-131200000D01*
X224714365Y-131426692D01*
X224773260Y-131646495D01*
X224862866Y-131838653D01*
X224869432Y-131852734D01*
X224999953Y-132039139D01*
X225160861Y-132200047D01*
X225347266Y-132330568D01*
X225553504Y-132426739D01*
X225773308Y-132485635D01*
X226000000Y-132505468D01*
X226226692Y-132485635D01*
X226446496Y-132426739D01*
X226652734Y-132330568D01*
X226839139Y-132200047D01*
X227000047Y-132039139D01*
X227130568Y-131852734D01*
X227226739Y-131646496D01*
X227285635Y-131426692D01*
X227305468Y-131200000D01*
X227285635Y-130973308D01*
X227226739Y-130753504D01*
X227130568Y-130547266D01*
X227000047Y-130360861D01*
X226839139Y-130199953D01*
X226652734Y-130069432D01*
X226489867Y-129993485D01*
X226436583Y-129946568D01*
X226417122Y-129878291D01*
X226437664Y-129810331D01*
X226485915Y-129767024D01*
X226513342Y-129753050D01*
X226603050Y-129663342D01*
X226660646Y-129550304D01*
X226675500Y-129456519D01*
X226675499Y-128993482D01*
X226660646Y-128899696D01*
X226603050Y-128786658D01*
X226603049Y-128786657D01*
X226603048Y-128786655D01*
X226513344Y-128696951D01*
X226478969Y-128679436D01*
X226427354Y-128630687D01*
X226410288Y-128561772D01*
X226433189Y-128494571D01*
X226488787Y-128450419D01*
X226498687Y-128446874D01*
X226567705Y-128425366D01*
X226714846Y-128336417D01*
X226836417Y-128214846D01*
X226925366Y-128067706D01*
X226976518Y-127903556D01*
X226982741Y-127835074D01*
X226983000Y-127829363D01*
X226983000Y-127829000D01*
X225017001Y-127829000D01*
X225017001Y-127829360D01*
X225017260Y-127835077D01*
X225023481Y-127903556D01*
X225074633Y-128067706D01*
X225163582Y-128214846D01*
X225285153Y-128336417D01*
X225432294Y-128425366D01*
X225501313Y-128446874D01*
X225560399Y-128486237D01*
X225588824Y-128551295D01*
X225577564Y-128621393D01*
X225530193Y-128674275D01*
X225521031Y-128679436D01*
X225486655Y-128696951D01*
X225396951Y-128786655D01*
X225339354Y-128899695D01*
X225324500Y-128993482D01*
X225324500Y-129456518D01*
X225337323Y-129537480D01*
X225339354Y-129550304D01*
X225394874Y-129659268D01*
X225396951Y-129663344D01*
X225486655Y-129753048D01*
X225486657Y-129753049D01*
X225486658Y-129753050D01*
X225514084Y-129767024D01*
X225565699Y-129815772D01*
X225582765Y-129884687D01*
X225559864Y-129951889D01*
X225510131Y-129993486D01*
X225347265Y-130069432D01*
X225160858Y-130199955D01*
X224999955Y-130360858D01*
X224869432Y-130547265D01*
X224773260Y-130753504D01*
X224714365Y-130973307D01*
X224694532Y-131200000D01*
X223305468Y-131200000D01*
X223285635Y-130973308D01*
X223226739Y-130753504D01*
X223196016Y-130687620D01*
X223185356Y-130617430D01*
X223214336Y-130552617D01*
X223221117Y-130545275D01*
X223263431Y-130502962D01*
X223305484Y-130460909D01*
X223305484Y-130460908D01*
X223319943Y-130446450D01*
X223319947Y-130446444D01*
X223328050Y-130438342D01*
X223338038Y-130418737D01*
X223348354Y-130401901D01*
X223361297Y-130384089D01*
X223368097Y-130363158D01*
X223375662Y-130344897D01*
X223385646Y-130325304D01*
X223389087Y-130303574D01*
X223393699Y-130284363D01*
X223400500Y-130263433D01*
X223400500Y-130136567D01*
X223400500Y-130136566D01*
X223400500Y-129887758D01*
X223420502Y-129819638D01*
X223469297Y-129775492D01*
X223479891Y-129770094D01*
X223513342Y-129753050D01*
X223603050Y-129663342D01*
X223660646Y-129550304D01*
X223675500Y-129456519D01*
X223675499Y-128993482D01*
X223660646Y-128899696D01*
X223603050Y-128786658D01*
X223603049Y-128786657D01*
X223603048Y-128786655D01*
X223513344Y-128696951D01*
X223400304Y-128639354D01*
X223400303Y-128639353D01*
X223306519Y-128624500D01*
X223306517Y-128624500D01*
X222693481Y-128624500D01*
X222599696Y-128639354D01*
X222486655Y-128696951D01*
X222396949Y-128786657D01*
X222362265Y-128854728D01*
X222313516Y-128906343D01*
X222244601Y-128923408D01*
X222177400Y-128900506D01*
X222137733Y-128854727D01*
X222103050Y-128786658D01*
X222103049Y-128786656D01*
X222013344Y-128696951D01*
X221900304Y-128639354D01*
X221900304Y-128639353D01*
X221806519Y-128624500D01*
X221806517Y-128624500D01*
X221193481Y-128624500D01*
X221099696Y-128639354D01*
X220986655Y-128696951D01*
X220896949Y-128786657D01*
X220862265Y-128854728D01*
X220813516Y-128906343D01*
X220744601Y-128923408D01*
X220677400Y-128900506D01*
X220637733Y-128854727D01*
X220603050Y-128786658D01*
X220603049Y-128786656D01*
X220513344Y-128696951D01*
X220478969Y-128679436D01*
X220427354Y-128630687D01*
X220410288Y-128561772D01*
X220433189Y-128494571D01*
X220488787Y-128450419D01*
X220498687Y-128446874D01*
X220567705Y-128425366D01*
X220714846Y-128336417D01*
X220836418Y-128214845D01*
X220862842Y-128171134D01*
X220915200Y-128123185D01*
X220985169Y-128111154D01*
X221027874Y-128124050D01*
X221099696Y-128160646D01*
X221193481Y-128175500D01*
X221806518Y-128175499D01*
X221900304Y-128160646D01*
X222013342Y-128103050D01*
X222103050Y-128013342D01*
X222137734Y-127945270D01*
X222186481Y-127893657D01*
X222255396Y-127876591D01*
X222322598Y-127899492D01*
X222362265Y-127945270D01*
X222395800Y-128011085D01*
X222396951Y-128013344D01*
X222486655Y-128103048D01*
X222486657Y-128103049D01*
X222486658Y-128103050D01*
X222599696Y-128160646D01*
X222599698Y-128160646D01*
X222607360Y-128164550D01*
X222630676Y-128172281D01*
X222749775Y-128234790D01*
X222914944Y-128275500D01*
X222914946Y-128275500D01*
X223085054Y-128275500D01*
X223085056Y-128275500D01*
X223250225Y-128234790D01*
X223369328Y-128172278D01*
X223392643Y-128164548D01*
X223400299Y-128160646D01*
X223400304Y-128160646D01*
X223513342Y-128103050D01*
X223603050Y-128013342D01*
X223660646Y-127900304D01*
X223675500Y-127806519D01*
X223675499Y-127792383D01*
X223683688Y-127747699D01*
X223685140Y-127743872D01*
X223700500Y-127617372D01*
X223700500Y-127321000D01*
X225017000Y-127321000D01*
X225746000Y-127321000D01*
X225746000Y-126667000D01*
X226254000Y-126667000D01*
X226254000Y-127321000D01*
X226982999Y-127321000D01*
X226982999Y-127320639D01*
X226982739Y-127314922D01*
X226976518Y-127246443D01*
X226925366Y-127082293D01*
X226836417Y-126935153D01*
X226714846Y-126813582D01*
X226567706Y-126724633D01*
X226403556Y-126673481D01*
X226335074Y-126667258D01*
X226329363Y-126667000D01*
X226254000Y-126667000D01*
X225746000Y-126667000D01*
X225746000Y-126666999D01*
X225670639Y-126667000D01*
X225664922Y-126667260D01*
X225596443Y-126673481D01*
X225432293Y-126724633D01*
X225285153Y-126813582D01*
X225163582Y-126935153D01*
X225074633Y-127082293D01*
X225023481Y-127246443D01*
X225017258Y-127314925D01*
X225017000Y-127320636D01*
X225017000Y-127321000D01*
X223700500Y-127321000D01*
X223700500Y-124176500D01*
X223720502Y-124108379D01*
X223774158Y-124061886D01*
X223826500Y-124050500D01*
X227025025Y-124050500D01*
X227032632Y-124050729D01*
X227062089Y-124052511D01*
X227092605Y-124054358D01*
X227092605Y-124054357D01*
X227092606Y-124054358D01*
X227151729Y-124043522D01*
X227159247Y-124042379D01*
X227218872Y-124035140D01*
X227228174Y-124031611D01*
X227250132Y-124025490D01*
X227259932Y-124023695D01*
X227314756Y-123999020D01*
X227321738Y-123996128D01*
X227377930Y-123974818D01*
X227386116Y-123969166D01*
X227405987Y-123957960D01*
X227410161Y-123956081D01*
X227415057Y-123953878D01*
X227462360Y-123916817D01*
X227468462Y-123912326D01*
X227517929Y-123878183D01*
X227557776Y-123833203D01*
X227562961Y-123827694D01*
X228227687Y-123162967D01*
X228233195Y-123157783D01*
X228278183Y-123117929D01*
X228312328Y-123068459D01*
X228316806Y-123062372D01*
X228353877Y-123015057D01*
X228357956Y-123005991D01*
X228369162Y-122986123D01*
X228374818Y-122977930D01*
X228396130Y-122921731D01*
X228399031Y-122914728D01*
X228423694Y-122859932D01*
X228425488Y-122850136D01*
X228431611Y-122828175D01*
X228435140Y-122818872D01*
X228442387Y-122759184D01*
X228443521Y-122751733D01*
X228454357Y-122692606D01*
X228450730Y-122632643D01*
X228450500Y-122625035D01*
X228450500Y-111129239D01*
X228470502Y-111061118D01*
X228521831Y-111015717D01*
X228602634Y-110976805D01*
X228813217Y-110833232D01*
X229000050Y-110659877D01*
X229158959Y-110460612D01*
X229216326Y-110361247D01*
X229267706Y-110312256D01*
X229337420Y-110298819D01*
X229403331Y-110325206D01*
X229437317Y-110366281D01*
X229528333Y-110541934D01*
X229532804Y-110549287D01*
X229660540Y-110730248D01*
X229660541Y-110730248D01*
X230571099Y-109819690D01*
X230596059Y-109877553D01*
X230700756Y-110018185D01*
X230835062Y-110130882D01*
X230930430Y-110178777D01*
X230020715Y-111088492D01*
X230020715Y-111088494D01*
X230085984Y-111141595D01*
X230092995Y-111146543D01*
X230320352Y-111284802D01*
X230327981Y-111288754D01*
X230572039Y-111394764D01*
X230580132Y-111397641D01*
X230836359Y-111469433D01*
X230844777Y-111471182D01*
X231108380Y-111507413D01*
X231116954Y-111508000D01*
X231383046Y-111508000D01*
X231391619Y-111507413D01*
X231655222Y-111471182D01*
X231663640Y-111469433D01*
X231919867Y-111397641D01*
X231927960Y-111394764D01*
X232172018Y-111288754D01*
X232179647Y-111284802D01*
X232407004Y-111146543D01*
X232414016Y-111141594D01*
X232479283Y-111088494D01*
X232479283Y-111088492D01*
X231571798Y-110181007D01*
X231588891Y-110174787D01*
X231735373Y-110078445D01*
X231855688Y-109950918D01*
X231930517Y-109821307D01*
X232839457Y-110730247D01*
X232967199Y-110549280D01*
X232971666Y-110541934D01*
X233094082Y-110305682D01*
X233097504Y-110297806D01*
X233186615Y-110047072D01*
X233188930Y-110038807D01*
X233243071Y-109778268D01*
X233244239Y-109769769D01*
X233262398Y-109504298D01*
X233262398Y-109495701D01*
X233244239Y-109230230D01*
X233243071Y-109221731D01*
X233188930Y-108961192D01*
X233186615Y-108952927D01*
X233097504Y-108702193D01*
X233094082Y-108694317D01*
X232971666Y-108458065D01*
X232967199Y-108450719D01*
X232850359Y-108285194D01*
X248589500Y-108285194D01*
X248592402Y-108322069D01*
X248638256Y-108479898D01*
X248721919Y-108621365D01*
X248721921Y-108621368D01*
X248838131Y-108737578D01*
X248838133Y-108737579D01*
X248838135Y-108737581D01*
X248979602Y-108821244D01*
X249137431Y-108867098D01*
X249174306Y-108870000D01*
X249176777Y-108870000D01*
X250203223Y-108870000D01*
X250205694Y-108870000D01*
X250242569Y-108867098D01*
X250400398Y-108821244D01*
X250541865Y-108737581D01*
X250658081Y-108621365D01*
X250741744Y-108479898D01*
X250787598Y-108322069D01*
X250790500Y-108285194D01*
X251129500Y-108285194D01*
X251132402Y-108322069D01*
X251178256Y-108479898D01*
X251261919Y-108621365D01*
X251261921Y-108621368D01*
X251378131Y-108737578D01*
X251378133Y-108737579D01*
X251378135Y-108737581D01*
X251519602Y-108821244D01*
X251677431Y-108867098D01*
X251714306Y-108870000D01*
X251716777Y-108870000D01*
X252743223Y-108870000D01*
X252745694Y-108870000D01*
X252782569Y-108867098D01*
X252940398Y-108821244D01*
X253081865Y-108737581D01*
X253198081Y-108621365D01*
X253281744Y-108479898D01*
X253327598Y-108322069D01*
X253330500Y-108285194D01*
X253669500Y-108285194D01*
X253672402Y-108322069D01*
X253718256Y-108479898D01*
X253801919Y-108621365D01*
X253801921Y-108621368D01*
X253918131Y-108737578D01*
X253918133Y-108737579D01*
X253918135Y-108737581D01*
X254059602Y-108821244D01*
X254217431Y-108867098D01*
X254254306Y-108870000D01*
X254256777Y-108870000D01*
X255283223Y-108870000D01*
X255285694Y-108870000D01*
X255322569Y-108867098D01*
X255480398Y-108821244D01*
X255621865Y-108737581D01*
X255738081Y-108621365D01*
X255821744Y-108479898D01*
X255867598Y-108322069D01*
X255870500Y-108285194D01*
X256209500Y-108285194D01*
X256212402Y-108322069D01*
X256258256Y-108479898D01*
X256341919Y-108621365D01*
X256341921Y-108621368D01*
X256458131Y-108737578D01*
X256458133Y-108737579D01*
X256458135Y-108737581D01*
X256599602Y-108821244D01*
X256757431Y-108867098D01*
X256794306Y-108870000D01*
X256796777Y-108870000D01*
X257823223Y-108870000D01*
X257825694Y-108870000D01*
X257862569Y-108867098D01*
X258020398Y-108821244D01*
X258161865Y-108737581D01*
X258278081Y-108621365D01*
X258361744Y-108479898D01*
X258407598Y-108322069D01*
X258410500Y-108285194D01*
X258410500Y-107253806D01*
X258407598Y-107216931D01*
X258361744Y-107059102D01*
X258278081Y-106917635D01*
X258278079Y-106917633D01*
X258278078Y-106917631D01*
X258161868Y-106801421D01*
X258161865Y-106801419D01*
X258020398Y-106717756D01*
X257862569Y-106671902D01*
X257828150Y-106669193D01*
X257828142Y-106669192D01*
X257825694Y-106669000D01*
X256794306Y-106669000D01*
X256791858Y-106669192D01*
X256791849Y-106669193D01*
X256757430Y-106671902D01*
X256599602Y-106717756D01*
X256458131Y-106801421D01*
X256341921Y-106917631D01*
X256258256Y-107059102D01*
X256212402Y-107216930D01*
X256210516Y-107240901D01*
X256209500Y-107253806D01*
X256209500Y-108285194D01*
X255870500Y-108285194D01*
X255870500Y-107253806D01*
X255867598Y-107216931D01*
X255821744Y-107059102D01*
X255738081Y-106917635D01*
X255738079Y-106917633D01*
X255738078Y-106917631D01*
X255621868Y-106801421D01*
X255621865Y-106801419D01*
X255480398Y-106717756D01*
X255322569Y-106671902D01*
X255288150Y-106669193D01*
X255288142Y-106669192D01*
X255285694Y-106669000D01*
X254254306Y-106669000D01*
X254251858Y-106669192D01*
X254251849Y-106669193D01*
X254217430Y-106671902D01*
X254059602Y-106717756D01*
X253918131Y-106801421D01*
X253801921Y-106917631D01*
X253718256Y-107059102D01*
X253672402Y-107216930D01*
X253670516Y-107240901D01*
X253669500Y-107253806D01*
X253669500Y-108285194D01*
X253330500Y-108285194D01*
X253330500Y-107253806D01*
X253327598Y-107216931D01*
X253281744Y-107059102D01*
X253198081Y-106917635D01*
X253198079Y-106917633D01*
X253198078Y-106917631D01*
X253081868Y-106801421D01*
X253081865Y-106801419D01*
X252940398Y-106717756D01*
X252782569Y-106671902D01*
X252748150Y-106669193D01*
X252748142Y-106669192D01*
X252745694Y-106669000D01*
X251714306Y-106669000D01*
X251711858Y-106669192D01*
X251711849Y-106669193D01*
X251677430Y-106671902D01*
X251519602Y-106717756D01*
X251378131Y-106801421D01*
X251261921Y-106917631D01*
X251178256Y-107059102D01*
X251132402Y-107216930D01*
X251130516Y-107240901D01*
X251129500Y-107253806D01*
X251129500Y-108285194D01*
X250790500Y-108285194D01*
X250790500Y-107253806D01*
X250787598Y-107216931D01*
X250741744Y-107059102D01*
X250658081Y-106917635D01*
X250658079Y-106917633D01*
X250658078Y-106917631D01*
X250541868Y-106801421D01*
X250541865Y-106801419D01*
X250400398Y-106717756D01*
X250242569Y-106671902D01*
X250208150Y-106669193D01*
X250208142Y-106669192D01*
X250205694Y-106669000D01*
X249174306Y-106669000D01*
X249171858Y-106669192D01*
X249171849Y-106669193D01*
X249137430Y-106671902D01*
X248979602Y-106717756D01*
X248838131Y-106801421D01*
X248721921Y-106917631D01*
X248638256Y-107059102D01*
X248592402Y-107216930D01*
X248590516Y-107240901D01*
X248589500Y-107253806D01*
X248589500Y-108285194D01*
X232850359Y-108285194D01*
X232839457Y-108269750D01*
X231928899Y-109180307D01*
X231903941Y-109122447D01*
X231799244Y-108981815D01*
X231664938Y-108869118D01*
X231569568Y-108821221D01*
X232428385Y-107962405D01*
X232490697Y-107928380D01*
X232517480Y-107925500D01*
X232590390Y-107925500D01*
X232592110Y-107925500D01*
X232868199Y-107910531D01*
X233232081Y-107850875D01*
X233587379Y-107752227D01*
X233929930Y-107615743D01*
X234255716Y-107443022D01*
X234560917Y-107236090D01*
X234841956Y-106997373D01*
X235095538Y-106729670D01*
X235318690Y-106436119D01*
X235508795Y-106120162D01*
X235663625Y-105785503D01*
X235781364Y-105436066D01*
X235860632Y-105075948D01*
X235900500Y-104709370D01*
X235900500Y-104340630D01*
X235860632Y-103974052D01*
X235781364Y-103613934D01*
X235663625Y-103264497D01*
X235630216Y-103192285D01*
X255902000Y-103192285D01*
X255902246Y-103197852D01*
X255912162Y-103309379D01*
X255965762Y-103496705D01*
X256055970Y-103669397D01*
X256179098Y-103820401D01*
X256330103Y-103943531D01*
X256482775Y-104023280D01*
X256533894Y-104072548D01*
X256550261Y-104141632D01*
X256526680Y-104208599D01*
X256488579Y-104243414D01*
X256458132Y-104261420D01*
X256341921Y-104377631D01*
X256258256Y-104519102D01*
X256212402Y-104676930D01*
X256210410Y-104702246D01*
X256209500Y-104713806D01*
X256209500Y-105745194D01*
X256212402Y-105782069D01*
X256258256Y-105939898D01*
X256316339Y-106038111D01*
X256341921Y-106081368D01*
X256458131Y-106197578D01*
X256458133Y-106197579D01*
X256458135Y-106197581D01*
X256599602Y-106281244D01*
X256757431Y-106327098D01*
X256794306Y-106330000D01*
X256796777Y-106330000D01*
X257823223Y-106330000D01*
X257825694Y-106330000D01*
X257862569Y-106327098D01*
X258020398Y-106281244D01*
X258161865Y-106197581D01*
X258278081Y-106081365D01*
X258361744Y-105939898D01*
X258407598Y-105782069D01*
X258410500Y-105745194D01*
X258410500Y-104713806D01*
X258407598Y-104676931D01*
X258361744Y-104519102D01*
X258278081Y-104377635D01*
X258278079Y-104377633D01*
X258278078Y-104377631D01*
X258161866Y-104261419D01*
X258131421Y-104243414D01*
X258082969Y-104191521D01*
X258070264Y-104121670D01*
X258097340Y-104056040D01*
X258137224Y-104023279D01*
X258289899Y-103943528D01*
X258440901Y-103820401D01*
X258564029Y-103669397D01*
X258654237Y-103496705D01*
X258707837Y-103309379D01*
X258717753Y-103197852D01*
X258718000Y-103192285D01*
X258718000Y-102943500D01*
X257741116Y-102943500D01*
X257769493Y-102899344D01*
X257810000Y-102761389D01*
X257810000Y-102617611D01*
X257769493Y-102479656D01*
X257741116Y-102435500D01*
X258718000Y-102435500D01*
X258718000Y-102186714D01*
X258717753Y-102181147D01*
X258707837Y-102069620D01*
X258654237Y-101882294D01*
X258564029Y-101709602D01*
X258440901Y-101558598D01*
X258289897Y-101435470D01*
X258117205Y-101345262D01*
X257929879Y-101291662D01*
X257818352Y-101281746D01*
X257812785Y-101281500D01*
X257564000Y-101281500D01*
X257564000Y-102255825D01*
X257452315Y-102204820D01*
X257345763Y-102189500D01*
X257274237Y-102189500D01*
X257167685Y-102204820D01*
X257055999Y-102255825D01*
X257056000Y-101281500D01*
X256807215Y-101281500D01*
X256801647Y-101281746D01*
X256690120Y-101291662D01*
X256502794Y-101345262D01*
X256330102Y-101435470D01*
X256179098Y-101558598D01*
X256055970Y-101709602D01*
X255965762Y-101882294D01*
X255912162Y-102069620D01*
X255902246Y-102181147D01*
X255902000Y-102186714D01*
X255902000Y-102435500D01*
X256878884Y-102435500D01*
X256850507Y-102479656D01*
X256810000Y-102617611D01*
X256810000Y-102761389D01*
X256850507Y-102899344D01*
X256878884Y-102943500D01*
X255902000Y-102943500D01*
X255902000Y-103192285D01*
X235630216Y-103192285D01*
X235508795Y-102929838D01*
X235318690Y-102613881D01*
X235095538Y-102320330D01*
X235081231Y-102305227D01*
X234844301Y-102055102D01*
X234844295Y-102055096D01*
X234841956Y-102052627D01*
X234560917Y-101813910D01*
X234407075Y-101709602D01*
X234258538Y-101608891D01*
X234258533Y-101608888D01*
X234255716Y-101606978D01*
X234164462Y-101558598D01*
X233932941Y-101435853D01*
X233932936Y-101435850D01*
X233929930Y-101434257D01*
X233926763Y-101432995D01*
X233590548Y-101299035D01*
X233590537Y-101299031D01*
X233587379Y-101297773D01*
X233584098Y-101296862D01*
X233584092Y-101296860D01*
X233235375Y-101200039D01*
X233235365Y-101200036D01*
X233232081Y-101199125D01*
X233228722Y-101198574D01*
X233228707Y-101198571D01*
X232871576Y-101140022D01*
X232871564Y-101140020D01*
X232868199Y-101139469D01*
X232864789Y-101139284D01*
X232864779Y-101139283D01*
X232593831Y-101124593D01*
X232593819Y-101124592D01*
X232592110Y-101124500D01*
X232407890Y-101124500D01*
X232406181Y-101124592D01*
X232406168Y-101124593D01*
X232135220Y-101139283D01*
X232135208Y-101139284D01*
X232131801Y-101139469D01*
X232128437Y-101140020D01*
X232128423Y-101140022D01*
X231771292Y-101198571D01*
X231771273Y-101198574D01*
X231767919Y-101199125D01*
X231764638Y-101200035D01*
X231764624Y-101200039D01*
X231415907Y-101296860D01*
X231415896Y-101296863D01*
X231412621Y-101297773D01*
X231409467Y-101299029D01*
X231409451Y-101299035D01*
X231073236Y-101432995D01*
X231073227Y-101432999D01*
X231070070Y-101434257D01*
X231067070Y-101435847D01*
X231067058Y-101435853D01*
X230747301Y-101605378D01*
X230747294Y-101605382D01*
X230744284Y-101606978D01*
X230741474Y-101608882D01*
X230741461Y-101608891D01*
X230441908Y-101811994D01*
X230441900Y-101811999D01*
X230439083Y-101813910D01*
X230436483Y-101816118D01*
X230436477Y-101816123D01*
X230160640Y-102050421D01*
X230160630Y-102050430D01*
X230158044Y-102052627D01*
X230155713Y-102055087D01*
X230155698Y-102055102D01*
X229906814Y-102317846D01*
X229906805Y-102317855D01*
X229904462Y-102320330D01*
X229902395Y-102323048D01*
X229902395Y-102323049D01*
X229683380Y-102611157D01*
X229683373Y-102611165D01*
X229681310Y-102613881D01*
X229679552Y-102616802D01*
X229679541Y-102616819D01*
X229607962Y-102735783D01*
X229555703Y-102783840D01*
X229485758Y-102796015D01*
X229420335Y-102768442D01*
X229392036Y-102735783D01*
X229318690Y-102613881D01*
X229095538Y-102320330D01*
X229081231Y-102305227D01*
X228844301Y-102055102D01*
X228844295Y-102055096D01*
X228841956Y-102052627D01*
X228560917Y-101813910D01*
X228407075Y-101709602D01*
X228258538Y-101608891D01*
X228258533Y-101608888D01*
X228255716Y-101606978D01*
X228164462Y-101558598D01*
X227932941Y-101435853D01*
X227932936Y-101435850D01*
X227929930Y-101434257D01*
X227926763Y-101432995D01*
X227590548Y-101299035D01*
X227590537Y-101299031D01*
X227587379Y-101297773D01*
X227584098Y-101296862D01*
X227584092Y-101296860D01*
X227235375Y-101200039D01*
X227235365Y-101200036D01*
X227232081Y-101199125D01*
X227228722Y-101198574D01*
X227228707Y-101198571D01*
X226871576Y-101140022D01*
X226871564Y-101140020D01*
X226868199Y-101139469D01*
X226864789Y-101139284D01*
X226864779Y-101139283D01*
X226593831Y-101124593D01*
X226593819Y-101124592D01*
X226592110Y-101124500D01*
X226407890Y-101124500D01*
X226406181Y-101124592D01*
X226406168Y-101124593D01*
X226135220Y-101139283D01*
X226135208Y-101139284D01*
X226131801Y-101139469D01*
X226128437Y-101140020D01*
X226128423Y-101140022D01*
X225771292Y-101198571D01*
X225771273Y-101198574D01*
X225767919Y-101199125D01*
X225764638Y-101200035D01*
X225764624Y-101200039D01*
X225415907Y-101296860D01*
X225415896Y-101296863D01*
X225412621Y-101297773D01*
X225409467Y-101299029D01*
X225409451Y-101299035D01*
X225073236Y-101432995D01*
X225073227Y-101432999D01*
X225070070Y-101434257D01*
X225067070Y-101435847D01*
X225067058Y-101435853D01*
X224747301Y-101605378D01*
X224747294Y-101605382D01*
X224744284Y-101606978D01*
X224741474Y-101608882D01*
X224741461Y-101608891D01*
X224441908Y-101811994D01*
X224441900Y-101811999D01*
X224439083Y-101813910D01*
X224436483Y-101816118D01*
X224436477Y-101816123D01*
X224160640Y-102050421D01*
X224160630Y-102050430D01*
X224158044Y-102052627D01*
X224155713Y-102055087D01*
X224155698Y-102055102D01*
X223906814Y-102317846D01*
X223906805Y-102317855D01*
X223904462Y-102320330D01*
X223902395Y-102323048D01*
X223902395Y-102323049D01*
X223683380Y-102611157D01*
X223683373Y-102611165D01*
X223681310Y-102613881D01*
X223679552Y-102616801D01*
X223679545Y-102616813D01*
X223500000Y-102915220D01*
X223491205Y-102929838D01*
X223489775Y-102932928D01*
X223489768Y-102932942D01*
X223337808Y-103261398D01*
X223337803Y-103261409D01*
X223336375Y-103264497D01*
X223335289Y-103267719D01*
X223335285Y-103267730D01*
X223219726Y-103610697D01*
X223219722Y-103610708D01*
X223218636Y-103613934D01*
X223217905Y-103617253D01*
X223217901Y-103617269D01*
X223146086Y-103943531D01*
X223139368Y-103974052D01*
X223138999Y-103977442D01*
X223138999Y-103977444D01*
X223099869Y-104337231D01*
X223099868Y-104337243D01*
X223099500Y-104340630D01*
X223099500Y-104709370D01*
X223099868Y-104712757D01*
X223099869Y-104712768D01*
X223128835Y-104979098D01*
X223139368Y-105075948D01*
X223140100Y-105079275D01*
X223140101Y-105079279D01*
X223217901Y-105432730D01*
X223217904Y-105432741D01*
X223218636Y-105436066D01*
X223219724Y-105439296D01*
X223219726Y-105439302D01*
X223321960Y-105742723D01*
X223336375Y-105785503D01*
X223337806Y-105788596D01*
X223337808Y-105788601D01*
X223473255Y-106081365D01*
X223491205Y-106120162D01*
X223681310Y-106436119D01*
X223904462Y-106729670D01*
X223906813Y-106732152D01*
X223906814Y-106732153D01*
X224155698Y-106994897D01*
X224155703Y-106994902D01*
X224158044Y-106997373D01*
X224439083Y-107236090D01*
X224744284Y-107443022D01*
X225070070Y-107615743D01*
X225412621Y-107752227D01*
X225767919Y-107850875D01*
X226131801Y-107910531D01*
X226407890Y-107925500D01*
X226409610Y-107925500D01*
X226590390Y-107925500D01*
X226592110Y-107925500D01*
X226628522Y-107923525D01*
X226697623Y-107939808D01*
X226746954Y-107990867D01*
X226760849Y-108060491D01*
X226734897Y-108126574D01*
X226706324Y-108153444D01*
X226686787Y-108166764D01*
X226686781Y-108166768D01*
X226686783Y-108166768D01*
X226499950Y-108340123D01*
X226388484Y-108479897D01*
X226341039Y-108539391D01*
X226213607Y-108760111D01*
X226120492Y-108997362D01*
X226067342Y-109230230D01*
X226063778Y-109245843D01*
X226044732Y-109500000D01*
X226063778Y-109754157D01*
X226120492Y-110002637D01*
X226213607Y-110239888D01*
X226341041Y-110460612D01*
X226499950Y-110659877D01*
X226686783Y-110833232D01*
X226897366Y-110976805D01*
X226978169Y-111015717D01*
X227030865Y-111063294D01*
X227049500Y-111129239D01*
X227049500Y-122307652D01*
X227029498Y-122375773D01*
X227012595Y-122396746D01*
X226796746Y-122612596D01*
X226734437Y-122646620D01*
X226707653Y-122649500D01*
X226487389Y-122649500D01*
X226419268Y-122629498D01*
X226372775Y-122575842D01*
X226362671Y-122505568D01*
X226375822Y-122464945D01*
X226377272Y-122462181D01*
X226409790Y-122400225D01*
X226450500Y-122235056D01*
X226450500Y-122064944D01*
X226409790Y-121899775D01*
X226330734Y-121749148D01*
X226217929Y-121621817D01*
X226102347Y-121542036D01*
X226077929Y-121525181D01*
X225918871Y-121464859D01*
X225796155Y-121449959D01*
X225796149Y-121449958D01*
X225792372Y-121449500D01*
X225788563Y-121449500D01*
X198164965Y-121449500D01*
X198157357Y-121449270D01*
X198097392Y-121445642D01*
X198038302Y-121456471D01*
X198030781Y-121457616D01*
X197971127Y-121464860D01*
X197961815Y-121468391D01*
X197939863Y-121474510D01*
X197930068Y-121476305D01*
X197875279Y-121500963D01*
X197868250Y-121503875D01*
X197812067Y-121525182D01*
X197803869Y-121530841D01*
X197784019Y-121542036D01*
X197774945Y-121546120D01*
X197755814Y-121561108D01*
X197727639Y-121583180D01*
X197721525Y-121587680D01*
X197672070Y-121621817D01*
X197632223Y-121666794D01*
X197627007Y-121672334D01*
X192936748Y-126362595D01*
X192874436Y-126396620D01*
X192847653Y-126399500D01*
X188482347Y-126399500D01*
X188414226Y-126379498D01*
X188393251Y-126362595D01*
X187758058Y-125727401D01*
X187758057Y-125727400D01*
X187755367Y-125724710D01*
X187655057Y-125646122D01*
X187655055Y-125646121D01*
X187655054Y-125646120D01*
X187624689Y-125632453D01*
X187587308Y-125606650D01*
X187227404Y-125246746D01*
X187193378Y-125184434D01*
X187190500Y-125157659D01*
X187190500Y-125025380D01*
X187210503Y-124957259D01*
X187252361Y-124916927D01*
X187272363Y-124905098D01*
X187351865Y-124858081D01*
X187468081Y-124741865D01*
X187486084Y-124711422D01*
X187537976Y-124662970D01*
X187607826Y-124650264D01*
X187673458Y-124677338D01*
X187706219Y-124717223D01*
X187785970Y-124869897D01*
X187909098Y-125020901D01*
X188060102Y-125144029D01*
X188232794Y-125234237D01*
X188420120Y-125287837D01*
X188531647Y-125297753D01*
X188537215Y-125298000D01*
X188786000Y-125298000D01*
X188786000Y-124323674D01*
X188897685Y-124374680D01*
X189004237Y-124390000D01*
X189075763Y-124390000D01*
X189182315Y-124374680D01*
X189294000Y-124323674D01*
X189294000Y-125298000D01*
X189542785Y-125298000D01*
X189548352Y-125297753D01*
X189659879Y-125287837D01*
X189847205Y-125234237D01*
X190019897Y-125144029D01*
X190170901Y-125020901D01*
X190294029Y-124869897D01*
X190384237Y-124697205D01*
X190437837Y-124509879D01*
X190447753Y-124398352D01*
X190448000Y-124392785D01*
X190448000Y-124144000D01*
X189471116Y-124144000D01*
X189499493Y-124099844D01*
X189540000Y-123961889D01*
X189540000Y-123818111D01*
X189499493Y-123680156D01*
X189471116Y-123636000D01*
X190448000Y-123636000D01*
X190448000Y-123387214D01*
X190447753Y-123381647D01*
X190437837Y-123270120D01*
X190384237Y-123082794D01*
X190294029Y-122910102D01*
X190170901Y-122759098D01*
X190019897Y-122635970D01*
X189847205Y-122545762D01*
X189659879Y-122492162D01*
X189548352Y-122482246D01*
X189542785Y-122482000D01*
X189294000Y-122482000D01*
X189294000Y-123456325D01*
X189182315Y-123405320D01*
X189075763Y-123390000D01*
X189004237Y-123390000D01*
X188897685Y-123405320D01*
X188786000Y-123456325D01*
X188786000Y-122482000D01*
X188537215Y-122482000D01*
X188531647Y-122482246D01*
X188420120Y-122492162D01*
X188232794Y-122545762D01*
X188060102Y-122635970D01*
X187909098Y-122759098D01*
X187785969Y-122910102D01*
X187706219Y-123062776D01*
X187656950Y-123113894D01*
X187587866Y-123130261D01*
X187520900Y-123106680D01*
X187486084Y-123068577D01*
X187468081Y-123038135D01*
X187468079Y-123038133D01*
X187468078Y-123038131D01*
X187351868Y-122921921D01*
X187351574Y-122921747D01*
X187210398Y-122838256D01*
X187052569Y-122792402D01*
X187018150Y-122789693D01*
X187018142Y-122789692D01*
X187015694Y-122789500D01*
X185984306Y-122789500D01*
X185981858Y-122789692D01*
X185981849Y-122789693D01*
X185947430Y-122792402D01*
X185789602Y-122838256D01*
X185648131Y-122921921D01*
X185531921Y-123038131D01*
X185505508Y-123082794D01*
X185448256Y-123179602D01*
X185402402Y-123337431D01*
X185399500Y-123374306D01*
X185399500Y-124405694D01*
X185402402Y-124442569D01*
X185448256Y-124600398D01*
X185513916Y-124711423D01*
X185531921Y-124741868D01*
X185648132Y-124858079D01*
X185648134Y-124858080D01*
X185648135Y-124858081D01*
X185727638Y-124905098D01*
X185776091Y-124956990D01*
X185789500Y-125013552D01*
X185789500Y-125475024D01*
X185789270Y-125482633D01*
X185785641Y-125542606D01*
X185796473Y-125601715D01*
X185797618Y-125609236D01*
X185804860Y-125668874D01*
X185808387Y-125678175D01*
X185814508Y-125700131D01*
X185816304Y-125709931D01*
X185840968Y-125764735D01*
X185843879Y-125771762D01*
X185865182Y-125827930D01*
X185870834Y-125836118D01*
X185882036Y-125855979D01*
X185886122Y-125865057D01*
X185923182Y-125912361D01*
X185927684Y-125918480D01*
X185961816Y-125967928D01*
X186006794Y-126007775D01*
X186012336Y-126012993D01*
X186774633Y-126775290D01*
X186777634Y-126777641D01*
X186777635Y-126777642D01*
X186874943Y-126853878D01*
X186905306Y-126867543D01*
X186942690Y-126893347D01*
X187254071Y-127204728D01*
X187433748Y-127384404D01*
X187467773Y-127446717D01*
X187462709Y-127517532D01*
X187420162Y-127574368D01*
X187353642Y-127599179D01*
X187344653Y-127599500D01*
X185792347Y-127599500D01*
X185724226Y-127579498D01*
X185703252Y-127562595D01*
X183345885Y-125205228D01*
X183311859Y-125142916D01*
X183316924Y-125072101D01*
X183359471Y-125015265D01*
X183425991Y-124990454D01*
X183439935Y-124990230D01*
X183441815Y-124990304D01*
X183444306Y-124990500D01*
X183446796Y-124990500D01*
X184473223Y-124990500D01*
X184475694Y-124990500D01*
X184512569Y-124987598D01*
X184670398Y-124941744D01*
X184811865Y-124858081D01*
X184928081Y-124741865D01*
X185011744Y-124600398D01*
X185057598Y-124442569D01*
X185060500Y-124405694D01*
X185060500Y-123374306D01*
X185057598Y-123337431D01*
X185011744Y-123179602D01*
X184928081Y-123038135D01*
X184928079Y-123038133D01*
X184928078Y-123038131D01*
X184811868Y-122921921D01*
X184811574Y-122921747D01*
X184670398Y-122838256D01*
X184512569Y-122792402D01*
X184478150Y-122789693D01*
X184478142Y-122789692D01*
X184475694Y-122789500D01*
X183444306Y-122789500D01*
X183441858Y-122789692D01*
X183441849Y-122789693D01*
X183407430Y-122792402D01*
X183249601Y-122838255D01*
X183249602Y-122838256D01*
X183190637Y-122873127D01*
X183121822Y-122890586D01*
X183054491Y-122868069D01*
X183010022Y-122812724D01*
X183000500Y-122764673D01*
X183000500Y-122366823D01*
X183020502Y-122298702D01*
X183037400Y-122277733D01*
X190787686Y-114527447D01*
X190793194Y-114522262D01*
X190838183Y-114482407D01*
X190872324Y-114432944D01*
X190876806Y-114426852D01*
X190913878Y-114379534D01*
X190917960Y-114370463D01*
X190929164Y-114350597D01*
X190934818Y-114342408D01*
X190956122Y-114286229D01*
X190959028Y-114279214D01*
X190983695Y-114224409D01*
X190985489Y-114214614D01*
X190991615Y-114192643D01*
X190995140Y-114183350D01*
X191002383Y-114123691D01*
X191003524Y-114116200D01*
X191014358Y-114057083D01*
X191010730Y-113997110D01*
X191010500Y-113989502D01*
X191010500Y-107239466D01*
X191030502Y-107171345D01*
X191072360Y-107131013D01*
X191161865Y-107078081D01*
X191278081Y-106961865D01*
X191361744Y-106820398D01*
X191407598Y-106662569D01*
X191410500Y-106625694D01*
X191410500Y-105594306D01*
X191407598Y-105557431D01*
X191361744Y-105399602D01*
X191278081Y-105258135D01*
X191278079Y-105258133D01*
X191278078Y-105258131D01*
X191161868Y-105141921D01*
X191141883Y-105130102D01*
X191020398Y-105058256D01*
X190862569Y-105012402D01*
X190828150Y-105009693D01*
X190828142Y-105009692D01*
X190825694Y-105009500D01*
X189794306Y-105009500D01*
X189791858Y-105009692D01*
X189791849Y-105009693D01*
X189757430Y-105012402D01*
X189599602Y-105058256D01*
X189458131Y-105141921D01*
X189341920Y-105258132D01*
X189323914Y-105288579D01*
X189272020Y-105337031D01*
X189202169Y-105349735D01*
X189136539Y-105322658D01*
X189103780Y-105282775D01*
X189024031Y-105130103D01*
X188900901Y-104979098D01*
X188749897Y-104855970D01*
X188577205Y-104765762D01*
X188389879Y-104712162D01*
X188278352Y-104702246D01*
X188272785Y-104702000D01*
X188024000Y-104702000D01*
X188024000Y-105676325D01*
X187912315Y-105625320D01*
X187805763Y-105610000D01*
X187734237Y-105610000D01*
X187627685Y-105625320D01*
X187516000Y-105676325D01*
X187516000Y-104702000D01*
X187267215Y-104702000D01*
X187261647Y-104702246D01*
X187150120Y-104712162D01*
X186962794Y-104765762D01*
X186790102Y-104855970D01*
X186639097Y-104979098D01*
X186597652Y-105029927D01*
X186539101Y-105070081D01*
X186468136Y-105072206D01*
X186407288Y-105035628D01*
X186402348Y-105029927D01*
X186360902Y-104979098D01*
X186209897Y-104855970D01*
X186037205Y-104765762D01*
X185849879Y-104712162D01*
X185738352Y-104702246D01*
X185732785Y-104702000D01*
X185484000Y-104702000D01*
X185484000Y-105676325D01*
X185372315Y-105625320D01*
X185265763Y-105610000D01*
X185194237Y-105610000D01*
X185087685Y-105625320D01*
X184976000Y-105676325D01*
X184976000Y-104702000D01*
X184727215Y-104702000D01*
X184721647Y-104702246D01*
X184610120Y-104712162D01*
X184422794Y-104765762D01*
X184250102Y-104855970D01*
X184099098Y-104979098D01*
X183975969Y-105130102D01*
X183896219Y-105282776D01*
X183846950Y-105333894D01*
X183777866Y-105350261D01*
X183710900Y-105326680D01*
X183676084Y-105288577D01*
X183658081Y-105258135D01*
X183658079Y-105258133D01*
X183658078Y-105258131D01*
X183541868Y-105141921D01*
X183521883Y-105130102D01*
X183400398Y-105058256D01*
X183242569Y-105012402D01*
X183208150Y-105009693D01*
X183208142Y-105009692D01*
X183205694Y-105009500D01*
X182174306Y-105009500D01*
X182171858Y-105009692D01*
X182171849Y-105009693D01*
X182137430Y-105012402D01*
X181979602Y-105058256D01*
X181838131Y-105141921D01*
X181721921Y-105258131D01*
X181683760Y-105322658D01*
X181638256Y-105399602D01*
X181592402Y-105557431D01*
X181589500Y-105594306D01*
X181589500Y-106625694D01*
X170100500Y-106625694D01*
X170100500Y-95184370D01*
X171599500Y-95184370D01*
X171599868Y-95187757D01*
X171599869Y-95187768D01*
X171638092Y-95539220D01*
X171639368Y-95550948D01*
X171640100Y-95554275D01*
X171640101Y-95554279D01*
X171717901Y-95907730D01*
X171717904Y-95907741D01*
X171718636Y-95911066D01*
X171836375Y-96260503D01*
X171991205Y-96595162D01*
X172181310Y-96911119D01*
X172404462Y-97204670D01*
X172406813Y-97207152D01*
X172406814Y-97207153D01*
X172655698Y-97469897D01*
X172655703Y-97469902D01*
X172658044Y-97472373D01*
X172939083Y-97711090D01*
X173244284Y-97918022D01*
X173570070Y-98090743D01*
X173912621Y-98227227D01*
X174267919Y-98325875D01*
X174631801Y-98385531D01*
X174907890Y-98400500D01*
X174909610Y-98400500D01*
X175090390Y-98400500D01*
X175092110Y-98400500D01*
X175368199Y-98385531D01*
X175732081Y-98325875D01*
X176087379Y-98227227D01*
X176429930Y-98090743D01*
X176755716Y-97918022D01*
X177060917Y-97711090D01*
X177341956Y-97472373D01*
X177595538Y-97204670D01*
X177818690Y-96911119D01*
X178008795Y-96595162D01*
X178163625Y-96260503D01*
X178281364Y-95911066D01*
X178360632Y-95550948D01*
X178400500Y-95184370D01*
X216599500Y-95184370D01*
X216599868Y-95187757D01*
X216599869Y-95187768D01*
X216638092Y-95539220D01*
X216639368Y-95550948D01*
X216640100Y-95554275D01*
X216640101Y-95554279D01*
X216717901Y-95907730D01*
X216717904Y-95907741D01*
X216718636Y-95911066D01*
X216836375Y-96260503D01*
X216991205Y-96595162D01*
X217181310Y-96911119D01*
X217404462Y-97204670D01*
X217406813Y-97207152D01*
X217406814Y-97207153D01*
X217655698Y-97469897D01*
X217655703Y-97469902D01*
X217658044Y-97472373D01*
X217939083Y-97711090D01*
X218244284Y-97918022D01*
X218570070Y-98090743D01*
X218912621Y-98227227D01*
X219267919Y-98325875D01*
X219631801Y-98385531D01*
X219907890Y-98400500D01*
X219909610Y-98400500D01*
X220090390Y-98400500D01*
X220092110Y-98400500D01*
X220368199Y-98385531D01*
X220732081Y-98325875D01*
X221087379Y-98227227D01*
X221429930Y-98090743D01*
X221755716Y-97918022D01*
X222060917Y-97711090D01*
X222341956Y-97472373D01*
X222595538Y-97204670D01*
X222818690Y-96911119D01*
X223008795Y-96595162D01*
X223163625Y-96260503D01*
X223281364Y-95911066D01*
X223360632Y-95550948D01*
X223400500Y-95184370D01*
X261599500Y-95184370D01*
X261599868Y-95187757D01*
X261599869Y-95187768D01*
X261638092Y-95539220D01*
X261639368Y-95550948D01*
X261640100Y-95554275D01*
X261640101Y-95554279D01*
X261717901Y-95907730D01*
X261717904Y-95907741D01*
X261718636Y-95911066D01*
X261836375Y-96260503D01*
X261991205Y-96595162D01*
X262181310Y-96911119D01*
X262404462Y-97204670D01*
X262406813Y-97207152D01*
X262406814Y-97207153D01*
X262655698Y-97469897D01*
X262655703Y-97469902D01*
X262658044Y-97472373D01*
X262939083Y-97711090D01*
X263244284Y-97918022D01*
X263570070Y-98090743D01*
X263912621Y-98227227D01*
X264267919Y-98325875D01*
X264631801Y-98385531D01*
X264907890Y-98400500D01*
X264909610Y-98400500D01*
X265090390Y-98400500D01*
X265092110Y-98400500D01*
X265368199Y-98385531D01*
X265732081Y-98325875D01*
X266087379Y-98227227D01*
X266429930Y-98090743D01*
X266755716Y-97918022D01*
X267060917Y-97711090D01*
X267341956Y-97472373D01*
X267595538Y-97204670D01*
X267818690Y-96911119D01*
X268008795Y-96595162D01*
X268163625Y-96260503D01*
X268281364Y-95911066D01*
X268360632Y-95550948D01*
X268400500Y-95184370D01*
X268400500Y-94815630D01*
X268360632Y-94449052D01*
X268281364Y-94088934D01*
X268163625Y-93739497D01*
X268008795Y-93404838D01*
X267818690Y-93088881D01*
X267595538Y-92795330D01*
X267581231Y-92780227D01*
X267344301Y-92530102D01*
X267344295Y-92530096D01*
X267341956Y-92527627D01*
X267060917Y-92288910D01*
X267004169Y-92250434D01*
X266758538Y-92083891D01*
X266758533Y-92083888D01*
X266755716Y-92081978D01*
X266715275Y-92060537D01*
X266432941Y-91910853D01*
X266432936Y-91910850D01*
X266429930Y-91909257D01*
X266426763Y-91907995D01*
X266090548Y-91774035D01*
X266090537Y-91774031D01*
X266087379Y-91772773D01*
X266084098Y-91771862D01*
X266084092Y-91771860D01*
X265735375Y-91675039D01*
X265735365Y-91675036D01*
X265732081Y-91674125D01*
X265728722Y-91673574D01*
X265728707Y-91673571D01*
X265371576Y-91615022D01*
X265371564Y-91615020D01*
X265368199Y-91614469D01*
X265364789Y-91614284D01*
X265364779Y-91614283D01*
X265093831Y-91599593D01*
X265093819Y-91599592D01*
X265092110Y-91599500D01*
X264907890Y-91599500D01*
X264906181Y-91599592D01*
X264906168Y-91599593D01*
X264635220Y-91614283D01*
X264635208Y-91614284D01*
X264631801Y-91614469D01*
X264628437Y-91615020D01*
X264628423Y-91615022D01*
X264271292Y-91673571D01*
X264271273Y-91673574D01*
X264267919Y-91674125D01*
X264264638Y-91675035D01*
X264264624Y-91675039D01*
X263915907Y-91771860D01*
X263915896Y-91771863D01*
X263912621Y-91772773D01*
X263909467Y-91774029D01*
X263909451Y-91774035D01*
X263573236Y-91907995D01*
X263573227Y-91907999D01*
X263570070Y-91909257D01*
X263567070Y-91910847D01*
X263567058Y-91910853D01*
X263247301Y-92080378D01*
X263247294Y-92080382D01*
X263244284Y-92081978D01*
X263241474Y-92083882D01*
X263241461Y-92083891D01*
X262941908Y-92286994D01*
X262941900Y-92286999D01*
X262939083Y-92288910D01*
X262936483Y-92291118D01*
X262936477Y-92291123D01*
X262660640Y-92525421D01*
X262660630Y-92525430D01*
X262658044Y-92527627D01*
X262655713Y-92530087D01*
X262655698Y-92530102D01*
X262406814Y-92792846D01*
X262406805Y-92792855D01*
X262404462Y-92795330D01*
X262402395Y-92798048D01*
X262402395Y-92798049D01*
X262183380Y-93086157D01*
X262183373Y-93086165D01*
X262181310Y-93088881D01*
X262179552Y-93091801D01*
X262179545Y-93091813D01*
X261992966Y-93401911D01*
X261991205Y-93404838D01*
X261989775Y-93407928D01*
X261989768Y-93407942D01*
X261837808Y-93736398D01*
X261837803Y-93736409D01*
X261836375Y-93739497D01*
X261835289Y-93742719D01*
X261835285Y-93742730D01*
X261719726Y-94085697D01*
X261719722Y-94085708D01*
X261718636Y-94088934D01*
X261717905Y-94092253D01*
X261717901Y-94092269D01*
X261640101Y-94445720D01*
X261639368Y-94449052D01*
X261638999Y-94452442D01*
X261638999Y-94452444D01*
X261599869Y-94812231D01*
X261599868Y-94812243D01*
X261599500Y-94815630D01*
X261599500Y-95184370D01*
X223400500Y-95184370D01*
X223400500Y-94815630D01*
X223360632Y-94449052D01*
X223281364Y-94088934D01*
X223163625Y-93739497D01*
X223008795Y-93404838D01*
X222818690Y-93088881D01*
X222595538Y-92795330D01*
X222581231Y-92780227D01*
X222344301Y-92530102D01*
X222344295Y-92530096D01*
X222341956Y-92527627D01*
X222060917Y-92288910D01*
X222004169Y-92250434D01*
X221758538Y-92083891D01*
X221758533Y-92083888D01*
X221755716Y-92081978D01*
X221715275Y-92060537D01*
X221432941Y-91910853D01*
X221432936Y-91910850D01*
X221429930Y-91909257D01*
X221426763Y-91907995D01*
X221090548Y-91774035D01*
X221090537Y-91774031D01*
X221087379Y-91772773D01*
X221084098Y-91771862D01*
X221084092Y-91771860D01*
X220735375Y-91675039D01*
X220735365Y-91675036D01*
X220732081Y-91674125D01*
X220728722Y-91673574D01*
X220728707Y-91673571D01*
X220371576Y-91615022D01*
X220371564Y-91615020D01*
X220368199Y-91614469D01*
X220364789Y-91614284D01*
X220364779Y-91614283D01*
X220093831Y-91599593D01*
X220093819Y-91599592D01*
X220092110Y-91599500D01*
X219907890Y-91599500D01*
X219906181Y-91599592D01*
X219906168Y-91599593D01*
X219635220Y-91614283D01*
X219635208Y-91614284D01*
X219631801Y-91614469D01*
X219628437Y-91615020D01*
X219628423Y-91615022D01*
X219271292Y-91673571D01*
X219271273Y-91673574D01*
X219267919Y-91674125D01*
X219264638Y-91675035D01*
X219264624Y-91675039D01*
X218915907Y-91771860D01*
X218915896Y-91771863D01*
X218912621Y-91772773D01*
X218909467Y-91774029D01*
X218909451Y-91774035D01*
X218573236Y-91907995D01*
X218573227Y-91907999D01*
X218570070Y-91909257D01*
X218567070Y-91910847D01*
X218567058Y-91910853D01*
X218247301Y-92080378D01*
X218247294Y-92080382D01*
X218244284Y-92081978D01*
X218241474Y-92083882D01*
X218241461Y-92083891D01*
X217941908Y-92286994D01*
X217941900Y-92286999D01*
X217939083Y-92288910D01*
X217936483Y-92291118D01*
X217936477Y-92291123D01*
X217660640Y-92525421D01*
X217660630Y-92525430D01*
X217658044Y-92527627D01*
X217655713Y-92530087D01*
X217655698Y-92530102D01*
X217406814Y-92792846D01*
X217406805Y-92792855D01*
X217404462Y-92795330D01*
X217402395Y-92798048D01*
X217402395Y-92798049D01*
X217183380Y-93086157D01*
X217183373Y-93086165D01*
X217181310Y-93088881D01*
X217179552Y-93091801D01*
X217179545Y-93091813D01*
X216992966Y-93401911D01*
X216991205Y-93404838D01*
X216989775Y-93407928D01*
X216989768Y-93407942D01*
X216837808Y-93736398D01*
X216837803Y-93736409D01*
X216836375Y-93739497D01*
X216835289Y-93742719D01*
X216835285Y-93742730D01*
X216719726Y-94085697D01*
X216719722Y-94085708D01*
X216718636Y-94088934D01*
X216717905Y-94092253D01*
X216717901Y-94092269D01*
X216640101Y-94445720D01*
X216639368Y-94449052D01*
X216638999Y-94452442D01*
X216638999Y-94452444D01*
X216599869Y-94812231D01*
X216599868Y-94812243D01*
X216599500Y-94815630D01*
X216599500Y-95184370D01*
X178400500Y-95184370D01*
X178400500Y-94815630D01*
X178360632Y-94449052D01*
X178281364Y-94088934D01*
X178163625Y-93739497D01*
X178008795Y-93404838D01*
X177818690Y-93088881D01*
X177595538Y-92795330D01*
X177581231Y-92780227D01*
X177344301Y-92530102D01*
X177344295Y-92530096D01*
X177341956Y-92527627D01*
X177060917Y-92288910D01*
X177004169Y-92250434D01*
X176758538Y-92083891D01*
X176758533Y-92083888D01*
X176755716Y-92081978D01*
X176715275Y-92060537D01*
X176432941Y-91910853D01*
X176432936Y-91910850D01*
X176429930Y-91909257D01*
X176426763Y-91907995D01*
X176090548Y-91774035D01*
X176090537Y-91774031D01*
X176087379Y-91772773D01*
X176084098Y-91771862D01*
X176084092Y-91771860D01*
X175735375Y-91675039D01*
X175735365Y-91675036D01*
X175732081Y-91674125D01*
X175728722Y-91673574D01*
X175728707Y-91673571D01*
X175371576Y-91615022D01*
X175371564Y-91615020D01*
X175368199Y-91614469D01*
X175364789Y-91614284D01*
X175364779Y-91614283D01*
X175093831Y-91599593D01*
X175093819Y-91599592D01*
X175092110Y-91599500D01*
X174907890Y-91599500D01*
X174906181Y-91599592D01*
X174906168Y-91599593D01*
X174635220Y-91614283D01*
X174635208Y-91614284D01*
X174631801Y-91614469D01*
X174628437Y-91615020D01*
X174628423Y-91615022D01*
X174271292Y-91673571D01*
X174271273Y-91673574D01*
X174267919Y-91674125D01*
X174264638Y-91675035D01*
X174264624Y-91675039D01*
X173915907Y-91771860D01*
X173915896Y-91771863D01*
X173912621Y-91772773D01*
X173909467Y-91774029D01*
X173909451Y-91774035D01*
X173573236Y-91907995D01*
X173573227Y-91907999D01*
X173570070Y-91909257D01*
X173567070Y-91910847D01*
X173567058Y-91910853D01*
X173247301Y-92080378D01*
X173247294Y-92080382D01*
X173244284Y-92081978D01*
X173241474Y-92083882D01*
X173241461Y-92083891D01*
X172941908Y-92286994D01*
X172941900Y-92286999D01*
X172939083Y-92288910D01*
X172936483Y-92291118D01*
X172936477Y-92291123D01*
X172660640Y-92525421D01*
X172660630Y-92525430D01*
X172658044Y-92527627D01*
X172655713Y-92530087D01*
X172655698Y-92530102D01*
X172406814Y-92792846D01*
X172406805Y-92792855D01*
X172404462Y-92795330D01*
X172402395Y-92798048D01*
X172402395Y-92798049D01*
X172183380Y-93086157D01*
X172183373Y-93086165D01*
X172181310Y-93088881D01*
X172179552Y-93091801D01*
X172179545Y-93091813D01*
X171992966Y-93401911D01*
X171991205Y-93404838D01*
X171989775Y-93407928D01*
X171989768Y-93407942D01*
X171837808Y-93736398D01*
X171837803Y-93736409D01*
X171836375Y-93739497D01*
X171835289Y-93742719D01*
X171835285Y-93742730D01*
X171719726Y-94085697D01*
X171719722Y-94085708D01*
X171718636Y-94088934D01*
X171717905Y-94092253D01*
X171717901Y-94092269D01*
X171640101Y-94445720D01*
X171639368Y-94449052D01*
X171638999Y-94452442D01*
X171638999Y-94452444D01*
X171599869Y-94812231D01*
X171599868Y-94812243D01*
X171599500Y-94815630D01*
X171599500Y-95184370D01*
X170100500Y-95184370D01*
X170100500Y-92004120D01*
X170100770Y-91995881D01*
X170109523Y-91862326D01*
X170116210Y-91760298D01*
X170118358Y-91743979D01*
X170163616Y-91516456D01*
X170167875Y-91500561D01*
X170242441Y-91280898D01*
X170248735Y-91265702D01*
X170351339Y-91057641D01*
X170359563Y-91043398D01*
X170488444Y-90850513D01*
X170498457Y-90837463D01*
X170651418Y-90663045D01*
X170663045Y-90651418D01*
X170837463Y-90498457D01*
X170850513Y-90488444D01*
X171043398Y-90359563D01*
X171057641Y-90351339D01*
X171265702Y-90248735D01*
X171280898Y-90242441D01*
X171500561Y-90167875D01*
X171516456Y-90163616D01*
X171743979Y-90118358D01*
X171760298Y-90116210D01*
X171984271Y-90101530D01*
X171995881Y-90100770D01*
X172004121Y-90100500D01*
X172026929Y-90100500D01*
X267973071Y-90100500D01*
X267995879Y-90100500D01*
X268004119Y-90100770D01*
G37*
%TD.AperFunction*%
%TD*%
M02*
