%TF.GenerationSoftware,KiCad,Pcbnew,7.0.2-6a45011f42~172~ubuntu22.04.1*%
%TF.CreationDate,2023-05-29T23:15:52+12:00*%
%TF.ProjectId,THE_BRAWN-20A_LOGIC,5448455f-4252-4415-974e-2d3230415f4c,v2.0*%
%TF.SameCoordinates,Original*%
%TF.FileFunction,Legend,Top*%
%TF.FilePolarity,Positive*%
%FSLAX46Y46*%
G04 Gerber Fmt 4.6, Leading zero omitted, Abs format (unit mm)*
G04 Created by KiCad (PCBNEW 7.0.2-6a45011f42~172~ubuntu22.04.1) date 2023-05-29 23:15:52*
%MOMM*%
%LPD*%
G01*
G04 APERTURE LIST*
%ADD10C,0.150000*%
%ADD11C,0.500000*%
%ADD12C,0.120000*%
G04 APERTURE END LIST*
D10*
X148250000Y-153425000D02*
X148750000Y-153425000D01*
X148500000Y-153425000D02*
X148500000Y-154225000D01*
X142271428Y-154182000D02*
X142385714Y-154220095D01*
X142385714Y-154220095D02*
X142576190Y-154220095D01*
X142576190Y-154220095D02*
X142652381Y-154182000D01*
X142652381Y-154182000D02*
X142690476Y-154143904D01*
X142690476Y-154143904D02*
X142728571Y-154067714D01*
X142728571Y-154067714D02*
X142728571Y-153991523D01*
X142728571Y-153991523D02*
X142690476Y-153915333D01*
X142690476Y-153915333D02*
X142652381Y-153877238D01*
X142652381Y-153877238D02*
X142576190Y-153839142D01*
X142576190Y-153839142D02*
X142423809Y-153801047D01*
X142423809Y-153801047D02*
X142347619Y-153762952D01*
X142347619Y-153762952D02*
X142309524Y-153724857D01*
X142309524Y-153724857D02*
X142271428Y-153648666D01*
X142271428Y-153648666D02*
X142271428Y-153572476D01*
X142271428Y-153572476D02*
X142309524Y-153496285D01*
X142309524Y-153496285D02*
X142347619Y-153458190D01*
X142347619Y-153458190D02*
X142423809Y-153420095D01*
X142423809Y-153420095D02*
X142614286Y-153420095D01*
X142614286Y-153420095D02*
X142728571Y-153458190D01*
X145709523Y-153458190D02*
X145633333Y-153420095D01*
X145633333Y-153420095D02*
X145519047Y-153420095D01*
X145519047Y-153420095D02*
X145404761Y-153458190D01*
X145404761Y-153458190D02*
X145328571Y-153534380D01*
X145328571Y-153534380D02*
X145290476Y-153610571D01*
X145290476Y-153610571D02*
X145252380Y-153762952D01*
X145252380Y-153762952D02*
X145252380Y-153877238D01*
X145252380Y-153877238D02*
X145290476Y-154029619D01*
X145290476Y-154029619D02*
X145328571Y-154105809D01*
X145328571Y-154105809D02*
X145404761Y-154182000D01*
X145404761Y-154182000D02*
X145519047Y-154220095D01*
X145519047Y-154220095D02*
X145595238Y-154220095D01*
X145595238Y-154220095D02*
X145709523Y-154182000D01*
X145709523Y-154182000D02*
X145747619Y-154143904D01*
X145747619Y-154143904D02*
X145747619Y-153877238D01*
X145747619Y-153877238D02*
X145595238Y-153877238D01*
%TO.C,R2*%
X139127500Y-161237258D02*
X139127500Y-160762742D01*
X140172500Y-161237258D02*
X140172500Y-160762742D01*
%TO.C,R10*%
X151872500Y-157462742D02*
X151872500Y-157937258D01*
X150827500Y-157462742D02*
X150827500Y-157937258D01*
%TO.C,R8*%
X140172500Y-157462742D02*
X140172500Y-157937258D01*
X139127500Y-157462742D02*
X139127500Y-157937258D01*
%TO.C,C5*%
X151860000Y-160859420D02*
X151860000Y-161140580D01*
X150840000Y-160859420D02*
X150840000Y-161140580D01*
%TO.C,C9*%
X140640580Y-163910000D02*
X140359420Y-163910000D01*
X140640580Y-162890000D02*
X140359420Y-162890000D01*
%TO.C,U1*%
X148800000Y-156000000D02*
X142200000Y-156000000D01*
X142200000Y-156000000D02*
X142200000Y-162600000D01*
X142200000Y-162600000D02*
X148800000Y-162600000D01*
X148800000Y-162600000D02*
X148800000Y-156000000D01*
D11*
X149500000Y-163200000D02*
G75*
G03*
X149500000Y-163200000I-100000J0D01*
G01*
D12*
X148800000Y-162600000D02*
X147600000Y-162600000D01*
X148800000Y-161400000D01*
X148800000Y-162600000D01*
G36*
X148800000Y-162600000D02*
G01*
X147600000Y-162600000D01*
X148800000Y-161400000D01*
X148800000Y-162600000D01*
G37*
D10*
%TO.C,C7*%
X150359420Y-162890000D02*
X150640580Y-162890000D01*
X150359420Y-163910000D02*
X150640580Y-163910000D01*
%TO.C,DS2*%
X151985000Y-155600000D02*
X151985000Y-154800000D01*
X150700000Y-155600000D02*
X150300000Y-155600000D01*
X150700000Y-154800000D02*
X150300000Y-154800000D01*
X150700000Y-155600000D02*
X150600000Y-155600000D01*
X150600000Y-155600000D02*
X150600000Y-154800000D01*
X150600000Y-154800000D02*
X150700000Y-154800000D01*
X150700000Y-154800000D02*
X150700000Y-155600000D01*
G36*
X150700000Y-155600000D02*
G01*
X150600000Y-155600000D01*
X150600000Y-154800000D01*
X150700000Y-154800000D01*
X150700000Y-155600000D01*
G37*
%TO.C,DS1*%
X139015000Y-154800000D02*
X139015000Y-155600000D01*
X140300000Y-154800000D02*
X140700000Y-154800000D01*
X140300000Y-155600000D02*
X140700000Y-155600000D01*
X140300000Y-154800000D02*
X140400000Y-154800000D01*
X140400000Y-154800000D02*
X140400000Y-155600000D01*
X140400000Y-155600000D02*
X140300000Y-155600000D01*
X140300000Y-155600000D02*
X140300000Y-154800000D01*
G36*
X140300000Y-154800000D02*
G01*
X140400000Y-154800000D01*
X140400000Y-155600000D01*
X140300000Y-155600000D01*
X140300000Y-154800000D01*
G37*
%TD*%
M02*
