%TF.GenerationSoftware,KiCad,Pcbnew,7.0.2-6a45011f42~172~ubuntu22.04.1*%
%TF.CreationDate,2023-05-29T23:15:52+12:00*%
%TF.ProjectId,THE_BRAWN-20A_LOGIC,5448455f-4252-4415-974e-2d3230415f4c,v2.0*%
%TF.SameCoordinates,Original*%
%TF.FileFunction,Other,User*%
%FSLAX46Y46*%
G04 Gerber Fmt 4.6, Leading zero omitted, Abs format (unit mm)*
G04 Created by KiCad (PCBNEW 7.0.2-6a45011f42~172~ubuntu22.04.1) date 2023-05-29 23:15:52*
%MOMM*%
%LPD*%
G01*
G04 APERTURE LIST*
%ADD10C,0.050000*%
G04 APERTURE END LIST*
D10*
%TO.C,R2*%
X138920000Y-162480000D02*
X138920000Y-159520000D01*
X140380000Y-162480000D02*
X138920000Y-162480000D01*
X138920000Y-159520000D02*
X140380000Y-159520000D01*
X140380000Y-159520000D02*
X140380000Y-162480000D01*
%TO.C,J2*%
X135730000Y-154230000D02*
X135730000Y-164390000D01*
X135730000Y-164390000D02*
X138270000Y-164390000D01*
X138270000Y-154230000D02*
X135730000Y-154230000D01*
X138270000Y-164390000D02*
X138270000Y-154230000D01*
%TO.C,R10*%
X152080000Y-156220000D02*
X152080000Y-159180000D01*
X150620000Y-156220000D02*
X152080000Y-156220000D01*
X152080000Y-159180000D02*
X150620000Y-159180000D01*
X150620000Y-159180000D02*
X150620000Y-156220000D01*
%TO.C,R8*%
X140380000Y-156220000D02*
X140380000Y-159180000D01*
X138920000Y-156220000D02*
X140380000Y-156220000D01*
X140380000Y-159180000D02*
X138920000Y-159180000D01*
X138920000Y-159180000D02*
X138920000Y-156220000D01*
%TO.C,C5*%
X152080000Y-159520000D02*
X152080000Y-162480000D01*
X150620000Y-159520000D02*
X152080000Y-159520000D01*
X152080000Y-162480000D02*
X150620000Y-162480000D01*
X150620000Y-162480000D02*
X150620000Y-159520000D01*
%TO.C,C9*%
X141980000Y-164130000D02*
X139020000Y-164130000D01*
X141980000Y-162670000D02*
X141980000Y-164130000D01*
X139020000Y-164130000D02*
X139020000Y-162670000D01*
X139020000Y-162670000D02*
X141980000Y-162670000D01*
%TO.C,U1*%
X150600000Y-164400000D02*
X140400000Y-164400000D01*
X150600000Y-154200000D02*
X150600000Y-164400000D01*
X140400000Y-164400000D02*
X140400000Y-154200000D01*
X140400000Y-154200000D02*
X150600000Y-154200000D01*
%TO.C,C7*%
X149020000Y-162670000D02*
X151980000Y-162670000D01*
X149020000Y-164130000D02*
X149020000Y-162670000D01*
X151980000Y-162670000D02*
X151980000Y-164130000D01*
X151980000Y-164130000D02*
X149020000Y-164130000D01*
%TO.C,DS2*%
X151980000Y-155930000D02*
X149020000Y-155930000D01*
X151980000Y-154470000D02*
X151980000Y-155930000D01*
X149020000Y-155930000D02*
X149020000Y-154470000D01*
X149020000Y-154470000D02*
X151980000Y-154470000D01*
%TO.C,J1*%
X152730000Y-154230000D02*
X152730000Y-164390000D01*
X152730000Y-164390000D02*
X155270000Y-164390000D01*
X155270000Y-154230000D02*
X152730000Y-154230000D01*
X155270000Y-164390000D02*
X155270000Y-154230000D01*
%TO.C,DS1*%
X139020000Y-154470000D02*
X141980000Y-154470000D01*
X139020000Y-155930000D02*
X139020000Y-154470000D01*
X141980000Y-154470000D02*
X141980000Y-155930000D01*
X141980000Y-155930000D02*
X139020000Y-155930000D01*
%TD*%
M02*
