M48
; DRILL file {KiCad 7.0.2-6a45011f42~172~ubuntu22.04.1} date Mon 29 May 2023 23:15:51
; FORMAT={-:-/ absolute / inch / decimal}
; #@! TF.CreationDate,2023-05-29T23:15:51+12:00
; #@! TF.GenerationSoftware,Kicad,Pcbnew,7.0.2-6a45011f42~172~ubuntu22.04.1
; #@! TF.FileFunction,Plated,1,4,PTH
FMAT,2
INCH
; #@! TA.AperFunction,Plated,PTH,ViaDrill
T1C0.0118
; #@! TA.AperFunction,Plated,PTH,ComponentDrill
T2C0.0236
; #@! TA.AperFunction,Plated,PTH,ComponentDrill
T3C0.0394
%
G90
G05
T1
X5.3602Y-6.1722
X5.3602Y-6.2717
X5.3602Y-6.372
X5.4261Y-6.3721
X5.4272Y-6.1722
X5.4281Y-6.2726
X5.4466Y-6.2963
X5.4487Y-6.2543
X5.4567Y-6.1102
X5.4645Y-6.2198
X5.498Y-6.2106
X5.5108Y-6.3415
X5.5266Y-6.4232
X5.5846Y-6.0492
X5.5906Y-6.11
X5.5935Y-6.3504
X5.5945Y-6.2559
X5.5945Y-6.2874
X5.5945Y-6.3189
X5.6024Y-6.1457
X5.6043Y-6.2008
X5.611Y-6.063
X5.6348Y-6.0492
X5.6615Y-6.3966
X5.6693Y-6.2126
X5.6693Y-6.3307
X5.6909Y-6.3976
X5.7028Y-6.0433
X5.7283Y-6.2992
X5.748Y-6.3937
X5.7539Y-6.0433
X5.7798Y-6.1456
X5.7874Y-6.2126
X5.7874Y-6.3307
X5.8071Y-6.4035
X5.8073Y-6.1457
X5.8209Y-6.0492
X5.8425Y-6.2008
X5.8543Y-6.1457
X5.8543Y-6.3504
X5.8661Y-6.0824
X5.872Y-6.0492
X5.9921Y-6.3701
X5.9961Y-6.1024
X5.9961Y-6.4291
X6.0059Y-6.3091
X6.0079Y-6.2441
X6.0266Y-6.1722
X6.0285Y-6.372
X6.0974Y-6.2717
X6.0974Y-6.372
X6.0984Y-6.1714
T2
X5.6102Y-5.9921
X5.7283Y-5.9921
X5.8465Y-5.9921
T3
X5.3937Y-6.122
X5.3937Y-6.222
X5.3937Y-6.322
X5.3937Y-6.422
X6.063Y-6.122
X6.063Y-6.222
X6.063Y-6.322
X6.063Y-6.422
T0
M30
