%TF.GenerationSoftware,KiCad,Pcbnew,7.0.2-6a45011f42~172~ubuntu22.04.1*%
%TF.CreationDate,2023-05-29T23:15:52+12:00*%
%TF.ProjectId,THE_BRAWN-20A_LOGIC,5448455f-4252-4415-974e-2d3230415f4c,v2.0*%
%TF.SameCoordinates,Original*%
%TF.FileFunction,Copper,L1,Top*%
%TF.FilePolarity,Positive*%
%FSLAX46Y46*%
G04 Gerber Fmt 4.6, Leading zero omitted, Abs format (unit mm)*
G04 Created by KiCad (PCBNEW 7.0.2-6a45011f42~172~ubuntu22.04.1) date 2023-05-29 23:15:52*
%MOMM*%
%LPD*%
G01*
G04 APERTURE LIST*
G04 Aperture macros list*
%AMRoundRect*
0 Rectangle with rounded corners*
0 $1 Rounding radius*
0 $2 $3 $4 $5 $6 $7 $8 $9 X,Y pos of 4 corners*
0 Add a 4 corners polygon primitive as box body*
4,1,4,$2,$3,$4,$5,$6,$7,$8,$9,$2,$3,0*
0 Add four circle primitives for the rounded corners*
1,1,$1+$1,$2,$3*
1,1,$1+$1,$4,$5*
1,1,$1+$1,$6,$7*
1,1,$1+$1,$8,$9*
0 Add four rect primitives between the rounded corners*
20,1,$1+$1,$2,$3,$4,$5,0*
20,1,$1+$1,$4,$5,$6,$7,0*
20,1,$1+$1,$6,$7,$8,$9,0*
20,1,$1+$1,$8,$9,$2,$3,0*%
G04 Aperture macros list end*
%TA.AperFunction,ComponentPad*%
%ADD10C,1.000000*%
%TD*%
%TA.AperFunction,ConnectorPad*%
%ADD11R,2.000000X2.000000*%
%TD*%
%TA.AperFunction,SMDPad,CuDef*%
%ADD12RoundRect,0.200000X0.275000X-0.200000X0.275000X0.200000X-0.275000X0.200000X-0.275000X-0.200000X0*%
%TD*%
%TA.AperFunction,ComponentPad*%
%ADD13RoundRect,0.450000X-0.450000X-0.450000X0.450000X-0.450000X0.450000X0.450000X-0.450000X0.450000X0*%
%TD*%
%TA.AperFunction,SMDPad,CuDef*%
%ADD14RoundRect,0.200000X-0.275000X0.200000X-0.275000X-0.200000X0.275000X-0.200000X0.275000X0.200000X0*%
%TD*%
%TA.AperFunction,SMDPad,CuDef*%
%ADD15RoundRect,0.225000X-0.250000X0.225000X-0.250000X-0.225000X0.250000X-0.225000X0.250000X0.225000X0*%
%TD*%
%TA.AperFunction,SMDPad,CuDef*%
%ADD16RoundRect,0.225000X0.225000X0.250000X-0.225000X0.250000X-0.225000X-0.250000X0.225000X-0.250000X0*%
%TD*%
%TA.AperFunction,SMDPad,CuDef*%
%ADD17R,1.200000X0.500000*%
%TD*%
%TA.AperFunction,SMDPad,CuDef*%
%ADD18R,0.500000X1.200000*%
%TD*%
%TA.AperFunction,SMDPad,CuDef*%
%ADD19RoundRect,0.225000X-0.225000X-0.250000X0.225000X-0.250000X0.225000X0.250000X-0.225000X0.250000X0*%
%TD*%
%TA.AperFunction,SMDPad,CuDef*%
%ADD20RoundRect,0.218750X0.218750X0.256250X-0.218750X0.256250X-0.218750X-0.256250X0.218750X-0.256250X0*%
%TD*%
%TA.AperFunction,SMDPad,CuDef*%
%ADD21RoundRect,0.218750X-0.218750X-0.256250X0.218750X-0.256250X0.218750X0.256250X-0.218750X0.256250X0*%
%TD*%
%TA.AperFunction,ViaPad*%
%ADD22C,0.500000*%
%TD*%
%TA.AperFunction,Conductor*%
%ADD23C,0.250000*%
%TD*%
G04 APERTURE END LIST*
D10*
%TO.P,H3,1,1*%
%TO.N,GND*%
X145500000Y-152200000D03*
D11*
X145500000Y-152200000D03*
%TD*%
D10*
%TO.P,H2,1,1*%
%TO.N,/SIGNAL*%
X142500000Y-152200000D03*
D11*
X142500000Y-152200000D03*
%TD*%
D12*
%TO.P,R2,1*%
%TO.N,/SWDCLK*%
X139650000Y-161825000D03*
%TO.P,R2,2*%
%TO.N,GND*%
X139650000Y-160175000D03*
%TD*%
D13*
%TO.P,J2,1,1*%
%TO.N,GND*%
X137000000Y-155500000D03*
%TO.P,J2,2,2*%
X137000000Y-158040000D03*
%TO.P,J2,3,3*%
%TO.N,/A_FET_N2*%
X137000000Y-160580000D03*
%TO.P,J2,4,4*%
%TO.N,/A_FET_N1*%
X137000000Y-163120000D03*
%TD*%
D14*
%TO.P,R10,1*%
%TO.N,Net-(DS2-K)*%
X151350000Y-156875000D03*
%TO.P,R10,2*%
%TO.N,GND*%
X151350000Y-158525000D03*
%TD*%
%TO.P,R8,1*%
%TO.N,Net-(DS1-K)*%
X139650000Y-156875000D03*
%TO.P,R8,2*%
%TO.N,GND*%
X139650000Y-158525000D03*
%TD*%
D15*
%TO.P,C5,1*%
%TO.N,+3.3V*%
X151350000Y-160225000D03*
%TO.P,C5,2*%
%TO.N,GND*%
X151350000Y-161775000D03*
%TD*%
D16*
%TO.P,C9,1*%
%TO.N,+3.3V*%
X141275000Y-163400000D03*
%TO.P,C9,2*%
%TO.N,GND*%
X139725000Y-163400000D03*
%TD*%
D10*
%TO.P,H1,1,1*%
%TO.N,/INVERT*%
X148500000Y-152200000D03*
D11*
X148500000Y-152200000D03*
%TD*%
D17*
%TO.P,U1,1,PB9*%
%TO.N,unconnected-(U1-PB9-Pad1)*%
X149750000Y-162100000D03*
%TO.P,U1,2,PC14/OSC32_IN*%
%TO.N,unconnected-(U1-PC14{slash}OSC32_IN-Pad2)*%
X149750000Y-161300000D03*
%TO.P,U1,3,PC15/OSC32_OUT*%
%TO.N,unconnected-(U1-PC15{slash}OSC32_OUT-Pad3)*%
X149750000Y-160500000D03*
%TO.P,U1,4,VDD/VDDA*%
%TO.N,+3.3V*%
X149750000Y-159700000D03*
%TO.P,U1,5,VSS/VSSA*%
%TO.N,GND*%
X149750000Y-158900000D03*
%TO.P,U1,6,NRST*%
%TO.N,/nRST*%
X149750000Y-158100000D03*
%TO.P,U1,7,PA0*%
%TO.N,unconnected-(U1-PA0-Pad7)*%
X149750000Y-157300000D03*
%TO.P,U1,8,PA1*%
%TO.N,unconnected-(U1-PA1-Pad8)*%
X149750000Y-156500000D03*
D18*
%TO.P,U1,9,PA2*%
%TO.N,unconnected-(U1-PA2-Pad9)*%
X148300000Y-155050000D03*
%TO.P,U1,10,PA3*%
%TO.N,/V_BATT*%
X147500000Y-155050000D03*
%TO.P,U1,11,PA4*%
%TO.N,unconnected-(U1-PA4-Pad11)*%
X146700000Y-155050000D03*
%TO.P,U1,12,PA5*%
%TO.N,unconnected-(U1-PA5-Pad12)*%
X145900000Y-155050000D03*
%TO.P,U1,13,PA6*%
%TO.N,unconnected-(U1-PA6-Pad13)*%
X145100000Y-155050000D03*
%TO.P,U1,14,PA7*%
%TO.N,unconnected-(U1-PA7-Pad14)*%
X144300000Y-155050000D03*
%TO.P,U1,15,PB0*%
%TO.N,/INVERT*%
X143500000Y-155050000D03*
%TO.P,U1,16,PB1*%
%TO.N,unconnected-(U1-PB1-Pad16)*%
X142700000Y-155050000D03*
D17*
%TO.P,U1,17,PB2*%
%TO.N,unconnected-(U1-PB2-Pad17)*%
X141250000Y-156500000D03*
%TO.P,U1,18,PA8*%
%TO.N,unconnected-(U1-PA8-Pad18)*%
X141250000Y-157300000D03*
%TO.P,U1,19,PA9*%
%TO.N,unconnected-(U1-PA9-Pad19)*%
X141250000Y-158100000D03*
%TO.P,U1,20,PC6*%
%TO.N,/A_FET_N1_HS*%
X141250000Y-158900000D03*
%TO.P,U1,21,PA10*%
%TO.N,/A_FET_N1*%
X141250000Y-159700000D03*
%TO.P,U1,22,PA11[PA9]*%
%TO.N,/A_FET_N2*%
X141250000Y-160500000D03*
%TO.P,U1,23,PA12[PA10]*%
%TO.N,/A_FET_N2_HS*%
X141250000Y-161300000D03*
%TO.P,U1,24,SWDIO/PA13*%
%TO.N,/SWDIO*%
X141250000Y-162100000D03*
D18*
%TO.P,U1,25,SWCLK/PA14/BOOT0*%
%TO.N,/SWDCLK*%
X142700000Y-163550000D03*
%TO.P,U1,26,PA15*%
%TO.N,/LED_GREEN*%
X143500000Y-163550000D03*
%TO.P,U1,27,PB3*%
%TO.N,/LED_RED*%
X144300000Y-163550000D03*
%TO.P,U1,28,PB4*%
%TO.N,unconnected-(U1-PB4-Pad28)*%
X145100000Y-163550000D03*
%TO.P,U1,29,PB5*%
%TO.N,unconnected-(U1-PB5-Pad29)*%
X145900000Y-163550000D03*
%TO.P,U1,30,PB6*%
%TO.N,unconnected-(U1-PB6-Pad30)*%
X146700000Y-163550000D03*
%TO.P,U1,31,PB7*%
%TO.N,/SIGNAL*%
X147500000Y-163550000D03*
%TO.P,U1,32,PB8*%
%TO.N,unconnected-(U1-PB8-Pad32)*%
X148300000Y-163550000D03*
%TD*%
D19*
%TO.P,C7,1*%
%TO.N,+3.3V*%
X149725000Y-163400000D03*
%TO.P,C7,2*%
%TO.N,GND*%
X151275000Y-163400000D03*
%TD*%
D20*
%TO.P,DS2,1,K*%
%TO.N,Net-(DS2-K)*%
X151287500Y-155200000D03*
%TO.P,DS2,2,A*%
%TO.N,/LED_GREEN*%
X149712500Y-155200000D03*
%TD*%
D13*
%TO.P,J1,1,1*%
%TO.N,/A_FET_N1_HS*%
X154000000Y-155500000D03*
%TO.P,J1,2,2*%
%TO.N,/A_FET_N2_HS*%
X154000000Y-158040000D03*
%TO.P,J1,3,3*%
%TO.N,VCC*%
X154000000Y-160580000D03*
%TO.P,J1,4,4*%
%TO.N,GND*%
X154000000Y-163120000D03*
%TD*%
D21*
%TO.P,DS1,1,K*%
%TO.N,Net-(DS1-K)*%
X139712500Y-155200000D03*
%TO.P,DS1,2,A*%
%TO.N,/LED_RED*%
X141287500Y-155200000D03*
%TD*%
D22*
%TO.N,GND*%
X136150000Y-159300000D03*
X145500000Y-160000000D03*
X152600000Y-158600000D03*
X154875000Y-161850000D03*
X154875000Y-159300000D03*
X137822216Y-161851125D03*
X153075000Y-156775000D03*
X137875000Y-159325000D03*
X137850000Y-156775000D03*
X144850000Y-153500000D03*
X148700000Y-161300000D03*
X149150000Y-153650000D03*
X142300000Y-156100000D03*
X153125000Y-161850000D03*
X142350000Y-157500000D03*
X152300000Y-163300000D03*
X154900000Y-156754538D03*
X139650000Y-157750000D03*
X146150000Y-153500000D03*
X147850000Y-153649502D03*
X140375500Y-163150500D03*
X152200000Y-161800000D03*
X146000000Y-162400000D03*
X143124500Y-153649502D03*
X152300000Y-155000000D03*
X148400000Y-157500000D03*
X136150000Y-156775000D03*
X138600000Y-155200000D03*
X141850000Y-153649502D03*
X136150000Y-161850000D03*
%TO.N,+3.3V*%
X147000000Y-160800000D03*
X152550000Y-160250000D03*
%TO.N,/SIGNAL*%
X142519435Y-154000498D03*
X147500000Y-162650000D03*
%TO.N,/LED_GREEN*%
X148700000Y-156100000D03*
X143800864Y-162472567D03*
X138799500Y-157982621D03*
%TO.N,/nRST*%
X147000000Y-157800000D03*
%TO.N,/A_FET_N1*%
X142100000Y-159700000D03*
X138343800Y-159925500D03*
%TO.N,/A_FET_N1_HS*%
X142100000Y-158900000D03*
%TO.N,/LED_RED*%
X142000498Y-155193502D03*
X138396298Y-158858575D03*
X144550000Y-162500000D03*
%TO.N,/V_BATT*%
X147505452Y-156100004D03*
%TO.N,/SWDIO*%
X144000000Y-157800000D03*
%TO.N,/SWDCLK*%
X139974500Y-161074500D03*
X144000000Y-160800000D03*
%TO.N,/A_FET_N2_HS*%
X142075000Y-161300000D03*
%TO.N,/A_FET_N2*%
X142100000Y-160500000D03*
%TO.N,/INVERT*%
X148999500Y-154494000D03*
X146805950Y-156099502D03*
%TD*%
D23*
%TO.N,unconnected-(U1-PA2-Pad9)*%
X148450000Y-155200000D02*
X148300000Y-155050000D01*
%TO.N,GND*%
X140375500Y-163150500D02*
X139974500Y-163150500D01*
X139974500Y-163150500D02*
X139725000Y-163400000D01*
%TO.N,+3.3V*%
X148100000Y-159700000D02*
X148850000Y-159700000D01*
X149625000Y-163400000D02*
X147025000Y-160800000D01*
X152550000Y-160250000D02*
X151375000Y-160250000D01*
X147025000Y-160800000D02*
X147000000Y-160800000D01*
X141275000Y-163400000D02*
X141424569Y-163400000D01*
X144825000Y-160800000D02*
X147000000Y-160800000D01*
X149750000Y-159700000D02*
X148850000Y-159700000D01*
X151375000Y-160250000D02*
X151350000Y-160225000D01*
X149725000Y-163400000D02*
X149625000Y-163400000D01*
X150825000Y-159700000D02*
X149750000Y-159700000D01*
X143400000Y-160586827D02*
X143761827Y-160225000D01*
X144250000Y-160225000D02*
X144825000Y-160800000D01*
X151350000Y-160225000D02*
X150825000Y-159700000D01*
X143761827Y-160225000D02*
X144250000Y-160225000D01*
X141275000Y-163400000D02*
X141400000Y-163400000D01*
X147000000Y-160800000D02*
X148100000Y-159700000D01*
X143400000Y-161424569D02*
X143400000Y-160586827D01*
X141424569Y-163400000D02*
X143400000Y-161424569D01*
%TO.N,/SIGNAL*%
X147500000Y-163600000D02*
X147500000Y-162650000D01*
X142550000Y-153900000D02*
X142550000Y-152550000D01*
%TO.N,/LED_GREEN*%
X143500000Y-162773431D02*
X143500000Y-163550000D01*
X143800864Y-162472567D02*
X143500000Y-162773431D01*
X149600000Y-155200000D02*
X148700000Y-156100000D01*
X143800864Y-162472567D02*
X143736715Y-162536716D01*
X149712500Y-155200000D02*
X149600000Y-155200000D01*
%TO.N,/nRST*%
X147300000Y-158100000D02*
X147000000Y-157800000D01*
X149750000Y-158100000D02*
X147300000Y-158100000D01*
%TO.N,/A_FET_N1*%
X141150000Y-159700000D02*
X142100000Y-159700000D01*
%TO.N,/A_FET_N1_HS*%
X141150000Y-158900000D02*
X142100000Y-158900000D01*
%TO.N,/LED_RED*%
X144300000Y-162786604D02*
X144300000Y-163550000D01*
X141994000Y-155200000D02*
X141287500Y-155200000D01*
X144550000Y-162500000D02*
X144550000Y-162536604D01*
X144550000Y-162536604D02*
X144300000Y-162786604D01*
X142000498Y-155193502D02*
X141994000Y-155200000D01*
%TO.N,/V_BATT*%
X147500000Y-155025000D02*
X147500000Y-156094552D01*
X147500000Y-156094552D02*
X147505452Y-156100004D01*
%TO.N,/SWDIO*%
X142700000Y-158500000D02*
X143400000Y-157800000D01*
X141250000Y-162100000D02*
X142088173Y-162100000D01*
X142088173Y-162100000D02*
X142700000Y-161488173D01*
X143400000Y-157800000D02*
X144000000Y-157800000D01*
X142700000Y-161488173D02*
X142700000Y-158500000D01*
%TO.N,/SWDCLK*%
X142700000Y-162760965D02*
X144000000Y-161460965D01*
X139974500Y-161500500D02*
X139650000Y-161825000D01*
X139974500Y-161074500D02*
X139974500Y-161500500D01*
X142700000Y-163550000D02*
X142700000Y-162760965D01*
X144000000Y-161460965D02*
X144000000Y-160800000D01*
%TO.N,/A_FET_N2_HS*%
X141125000Y-161300000D02*
X142075000Y-161300000D01*
%TO.N,/A_FET_N2*%
X141150000Y-160500000D02*
X142100000Y-160500000D01*
%TO.N,Net-(DS1-K)*%
X139650000Y-155262500D02*
X139712500Y-155200000D01*
X139650000Y-156875000D02*
X139650000Y-155262500D01*
%TO.N,Net-(DS2-K)*%
X151350000Y-155262500D02*
X151287500Y-155200000D01*
X151350000Y-156875000D02*
X151350000Y-155262500D01*
%TO.N,/INVERT*%
X148999500Y-154399500D02*
X148450000Y-153850000D01*
X146805950Y-156099502D02*
X143799502Y-156099502D01*
X143799502Y-156099502D02*
X143500000Y-155800000D01*
X143500000Y-155800000D02*
X143500000Y-155050000D01*
X148999500Y-154494000D02*
X148999500Y-154399500D01*
X148450000Y-153850000D02*
X148450000Y-152575000D01*
%TD*%
%TA.AperFunction,Conductor*%
%TO.N,GND*%
G36*
X142167539Y-153420185D02*
G01*
X142213294Y-153472989D01*
X142224500Y-153524500D01*
X142224500Y-153606688D01*
X142204815Y-153673727D01*
X142194215Y-153687887D01*
X142170573Y-153715173D01*
X142136552Y-153754436D01*
X142082737Y-153872271D01*
X142064302Y-154000498D01*
X142082737Y-154128724D01*
X142136553Y-154246562D01*
X142219213Y-154341957D01*
X142248238Y-154405512D01*
X142249500Y-154423159D01*
X142249500Y-154631451D01*
X142229815Y-154698490D01*
X142177011Y-154744245D01*
X142107853Y-154754189D01*
X142090569Y-154750429D01*
X142065272Y-154743002D01*
X142065270Y-154743002D01*
X141949774Y-154743002D01*
X141882735Y-154723317D01*
X141862093Y-154706684D01*
X141849656Y-154694247D01*
X141755751Y-154600342D01*
X141637420Y-154540049D01*
X141637419Y-154540048D01*
X141637418Y-154540048D01*
X141539248Y-154524500D01*
X141539246Y-154524500D01*
X141035754Y-154524500D01*
X141035752Y-154524500D01*
X140937581Y-154540048D01*
X140819247Y-154600343D01*
X140725343Y-154694247D01*
X140665048Y-154812581D01*
X140649500Y-154910751D01*
X140649500Y-155489248D01*
X140665048Y-155587418D01*
X140665048Y-155587419D01*
X140665049Y-155587420D01*
X140725342Y-155705751D01*
X140819249Y-155799658D01*
X140849391Y-155815016D01*
X140900186Y-155862990D01*
X140916981Y-155930811D01*
X140894443Y-155996946D01*
X140839728Y-156040397D01*
X140793095Y-156049500D01*
X140630251Y-156049500D01*
X140571769Y-156061132D01*
X140505447Y-156105447D01*
X140461132Y-156171769D01*
X140449499Y-156230251D01*
X140449499Y-156333745D01*
X140429814Y-156400784D01*
X140377009Y-156446539D01*
X140307851Y-156456482D01*
X140244295Y-156427456D01*
X140237818Y-156421425D01*
X140163343Y-156346950D01*
X140043205Y-156285737D01*
X139992409Y-156237762D01*
X139975500Y-156175252D01*
X139975500Y-155979623D01*
X139995185Y-155912584D01*
X140045139Y-155869298D01*
X140044920Y-155868867D01*
X140046660Y-155867980D01*
X140047989Y-155866829D01*
X140050265Y-155866143D01*
X140062416Y-155859951D01*
X140062420Y-155859951D01*
X140180751Y-155799658D01*
X140274658Y-155705751D01*
X140334951Y-155587420D01*
X140350500Y-155489246D01*
X140350500Y-154910754D01*
X140350064Y-154908004D01*
X140334951Y-154812581D01*
X140334951Y-154812580D01*
X140274658Y-154694249D01*
X140180751Y-154600342D01*
X140062420Y-154540049D01*
X140062419Y-154540048D01*
X140062418Y-154540048D01*
X139964248Y-154524500D01*
X139964246Y-154524500D01*
X139460754Y-154524500D01*
X139460752Y-154524500D01*
X139362581Y-154540048D01*
X139244247Y-154600343D01*
X139150343Y-154694247D01*
X139090048Y-154812581D01*
X139074500Y-154910751D01*
X139074500Y-155489248D01*
X139090048Y-155587418D01*
X139090048Y-155587419D01*
X139090049Y-155587420D01*
X139150342Y-155705751D01*
X139244249Y-155799658D01*
X139256794Y-155806050D01*
X139307590Y-155854023D01*
X139324500Y-155916535D01*
X139324500Y-156175252D01*
X139304815Y-156242291D01*
X139256795Y-156285737D01*
X139136656Y-156346950D01*
X139046950Y-156436656D01*
X138989353Y-156549697D01*
X138974500Y-156643478D01*
X138974500Y-157106514D01*
X138974501Y-157106518D01*
X138989354Y-157200304D01*
X138989354Y-157200305D01*
X138989355Y-157200306D01*
X139046949Y-157313342D01*
X139089072Y-157355465D01*
X139122557Y-157416788D01*
X139117573Y-157486480D01*
X139075701Y-157542413D01*
X139010237Y-157566830D01*
X138966458Y-157562124D01*
X138892131Y-157540301D01*
X138864272Y-157532121D01*
X138734728Y-157532121D01*
X138734727Y-157532121D01*
X138610431Y-157568615D01*
X138501450Y-157638654D01*
X138416618Y-157736556D01*
X138362802Y-157854394D01*
X138344367Y-157982621D01*
X138362802Y-158110847D01*
X138419347Y-158234660D01*
X138429291Y-158303818D01*
X138400266Y-158367374D01*
X138341489Y-158405149D01*
X138341487Y-158405149D01*
X138207230Y-158444569D01*
X138098248Y-158514608D01*
X138013416Y-158612510D01*
X137959600Y-158730348D01*
X137941165Y-158858575D01*
X137959600Y-158986801D01*
X138013416Y-159104639D01*
X138098247Y-159202541D01*
X138217520Y-159279193D01*
X138263275Y-159331997D01*
X138273218Y-159401155D01*
X138244193Y-159464711D01*
X138185416Y-159502485D01*
X138154731Y-159511495D01*
X138045751Y-159581532D01*
X138028853Y-159601035D01*
X137970075Y-159638809D01*
X137900205Y-159638809D01*
X137866121Y-159618585D01*
X137865348Y-159619893D01*
X137710397Y-159528255D01*
X137552572Y-159482402D01*
X137518128Y-159479691D01*
X137518114Y-159479690D01*
X137515694Y-159479500D01*
X136484306Y-159479500D01*
X136481886Y-159479690D01*
X136481871Y-159479691D01*
X136447427Y-159482402D01*
X136289602Y-159528255D01*
X136148134Y-159611919D01*
X136031919Y-159728134D01*
X135948255Y-159869602D01*
X135902402Y-160027427D01*
X135899691Y-160061871D01*
X135899690Y-160061886D01*
X135899500Y-160064306D01*
X135899500Y-161095694D01*
X135899690Y-161098114D01*
X135899691Y-161098128D01*
X135902402Y-161132572D01*
X135948255Y-161290397D01*
X136005184Y-161386658D01*
X136031919Y-161431865D01*
X136148135Y-161548081D01*
X136235527Y-161599764D01*
X136289602Y-161631744D01*
X136447427Y-161677597D01*
X136447431Y-161677598D01*
X136484306Y-161680500D01*
X136486751Y-161680500D01*
X137513249Y-161680500D01*
X137515694Y-161680500D01*
X137552569Y-161677598D01*
X137710398Y-161631744D01*
X137851865Y-161548081D01*
X137968081Y-161431865D01*
X138051744Y-161290398D01*
X138097598Y-161132569D01*
X138100500Y-161095694D01*
X138100500Y-160489223D01*
X138120185Y-160422185D01*
X138172989Y-160376430D01*
X138242147Y-160366486D01*
X138259433Y-160370246D01*
X138279028Y-160376000D01*
X138408573Y-160376000D01*
X138532868Y-160339505D01*
X138566610Y-160317820D01*
X138641849Y-160269467D01*
X138726682Y-160171563D01*
X138780497Y-160053726D01*
X138798933Y-159925500D01*
X138780497Y-159797274D01*
X138757436Y-159746779D01*
X138726681Y-159679435D01*
X138641849Y-159581533D01*
X138522577Y-159504881D01*
X138476822Y-159452077D01*
X138466879Y-159382918D01*
X138495904Y-159319363D01*
X138554683Y-159281589D01*
X138554684Y-159281588D01*
X138585367Y-159272579D01*
X138694347Y-159202542D01*
X138779180Y-159104638D01*
X138832995Y-158986801D01*
X138851431Y-158858575D01*
X138832995Y-158730349D01*
X138779180Y-158612512D01*
X138779179Y-158612511D01*
X138776450Y-158606535D01*
X138766506Y-158537377D01*
X138795530Y-158473821D01*
X138854308Y-158436046D01*
X138854311Y-158436045D01*
X138864269Y-158433121D01*
X138864272Y-158433121D01*
X138988569Y-158396625D01*
X139097549Y-158326588D01*
X139182382Y-158228684D01*
X139236197Y-158110847D01*
X139254633Y-157982621D01*
X139236197Y-157854395D01*
X139211355Y-157800000D01*
X139182381Y-157736556D01*
X139117080Y-157661194D01*
X139088055Y-157597638D01*
X139097999Y-157528480D01*
X139143754Y-157475676D01*
X139210794Y-157455992D01*
X139229819Y-157460595D01*
X139230298Y-157457574D01*
X139273485Y-157464413D01*
X139343481Y-157475500D01*
X139956518Y-157475499D01*
X140050304Y-157460646D01*
X140163342Y-157403050D01*
X140237819Y-157328572D01*
X140299140Y-157295089D01*
X140368832Y-157300073D01*
X140424766Y-157341944D01*
X140449183Y-157407408D01*
X140449499Y-157416254D01*
X140449499Y-157569748D01*
X140461133Y-157628231D01*
X140463056Y-157631109D01*
X140483934Y-157697787D01*
X140465449Y-157765167D01*
X140463056Y-157768891D01*
X140461133Y-157771768D01*
X140449500Y-157830251D01*
X140449500Y-158369748D01*
X140461133Y-158428231D01*
X140463056Y-158431109D01*
X140483934Y-158497787D01*
X140465449Y-158565167D01*
X140463056Y-158568891D01*
X140461133Y-158571768D01*
X140449500Y-158630251D01*
X140449500Y-159169748D01*
X140461133Y-159228231D01*
X140463056Y-159231109D01*
X140483934Y-159297787D01*
X140465449Y-159365167D01*
X140463056Y-159368891D01*
X140461133Y-159371768D01*
X140449500Y-159430251D01*
X140449500Y-159969748D01*
X140461133Y-160028231D01*
X140463056Y-160031109D01*
X140483934Y-160097787D01*
X140465449Y-160165167D01*
X140463056Y-160168891D01*
X140461133Y-160171768D01*
X140449500Y-160230251D01*
X140449500Y-160617163D01*
X140429815Y-160684202D01*
X140377011Y-160729957D01*
X140307853Y-160739901D01*
X140258461Y-160721478D01*
X140163570Y-160660495D01*
X140039273Y-160624000D01*
X140039272Y-160624000D01*
X139909728Y-160624000D01*
X139909727Y-160624000D01*
X139785431Y-160660494D01*
X139676450Y-160730533D01*
X139591618Y-160828435D01*
X139537802Y-160946273D01*
X139519367Y-161074500D01*
X139520568Y-161082854D01*
X139510624Y-161152012D01*
X139464869Y-161204816D01*
X139397832Y-161224500D01*
X139343485Y-161224500D01*
X139296588Y-161231927D01*
X139249696Y-161239354D01*
X139249694Y-161239354D01*
X139249693Y-161239355D01*
X139136657Y-161296949D01*
X139046950Y-161386656D01*
X138989353Y-161499697D01*
X138974500Y-161593478D01*
X138974500Y-162056514D01*
X138978745Y-162083314D01*
X138989354Y-162150304D01*
X138989354Y-162150305D01*
X138989355Y-162150306D01*
X139046949Y-162263342D01*
X139136656Y-162353049D01*
X139136658Y-162353050D01*
X139249696Y-162410646D01*
X139343481Y-162425500D01*
X139956518Y-162425499D01*
X140050304Y-162410646D01*
X140163342Y-162353050D01*
X140237819Y-162278572D01*
X140299140Y-162245089D01*
X140368832Y-162250073D01*
X140424766Y-162291944D01*
X140449183Y-162357408D01*
X140449499Y-162366247D01*
X140449499Y-162369745D01*
X140461132Y-162428230D01*
X140505447Y-162494552D01*
X140571769Y-162538867D01*
X140630251Y-162550500D01*
X140630252Y-162550500D01*
X140772842Y-162550500D01*
X140839881Y-162570185D01*
X140885636Y-162622989D01*
X140895580Y-162692147D01*
X140866555Y-162755703D01*
X140829137Y-162784985D01*
X140796778Y-162801472D01*
X140701472Y-162896778D01*
X140640280Y-163016875D01*
X140624500Y-163116509D01*
X140624500Y-163683490D01*
X140640280Y-163783124D01*
X140701472Y-163903221D01*
X140796778Y-163998527D01*
X140796780Y-163998528D01*
X140916874Y-164059719D01*
X140950086Y-164064979D01*
X141016510Y-164075500D01*
X141016512Y-164075500D01*
X141533490Y-164075500D01*
X141583306Y-164067609D01*
X141633126Y-164059719D01*
X141753220Y-163998528D01*
X141848528Y-163903220D01*
X141909719Y-163783126D01*
X141925500Y-163683488D01*
X141925500Y-163410757D01*
X141945185Y-163343718D01*
X141961819Y-163323076D01*
X142037819Y-163247076D01*
X142099142Y-163213591D01*
X142168834Y-163218575D01*
X142224767Y-163260447D01*
X142249184Y-163325911D01*
X142249500Y-163334757D01*
X142249500Y-164169748D01*
X142261132Y-164228230D01*
X142313504Y-164306609D01*
X142334382Y-164373286D01*
X142315898Y-164440666D01*
X142263919Y-164487357D01*
X142210402Y-164499500D01*
X135724500Y-164499500D01*
X135657461Y-164479815D01*
X135611706Y-164427011D01*
X135600500Y-164375500D01*
X135600500Y-163635694D01*
X135899500Y-163635694D01*
X135899690Y-163638114D01*
X135899691Y-163638128D01*
X135902402Y-163672572D01*
X135948255Y-163830397D01*
X135991323Y-163903221D01*
X136031919Y-163971865D01*
X136148135Y-164088081D01*
X136286227Y-164169748D01*
X136289602Y-164171744D01*
X136447427Y-164217597D01*
X136447431Y-164217598D01*
X136484306Y-164220500D01*
X136486751Y-164220500D01*
X137513249Y-164220500D01*
X137515694Y-164220500D01*
X137552569Y-164217598D01*
X137710398Y-164171744D01*
X137851865Y-164088081D01*
X137968081Y-163971865D01*
X138051744Y-163830398D01*
X138097598Y-163672569D01*
X138100500Y-163635694D01*
X138100500Y-162604306D01*
X138097598Y-162567431D01*
X138076424Y-162494552D01*
X138051744Y-162409602D01*
X138029372Y-162371773D01*
X137968081Y-162268135D01*
X137851865Y-162151919D01*
X137849134Y-162150304D01*
X137710397Y-162068255D01*
X137552572Y-162022402D01*
X137518128Y-162019691D01*
X137518114Y-162019690D01*
X137515694Y-162019500D01*
X136484306Y-162019500D01*
X136481886Y-162019690D01*
X136481871Y-162019691D01*
X136447427Y-162022402D01*
X136289602Y-162068255D01*
X136148134Y-162151919D01*
X136031919Y-162268134D01*
X135948255Y-162409602D01*
X135902402Y-162567427D01*
X135899691Y-162601871D01*
X135899690Y-162601886D01*
X135899500Y-162604306D01*
X135899500Y-163635694D01*
X135600500Y-163635694D01*
X135600500Y-154274500D01*
X135620185Y-154207461D01*
X135672989Y-154161706D01*
X135724500Y-154150500D01*
X141067661Y-154150500D01*
X141163069Y-154128724D01*
X141199588Y-154120389D01*
X141321507Y-154061675D01*
X141427305Y-153977305D01*
X141511675Y-153871507D01*
X141570389Y-153749588D01*
X141600500Y-153617660D01*
X141600500Y-153550000D01*
X141600500Y-153524500D01*
X141620185Y-153457461D01*
X141672989Y-153411706D01*
X141724500Y-153400500D01*
X142100500Y-153400500D01*
X142167539Y-153420185D01*
G37*
%TD.AperFunction*%
%TA.AperFunction,Conductor*%
G36*
X146342539Y-151320185D02*
G01*
X146388294Y-151372989D01*
X146399500Y-151424500D01*
X146399500Y-153767660D01*
X146429610Y-153899587D01*
X146439694Y-153920525D01*
X146488325Y-154021507D01*
X146488326Y-154021508D01*
X146510339Y-154049113D01*
X146536747Y-154113800D01*
X146523989Y-154182495D01*
X146476118Y-154233388D01*
X146437583Y-154248041D01*
X146371769Y-154261132D01*
X146368891Y-154263056D01*
X146302213Y-154283934D01*
X146234833Y-154265449D01*
X146231109Y-154263056D01*
X146228231Y-154261133D01*
X146169749Y-154249500D01*
X146169748Y-154249500D01*
X145630252Y-154249500D01*
X145630251Y-154249500D01*
X145571768Y-154261133D01*
X145568891Y-154263056D01*
X145502213Y-154283934D01*
X145434833Y-154265449D01*
X145431109Y-154263056D01*
X145428231Y-154261133D01*
X145369749Y-154249500D01*
X145369748Y-154249500D01*
X144830252Y-154249500D01*
X144830251Y-154249500D01*
X144771768Y-154261133D01*
X144768891Y-154263056D01*
X144702213Y-154283934D01*
X144634833Y-154265449D01*
X144631109Y-154263056D01*
X144628230Y-154261132D01*
X144562416Y-154248041D01*
X144500505Y-154215656D01*
X144465931Y-154154940D01*
X144469672Y-154085170D01*
X144489660Y-154049113D01*
X144511675Y-154021507D01*
X144570389Y-153899588D01*
X144600500Y-153767660D01*
X144600500Y-153700000D01*
X144600500Y-153673071D01*
X144600500Y-153673070D01*
X144600500Y-151424499D01*
X144620185Y-151357461D01*
X144672989Y-151311706D01*
X144724500Y-151300500D01*
X146275500Y-151300500D01*
X146342539Y-151320185D01*
G37*
%TD.AperFunction*%
%TA.AperFunction,Conductor*%
G36*
X148067539Y-153420185D02*
G01*
X148113294Y-153472989D01*
X148124500Y-153524500D01*
X148124500Y-153830372D01*
X148124028Y-153841180D01*
X148120735Y-153878807D01*
X148130512Y-153915296D01*
X148132853Y-153925852D01*
X148139599Y-153964107D01*
X148149829Y-153988803D01*
X148150446Y-153989684D01*
X148172112Y-154020627D01*
X148177915Y-154029737D01*
X148197408Y-154063499D01*
X148213882Y-154131399D01*
X148191030Y-154197426D01*
X148136109Y-154240617D01*
X148090022Y-154249500D01*
X148030251Y-154249500D01*
X147971768Y-154261133D01*
X147968891Y-154263056D01*
X147902213Y-154283934D01*
X147834833Y-154265449D01*
X147831109Y-154263056D01*
X147828231Y-154261133D01*
X147769749Y-154249500D01*
X147769748Y-154249500D01*
X147587345Y-154249500D01*
X147520306Y-154229815D01*
X147474551Y-154177011D01*
X147464607Y-154107853D01*
X147490398Y-154048188D01*
X147492221Y-154045901D01*
X147511675Y-154021507D01*
X147570389Y-153899588D01*
X147600500Y-153767660D01*
X147600500Y-153700000D01*
X147600500Y-153673071D01*
X147600500Y-153524499D01*
X147620185Y-153457461D01*
X147672989Y-153411706D01*
X147724500Y-153400500D01*
X148000500Y-153400500D01*
X148067539Y-153420185D01*
G37*
%TD.AperFunction*%
%TA.AperFunction,Conductor*%
G36*
X149342539Y-153420185D02*
G01*
X149388294Y-153472989D01*
X149399500Y-153524500D01*
X149399500Y-153617660D01*
X149429610Y-153749587D01*
X149471122Y-153835786D01*
X149488325Y-153871507D01*
X149572695Y-153977305D01*
X149678493Y-154061675D01*
X149774381Y-154107853D01*
X149800412Y-154120389D01*
X149932339Y-154150500D01*
X149932340Y-154150500D01*
X149984083Y-154150500D01*
X155275500Y-154150500D01*
X155342539Y-154170185D01*
X155388294Y-154222989D01*
X155399500Y-154274500D01*
X155399500Y-164375500D01*
X155379815Y-164442539D01*
X155327011Y-164488294D01*
X155275500Y-164499500D01*
X148789598Y-164499500D01*
X148722559Y-164479815D01*
X148676804Y-164427011D01*
X148666860Y-164357853D01*
X148686496Y-164306609D01*
X148704884Y-164279089D01*
X148738867Y-164228231D01*
X148750500Y-164169748D01*
X148750500Y-163285188D01*
X148770185Y-163218149D01*
X148822989Y-163172394D01*
X148892147Y-163162450D01*
X148955703Y-163191475D01*
X148962181Y-163197507D01*
X149038181Y-163273507D01*
X149071666Y-163334830D01*
X149074500Y-163361188D01*
X149074500Y-163683490D01*
X149090280Y-163783124D01*
X149151472Y-163903221D01*
X149246778Y-163998527D01*
X149246780Y-163998528D01*
X149366874Y-164059719D01*
X149400086Y-164064979D01*
X149466510Y-164075500D01*
X149466512Y-164075500D01*
X149983490Y-164075500D01*
X150033307Y-164067609D01*
X150083126Y-164059719D01*
X150203220Y-163998528D01*
X150298528Y-163903220D01*
X150359719Y-163783126D01*
X150375500Y-163683488D01*
X150375500Y-163116512D01*
X150359719Y-163016874D01*
X150298528Y-162896780D01*
X150298527Y-162896778D01*
X150203221Y-162801472D01*
X150170863Y-162784985D01*
X150120067Y-162737010D01*
X150103272Y-162669189D01*
X150125809Y-162603054D01*
X150180525Y-162559603D01*
X150227158Y-162550500D01*
X150369749Y-162550500D01*
X150398989Y-162544683D01*
X150428231Y-162538867D01*
X150494552Y-162494552D01*
X150538867Y-162428231D01*
X150550500Y-162369748D01*
X150550500Y-161830252D01*
X150538867Y-161771769D01*
X150536944Y-161768891D01*
X150516065Y-161702217D01*
X150534548Y-161634836D01*
X150536920Y-161631143D01*
X150538867Y-161628231D01*
X150550500Y-161569748D01*
X150550500Y-161030252D01*
X150538867Y-160971769D01*
X150536944Y-160968891D01*
X150516065Y-160902217D01*
X150534548Y-160834836D01*
X150536920Y-160831143D01*
X150538867Y-160828231D01*
X150549623Y-160774155D01*
X150582006Y-160712248D01*
X150642721Y-160677674D01*
X150712491Y-160681413D01*
X150758920Y-160710669D01*
X150846778Y-160798527D01*
X150846780Y-160798528D01*
X150966874Y-160859719D01*
X151000086Y-160864979D01*
X151066510Y-160875500D01*
X151066512Y-160875500D01*
X151633490Y-160875500D01*
X151683307Y-160867609D01*
X151733126Y-160859719D01*
X151853220Y-160798528D01*
X151948528Y-160703220D01*
X151970297Y-160660496D01*
X151979107Y-160643206D01*
X152027081Y-160592409D01*
X152089592Y-160575500D01*
X152186806Y-160575500D01*
X152253845Y-160595185D01*
X152253846Y-160595185D01*
X152360931Y-160664005D01*
X152485227Y-160700500D01*
X152485228Y-160700500D01*
X152614773Y-160700500D01*
X152740566Y-160663565D01*
X152810436Y-160663565D01*
X152869214Y-160701340D01*
X152898238Y-160764896D01*
X152899500Y-160782541D01*
X152899500Y-161095694D01*
X152899690Y-161098114D01*
X152899691Y-161098128D01*
X152902402Y-161132572D01*
X152948255Y-161290397D01*
X153005184Y-161386658D01*
X153031919Y-161431865D01*
X153148135Y-161548081D01*
X153235527Y-161599764D01*
X153289602Y-161631744D01*
X153447427Y-161677597D01*
X153447431Y-161677598D01*
X153484306Y-161680500D01*
X153486751Y-161680500D01*
X154513249Y-161680500D01*
X154515694Y-161680500D01*
X154552569Y-161677598D01*
X154710398Y-161631744D01*
X154851865Y-161548081D01*
X154968081Y-161431865D01*
X155051744Y-161290398D01*
X155097598Y-161132569D01*
X155100500Y-161095694D01*
X155100500Y-160064306D01*
X155097598Y-160027431D01*
X155084832Y-159983492D01*
X155051744Y-159869602D01*
X155044169Y-159856794D01*
X154968081Y-159728135D01*
X154851865Y-159611919D01*
X154755307Y-159554815D01*
X154710397Y-159528255D01*
X154552572Y-159482402D01*
X154518128Y-159479691D01*
X154518114Y-159479690D01*
X154515694Y-159479500D01*
X153484306Y-159479500D01*
X153481886Y-159479690D01*
X153481871Y-159479691D01*
X153447427Y-159482402D01*
X153289602Y-159528255D01*
X153148134Y-159611919D01*
X153031918Y-159728135D01*
X152970555Y-159831893D01*
X152919486Y-159879576D01*
X152850744Y-159892079D01*
X152796785Y-159873087D01*
X152739067Y-159835994D01*
X152614773Y-159799500D01*
X152614772Y-159799500D01*
X152485228Y-159799500D01*
X152485227Y-159799500D01*
X152360931Y-159835994D01*
X152253846Y-159904815D01*
X152186806Y-159924500D01*
X152115068Y-159924500D01*
X152048029Y-159904815D01*
X152004583Y-159856794D01*
X151948528Y-159746779D01*
X151853221Y-159651472D01*
X151733124Y-159590280D01*
X151633490Y-159574500D01*
X151633488Y-159574500D01*
X151211188Y-159574500D01*
X151144149Y-159554815D01*
X151123507Y-159538181D01*
X151069043Y-159483717D01*
X151061734Y-159475741D01*
X151037454Y-159446805D01*
X151004736Y-159427915D01*
X150995627Y-159422112D01*
X150964684Y-159400446D01*
X150963803Y-159399829D01*
X150939107Y-159389599D01*
X150900852Y-159382853D01*
X150890296Y-159380512D01*
X150853807Y-159370735D01*
X150816180Y-159374028D01*
X150805372Y-159374500D01*
X150606971Y-159374500D01*
X150539932Y-159354815D01*
X150503870Y-159319392D01*
X150494553Y-159305448D01*
X150428230Y-159261132D01*
X150369749Y-159249500D01*
X150369748Y-159249500D01*
X149130252Y-159249500D01*
X149130251Y-159249500D01*
X149071769Y-159261132D01*
X149005446Y-159305448D01*
X148996130Y-159319392D01*
X148942518Y-159364196D01*
X148893029Y-159374500D01*
X148119628Y-159374500D01*
X148108820Y-159374028D01*
X148071192Y-159370735D01*
X148034704Y-159380512D01*
X148024148Y-159382852D01*
X147985899Y-159389597D01*
X147961193Y-159399831D01*
X147929380Y-159422106D01*
X147920264Y-159427914D01*
X147887545Y-159446805D01*
X147863262Y-159475744D01*
X147855956Y-159483716D01*
X147026493Y-160313181D01*
X146965170Y-160346666D01*
X146938812Y-160349500D01*
X146935227Y-160349500D01*
X146810931Y-160385994D01*
X146703846Y-160454815D01*
X146636806Y-160474500D01*
X145011188Y-160474500D01*
X144944149Y-160454815D01*
X144923507Y-160438181D01*
X144494043Y-160008717D01*
X144486734Y-160000741D01*
X144462455Y-159971806D01*
X144462454Y-159971805D01*
X144429736Y-159952915D01*
X144420627Y-159947112D01*
X144389684Y-159925446D01*
X144388803Y-159924829D01*
X144364107Y-159914599D01*
X144325852Y-159907853D01*
X144315296Y-159905512D01*
X144278807Y-159895735D01*
X144241180Y-159899028D01*
X144230372Y-159899500D01*
X143781455Y-159899500D01*
X143770647Y-159899028D01*
X143733019Y-159895735D01*
X143696531Y-159905512D01*
X143685975Y-159907852D01*
X143647726Y-159914597D01*
X143623020Y-159924831D01*
X143591207Y-159947106D01*
X143582091Y-159952914D01*
X143549372Y-159971805D01*
X143525089Y-160000744D01*
X143517783Y-160008716D01*
X143237181Y-160289319D01*
X143175858Y-160322804D01*
X143106167Y-160317820D01*
X143050233Y-160275949D01*
X143025816Y-160210484D01*
X143025500Y-160201638D01*
X143025500Y-158686188D01*
X143045185Y-158619149D01*
X143061819Y-158598507D01*
X143104632Y-158555694D01*
X152899500Y-158555694D01*
X152899690Y-158558114D01*
X152899691Y-158558128D01*
X152902402Y-158592572D01*
X152948255Y-158750397D01*
X152948256Y-158750398D01*
X153031919Y-158891865D01*
X153148135Y-159008081D01*
X153289601Y-159091744D01*
X153289602Y-159091744D01*
X153447427Y-159137597D01*
X153447431Y-159137598D01*
X153484306Y-159140500D01*
X153486751Y-159140500D01*
X154513249Y-159140500D01*
X154515694Y-159140500D01*
X154552569Y-159137598D01*
X154710398Y-159091744D01*
X154851865Y-159008081D01*
X154968081Y-158891865D01*
X155051744Y-158750398D01*
X155097598Y-158592569D01*
X155100500Y-158555694D01*
X155100500Y-157524306D01*
X155097598Y-157487431D01*
X155094131Y-157475499D01*
X155051744Y-157329602D01*
X154975279Y-157200306D01*
X154968081Y-157188135D01*
X154851865Y-157071919D01*
X154781408Y-157030251D01*
X154710397Y-156988255D01*
X154552572Y-156942402D01*
X154518128Y-156939691D01*
X154518114Y-156939690D01*
X154515694Y-156939500D01*
X153484306Y-156939500D01*
X153481886Y-156939690D01*
X153481871Y-156939691D01*
X153447427Y-156942402D01*
X153289602Y-156988255D01*
X153148134Y-157071919D01*
X153031919Y-157188134D01*
X152948255Y-157329602D01*
X152902402Y-157487427D01*
X152899691Y-157521871D01*
X152899690Y-157521886D01*
X152899500Y-157524306D01*
X152899500Y-158555694D01*
X143104632Y-158555694D01*
X143498508Y-158161819D01*
X143559831Y-158128334D01*
X143586189Y-158125500D01*
X143636806Y-158125500D01*
X143703845Y-158145185D01*
X143703846Y-158145185D01*
X143810931Y-158214005D01*
X143935227Y-158250500D01*
X143935228Y-158250500D01*
X144064773Y-158250500D01*
X144189068Y-158214005D01*
X144217758Y-158195566D01*
X144298049Y-158143967D01*
X144382882Y-158046063D01*
X144436697Y-157928226D01*
X144455133Y-157800000D01*
X144436697Y-157671774D01*
X144431865Y-157661194D01*
X144382881Y-157553935D01*
X144298049Y-157456033D01*
X144189068Y-157385994D01*
X144064773Y-157349500D01*
X144064772Y-157349500D01*
X143935228Y-157349500D01*
X143935227Y-157349500D01*
X143810931Y-157385994D01*
X143703846Y-157454815D01*
X143636806Y-157474500D01*
X143419616Y-157474500D01*
X143408808Y-157474028D01*
X143371193Y-157470736D01*
X143334716Y-157480510D01*
X143324162Y-157482849D01*
X143285905Y-157489595D01*
X143261190Y-157499834D01*
X143229377Y-157522108D01*
X143220261Y-157527915D01*
X143187545Y-157546804D01*
X143163262Y-157575743D01*
X143155956Y-157583715D01*
X142483714Y-158255958D01*
X142475741Y-158263264D01*
X142446806Y-158287544D01*
X142427914Y-158320264D01*
X142422106Y-158329380D01*
X142399831Y-158361193D01*
X142388522Y-158388496D01*
X142378483Y-158405886D01*
X142376131Y-158404528D01*
X142360906Y-158435247D01*
X142300958Y-158471136D01*
X142234887Y-158470087D01*
X142213245Y-158463732D01*
X142164772Y-158449500D01*
X142164771Y-158449500D01*
X142147667Y-158444478D01*
X142148439Y-158441847D01*
X142107461Y-158429815D01*
X142061706Y-158377011D01*
X142050500Y-158325500D01*
X142050500Y-157830251D01*
X142038867Y-157771770D01*
X142038867Y-157771769D01*
X142036944Y-157768891D01*
X142016065Y-157702217D01*
X142034548Y-157634836D01*
X142036920Y-157631143D01*
X142038867Y-157628231D01*
X142050500Y-157569748D01*
X142050500Y-157030252D01*
X142038867Y-156971769D01*
X142036944Y-156968891D01*
X142016065Y-156902217D01*
X142034548Y-156834836D01*
X142036920Y-156831143D01*
X142038867Y-156828231D01*
X142050500Y-156769748D01*
X142050500Y-156230252D01*
X142038867Y-156171769D01*
X142038866Y-156171768D01*
X141994552Y-156105447D01*
X141928230Y-156061132D01*
X141869749Y-156049500D01*
X141869748Y-156049500D01*
X141781905Y-156049500D01*
X141714866Y-156029815D01*
X141669111Y-155977011D01*
X141659167Y-155907853D01*
X141688192Y-155844297D01*
X141725607Y-155815016D01*
X141755751Y-155799658D01*
X141849658Y-155705751D01*
X141849658Y-155705750D01*
X141863546Y-155691863D01*
X141864481Y-155692798D01*
X141894594Y-155660913D01*
X141957108Y-155644002D01*
X142065268Y-155644002D01*
X142065270Y-155644002D01*
X142104398Y-155632512D01*
X142174263Y-155632512D01*
X142233042Y-155670286D01*
X142260947Y-155727296D01*
X142261132Y-155728230D01*
X142305447Y-155794552D01*
X142371769Y-155838867D01*
X142430251Y-155850500D01*
X142430252Y-155850500D01*
X142969749Y-155850500D01*
X142992643Y-155845945D01*
X143028231Y-155838867D01*
X143028231Y-155838866D01*
X143047242Y-155835085D01*
X143116833Y-155841312D01*
X143172011Y-155884174D01*
X143178820Y-155894700D01*
X143188517Y-155911495D01*
X143199829Y-155938802D01*
X143200445Y-155939682D01*
X143200446Y-155939684D01*
X143222112Y-155970627D01*
X143227915Y-155979736D01*
X143246806Y-156012455D01*
X143275742Y-156036735D01*
X143283718Y-156044044D01*
X143555452Y-156315778D01*
X143562760Y-156323752D01*
X143587047Y-156352696D01*
X143611096Y-156366581D01*
X143619758Y-156371582D01*
X143628881Y-156377394D01*
X143659818Y-156399056D01*
X143659819Y-156399056D01*
X143660700Y-156399673D01*
X143685393Y-156409902D01*
X143686456Y-156410089D01*
X143686457Y-156410090D01*
X143723645Y-156416647D01*
X143734203Y-156418987D01*
X143770695Y-156428766D01*
X143808325Y-156425473D01*
X143819132Y-156425002D01*
X146442756Y-156425002D01*
X146509795Y-156444687D01*
X146509796Y-156444687D01*
X146616881Y-156513507D01*
X146741177Y-156550002D01*
X146741178Y-156550002D01*
X146870723Y-156550002D01*
X146995018Y-156513507D01*
X147086196Y-156454910D01*
X147088271Y-156453576D01*
X147155309Y-156433892D01*
X147222349Y-156453576D01*
X147222350Y-156453577D01*
X147316383Y-156514009D01*
X147440679Y-156550504D01*
X147440680Y-156550504D01*
X147570225Y-156550504D01*
X147694520Y-156514009D01*
X147723210Y-156495570D01*
X147803501Y-156443971D01*
X147888334Y-156346067D01*
X147942149Y-156228230D01*
X147960585Y-156100004D01*
X147948463Y-156015694D01*
X147945078Y-155992146D01*
X147955022Y-155922988D01*
X148000777Y-155870184D01*
X148067816Y-155850500D01*
X148137636Y-155850500D01*
X148204675Y-155870185D01*
X148250430Y-155922989D01*
X148260374Y-155992147D01*
X148244867Y-156100000D01*
X148263302Y-156228226D01*
X148317118Y-156346064D01*
X148382419Y-156421426D01*
X148401951Y-156443967D01*
X148418979Y-156454910D01*
X148510931Y-156514005D01*
X148635227Y-156550500D01*
X148635228Y-156550500D01*
X148764770Y-156550500D01*
X148764772Y-156550500D01*
X148790567Y-156542926D01*
X148860434Y-156542926D01*
X148919212Y-156580699D01*
X148948238Y-156644255D01*
X148949500Y-156661903D01*
X148949500Y-156769748D01*
X148961133Y-156828231D01*
X148963056Y-156831109D01*
X148983934Y-156897787D01*
X148965449Y-156965167D01*
X148963056Y-156968891D01*
X148961133Y-156971768D01*
X148957854Y-156988256D01*
X148949500Y-157030252D01*
X148949500Y-157569748D01*
X148960750Y-157626309D01*
X148954524Y-157695899D01*
X148911662Y-157751077D01*
X148845772Y-157774322D01*
X148839134Y-157774500D01*
X147558913Y-157774500D01*
X147491874Y-157754815D01*
X147446119Y-157702011D01*
X147438217Y-157675105D01*
X147436697Y-157671777D01*
X147436697Y-157671774D01*
X147382882Y-157553937D01*
X147382881Y-157553936D01*
X147382881Y-157553935D01*
X147298049Y-157456033D01*
X147189068Y-157385994D01*
X147064773Y-157349500D01*
X147064772Y-157349500D01*
X146935228Y-157349500D01*
X146935227Y-157349500D01*
X146810931Y-157385994D01*
X146701950Y-157456033D01*
X146617118Y-157553935D01*
X146563302Y-157671773D01*
X146544867Y-157800000D01*
X146563302Y-157928226D01*
X146617118Y-158046064D01*
X146685949Y-158125500D01*
X146701951Y-158143967D01*
X146729729Y-158161819D01*
X146810931Y-158214005D01*
X146935227Y-158250500D01*
X146935228Y-158250500D01*
X146938812Y-158250500D01*
X147005851Y-158270185D01*
X147026493Y-158286819D01*
X147055950Y-158316276D01*
X147063258Y-158324250D01*
X147087545Y-158353194D01*
X147099881Y-158360316D01*
X147120256Y-158372080D01*
X147129379Y-158377892D01*
X147160316Y-158399554D01*
X147160317Y-158399554D01*
X147161198Y-158400171D01*
X147185891Y-158410400D01*
X147186954Y-158410587D01*
X147186955Y-158410588D01*
X147224143Y-158417145D01*
X147234706Y-158419487D01*
X147271192Y-158429264D01*
X147271192Y-158429263D01*
X147271193Y-158429264D01*
X147308819Y-158425971D01*
X147319627Y-158425500D01*
X148893029Y-158425500D01*
X148960068Y-158445185D01*
X148996130Y-158480608D01*
X149005446Y-158494551D01*
X149071769Y-158538867D01*
X149130251Y-158550500D01*
X149130252Y-158550500D01*
X150369749Y-158550500D01*
X150418015Y-158540899D01*
X150428231Y-158538867D01*
X150494552Y-158494552D01*
X150538867Y-158428231D01*
X150550500Y-158369748D01*
X150550500Y-157830252D01*
X150538867Y-157771769D01*
X150536944Y-157768891D01*
X150516065Y-157702217D01*
X150534548Y-157634836D01*
X150536920Y-157631143D01*
X150538867Y-157628231D01*
X150550500Y-157569748D01*
X150550500Y-157416254D01*
X150570185Y-157349216D01*
X150622989Y-157303461D01*
X150692147Y-157293517D01*
X150755703Y-157322542D01*
X150762181Y-157328574D01*
X150836656Y-157403049D01*
X150836658Y-157403050D01*
X150949696Y-157460646D01*
X151043481Y-157475500D01*
X151656518Y-157475499D01*
X151750304Y-157460646D01*
X151863342Y-157403050D01*
X151953050Y-157313342D01*
X152010646Y-157200304D01*
X152025500Y-157106519D01*
X152025499Y-156643482D01*
X152010646Y-156549696D01*
X151982965Y-156495370D01*
X151953050Y-156436657D01*
X151863343Y-156346950D01*
X151743205Y-156285737D01*
X151692409Y-156237762D01*
X151675500Y-156175252D01*
X151675500Y-156015694D01*
X152899500Y-156015694D01*
X152899690Y-156018114D01*
X152899691Y-156018128D01*
X152902402Y-156052572D01*
X152948255Y-156210397D01*
X152964439Y-156237762D01*
X153031919Y-156351865D01*
X153148135Y-156468081D01*
X153274692Y-156542926D01*
X153289602Y-156551744D01*
X153447427Y-156597597D01*
X153447431Y-156597598D01*
X153484306Y-156600500D01*
X153486751Y-156600500D01*
X154513249Y-156600500D01*
X154515694Y-156600500D01*
X154552569Y-156597598D01*
X154710398Y-156551744D01*
X154851865Y-156468081D01*
X154968081Y-156351865D01*
X155051744Y-156210398D01*
X155097598Y-156052569D01*
X155100500Y-156015694D01*
X155100500Y-154984306D01*
X155097598Y-154947431D01*
X155096746Y-154944500D01*
X155051744Y-154789602D01*
X155012543Y-154723317D01*
X154968081Y-154648135D01*
X154851865Y-154531919D01*
X154839320Y-154524500D01*
X154710397Y-154448255D01*
X154552572Y-154402402D01*
X154518128Y-154399691D01*
X154518114Y-154399690D01*
X154515694Y-154399500D01*
X153484306Y-154399500D01*
X153481886Y-154399690D01*
X153481871Y-154399691D01*
X153447427Y-154402402D01*
X153289602Y-154448255D01*
X153148134Y-154531919D01*
X153031919Y-154648134D01*
X152948255Y-154789602D01*
X152902402Y-154947427D01*
X152899691Y-154981871D01*
X152899690Y-154981886D01*
X152899500Y-154984306D01*
X152899500Y-156015694D01*
X151675500Y-156015694D01*
X151675500Y-155916535D01*
X151695185Y-155849496D01*
X151743205Y-155806050D01*
X151755751Y-155799658D01*
X151849658Y-155705751D01*
X151909951Y-155587420D01*
X151925500Y-155489246D01*
X151925500Y-154910754D01*
X151925064Y-154908004D01*
X151909951Y-154812581D01*
X151909951Y-154812580D01*
X151849658Y-154694249D01*
X151755751Y-154600342D01*
X151637420Y-154540049D01*
X151637419Y-154540048D01*
X151637418Y-154540048D01*
X151539248Y-154524500D01*
X151539246Y-154524500D01*
X151035754Y-154524500D01*
X151035752Y-154524500D01*
X150937581Y-154540048D01*
X150819247Y-154600343D01*
X150725343Y-154694247D01*
X150665048Y-154812581D01*
X150649500Y-154910751D01*
X150649500Y-155489248D01*
X150665048Y-155587418D01*
X150665048Y-155587419D01*
X150665049Y-155587420D01*
X150725342Y-155705751D01*
X150819249Y-155799658D01*
X150937580Y-155859951D01*
X150937582Y-155859951D01*
X150955080Y-155868867D01*
X150953044Y-155872862D01*
X150982999Y-155887050D01*
X151019952Y-155946348D01*
X151024500Y-155979623D01*
X151024500Y-156175252D01*
X151004815Y-156242291D01*
X150956795Y-156285737D01*
X150836658Y-156346949D01*
X150762181Y-156421426D01*
X150700857Y-156454910D01*
X150631166Y-156449926D01*
X150575232Y-156408054D01*
X150550816Y-156342589D01*
X150550500Y-156333744D01*
X150550500Y-156230251D01*
X150538867Y-156171769D01*
X150494552Y-156105447D01*
X150428230Y-156061132D01*
X150369749Y-156049500D01*
X150369748Y-156049500D01*
X150206905Y-156049500D01*
X150139866Y-156029815D01*
X150094111Y-155977011D01*
X150084167Y-155907853D01*
X150113192Y-155844297D01*
X150150607Y-155815016D01*
X150180751Y-155799658D01*
X150274658Y-155705751D01*
X150334951Y-155587420D01*
X150350500Y-155489246D01*
X150350500Y-154910754D01*
X150350064Y-154908004D01*
X150334951Y-154812581D01*
X150334951Y-154812580D01*
X150274658Y-154694249D01*
X150180751Y-154600342D01*
X150062420Y-154540049D01*
X150062419Y-154540048D01*
X150062418Y-154540048D01*
X149964248Y-154524500D01*
X149964246Y-154524500D01*
X149566465Y-154524500D01*
X149499426Y-154504815D01*
X149453671Y-154452011D01*
X149443727Y-154418146D01*
X149436197Y-154365773D01*
X149382381Y-154247935D01*
X149297548Y-154150032D01*
X149188571Y-154079996D01*
X149150633Y-154068857D01*
X149097888Y-154037561D01*
X148811819Y-153751492D01*
X148778334Y-153690169D01*
X148775500Y-153663811D01*
X148775500Y-153524500D01*
X148795185Y-153457461D01*
X148847989Y-153411706D01*
X148899500Y-153400500D01*
X149275500Y-153400500D01*
X149342539Y-153420185D01*
G37*
%TD.AperFunction*%
%TA.AperFunction,Conductor*%
G36*
X144559952Y-160999288D02*
G01*
X144580601Y-161015927D01*
X144580950Y-161016276D01*
X144588258Y-161024250D01*
X144612545Y-161053194D01*
X144636594Y-161067079D01*
X144645256Y-161072080D01*
X144654379Y-161077892D01*
X144685316Y-161099554D01*
X144685317Y-161099554D01*
X144686198Y-161100171D01*
X144710891Y-161110400D01*
X144711954Y-161110587D01*
X144711955Y-161110588D01*
X144749143Y-161117145D01*
X144759701Y-161119485D01*
X144796193Y-161129264D01*
X144833823Y-161125971D01*
X144844630Y-161125500D01*
X146636806Y-161125500D01*
X146703845Y-161145185D01*
X146703846Y-161145185D01*
X146810931Y-161214005D01*
X146935227Y-161250500D01*
X146935228Y-161250500D01*
X146963812Y-161250500D01*
X147030851Y-161270185D01*
X147051493Y-161286819D01*
X147786664Y-162021991D01*
X147820149Y-162083314D01*
X147815165Y-162153006D01*
X147773293Y-162208939D01*
X147707829Y-162233356D01*
X147664049Y-162228649D01*
X147564773Y-162199500D01*
X147564772Y-162199500D01*
X147435228Y-162199500D01*
X147435227Y-162199500D01*
X147310931Y-162235994D01*
X147201950Y-162306033D01*
X147117118Y-162403935D01*
X147063302Y-162521773D01*
X147045852Y-162643147D01*
X147016827Y-162706703D01*
X146958049Y-162744477D01*
X146923114Y-162749500D01*
X146430251Y-162749500D01*
X146371768Y-162761133D01*
X146368891Y-162763056D01*
X146302213Y-162783934D01*
X146234833Y-162765449D01*
X146231109Y-162763056D01*
X146228231Y-162761133D01*
X146169749Y-162749500D01*
X146169748Y-162749500D01*
X145630252Y-162749500D01*
X145630251Y-162749500D01*
X145571768Y-162761133D01*
X145568891Y-162763056D01*
X145502213Y-162783934D01*
X145434833Y-162765449D01*
X145431109Y-162763056D01*
X145428231Y-162761133D01*
X145369749Y-162749500D01*
X145369748Y-162749500D01*
X145112364Y-162749500D01*
X145045325Y-162729815D01*
X144999570Y-162677011D01*
X144989626Y-162607853D01*
X145005133Y-162500000D01*
X144986697Y-162371774D01*
X144985770Y-162369745D01*
X144932881Y-162253935D01*
X144848049Y-162156033D01*
X144739068Y-162085994D01*
X144614773Y-162049500D01*
X144614772Y-162049500D01*
X144485228Y-162049500D01*
X144485227Y-162049500D01*
X144360932Y-162085994D01*
X144259309Y-162151303D01*
X144192269Y-162170987D01*
X144125230Y-162151302D01*
X144099372Y-162128895D01*
X144041940Y-162091986D01*
X143996186Y-162039182D01*
X143986242Y-161970024D01*
X144015267Y-161906468D01*
X144021285Y-161900004D01*
X144216290Y-161704999D01*
X144224258Y-161697699D01*
X144253192Y-161673422D01*
X144253192Y-161673421D01*
X144253194Y-161673420D01*
X144272091Y-161640687D01*
X144277887Y-161631590D01*
X144299554Y-161600649D01*
X144299554Y-161600647D01*
X144300173Y-161599764D01*
X144310399Y-161575077D01*
X144310586Y-161574012D01*
X144310588Y-161574010D01*
X144317149Y-161536795D01*
X144319478Y-161526289D01*
X144329264Y-161489772D01*
X144328304Y-161478802D01*
X144325972Y-161452141D01*
X144325500Y-161441334D01*
X144325500Y-161158534D01*
X144345185Y-161091495D01*
X144355780Y-161077340D01*
X144382882Y-161046063D01*
X144382882Y-161046062D01*
X144394558Y-161032588D01*
X144395970Y-161033811D01*
X144425873Y-160999297D01*
X144492911Y-160979608D01*
X144559952Y-160999288D01*
G37*
%TD.AperFunction*%
%TA.AperFunction,Conductor*%
G36*
X148906173Y-160045185D02*
G01*
X148951928Y-160097989D01*
X148961872Y-160167147D01*
X148960754Y-160173673D01*
X148955192Y-160201638D01*
X148949500Y-160230251D01*
X148949500Y-160769748D01*
X148961133Y-160828231D01*
X148963056Y-160831109D01*
X148983934Y-160897787D01*
X148965449Y-160965167D01*
X148963056Y-160968891D01*
X148961133Y-160971768D01*
X148949500Y-161030251D01*
X148949500Y-161569748D01*
X148961133Y-161628231D01*
X148963056Y-161631109D01*
X148983934Y-161697787D01*
X148965449Y-161765167D01*
X148963056Y-161768891D01*
X148961133Y-161771768D01*
X148949500Y-161830251D01*
X148949500Y-161964811D01*
X148929815Y-162031850D01*
X148877011Y-162077605D01*
X148807853Y-162087549D01*
X148744297Y-162058524D01*
X148737819Y-162052492D01*
X147560507Y-160875180D01*
X147527022Y-160813857D01*
X147532006Y-160744165D01*
X147560507Y-160699818D01*
X147874330Y-160385996D01*
X148198506Y-160061819D01*
X148259830Y-160028334D01*
X148286188Y-160025500D01*
X148821525Y-160025500D01*
X148839134Y-160025500D01*
X148906173Y-160045185D01*
G37*
%TD.AperFunction*%
%TA.AperFunction,Conductor*%
G36*
X143342539Y-153420185D02*
G01*
X143388294Y-153472989D01*
X143399500Y-153524500D01*
X143399500Y-153767660D01*
X143429610Y-153899587D01*
X143439694Y-153920525D01*
X143488325Y-154021507D01*
X143488326Y-154021508D01*
X143509602Y-154048188D01*
X143536011Y-154112874D01*
X143523254Y-154181570D01*
X143475383Y-154232463D01*
X143412655Y-154249500D01*
X143230251Y-154249500D01*
X143171768Y-154261133D01*
X143168891Y-154263056D01*
X143102213Y-154283934D01*
X143034833Y-154265449D01*
X143031109Y-154263056D01*
X143010049Y-154248984D01*
X142965244Y-154195371D01*
X142956202Y-154128235D01*
X142957330Y-154120389D01*
X142974568Y-154000498D01*
X142956132Y-153872272D01*
X142939469Y-153835786D01*
X142894911Y-153738218D01*
X142896268Y-153737597D01*
X142876761Y-153694877D01*
X142875500Y-153677236D01*
X142875500Y-153524500D01*
X142895185Y-153457461D01*
X142947989Y-153411706D01*
X142999500Y-153400500D01*
X143275500Y-153400500D01*
X143342539Y-153420185D01*
G37*
%TD.AperFunction*%
%TD*%
M02*
