%TF.GenerationSoftware,KiCad,Pcbnew,7.0.2-6a45011f42~172~ubuntu22.04.1*%
%TF.CreationDate,2023-05-29T23:15:50+12:00*%
%TF.ProjectId,THE_BRAWN-20A_LOGIC,5448455f-4252-4415-974e-2d3230415f4c,v2.0*%
%TF.SameCoordinates,Original*%
%TF.FileFunction,Drillmap*%
%TF.FilePolarity,Positive*%
%FSLAX45Y45*%
G04 Gerber Fmt 4.5, Leading zero omitted, Abs format (unit mm)*
G04 Created by KiCad (PCBNEW 7.0.2-6a45011f42~172~ubuntu22.04.1) date 2023-05-29 23:15:50*
%MOMM*%
%LPD*%
G01*
G04 APERTURE LIST*
%ADD10C,0.050000*%
%ADD11C,0.200000*%
%ADD12C,0.030000*%
%ADD13C,0.060000*%
%ADD14C,0.100000*%
G04 APERTURE END LIST*
D10*
X14650000Y-15120000D02*
X14450000Y-15120000D01*
X14350000Y-15370000D02*
X14350000Y-15120000D01*
X14950000Y-15120000D02*
X14950000Y-15355000D01*
X14150000Y-15120000D02*
X14150000Y-15355000D01*
X15550000Y-15405000D02*
X15550000Y-16460000D01*
X14950000Y-15355000D02*
G75*
G03*
X15000000Y-15405000I50000J0D01*
G01*
X14750000Y-15120000D02*
X14950000Y-15120000D01*
X13550000Y-15405000D02*
X13550000Y-16460000D01*
X14450000Y-15120000D02*
X14450000Y-15370000D01*
X14350000Y-15120000D02*
X14150000Y-15120000D01*
X14100000Y-15405000D02*
G75*
G03*
X14150000Y-15355000I0J50000D01*
G01*
X14700000Y-15420000D02*
G75*
G03*
X14750000Y-15370000I0J50000D01*
G01*
X14650000Y-15370000D02*
G75*
G03*
X14700000Y-15420000I50000J0D01*
G01*
X14750000Y-15120000D02*
X14750000Y-15370000D01*
X15550000Y-16460000D02*
X13550000Y-16460000D01*
X13550000Y-15405000D02*
X14100000Y-15405000D01*
X15000000Y-15405000D02*
X15550000Y-15405000D01*
X14400000Y-15420000D02*
G75*
G03*
X14450000Y-15370000I0J50000D01*
G01*
X14350000Y-15370000D02*
G75*
G03*
X14400000Y-15420000I50000J0D01*
G01*
X14650000Y-15370000D02*
X14650000Y-15120000D01*
D11*
D12*
X13600000Y-15662500D02*
X13630000Y-15692500D01*
X13630000Y-15662500D02*
X13600000Y-15692500D01*
X13600000Y-15915000D02*
X13630000Y-15945000D01*
X13630000Y-15915000D02*
X13600000Y-15945000D01*
X13600000Y-16170000D02*
X13630000Y-16200000D01*
X13630000Y-16170000D02*
X13600000Y-16200000D01*
X13767222Y-16170112D02*
X13797222Y-16200112D01*
X13797222Y-16170112D02*
X13767222Y-16200112D01*
X13770000Y-15662500D02*
X13800000Y-15692500D01*
X13800000Y-15662500D02*
X13770000Y-15692500D01*
X13772500Y-15917500D02*
X13802500Y-15947500D01*
X13802500Y-15917500D02*
X13772500Y-15947500D01*
X13819380Y-15977550D02*
X13849380Y-16007550D01*
X13849380Y-15977550D02*
X13819380Y-16007550D01*
X13824630Y-15870857D02*
X13854630Y-15900857D01*
X13854630Y-15870857D02*
X13824630Y-15900857D01*
X13845000Y-15505000D02*
X13875000Y-15535000D01*
X13875000Y-15505000D02*
X13845000Y-15535000D01*
X13864950Y-15783262D02*
X13894950Y-15813262D01*
X13894950Y-15783262D02*
X13864950Y-15813262D01*
X13950000Y-15760000D02*
X13980000Y-15790000D01*
X13980000Y-15760000D02*
X13950000Y-15790000D01*
X13982450Y-16092450D02*
X14012450Y-16122450D01*
X14012450Y-16092450D02*
X13982450Y-16122450D01*
X14022550Y-16300050D02*
X14052550Y-16330050D01*
X14052550Y-16300050D02*
X14022550Y-16330050D01*
X14170000Y-15349950D02*
X14200000Y-15379950D01*
X14200000Y-15349950D02*
X14170000Y-15379950D01*
X14185050Y-15504350D02*
X14215050Y-15534350D01*
X14215050Y-15504350D02*
X14185050Y-15534350D01*
X14192500Y-16115000D02*
X14222500Y-16145000D01*
X14222500Y-16115000D02*
X14192500Y-16145000D01*
X14195000Y-15875000D02*
X14225000Y-15905000D01*
X14225000Y-15875000D02*
X14195000Y-15905000D01*
X14195000Y-15955000D02*
X14225000Y-15985000D01*
X14225000Y-15955000D02*
X14195000Y-15985000D01*
X14195000Y-16035000D02*
X14225000Y-16065000D01*
X14225000Y-16035000D02*
X14195000Y-16065000D01*
X14215000Y-15595000D02*
X14245000Y-15625000D01*
X14245000Y-15595000D02*
X14215000Y-15625000D01*
X14220000Y-15735000D02*
X14250000Y-15765000D01*
X14250000Y-15735000D02*
X14220000Y-15765000D01*
X14236943Y-15385050D02*
X14266943Y-15415050D01*
X14266943Y-15385050D02*
X14236943Y-15415050D01*
X14297450Y-15349950D02*
X14327450Y-15379950D01*
X14327450Y-15349950D02*
X14297450Y-15379950D01*
X14365086Y-16232257D02*
X14395086Y-16262257D01*
X14395086Y-16232257D02*
X14365086Y-16262257D01*
X14385000Y-15765000D02*
X14415000Y-15795000D01*
X14415000Y-15765000D02*
X14385000Y-15795000D01*
X14385000Y-16065000D02*
X14415000Y-16095000D01*
X14415000Y-16065000D02*
X14385000Y-16095000D01*
X14440000Y-16235000D02*
X14470000Y-16265000D01*
X14470000Y-16235000D02*
X14440000Y-16265000D01*
X14470000Y-15335000D02*
X14500000Y-15365000D01*
X14500000Y-15335000D02*
X14470000Y-15365000D01*
X14535000Y-15985000D02*
X14565000Y-16015000D01*
X14565000Y-15985000D02*
X14535000Y-16015000D01*
X14585000Y-16225000D02*
X14615000Y-16255000D01*
X14615000Y-16225000D02*
X14585000Y-16255000D01*
X14600000Y-15335000D02*
X14630000Y-15365000D01*
X14630000Y-15335000D02*
X14600000Y-15365000D01*
X14665595Y-15594950D02*
X14695595Y-15624950D01*
X14695595Y-15594950D02*
X14665595Y-15624950D01*
X14685000Y-15765000D02*
X14715000Y-15795000D01*
X14715000Y-15765000D02*
X14685000Y-15795000D01*
X14685000Y-16065000D02*
X14715000Y-16095000D01*
X14715000Y-16065000D02*
X14685000Y-16095000D01*
X14735000Y-16250000D02*
X14765000Y-16280000D01*
X14765000Y-16250000D02*
X14735000Y-16280000D01*
X14735545Y-15595000D02*
X14765545Y-15625000D01*
X14765545Y-15595000D02*
X14735545Y-15625000D01*
X14770000Y-15349950D02*
X14800000Y-15379950D01*
X14800000Y-15349950D02*
X14770000Y-15379950D01*
X14825000Y-15735000D02*
X14855000Y-15765000D01*
X14855000Y-15735000D02*
X14825000Y-15765000D01*
X14855000Y-15595000D02*
X14885000Y-15625000D01*
X14885000Y-15595000D02*
X14855000Y-15625000D01*
X14855000Y-16115000D02*
X14885000Y-16145000D01*
X14885000Y-16115000D02*
X14855000Y-16145000D01*
X14884950Y-15434400D02*
X14914950Y-15464400D01*
X14914950Y-15434400D02*
X14884950Y-15464400D01*
X14900000Y-15350000D02*
X14930000Y-15380000D01*
X14930000Y-15350000D02*
X14900000Y-15380000D01*
X15205000Y-16165000D02*
X15235000Y-16195000D01*
X15235000Y-16165000D02*
X15205000Y-16195000D01*
X15215000Y-15485000D02*
X15245000Y-15515000D01*
X15245000Y-15485000D02*
X15215000Y-15515000D01*
X15215000Y-16315000D02*
X15245000Y-16345000D01*
X15245000Y-16315000D02*
X15215000Y-16345000D01*
X15240000Y-16010000D02*
X15270000Y-16040000D01*
X15270000Y-16010000D02*
X15240000Y-16040000D01*
X15245000Y-15845000D02*
X15275000Y-15875000D01*
X15275000Y-15845000D02*
X15245000Y-15875000D01*
X15292500Y-15662500D02*
X15322500Y-15692500D01*
X15322500Y-15662500D02*
X15292500Y-15692500D01*
X15297500Y-16170000D02*
X15327500Y-16200000D01*
X15327500Y-16170000D02*
X15297500Y-16200000D01*
X15472500Y-15915000D02*
X15502500Y-15945000D01*
X15502500Y-15915000D02*
X15472500Y-15945000D01*
X15472500Y-16170000D02*
X15502500Y-16200000D01*
X15502500Y-16170000D02*
X15472500Y-16200000D01*
X15475000Y-15660454D02*
X15505000Y-15690454D01*
X15505000Y-15660454D02*
X15475000Y-15690454D01*
D13*
X14280000Y-15220000D02*
G75*
G03*
X14280000Y-15220000I-30000J0D01*
G01*
X14580000Y-15220000D02*
G75*
G03*
X14580000Y-15220000I-30000J0D01*
G01*
X14880000Y-15220000D02*
G75*
G03*
X14880000Y-15220000I-30000J0D01*
G01*
D14*
X13700000Y-15500000D02*
X13700000Y-15600000D01*
X13650000Y-15550000D02*
X13750000Y-15550000D01*
X13700000Y-15754000D02*
X13700000Y-15854000D01*
X13650000Y-15804000D02*
X13750000Y-15804000D01*
X13700000Y-16008000D02*
X13700000Y-16108000D01*
X13650000Y-16058000D02*
X13750000Y-16058000D01*
X13700000Y-16262000D02*
X13700000Y-16362000D01*
X13650000Y-16312000D02*
X13750000Y-16312000D01*
X15400000Y-15500000D02*
X15400000Y-15600000D01*
X15350000Y-15550000D02*
X15450000Y-15550000D01*
X15400000Y-15754000D02*
X15400000Y-15854000D01*
X15350000Y-15804000D02*
X15450000Y-15804000D01*
X15400000Y-16008000D02*
X15400000Y-16108000D01*
X15350000Y-16058000D02*
X15450000Y-16058000D01*
X15400000Y-16262000D02*
X15400000Y-16362000D01*
X15350000Y-16312000D02*
X15450000Y-16312000D01*
D11*
X13795119Y-16775024D02*
X13795119Y-16575024D01*
X13795119Y-16575024D02*
X13842738Y-16575024D01*
X13842738Y-16575024D02*
X13871309Y-16584548D01*
X13871309Y-16584548D02*
X13890357Y-16603595D01*
X13890357Y-16603595D02*
X13899881Y-16622643D01*
X13899881Y-16622643D02*
X13909405Y-16660738D01*
X13909405Y-16660738D02*
X13909405Y-16689309D01*
X13909405Y-16689309D02*
X13899881Y-16727405D01*
X13899881Y-16727405D02*
X13890357Y-16746452D01*
X13890357Y-16746452D02*
X13871309Y-16765500D01*
X13871309Y-16765500D02*
X13842738Y-16775024D01*
X13842738Y-16775024D02*
X13795119Y-16775024D01*
X13995119Y-16775024D02*
X13995119Y-16641690D01*
X13995119Y-16679786D02*
X14004643Y-16660738D01*
X14004643Y-16660738D02*
X14014167Y-16651214D01*
X14014167Y-16651214D02*
X14033214Y-16641690D01*
X14033214Y-16641690D02*
X14052262Y-16641690D01*
X14118928Y-16775024D02*
X14118928Y-16641690D01*
X14118928Y-16575024D02*
X14109405Y-16584548D01*
X14109405Y-16584548D02*
X14118928Y-16594071D01*
X14118928Y-16594071D02*
X14128452Y-16584548D01*
X14128452Y-16584548D02*
X14118928Y-16575024D01*
X14118928Y-16575024D02*
X14118928Y-16594071D01*
X14242738Y-16775024D02*
X14223690Y-16765500D01*
X14223690Y-16765500D02*
X14214167Y-16746452D01*
X14214167Y-16746452D02*
X14214167Y-16575024D01*
X14347500Y-16775024D02*
X14328452Y-16765500D01*
X14328452Y-16765500D02*
X14318928Y-16746452D01*
X14318928Y-16746452D02*
X14318928Y-16575024D01*
X14576071Y-16775024D02*
X14576071Y-16575024D01*
X14576071Y-16575024D02*
X14642738Y-16717881D01*
X14642738Y-16717881D02*
X14709405Y-16575024D01*
X14709405Y-16575024D02*
X14709405Y-16775024D01*
X14890357Y-16775024D02*
X14890357Y-16670262D01*
X14890357Y-16670262D02*
X14880833Y-16651214D01*
X14880833Y-16651214D02*
X14861786Y-16641690D01*
X14861786Y-16641690D02*
X14823690Y-16641690D01*
X14823690Y-16641690D02*
X14804643Y-16651214D01*
X14890357Y-16765500D02*
X14871309Y-16775024D01*
X14871309Y-16775024D02*
X14823690Y-16775024D01*
X14823690Y-16775024D02*
X14804643Y-16765500D01*
X14804643Y-16765500D02*
X14795119Y-16746452D01*
X14795119Y-16746452D02*
X14795119Y-16727405D01*
X14795119Y-16727405D02*
X14804643Y-16708357D01*
X14804643Y-16708357D02*
X14823690Y-16698833D01*
X14823690Y-16698833D02*
X14871309Y-16698833D01*
X14871309Y-16698833D02*
X14890357Y-16689309D01*
X14985595Y-16641690D02*
X14985595Y-16841690D01*
X14985595Y-16651214D02*
X15004643Y-16641690D01*
X15004643Y-16641690D02*
X15042738Y-16641690D01*
X15042738Y-16641690D02*
X15061786Y-16651214D01*
X15061786Y-16651214D02*
X15071309Y-16660738D01*
X15071309Y-16660738D02*
X15080833Y-16679786D01*
X15080833Y-16679786D02*
X15080833Y-16736928D01*
X15080833Y-16736928D02*
X15071309Y-16755976D01*
X15071309Y-16755976D02*
X15061786Y-16765500D01*
X15061786Y-16765500D02*
X15042738Y-16775024D01*
X15042738Y-16775024D02*
X15004643Y-16775024D01*
X15004643Y-16775024D02*
X14985595Y-16765500D01*
X15166548Y-16755976D02*
X15176071Y-16765500D01*
X15176071Y-16765500D02*
X15166548Y-16775024D01*
X15166548Y-16775024D02*
X15157024Y-16765500D01*
X15157024Y-16765500D02*
X15166548Y-16755976D01*
X15166548Y-16755976D02*
X15166548Y-16775024D01*
X15166548Y-16651214D02*
X15176071Y-16660738D01*
X15176071Y-16660738D02*
X15166548Y-16670262D01*
X15166548Y-16670262D02*
X15157024Y-16660738D01*
X15157024Y-16660738D02*
X15166548Y-16651214D01*
X15166548Y-16651214D02*
X15166548Y-16670262D01*
D12*
X13517500Y-17087500D02*
X13547500Y-17117500D01*
X13547500Y-17087500D02*
X13517500Y-17117500D01*
D11*
X13833214Y-16995024D02*
X13852262Y-16995024D01*
X13852262Y-16995024D02*
X13871309Y-17004548D01*
X13871309Y-17004548D02*
X13880833Y-17014071D01*
X13880833Y-17014071D02*
X13890357Y-17033119D01*
X13890357Y-17033119D02*
X13899881Y-17071214D01*
X13899881Y-17071214D02*
X13899881Y-17118833D01*
X13899881Y-17118833D02*
X13890357Y-17156929D01*
X13890357Y-17156929D02*
X13880833Y-17175976D01*
X13880833Y-17175976D02*
X13871309Y-17185500D01*
X13871309Y-17185500D02*
X13852262Y-17195024D01*
X13852262Y-17195024D02*
X13833214Y-17195024D01*
X13833214Y-17195024D02*
X13814167Y-17185500D01*
X13814167Y-17185500D02*
X13804643Y-17175976D01*
X13804643Y-17175976D02*
X13795119Y-17156929D01*
X13795119Y-17156929D02*
X13785595Y-17118833D01*
X13785595Y-17118833D02*
X13785595Y-17071214D01*
X13785595Y-17071214D02*
X13795119Y-17033119D01*
X13795119Y-17033119D02*
X13804643Y-17014071D01*
X13804643Y-17014071D02*
X13814167Y-17004548D01*
X13814167Y-17004548D02*
X13833214Y-16995024D01*
X13985595Y-17175976D02*
X13995119Y-17185500D01*
X13995119Y-17185500D02*
X13985595Y-17195024D01*
X13985595Y-17195024D02*
X13976071Y-17185500D01*
X13976071Y-17185500D02*
X13985595Y-17175976D01*
X13985595Y-17175976D02*
X13985595Y-17195024D01*
X14061786Y-16995024D02*
X14185595Y-16995024D01*
X14185595Y-16995024D02*
X14118928Y-17071214D01*
X14118928Y-17071214D02*
X14147500Y-17071214D01*
X14147500Y-17071214D02*
X14166548Y-17080738D01*
X14166548Y-17080738D02*
X14176071Y-17090262D01*
X14176071Y-17090262D02*
X14185595Y-17109310D01*
X14185595Y-17109310D02*
X14185595Y-17156929D01*
X14185595Y-17156929D02*
X14176071Y-17175976D01*
X14176071Y-17175976D02*
X14166548Y-17185500D01*
X14166548Y-17185500D02*
X14147500Y-17195024D01*
X14147500Y-17195024D02*
X14090357Y-17195024D01*
X14090357Y-17195024D02*
X14071309Y-17185500D01*
X14071309Y-17185500D02*
X14061786Y-17175976D01*
X14309405Y-16995024D02*
X14328452Y-16995024D01*
X14328452Y-16995024D02*
X14347500Y-17004548D01*
X14347500Y-17004548D02*
X14357024Y-17014071D01*
X14357024Y-17014071D02*
X14366548Y-17033119D01*
X14366548Y-17033119D02*
X14376071Y-17071214D01*
X14376071Y-17071214D02*
X14376071Y-17118833D01*
X14376071Y-17118833D02*
X14366548Y-17156929D01*
X14366548Y-17156929D02*
X14357024Y-17175976D01*
X14357024Y-17175976D02*
X14347500Y-17185500D01*
X14347500Y-17185500D02*
X14328452Y-17195024D01*
X14328452Y-17195024D02*
X14309405Y-17195024D01*
X14309405Y-17195024D02*
X14290357Y-17185500D01*
X14290357Y-17185500D02*
X14280833Y-17175976D01*
X14280833Y-17175976D02*
X14271309Y-17156929D01*
X14271309Y-17156929D02*
X14261786Y-17118833D01*
X14261786Y-17118833D02*
X14261786Y-17071214D01*
X14261786Y-17071214D02*
X14271309Y-17033119D01*
X14271309Y-17033119D02*
X14280833Y-17014071D01*
X14280833Y-17014071D02*
X14290357Y-17004548D01*
X14290357Y-17004548D02*
X14309405Y-16995024D01*
X14499881Y-16995024D02*
X14518929Y-16995024D01*
X14518929Y-16995024D02*
X14537976Y-17004548D01*
X14537976Y-17004548D02*
X14547500Y-17014071D01*
X14547500Y-17014071D02*
X14557024Y-17033119D01*
X14557024Y-17033119D02*
X14566548Y-17071214D01*
X14566548Y-17071214D02*
X14566548Y-17118833D01*
X14566548Y-17118833D02*
X14557024Y-17156929D01*
X14557024Y-17156929D02*
X14547500Y-17175976D01*
X14547500Y-17175976D02*
X14537976Y-17185500D01*
X14537976Y-17185500D02*
X14518929Y-17195024D01*
X14518929Y-17195024D02*
X14499881Y-17195024D01*
X14499881Y-17195024D02*
X14480833Y-17185500D01*
X14480833Y-17185500D02*
X14471309Y-17175976D01*
X14471309Y-17175976D02*
X14461786Y-17156929D01*
X14461786Y-17156929D02*
X14452262Y-17118833D01*
X14452262Y-17118833D02*
X14452262Y-17071214D01*
X14452262Y-17071214D02*
X14461786Y-17033119D01*
X14461786Y-17033119D02*
X14471309Y-17014071D01*
X14471309Y-17014071D02*
X14480833Y-17004548D01*
X14480833Y-17004548D02*
X14499881Y-16995024D01*
X14652262Y-17195024D02*
X14652262Y-17061690D01*
X14652262Y-17080738D02*
X14661786Y-17071214D01*
X14661786Y-17071214D02*
X14680833Y-17061690D01*
X14680833Y-17061690D02*
X14709405Y-17061690D01*
X14709405Y-17061690D02*
X14728452Y-17071214D01*
X14728452Y-17071214D02*
X14737976Y-17090262D01*
X14737976Y-17090262D02*
X14737976Y-17195024D01*
X14737976Y-17090262D02*
X14747500Y-17071214D01*
X14747500Y-17071214D02*
X14766548Y-17061690D01*
X14766548Y-17061690D02*
X14795119Y-17061690D01*
X14795119Y-17061690D02*
X14814167Y-17071214D01*
X14814167Y-17071214D02*
X14823690Y-17090262D01*
X14823690Y-17090262D02*
X14823690Y-17195024D01*
X14918929Y-17195024D02*
X14918929Y-17061690D01*
X14918929Y-17080738D02*
X14928452Y-17071214D01*
X14928452Y-17071214D02*
X14947500Y-17061690D01*
X14947500Y-17061690D02*
X14976071Y-17061690D01*
X14976071Y-17061690D02*
X14995119Y-17071214D01*
X14995119Y-17071214D02*
X15004643Y-17090262D01*
X15004643Y-17090262D02*
X15004643Y-17195024D01*
X15004643Y-17090262D02*
X15014167Y-17071214D01*
X15014167Y-17071214D02*
X15033214Y-17061690D01*
X15033214Y-17061690D02*
X15061786Y-17061690D01*
X15061786Y-17061690D02*
X15080833Y-17071214D01*
X15080833Y-17071214D02*
X15090357Y-17090262D01*
X15090357Y-17090262D02*
X15090357Y-17195024D01*
X15480833Y-16985500D02*
X15309405Y-17242643D01*
X15737976Y-16995024D02*
X15757024Y-16995024D01*
X15757024Y-16995024D02*
X15776072Y-17004548D01*
X15776072Y-17004548D02*
X15785595Y-17014071D01*
X15785595Y-17014071D02*
X15795119Y-17033119D01*
X15795119Y-17033119D02*
X15804643Y-17071214D01*
X15804643Y-17071214D02*
X15804643Y-17118833D01*
X15804643Y-17118833D02*
X15795119Y-17156929D01*
X15795119Y-17156929D02*
X15785595Y-17175976D01*
X15785595Y-17175976D02*
X15776072Y-17185500D01*
X15776072Y-17185500D02*
X15757024Y-17195024D01*
X15757024Y-17195024D02*
X15737976Y-17195024D01*
X15737976Y-17195024D02*
X15718929Y-17185500D01*
X15718929Y-17185500D02*
X15709405Y-17175976D01*
X15709405Y-17175976D02*
X15699881Y-17156929D01*
X15699881Y-17156929D02*
X15690357Y-17118833D01*
X15690357Y-17118833D02*
X15690357Y-17071214D01*
X15690357Y-17071214D02*
X15699881Y-17033119D01*
X15699881Y-17033119D02*
X15709405Y-17014071D01*
X15709405Y-17014071D02*
X15718929Y-17004548D01*
X15718929Y-17004548D02*
X15737976Y-16995024D01*
X15890357Y-17175976D02*
X15899881Y-17185500D01*
X15899881Y-17185500D02*
X15890357Y-17195024D01*
X15890357Y-17195024D02*
X15880833Y-17185500D01*
X15880833Y-17185500D02*
X15890357Y-17175976D01*
X15890357Y-17175976D02*
X15890357Y-17195024D01*
X16023691Y-16995024D02*
X16042738Y-16995024D01*
X16042738Y-16995024D02*
X16061786Y-17004548D01*
X16061786Y-17004548D02*
X16071310Y-17014071D01*
X16071310Y-17014071D02*
X16080833Y-17033119D01*
X16080833Y-17033119D02*
X16090357Y-17071214D01*
X16090357Y-17071214D02*
X16090357Y-17118833D01*
X16090357Y-17118833D02*
X16080833Y-17156929D01*
X16080833Y-17156929D02*
X16071310Y-17175976D01*
X16071310Y-17175976D02*
X16061786Y-17185500D01*
X16061786Y-17185500D02*
X16042738Y-17195024D01*
X16042738Y-17195024D02*
X16023691Y-17195024D01*
X16023691Y-17195024D02*
X16004643Y-17185500D01*
X16004643Y-17185500D02*
X15995119Y-17175976D01*
X15995119Y-17175976D02*
X15985595Y-17156929D01*
X15985595Y-17156929D02*
X15976072Y-17118833D01*
X15976072Y-17118833D02*
X15976072Y-17071214D01*
X15976072Y-17071214D02*
X15985595Y-17033119D01*
X15985595Y-17033119D02*
X15995119Y-17014071D01*
X15995119Y-17014071D02*
X16004643Y-17004548D01*
X16004643Y-17004548D02*
X16023691Y-16995024D01*
X16280833Y-17195024D02*
X16166548Y-17195024D01*
X16223691Y-17195024D02*
X16223691Y-16995024D01*
X16223691Y-16995024D02*
X16204643Y-17023595D01*
X16204643Y-17023595D02*
X16185595Y-17042643D01*
X16185595Y-17042643D02*
X16166548Y-17052167D01*
X16471310Y-17195024D02*
X16357024Y-17195024D01*
X16414167Y-17195024D02*
X16414167Y-16995024D01*
X16414167Y-16995024D02*
X16395119Y-17023595D01*
X16395119Y-17023595D02*
X16376072Y-17042643D01*
X16376072Y-17042643D02*
X16357024Y-17052167D01*
X16585595Y-17080738D02*
X16566548Y-17071214D01*
X16566548Y-17071214D02*
X16557024Y-17061690D01*
X16557024Y-17061690D02*
X16547500Y-17042643D01*
X16547500Y-17042643D02*
X16547500Y-17033119D01*
X16547500Y-17033119D02*
X16557024Y-17014071D01*
X16557024Y-17014071D02*
X16566548Y-17004548D01*
X16566548Y-17004548D02*
X16585595Y-16995024D01*
X16585595Y-16995024D02*
X16623691Y-16995024D01*
X16623691Y-16995024D02*
X16642738Y-17004548D01*
X16642738Y-17004548D02*
X16652262Y-17014071D01*
X16652262Y-17014071D02*
X16661786Y-17033119D01*
X16661786Y-17033119D02*
X16661786Y-17042643D01*
X16661786Y-17042643D02*
X16652262Y-17061690D01*
X16652262Y-17061690D02*
X16642738Y-17071214D01*
X16642738Y-17071214D02*
X16623691Y-17080738D01*
X16623691Y-17080738D02*
X16585595Y-17080738D01*
X16585595Y-17080738D02*
X16566548Y-17090262D01*
X16566548Y-17090262D02*
X16557024Y-17099786D01*
X16557024Y-17099786D02*
X16547500Y-17118833D01*
X16547500Y-17118833D02*
X16547500Y-17156929D01*
X16547500Y-17156929D02*
X16557024Y-17175976D01*
X16557024Y-17175976D02*
X16566548Y-17185500D01*
X16566548Y-17185500D02*
X16585595Y-17195024D01*
X16585595Y-17195024D02*
X16623691Y-17195024D01*
X16623691Y-17195024D02*
X16642738Y-17185500D01*
X16642738Y-17185500D02*
X16652262Y-17175976D01*
X16652262Y-17175976D02*
X16661786Y-17156929D01*
X16661786Y-17156929D02*
X16661786Y-17118833D01*
X16661786Y-17118833D02*
X16652262Y-17099786D01*
X16652262Y-17099786D02*
X16642738Y-17090262D01*
X16642738Y-17090262D02*
X16623691Y-17080738D01*
X16737976Y-16995024D02*
X16737976Y-17033119D01*
X16814167Y-16995024D02*
X16814167Y-17033119D01*
X17109405Y-17271214D02*
X17099881Y-17261690D01*
X17099881Y-17261690D02*
X17080834Y-17233119D01*
X17080834Y-17233119D02*
X17071310Y-17214071D01*
X17071310Y-17214071D02*
X17061786Y-17185500D01*
X17061786Y-17185500D02*
X17052262Y-17137881D01*
X17052262Y-17137881D02*
X17052262Y-17099786D01*
X17052262Y-17099786D02*
X17061786Y-17052167D01*
X17061786Y-17052167D02*
X17071310Y-17023595D01*
X17071310Y-17023595D02*
X17080834Y-17004548D01*
X17080834Y-17004548D02*
X17099881Y-16975976D01*
X17099881Y-16975976D02*
X17109405Y-16966452D01*
X17280834Y-16995024D02*
X17185596Y-16995024D01*
X17185596Y-16995024D02*
X17176072Y-17090262D01*
X17176072Y-17090262D02*
X17185596Y-17080738D01*
X17185596Y-17080738D02*
X17204643Y-17071214D01*
X17204643Y-17071214D02*
X17252262Y-17071214D01*
X17252262Y-17071214D02*
X17271310Y-17080738D01*
X17271310Y-17080738D02*
X17280834Y-17090262D01*
X17280834Y-17090262D02*
X17290357Y-17109310D01*
X17290357Y-17109310D02*
X17290357Y-17156929D01*
X17290357Y-17156929D02*
X17280834Y-17175976D01*
X17280834Y-17175976D02*
X17271310Y-17185500D01*
X17271310Y-17185500D02*
X17252262Y-17195024D01*
X17252262Y-17195024D02*
X17204643Y-17195024D01*
X17204643Y-17195024D02*
X17185596Y-17185500D01*
X17185596Y-17185500D02*
X17176072Y-17175976D01*
X17366548Y-17014071D02*
X17376072Y-17004548D01*
X17376072Y-17004548D02*
X17395119Y-16995024D01*
X17395119Y-16995024D02*
X17442738Y-16995024D01*
X17442738Y-16995024D02*
X17461786Y-17004548D01*
X17461786Y-17004548D02*
X17471310Y-17014071D01*
X17471310Y-17014071D02*
X17480834Y-17033119D01*
X17480834Y-17033119D02*
X17480834Y-17052167D01*
X17480834Y-17052167D02*
X17471310Y-17080738D01*
X17471310Y-17080738D02*
X17357024Y-17195024D01*
X17357024Y-17195024D02*
X17480834Y-17195024D01*
X17718929Y-17195024D02*
X17718929Y-16995024D01*
X17804643Y-17195024D02*
X17804643Y-17090262D01*
X17804643Y-17090262D02*
X17795119Y-17071214D01*
X17795119Y-17071214D02*
X17776072Y-17061690D01*
X17776072Y-17061690D02*
X17747500Y-17061690D01*
X17747500Y-17061690D02*
X17728453Y-17071214D01*
X17728453Y-17071214D02*
X17718929Y-17080738D01*
X17928453Y-17195024D02*
X17909405Y-17185500D01*
X17909405Y-17185500D02*
X17899881Y-17175976D01*
X17899881Y-17175976D02*
X17890358Y-17156929D01*
X17890358Y-17156929D02*
X17890358Y-17099786D01*
X17890358Y-17099786D02*
X17899881Y-17080738D01*
X17899881Y-17080738D02*
X17909405Y-17071214D01*
X17909405Y-17071214D02*
X17928453Y-17061690D01*
X17928453Y-17061690D02*
X17957024Y-17061690D01*
X17957024Y-17061690D02*
X17976072Y-17071214D01*
X17976072Y-17071214D02*
X17985596Y-17080738D01*
X17985596Y-17080738D02*
X17995119Y-17099786D01*
X17995119Y-17099786D02*
X17995119Y-17156929D01*
X17995119Y-17156929D02*
X17985596Y-17175976D01*
X17985596Y-17175976D02*
X17976072Y-17185500D01*
X17976072Y-17185500D02*
X17957024Y-17195024D01*
X17957024Y-17195024D02*
X17928453Y-17195024D01*
X18109405Y-17195024D02*
X18090358Y-17185500D01*
X18090358Y-17185500D02*
X18080834Y-17166452D01*
X18080834Y-17166452D02*
X18080834Y-16995024D01*
X18261786Y-17185500D02*
X18242739Y-17195024D01*
X18242739Y-17195024D02*
X18204643Y-17195024D01*
X18204643Y-17195024D02*
X18185596Y-17185500D01*
X18185596Y-17185500D02*
X18176072Y-17166452D01*
X18176072Y-17166452D02*
X18176072Y-17090262D01*
X18176072Y-17090262D02*
X18185596Y-17071214D01*
X18185596Y-17071214D02*
X18204643Y-17061690D01*
X18204643Y-17061690D02*
X18242739Y-17061690D01*
X18242739Y-17061690D02*
X18261786Y-17071214D01*
X18261786Y-17071214D02*
X18271310Y-17090262D01*
X18271310Y-17090262D02*
X18271310Y-17109310D01*
X18271310Y-17109310D02*
X18176072Y-17128357D01*
X18347500Y-17185500D02*
X18366548Y-17195024D01*
X18366548Y-17195024D02*
X18404643Y-17195024D01*
X18404643Y-17195024D02*
X18423691Y-17185500D01*
X18423691Y-17185500D02*
X18433215Y-17166452D01*
X18433215Y-17166452D02*
X18433215Y-17156929D01*
X18433215Y-17156929D02*
X18423691Y-17137881D01*
X18423691Y-17137881D02*
X18404643Y-17128357D01*
X18404643Y-17128357D02*
X18376072Y-17128357D01*
X18376072Y-17128357D02*
X18357024Y-17118833D01*
X18357024Y-17118833D02*
X18347500Y-17099786D01*
X18347500Y-17099786D02*
X18347500Y-17090262D01*
X18347500Y-17090262D02*
X18357024Y-17071214D01*
X18357024Y-17071214D02*
X18376072Y-17061690D01*
X18376072Y-17061690D02*
X18404643Y-17061690D01*
X18404643Y-17061690D02*
X18423691Y-17071214D01*
X18499881Y-17271214D02*
X18509405Y-17261690D01*
X18509405Y-17261690D02*
X18528453Y-17233119D01*
X18528453Y-17233119D02*
X18537977Y-17214071D01*
X18537977Y-17214071D02*
X18547500Y-17185500D01*
X18547500Y-17185500D02*
X18557024Y-17137881D01*
X18557024Y-17137881D02*
X18557024Y-17099786D01*
X18557024Y-17099786D02*
X18547500Y-17052167D01*
X18547500Y-17052167D02*
X18537977Y-17023595D01*
X18537977Y-17023595D02*
X18528453Y-17004548D01*
X18528453Y-17004548D02*
X18509405Y-16975976D01*
X18509405Y-16975976D02*
X18499881Y-16966452D01*
D13*
X13547500Y-17366500D02*
G75*
G03*
X13547500Y-17366500I-30000J0D01*
G01*
D11*
X13833214Y-17259024D02*
X13852262Y-17259024D01*
X13852262Y-17259024D02*
X13871309Y-17268548D01*
X13871309Y-17268548D02*
X13880833Y-17278071D01*
X13880833Y-17278071D02*
X13890357Y-17297119D01*
X13890357Y-17297119D02*
X13899881Y-17335214D01*
X13899881Y-17335214D02*
X13899881Y-17382833D01*
X13899881Y-17382833D02*
X13890357Y-17420929D01*
X13890357Y-17420929D02*
X13880833Y-17439976D01*
X13880833Y-17439976D02*
X13871309Y-17449500D01*
X13871309Y-17449500D02*
X13852262Y-17459024D01*
X13852262Y-17459024D02*
X13833214Y-17459024D01*
X13833214Y-17459024D02*
X13814167Y-17449500D01*
X13814167Y-17449500D02*
X13804643Y-17439976D01*
X13804643Y-17439976D02*
X13795119Y-17420929D01*
X13795119Y-17420929D02*
X13785595Y-17382833D01*
X13785595Y-17382833D02*
X13785595Y-17335214D01*
X13785595Y-17335214D02*
X13795119Y-17297119D01*
X13795119Y-17297119D02*
X13804643Y-17278071D01*
X13804643Y-17278071D02*
X13814167Y-17268548D01*
X13814167Y-17268548D02*
X13833214Y-17259024D01*
X13985595Y-17439976D02*
X13995119Y-17449500D01*
X13995119Y-17449500D02*
X13985595Y-17459024D01*
X13985595Y-17459024D02*
X13976071Y-17449500D01*
X13976071Y-17449500D02*
X13985595Y-17439976D01*
X13985595Y-17439976D02*
X13985595Y-17459024D01*
X14166548Y-17259024D02*
X14128452Y-17259024D01*
X14128452Y-17259024D02*
X14109405Y-17268548D01*
X14109405Y-17268548D02*
X14099881Y-17278071D01*
X14099881Y-17278071D02*
X14080833Y-17306643D01*
X14080833Y-17306643D02*
X14071309Y-17344738D01*
X14071309Y-17344738D02*
X14071309Y-17420929D01*
X14071309Y-17420929D02*
X14080833Y-17439976D01*
X14080833Y-17439976D02*
X14090357Y-17449500D01*
X14090357Y-17449500D02*
X14109405Y-17459024D01*
X14109405Y-17459024D02*
X14147500Y-17459024D01*
X14147500Y-17459024D02*
X14166548Y-17449500D01*
X14166548Y-17449500D02*
X14176071Y-17439976D01*
X14176071Y-17439976D02*
X14185595Y-17420929D01*
X14185595Y-17420929D02*
X14185595Y-17373310D01*
X14185595Y-17373310D02*
X14176071Y-17354262D01*
X14176071Y-17354262D02*
X14166548Y-17344738D01*
X14166548Y-17344738D02*
X14147500Y-17335214D01*
X14147500Y-17335214D02*
X14109405Y-17335214D01*
X14109405Y-17335214D02*
X14090357Y-17344738D01*
X14090357Y-17344738D02*
X14080833Y-17354262D01*
X14080833Y-17354262D02*
X14071309Y-17373310D01*
X14309405Y-17259024D02*
X14328452Y-17259024D01*
X14328452Y-17259024D02*
X14347500Y-17268548D01*
X14347500Y-17268548D02*
X14357024Y-17278071D01*
X14357024Y-17278071D02*
X14366548Y-17297119D01*
X14366548Y-17297119D02*
X14376071Y-17335214D01*
X14376071Y-17335214D02*
X14376071Y-17382833D01*
X14376071Y-17382833D02*
X14366548Y-17420929D01*
X14366548Y-17420929D02*
X14357024Y-17439976D01*
X14357024Y-17439976D02*
X14347500Y-17449500D01*
X14347500Y-17449500D02*
X14328452Y-17459024D01*
X14328452Y-17459024D02*
X14309405Y-17459024D01*
X14309405Y-17459024D02*
X14290357Y-17449500D01*
X14290357Y-17449500D02*
X14280833Y-17439976D01*
X14280833Y-17439976D02*
X14271309Y-17420929D01*
X14271309Y-17420929D02*
X14261786Y-17382833D01*
X14261786Y-17382833D02*
X14261786Y-17335214D01*
X14261786Y-17335214D02*
X14271309Y-17297119D01*
X14271309Y-17297119D02*
X14280833Y-17278071D01*
X14280833Y-17278071D02*
X14290357Y-17268548D01*
X14290357Y-17268548D02*
X14309405Y-17259024D01*
X14499881Y-17259024D02*
X14518929Y-17259024D01*
X14518929Y-17259024D02*
X14537976Y-17268548D01*
X14537976Y-17268548D02*
X14547500Y-17278071D01*
X14547500Y-17278071D02*
X14557024Y-17297119D01*
X14557024Y-17297119D02*
X14566548Y-17335214D01*
X14566548Y-17335214D02*
X14566548Y-17382833D01*
X14566548Y-17382833D02*
X14557024Y-17420929D01*
X14557024Y-17420929D02*
X14547500Y-17439976D01*
X14547500Y-17439976D02*
X14537976Y-17449500D01*
X14537976Y-17449500D02*
X14518929Y-17459024D01*
X14518929Y-17459024D02*
X14499881Y-17459024D01*
X14499881Y-17459024D02*
X14480833Y-17449500D01*
X14480833Y-17449500D02*
X14471309Y-17439976D01*
X14471309Y-17439976D02*
X14461786Y-17420929D01*
X14461786Y-17420929D02*
X14452262Y-17382833D01*
X14452262Y-17382833D02*
X14452262Y-17335214D01*
X14452262Y-17335214D02*
X14461786Y-17297119D01*
X14461786Y-17297119D02*
X14471309Y-17278071D01*
X14471309Y-17278071D02*
X14480833Y-17268548D01*
X14480833Y-17268548D02*
X14499881Y-17259024D01*
X14652262Y-17459024D02*
X14652262Y-17325690D01*
X14652262Y-17344738D02*
X14661786Y-17335214D01*
X14661786Y-17335214D02*
X14680833Y-17325690D01*
X14680833Y-17325690D02*
X14709405Y-17325690D01*
X14709405Y-17325690D02*
X14728452Y-17335214D01*
X14728452Y-17335214D02*
X14737976Y-17354262D01*
X14737976Y-17354262D02*
X14737976Y-17459024D01*
X14737976Y-17354262D02*
X14747500Y-17335214D01*
X14747500Y-17335214D02*
X14766548Y-17325690D01*
X14766548Y-17325690D02*
X14795119Y-17325690D01*
X14795119Y-17325690D02*
X14814167Y-17335214D01*
X14814167Y-17335214D02*
X14823690Y-17354262D01*
X14823690Y-17354262D02*
X14823690Y-17459024D01*
X14918929Y-17459024D02*
X14918929Y-17325690D01*
X14918929Y-17344738D02*
X14928452Y-17335214D01*
X14928452Y-17335214D02*
X14947500Y-17325690D01*
X14947500Y-17325690D02*
X14976071Y-17325690D01*
X14976071Y-17325690D02*
X14995119Y-17335214D01*
X14995119Y-17335214D02*
X15004643Y-17354262D01*
X15004643Y-17354262D02*
X15004643Y-17459024D01*
X15004643Y-17354262D02*
X15014167Y-17335214D01*
X15014167Y-17335214D02*
X15033214Y-17325690D01*
X15033214Y-17325690D02*
X15061786Y-17325690D01*
X15061786Y-17325690D02*
X15080833Y-17335214D01*
X15080833Y-17335214D02*
X15090357Y-17354262D01*
X15090357Y-17354262D02*
X15090357Y-17459024D01*
X15480833Y-17249500D02*
X15309405Y-17506643D01*
X15737976Y-17259024D02*
X15757024Y-17259024D01*
X15757024Y-17259024D02*
X15776072Y-17268548D01*
X15776072Y-17268548D02*
X15785595Y-17278071D01*
X15785595Y-17278071D02*
X15795119Y-17297119D01*
X15795119Y-17297119D02*
X15804643Y-17335214D01*
X15804643Y-17335214D02*
X15804643Y-17382833D01*
X15804643Y-17382833D02*
X15795119Y-17420929D01*
X15795119Y-17420929D02*
X15785595Y-17439976D01*
X15785595Y-17439976D02*
X15776072Y-17449500D01*
X15776072Y-17449500D02*
X15757024Y-17459024D01*
X15757024Y-17459024D02*
X15737976Y-17459024D01*
X15737976Y-17459024D02*
X15718929Y-17449500D01*
X15718929Y-17449500D02*
X15709405Y-17439976D01*
X15709405Y-17439976D02*
X15699881Y-17420929D01*
X15699881Y-17420929D02*
X15690357Y-17382833D01*
X15690357Y-17382833D02*
X15690357Y-17335214D01*
X15690357Y-17335214D02*
X15699881Y-17297119D01*
X15699881Y-17297119D02*
X15709405Y-17278071D01*
X15709405Y-17278071D02*
X15718929Y-17268548D01*
X15718929Y-17268548D02*
X15737976Y-17259024D01*
X15890357Y-17439976D02*
X15899881Y-17449500D01*
X15899881Y-17449500D02*
X15890357Y-17459024D01*
X15890357Y-17459024D02*
X15880833Y-17449500D01*
X15880833Y-17449500D02*
X15890357Y-17439976D01*
X15890357Y-17439976D02*
X15890357Y-17459024D01*
X16023691Y-17259024D02*
X16042738Y-17259024D01*
X16042738Y-17259024D02*
X16061786Y-17268548D01*
X16061786Y-17268548D02*
X16071310Y-17278071D01*
X16071310Y-17278071D02*
X16080833Y-17297119D01*
X16080833Y-17297119D02*
X16090357Y-17335214D01*
X16090357Y-17335214D02*
X16090357Y-17382833D01*
X16090357Y-17382833D02*
X16080833Y-17420929D01*
X16080833Y-17420929D02*
X16071310Y-17439976D01*
X16071310Y-17439976D02*
X16061786Y-17449500D01*
X16061786Y-17449500D02*
X16042738Y-17459024D01*
X16042738Y-17459024D02*
X16023691Y-17459024D01*
X16023691Y-17459024D02*
X16004643Y-17449500D01*
X16004643Y-17449500D02*
X15995119Y-17439976D01*
X15995119Y-17439976D02*
X15985595Y-17420929D01*
X15985595Y-17420929D02*
X15976072Y-17382833D01*
X15976072Y-17382833D02*
X15976072Y-17335214D01*
X15976072Y-17335214D02*
X15985595Y-17297119D01*
X15985595Y-17297119D02*
X15995119Y-17278071D01*
X15995119Y-17278071D02*
X16004643Y-17268548D01*
X16004643Y-17268548D02*
X16023691Y-17259024D01*
X16166548Y-17278071D02*
X16176072Y-17268548D01*
X16176072Y-17268548D02*
X16195119Y-17259024D01*
X16195119Y-17259024D02*
X16242738Y-17259024D01*
X16242738Y-17259024D02*
X16261786Y-17268548D01*
X16261786Y-17268548D02*
X16271310Y-17278071D01*
X16271310Y-17278071D02*
X16280833Y-17297119D01*
X16280833Y-17297119D02*
X16280833Y-17316167D01*
X16280833Y-17316167D02*
X16271310Y-17344738D01*
X16271310Y-17344738D02*
X16157024Y-17459024D01*
X16157024Y-17459024D02*
X16280833Y-17459024D01*
X16347500Y-17259024D02*
X16471310Y-17259024D01*
X16471310Y-17259024D02*
X16404643Y-17335214D01*
X16404643Y-17335214D02*
X16433214Y-17335214D01*
X16433214Y-17335214D02*
X16452262Y-17344738D01*
X16452262Y-17344738D02*
X16461786Y-17354262D01*
X16461786Y-17354262D02*
X16471310Y-17373310D01*
X16471310Y-17373310D02*
X16471310Y-17420929D01*
X16471310Y-17420929D02*
X16461786Y-17439976D01*
X16461786Y-17439976D02*
X16452262Y-17449500D01*
X16452262Y-17449500D02*
X16433214Y-17459024D01*
X16433214Y-17459024D02*
X16376072Y-17459024D01*
X16376072Y-17459024D02*
X16357024Y-17449500D01*
X16357024Y-17449500D02*
X16347500Y-17439976D01*
X16642738Y-17259024D02*
X16604643Y-17259024D01*
X16604643Y-17259024D02*
X16585595Y-17268548D01*
X16585595Y-17268548D02*
X16576072Y-17278071D01*
X16576072Y-17278071D02*
X16557024Y-17306643D01*
X16557024Y-17306643D02*
X16547500Y-17344738D01*
X16547500Y-17344738D02*
X16547500Y-17420929D01*
X16547500Y-17420929D02*
X16557024Y-17439976D01*
X16557024Y-17439976D02*
X16566548Y-17449500D01*
X16566548Y-17449500D02*
X16585595Y-17459024D01*
X16585595Y-17459024D02*
X16623691Y-17459024D01*
X16623691Y-17459024D02*
X16642738Y-17449500D01*
X16642738Y-17449500D02*
X16652262Y-17439976D01*
X16652262Y-17439976D02*
X16661786Y-17420929D01*
X16661786Y-17420929D02*
X16661786Y-17373310D01*
X16661786Y-17373310D02*
X16652262Y-17354262D01*
X16652262Y-17354262D02*
X16642738Y-17344738D01*
X16642738Y-17344738D02*
X16623691Y-17335214D01*
X16623691Y-17335214D02*
X16585595Y-17335214D01*
X16585595Y-17335214D02*
X16566548Y-17344738D01*
X16566548Y-17344738D02*
X16557024Y-17354262D01*
X16557024Y-17354262D02*
X16547500Y-17373310D01*
X16737976Y-17259024D02*
X16737976Y-17297119D01*
X16814167Y-17259024D02*
X16814167Y-17297119D01*
X17109405Y-17535214D02*
X17099881Y-17525690D01*
X17099881Y-17525690D02*
X17080834Y-17497119D01*
X17080834Y-17497119D02*
X17071310Y-17478071D01*
X17071310Y-17478071D02*
X17061786Y-17449500D01*
X17061786Y-17449500D02*
X17052262Y-17401881D01*
X17052262Y-17401881D02*
X17052262Y-17363786D01*
X17052262Y-17363786D02*
X17061786Y-17316167D01*
X17061786Y-17316167D02*
X17071310Y-17287595D01*
X17071310Y-17287595D02*
X17080834Y-17268548D01*
X17080834Y-17268548D02*
X17099881Y-17239976D01*
X17099881Y-17239976D02*
X17109405Y-17230452D01*
X17166548Y-17259024D02*
X17290357Y-17259024D01*
X17290357Y-17259024D02*
X17223691Y-17335214D01*
X17223691Y-17335214D02*
X17252262Y-17335214D01*
X17252262Y-17335214D02*
X17271310Y-17344738D01*
X17271310Y-17344738D02*
X17280834Y-17354262D01*
X17280834Y-17354262D02*
X17290357Y-17373310D01*
X17290357Y-17373310D02*
X17290357Y-17420929D01*
X17290357Y-17420929D02*
X17280834Y-17439976D01*
X17280834Y-17439976D02*
X17271310Y-17449500D01*
X17271310Y-17449500D02*
X17252262Y-17459024D01*
X17252262Y-17459024D02*
X17195119Y-17459024D01*
X17195119Y-17459024D02*
X17176072Y-17449500D01*
X17176072Y-17449500D02*
X17166548Y-17439976D01*
X17528453Y-17459024D02*
X17528453Y-17259024D01*
X17614167Y-17459024D02*
X17614167Y-17354262D01*
X17614167Y-17354262D02*
X17604643Y-17335214D01*
X17604643Y-17335214D02*
X17585596Y-17325690D01*
X17585596Y-17325690D02*
X17557024Y-17325690D01*
X17557024Y-17325690D02*
X17537977Y-17335214D01*
X17537977Y-17335214D02*
X17528453Y-17344738D01*
X17737977Y-17459024D02*
X17718929Y-17449500D01*
X17718929Y-17449500D02*
X17709405Y-17439976D01*
X17709405Y-17439976D02*
X17699881Y-17420929D01*
X17699881Y-17420929D02*
X17699881Y-17363786D01*
X17699881Y-17363786D02*
X17709405Y-17344738D01*
X17709405Y-17344738D02*
X17718929Y-17335214D01*
X17718929Y-17335214D02*
X17737977Y-17325690D01*
X17737977Y-17325690D02*
X17766548Y-17325690D01*
X17766548Y-17325690D02*
X17785596Y-17335214D01*
X17785596Y-17335214D02*
X17795119Y-17344738D01*
X17795119Y-17344738D02*
X17804643Y-17363786D01*
X17804643Y-17363786D02*
X17804643Y-17420929D01*
X17804643Y-17420929D02*
X17795119Y-17439976D01*
X17795119Y-17439976D02*
X17785596Y-17449500D01*
X17785596Y-17449500D02*
X17766548Y-17459024D01*
X17766548Y-17459024D02*
X17737977Y-17459024D01*
X17918929Y-17459024D02*
X17899881Y-17449500D01*
X17899881Y-17449500D02*
X17890358Y-17430452D01*
X17890358Y-17430452D02*
X17890358Y-17259024D01*
X18071310Y-17449500D02*
X18052262Y-17459024D01*
X18052262Y-17459024D02*
X18014167Y-17459024D01*
X18014167Y-17459024D02*
X17995119Y-17449500D01*
X17995119Y-17449500D02*
X17985596Y-17430452D01*
X17985596Y-17430452D02*
X17985596Y-17354262D01*
X17985596Y-17354262D02*
X17995119Y-17335214D01*
X17995119Y-17335214D02*
X18014167Y-17325690D01*
X18014167Y-17325690D02*
X18052262Y-17325690D01*
X18052262Y-17325690D02*
X18071310Y-17335214D01*
X18071310Y-17335214D02*
X18080834Y-17354262D01*
X18080834Y-17354262D02*
X18080834Y-17373310D01*
X18080834Y-17373310D02*
X17985596Y-17392357D01*
X18157024Y-17449500D02*
X18176072Y-17459024D01*
X18176072Y-17459024D02*
X18214167Y-17459024D01*
X18214167Y-17459024D02*
X18233215Y-17449500D01*
X18233215Y-17449500D02*
X18242739Y-17430452D01*
X18242739Y-17430452D02*
X18242739Y-17420929D01*
X18242739Y-17420929D02*
X18233215Y-17401881D01*
X18233215Y-17401881D02*
X18214167Y-17392357D01*
X18214167Y-17392357D02*
X18185596Y-17392357D01*
X18185596Y-17392357D02*
X18166548Y-17382833D01*
X18166548Y-17382833D02*
X18157024Y-17363786D01*
X18157024Y-17363786D02*
X18157024Y-17354262D01*
X18157024Y-17354262D02*
X18166548Y-17335214D01*
X18166548Y-17335214D02*
X18185596Y-17325690D01*
X18185596Y-17325690D02*
X18214167Y-17325690D01*
X18214167Y-17325690D02*
X18233215Y-17335214D01*
X18309405Y-17535214D02*
X18318929Y-17525690D01*
X18318929Y-17525690D02*
X18337977Y-17497119D01*
X18337977Y-17497119D02*
X18347500Y-17478071D01*
X18347500Y-17478071D02*
X18357024Y-17449500D01*
X18357024Y-17449500D02*
X18366548Y-17401881D01*
X18366548Y-17401881D02*
X18366548Y-17363786D01*
X18366548Y-17363786D02*
X18357024Y-17316167D01*
X18357024Y-17316167D02*
X18347500Y-17287595D01*
X18347500Y-17287595D02*
X18337977Y-17268548D01*
X18337977Y-17268548D02*
X18318929Y-17239976D01*
X18318929Y-17239976D02*
X18309405Y-17230452D01*
D14*
X13497500Y-17580500D02*
X13497500Y-17680500D01*
X13447500Y-17630500D02*
X13547500Y-17630500D01*
D11*
X13899881Y-17723024D02*
X13785595Y-17723024D01*
X13842738Y-17723024D02*
X13842738Y-17523024D01*
X13842738Y-17523024D02*
X13823690Y-17551595D01*
X13823690Y-17551595D02*
X13804643Y-17570643D01*
X13804643Y-17570643D02*
X13785595Y-17580167D01*
X13985595Y-17703976D02*
X13995119Y-17713500D01*
X13995119Y-17713500D02*
X13985595Y-17723024D01*
X13985595Y-17723024D02*
X13976071Y-17713500D01*
X13976071Y-17713500D02*
X13985595Y-17703976D01*
X13985595Y-17703976D02*
X13985595Y-17723024D01*
X14118928Y-17523024D02*
X14137976Y-17523024D01*
X14137976Y-17523024D02*
X14157024Y-17532548D01*
X14157024Y-17532548D02*
X14166548Y-17542071D01*
X14166548Y-17542071D02*
X14176071Y-17561119D01*
X14176071Y-17561119D02*
X14185595Y-17599214D01*
X14185595Y-17599214D02*
X14185595Y-17646833D01*
X14185595Y-17646833D02*
X14176071Y-17684929D01*
X14176071Y-17684929D02*
X14166548Y-17703976D01*
X14166548Y-17703976D02*
X14157024Y-17713500D01*
X14157024Y-17713500D02*
X14137976Y-17723024D01*
X14137976Y-17723024D02*
X14118928Y-17723024D01*
X14118928Y-17723024D02*
X14099881Y-17713500D01*
X14099881Y-17713500D02*
X14090357Y-17703976D01*
X14090357Y-17703976D02*
X14080833Y-17684929D01*
X14080833Y-17684929D02*
X14071309Y-17646833D01*
X14071309Y-17646833D02*
X14071309Y-17599214D01*
X14071309Y-17599214D02*
X14080833Y-17561119D01*
X14080833Y-17561119D02*
X14090357Y-17542071D01*
X14090357Y-17542071D02*
X14099881Y-17532548D01*
X14099881Y-17532548D02*
X14118928Y-17523024D01*
X14309405Y-17523024D02*
X14328452Y-17523024D01*
X14328452Y-17523024D02*
X14347500Y-17532548D01*
X14347500Y-17532548D02*
X14357024Y-17542071D01*
X14357024Y-17542071D02*
X14366548Y-17561119D01*
X14366548Y-17561119D02*
X14376071Y-17599214D01*
X14376071Y-17599214D02*
X14376071Y-17646833D01*
X14376071Y-17646833D02*
X14366548Y-17684929D01*
X14366548Y-17684929D02*
X14357024Y-17703976D01*
X14357024Y-17703976D02*
X14347500Y-17713500D01*
X14347500Y-17713500D02*
X14328452Y-17723024D01*
X14328452Y-17723024D02*
X14309405Y-17723024D01*
X14309405Y-17723024D02*
X14290357Y-17713500D01*
X14290357Y-17713500D02*
X14280833Y-17703976D01*
X14280833Y-17703976D02*
X14271309Y-17684929D01*
X14271309Y-17684929D02*
X14261786Y-17646833D01*
X14261786Y-17646833D02*
X14261786Y-17599214D01*
X14261786Y-17599214D02*
X14271309Y-17561119D01*
X14271309Y-17561119D02*
X14280833Y-17542071D01*
X14280833Y-17542071D02*
X14290357Y-17532548D01*
X14290357Y-17532548D02*
X14309405Y-17523024D01*
X14499881Y-17523024D02*
X14518929Y-17523024D01*
X14518929Y-17523024D02*
X14537976Y-17532548D01*
X14537976Y-17532548D02*
X14547500Y-17542071D01*
X14547500Y-17542071D02*
X14557024Y-17561119D01*
X14557024Y-17561119D02*
X14566548Y-17599214D01*
X14566548Y-17599214D02*
X14566548Y-17646833D01*
X14566548Y-17646833D02*
X14557024Y-17684929D01*
X14557024Y-17684929D02*
X14547500Y-17703976D01*
X14547500Y-17703976D02*
X14537976Y-17713500D01*
X14537976Y-17713500D02*
X14518929Y-17723024D01*
X14518929Y-17723024D02*
X14499881Y-17723024D01*
X14499881Y-17723024D02*
X14480833Y-17713500D01*
X14480833Y-17713500D02*
X14471309Y-17703976D01*
X14471309Y-17703976D02*
X14461786Y-17684929D01*
X14461786Y-17684929D02*
X14452262Y-17646833D01*
X14452262Y-17646833D02*
X14452262Y-17599214D01*
X14452262Y-17599214D02*
X14461786Y-17561119D01*
X14461786Y-17561119D02*
X14471309Y-17542071D01*
X14471309Y-17542071D02*
X14480833Y-17532548D01*
X14480833Y-17532548D02*
X14499881Y-17523024D01*
X14652262Y-17723024D02*
X14652262Y-17589690D01*
X14652262Y-17608738D02*
X14661786Y-17599214D01*
X14661786Y-17599214D02*
X14680833Y-17589690D01*
X14680833Y-17589690D02*
X14709405Y-17589690D01*
X14709405Y-17589690D02*
X14728452Y-17599214D01*
X14728452Y-17599214D02*
X14737976Y-17618262D01*
X14737976Y-17618262D02*
X14737976Y-17723024D01*
X14737976Y-17618262D02*
X14747500Y-17599214D01*
X14747500Y-17599214D02*
X14766548Y-17589690D01*
X14766548Y-17589690D02*
X14795119Y-17589690D01*
X14795119Y-17589690D02*
X14814167Y-17599214D01*
X14814167Y-17599214D02*
X14823690Y-17618262D01*
X14823690Y-17618262D02*
X14823690Y-17723024D01*
X14918929Y-17723024D02*
X14918929Y-17589690D01*
X14918929Y-17608738D02*
X14928452Y-17599214D01*
X14928452Y-17599214D02*
X14947500Y-17589690D01*
X14947500Y-17589690D02*
X14976071Y-17589690D01*
X14976071Y-17589690D02*
X14995119Y-17599214D01*
X14995119Y-17599214D02*
X15004643Y-17618262D01*
X15004643Y-17618262D02*
X15004643Y-17723024D01*
X15004643Y-17618262D02*
X15014167Y-17599214D01*
X15014167Y-17599214D02*
X15033214Y-17589690D01*
X15033214Y-17589690D02*
X15061786Y-17589690D01*
X15061786Y-17589690D02*
X15080833Y-17599214D01*
X15080833Y-17599214D02*
X15090357Y-17618262D01*
X15090357Y-17618262D02*
X15090357Y-17723024D01*
X15480833Y-17513500D02*
X15309405Y-17770643D01*
X15737976Y-17523024D02*
X15757024Y-17523024D01*
X15757024Y-17523024D02*
X15776072Y-17532548D01*
X15776072Y-17532548D02*
X15785595Y-17542071D01*
X15785595Y-17542071D02*
X15795119Y-17561119D01*
X15795119Y-17561119D02*
X15804643Y-17599214D01*
X15804643Y-17599214D02*
X15804643Y-17646833D01*
X15804643Y-17646833D02*
X15795119Y-17684929D01*
X15795119Y-17684929D02*
X15785595Y-17703976D01*
X15785595Y-17703976D02*
X15776072Y-17713500D01*
X15776072Y-17713500D02*
X15757024Y-17723024D01*
X15757024Y-17723024D02*
X15737976Y-17723024D01*
X15737976Y-17723024D02*
X15718929Y-17713500D01*
X15718929Y-17713500D02*
X15709405Y-17703976D01*
X15709405Y-17703976D02*
X15699881Y-17684929D01*
X15699881Y-17684929D02*
X15690357Y-17646833D01*
X15690357Y-17646833D02*
X15690357Y-17599214D01*
X15690357Y-17599214D02*
X15699881Y-17561119D01*
X15699881Y-17561119D02*
X15709405Y-17542071D01*
X15709405Y-17542071D02*
X15718929Y-17532548D01*
X15718929Y-17532548D02*
X15737976Y-17523024D01*
X15890357Y-17703976D02*
X15899881Y-17713500D01*
X15899881Y-17713500D02*
X15890357Y-17723024D01*
X15890357Y-17723024D02*
X15880833Y-17713500D01*
X15880833Y-17713500D02*
X15890357Y-17703976D01*
X15890357Y-17703976D02*
X15890357Y-17723024D01*
X16023691Y-17523024D02*
X16042738Y-17523024D01*
X16042738Y-17523024D02*
X16061786Y-17532548D01*
X16061786Y-17532548D02*
X16071310Y-17542071D01*
X16071310Y-17542071D02*
X16080833Y-17561119D01*
X16080833Y-17561119D02*
X16090357Y-17599214D01*
X16090357Y-17599214D02*
X16090357Y-17646833D01*
X16090357Y-17646833D02*
X16080833Y-17684929D01*
X16080833Y-17684929D02*
X16071310Y-17703976D01*
X16071310Y-17703976D02*
X16061786Y-17713500D01*
X16061786Y-17713500D02*
X16042738Y-17723024D01*
X16042738Y-17723024D02*
X16023691Y-17723024D01*
X16023691Y-17723024D02*
X16004643Y-17713500D01*
X16004643Y-17713500D02*
X15995119Y-17703976D01*
X15995119Y-17703976D02*
X15985595Y-17684929D01*
X15985595Y-17684929D02*
X15976072Y-17646833D01*
X15976072Y-17646833D02*
X15976072Y-17599214D01*
X15976072Y-17599214D02*
X15985595Y-17561119D01*
X15985595Y-17561119D02*
X15995119Y-17542071D01*
X15995119Y-17542071D02*
X16004643Y-17532548D01*
X16004643Y-17532548D02*
X16023691Y-17523024D01*
X16157024Y-17523024D02*
X16280833Y-17523024D01*
X16280833Y-17523024D02*
X16214167Y-17599214D01*
X16214167Y-17599214D02*
X16242738Y-17599214D01*
X16242738Y-17599214D02*
X16261786Y-17608738D01*
X16261786Y-17608738D02*
X16271310Y-17618262D01*
X16271310Y-17618262D02*
X16280833Y-17637310D01*
X16280833Y-17637310D02*
X16280833Y-17684929D01*
X16280833Y-17684929D02*
X16271310Y-17703976D01*
X16271310Y-17703976D02*
X16261786Y-17713500D01*
X16261786Y-17713500D02*
X16242738Y-17723024D01*
X16242738Y-17723024D02*
X16185595Y-17723024D01*
X16185595Y-17723024D02*
X16166548Y-17713500D01*
X16166548Y-17713500D02*
X16157024Y-17703976D01*
X16376072Y-17723024D02*
X16414167Y-17723024D01*
X16414167Y-17723024D02*
X16433214Y-17713500D01*
X16433214Y-17713500D02*
X16442738Y-17703976D01*
X16442738Y-17703976D02*
X16461786Y-17675405D01*
X16461786Y-17675405D02*
X16471310Y-17637310D01*
X16471310Y-17637310D02*
X16471310Y-17561119D01*
X16471310Y-17561119D02*
X16461786Y-17542071D01*
X16461786Y-17542071D02*
X16452262Y-17532548D01*
X16452262Y-17532548D02*
X16433214Y-17523024D01*
X16433214Y-17523024D02*
X16395119Y-17523024D01*
X16395119Y-17523024D02*
X16376072Y-17532548D01*
X16376072Y-17532548D02*
X16366548Y-17542071D01*
X16366548Y-17542071D02*
X16357024Y-17561119D01*
X16357024Y-17561119D02*
X16357024Y-17608738D01*
X16357024Y-17608738D02*
X16366548Y-17627786D01*
X16366548Y-17627786D02*
X16376072Y-17637310D01*
X16376072Y-17637310D02*
X16395119Y-17646833D01*
X16395119Y-17646833D02*
X16433214Y-17646833D01*
X16433214Y-17646833D02*
X16452262Y-17637310D01*
X16452262Y-17637310D02*
X16461786Y-17627786D01*
X16461786Y-17627786D02*
X16471310Y-17608738D01*
X16642738Y-17589690D02*
X16642738Y-17723024D01*
X16595119Y-17513500D02*
X16547500Y-17656357D01*
X16547500Y-17656357D02*
X16671310Y-17656357D01*
X16737976Y-17523024D02*
X16737976Y-17561119D01*
X16814167Y-17523024D02*
X16814167Y-17561119D01*
X17109405Y-17799214D02*
X17099881Y-17789690D01*
X17099881Y-17789690D02*
X17080834Y-17761119D01*
X17080834Y-17761119D02*
X17071310Y-17742071D01*
X17071310Y-17742071D02*
X17061786Y-17713500D01*
X17061786Y-17713500D02*
X17052262Y-17665881D01*
X17052262Y-17665881D02*
X17052262Y-17627786D01*
X17052262Y-17627786D02*
X17061786Y-17580167D01*
X17061786Y-17580167D02*
X17071310Y-17551595D01*
X17071310Y-17551595D02*
X17080834Y-17532548D01*
X17080834Y-17532548D02*
X17099881Y-17503976D01*
X17099881Y-17503976D02*
X17109405Y-17494452D01*
X17214167Y-17608738D02*
X17195119Y-17599214D01*
X17195119Y-17599214D02*
X17185596Y-17589690D01*
X17185596Y-17589690D02*
X17176072Y-17570643D01*
X17176072Y-17570643D02*
X17176072Y-17561119D01*
X17176072Y-17561119D02*
X17185596Y-17542071D01*
X17185596Y-17542071D02*
X17195119Y-17532548D01*
X17195119Y-17532548D02*
X17214167Y-17523024D01*
X17214167Y-17523024D02*
X17252262Y-17523024D01*
X17252262Y-17523024D02*
X17271310Y-17532548D01*
X17271310Y-17532548D02*
X17280834Y-17542071D01*
X17280834Y-17542071D02*
X17290357Y-17561119D01*
X17290357Y-17561119D02*
X17290357Y-17570643D01*
X17290357Y-17570643D02*
X17280834Y-17589690D01*
X17280834Y-17589690D02*
X17271310Y-17599214D01*
X17271310Y-17599214D02*
X17252262Y-17608738D01*
X17252262Y-17608738D02*
X17214167Y-17608738D01*
X17214167Y-17608738D02*
X17195119Y-17618262D01*
X17195119Y-17618262D02*
X17185596Y-17627786D01*
X17185596Y-17627786D02*
X17176072Y-17646833D01*
X17176072Y-17646833D02*
X17176072Y-17684929D01*
X17176072Y-17684929D02*
X17185596Y-17703976D01*
X17185596Y-17703976D02*
X17195119Y-17713500D01*
X17195119Y-17713500D02*
X17214167Y-17723024D01*
X17214167Y-17723024D02*
X17252262Y-17723024D01*
X17252262Y-17723024D02*
X17271310Y-17713500D01*
X17271310Y-17713500D02*
X17280834Y-17703976D01*
X17280834Y-17703976D02*
X17290357Y-17684929D01*
X17290357Y-17684929D02*
X17290357Y-17646833D01*
X17290357Y-17646833D02*
X17280834Y-17627786D01*
X17280834Y-17627786D02*
X17271310Y-17618262D01*
X17271310Y-17618262D02*
X17252262Y-17608738D01*
X17528453Y-17723024D02*
X17528453Y-17523024D01*
X17614167Y-17723024D02*
X17614167Y-17618262D01*
X17614167Y-17618262D02*
X17604643Y-17599214D01*
X17604643Y-17599214D02*
X17585596Y-17589690D01*
X17585596Y-17589690D02*
X17557024Y-17589690D01*
X17557024Y-17589690D02*
X17537977Y-17599214D01*
X17537977Y-17599214D02*
X17528453Y-17608738D01*
X17737977Y-17723024D02*
X17718929Y-17713500D01*
X17718929Y-17713500D02*
X17709405Y-17703976D01*
X17709405Y-17703976D02*
X17699881Y-17684929D01*
X17699881Y-17684929D02*
X17699881Y-17627786D01*
X17699881Y-17627786D02*
X17709405Y-17608738D01*
X17709405Y-17608738D02*
X17718929Y-17599214D01*
X17718929Y-17599214D02*
X17737977Y-17589690D01*
X17737977Y-17589690D02*
X17766548Y-17589690D01*
X17766548Y-17589690D02*
X17785596Y-17599214D01*
X17785596Y-17599214D02*
X17795119Y-17608738D01*
X17795119Y-17608738D02*
X17804643Y-17627786D01*
X17804643Y-17627786D02*
X17804643Y-17684929D01*
X17804643Y-17684929D02*
X17795119Y-17703976D01*
X17795119Y-17703976D02*
X17785596Y-17713500D01*
X17785596Y-17713500D02*
X17766548Y-17723024D01*
X17766548Y-17723024D02*
X17737977Y-17723024D01*
X17918929Y-17723024D02*
X17899881Y-17713500D01*
X17899881Y-17713500D02*
X17890358Y-17694452D01*
X17890358Y-17694452D02*
X17890358Y-17523024D01*
X18071310Y-17713500D02*
X18052262Y-17723024D01*
X18052262Y-17723024D02*
X18014167Y-17723024D01*
X18014167Y-17723024D02*
X17995119Y-17713500D01*
X17995119Y-17713500D02*
X17985596Y-17694452D01*
X17985596Y-17694452D02*
X17985596Y-17618262D01*
X17985596Y-17618262D02*
X17995119Y-17599214D01*
X17995119Y-17599214D02*
X18014167Y-17589690D01*
X18014167Y-17589690D02*
X18052262Y-17589690D01*
X18052262Y-17589690D02*
X18071310Y-17599214D01*
X18071310Y-17599214D02*
X18080834Y-17618262D01*
X18080834Y-17618262D02*
X18080834Y-17637310D01*
X18080834Y-17637310D02*
X17985596Y-17656357D01*
X18157024Y-17713500D02*
X18176072Y-17723024D01*
X18176072Y-17723024D02*
X18214167Y-17723024D01*
X18214167Y-17723024D02*
X18233215Y-17713500D01*
X18233215Y-17713500D02*
X18242739Y-17694452D01*
X18242739Y-17694452D02*
X18242739Y-17684929D01*
X18242739Y-17684929D02*
X18233215Y-17665881D01*
X18233215Y-17665881D02*
X18214167Y-17656357D01*
X18214167Y-17656357D02*
X18185596Y-17656357D01*
X18185596Y-17656357D02*
X18166548Y-17646833D01*
X18166548Y-17646833D02*
X18157024Y-17627786D01*
X18157024Y-17627786D02*
X18157024Y-17618262D01*
X18157024Y-17618262D02*
X18166548Y-17599214D01*
X18166548Y-17599214D02*
X18185596Y-17589690D01*
X18185596Y-17589690D02*
X18214167Y-17589690D01*
X18214167Y-17589690D02*
X18233215Y-17599214D01*
X18309405Y-17799214D02*
X18318929Y-17789690D01*
X18318929Y-17789690D02*
X18337977Y-17761119D01*
X18337977Y-17761119D02*
X18347500Y-17742071D01*
X18347500Y-17742071D02*
X18357024Y-17713500D01*
X18357024Y-17713500D02*
X18366548Y-17665881D01*
X18366548Y-17665881D02*
X18366548Y-17627786D01*
X18366548Y-17627786D02*
X18357024Y-17580167D01*
X18357024Y-17580167D02*
X18347500Y-17551595D01*
X18347500Y-17551595D02*
X18337977Y-17532548D01*
X18337977Y-17532548D02*
X18318929Y-17503976D01*
X18318929Y-17503976D02*
X18309405Y-17494452D01*
M02*
