%TF.GenerationSoftware,KiCad,Pcbnew,7.0.2-6a45011f42~172~ubuntu22.04.1*%
%TF.CreationDate,2023-05-29T23:15:52+12:00*%
%TF.ProjectId,THE_BRAWN-20A_LOGIC,5448455f-4252-4415-974e-2d3230415f4c,v2.0*%
%TF.SameCoordinates,Original*%
%TF.FileFunction,Soldermask,Top*%
%TF.FilePolarity,Negative*%
%FSLAX46Y46*%
G04 Gerber Fmt 4.6, Leading zero omitted, Abs format (unit mm)*
G04 Created by KiCad (PCBNEW 7.0.2-6a45011f42~172~ubuntu22.04.1) date 2023-05-29 23:15:52*
%MOMM*%
%LPD*%
G01*
G04 APERTURE LIST*
G04 Aperture macros list*
%AMRoundRect*
0 Rectangle with rounded corners*
0 $1 Rounding radius*
0 $2 $3 $4 $5 $6 $7 $8 $9 X,Y pos of 4 corners*
0 Add a 4 corners polygon primitive as box body*
4,1,4,$2,$3,$4,$5,$6,$7,$8,$9,$2,$3,0*
0 Add four circle primitives for the rounded corners*
1,1,$1+$1,$2,$3*
1,1,$1+$1,$4,$5*
1,1,$1+$1,$6,$7*
1,1,$1+$1,$8,$9*
0 Add four rect primitives between the rounded corners*
20,1,$1+$1,$2,$3,$4,$5,0*
20,1,$1+$1,$4,$5,$6,$7,0*
20,1,$1+$1,$6,$7,$8,$9,0*
20,1,$1+$1,$8,$9,$2,$3,0*%
G04 Aperture macros list end*
%ADD10C,1.000000*%
%ADD11R,2.000000X2.000000*%
%ADD12RoundRect,0.200000X0.275000X-0.200000X0.275000X0.200000X-0.275000X0.200000X-0.275000X-0.200000X0*%
%ADD13RoundRect,0.450000X-0.450000X-0.450000X0.450000X-0.450000X0.450000X0.450000X-0.450000X0.450000X0*%
%ADD14RoundRect,0.200000X-0.275000X0.200000X-0.275000X-0.200000X0.275000X-0.200000X0.275000X0.200000X0*%
%ADD15RoundRect,0.225000X-0.250000X0.225000X-0.250000X-0.225000X0.250000X-0.225000X0.250000X0.225000X0*%
%ADD16RoundRect,0.225000X0.225000X0.250000X-0.225000X0.250000X-0.225000X-0.250000X0.225000X-0.250000X0*%
%ADD17R,1.200000X0.500000*%
%ADD18R,0.500000X1.200000*%
%ADD19RoundRect,0.225000X-0.225000X-0.250000X0.225000X-0.250000X0.225000X0.250000X-0.225000X0.250000X0*%
%ADD20RoundRect,0.218750X0.218750X0.256250X-0.218750X0.256250X-0.218750X-0.256250X0.218750X-0.256250X0*%
%ADD21RoundRect,0.218750X-0.218750X-0.256250X0.218750X-0.256250X0.218750X0.256250X-0.218750X0.256250X0*%
G04 APERTURE END LIST*
D10*
%TO.C,H3*%
X145500000Y-152200000D03*
D11*
X145500000Y-152200000D03*
%TD*%
D10*
%TO.C,H2*%
X142500000Y-152200000D03*
D11*
X142500000Y-152200000D03*
%TD*%
D12*
%TO.C,R2*%
X139650000Y-161825000D03*
X139650000Y-160175000D03*
%TD*%
D13*
%TO.C,J2*%
X137000000Y-155500000D03*
X137000000Y-158040000D03*
X137000000Y-160580000D03*
X137000000Y-163120000D03*
%TD*%
D14*
%TO.C,R10*%
X151350000Y-156875000D03*
X151350000Y-158525000D03*
%TD*%
%TO.C,R8*%
X139650000Y-156875000D03*
X139650000Y-158525000D03*
%TD*%
D15*
%TO.C,C5*%
X151350000Y-160225000D03*
X151350000Y-161775000D03*
%TD*%
D16*
%TO.C,C9*%
X141275000Y-163400000D03*
X139725000Y-163400000D03*
%TD*%
D10*
%TO.C,H1*%
X148500000Y-152200000D03*
D11*
X148500000Y-152200000D03*
%TD*%
D17*
%TO.C,U1*%
X149750000Y-162100000D03*
X149750000Y-161300000D03*
X149750000Y-160500000D03*
X149750000Y-159700000D03*
X149750000Y-158900000D03*
X149750000Y-158100000D03*
X149750000Y-157300000D03*
X149750000Y-156500000D03*
D18*
X148300000Y-155050000D03*
X147500000Y-155050000D03*
X146700000Y-155050000D03*
X145900000Y-155050000D03*
X145100000Y-155050000D03*
X144300000Y-155050000D03*
X143500000Y-155050000D03*
X142700000Y-155050000D03*
D17*
X141250000Y-156500000D03*
X141250000Y-157300000D03*
X141250000Y-158100000D03*
X141250000Y-158900000D03*
X141250000Y-159700000D03*
X141250000Y-160500000D03*
X141250000Y-161300000D03*
X141250000Y-162100000D03*
D18*
X142700000Y-163550000D03*
X143500000Y-163550000D03*
X144300000Y-163550000D03*
X145100000Y-163550000D03*
X145900000Y-163550000D03*
X146700000Y-163550000D03*
X147500000Y-163550000D03*
X148300000Y-163550000D03*
%TD*%
D19*
%TO.C,C7*%
X149725000Y-163400000D03*
X151275000Y-163400000D03*
%TD*%
D20*
%TO.C,DS2*%
X151287500Y-155200000D03*
X149712500Y-155200000D03*
%TD*%
D13*
%TO.C,J1*%
X154000000Y-155500000D03*
X154000000Y-158040000D03*
X154000000Y-160580000D03*
X154000000Y-163120000D03*
%TD*%
D21*
%TO.C,DS1*%
X139712500Y-155200000D03*
X141287500Y-155200000D03*
%TD*%
M02*
