G04*
G04 #@! TF.GenerationSoftware,Altium Limited,Altium Designer,21.8.1 (53)*
G04*
G04 Layer_Physical_Order=3*
G04 Layer_Color=16440176*
%FSLAX25Y25*%
%MOIN*%
G70*
G04*
G04 #@! TF.SameCoordinates,FA860FD0-AEA4-4FFE-92F8-4FAB6C871CC1*
G04*
G04*
G04 #@! TF.FilePolarity,Positive*
G04*
G01*
G75*
%ADD41C,0.01575*%
G36*
X77741Y-28528D02*
X803D01*
Y28528D01*
X77741D01*
Y-28528D01*
D02*
G37*
%LPC*%
G36*
X55836Y27256D02*
X55211D01*
X54634Y27017D01*
X54466Y26849D01*
X54140Y26613D01*
X53813Y26849D01*
X53646Y27017D01*
X53068Y27256D01*
X52443D01*
X51866Y27017D01*
X51424Y26575D01*
X51185Y25997D01*
Y25373D01*
X51424Y24795D01*
X51866Y24353D01*
X52443Y24114D01*
X53068D01*
X53646Y24353D01*
X53813Y24521D01*
X54140Y24757D01*
X54466Y24521D01*
X54634Y24353D01*
X55211Y24114D01*
X55836D01*
X56413Y24353D01*
X56855Y24795D01*
X57094Y25373D01*
Y25997D01*
X56855Y26575D01*
X56413Y27017D01*
X55836Y27256D01*
D02*
G37*
G36*
X25214Y20764D02*
X24589D01*
X24012Y20525D01*
X23570Y20083D01*
X23331Y19505D01*
Y18880D01*
X23570Y18303D01*
X24012Y17861D01*
X24589Y17622D01*
X25214D01*
X25791Y17861D01*
X26233Y18303D01*
X26472Y18880D01*
Y19505D01*
X26233Y20083D01*
X25791Y20525D01*
X25214Y20764D01*
D02*
G37*
G36*
X29840Y20567D02*
X29215D01*
X28638Y20328D01*
X28196Y19886D01*
X27957Y19308D01*
Y18684D01*
X28196Y18106D01*
X28638Y17664D01*
X29215Y17425D01*
X29840D01*
X30417Y17664D01*
X30859Y18106D01*
X31098Y18684D01*
Y19308D01*
X30859Y19886D01*
X30417Y20328D01*
X29840Y20567D01*
D02*
G37*
G36*
X38009Y15154D02*
X37384D01*
X36807Y14914D01*
X36365Y14472D01*
X36126Y13895D01*
Y13270D01*
X36365Y12693D01*
X36807Y12251D01*
X37384Y12012D01*
X38009D01*
X38587Y12251D01*
X39029Y12693D01*
X39268Y13270D01*
Y13895D01*
X39029Y14472D01*
X38587Y14914D01*
X38009Y15154D01*
D02*
G37*
G36*
X33679Y15055D02*
X33054D01*
X32476Y14816D01*
X32034Y14374D01*
X31795Y13797D01*
Y13172D01*
X32034Y12594D01*
X32476Y12152D01*
X33054Y11913D01*
X33679D01*
X34256Y12152D01*
X34698Y12594D01*
X34937Y13172D01*
Y13797D01*
X34698Y14374D01*
X34256Y14816D01*
X33679Y15055D01*
D02*
G37*
G36*
X19899Y9642D02*
X19274D01*
X18697Y9403D01*
X18255Y8961D01*
X18016Y8383D01*
Y7758D01*
X18255Y7181D01*
X18697Y6739D01*
X19274Y6500D01*
X19899D01*
X20476Y6739D01*
X20918Y7181D01*
X21158Y7758D01*
Y8383D01*
X20918Y8961D01*
X20476Y9403D01*
X19899Y9642D01*
D02*
G37*
G36*
X11165Y5549D02*
X10540D01*
X9963Y5310D01*
X9521Y4868D01*
X9282Y4291D01*
Y3666D01*
X9521Y3089D01*
X9963Y2647D01*
X10540Y2408D01*
X11165D01*
X11743Y2647D01*
X12184Y3089D01*
X12423Y3666D01*
Y4291D01*
X12184Y4868D01*
X11743Y5310D01*
X11165Y5549D01*
D02*
G37*
G36*
X65716Y4327D02*
X65091D01*
X64514Y4088D01*
X64072Y3646D01*
X63833Y3068D01*
Y2443D01*
X64072Y1866D01*
X64514Y1424D01*
X65091Y1185D01*
X65716D01*
X66294Y1424D01*
X66735Y1866D01*
X66975Y2443D01*
Y3068D01*
X66735Y3646D01*
X66294Y4088D01*
X65716Y4327D01*
D02*
G37*
G36*
X11582Y1571D02*
X10957D01*
X10380Y1332D01*
X9938Y890D01*
X9699Y313D01*
Y-313D01*
X9938Y-890D01*
X10380Y-1332D01*
X10957Y-1571D01*
X11582D01*
X12160Y-1332D01*
X12601Y-890D01*
X12841Y-313D01*
Y313D01*
X12601Y890D01*
X12160Y1332D01*
X11582Y1571D01*
D02*
G37*
G36*
X36336Y3933D02*
X35711D01*
X35134Y3694D01*
X34692Y3252D01*
X34453Y2675D01*
Y2050D01*
X34692Y1472D01*
X34810Y1354D01*
X34951Y801D01*
X34712Y224D01*
Y-401D01*
X34951Y-979D01*
X35393Y-1420D01*
X35970Y-1660D01*
X36595D01*
X37173Y-1420D01*
X37615Y-979D01*
X37854Y-401D01*
Y224D01*
X37615Y801D01*
X37496Y919D01*
X37355Y1472D01*
X37595Y2050D01*
Y2675D01*
X37355Y3252D01*
X36913Y3694D01*
X36336Y3933D01*
D02*
G37*
G36*
X32005Y-12209D02*
X31381D01*
X30803Y-12448D01*
X30709Y-12542D01*
X30614Y-12448D01*
X30037Y-12209D01*
X29412D01*
X28835Y-12448D01*
X28740Y-12542D01*
X28646Y-12448D01*
X28068Y-12209D01*
X27444D01*
X26866Y-12448D01*
X26424Y-12890D01*
X26185Y-13467D01*
Y-14092D01*
X26424Y-14669D01*
X26866Y-15111D01*
X27444Y-15350D01*
X28068D01*
X28646Y-15111D01*
X28740Y-15017D01*
X28835Y-15111D01*
X29412Y-15350D01*
X30037D01*
X30614Y-15111D01*
X30709Y-15017D01*
X30803Y-15111D01*
X31381Y-15350D01*
X32005D01*
X32583Y-15111D01*
X33025Y-14669D01*
X33264Y-14092D01*
Y-13467D01*
X33025Y-12890D01*
X32583Y-12448D01*
X32005Y-12209D01*
D02*
G37*
G36*
X75903Y-10634D02*
X75278D01*
X74701Y-10873D01*
X74259Y-11315D01*
X74020Y-11892D01*
Y-12517D01*
X74259Y-13094D01*
X74701Y-13536D01*
X75278Y-13776D01*
X75903D01*
X76480Y-13536D01*
X76922Y-13094D01*
X77161Y-12517D01*
Y-11892D01*
X76922Y-11315D01*
X76480Y-10873D01*
X75903Y-10634D01*
D02*
G37*
G36*
X65584Y-10835D02*
X64959D01*
X64382Y-11074D01*
X63940Y-11516D01*
X63701Y-12093D01*
Y-12718D01*
X63940Y-13295D01*
X64382Y-13737D01*
X64959Y-13976D01*
X65584D01*
X66162Y-13737D01*
X66603Y-13295D01*
X66843Y-12718D01*
Y-12093D01*
X66603Y-11516D01*
X66162Y-11074D01*
X65584Y-10835D01*
D02*
G37*
G36*
X27970Y-20083D02*
X27345D01*
X26768Y-20322D01*
X26326Y-20764D01*
X26087Y-21341D01*
Y-21966D01*
X26326Y-22543D01*
X26768Y-22985D01*
X27345Y-23224D01*
X27970D01*
X28547Y-22985D01*
X28989Y-22543D01*
X29228Y-21966D01*
Y-21341D01*
X28989Y-20764D01*
X28547Y-20322D01*
X27970Y-20083D01*
D02*
G37*
G36*
X19604D02*
X18979D01*
X18402Y-20322D01*
X17960Y-20764D01*
X17720Y-21341D01*
Y-21966D01*
X17960Y-22543D01*
X18402Y-22985D01*
X18979Y-23224D01*
X19604D01*
X20181Y-22985D01*
X20623Y-22543D01*
X20862Y-21966D01*
Y-21341D01*
X20623Y-20764D01*
X20181Y-20322D01*
X19604Y-20083D01*
D02*
G37*
G36*
X48225Y-23528D02*
X47600D01*
X47023Y-23767D01*
X46581Y-24209D01*
X46342Y-24786D01*
Y-25411D01*
X46581Y-25988D01*
X47023Y-26430D01*
X47600Y-26669D01*
X48225D01*
X48803Y-26430D01*
X49245Y-25988D01*
X49484Y-25411D01*
Y-24786D01*
X49245Y-24209D01*
X48803Y-23767D01*
X48225Y-23528D01*
D02*
G37*
G36*
X55874Y-24114D02*
X55249D01*
X54671Y-24353D01*
X54229Y-24795D01*
X53990Y-25373D01*
Y-25997D01*
X54229Y-26575D01*
X54671Y-27017D01*
X55249Y-27256D01*
X55874D01*
X56451Y-27017D01*
X56893Y-26575D01*
X57132Y-25997D01*
Y-25373D01*
X56893Y-24795D01*
X56451Y-24353D01*
X55874Y-24114D01*
D02*
G37*
%LPD*%
D41*
X71260Y14764D02*
D03*
X73228D02*
D03*
Y12795D02*
D03*
X71260D02*
D03*
X73228Y10827D02*
D03*
X71260D02*
D03*
X73228Y8858D02*
D03*
X71260D02*
D03*
X67323Y10827D02*
D03*
Y6890D02*
D03*
X65354D02*
D03*
Y8858D02*
D03*
X67323D02*
D03*
X69291Y10827D02*
D03*
Y8858D02*
D03*
Y6890D02*
D03*
Y4921D02*
D03*
X69291Y-98D02*
D03*
Y-2067D02*
D03*
Y-4035D02*
D03*
Y-6004D02*
D03*
Y-7972D02*
D03*
Y-11909D02*
D03*
Y-9941D02*
D03*
X67323Y-7972D02*
D03*
Y-6004D02*
D03*
Y-4035D02*
D03*
Y-2067D02*
D03*
Y-98D02*
D03*
X63386D02*
D03*
X65354D02*
D03*
Y-2067D02*
D03*
Y-4035D02*
D03*
Y-6004D02*
D03*
Y-7972D02*
D03*
X38287Y-20571D02*
D03*
X30413D02*
D03*
X36319D02*
D03*
X34350D02*
D03*
X32382D02*
D03*
Y-18602D02*
D03*
X34350D02*
D03*
X36319D02*
D03*
X28445D02*
D03*
X30413D02*
D03*
X38287D02*
D03*
X30413Y-16634D02*
D03*
X28445D02*
D03*
X36319D02*
D03*
X34350D02*
D03*
X32382D02*
D03*
X38287D02*
D03*
X10827Y-8071D02*
D03*
X6102Y-11713D02*
D03*
X8465D02*
D03*
Y-14764D02*
D03*
X39370Y-27559D02*
D03*
X33465D02*
D03*
X35433D02*
D03*
X37402D02*
D03*
X23622D02*
D03*
X25591D02*
D03*
X27559D02*
D03*
X29528D02*
D03*
X31496D02*
D03*
X3937D02*
D03*
X5906D02*
D03*
X7874D02*
D03*
X9843D02*
D03*
X11811D02*
D03*
X13780D02*
D03*
X15748D02*
D03*
X17717D02*
D03*
X19685D02*
D03*
X21654D02*
D03*
X1969Y-5905D02*
D03*
Y-7874D02*
D03*
Y-9843D02*
D03*
Y-11811D02*
D03*
Y-13780D02*
D03*
Y-15748D02*
D03*
Y-17717D02*
D03*
Y-19685D02*
D03*
Y-21654D02*
D03*
Y-23622D02*
D03*
Y-25591D02*
D03*
X6102Y-14764D02*
D03*
X10728D02*
D03*
X1969Y-27559D02*
D03*
X10827Y-11713D02*
D03*
Y-4331D02*
D03*
M02*
