G04*
G04 #@! TF.GenerationSoftware,Altium Limited,Altium Designer,21.8.1 (53)*
G04*
G04 Layer_Physical_Order=4*
G04 Layer_Color=16711680*
%FSLAX25Y25*%
%MOIN*%
G70*
G04*
G04 #@! TF.SameCoordinates,FA860FD0-AEA4-4FFE-92F8-4FAB6C871CC1*
G04*
G04*
G04 #@! TF.FilePolarity,Positive*
G04*
G01*
G75*
%ADD10C,0.00787*%
G04:AMPARAMS|DCode=18|XSize=23.62mil|YSize=25.59mil|CornerRadius=3.9mil|HoleSize=0mil|Usage=FLASHONLY|Rotation=270.000|XOffset=0mil|YOffset=0mil|HoleType=Round|Shape=RoundedRectangle|*
%AMROUNDEDRECTD18*
21,1,0.02362,0.01780,0,0,270.0*
21,1,0.01583,0.02559,0,0,270.0*
1,1,0.00780,-0.00890,-0.00791*
1,1,0.00780,-0.00890,0.00791*
1,1,0.00780,0.00890,0.00791*
1,1,0.00780,0.00890,-0.00791*
%
%ADD18ROUNDEDRECTD18*%
%ADD39C,0.01575*%
%ADD41C,0.01575*%
G04:AMPARAMS|DCode=42|XSize=19.68mil|YSize=13.78mil|CornerRadius=2mil|HoleSize=0mil|Usage=FLASHONLY|Rotation=180.000|XOffset=0mil|YOffset=0mil|HoleType=Round|Shape=RoundedRectangle|*
%AMROUNDEDRECTD42*
21,1,0.01968,0.00978,0,0,180.0*
21,1,0.01569,0.01378,0,0,180.0*
1,1,0.00400,-0.00784,0.00489*
1,1,0.00400,0.00784,0.00489*
1,1,0.00400,0.00784,-0.00489*
1,1,0.00400,-0.00784,-0.00489*
%
%ADD42ROUNDEDRECTD42*%
G04:AMPARAMS|DCode=43|XSize=19.68mil|YSize=15.75mil|CornerRadius=2.28mil|HoleSize=0mil|Usage=FLASHONLY|Rotation=180.000|XOffset=0mil|YOffset=0mil|HoleType=Round|Shape=RoundedRectangle|*
%AMROUNDEDRECTD43*
21,1,0.01968,0.01118,0,0,180.0*
21,1,0.01512,0.01575,0,0,180.0*
1,1,0.00457,-0.00756,0.00559*
1,1,0.00457,0.00756,0.00559*
1,1,0.00457,0.00756,-0.00559*
1,1,0.00457,-0.00756,-0.00559*
%
%ADD43ROUNDEDRECTD43*%
G04:AMPARAMS|DCode=44|XSize=78.74mil|YSize=59.06mil|CornerRadius=7.38mil|HoleSize=0mil|Usage=FLASHONLY|Rotation=0.000|XOffset=0mil|YOffset=0mil|HoleType=Round|Shape=RoundedRectangle|*
%AMROUNDEDRECTD44*
21,1,0.07874,0.04429,0,0,0.0*
21,1,0.06398,0.05906,0,0,0.0*
1,1,0.01476,0.03199,-0.02215*
1,1,0.01476,-0.03199,-0.02215*
1,1,0.01476,-0.03199,0.02215*
1,1,0.01476,0.03199,0.02215*
%
%ADD44ROUNDEDRECTD44*%
G04:AMPARAMS|DCode=45|XSize=157.48mil|YSize=98.43mil|CornerRadius=12.3mil|HoleSize=0mil|Usage=FLASHONLY|Rotation=0.000|XOffset=0mil|YOffset=0mil|HoleType=Round|Shape=RoundedRectangle|*
%AMROUNDEDRECTD45*
21,1,0.15748,0.07382,0,0,0.0*
21,1,0.13287,0.09843,0,0,0.0*
1,1,0.02461,0.06644,-0.03691*
1,1,0.02461,-0.06644,-0.03691*
1,1,0.02461,-0.06644,0.03691*
1,1,0.02461,0.06644,0.03691*
%
%ADD45ROUNDEDRECTD45*%
G04:AMPARAMS|DCode=46|XSize=157.48mil|YSize=118.11mil|CornerRadius=14.76mil|HoleSize=0mil|Usage=FLASHONLY|Rotation=180.000|XOffset=0mil|YOffset=0mil|HoleType=Round|Shape=RoundedRectangle|*
%AMROUNDEDRECTD46*
21,1,0.15748,0.08858,0,0,180.0*
21,1,0.12795,0.11811,0,0,180.0*
1,1,0.02953,-0.06398,0.04429*
1,1,0.02953,0.06398,0.04429*
1,1,0.02953,0.06398,-0.04429*
1,1,0.02953,-0.06398,-0.04429*
%
%ADD46ROUNDEDRECTD46*%
G36*
X38965Y15189D02*
X38465Y14965D01*
X38009Y15154D01*
X37384D01*
X36807Y14914D01*
X36365Y14472D01*
X36126Y13895D01*
Y13710D01*
X36122Y13705D01*
X35958Y13542D01*
X35698Y13152D01*
X35633Y12826D01*
X35318Y12615D01*
X35100Y12290D01*
X35024Y11907D01*
Y10928D01*
X35100Y10544D01*
X35318Y10219D01*
X35643Y10002D01*
X36027Y9926D01*
X37595D01*
X37979Y10002D01*
X38304Y10219D01*
X38465Y10460D01*
X38859Y10417D01*
X38965Y10377D01*
Y-20D01*
X38980Y-97D01*
Y-176D01*
X38995Y-248D01*
X38995Y-248D01*
Y-248D01*
X39025Y-321D01*
X39026Y-325D01*
X39028Y-329D01*
X39030Y-334D01*
X39044Y-404D01*
X39084Y-464D01*
X39114Y-536D01*
X39114Y-536D01*
X39114Y-536D01*
X39118Y-542D01*
X39151Y-575D01*
X39140Y-592D01*
X39125Y-669D01*
X39094Y-741D01*
X39079Y-820D01*
X39079Y-899D01*
X39063Y-976D01*
Y-2657D01*
X39044Y-2756D01*
Y-2929D01*
X38544Y-2978D01*
X38522Y-2867D01*
X38304Y-2542D01*
X38011Y-2346D01*
Y-830D01*
X37920Y-371D01*
X37854Y-272D01*
Y224D01*
X37615Y801D01*
X37173Y1243D01*
X36595Y1482D01*
X35970D01*
X35393Y1243D01*
X34951Y801D01*
X34712Y224D01*
Y-401D01*
X34951Y-979D01*
X35393Y-1420D01*
X35611Y-1511D01*
Y-2346D01*
X35318Y-2542D01*
X35100Y-2867D01*
X35024Y-3251D01*
Y-4229D01*
X35100Y-4613D01*
X35318Y-4938D01*
X35643Y-5156D01*
X36027Y-5232D01*
X37595D01*
X37979Y-5156D01*
X38304Y-4938D01*
X38522Y-4613D01*
X38544Y-4502D01*
X39044Y-4552D01*
Y-12402D01*
X39063Y-12501D01*
Y-14567D01*
X27756D01*
Y-14469D01*
X25314Y-12027D01*
Y-7092D01*
X26885Y-5521D01*
X27011Y-5404D01*
X27103Y-5330D01*
X27950D01*
X28333Y-5254D01*
X28659Y-5037D01*
X28876Y-4711D01*
X28952Y-4328D01*
Y-3349D01*
X28876Y-2966D01*
X28659Y-2640D01*
X28333Y-2423D01*
X27950Y-2347D01*
X26381D01*
X25997Y-2423D01*
X25672Y-2640D01*
X25455Y-2966D01*
X25433Y-3076D01*
X24933Y-3027D01*
X24933Y4823D01*
X24913Y4922D01*
Y17622D01*
X25214D01*
X25791Y17861D01*
X26233Y18303D01*
X26472Y18880D01*
Y19505D01*
X26233Y20083D01*
X25791Y20525D01*
X25214Y20764D01*
X24913D01*
Y28528D01*
X38965D01*
Y15189D01*
D02*
G37*
G36*
X37687Y12795D02*
X37642Y12793D01*
X37596Y12784D01*
X37548Y12769D01*
X37498Y12747D01*
X37446Y12720D01*
X37392Y12686D01*
X37337Y12646D01*
X37279Y12600D01*
X37206Y12532D01*
X37218Y12389D01*
X37231Y12312D01*
X37248Y12246D01*
X37269Y12193D01*
X37293Y12151D01*
X37322Y12122D01*
X37354Y12104D01*
X37390Y12098D01*
X36224D01*
X36260Y12104D01*
X36292Y12122D01*
X36320Y12151D01*
X36345Y12193D01*
X36366Y12246D01*
X36383Y12312D01*
X36396Y12389D01*
X36406Y12479D01*
X36413Y12693D01*
X36954D01*
X36602Y13045D01*
X36661Y13106D01*
X36760Y13223D01*
X36800Y13278D01*
X36834Y13332D01*
X36862Y13384D01*
X36883Y13434D01*
X36898Y13482D01*
X36907Y13528D01*
X36909Y13573D01*
X37687Y12795D01*
D02*
G37*
G36*
X11898Y11775D02*
X11898Y5855D01*
X11398Y5648D01*
X11390Y5656D01*
X11140Y5824D01*
X10853Y6111D01*
Y10089D01*
X10734Y10682D01*
X10398Y11186D01*
X9895Y11522D01*
X9301Y11640D01*
X2904D01*
X2310Y11522D01*
X1806Y11186D01*
X1470Y10682D01*
X1352Y10089D01*
Y5660D01*
X1470Y5066D01*
X1806Y4562D01*
X2310Y4226D01*
X2482Y4192D01*
Y3682D01*
X2310Y3648D01*
X1806Y3312D01*
X1470Y2808D01*
X1352Y2215D01*
Y-2215D01*
X1470Y-2808D01*
X1806Y-3312D01*
X2310Y-3648D01*
X2904Y-3766D01*
X9301D01*
X9895Y-3648D01*
X10398Y-3312D01*
X10734Y-2808D01*
X10853Y-2215D01*
Y-1610D01*
X10946Y-1602D01*
X11270D01*
X11398Y-1576D01*
X11538Y-1571D01*
X11582D01*
X11895Y-1977D01*
X11898Y-1986D01*
X11898Y-9547D01*
X11959Y-9853D01*
X12132Y-10112D01*
X13411Y-11392D01*
X13671Y-11565D01*
X13976Y-11626D01*
X22914D01*
X23220Y-11565D01*
X23479Y-11392D01*
X23652Y-11133D01*
X23681Y-10988D01*
X24142Y-10922D01*
X24516Y-11264D01*
Y-12027D01*
X24576Y-12333D01*
X24749Y-12592D01*
X26185Y-14027D01*
Y-14092D01*
X26424Y-14669D01*
X26866Y-15111D01*
X27444Y-15350D01*
X27679D01*
X27756Y-15366D01*
X39063D01*
Y-25984D01*
X39079Y-26061D01*
Y-26140D01*
X39093Y-26209D01*
X39123Y-26282D01*
X39124Y-26290D01*
X39129Y-26296D01*
X39162Y-26376D01*
X39212Y-26497D01*
X39212Y-26497D01*
X39212Y-26497D01*
X39322Y-26607D01*
X39366Y-26651D01*
X39370Y-26658D01*
X39377Y-26662D01*
X39432Y-26717D01*
X39491Y-26757D01*
X39564Y-26787D01*
X39629Y-26831D01*
X39808Y-26905D01*
X39862Y-26959D01*
Y-28528D01*
X803D01*
Y12489D01*
X11185D01*
X11898Y11775D01*
D02*
G37*
G36*
X66447Y3048D02*
X66427Y3055D01*
X66396Y3049D01*
X66353Y3028D01*
X66300Y2994D01*
X66235Y2945D01*
X66072Y2805D01*
X65745Y2491D01*
X65188Y3048D01*
X65307Y3168D01*
X65690Y3603D01*
X65725Y3656D01*
X65746Y3699D01*
X65752Y3730D01*
X65745Y3750D01*
X66447Y3048D01*
D02*
G37*
G36*
X77741Y16547D02*
X62775D01*
X62698Y16532D01*
X62620Y16532D01*
X62554Y16518D01*
X62481Y16488D01*
X62470Y16486D01*
X62460Y16479D01*
X62396Y16453D01*
X62266Y16399D01*
X62266Y16399D01*
X62266Y16399D01*
X62156Y16289D01*
X62046Y16179D01*
X62046Y16179D01*
X62046Y16179D01*
X61996Y16058D01*
X61965Y15985D01*
X61959Y15975D01*
X61957Y15964D01*
X61927Y15891D01*
X61913Y15825D01*
X61913Y15746D01*
X61898Y15669D01*
Y14365D01*
X61913Y14288D01*
Y14209D01*
X61933Y14163D01*
X61939Y14112D01*
X61939Y14112D01*
X61953Y14087D01*
X61959Y14059D01*
X62002Y13994D01*
X62033Y13921D01*
X62049Y13898D01*
X62067D01*
Y13819D01*
Y13279D01*
X62082Y13202D01*
X62082Y13123D01*
X62095Y13058D01*
Y13058D01*
X62125Y12985D01*
X62128Y12973D01*
X62134Y12964D01*
X62215Y12770D01*
X62435Y12549D01*
X62629Y12469D01*
X62639Y12462D01*
X62650Y12460D01*
X62723Y12430D01*
X62789Y12417D01*
X62867Y12417D01*
X62944Y12402D01*
X63622Y12402D01*
D01*
X63701D01*
X63701Y2756D01*
X63622D01*
X63622D01*
X62944Y2756D01*
X62867Y2740D01*
X62789Y2741D01*
X62723Y2727D01*
X62650Y2697D01*
X62639Y2695D01*
X62629Y2689D01*
X62435Y2608D01*
X62215Y2388D01*
X62134Y2194D01*
X62128Y2184D01*
X62125Y2173D01*
X62095Y2100D01*
X62082Y2034D01*
Y1956D01*
X62067Y1878D01*
Y1338D01*
Y1338D01*
Y1260D01*
X62049D01*
X62033Y1236D01*
X62003Y1163D01*
X61959Y1098D01*
X61944Y1021D01*
X61913Y948D01*
X61913Y870D01*
X61898Y792D01*
Y415D01*
X61815Y214D01*
Y-98D01*
X53159D01*
X53159Y-98D01*
X53119Y-72D01*
X52661Y19D01*
X50882D01*
X50424Y-72D01*
X50385Y-98D01*
X50385Y-98D01*
X50384Y-98D01*
X39782D01*
X39778Y-92D01*
X39764Y-20D01*
Y10377D01*
Y28528D01*
X77741D01*
Y16547D01*
D02*
G37*
G36*
Y-16043D02*
X63164D01*
X62697Y-15576D01*
Y-14365D01*
X62805Y-14203D01*
X62866Y-13898D01*
X62866Y-13279D01*
X62879Y-13213D01*
X62944Y-13200D01*
X63701Y-13200D01*
X63837Y-13173D01*
X63940Y-13295D01*
X64382Y-13737D01*
X64959Y-13976D01*
X65584D01*
X66162Y-13737D01*
X66603Y-13295D01*
X66763Y-12909D01*
X67517D01*
X67900Y-12833D01*
X68226Y-12615D01*
X68443Y-12290D01*
X68519Y-11907D01*
Y-10928D01*
X68443Y-10544D01*
X68226Y-10219D01*
X67900Y-10002D01*
X67517Y-9926D01*
X65948D01*
X65564Y-10002D01*
X65239Y-10219D01*
X65022Y-10544D01*
X65000Y-10546D01*
X64500Y-10085D01*
X64500Y-2756D01*
X64439Y-2450D01*
X64266Y-2191D01*
X64007Y-2018D01*
X63701Y-1957D01*
X63298D01*
X63225Y-1943D01*
X63164Y-1901D01*
X62921Y-1659D01*
X62880Y-1598D01*
X62866Y-1525D01*
Y-1260D01*
X62850Y-1183D01*
X62849Y-1176D01*
X62849Y-1176D01*
X62805Y-954D01*
X62697Y-792D01*
Y714D01*
X62697Y714D01*
Y792D01*
X62741Y858D01*
X62741Y858D01*
X62805Y954D01*
X62836Y1110D01*
X62836Y1110D01*
X62866Y1260D01*
Y1878D01*
X62872Y1888D01*
X62891Y1932D01*
X62935Y1950D01*
X62944Y1957D01*
X62944Y1957D01*
X63701Y1957D01*
X64007Y2018D01*
X64009Y2017D01*
X64072Y1866D01*
X64514Y1424D01*
X65091Y1185D01*
X65716D01*
X66294Y1424D01*
X66735Y1866D01*
X66894Y2248D01*
X67517D01*
X67900Y2325D01*
X68226Y2542D01*
X68443Y2867D01*
X68519Y3251D01*
Y4229D01*
X68443Y4613D01*
X68226Y4938D01*
X67900Y5156D01*
X67517Y5232D01*
X65948D01*
X65564Y5156D01*
X65239Y4938D01*
X65061Y4672D01*
X65000Y4662D01*
X64500Y5031D01*
X64500Y12402D01*
X64439Y12707D01*
X64266Y12966D01*
X64007Y13140D01*
X63701Y13200D01*
X63333D01*
X62866Y13358D01*
X62866Y13358D01*
Y13898D01*
X62805Y14203D01*
X62741Y14300D01*
X62741Y14300D01*
X62697Y14365D01*
Y14444D01*
X62697Y14444D01*
Y15281D01*
X62814Y15630D01*
X63164Y15748D01*
X77741D01*
Y-16043D01*
D02*
G37*
G36*
X52847Y-832D02*
X52853Y-836D01*
X52930Y-852D01*
X53003Y-882D01*
X53082Y-882D01*
X53159Y-897D01*
X61815D01*
X62024Y-1260D01*
X62067D01*
Y-1338D01*
D01*
Y-1603D01*
X62128Y-1909D01*
X62301Y-2168D01*
X62654Y-2522D01*
X62914Y-2695D01*
X63219Y-2756D01*
X63701D01*
X63701Y-12402D01*
X63622D01*
X63622D01*
X62866Y-12402D01*
X62560Y-12462D01*
X62301Y-12636D01*
X62301Y-12636D01*
X62128Y-12895D01*
X62067Y-13200D01*
X62067Y-13819D01*
D01*
Y-13898D01*
X62048D01*
X62033Y-13921D01*
X62003Y-13994D01*
X61959Y-14059D01*
X61944Y-14137D01*
X61913Y-14209D01*
Y-14288D01*
X61898Y-14365D01*
Y-16043D01*
X61959Y-16349D01*
X62132Y-16608D01*
X62391Y-16781D01*
X62697Y-16842D01*
X77741D01*
Y-28528D01*
X41210D01*
X40876Y-28028D01*
X40941Y-27872D01*
Y-27247D01*
X40702Y-26669D01*
X40260Y-26227D01*
X39935Y-26093D01*
X39876Y-26053D01*
X39862Y-25984D01*
Y-15366D01*
Y-12402D01*
X39843D01*
Y-2756D01*
X39862D01*
Y-976D01*
X39878Y-897D01*
X50385D01*
X50462Y-882D01*
X50540D01*
X50613Y-852D01*
X50690Y-836D01*
X50696Y-832D01*
X50961Y-780D01*
X52583D01*
X52847Y-832D01*
D02*
G37*
G36*
X10042Y1144D02*
X10079Y1069D01*
X10141Y1003D01*
X10228Y946D01*
X10340Y898D01*
X10476Y858D01*
X10637Y827D01*
X10823Y805D01*
X11034Y792D01*
X11270Y787D01*
Y-787D01*
X11034Y-792D01*
X10637Y-827D01*
X10476Y-858D01*
X10340Y-898D01*
X10228Y-946D01*
X10141Y-1003D01*
X10079Y-1069D01*
X10042Y-1144D01*
X10030Y-1228D01*
Y1228D01*
X10042Y1144D01*
D02*
G37*
G36*
X37209Y-2412D02*
X37220Y-2548D01*
X37240Y-2668D01*
X37267Y-2772D01*
X37302Y-2860D01*
X37345Y-2932D01*
X37395Y-2988D01*
X37454Y-3028D01*
X37520Y-3052D01*
X37594Y-3060D01*
X36028D01*
X36102Y-3052D01*
X36168Y-3028D01*
X36227Y-2988D01*
X36277Y-2932D01*
X36320Y-2860D01*
X36355Y-2772D01*
X36382Y-2668D01*
X36402Y-2548D01*
X36413Y-2412D01*
X36417Y-2260D01*
X37205D01*
X37209Y-2412D01*
D02*
G37*
G36*
X27291Y-4531D02*
X27230Y-4487D01*
X27158Y-4464D01*
X27074D01*
X26979Y-4487D01*
X26874Y-4531D01*
X26757Y-4598D01*
X26629Y-4687D01*
X26489Y-4798D01*
X26178Y-5088D01*
X25621Y-4531D01*
X25777Y-4370D01*
X26022Y-4080D01*
X26111Y-3952D01*
X26178Y-3835D01*
X26222Y-3729D01*
X26244Y-3635D01*
Y-3551D01*
X26222Y-3479D01*
X26178Y-3418D01*
X27291Y-4531D01*
D02*
G37*
G36*
X24114Y20567D02*
X24012Y20525D01*
X23570Y20083D01*
X23331Y19505D01*
Y18880D01*
X23570Y18303D01*
X24012Y17861D01*
X24114Y17819D01*
Y4823D01*
X24134D01*
X24134Y-4823D01*
X24114D01*
Y-4897D01*
X23266Y-5746D01*
X23005Y-6135D01*
X22990Y-6211D01*
X22914Y-6594D01*
Y-10827D01*
X13976D01*
X12697Y-9547D01*
X12697Y-692D01*
X12749Y-613D01*
X12780Y-458D01*
X12841Y-313D01*
Y-155D01*
X12871Y0D01*
X12841Y155D01*
Y313D01*
X12780Y458D01*
X12749Y613D01*
X12697Y692D01*
X12697Y12106D01*
X11516Y13287D01*
X803D01*
Y28528D01*
X24114D01*
Y20567D01*
D02*
G37*
G36*
X66391Y-12020D02*
X66378Y-12033D01*
X66455Y-12110D01*
X66434Y-12101D01*
X66402Y-12107D01*
X66359Y-12128D01*
X66304Y-12162D01*
X66239Y-12211D01*
X66178Y-12262D01*
X66150Y-12302D01*
X66119Y-12351D01*
X66093Y-12398D01*
X66073Y-12442D01*
X66059Y-12484D01*
X66050Y-12523D01*
X65987Y-12435D01*
X65745Y-12666D01*
X65188Y-12110D01*
X65307Y-11989D01*
X65503Y-11766D01*
X65405Y-11629D01*
X65451Y-11634D01*
X65498Y-11631D01*
X65547Y-11621D01*
X65598Y-11604D01*
X65651Y-11581D01*
X65679Y-11565D01*
X65692Y-11550D01*
X65727Y-11496D01*
X65747Y-11452D01*
X65753Y-11420D01*
X65745Y-11399D01*
X65816Y-11470D01*
X65819Y-11468D01*
X65878Y-11417D01*
X65939Y-11358D01*
X66391Y-12020D01*
D02*
G37*
%LPC*%
G36*
X27970Y-20083D02*
X27345D01*
X26768Y-20322D01*
X26326Y-20764D01*
X26087Y-21341D01*
Y-21966D01*
X26326Y-22543D01*
X26768Y-22985D01*
X27345Y-23224D01*
X27970D01*
X28547Y-22985D01*
X28989Y-22543D01*
X29228Y-21966D01*
Y-21341D01*
X28989Y-20764D01*
X28547Y-20322D01*
X27970Y-20083D01*
D02*
G37*
G36*
X19604D02*
X18979D01*
X18402Y-20322D01*
X17960Y-20764D01*
X17720Y-21341D01*
Y-21966D01*
X17960Y-22543D01*
X18402Y-22985D01*
X18979Y-23224D01*
X19604D01*
X20181Y-22985D01*
X20623Y-22543D01*
X20862Y-21966D01*
Y-21341D01*
X20623Y-20764D01*
X20181Y-20322D01*
X19604Y-20083D01*
D02*
G37*
G36*
X55836Y27256D02*
X55211D01*
X54634Y27017D01*
X54466Y26849D01*
X54140Y26613D01*
X53813Y26849D01*
X53646Y27017D01*
X53068Y27256D01*
X52443D01*
X51866Y27017D01*
X51424Y26575D01*
X51185Y25997D01*
Y25373D01*
X51424Y24795D01*
X51866Y24353D01*
X52443Y24114D01*
X53068D01*
X53646Y24353D01*
X53813Y24521D01*
X54140Y24757D01*
X54466Y24521D01*
X54634Y24353D01*
X55211Y24114D01*
X55836D01*
X56413Y24353D01*
X56855Y24795D01*
X57094Y25373D01*
Y25997D01*
X56855Y26575D01*
X56413Y27017D01*
X55836Y27256D01*
D02*
G37*
G36*
X75903Y-10634D02*
X75278D01*
X74701Y-10873D01*
X74259Y-11315D01*
X74020Y-11892D01*
Y-12517D01*
X74259Y-13094D01*
X74701Y-13536D01*
X75278Y-13776D01*
X75903D01*
X76480Y-13536D01*
X76922Y-13094D01*
X77161Y-12517D01*
Y-11892D01*
X76922Y-11315D01*
X76480Y-10873D01*
X75903Y-10634D01*
D02*
G37*
G36*
X48225Y-23528D02*
X47600D01*
X47023Y-23767D01*
X46581Y-24209D01*
X46342Y-24786D01*
Y-25411D01*
X46581Y-25988D01*
X47023Y-26430D01*
X47600Y-26669D01*
X48225D01*
X48803Y-26430D01*
X49245Y-25988D01*
X49484Y-25411D01*
Y-24786D01*
X49245Y-24209D01*
X48803Y-23767D01*
X48225Y-23528D01*
D02*
G37*
G36*
X55874Y-24114D02*
X55249D01*
X54671Y-24353D01*
X54229Y-24795D01*
X53990Y-25373D01*
Y-25997D01*
X54229Y-26575D01*
X54671Y-27017D01*
X55249Y-27256D01*
X55874D01*
X56451Y-27017D01*
X56893Y-26575D01*
X57132Y-25997D01*
Y-25373D01*
X56893Y-24795D01*
X56451Y-24353D01*
X55874Y-24114D01*
D02*
G37*
G36*
X19899Y9642D02*
X19274D01*
X18697Y9403D01*
X18255Y8961D01*
X18016Y8383D01*
Y7758D01*
X18255Y7181D01*
X18697Y6739D01*
X19274Y6500D01*
X19899D01*
X20476Y6739D01*
X20918Y7181D01*
X21158Y7758D01*
Y8383D01*
X20918Y8961D01*
X20476Y9403D01*
X19899Y9642D01*
D02*
G37*
%LPD*%
D10*
X66437Y3445D02*
X66732Y3740D01*
X65404Y2756D02*
X65453D01*
X66142Y3445D02*
X66437D01*
X65453Y2756D02*
X66142Y3445D01*
X65449Y-12405D02*
X66437Y-11417D01*
X66732D01*
X65272Y-12405D02*
X65449D01*
X36811Y-3740D02*
Y-830D01*
X36283Y-302D02*
Y-89D01*
Y-302D02*
X36811Y-830D01*
X36807Y12693D02*
X37697Y13583D01*
X36807Y11421D02*
Y12693D01*
Y11421D02*
X36811Y11417D01*
X24114Y-12992D02*
Y-6594D01*
X26870Y-3839D01*
X27165D01*
D18*
X51772Y1969D02*
D03*
X51772Y-1969D02*
D03*
D39*
X10175Y4524D02*
X10258D01*
X9252Y5446D02*
Y5709D01*
X10803Y3979D02*
X10853D01*
X10258Y4524D02*
X10803Y3979D01*
X9252Y5446D02*
X10175Y4524D01*
X7087Y7874D02*
X9252Y5709D01*
X5906Y7874D02*
X7087D01*
X6348Y0D02*
X11270D01*
D41*
X71260Y14764D02*
D03*
X73228D02*
D03*
Y12795D02*
D03*
X71260D02*
D03*
X73228Y10827D02*
D03*
X71260D02*
D03*
X73228Y8858D02*
D03*
X71260D02*
D03*
X67323Y10827D02*
D03*
Y6890D02*
D03*
X65404Y2756D02*
D03*
X65354Y6890D02*
D03*
Y8858D02*
D03*
X67323D02*
D03*
X69291Y10827D02*
D03*
Y8858D02*
D03*
Y6890D02*
D03*
Y4921D02*
D03*
X69291Y-98D02*
D03*
Y-2067D02*
D03*
Y-4035D02*
D03*
Y-6004D02*
D03*
Y-7972D02*
D03*
Y-11909D02*
D03*
Y-9941D02*
D03*
X67323Y-7972D02*
D03*
Y-6004D02*
D03*
Y-4035D02*
D03*
Y-2067D02*
D03*
Y-98D02*
D03*
X63386D02*
D03*
X65354D02*
D03*
Y-2067D02*
D03*
Y-4035D02*
D03*
Y-6004D02*
D03*
Y-7972D02*
D03*
X65272Y-12405D02*
D03*
X36283Y-89D02*
D03*
X10853Y3979D02*
D03*
X38287Y-20571D02*
D03*
X30413D02*
D03*
X36319D02*
D03*
X34350D02*
D03*
X32382D02*
D03*
Y-18602D02*
D03*
X34350D02*
D03*
X36319D02*
D03*
X28445D02*
D03*
X30413D02*
D03*
X38287D02*
D03*
X30413Y-16634D02*
D03*
X28445D02*
D03*
X36319D02*
D03*
X34350D02*
D03*
X32382D02*
D03*
X38287D02*
D03*
X10827Y-8071D02*
D03*
X6102Y-11713D02*
D03*
X8465D02*
D03*
Y-14764D02*
D03*
X75590Y-12205D02*
D03*
X37697Y13583D02*
D03*
X33366Y13484D02*
D03*
X29528Y18996D02*
D03*
X47913Y-25098D02*
D03*
X55524Y25685D02*
D03*
X19587Y8071D02*
D03*
X39370Y-27559D02*
D03*
X33465D02*
D03*
X35433D02*
D03*
X37402D02*
D03*
X23622D02*
D03*
X25591D02*
D03*
X27559D02*
D03*
X29528D02*
D03*
X31496D02*
D03*
X3937D02*
D03*
X5906D02*
D03*
X7874D02*
D03*
X9843D02*
D03*
X11811D02*
D03*
X13780D02*
D03*
X15748D02*
D03*
X17717D02*
D03*
X19685D02*
D03*
X21654D02*
D03*
X1969Y-5905D02*
D03*
Y-7874D02*
D03*
Y-9843D02*
D03*
Y-11811D02*
D03*
Y-13780D02*
D03*
Y-15748D02*
D03*
Y-17717D02*
D03*
Y-19685D02*
D03*
Y-21654D02*
D03*
Y-23622D02*
D03*
Y-25591D02*
D03*
X6102Y-14764D02*
D03*
X10728D02*
D03*
X1969Y-27559D02*
D03*
X10827Y-11713D02*
D03*
Y-4331D02*
D03*
X19291Y-21654D02*
D03*
X27657D02*
D03*
X27756Y-13780D02*
D03*
X29724D02*
D03*
X31693D02*
D03*
X11270Y0D02*
D03*
X24902Y19193D02*
D03*
X36024Y2362D02*
D03*
X52756Y25685D02*
D03*
X55561Y-25685D02*
D03*
D42*
X66732Y11417D02*
D03*
Y8858D02*
D03*
Y6299D02*
D03*
Y3740D02*
D03*
X36811Y-3740D02*
D03*
Y-6299D02*
D03*
Y-8858D02*
D03*
Y-11417D02*
D03*
Y11417D02*
D03*
Y8858D02*
D03*
Y6299D02*
D03*
Y3740D02*
D03*
X66732Y-11417D02*
D03*
X66732Y-8858D02*
D03*
X66732Y-6299D02*
D03*
X66732Y-3740D02*
D03*
X27165Y-3839D02*
D03*
Y-1280D02*
D03*
Y1280D02*
D03*
X27165Y3839D02*
D03*
D43*
X55709Y3740D02*
D03*
Y6299D02*
D03*
Y8858D02*
D03*
Y11417D02*
D03*
X47835Y-11417D02*
D03*
Y-8858D02*
D03*
Y-6299D02*
D03*
Y-3740D02*
D03*
Y3740D02*
D03*
Y6299D02*
D03*
X47835Y8858D02*
D03*
X47835Y11417D02*
D03*
X55709Y-3740D02*
D03*
X55709Y-6299D02*
D03*
X55709Y-8858D02*
D03*
Y-11417D02*
D03*
X16142Y3839D02*
D03*
X16142Y1280D02*
D03*
X16142Y-1280D02*
D03*
Y-3839D02*
D03*
D44*
X6102Y7874D02*
D03*
X5906Y-7874D02*
D03*
X6102Y0D02*
D03*
D45*
X68898Y22638D02*
D03*
Y-22638D02*
D03*
D46*
X9843Y-21654D02*
D03*
Y21654D02*
D03*
M02*
