G04*
G04 #@! TF.GenerationSoftware,Altium Limited,Altium Designer,21.8.1 (53)*
G04*
G04 Layer_Color=255*
%FSLAX25Y25*%
%MOIN*%
G70*
G04*
G04 #@! TF.SameCoordinates,FA860FD0-AEA4-4FFE-92F8-4FAB6C871CC1*
G04*
G04*
G04 #@! TF.FilePolarity,Positive*
G04*
G01*
G75*
G04:AMPARAMS|DCode=13|XSize=23.62mil|YSize=25.59mil|CornerRadius=3.9mil|HoleSize=0mil|Usage=FLASHONLY|Rotation=180.000|XOffset=0mil|YOffset=0mil|HoleType=Round|Shape=RoundedRectangle|*
%AMROUNDEDRECTD13*
21,1,0.02362,0.01780,0,0,180.0*
21,1,0.01583,0.02559,0,0,180.0*
1,1,0.00780,-0.00791,0.00890*
1,1,0.00780,0.00791,0.00890*
1,1,0.00780,0.00791,-0.00890*
1,1,0.00780,-0.00791,-0.00890*
%
%ADD13ROUNDEDRECTD13*%
G04:AMPARAMS|DCode=14|XSize=16.54mil|YSize=19.68mil|CornerRadius=2.4mil|HoleSize=0mil|Usage=FLASHONLY|Rotation=180.000|XOffset=0mil|YOffset=0mil|HoleType=Round|Shape=RoundedRectangle|*
%AMROUNDEDRECTD14*
21,1,0.01654,0.01489,0,0,180.0*
21,1,0.01174,0.01968,0,0,180.0*
1,1,0.00480,-0.00587,0.00745*
1,1,0.00480,0.00587,0.00745*
1,1,0.00480,0.00587,-0.00745*
1,1,0.00480,-0.00587,-0.00745*
%
%ADD14ROUNDEDRECTD14*%
G04:AMPARAMS|DCode=15|XSize=12.6mil|YSize=19.68mil|CornerRadius=1.83mil|HoleSize=0mil|Usage=FLASHONLY|Rotation=180.000|XOffset=0mil|YOffset=0mil|HoleType=Round|Shape=RoundedRectangle|*
%AMROUNDEDRECTD15*
21,1,0.01260,0.01603,0,0,180.0*
21,1,0.00895,0.01968,0,0,180.0*
1,1,0.00365,-0.00447,0.00802*
1,1,0.00365,0.00447,0.00802*
1,1,0.00365,0.00447,-0.00802*
1,1,0.00365,-0.00447,-0.00802*
%
%ADD15ROUNDEDRECTD15*%
G04:AMPARAMS|DCode=16|XSize=19.68mil|YSize=55.12mil|CornerRadius=4.92mil|HoleSize=0mil|Usage=FLASHONLY|Rotation=0.000|XOffset=0mil|YOffset=0mil|HoleType=Round|Shape=RoundedRectangle|*
%AMROUNDEDRECTD16*
21,1,0.01968,0.04528,0,0,0.0*
21,1,0.00984,0.05512,0,0,0.0*
1,1,0.00984,0.00492,-0.02264*
1,1,0.00984,-0.00492,-0.02264*
1,1,0.00984,-0.00492,0.02264*
1,1,0.00984,0.00492,0.02264*
%
%ADD16ROUNDEDRECTD16*%
G04:AMPARAMS|DCode=17|XSize=19.68mil|YSize=55.12mil|CornerRadius=4.92mil|HoleSize=0mil|Usage=FLASHONLY|Rotation=270.000|XOffset=0mil|YOffset=0mil|HoleType=Round|Shape=RoundedRectangle|*
%AMROUNDEDRECTD17*
21,1,0.01968,0.04528,0,0,270.0*
21,1,0.00984,0.05512,0,0,270.0*
1,1,0.00984,-0.02264,-0.00492*
1,1,0.00984,-0.02264,0.00492*
1,1,0.00984,0.02264,0.00492*
1,1,0.00984,0.02264,-0.00492*
%
%ADD17ROUNDEDRECTD17*%
G04:AMPARAMS|DCode=18|XSize=23.62mil|YSize=25.59mil|CornerRadius=3.9mil|HoleSize=0mil|Usage=FLASHONLY|Rotation=270.000|XOffset=0mil|YOffset=0mil|HoleType=Round|Shape=RoundedRectangle|*
%AMROUNDEDRECTD18*
21,1,0.02362,0.01780,0,0,270.0*
21,1,0.01583,0.02559,0,0,270.0*
1,1,0.00780,-0.00890,-0.00791*
1,1,0.00780,-0.00890,0.00791*
1,1,0.00780,0.00890,0.00791*
1,1,0.00780,0.00890,-0.00791*
%
%ADD18ROUNDEDRECTD18*%
G04:AMPARAMS|DCode=19|XSize=37.4mil|YSize=37.4mil|CornerRadius=5.98mil|HoleSize=0mil|Usage=FLASHONLY|Rotation=180.000|XOffset=0mil|YOffset=0mil|HoleType=Round|Shape=RoundedRectangle|*
%AMROUNDEDRECTD19*
21,1,0.03740,0.02543,0,0,180.0*
21,1,0.02543,0.03740,0,0,180.0*
1,1,0.01197,-0.01272,0.01272*
1,1,0.01197,0.01272,0.01272*
1,1,0.01197,0.01272,-0.01272*
1,1,0.01197,-0.01272,-0.01272*
%
%ADD19ROUNDEDRECTD19*%
G04:AMPARAMS|DCode=20|XSize=31.5mil|YSize=31.5mil|CornerRadius=3.94mil|HoleSize=0mil|Usage=FLASHONLY|Rotation=270.000|XOffset=0mil|YOffset=0mil|HoleType=Round|Shape=RoundedRectangle|*
%AMROUNDEDRECTD20*
21,1,0.03150,0.02362,0,0,270.0*
21,1,0.02362,0.03150,0,0,270.0*
1,1,0.00787,-0.01181,-0.01181*
1,1,0.00787,-0.01181,0.01181*
1,1,0.00787,0.01181,0.01181*
1,1,0.00787,0.01181,-0.01181*
%
%ADD20ROUNDEDRECTD20*%
G04:AMPARAMS|DCode=23|XSize=57.09mil|YSize=45.28mil|CornerRadius=5.89mil|HoleSize=0mil|Usage=FLASHONLY|Rotation=0.000|XOffset=0mil|YOffset=0mil|HoleType=Round|Shape=RoundedRectangle|*
%AMROUNDEDRECTD23*
21,1,0.05709,0.03350,0,0,0.0*
21,1,0.04532,0.04528,0,0,0.0*
1,1,0.01177,0.02266,-0.01675*
1,1,0.01177,-0.02266,-0.01675*
1,1,0.01177,-0.02266,0.01675*
1,1,0.01177,0.02266,0.01675*
%
%ADD23ROUNDEDRECTD23*%
%ADD24C,0.03937*%
G04:AMPARAMS|DCode=37|XSize=13.78mil|YSize=33.47mil|CornerRadius=2.27mil|HoleSize=0mil|Usage=FLASHONLY|Rotation=0.000|XOffset=0mil|YOffset=0mil|HoleType=Round|Shape=RoundedRectangle|*
%AMROUNDEDRECTD37*
21,1,0.01378,0.02892,0,0,0.0*
21,1,0.00923,0.03347,0,0,0.0*
1,1,0.00455,0.00462,-0.01446*
1,1,0.00455,-0.00462,-0.01446*
1,1,0.00455,-0.00462,0.01446*
1,1,0.00455,0.00462,0.01446*
%
%ADD37ROUNDEDRECTD37*%
G04:AMPARAMS|DCode=38|XSize=40.16mil|YSize=62.99mil|CornerRadius=2.01mil|HoleSize=0mil|Usage=FLASHONLY|Rotation=270.000|XOffset=0mil|YOffset=0mil|HoleType=Round|Shape=RoundedRectangle|*
%AMROUNDEDRECTD38*
21,1,0.04016,0.05898,0,0,270.0*
21,1,0.03614,0.06299,0,0,270.0*
1,1,0.00402,-0.02949,-0.01807*
1,1,0.00402,-0.02949,0.01807*
1,1,0.00402,0.02949,0.01807*
1,1,0.00402,0.02949,-0.01807*
%
%ADD38ROUNDEDRECTD38*%
D13*
X28642Y15846D02*
D03*
X24705D02*
D03*
X25591Y-17717D02*
D03*
X21654D02*
D03*
Y-13780D02*
D03*
X25591D02*
D03*
X37303Y15846D02*
D03*
X33366D02*
D03*
X40650Y23130D02*
D03*
X44587D02*
D03*
X59547Y-23130D02*
D03*
X55610D02*
D03*
X48130Y23130D02*
D03*
X52067D02*
D03*
X21654Y-9843D02*
D03*
X25591D02*
D03*
Y9843D02*
D03*
X21654D02*
D03*
X21506Y-21654D02*
D03*
X25443D02*
D03*
X52067Y-23130D02*
D03*
X48130D02*
D03*
X59547Y23130D02*
D03*
X55610D02*
D03*
D14*
X27067Y19193D02*
D03*
X35138D02*
D03*
D15*
X25492Y23130D02*
D03*
X28642D02*
D03*
X33563D02*
D03*
X36713D02*
D03*
D16*
X68110Y16732D02*
D03*
X64961Y16732D02*
D03*
X61811D02*
D03*
X58661D02*
D03*
X55512D02*
D03*
X52362D02*
D03*
X49213D02*
D03*
X46063D02*
D03*
X46063Y-16732D02*
D03*
X49213Y-16732D02*
D03*
X52362Y-16732D02*
D03*
X55512D02*
D03*
X58661D02*
D03*
X61811D02*
D03*
X64961Y-16732D02*
D03*
X68110Y-16732D02*
D03*
D17*
X73819Y-11024D02*
D03*
Y-7874D02*
D03*
X73819Y-4724D02*
D03*
Y-1575D02*
D03*
Y1575D02*
D03*
Y4724D02*
D03*
Y7874D02*
D03*
X73819Y11024D02*
D03*
X40354Y11024D02*
D03*
Y7874D02*
D03*
Y4724D02*
D03*
Y1575D02*
D03*
Y-1575D02*
D03*
Y-4724D02*
D03*
X40354Y-7874D02*
D03*
X40354Y-11024D02*
D03*
D18*
X33465Y5512D02*
D03*
Y9449D02*
D03*
X73819Y-18701D02*
D03*
Y-14764D02*
D03*
X33465Y-9941D02*
D03*
Y-6004D02*
D03*
Y1969D02*
D03*
Y-1969D02*
D03*
X73819Y14764D02*
D03*
Y18701D02*
D03*
D19*
X14665Y-3150D02*
D03*
Y3150D02*
D03*
D20*
X69784Y-23425D02*
D03*
X63878D02*
D03*
Y23425D02*
D03*
X69784D02*
D03*
D23*
X15551Y16535D02*
D03*
Y9449D02*
D03*
Y-16535D02*
D03*
Y-9449D02*
D03*
D24*
X41339Y-22835D02*
D03*
X35433D02*
D03*
D37*
X25591Y4232D02*
D03*
X23622D02*
D03*
X21654D02*
D03*
Y-4232D02*
D03*
X23622D02*
D03*
X25591D02*
D03*
D38*
X23622Y0D02*
D03*
M02*
