%TF.GenerationSoftware,KiCad,Pcbnew,7.0.2-6a45011f42~172~ubuntu22.04.1*%
%TF.CreationDate,2023-05-29T23:07:21+12:00*%
%TF.ProjectId,THE_BRAWN-20A_POWER,5448455f-4252-4415-974e-2d3230415f50,v2.0*%
%TF.SameCoordinates,Original*%
%TF.FileFunction,AssemblyDrawing,Bot*%
%FSLAX46Y46*%
G04 Gerber Fmt 4.6, Leading zero omitted, Abs format (unit mm)*
G04 Created by KiCad (PCBNEW 7.0.2-6a45011f42~172~ubuntu22.04.1) date 2023-05-29 23:07:21*
%MOMM*%
%LPD*%
G01*
G04 APERTURE LIST*
%ADD10C,0.060000*%
%ADD11C,0.150000*%
%ADD12C,0.100000*%
G04 APERTURE END LIST*
D10*
%TO.C,R7*%
X151416666Y-155185047D02*
X151549999Y-154994571D01*
X151645237Y-155185047D02*
X151645237Y-154785047D01*
X151645237Y-154785047D02*
X151492856Y-154785047D01*
X151492856Y-154785047D02*
X151454761Y-154804095D01*
X151454761Y-154804095D02*
X151435714Y-154823142D01*
X151435714Y-154823142D02*
X151416666Y-154861238D01*
X151416666Y-154861238D02*
X151416666Y-154918380D01*
X151416666Y-154918380D02*
X151435714Y-154956476D01*
X151435714Y-154956476D02*
X151454761Y-154975523D01*
X151454761Y-154975523D02*
X151492856Y-154994571D01*
X151492856Y-154994571D02*
X151645237Y-154994571D01*
X151283333Y-154785047D02*
X151016666Y-154785047D01*
X151016666Y-154785047D02*
X151188095Y-155185047D01*
%TO.C,R12*%
X151607142Y-162685047D02*
X151740475Y-162494571D01*
X151835713Y-162685047D02*
X151835713Y-162285047D01*
X151835713Y-162285047D02*
X151683332Y-162285047D01*
X151683332Y-162285047D02*
X151645237Y-162304095D01*
X151645237Y-162304095D02*
X151626190Y-162323142D01*
X151626190Y-162323142D02*
X151607142Y-162361238D01*
X151607142Y-162361238D02*
X151607142Y-162418380D01*
X151607142Y-162418380D02*
X151626190Y-162456476D01*
X151626190Y-162456476D02*
X151645237Y-162475523D01*
X151645237Y-162475523D02*
X151683332Y-162494571D01*
X151683332Y-162494571D02*
X151835713Y-162494571D01*
X151226190Y-162685047D02*
X151454761Y-162685047D01*
X151340475Y-162685047D02*
X151340475Y-162285047D01*
X151340475Y-162285047D02*
X151378571Y-162342190D01*
X151378571Y-162342190D02*
X151416666Y-162380285D01*
X151416666Y-162380285D02*
X151454761Y-162399333D01*
X151073809Y-162323142D02*
X151054761Y-162304095D01*
X151054761Y-162304095D02*
X151016666Y-162285047D01*
X151016666Y-162285047D02*
X150921428Y-162285047D01*
X150921428Y-162285047D02*
X150883333Y-162304095D01*
X150883333Y-162304095D02*
X150864285Y-162323142D01*
X150864285Y-162323142D02*
X150845238Y-162361238D01*
X150845238Y-162361238D02*
X150845238Y-162399333D01*
X150845238Y-162399333D02*
X150864285Y-162456476D01*
X150864285Y-162456476D02*
X151092857Y-162685047D01*
X151092857Y-162685047D02*
X150845238Y-162685047D01*
%TO.C,R5*%
X151416666Y-159735047D02*
X151549999Y-159544571D01*
X151645237Y-159735047D02*
X151645237Y-159335047D01*
X151645237Y-159335047D02*
X151492856Y-159335047D01*
X151492856Y-159335047D02*
X151454761Y-159354095D01*
X151454761Y-159354095D02*
X151435714Y-159373142D01*
X151435714Y-159373142D02*
X151416666Y-159411238D01*
X151416666Y-159411238D02*
X151416666Y-159468380D01*
X151416666Y-159468380D02*
X151435714Y-159506476D01*
X151435714Y-159506476D02*
X151454761Y-159525523D01*
X151454761Y-159525523D02*
X151492856Y-159544571D01*
X151492856Y-159544571D02*
X151645237Y-159544571D01*
X151054761Y-159335047D02*
X151245237Y-159335047D01*
X151245237Y-159335047D02*
X151264285Y-159525523D01*
X151264285Y-159525523D02*
X151245237Y-159506476D01*
X151245237Y-159506476D02*
X151207142Y-159487428D01*
X151207142Y-159487428D02*
X151111904Y-159487428D01*
X151111904Y-159487428D02*
X151073809Y-159506476D01*
X151073809Y-159506476D02*
X151054761Y-159525523D01*
X151054761Y-159525523D02*
X151035714Y-159563619D01*
X151035714Y-159563619D02*
X151035714Y-159658857D01*
X151035714Y-159658857D02*
X151054761Y-159696952D01*
X151054761Y-159696952D02*
X151073809Y-159716000D01*
X151073809Y-159716000D02*
X151111904Y-159735047D01*
X151111904Y-159735047D02*
X151207142Y-159735047D01*
X151207142Y-159735047D02*
X151245237Y-159716000D01*
X151245237Y-159716000D02*
X151264285Y-159696952D01*
%TO.C,R9*%
X151416666Y-156660047D02*
X151549999Y-156469571D01*
X151645237Y-156660047D02*
X151645237Y-156260047D01*
X151645237Y-156260047D02*
X151492856Y-156260047D01*
X151492856Y-156260047D02*
X151454761Y-156279095D01*
X151454761Y-156279095D02*
X151435714Y-156298142D01*
X151435714Y-156298142D02*
X151416666Y-156336238D01*
X151416666Y-156336238D02*
X151416666Y-156393380D01*
X151416666Y-156393380D02*
X151435714Y-156431476D01*
X151435714Y-156431476D02*
X151454761Y-156450523D01*
X151454761Y-156450523D02*
X151492856Y-156469571D01*
X151492856Y-156469571D02*
X151645237Y-156469571D01*
X151226190Y-156660047D02*
X151149999Y-156660047D01*
X151149999Y-156660047D02*
X151111904Y-156641000D01*
X151111904Y-156641000D02*
X151092856Y-156621952D01*
X151092856Y-156621952D02*
X151054761Y-156564809D01*
X151054761Y-156564809D02*
X151035714Y-156488619D01*
X151035714Y-156488619D02*
X151035714Y-156336238D01*
X151035714Y-156336238D02*
X151054761Y-156298142D01*
X151054761Y-156298142D02*
X151073809Y-156279095D01*
X151073809Y-156279095D02*
X151111904Y-156260047D01*
X151111904Y-156260047D02*
X151188095Y-156260047D01*
X151188095Y-156260047D02*
X151226190Y-156279095D01*
X151226190Y-156279095D02*
X151245237Y-156298142D01*
X151245237Y-156298142D02*
X151264285Y-156336238D01*
X151264285Y-156336238D02*
X151264285Y-156431476D01*
X151264285Y-156431476D02*
X151245237Y-156469571D01*
X151245237Y-156469571D02*
X151226190Y-156488619D01*
X151226190Y-156488619D02*
X151188095Y-156507666D01*
X151188095Y-156507666D02*
X151111904Y-156507666D01*
X151111904Y-156507666D02*
X151073809Y-156488619D01*
X151073809Y-156488619D02*
X151054761Y-156469571D01*
X151054761Y-156469571D02*
X151035714Y-156431476D01*
%TO.C,R6*%
X151416666Y-161210047D02*
X151549999Y-161019571D01*
X151645237Y-161210047D02*
X151645237Y-160810047D01*
X151645237Y-160810047D02*
X151492856Y-160810047D01*
X151492856Y-160810047D02*
X151454761Y-160829095D01*
X151454761Y-160829095D02*
X151435714Y-160848142D01*
X151435714Y-160848142D02*
X151416666Y-160886238D01*
X151416666Y-160886238D02*
X151416666Y-160943380D01*
X151416666Y-160943380D02*
X151435714Y-160981476D01*
X151435714Y-160981476D02*
X151454761Y-161000523D01*
X151454761Y-161000523D02*
X151492856Y-161019571D01*
X151492856Y-161019571D02*
X151645237Y-161019571D01*
X151073809Y-160810047D02*
X151149999Y-160810047D01*
X151149999Y-160810047D02*
X151188095Y-160829095D01*
X151188095Y-160829095D02*
X151207142Y-160848142D01*
X151207142Y-160848142D02*
X151245237Y-160905285D01*
X151245237Y-160905285D02*
X151264285Y-160981476D01*
X151264285Y-160981476D02*
X151264285Y-161133857D01*
X151264285Y-161133857D02*
X151245237Y-161171952D01*
X151245237Y-161171952D02*
X151226190Y-161191000D01*
X151226190Y-161191000D02*
X151188095Y-161210047D01*
X151188095Y-161210047D02*
X151111904Y-161210047D01*
X151111904Y-161210047D02*
X151073809Y-161191000D01*
X151073809Y-161191000D02*
X151054761Y-161171952D01*
X151054761Y-161171952D02*
X151035714Y-161133857D01*
X151035714Y-161133857D02*
X151035714Y-161038619D01*
X151035714Y-161038619D02*
X151054761Y-161000523D01*
X151054761Y-161000523D02*
X151073809Y-160981476D01*
X151073809Y-160981476D02*
X151111904Y-160962428D01*
X151111904Y-160962428D02*
X151188095Y-160962428D01*
X151188095Y-160962428D02*
X151226190Y-160981476D01*
X151226190Y-160981476D02*
X151245237Y-161000523D01*
X151245237Y-161000523D02*
X151264285Y-161038619D01*
D11*
%TO.C,Q10*%
X144307857Y-155678571D02*
X144260238Y-155583333D01*
X144260238Y-155583333D02*
X144165000Y-155488095D01*
X144165000Y-155488095D02*
X144022142Y-155345238D01*
X144022142Y-155345238D02*
X143974523Y-155250000D01*
X143974523Y-155250000D02*
X143974523Y-155154762D01*
X144212619Y-155202381D02*
X144165000Y-155107143D01*
X144165000Y-155107143D02*
X144069761Y-155011905D01*
X144069761Y-155011905D02*
X143879285Y-154964286D01*
X143879285Y-154964286D02*
X143545952Y-154964286D01*
X143545952Y-154964286D02*
X143355476Y-155011905D01*
X143355476Y-155011905D02*
X143260238Y-155107143D01*
X143260238Y-155107143D02*
X143212619Y-155202381D01*
X143212619Y-155202381D02*
X143212619Y-155392857D01*
X143212619Y-155392857D02*
X143260238Y-155488095D01*
X143260238Y-155488095D02*
X143355476Y-155583333D01*
X143355476Y-155583333D02*
X143545952Y-155630952D01*
X143545952Y-155630952D02*
X143879285Y-155630952D01*
X143879285Y-155630952D02*
X144069761Y-155583333D01*
X144069761Y-155583333D02*
X144165000Y-155488095D01*
X144165000Y-155488095D02*
X144212619Y-155392857D01*
X144212619Y-155392857D02*
X144212619Y-155202381D01*
X144212619Y-156583333D02*
X144212619Y-156011905D01*
X144212619Y-156297619D02*
X143212619Y-156297619D01*
X143212619Y-156297619D02*
X143355476Y-156202381D01*
X143355476Y-156202381D02*
X143450714Y-156107143D01*
X143450714Y-156107143D02*
X143498333Y-156011905D01*
X143212619Y-157202381D02*
X143212619Y-157297619D01*
X143212619Y-157297619D02*
X143260238Y-157392857D01*
X143260238Y-157392857D02*
X143307857Y-157440476D01*
X143307857Y-157440476D02*
X143403095Y-157488095D01*
X143403095Y-157488095D02*
X143593571Y-157535714D01*
X143593571Y-157535714D02*
X143831666Y-157535714D01*
X143831666Y-157535714D02*
X144022142Y-157488095D01*
X144022142Y-157488095D02*
X144117380Y-157440476D01*
X144117380Y-157440476D02*
X144165000Y-157392857D01*
X144165000Y-157392857D02*
X144212619Y-157297619D01*
X144212619Y-157297619D02*
X144212619Y-157202381D01*
X144212619Y-157202381D02*
X144165000Y-157107143D01*
X144165000Y-157107143D02*
X144117380Y-157059524D01*
X144117380Y-157059524D02*
X144022142Y-157011905D01*
X144022142Y-157011905D02*
X143831666Y-156964286D01*
X143831666Y-156964286D02*
X143593571Y-156964286D01*
X143593571Y-156964286D02*
X143403095Y-157011905D01*
X143403095Y-157011905D02*
X143307857Y-157059524D01*
X143307857Y-157059524D02*
X143260238Y-157107143D01*
X143260238Y-157107143D02*
X143212619Y-157202381D01*
%TO.C,Q8*%
X140557857Y-156154761D02*
X140510238Y-156059523D01*
X140510238Y-156059523D02*
X140415000Y-155964285D01*
X140415000Y-155964285D02*
X140272142Y-155821428D01*
X140272142Y-155821428D02*
X140224523Y-155726190D01*
X140224523Y-155726190D02*
X140224523Y-155630952D01*
X140462619Y-155678571D02*
X140415000Y-155583333D01*
X140415000Y-155583333D02*
X140319761Y-155488095D01*
X140319761Y-155488095D02*
X140129285Y-155440476D01*
X140129285Y-155440476D02*
X139795952Y-155440476D01*
X139795952Y-155440476D02*
X139605476Y-155488095D01*
X139605476Y-155488095D02*
X139510238Y-155583333D01*
X139510238Y-155583333D02*
X139462619Y-155678571D01*
X139462619Y-155678571D02*
X139462619Y-155869047D01*
X139462619Y-155869047D02*
X139510238Y-155964285D01*
X139510238Y-155964285D02*
X139605476Y-156059523D01*
X139605476Y-156059523D02*
X139795952Y-156107142D01*
X139795952Y-156107142D02*
X140129285Y-156107142D01*
X140129285Y-156107142D02*
X140319761Y-156059523D01*
X140319761Y-156059523D02*
X140415000Y-155964285D01*
X140415000Y-155964285D02*
X140462619Y-155869047D01*
X140462619Y-155869047D02*
X140462619Y-155678571D01*
X139891190Y-156678571D02*
X139843571Y-156583333D01*
X139843571Y-156583333D02*
X139795952Y-156535714D01*
X139795952Y-156535714D02*
X139700714Y-156488095D01*
X139700714Y-156488095D02*
X139653095Y-156488095D01*
X139653095Y-156488095D02*
X139557857Y-156535714D01*
X139557857Y-156535714D02*
X139510238Y-156583333D01*
X139510238Y-156583333D02*
X139462619Y-156678571D01*
X139462619Y-156678571D02*
X139462619Y-156869047D01*
X139462619Y-156869047D02*
X139510238Y-156964285D01*
X139510238Y-156964285D02*
X139557857Y-157011904D01*
X139557857Y-157011904D02*
X139653095Y-157059523D01*
X139653095Y-157059523D02*
X139700714Y-157059523D01*
X139700714Y-157059523D02*
X139795952Y-157011904D01*
X139795952Y-157011904D02*
X139843571Y-156964285D01*
X139843571Y-156964285D02*
X139891190Y-156869047D01*
X139891190Y-156869047D02*
X139891190Y-156678571D01*
X139891190Y-156678571D02*
X139938809Y-156583333D01*
X139938809Y-156583333D02*
X139986428Y-156535714D01*
X139986428Y-156535714D02*
X140081666Y-156488095D01*
X140081666Y-156488095D02*
X140272142Y-156488095D01*
X140272142Y-156488095D02*
X140367380Y-156535714D01*
X140367380Y-156535714D02*
X140415000Y-156583333D01*
X140415000Y-156583333D02*
X140462619Y-156678571D01*
X140462619Y-156678571D02*
X140462619Y-156869047D01*
X140462619Y-156869047D02*
X140415000Y-156964285D01*
X140415000Y-156964285D02*
X140367380Y-157011904D01*
X140367380Y-157011904D02*
X140272142Y-157059523D01*
X140272142Y-157059523D02*
X140081666Y-157059523D01*
X140081666Y-157059523D02*
X139986428Y-157011904D01*
X139986428Y-157011904D02*
X139938809Y-156964285D01*
X139938809Y-156964285D02*
X139891190Y-156869047D01*
D10*
%TO.C,R11*%
X151607142Y-158135047D02*
X151740475Y-157944571D01*
X151835713Y-158135047D02*
X151835713Y-157735047D01*
X151835713Y-157735047D02*
X151683332Y-157735047D01*
X151683332Y-157735047D02*
X151645237Y-157754095D01*
X151645237Y-157754095D02*
X151626190Y-157773142D01*
X151626190Y-157773142D02*
X151607142Y-157811238D01*
X151607142Y-157811238D02*
X151607142Y-157868380D01*
X151607142Y-157868380D02*
X151626190Y-157906476D01*
X151626190Y-157906476D02*
X151645237Y-157925523D01*
X151645237Y-157925523D02*
X151683332Y-157944571D01*
X151683332Y-157944571D02*
X151835713Y-157944571D01*
X151226190Y-158135047D02*
X151454761Y-158135047D01*
X151340475Y-158135047D02*
X151340475Y-157735047D01*
X151340475Y-157735047D02*
X151378571Y-157792190D01*
X151378571Y-157792190D02*
X151416666Y-157830285D01*
X151416666Y-157830285D02*
X151454761Y-157849333D01*
X150845238Y-158135047D02*
X151073809Y-158135047D01*
X150959523Y-158135047D02*
X150959523Y-157735047D01*
X150959523Y-157735047D02*
X150997619Y-157792190D01*
X150997619Y-157792190D02*
X151035714Y-157830285D01*
X151035714Y-157830285D02*
X151073809Y-157849333D01*
%TO.C,C11*%
X149757142Y-153646952D02*
X149776190Y-153666000D01*
X149776190Y-153666000D02*
X149833332Y-153685047D01*
X149833332Y-153685047D02*
X149871428Y-153685047D01*
X149871428Y-153685047D02*
X149928571Y-153666000D01*
X149928571Y-153666000D02*
X149966666Y-153627904D01*
X149966666Y-153627904D02*
X149985713Y-153589809D01*
X149985713Y-153589809D02*
X150004761Y-153513619D01*
X150004761Y-153513619D02*
X150004761Y-153456476D01*
X150004761Y-153456476D02*
X149985713Y-153380285D01*
X149985713Y-153380285D02*
X149966666Y-153342190D01*
X149966666Y-153342190D02*
X149928571Y-153304095D01*
X149928571Y-153304095D02*
X149871428Y-153285047D01*
X149871428Y-153285047D02*
X149833332Y-153285047D01*
X149833332Y-153285047D02*
X149776190Y-153304095D01*
X149776190Y-153304095D02*
X149757142Y-153323142D01*
X149376190Y-153685047D02*
X149604761Y-153685047D01*
X149490475Y-153685047D02*
X149490475Y-153285047D01*
X149490475Y-153285047D02*
X149528571Y-153342190D01*
X149528571Y-153342190D02*
X149566666Y-153380285D01*
X149566666Y-153380285D02*
X149604761Y-153399333D01*
X148995238Y-153685047D02*
X149223809Y-153685047D01*
X149109523Y-153685047D02*
X149109523Y-153285047D01*
X149109523Y-153285047D02*
X149147619Y-153342190D01*
X149147619Y-153342190D02*
X149185714Y-153380285D01*
X149185714Y-153380285D02*
X149223809Y-153399333D01*
D11*
%TO.C,Q9*%
X140557857Y-162154761D02*
X140510238Y-162059523D01*
X140510238Y-162059523D02*
X140415000Y-161964285D01*
X140415000Y-161964285D02*
X140272142Y-161821428D01*
X140272142Y-161821428D02*
X140224523Y-161726190D01*
X140224523Y-161726190D02*
X140224523Y-161630952D01*
X140462619Y-161678571D02*
X140415000Y-161583333D01*
X140415000Y-161583333D02*
X140319761Y-161488095D01*
X140319761Y-161488095D02*
X140129285Y-161440476D01*
X140129285Y-161440476D02*
X139795952Y-161440476D01*
X139795952Y-161440476D02*
X139605476Y-161488095D01*
X139605476Y-161488095D02*
X139510238Y-161583333D01*
X139510238Y-161583333D02*
X139462619Y-161678571D01*
X139462619Y-161678571D02*
X139462619Y-161869047D01*
X139462619Y-161869047D02*
X139510238Y-161964285D01*
X139510238Y-161964285D02*
X139605476Y-162059523D01*
X139605476Y-162059523D02*
X139795952Y-162107142D01*
X139795952Y-162107142D02*
X140129285Y-162107142D01*
X140129285Y-162107142D02*
X140319761Y-162059523D01*
X140319761Y-162059523D02*
X140415000Y-161964285D01*
X140415000Y-161964285D02*
X140462619Y-161869047D01*
X140462619Y-161869047D02*
X140462619Y-161678571D01*
X140462619Y-162583333D02*
X140462619Y-162773809D01*
X140462619Y-162773809D02*
X140415000Y-162869047D01*
X140415000Y-162869047D02*
X140367380Y-162916666D01*
X140367380Y-162916666D02*
X140224523Y-163011904D01*
X140224523Y-163011904D02*
X140034047Y-163059523D01*
X140034047Y-163059523D02*
X139653095Y-163059523D01*
X139653095Y-163059523D02*
X139557857Y-163011904D01*
X139557857Y-163011904D02*
X139510238Y-162964285D01*
X139510238Y-162964285D02*
X139462619Y-162869047D01*
X139462619Y-162869047D02*
X139462619Y-162678571D01*
X139462619Y-162678571D02*
X139510238Y-162583333D01*
X139510238Y-162583333D02*
X139557857Y-162535714D01*
X139557857Y-162535714D02*
X139653095Y-162488095D01*
X139653095Y-162488095D02*
X139891190Y-162488095D01*
X139891190Y-162488095D02*
X139986428Y-162535714D01*
X139986428Y-162535714D02*
X140034047Y-162583333D01*
X140034047Y-162583333D02*
X140081666Y-162678571D01*
X140081666Y-162678571D02*
X140081666Y-162869047D01*
X140081666Y-162869047D02*
X140034047Y-162964285D01*
X140034047Y-162964285D02*
X139986428Y-163011904D01*
X139986428Y-163011904D02*
X139891190Y-163059523D01*
%TO.C,Q1*%
X148057857Y-156154761D02*
X148010238Y-156059523D01*
X148010238Y-156059523D02*
X147915000Y-155964285D01*
X147915000Y-155964285D02*
X147772142Y-155821428D01*
X147772142Y-155821428D02*
X147724523Y-155726190D01*
X147724523Y-155726190D02*
X147724523Y-155630952D01*
X147962619Y-155678571D02*
X147915000Y-155583333D01*
X147915000Y-155583333D02*
X147819761Y-155488095D01*
X147819761Y-155488095D02*
X147629285Y-155440476D01*
X147629285Y-155440476D02*
X147295952Y-155440476D01*
X147295952Y-155440476D02*
X147105476Y-155488095D01*
X147105476Y-155488095D02*
X147010238Y-155583333D01*
X147010238Y-155583333D02*
X146962619Y-155678571D01*
X146962619Y-155678571D02*
X146962619Y-155869047D01*
X146962619Y-155869047D02*
X147010238Y-155964285D01*
X147010238Y-155964285D02*
X147105476Y-156059523D01*
X147105476Y-156059523D02*
X147295952Y-156107142D01*
X147295952Y-156107142D02*
X147629285Y-156107142D01*
X147629285Y-156107142D02*
X147819761Y-156059523D01*
X147819761Y-156059523D02*
X147915000Y-155964285D01*
X147915000Y-155964285D02*
X147962619Y-155869047D01*
X147962619Y-155869047D02*
X147962619Y-155678571D01*
X147962619Y-157059523D02*
X147962619Y-156488095D01*
X147962619Y-156773809D02*
X146962619Y-156773809D01*
X146962619Y-156773809D02*
X147105476Y-156678571D01*
X147105476Y-156678571D02*
X147200714Y-156583333D01*
X147200714Y-156583333D02*
X147248333Y-156488095D01*
%TO.C,Q11*%
X144307857Y-161678571D02*
X144260238Y-161583333D01*
X144260238Y-161583333D02*
X144165000Y-161488095D01*
X144165000Y-161488095D02*
X144022142Y-161345238D01*
X144022142Y-161345238D02*
X143974523Y-161250000D01*
X143974523Y-161250000D02*
X143974523Y-161154762D01*
X144212619Y-161202381D02*
X144165000Y-161107143D01*
X144165000Y-161107143D02*
X144069761Y-161011905D01*
X144069761Y-161011905D02*
X143879285Y-160964286D01*
X143879285Y-160964286D02*
X143545952Y-160964286D01*
X143545952Y-160964286D02*
X143355476Y-161011905D01*
X143355476Y-161011905D02*
X143260238Y-161107143D01*
X143260238Y-161107143D02*
X143212619Y-161202381D01*
X143212619Y-161202381D02*
X143212619Y-161392857D01*
X143212619Y-161392857D02*
X143260238Y-161488095D01*
X143260238Y-161488095D02*
X143355476Y-161583333D01*
X143355476Y-161583333D02*
X143545952Y-161630952D01*
X143545952Y-161630952D02*
X143879285Y-161630952D01*
X143879285Y-161630952D02*
X144069761Y-161583333D01*
X144069761Y-161583333D02*
X144165000Y-161488095D01*
X144165000Y-161488095D02*
X144212619Y-161392857D01*
X144212619Y-161392857D02*
X144212619Y-161202381D01*
X144212619Y-162583333D02*
X144212619Y-162011905D01*
X144212619Y-162297619D02*
X143212619Y-162297619D01*
X143212619Y-162297619D02*
X143355476Y-162202381D01*
X143355476Y-162202381D02*
X143450714Y-162107143D01*
X143450714Y-162107143D02*
X143498333Y-162011905D01*
X144212619Y-163535714D02*
X144212619Y-162964286D01*
X144212619Y-163250000D02*
X143212619Y-163250000D01*
X143212619Y-163250000D02*
X143355476Y-163154762D01*
X143355476Y-163154762D02*
X143450714Y-163059524D01*
X143450714Y-163059524D02*
X143498333Y-162964286D01*
D10*
%TO.C,C13*%
X141757142Y-153646952D02*
X141776190Y-153666000D01*
X141776190Y-153666000D02*
X141833332Y-153685047D01*
X141833332Y-153685047D02*
X141871428Y-153685047D01*
X141871428Y-153685047D02*
X141928571Y-153666000D01*
X141928571Y-153666000D02*
X141966666Y-153627904D01*
X141966666Y-153627904D02*
X141985713Y-153589809D01*
X141985713Y-153589809D02*
X142004761Y-153513619D01*
X142004761Y-153513619D02*
X142004761Y-153456476D01*
X142004761Y-153456476D02*
X141985713Y-153380285D01*
X141985713Y-153380285D02*
X141966666Y-153342190D01*
X141966666Y-153342190D02*
X141928571Y-153304095D01*
X141928571Y-153304095D02*
X141871428Y-153285047D01*
X141871428Y-153285047D02*
X141833332Y-153285047D01*
X141833332Y-153285047D02*
X141776190Y-153304095D01*
X141776190Y-153304095D02*
X141757142Y-153323142D01*
X141376190Y-153685047D02*
X141604761Y-153685047D01*
X141490475Y-153685047D02*
X141490475Y-153285047D01*
X141490475Y-153285047D02*
X141528571Y-153342190D01*
X141528571Y-153342190D02*
X141566666Y-153380285D01*
X141566666Y-153380285D02*
X141604761Y-153399333D01*
X141242857Y-153285047D02*
X140995238Y-153285047D01*
X140995238Y-153285047D02*
X141128571Y-153437428D01*
X141128571Y-153437428D02*
X141071428Y-153437428D01*
X141071428Y-153437428D02*
X141033333Y-153456476D01*
X141033333Y-153456476D02*
X141014285Y-153475523D01*
X141014285Y-153475523D02*
X140995238Y-153513619D01*
X140995238Y-153513619D02*
X140995238Y-153608857D01*
X140995238Y-153608857D02*
X141014285Y-153646952D01*
X141014285Y-153646952D02*
X141033333Y-153666000D01*
X141033333Y-153666000D02*
X141071428Y-153685047D01*
X141071428Y-153685047D02*
X141185714Y-153685047D01*
X141185714Y-153685047D02*
X141223809Y-153666000D01*
X141223809Y-153666000D02*
X141242857Y-153646952D01*
D11*
%TO.C,Q4*%
X148057857Y-162154761D02*
X148010238Y-162059523D01*
X148010238Y-162059523D02*
X147915000Y-161964285D01*
X147915000Y-161964285D02*
X147772142Y-161821428D01*
X147772142Y-161821428D02*
X147724523Y-161726190D01*
X147724523Y-161726190D02*
X147724523Y-161630952D01*
X147962619Y-161678571D02*
X147915000Y-161583333D01*
X147915000Y-161583333D02*
X147819761Y-161488095D01*
X147819761Y-161488095D02*
X147629285Y-161440476D01*
X147629285Y-161440476D02*
X147295952Y-161440476D01*
X147295952Y-161440476D02*
X147105476Y-161488095D01*
X147105476Y-161488095D02*
X147010238Y-161583333D01*
X147010238Y-161583333D02*
X146962619Y-161678571D01*
X146962619Y-161678571D02*
X146962619Y-161869047D01*
X146962619Y-161869047D02*
X147010238Y-161964285D01*
X147010238Y-161964285D02*
X147105476Y-162059523D01*
X147105476Y-162059523D02*
X147295952Y-162107142D01*
X147295952Y-162107142D02*
X147629285Y-162107142D01*
X147629285Y-162107142D02*
X147819761Y-162059523D01*
X147819761Y-162059523D02*
X147915000Y-161964285D01*
X147915000Y-161964285D02*
X147962619Y-161869047D01*
X147962619Y-161869047D02*
X147962619Y-161678571D01*
X147295952Y-162964285D02*
X147962619Y-162964285D01*
X146915000Y-162726190D02*
X147629285Y-162488095D01*
X147629285Y-162488095D02*
X147629285Y-163107142D01*
D12*
%TO.C,R7*%
X152150000Y-155412500D02*
X152150000Y-154587500D01*
X152150000Y-154587500D02*
X150550000Y-154587500D01*
X150550000Y-155412500D02*
X152150000Y-155412500D01*
X150550000Y-154587500D02*
X150550000Y-155412500D01*
%TO.C,R12*%
X150550000Y-162087500D02*
X150550000Y-162912500D01*
X150550000Y-162912500D02*
X152150000Y-162912500D01*
X152150000Y-162087500D02*
X150550000Y-162087500D01*
X152150000Y-162912500D02*
X152150000Y-162087500D01*
%TO.C,R5*%
X152150000Y-159962500D02*
X152150000Y-159137500D01*
X152150000Y-159137500D02*
X150550000Y-159137500D01*
X150550000Y-159962500D02*
X152150000Y-159962500D01*
X150550000Y-159137500D02*
X150550000Y-159962500D01*
%TO.C,R9*%
X152150000Y-156887500D02*
X152150000Y-156062500D01*
X152150000Y-156062500D02*
X150550000Y-156062500D01*
X150550000Y-156887500D02*
X152150000Y-156887500D01*
X150550000Y-156062500D02*
X150550000Y-156887500D01*
%TO.C,R6*%
X150550000Y-160612500D02*
X150550000Y-161437500D01*
X150550000Y-161437500D02*
X152150000Y-161437500D01*
X152150000Y-160612500D02*
X150550000Y-160612500D01*
X152150000Y-161437500D02*
X152150000Y-160612500D01*
%TO.C,Q10*%
X145450000Y-158250000D02*
X142050000Y-158250000D01*
X145450000Y-158250000D02*
X145450000Y-154250000D01*
X143500000Y-156250000D02*
X144000000Y-156250000D01*
X143750000Y-156000000D02*
X143750000Y-156500000D01*
X142050000Y-154250000D02*
X142050000Y-158250000D01*
X145450000Y-154250000D02*
X142050000Y-154250000D01*
X144000000Y-156250000D02*
G75*
G03*
X144000000Y-156250000I-250000J0D01*
G01*
%TO.C,Q8*%
X141700000Y-158250000D02*
X138300000Y-158250000D01*
X141700000Y-158250000D02*
X141700000Y-154250000D01*
X139750000Y-156250000D02*
X140250000Y-156250000D01*
X140000000Y-156000000D02*
X140000000Y-156500000D01*
X138300000Y-154250000D02*
X138300000Y-158250000D01*
X141700000Y-154250000D02*
X138300000Y-154250000D01*
X140250000Y-156250000D02*
G75*
G03*
X140250000Y-156250000I-250000J0D01*
G01*
%TO.C,R11*%
X152150000Y-158362500D02*
X152150000Y-157537500D01*
X152150000Y-157537500D02*
X150550000Y-157537500D01*
X150550000Y-158362500D02*
X152150000Y-158362500D01*
X150550000Y-157537500D02*
X150550000Y-158362500D01*
%TO.C,C11*%
X148700000Y-153100000D02*
X148700000Y-153900000D01*
X148700000Y-153900000D02*
X150300000Y-153900000D01*
X150300000Y-153100000D02*
X148700000Y-153100000D01*
X150300000Y-153900000D02*
X150300000Y-153100000D01*
%TO.C,Q9*%
X141700000Y-164250000D02*
X138300000Y-164250000D01*
X141700000Y-164250000D02*
X141700000Y-160250000D01*
X139750000Y-162250000D02*
X140250000Y-162250000D01*
X140000000Y-162000000D02*
X140000000Y-162500000D01*
X138300000Y-160250000D02*
X138300000Y-164250000D01*
X141700000Y-160250000D02*
X138300000Y-160250000D01*
X140250000Y-162250000D02*
G75*
G03*
X140250000Y-162250000I-250000J0D01*
G01*
%TO.C,Q1*%
X149200000Y-158250000D02*
X145800000Y-158250000D01*
X149200000Y-158250000D02*
X149200000Y-154250000D01*
X147250000Y-156250000D02*
X147750000Y-156250000D01*
X147500000Y-156000000D02*
X147500000Y-156500000D01*
X145800000Y-154250000D02*
X145800000Y-158250000D01*
X149200000Y-154250000D02*
X145800000Y-154250000D01*
X147750000Y-156250000D02*
G75*
G03*
X147750000Y-156250000I-250000J0D01*
G01*
%TO.C,Q11*%
X145450000Y-164250000D02*
X142050000Y-164250000D01*
X145450000Y-164250000D02*
X145450000Y-160250000D01*
X143500000Y-162250000D02*
X144000000Y-162250000D01*
X143750000Y-162000000D02*
X143750000Y-162500000D01*
X142050000Y-160250000D02*
X142050000Y-164250000D01*
X145450000Y-160250000D02*
X142050000Y-160250000D01*
X144000000Y-162250000D02*
G75*
G03*
X144000000Y-162250000I-250000J0D01*
G01*
%TO.C,C13*%
X140700000Y-153100000D02*
X140700000Y-153900000D01*
X140700000Y-153900000D02*
X142300000Y-153900000D01*
X142300000Y-153100000D02*
X140700000Y-153100000D01*
X142300000Y-153900000D02*
X142300000Y-153100000D01*
%TO.C,Q4*%
X149200000Y-164250000D02*
X145800000Y-164250000D01*
X149200000Y-164250000D02*
X149200000Y-160250000D01*
X147250000Y-162250000D02*
X147750000Y-162250000D01*
X147500000Y-162000000D02*
X147500000Y-162500000D01*
X145800000Y-160250000D02*
X145800000Y-164250000D01*
X149200000Y-160250000D02*
X145800000Y-160250000D01*
X147750000Y-162250000D02*
G75*
G03*
X147750000Y-162250000I-250000J0D01*
G01*
%TD*%
M02*
