%TF.GenerationSoftware,KiCad,Pcbnew,7.0.2-6a45011f42~172~ubuntu22.04.1*%
%TF.CreationDate,2023-05-29T23:07:21+12:00*%
%TF.ProjectId,THE_BRAWN-20A_POWER,5448455f-4252-4415-974e-2d3230415f50,v2.0*%
%TF.SameCoordinates,Original*%
%TF.FileFunction,Copper,L1,Top*%
%TF.FilePolarity,Positive*%
%FSLAX46Y46*%
G04 Gerber Fmt 4.6, Leading zero omitted, Abs format (unit mm)*
G04 Created by KiCad (PCBNEW 7.0.2-6a45011f42~172~ubuntu22.04.1) date 2023-05-29 23:07:21*
%MOMM*%
%LPD*%
G01*
G04 APERTURE LIST*
G04 Aperture macros list*
%AMRoundRect*
0 Rectangle with rounded corners*
0 $1 Rounding radius*
0 $2 $3 $4 $5 $6 $7 $8 $9 X,Y pos of 4 corners*
0 Add a 4 corners polygon primitive as box body*
4,1,4,$2,$3,$4,$5,$6,$7,$8,$9,$2,$3,0*
0 Add four circle primitives for the rounded corners*
1,1,$1+$1,$2,$3*
1,1,$1+$1,$4,$5*
1,1,$1+$1,$6,$7*
1,1,$1+$1,$8,$9*
0 Add four rect primitives between the rounded corners*
20,1,$1+$1,$2,$3,$4,$5,0*
20,1,$1+$1,$4,$5,$6,$7,0*
20,1,$1+$1,$6,$7,$8,$9,0*
20,1,$1+$1,$8,$9,$2,$3,0*%
G04 Aperture macros list end*
%TA.AperFunction,ComponentPad*%
%ADD10RoundRect,0.450000X-0.450000X-0.450000X0.450000X-0.450000X0.450000X0.450000X-0.450000X0.450000X0*%
%TD*%
%TA.AperFunction,ComponentPad*%
%ADD11C,2.000000*%
%TD*%
%TA.AperFunction,ConnectorPad*%
%ADD12R,3.000000X3.500000*%
%TD*%
%TA.AperFunction,ViaPad*%
%ADD13C,0.500000*%
%TD*%
G04 APERTURE END LIST*
D10*
%TO.P,J2,1,1*%
%TO.N,GND*%
X137000000Y-155500000D03*
%TO.P,J2,2,2*%
X137000000Y-158040000D03*
%TO.P,J2,3,3*%
%TO.N,/A_FET_N2*%
X137000000Y-160580000D03*
%TO.P,J2,4,4*%
%TO.N,/A_FET_N1*%
X137000000Y-163120000D03*
%TD*%
D11*
%TO.P,H4,1,1*%
%TO.N,/A_MOTOR-*%
X143500000Y-150500000D03*
D12*
X143500000Y-150500000D03*
%TD*%
D11*
%TO.P,H3,1,1*%
%TO.N,/A_MOTOR+*%
X139500000Y-150500000D03*
D12*
X139500000Y-150500000D03*
%TD*%
D11*
%TO.P,H2,1,1*%
%TO.N,GND*%
X151500000Y-150500000D03*
D12*
X151500000Y-150500000D03*
%TD*%
D10*
%TO.P,J1,1,1*%
%TO.N,/A_FET_N1_HS*%
X154000000Y-155500000D03*
%TO.P,J1,2,2*%
%TO.N,/A_FET_N2_HS*%
X154000000Y-158040000D03*
%TO.P,J1,3,3*%
%TO.N,VCC*%
X154000000Y-160580000D03*
%TO.P,J1,4,4*%
%TO.N,GND*%
X154000000Y-163120000D03*
%TD*%
D11*
%TO.P,H1,1,1*%
%TO.N,Net-(Q1-D)*%
X147500000Y-150500000D03*
D12*
X147500000Y-150500000D03*
%TD*%
D13*
%TO.N,/A_MOTOR+*%
X141200000Y-162800000D03*
X140300000Y-155300000D03*
X140600000Y-156800000D03*
X140600000Y-150500000D03*
X139400000Y-160800000D03*
X140300000Y-162300000D03*
X140000000Y-151850000D03*
X140000000Y-156800000D03*
X139400000Y-155800000D03*
X139100000Y-162300000D03*
X140600000Y-149150000D03*
X140000000Y-149150000D03*
X141200000Y-156800000D03*
X141200000Y-161800000D03*
X140000000Y-162800000D03*
X140600000Y-160800000D03*
X139400000Y-162800000D03*
X139700000Y-161300000D03*
X140600000Y-151850000D03*
X140000000Y-153500000D03*
X140000000Y-160800000D03*
X140600000Y-151250000D03*
X139700000Y-162300000D03*
X138800000Y-156800000D03*
X138400000Y-149150000D03*
X140000000Y-161800000D03*
X139000000Y-151850000D03*
X138400000Y-149750000D03*
X139400000Y-161800000D03*
X139000000Y-149150000D03*
X140600000Y-154800000D03*
X140300000Y-156300000D03*
X141200000Y-154800000D03*
X140000000Y-155800000D03*
X138400000Y-150500000D03*
X141200000Y-155800000D03*
X139100000Y-161300000D03*
X139700000Y-155300000D03*
X139100000Y-155300000D03*
X140600000Y-161800000D03*
X139400000Y-154800000D03*
X138400000Y-151250000D03*
X140300000Y-161300000D03*
X139700000Y-156300000D03*
X138400000Y-151850000D03*
X138800000Y-154800000D03*
X140600000Y-162800000D03*
X139100000Y-156300000D03*
X140900000Y-161300000D03*
X140600000Y-149750000D03*
X140600000Y-155800000D03*
X141200000Y-160800000D03*
X140900000Y-162300000D03*
X140900000Y-155300000D03*
X140000000Y-154800000D03*
X139400000Y-156800000D03*
X138800000Y-155800000D03*
X140900000Y-156300000D03*
%TO.N,/A_MOTOR-*%
X144950000Y-161800000D03*
X142400000Y-151850000D03*
X143150000Y-155800000D03*
X142400000Y-150500000D03*
X144650000Y-161300000D03*
X144350000Y-161800000D03*
X142400000Y-149750000D03*
X144350000Y-156800000D03*
X144600000Y-149750000D03*
X144950000Y-160800000D03*
X144050000Y-161300000D03*
X143000000Y-149150000D03*
X143150000Y-162800000D03*
X143150000Y-156800000D03*
X142850000Y-161300000D03*
X144050000Y-155300000D03*
X142550000Y-156800000D03*
X142400000Y-149150000D03*
X143750000Y-162800000D03*
X144000000Y-149150000D03*
X142400000Y-151250000D03*
X142550000Y-154800000D03*
X144350000Y-162800000D03*
X142550000Y-162800000D03*
X143450000Y-156300000D03*
X143750000Y-154800000D03*
X143450000Y-162300000D03*
X144050000Y-162300000D03*
X144350000Y-160800000D03*
X144000000Y-151850000D03*
X144950000Y-154800000D03*
X142850000Y-156300000D03*
X143150000Y-160800000D03*
X144650000Y-156300000D03*
X144650000Y-162300000D03*
X143000000Y-151850000D03*
X143450000Y-161300000D03*
X142550000Y-161800000D03*
X142550000Y-160800000D03*
X143750000Y-155800000D03*
X143450000Y-155300000D03*
X144950000Y-155800000D03*
X144350000Y-155800000D03*
X144950000Y-162800000D03*
X143000000Y-153500000D03*
X142850000Y-162300000D03*
X143150000Y-161800000D03*
X143750000Y-161800000D03*
X144600000Y-150500000D03*
X144600000Y-151250000D03*
X144050000Y-156300000D03*
X144650000Y-155300000D03*
X144600000Y-151850000D03*
X144950000Y-156800000D03*
X143750000Y-160800000D03*
X143750000Y-156800000D03*
X142550000Y-155800000D03*
X142850000Y-155300000D03*
X143150000Y-154800000D03*
X144600000Y-149150000D03*
X144350000Y-154800000D03*
%TO.N,VCC*%
X149475000Y-157700000D03*
%TO.N,GND*%
X137820230Y-161849775D03*
X152600000Y-150500000D03*
X135950000Y-153200000D03*
X154900000Y-159300000D03*
X136100000Y-161850000D03*
X152700000Y-164400000D03*
X151000000Y-151850000D03*
X145150000Y-164400000D03*
X152000000Y-149150000D03*
X136125000Y-159300000D03*
X153150000Y-161850000D03*
X152000000Y-164400000D03*
X141400000Y-164400000D03*
X150400000Y-149750000D03*
X138300000Y-164400000D03*
X150400000Y-149150000D03*
X152600000Y-149750000D03*
X139900000Y-164400000D03*
X152000000Y-151850000D03*
X140650000Y-164400000D03*
X142250000Y-164400000D03*
X154900000Y-161850000D03*
X145800000Y-164400000D03*
X155000000Y-153200000D03*
X155050000Y-164300000D03*
X154900000Y-156775000D03*
X152600000Y-151250000D03*
X137850000Y-154250000D03*
X149900000Y-164400000D03*
X148599503Y-164400000D03*
X153100000Y-154250000D03*
X150400000Y-151850000D03*
X150400000Y-150500000D03*
X152600000Y-149150000D03*
X136075000Y-156775000D03*
X151000000Y-149150000D03*
X137850000Y-159300000D03*
X151000000Y-153500000D03*
X150600000Y-164400000D03*
X152600000Y-151850000D03*
X147200498Y-164400000D03*
X153150000Y-159300000D03*
X145625000Y-157285000D03*
X150400000Y-151250000D03*
X151300000Y-164400000D03*
X149250000Y-164400000D03*
X136075000Y-154250000D03*
X143825000Y-164400000D03*
X135950000Y-164300000D03*
X144500000Y-164400000D03*
X154900000Y-154250000D03*
X137825000Y-156775000D03*
%TO.N,/A_FET_P1*%
X138336801Y-157439387D03*
X146725000Y-161700000D03*
X151200000Y-159500000D03*
%TO.N,/A_FET_N1*%
X151100000Y-161000000D03*
X139200000Y-164400000D03*
%TO.N,/A_FET_N1_HS*%
X151374500Y-155000000D03*
X146500000Y-164400000D03*
%TO.N,/A_FET_N2_HS*%
X147900001Y-164400000D03*
X153147731Y-156754538D03*
%TO.N,/A_FET_P2*%
X151200000Y-158000000D03*
X148275000Y-161700000D03*
X141850000Y-157400000D03*
%TO.N,/A_FET_N2*%
X141842774Y-163152480D03*
X142950000Y-164400000D03*
X151100000Y-162500000D03*
%TO.N,Net-(Q1-D)*%
X147850000Y-156300000D03*
X148750000Y-154800000D03*
X146950000Y-154800000D03*
X146350000Y-155800000D03*
X147950000Y-151850000D03*
X148450000Y-156300000D03*
X146650000Y-155300000D03*
X148550000Y-150500000D03*
X148550000Y-151850000D03*
X146950000Y-156800000D03*
X146350000Y-151250000D03*
X146950000Y-149150000D03*
X147550000Y-156800000D03*
X148550000Y-149750000D03*
X148150000Y-156800000D03*
X146350000Y-149150000D03*
X146350000Y-151850000D03*
X148450000Y-155300000D03*
X146350000Y-149750000D03*
X146950000Y-151850000D03*
X146350000Y-154800000D03*
X148750000Y-155800000D03*
X148150000Y-154800000D03*
X146350000Y-150500000D03*
X146650000Y-156300000D03*
X147250000Y-156300000D03*
X147850000Y-155300000D03*
X147250000Y-155300000D03*
X147550000Y-155800000D03*
X148750000Y-156800000D03*
X148550000Y-151250000D03*
X147950000Y-149150000D03*
X148150000Y-155800000D03*
X148550000Y-149150000D03*
X147550000Y-154800000D03*
X146350000Y-156800000D03*
X148000000Y-153500000D03*
X146950000Y-155800000D03*
%TD*%
%TA.AperFunction,Conductor*%
%TO.N,/A_MOTOR+*%
G36*
X140842539Y-148870185D02*
G01*
X140888294Y-148922989D01*
X140899500Y-148974500D01*
X140899500Y-152317660D01*
X140929610Y-152449587D01*
X140988324Y-152571505D01*
X140988325Y-152571507D01*
X141072695Y-152677305D01*
X141178493Y-152761675D01*
X141300412Y-152820389D01*
X141300414Y-152820389D01*
X141313001Y-152826451D01*
X141312337Y-152827827D01*
X141359068Y-152853965D01*
X141391928Y-152915625D01*
X141394500Y-152940750D01*
X141394500Y-152942005D01*
X141394500Y-153770727D01*
X141394916Y-153774300D01*
X141399168Y-153810821D01*
X141400000Y-153825161D01*
X141400000Y-153900000D01*
X141781409Y-154662818D01*
X141794500Y-154718272D01*
X141794500Y-156853951D01*
X141774815Y-156920990D01*
X141722011Y-156966745D01*
X141705434Y-156972928D01*
X141660931Y-156985994D01*
X141551950Y-157056033D01*
X141467118Y-157153935D01*
X141413302Y-157271773D01*
X141394867Y-157400000D01*
X141413302Y-157528226D01*
X141467118Y-157646064D01*
X141501247Y-157685451D01*
X141551951Y-157743967D01*
X141660931Y-157814004D01*
X141705433Y-157827070D01*
X141764211Y-157864843D01*
X141793238Y-157928399D01*
X141794500Y-157946048D01*
X141794500Y-162604309D01*
X141774815Y-162671348D01*
X141722011Y-162717103D01*
X141705435Y-162723286D01*
X141653705Y-162738475D01*
X141544724Y-162808513D01*
X141459892Y-162906415D01*
X141406076Y-163024253D01*
X141396100Y-163093646D01*
X141367075Y-163157202D01*
X141308297Y-163194977D01*
X141273362Y-163200000D01*
X138224500Y-163200000D01*
X138157461Y-163180315D01*
X138111706Y-163127511D01*
X138100500Y-163076000D01*
X138100500Y-162606751D01*
X138100500Y-162606750D01*
X138100500Y-162604306D01*
X138100308Y-162601870D01*
X138100213Y-162599443D01*
X138100323Y-162601315D01*
X138100000Y-162593078D01*
X138100000Y-162261086D01*
X138119685Y-162194047D01*
X138130287Y-162179884D01*
X138203111Y-162095839D01*
X138203110Y-162095839D01*
X138203112Y-162095838D01*
X138256927Y-161978001D01*
X138275363Y-161849775D01*
X138256927Y-161721549D01*
X138238180Y-161680500D01*
X138203112Y-161603712D01*
X138130286Y-161519665D01*
X138101262Y-161456109D01*
X138100000Y-161438463D01*
X138100000Y-161106922D01*
X138100323Y-161098691D01*
X138100213Y-161100558D01*
X138100308Y-161098129D01*
X138100500Y-161095694D01*
X138100500Y-160064306D01*
X138100308Y-160061870D01*
X138100213Y-160059443D01*
X138100323Y-160061315D01*
X138100000Y-160053078D01*
X138100000Y-159742555D01*
X138119685Y-159675516D01*
X138137116Y-159658086D01*
X138136373Y-159657442D01*
X138175818Y-159611919D01*
X138232882Y-159546063D01*
X138286697Y-159428226D01*
X138305133Y-159300000D01*
X138286697Y-159171774D01*
X138272414Y-159140500D01*
X138232882Y-159053937D01*
X138136374Y-158942559D01*
X138138629Y-158940604D01*
X138111203Y-158908949D01*
X138100000Y-158857444D01*
X138100000Y-158566922D01*
X138100323Y-158558691D01*
X138100213Y-158560558D01*
X138100308Y-158558129D01*
X138100500Y-158555694D01*
X138100500Y-158005165D01*
X138120185Y-157938127D01*
X138172989Y-157892372D01*
X138242147Y-157882428D01*
X138259432Y-157886188D01*
X138272029Y-157889887D01*
X138401574Y-157889887D01*
X138525869Y-157853392D01*
X138573103Y-157823036D01*
X138634850Y-157783354D01*
X138719683Y-157685450D01*
X138773498Y-157567613D01*
X138791934Y-157439387D01*
X138773498Y-157311161D01*
X138755510Y-157271774D01*
X138719682Y-157193322D01*
X138634850Y-157095420D01*
X138525869Y-157025381D01*
X138401574Y-156988887D01*
X138401573Y-156988887D01*
X138392485Y-156988887D01*
X138325446Y-156969202D01*
X138279691Y-156916398D01*
X138269747Y-156847241D01*
X138273731Y-156819520D01*
X138280133Y-156775000D01*
X138261697Y-156646774D01*
X138207882Y-156528937D01*
X138130286Y-156439385D01*
X138101262Y-156375829D01*
X138100000Y-156358183D01*
X138100000Y-156026922D01*
X138100323Y-156018691D01*
X138100213Y-156020558D01*
X138100308Y-156018129D01*
X138100500Y-156015694D01*
X138100500Y-154984306D01*
X138100308Y-154981870D01*
X138100213Y-154979443D01*
X138100323Y-154981315D01*
X138100000Y-154973078D01*
X138100000Y-154692555D01*
X138119685Y-154625516D01*
X138137116Y-154608086D01*
X138136373Y-154607442D01*
X138148049Y-154593967D01*
X138232882Y-154496063D01*
X138286697Y-154378226D01*
X138305133Y-154250000D01*
X138286697Y-154121774D01*
X138232882Y-154003937D01*
X138148049Y-153906033D01*
X138136374Y-153892559D01*
X138138629Y-153890604D01*
X138111203Y-153858949D01*
X138100000Y-153807444D01*
X138100000Y-152900000D01*
X137983478Y-152783478D01*
X137949993Y-152722155D01*
X137954977Y-152652463D01*
X137974209Y-152618488D01*
X138011675Y-152571507D01*
X138070389Y-152449588D01*
X138100500Y-152317660D01*
X138100500Y-152250000D01*
X138100500Y-152223071D01*
X138100500Y-148974500D01*
X138120185Y-148907461D01*
X138172989Y-148861706D01*
X138224500Y-148850500D01*
X140775500Y-148850500D01*
X140842539Y-148870185D01*
G37*
%TD.AperFunction*%
%TD*%
%TA.AperFunction,Conductor*%
%TO.N,/A_MOTOR-*%
G36*
X144842539Y-148870185D02*
G01*
X144888294Y-148922989D01*
X144899500Y-148974500D01*
X144899500Y-152317660D01*
X144929610Y-152449587D01*
X144988324Y-152571505D01*
X144988325Y-152571507D01*
X145072695Y-152677305D01*
X145178493Y-152761675D01*
X145300412Y-152820389D01*
X145303590Y-152821114D01*
X145364567Y-152855219D01*
X145397428Y-152916879D01*
X145400000Y-152942005D01*
X145400000Y-156826378D01*
X145380315Y-156893417D01*
X145343042Y-156930691D01*
X145333782Y-156936642D01*
X145326949Y-156941034D01*
X145242118Y-157038935D01*
X145188302Y-157156773D01*
X145169867Y-157285000D01*
X145188302Y-157413226D01*
X145242117Y-157531062D01*
X145326951Y-157628967D01*
X145343039Y-157639306D01*
X145388794Y-157692110D01*
X145400000Y-157743622D01*
X145400000Y-163076000D01*
X145380315Y-163143039D01*
X145327511Y-163188794D01*
X145276000Y-163200000D01*
X142412186Y-163200000D01*
X142345147Y-163180315D01*
X142299392Y-163127511D01*
X142289448Y-163093646D01*
X142279471Y-163024253D01*
X142225655Y-162906415D01*
X142140823Y-162808513D01*
X142056960Y-162754617D01*
X142011205Y-162701813D01*
X142000000Y-162650302D01*
X142000000Y-157906821D01*
X142019685Y-157839782D01*
X142056961Y-157802506D01*
X142094886Y-157778132D01*
X142148049Y-157743967D01*
X142232882Y-157646063D01*
X142286697Y-157528226D01*
X142305133Y-157400000D01*
X142286697Y-157271774D01*
X142276981Y-157250500D01*
X142232881Y-157153935D01*
X142148048Y-157056032D01*
X142056961Y-156997494D01*
X142011206Y-156944690D01*
X142000000Y-156893179D01*
X142000000Y-154599999D01*
X141613091Y-153826181D01*
X141600000Y-153770727D01*
X141600000Y-152942005D01*
X141619685Y-152874966D01*
X141672489Y-152829211D01*
X141696403Y-152821115D01*
X141699588Y-152820389D01*
X141821507Y-152761675D01*
X141927305Y-152677305D01*
X142011675Y-152571507D01*
X142070389Y-152449588D01*
X142100500Y-152317660D01*
X142100500Y-152250000D01*
X142100500Y-152223071D01*
X142100500Y-148974500D01*
X142120185Y-148907461D01*
X142172989Y-148861706D01*
X142224500Y-148850500D01*
X144775500Y-148850500D01*
X144842539Y-148870185D01*
G37*
%TD.AperFunction*%
%TD*%
%TA.AperFunction,Conductor*%
%TO.N,GND*%
G36*
X152842539Y-148870185D02*
G01*
X152888294Y-148922989D01*
X152899500Y-148974500D01*
X152899500Y-152317660D01*
X152929610Y-152449587D01*
X152988324Y-152571505D01*
X152988325Y-152571507D01*
X153072695Y-152677305D01*
X153178493Y-152761675D01*
X153300411Y-152820388D01*
X153300412Y-152820389D01*
X153432339Y-152850500D01*
X153432340Y-152850500D01*
X153484083Y-152850500D01*
X155275500Y-152850500D01*
X155342539Y-152870185D01*
X155388294Y-152922989D01*
X155399500Y-152974500D01*
X155399500Y-164525500D01*
X155379815Y-164592539D01*
X155327011Y-164638294D01*
X155275500Y-164649500D01*
X148462365Y-164649500D01*
X148395326Y-164629815D01*
X148349571Y-164577011D01*
X148339627Y-164507853D01*
X148355134Y-164400000D01*
X148336698Y-164271774D01*
X148311956Y-164217598D01*
X148282882Y-164153935D01*
X148198050Y-164056033D01*
X148089069Y-163985994D01*
X147964774Y-163949500D01*
X147964773Y-163949500D01*
X147835229Y-163949500D01*
X147835228Y-163949500D01*
X147710932Y-163985994D01*
X147601951Y-164056033D01*
X147517119Y-164153935D01*
X147463303Y-164271773D01*
X147444868Y-164399999D01*
X147460375Y-164507853D01*
X147450431Y-164577012D01*
X147404676Y-164629816D01*
X147337637Y-164649500D01*
X147062364Y-164649500D01*
X146995325Y-164629815D01*
X146949570Y-164577011D01*
X146939626Y-164507853D01*
X146955133Y-164400000D01*
X146936697Y-164271774D01*
X146911955Y-164217598D01*
X146882881Y-164153935D01*
X146798049Y-164056033D01*
X146689068Y-163985994D01*
X146564773Y-163949500D01*
X146564772Y-163949500D01*
X146435228Y-163949500D01*
X146435227Y-163949500D01*
X146310931Y-163985994D01*
X146201950Y-164056033D01*
X146117118Y-164153935D01*
X146063302Y-164271773D01*
X146044867Y-164399999D01*
X146060374Y-164507853D01*
X146050430Y-164577012D01*
X146004675Y-164629816D01*
X145937636Y-164649500D01*
X143512364Y-164649500D01*
X143445325Y-164629815D01*
X143399570Y-164577011D01*
X143389626Y-164507853D01*
X143405133Y-164400000D01*
X143386697Y-164271774D01*
X143361955Y-164217598D01*
X143332881Y-164153935D01*
X143248049Y-164056033D01*
X143139068Y-163985994D01*
X143014773Y-163949500D01*
X143014772Y-163949500D01*
X142885228Y-163949500D01*
X142885227Y-163949500D01*
X142760931Y-163985994D01*
X142651950Y-164056033D01*
X142567118Y-164153935D01*
X142513302Y-164271773D01*
X142494867Y-164399999D01*
X142510374Y-164507853D01*
X142500430Y-164577012D01*
X142454675Y-164629816D01*
X142387636Y-164649500D01*
X139762364Y-164649500D01*
X139695325Y-164629815D01*
X139649570Y-164577011D01*
X139639626Y-164507853D01*
X139655133Y-164400000D01*
X139636697Y-164271774D01*
X139611955Y-164217598D01*
X139582881Y-164153935D01*
X139498049Y-164056033D01*
X139389068Y-163985994D01*
X139264773Y-163949500D01*
X139264772Y-163949500D01*
X139135228Y-163949500D01*
X139135227Y-163949500D01*
X139010931Y-163985994D01*
X138901950Y-164056033D01*
X138817118Y-164153935D01*
X138763302Y-164271773D01*
X138744867Y-164399999D01*
X138760374Y-164507853D01*
X138750430Y-164577012D01*
X138704675Y-164629816D01*
X138637636Y-164649500D01*
X135724500Y-164649500D01*
X135657461Y-164629815D01*
X135611706Y-164577011D01*
X135600500Y-164525500D01*
X135600500Y-152974500D01*
X135620185Y-152907461D01*
X135672989Y-152861706D01*
X135724500Y-152850500D01*
X137567659Y-152850500D01*
X137567660Y-152850500D01*
X137670284Y-152827077D01*
X137740020Y-152831350D01*
X137796378Y-152872649D01*
X137797934Y-152875043D01*
X137838166Y-152928786D01*
X137838167Y-152928787D01*
X137838168Y-152928788D01*
X137858181Y-152948801D01*
X137891666Y-153010122D01*
X137894500Y-153036482D01*
X137894500Y-153807444D01*
X137894852Y-153810722D01*
X137894853Y-153810734D01*
X137898839Y-153847815D01*
X137898840Y-153847824D01*
X137899195Y-153851122D01*
X137899901Y-153854370D01*
X137899902Y-153854373D01*
X137910398Y-153902627D01*
X137910765Y-153904172D01*
X137912871Y-153912775D01*
X137955889Y-153993514D01*
X137965608Y-154004731D01*
X137980708Y-154026719D01*
X138046553Y-154102710D01*
X138065631Y-154132396D01*
X138080087Y-154164050D01*
X138090031Y-154197915D01*
X138094982Y-154232354D01*
X138094982Y-154267644D01*
X138090031Y-154302083D01*
X138080087Y-154335951D01*
X138065633Y-154367600D01*
X138046553Y-154397288D01*
X137981065Y-154472868D01*
X137984015Y-154469267D01*
X137975515Y-154479048D01*
X137974890Y-154479689D01*
X137974379Y-154480201D01*
X137973835Y-154480773D01*
X137973335Y-154481287D01*
X137967167Y-154487781D01*
X137922509Y-154567618D01*
X137909660Y-154611378D01*
X137902825Y-154634657D01*
X137894500Y-154692555D01*
X137894500Y-154973078D01*
X137894552Y-154975777D01*
X137894457Y-154976944D01*
X137894905Y-154988373D01*
X137895000Y-154993225D01*
X137895000Y-156007251D01*
X137894918Y-156011275D01*
X137894870Y-156012527D01*
X137894885Y-156012611D01*
X137894454Y-156023248D01*
X137894548Y-156024463D01*
X137894500Y-156026922D01*
X137894500Y-156351865D01*
X137894500Y-156358192D01*
X137894559Y-156360402D01*
X137895024Y-156372842D01*
X137895162Y-156375043D01*
X137896274Y-156390442D01*
X137914331Y-156461195D01*
X137943354Y-156524749D01*
X137974979Y-156573960D01*
X138021552Y-156627709D01*
X138040631Y-156657396D01*
X138055087Y-156689050D01*
X138065031Y-156722915D01*
X138069982Y-156757355D01*
X138069983Y-156792642D01*
X138066338Y-156817999D01*
X138066338Y-156876487D01*
X138076013Y-156943774D01*
X138076017Y-156943800D01*
X138076283Y-156945646D01*
X138076661Y-156947477D01*
X138076666Y-156947501D01*
X138081975Y-156973161D01*
X138076279Y-157042798D01*
X138047971Y-157079818D01*
X138050427Y-157081946D01*
X137953919Y-157193322D01*
X137900103Y-157311160D01*
X137881668Y-157439386D01*
X137900103Y-157567613D01*
X137961325Y-157701667D01*
X137957579Y-157703377D01*
X137973373Y-157737951D01*
X137963436Y-157807110D01*
X137958857Y-157816143D01*
X137923011Y-157880226D01*
X137923010Y-157880228D01*
X137923010Y-157880229D01*
X137903325Y-157947267D01*
X137895743Y-158000000D01*
X137895000Y-158005168D01*
X137895000Y-158547251D01*
X137894918Y-158551275D01*
X137894870Y-158552527D01*
X137894885Y-158552611D01*
X137894454Y-158563248D01*
X137894548Y-158564463D01*
X137894500Y-158566922D01*
X137894500Y-158857444D01*
X137894852Y-158860722D01*
X137894853Y-158860734D01*
X137898839Y-158897815D01*
X137898840Y-158897824D01*
X137899195Y-158901122D01*
X137899901Y-158904370D01*
X137899902Y-158904373D01*
X137910398Y-158952627D01*
X137910765Y-158954172D01*
X137912871Y-158962775D01*
X137912884Y-158962799D01*
X137955889Y-159043514D01*
X137961075Y-159049500D01*
X137965608Y-159054731D01*
X137980708Y-159076719D01*
X138046553Y-159152710D01*
X138065631Y-159182396D01*
X138080087Y-159214050D01*
X138090031Y-159247915D01*
X138094982Y-159282354D01*
X138094982Y-159317644D01*
X138090031Y-159352083D01*
X138080087Y-159385951D01*
X138065633Y-159417600D01*
X138046553Y-159447288D01*
X137981065Y-159522868D01*
X137984015Y-159519267D01*
X137975515Y-159529048D01*
X137974890Y-159529689D01*
X137974379Y-159530201D01*
X137973835Y-159530773D01*
X137973335Y-159531287D01*
X137956427Y-159549093D01*
X137955104Y-159547836D01*
X137919440Y-159582775D01*
X137851018Y-159596926D01*
X137798013Y-159580071D01*
X137710398Y-159528256D01*
X137710397Y-159528255D01*
X137710396Y-159528255D01*
X137552572Y-159482402D01*
X137518128Y-159479691D01*
X137518114Y-159479690D01*
X137515694Y-159479500D01*
X136484306Y-159479500D01*
X136481886Y-159479690D01*
X136481871Y-159479691D01*
X136447427Y-159482402D01*
X136289602Y-159528255D01*
X136148134Y-159611919D01*
X136031919Y-159728134D01*
X135948255Y-159869602D01*
X135902402Y-160027427D01*
X135899691Y-160061871D01*
X135899690Y-160061886D01*
X135899500Y-160064306D01*
X135899500Y-161095694D01*
X135899690Y-161098114D01*
X135899691Y-161098128D01*
X135902402Y-161132572D01*
X135948255Y-161290397D01*
X135948256Y-161290398D01*
X136031919Y-161431865D01*
X136148135Y-161548081D01*
X136188198Y-161571774D01*
X136289602Y-161631744D01*
X136447427Y-161677597D01*
X136447431Y-161677598D01*
X136484306Y-161680500D01*
X136486751Y-161680500D01*
X137513249Y-161680500D01*
X137515694Y-161680500D01*
X137552569Y-161677598D01*
X137710398Y-161631744D01*
X137788798Y-161585378D01*
X137856520Y-161568195D01*
X137922782Y-161590354D01*
X137956234Y-161625072D01*
X137974977Y-161654238D01*
X138016782Y-161702484D01*
X138035861Y-161732171D01*
X138050317Y-161763825D01*
X138060261Y-161797690D01*
X138065212Y-161832129D01*
X138065212Y-161867420D01*
X138060261Y-161901857D01*
X138050316Y-161935724D01*
X138035859Y-161967379D01*
X138016781Y-161997066D01*
X137974979Y-162045311D01*
X137974918Y-162045385D01*
X137973563Y-162047036D01*
X137965774Y-162056735D01*
X137964440Y-162058485D01*
X137948524Y-162079780D01*
X137945231Y-162077315D01*
X137912054Y-162112851D01*
X137844330Y-162130036D01*
X137785808Y-162112853D01*
X137710397Y-162068255D01*
X137552572Y-162022402D01*
X137518128Y-162019691D01*
X137518114Y-162019690D01*
X137515694Y-162019500D01*
X136484306Y-162019500D01*
X136481886Y-162019690D01*
X136481871Y-162019691D01*
X136447427Y-162022402D01*
X136289602Y-162068255D01*
X136148134Y-162151919D01*
X136031919Y-162268134D01*
X135948255Y-162409602D01*
X135902402Y-162567427D01*
X135899691Y-162601871D01*
X135899690Y-162601886D01*
X135899500Y-162604306D01*
X135899500Y-163635694D01*
X135899690Y-163638114D01*
X135899691Y-163638128D01*
X135902402Y-163672572D01*
X135948255Y-163830397D01*
X135948256Y-163830398D01*
X136031919Y-163971865D01*
X136148135Y-164088081D01*
X136259492Y-164153937D01*
X136289602Y-164171744D01*
X136447427Y-164217597D01*
X136447431Y-164217598D01*
X136484306Y-164220500D01*
X136486751Y-164220500D01*
X137513249Y-164220500D01*
X137515694Y-164220500D01*
X137552569Y-164217598D01*
X137710398Y-164171744D01*
X137851865Y-164088081D01*
X137968081Y-163971865D01*
X138051744Y-163830398D01*
X138097598Y-163672569D01*
X138100500Y-163635694D01*
X138100500Y-163529499D01*
X138120185Y-163462461D01*
X138172989Y-163416706D01*
X138224500Y-163405500D01*
X141271148Y-163405500D01*
X141273362Y-163405500D01*
X141302608Y-163403408D01*
X141337543Y-163398385D01*
X141349235Y-163394023D01*
X141418925Y-163389037D01*
X141480250Y-163422519D01*
X141486263Y-163428978D01*
X141544725Y-163496447D01*
X141587361Y-163523848D01*
X141653705Y-163566485D01*
X141778001Y-163602980D01*
X141778002Y-163602980D01*
X141907547Y-163602980D01*
X142031842Y-163566485D01*
X142051313Y-163553971D01*
X142140823Y-163496447D01*
X142200506Y-163427568D01*
X142259280Y-163389794D01*
X142329147Y-163389793D01*
X142354288Y-163397175D01*
X142412186Y-163405500D01*
X142412190Y-163405500D01*
X145272678Y-163405500D01*
X145276000Y-163405500D01*
X145319684Y-163400803D01*
X145371195Y-163389597D01*
X145372732Y-163389232D01*
X145381350Y-163387121D01*
X145381368Y-163387111D01*
X145381373Y-163387110D01*
X145462085Y-163344100D01*
X145514889Y-163298345D01*
X145532843Y-163280754D01*
X145577490Y-163200937D01*
X145597175Y-163133898D01*
X145605500Y-163076000D01*
X145605500Y-162500000D01*
X150644867Y-162500000D01*
X150663302Y-162628226D01*
X150717118Y-162746064D01*
X150801950Y-162843966D01*
X150801951Y-162843967D01*
X150830640Y-162862404D01*
X150910931Y-162914005D01*
X151035227Y-162950500D01*
X151035228Y-162950500D01*
X151164773Y-162950500D01*
X151289068Y-162914005D01*
X151317758Y-162895566D01*
X151398049Y-162843967D01*
X151482882Y-162746063D01*
X151536697Y-162628226D01*
X151555133Y-162500000D01*
X151536697Y-162371774D01*
X151482882Y-162253937D01*
X151482881Y-162253936D01*
X151482881Y-162253935D01*
X151398049Y-162156033D01*
X151289068Y-162085994D01*
X151164773Y-162049500D01*
X151164772Y-162049500D01*
X151035228Y-162049500D01*
X151035227Y-162049500D01*
X150910931Y-162085994D01*
X150801950Y-162156033D01*
X150717118Y-162253935D01*
X150663302Y-162371773D01*
X150644867Y-162500000D01*
X145605500Y-162500000D01*
X145605500Y-161700000D01*
X146269867Y-161700000D01*
X146288302Y-161828226D01*
X146342118Y-161946064D01*
X146405916Y-162019691D01*
X146426951Y-162043967D01*
X146449542Y-162058485D01*
X146535931Y-162114005D01*
X146660227Y-162150500D01*
X146660228Y-162150500D01*
X146789773Y-162150500D01*
X146914068Y-162114005D01*
X146957650Y-162085996D01*
X147023049Y-162043967D01*
X147107882Y-161946063D01*
X147161697Y-161828226D01*
X147180133Y-161700000D01*
X147819867Y-161700000D01*
X147838302Y-161828226D01*
X147892118Y-161946064D01*
X147955916Y-162019691D01*
X147976951Y-162043967D01*
X147999542Y-162058485D01*
X148085931Y-162114005D01*
X148210227Y-162150500D01*
X148210228Y-162150500D01*
X148339773Y-162150500D01*
X148464068Y-162114005D01*
X148507650Y-162085996D01*
X148573049Y-162043967D01*
X148657882Y-161946063D01*
X148711697Y-161828226D01*
X148730133Y-161700000D01*
X148711697Y-161571774D01*
X148700876Y-161548080D01*
X148657881Y-161453935D01*
X148573049Y-161356033D01*
X148464068Y-161285994D01*
X148339773Y-161249500D01*
X148339772Y-161249500D01*
X148210228Y-161249500D01*
X148210227Y-161249500D01*
X148085931Y-161285994D01*
X147976950Y-161356033D01*
X147892118Y-161453935D01*
X147838302Y-161571773D01*
X147819867Y-161700000D01*
X147180133Y-161700000D01*
X147161697Y-161571774D01*
X147150876Y-161548080D01*
X147107881Y-161453935D01*
X147023049Y-161356033D01*
X146914068Y-161285994D01*
X146789773Y-161249500D01*
X146789772Y-161249500D01*
X146660228Y-161249500D01*
X146660227Y-161249500D01*
X146535931Y-161285994D01*
X146426950Y-161356033D01*
X146342118Y-161453935D01*
X146288302Y-161571773D01*
X146269867Y-161700000D01*
X145605500Y-161700000D01*
X145605500Y-161000000D01*
X150644867Y-161000000D01*
X150663302Y-161128226D01*
X150717118Y-161246064D01*
X150801950Y-161343966D01*
X150801951Y-161343967D01*
X150820726Y-161356033D01*
X150910931Y-161414005D01*
X151035227Y-161450500D01*
X151035228Y-161450500D01*
X151164773Y-161450500D01*
X151289068Y-161414005D01*
X151317758Y-161395566D01*
X151398049Y-161343967D01*
X151482882Y-161246063D01*
X151536697Y-161128226D01*
X151541374Y-161095694D01*
X152899500Y-161095694D01*
X152899690Y-161098114D01*
X152899691Y-161098128D01*
X152902402Y-161132572D01*
X152948255Y-161290397D01*
X152948256Y-161290398D01*
X153031919Y-161431865D01*
X153148135Y-161548081D01*
X153188198Y-161571774D01*
X153289602Y-161631744D01*
X153447427Y-161677597D01*
X153447431Y-161677598D01*
X153484306Y-161680500D01*
X153486751Y-161680500D01*
X154513249Y-161680500D01*
X154515694Y-161680500D01*
X154552569Y-161677598D01*
X154710398Y-161631744D01*
X154851865Y-161548081D01*
X154968081Y-161431865D01*
X155051744Y-161290398D01*
X155097598Y-161132569D01*
X155100500Y-161095694D01*
X155100500Y-160064306D01*
X155097598Y-160027431D01*
X155051744Y-159869602D01*
X154968081Y-159728135D01*
X154851865Y-159611919D01*
X154745632Y-159549093D01*
X154710397Y-159528255D01*
X154552572Y-159482402D01*
X154518128Y-159479691D01*
X154518114Y-159479690D01*
X154515694Y-159479500D01*
X153484306Y-159479500D01*
X153481886Y-159479690D01*
X153481871Y-159479691D01*
X153447427Y-159482402D01*
X153289602Y-159528255D01*
X153148134Y-159611919D01*
X153031919Y-159728134D01*
X152948255Y-159869602D01*
X152902402Y-160027427D01*
X152899691Y-160061871D01*
X152899690Y-160061886D01*
X152899500Y-160064306D01*
X152899500Y-161095694D01*
X151541374Y-161095694D01*
X151555133Y-161000000D01*
X151536697Y-160871774D01*
X151482882Y-160753937D01*
X151482881Y-160753936D01*
X151482881Y-160753935D01*
X151398049Y-160656033D01*
X151289068Y-160585994D01*
X151164773Y-160549500D01*
X151164772Y-160549500D01*
X151035228Y-160549500D01*
X151035227Y-160549500D01*
X150910931Y-160585994D01*
X150801950Y-160656033D01*
X150717118Y-160753935D01*
X150663302Y-160871773D01*
X150644867Y-161000000D01*
X145605500Y-161000000D01*
X145605500Y-159500000D01*
X150744867Y-159500000D01*
X150763302Y-159628226D01*
X150817118Y-159746064D01*
X150901950Y-159843966D01*
X150901951Y-159843967D01*
X150930640Y-159862404D01*
X151010931Y-159914005D01*
X151135227Y-159950500D01*
X151135228Y-159950500D01*
X151264773Y-159950500D01*
X151389068Y-159914005D01*
X151417758Y-159895566D01*
X151498049Y-159843967D01*
X151582882Y-159746063D01*
X151636697Y-159628226D01*
X151655133Y-159500000D01*
X151636697Y-159371774D01*
X151635764Y-159369732D01*
X151582881Y-159253935D01*
X151498049Y-159156033D01*
X151389068Y-159085994D01*
X151264773Y-159049500D01*
X151264772Y-159049500D01*
X151135228Y-159049500D01*
X151135227Y-159049500D01*
X151010931Y-159085994D01*
X150901950Y-159156033D01*
X150817118Y-159253935D01*
X150763302Y-159371773D01*
X150744867Y-159500000D01*
X145605500Y-159500000D01*
X145605500Y-157743622D01*
X145600803Y-157699939D01*
X145589597Y-157648427D01*
X145589230Y-157646881D01*
X145587122Y-157638270D01*
X145544100Y-157557535D01*
X145498347Y-157504734D01*
X145476431Y-157485743D01*
X145463921Y-157473233D01*
X145428442Y-157432287D01*
X145409366Y-157402602D01*
X145394911Y-157370951D01*
X145384969Y-157337092D01*
X145380016Y-157302638D01*
X145380016Y-157267359D01*
X145384969Y-157232904D01*
X145394909Y-157199052D01*
X145409371Y-157167385D01*
X145428445Y-157137707D01*
X145459750Y-157101578D01*
X145475651Y-157086235D01*
X145488354Y-157075999D01*
X145503432Y-157060920D01*
X145564750Y-157027433D01*
X145627765Y-157031935D01*
X145628162Y-157030585D01*
X145634366Y-157032406D01*
X145634442Y-157032412D01*
X145634581Y-157032469D01*
X145636668Y-157033081D01*
X145636673Y-157033084D01*
X145710718Y-157054824D01*
X145742823Y-157069486D01*
X145772094Y-157088298D01*
X145798766Y-157111410D01*
X145864250Y-157186983D01*
X145866808Y-157189340D01*
X145866812Y-157189344D01*
X145882345Y-157203656D01*
X145891601Y-157213198D01*
X145890588Y-157212064D01*
X145891858Y-157213442D01*
X145893111Y-157214888D01*
X145910704Y-157232843D01*
X145990521Y-157277490D01*
X146057560Y-157297175D01*
X146115458Y-157305500D01*
X148966959Y-157305500D01*
X149033998Y-157325185D01*
X149079753Y-157377989D01*
X149089697Y-157447147D01*
X149079753Y-157481012D01*
X149038302Y-157571773D01*
X149019867Y-157700000D01*
X149038302Y-157828226D01*
X149092118Y-157946064D01*
X149143329Y-158005165D01*
X149176951Y-158043967D01*
X149205640Y-158062404D01*
X149285931Y-158114005D01*
X149410227Y-158150500D01*
X149410228Y-158150500D01*
X149539773Y-158150500D01*
X149664068Y-158114005D01*
X149692758Y-158095566D01*
X149773049Y-158043967D01*
X149811146Y-158000000D01*
X150744867Y-158000000D01*
X150763302Y-158128226D01*
X150817118Y-158246064D01*
X150901950Y-158343966D01*
X150901951Y-158343967D01*
X150930640Y-158362404D01*
X151010931Y-158414005D01*
X151135227Y-158450500D01*
X151135228Y-158450500D01*
X151264773Y-158450500D01*
X151389068Y-158414005D01*
X151417758Y-158395566D01*
X151498049Y-158343967D01*
X151582882Y-158246063D01*
X151636697Y-158128226D01*
X151655133Y-158000000D01*
X151636697Y-157871774D01*
X151582882Y-157753937D01*
X151582881Y-157753936D01*
X151582881Y-157753935D01*
X151498049Y-157656033D01*
X151389068Y-157585994D01*
X151264773Y-157549500D01*
X151264772Y-157549500D01*
X151135228Y-157549500D01*
X151135227Y-157549500D01*
X151010931Y-157585994D01*
X150901950Y-157656033D01*
X150817118Y-157753935D01*
X150763302Y-157871773D01*
X150744867Y-158000000D01*
X149811146Y-158000000D01*
X149857882Y-157946063D01*
X149911697Y-157828226D01*
X149930133Y-157700000D01*
X149911697Y-157571774D01*
X149905194Y-157557535D01*
X149857881Y-157453935D01*
X149773049Y-157356033D01*
X149664068Y-157285994D01*
X149649986Y-157281860D01*
X149591208Y-157244086D01*
X149562182Y-157180531D01*
X149572125Y-157111372D01*
X149576697Y-157102353D01*
X149577490Y-157100937D01*
X149597175Y-157033898D01*
X149605500Y-156976000D01*
X149605500Y-156754538D01*
X152692598Y-156754538D01*
X152711033Y-156882764D01*
X152764849Y-157000602D01*
X152847009Y-157095420D01*
X152849682Y-157098505D01*
X152919628Y-157143456D01*
X152965382Y-157196259D01*
X152975326Y-157265418D01*
X152959321Y-157310890D01*
X152948255Y-157329601D01*
X152902402Y-157487427D01*
X152899691Y-157521871D01*
X152899690Y-157521886D01*
X152899500Y-157524306D01*
X152899500Y-158555694D01*
X152899690Y-158558114D01*
X152899691Y-158558128D01*
X152902402Y-158592572D01*
X152948255Y-158750397D01*
X153013508Y-158860734D01*
X153031919Y-158891865D01*
X153148135Y-159008081D01*
X153218171Y-159049500D01*
X153289602Y-159091744D01*
X153447427Y-159137597D01*
X153447431Y-159137598D01*
X153484306Y-159140500D01*
X153486751Y-159140500D01*
X154513249Y-159140500D01*
X154515694Y-159140500D01*
X154552569Y-159137598D01*
X154710398Y-159091744D01*
X154851865Y-159008081D01*
X154968081Y-158891865D01*
X155051744Y-158750398D01*
X155097598Y-158592569D01*
X155100500Y-158555694D01*
X155100500Y-157524306D01*
X155097598Y-157487431D01*
X155087866Y-157453935D01*
X155051744Y-157329602D01*
X155037490Y-157305500D01*
X154968081Y-157188135D01*
X154851865Y-157071919D01*
X154831451Y-157059846D01*
X154710397Y-156988255D01*
X154552572Y-156942402D01*
X154518128Y-156939691D01*
X154518114Y-156939690D01*
X154515694Y-156939500D01*
X154513249Y-156939500D01*
X153719374Y-156939500D01*
X153652335Y-156919815D01*
X153606580Y-156867011D01*
X153596636Y-156797853D01*
X153602864Y-156754538D01*
X153601082Y-156742145D01*
X153611025Y-156672989D01*
X153656780Y-156620185D01*
X153723819Y-156600500D01*
X154513249Y-156600500D01*
X154515694Y-156600500D01*
X154552569Y-156597598D01*
X154710398Y-156551744D01*
X154851865Y-156468081D01*
X154968081Y-156351865D01*
X155051744Y-156210398D01*
X155097598Y-156052569D01*
X155100500Y-156015694D01*
X155100500Y-154984306D01*
X155097598Y-154947431D01*
X155051744Y-154789602D01*
X154968081Y-154648135D01*
X154851865Y-154531919D01*
X154710397Y-154448255D01*
X154552572Y-154402402D01*
X154518128Y-154399691D01*
X154518114Y-154399690D01*
X154515694Y-154399500D01*
X153484306Y-154399500D01*
X153481886Y-154399690D01*
X153481871Y-154399691D01*
X153447427Y-154402402D01*
X153289602Y-154448255D01*
X153148134Y-154531919D01*
X153031919Y-154648134D01*
X152948255Y-154789602D01*
X152902402Y-154947427D01*
X152899691Y-154981871D01*
X152899690Y-154981886D01*
X152899500Y-154984306D01*
X152899500Y-156015694D01*
X152899690Y-156018114D01*
X152899691Y-156018128D01*
X152902402Y-156052572D01*
X152952626Y-156225441D01*
X152950946Y-156225928D01*
X152963250Y-156274425D01*
X152941090Y-156340687D01*
X152906377Y-156374135D01*
X152849680Y-156410572D01*
X152764849Y-156508473D01*
X152711033Y-156626311D01*
X152692598Y-156754538D01*
X149605500Y-156754538D01*
X149605500Y-155000000D01*
X150919367Y-155000000D01*
X150937802Y-155128226D01*
X150991618Y-155246064D01*
X151076450Y-155343966D01*
X151076451Y-155343967D01*
X151105140Y-155362404D01*
X151185431Y-155414005D01*
X151309727Y-155450500D01*
X151309728Y-155450500D01*
X151439273Y-155450500D01*
X151563568Y-155414005D01*
X151592258Y-155395566D01*
X151672549Y-155343967D01*
X151757382Y-155246063D01*
X151811197Y-155128226D01*
X151829633Y-155000000D01*
X151811197Y-154871774D01*
X151757382Y-154753937D01*
X151757381Y-154753936D01*
X151757381Y-154753935D01*
X151672549Y-154656033D01*
X151563568Y-154585994D01*
X151439273Y-154549500D01*
X151439272Y-154549500D01*
X151309728Y-154549500D01*
X151309727Y-154549500D01*
X151185431Y-154585994D01*
X151076450Y-154656033D01*
X150991618Y-154753935D01*
X150937802Y-154871773D01*
X150919367Y-155000000D01*
X149605500Y-155000000D01*
X149605500Y-152942005D01*
X149605524Y-152943877D01*
X149623468Y-152876413D01*
X149675082Y-152829320D01*
X149697370Y-152821456D01*
X149699583Y-152820390D01*
X149699588Y-152820389D01*
X149821507Y-152761675D01*
X149927305Y-152677305D01*
X150011675Y-152571507D01*
X150070389Y-152449588D01*
X150100500Y-152317660D01*
X150100500Y-152250000D01*
X150100500Y-152223071D01*
X150100500Y-148974500D01*
X150120185Y-148907461D01*
X150172989Y-148861706D01*
X150224500Y-148850500D01*
X152775500Y-148850500D01*
X152842539Y-148870185D01*
G37*
%TD.AperFunction*%
%TD*%
%TA.AperFunction,Conductor*%
%TO.N,Net-(Q1-D)*%
G36*
X148842539Y-148870185D02*
G01*
X148888294Y-148922989D01*
X148899500Y-148974500D01*
X148899500Y-152317660D01*
X148929610Y-152449587D01*
X148988324Y-152571505D01*
X148988325Y-152571507D01*
X149072695Y-152677305D01*
X149178493Y-152761675D01*
X149300412Y-152820389D01*
X149303590Y-152821114D01*
X149364567Y-152855219D01*
X149397428Y-152916879D01*
X149400000Y-152942005D01*
X149400000Y-156976000D01*
X149380315Y-157043039D01*
X149327511Y-157088794D01*
X149276000Y-157100000D01*
X146115458Y-157100000D01*
X146048419Y-157080315D01*
X146022231Y-157050092D01*
X146019557Y-157052410D01*
X145923049Y-156941033D01*
X145814068Y-156870994D01*
X145694566Y-156835907D01*
X145635788Y-156798134D01*
X145606762Y-156734578D01*
X145605500Y-156716930D01*
X145605500Y-152942005D01*
X145605524Y-152943877D01*
X145623468Y-152876413D01*
X145675082Y-152829320D01*
X145697374Y-152821454D01*
X145699583Y-152820390D01*
X145699588Y-152820389D01*
X145821507Y-152761675D01*
X145927305Y-152677305D01*
X146011675Y-152571507D01*
X146070389Y-152449588D01*
X146100500Y-152317660D01*
X146100500Y-152250000D01*
X146100500Y-152223071D01*
X146100500Y-148974499D01*
X146120185Y-148907461D01*
X146172989Y-148861706D01*
X146224500Y-148850500D01*
X148775500Y-148850500D01*
X148842539Y-148870185D01*
G37*
%TD.AperFunction*%
%TD*%
M02*
