%TF.GenerationSoftware,KiCad,Pcbnew,7.0.2-6a45011f42~172~ubuntu22.04.1*%
%TF.CreationDate,2023-05-29T23:07:21+12:00*%
%TF.ProjectId,THE_BRAWN-20A_POWER,5448455f-4252-4415-974e-2d3230415f50,v2.0*%
%TF.SameCoordinates,Original*%
%TF.FileFunction,Other,User*%
%FSLAX46Y46*%
G04 Gerber Fmt 4.6, Leading zero omitted, Abs format (unit mm)*
G04 Created by KiCad (PCBNEW 7.0.2-6a45011f42~172~ubuntu22.04.1) date 2023-05-29 23:07:21*
%MOMM*%
%LPD*%
G01*
G04 APERTURE LIST*
%ADD10C,0.050000*%
G04 APERTURE END LIST*
D10*
%TO.C,R7*%
X152830000Y-155730000D02*
X152830000Y-154270000D01*
X152830000Y-154270000D02*
X149870000Y-154270000D01*
X149870000Y-155730000D02*
X152830000Y-155730000D01*
X149870000Y-154270000D02*
X149870000Y-155730000D01*
%TO.C,R12*%
X149870000Y-161770000D02*
X149870000Y-163230000D01*
X149870000Y-163230000D02*
X152830000Y-163230000D01*
X152830000Y-161770000D02*
X149870000Y-161770000D01*
X152830000Y-163230000D02*
X152830000Y-161770000D01*
%TO.C,R5*%
X152830000Y-160280000D02*
X152830000Y-158820000D01*
X152830000Y-158820000D02*
X149870000Y-158820000D01*
X149870000Y-160280000D02*
X152830000Y-160280000D01*
X149870000Y-158820000D02*
X149870000Y-160280000D01*
%TO.C,R9*%
X152830000Y-157205000D02*
X152830000Y-155745000D01*
X152830000Y-155745000D02*
X149870000Y-155745000D01*
X149870000Y-157205000D02*
X152830000Y-157205000D01*
X149870000Y-155745000D02*
X149870000Y-157205000D01*
%TO.C,R6*%
X149870000Y-160295000D02*
X149870000Y-161755000D01*
X149870000Y-161755000D02*
X152830000Y-161755000D01*
X152830000Y-160295000D02*
X149870000Y-160295000D01*
X152830000Y-161755000D02*
X152830000Y-160295000D01*
%TO.C,Q10*%
X142050000Y-158250000D02*
X145450000Y-158250000D01*
X145450000Y-158250000D02*
X145450000Y-154250000D01*
X142050000Y-154250000D02*
X142050000Y-158250000D01*
X145450000Y-154250000D02*
X142050000Y-154250000D01*
%TO.C,Q8*%
X138300000Y-158250000D02*
X141700000Y-158250000D01*
X141700000Y-158250000D02*
X141700000Y-154250000D01*
X138300000Y-154250000D02*
X138300000Y-158250000D01*
X141700000Y-154250000D02*
X138300000Y-154250000D01*
%TO.C,R11*%
X152830000Y-158680000D02*
X152830000Y-157220000D01*
X152830000Y-157220000D02*
X149870000Y-157220000D01*
X149870000Y-158680000D02*
X152830000Y-158680000D01*
X149870000Y-157220000D02*
X149870000Y-158680000D01*
%TO.C,C11*%
X148020000Y-152770000D02*
X148020000Y-154230000D01*
X148020000Y-154230000D02*
X150980000Y-154230000D01*
X150980000Y-152770000D02*
X148020000Y-152770000D01*
X150980000Y-154230000D02*
X150980000Y-152770000D01*
%TO.C,Q9*%
X138300000Y-164250000D02*
X141700000Y-164250000D01*
X141700000Y-164250000D02*
X141700000Y-160250000D01*
X138300000Y-160250000D02*
X138300000Y-164250000D01*
X141700000Y-160250000D02*
X138300000Y-160250000D01*
%TO.C,Q1*%
X145800000Y-158250000D02*
X149200000Y-158250000D01*
X149200000Y-158250000D02*
X149200000Y-154250000D01*
X145800000Y-154250000D02*
X145800000Y-158250000D01*
X149200000Y-154250000D02*
X145800000Y-154250000D01*
%TO.C,Q11*%
X142050000Y-164250000D02*
X145450000Y-164250000D01*
X145450000Y-164250000D02*
X145450000Y-160250000D01*
X142050000Y-160250000D02*
X142050000Y-164250000D01*
X145450000Y-160250000D02*
X142050000Y-160250000D01*
%TO.C,C13*%
X140020000Y-152770000D02*
X140020000Y-154230000D01*
X140020000Y-154230000D02*
X142980000Y-154230000D01*
X142980000Y-152770000D02*
X140020000Y-152770000D01*
X142980000Y-154230000D02*
X142980000Y-152770000D01*
%TO.C,Q4*%
X145800000Y-164250000D02*
X149200000Y-164250000D01*
X149200000Y-164250000D02*
X149200000Y-160250000D01*
X145800000Y-160250000D02*
X145800000Y-164250000D01*
X149200000Y-160250000D02*
X145800000Y-160250000D01*
%TD*%
M02*
