%TF.GenerationSoftware,KiCad,Pcbnew,7.0.2-6a45011f42~172~ubuntu22.04.1*%
%TF.CreationDate,2023-05-29T23:07:21+12:00*%
%TF.ProjectId,THE_BRAWN-20A_POWER,5448455f-4252-4415-974e-2d3230415f50,v2.0*%
%TF.SameCoordinates,Original*%
%TF.FileFunction,Soldermask,Bot*%
%TF.FilePolarity,Negative*%
%FSLAX46Y46*%
G04 Gerber Fmt 4.6, Leading zero omitted, Abs format (unit mm)*
G04 Created by KiCad (PCBNEW 7.0.2-6a45011f42~172~ubuntu22.04.1) date 2023-05-29 23:07:21*
%MOMM*%
%LPD*%
G01*
G04 APERTURE LIST*
G04 Aperture macros list*
%AMRoundRect*
0 Rectangle with rounded corners*
0 $1 Rounding radius*
0 $2 $3 $4 $5 $6 $7 $8 $9 X,Y pos of 4 corners*
0 Add a 4 corners polygon primitive as box body*
4,1,4,$2,$3,$4,$5,$6,$7,$8,$9,$2,$3,0*
0 Add four circle primitives for the rounded corners*
1,1,$1+$1,$2,$3*
1,1,$1+$1,$4,$5*
1,1,$1+$1,$6,$7*
1,1,$1+$1,$8,$9*
0 Add four rect primitives between the rounded corners*
20,1,$1+$1,$2,$3,$4,$5,0*
20,1,$1+$1,$4,$5,$6,$7,0*
20,1,$1+$1,$6,$7,$8,$9,0*
20,1,$1+$1,$8,$9,$2,$3,0*%
G04 Aperture macros list end*
%ADD10RoundRect,0.450000X-0.450000X-0.450000X0.450000X-0.450000X0.450000X0.450000X-0.450000X0.450000X0*%
%ADD11C,2.000000*%
%ADD12R,3.000000X3.500000*%
%ADD13RoundRect,0.200000X0.200000X0.275000X-0.200000X0.275000X-0.200000X-0.275000X0.200000X-0.275000X0*%
%ADD14RoundRect,0.200000X-0.200000X-0.275000X0.200000X-0.275000X0.200000X0.275000X-0.200000X0.275000X0*%
%ADD15R,0.400000X0.600000*%
%ADD16R,2.800000X2.350000*%
%ADD17RoundRect,0.225000X-0.225000X-0.250000X0.225000X-0.250000X0.225000X0.250000X-0.225000X0.250000X0*%
%ADD18R,1.300000X2.350000*%
G04 APERTURE END LIST*
D10*
%TO.C,J2*%
X137000000Y-155500000D03*
X137000000Y-158040000D03*
X137000000Y-160580000D03*
X137000000Y-163120000D03*
%TD*%
D11*
%TO.C,H4*%
X143500000Y-150500000D03*
D12*
X143500000Y-150500000D03*
%TD*%
D11*
%TO.C,H3*%
X139500000Y-150500000D03*
D12*
X139500000Y-150500000D03*
%TD*%
D11*
%TO.C,H2*%
X151500000Y-150500000D03*
D12*
X151500000Y-150500000D03*
%TD*%
D10*
%TO.C,J1*%
X154000000Y-155500000D03*
X154000000Y-158040000D03*
X154000000Y-160580000D03*
X154000000Y-163120000D03*
%TD*%
D11*
%TO.C,H1*%
X147500000Y-150500000D03*
D12*
X147500000Y-150500000D03*
%TD*%
D13*
%TO.C,R7*%
X152175000Y-155000000D03*
X150525000Y-155000000D03*
%TD*%
D14*
%TO.C,R12*%
X150525000Y-162500000D03*
X152175000Y-162500000D03*
%TD*%
D13*
%TO.C,R5*%
X152175000Y-159550000D03*
X150525000Y-159550000D03*
%TD*%
%TO.C,R9*%
X152175000Y-156475000D03*
X150525000Y-156475000D03*
%TD*%
D14*
%TO.C,R6*%
X150525000Y-161025000D03*
X152175000Y-161025000D03*
%TD*%
D15*
%TO.C,Q10*%
X142775000Y-157725000D03*
X143425000Y-157725000D03*
X144075000Y-157725000D03*
X144725000Y-157725000D03*
D16*
X143750000Y-155900000D03*
D15*
X142775000Y-154775000D03*
X143425000Y-154775000D03*
X144075000Y-154775000D03*
X144725000Y-154775000D03*
%TD*%
%TO.C,Q8*%
X139025000Y-157725000D03*
X139675000Y-157725000D03*
X140325000Y-157725000D03*
X140975000Y-157725000D03*
D16*
X140000000Y-155900000D03*
D15*
X139025000Y-154775000D03*
X139675000Y-154775000D03*
X140325000Y-154775000D03*
X140975000Y-154775000D03*
%TD*%
D13*
%TO.C,R11*%
X152175000Y-157950000D03*
X150525000Y-157950000D03*
%TD*%
D17*
%TO.C,C11*%
X148725000Y-153500000D03*
X150275000Y-153500000D03*
%TD*%
D15*
%TO.C,Q9*%
X139025000Y-163725000D03*
X139675000Y-163725000D03*
X140325000Y-163725000D03*
X140975000Y-163725000D03*
D16*
X140000000Y-161900000D03*
D15*
X139025000Y-160775000D03*
X139675000Y-160775000D03*
X140325000Y-160775000D03*
X140975000Y-160775000D03*
%TD*%
%TO.C,Q1*%
X146525000Y-157725000D03*
X147175000Y-157725000D03*
X147825000Y-157725000D03*
X148475000Y-157725000D03*
D16*
X147500000Y-155900000D03*
D15*
X146525000Y-154775000D03*
X147175000Y-154775000D03*
X147825000Y-154775000D03*
X148475000Y-154775000D03*
%TD*%
%TO.C,Q11*%
X142775000Y-163725000D03*
X143425000Y-163725000D03*
X144075000Y-163725000D03*
X144725000Y-163725000D03*
D16*
X143750000Y-161900000D03*
D15*
X142775000Y-160775000D03*
X143425000Y-160775000D03*
X144075000Y-160775000D03*
X144725000Y-160775000D03*
%TD*%
D17*
%TO.C,C13*%
X140725000Y-153500000D03*
X142275000Y-153500000D03*
%TD*%
D15*
%TO.C,Q4*%
X146525000Y-163725000D03*
X147175000Y-163725000D03*
D18*
X146725000Y-161900000D03*
D15*
X146525000Y-160775000D03*
X147175000Y-160775000D03*
X147825000Y-163725000D03*
X148475000Y-163725000D03*
D18*
X148275000Y-161900000D03*
D15*
X147825000Y-160775000D03*
X148475000Y-160775000D03*
%TD*%
M02*
