%TF.GenerationSoftware,KiCad,Pcbnew,7.0.2-6a45011f42~172~ubuntu22.04.1*%
%TF.CreationDate,2023-05-29T23:07:21+12:00*%
%TF.ProjectId,THE_BRAWN-20A_POWER,5448455f-4252-4415-974e-2d3230415f50,v2.0*%
%TF.SameCoordinates,Original*%
%TF.FileFunction,Legend,Top*%
%TF.FilePolarity,Positive*%
%FSLAX46Y46*%
G04 Gerber Fmt 4.6, Leading zero omitted, Abs format (unit mm)*
G04 Created by KiCad (PCBNEW 7.0.2-6a45011f42~172~ubuntu22.04.1) date 2023-05-29 23:07:21*
%MOMM*%
%LPD*%
G01*
G04 APERTURE LIST*
%ADD10C,0.150000*%
G04 APERTURE END LIST*
D10*
X138738095Y-153320095D02*
X138738095Y-152520095D01*
X138738095Y-152520095D02*
X139004761Y-153091523D01*
X139004761Y-153091523D02*
X139271428Y-152520095D01*
X139271428Y-152520095D02*
X139271428Y-153320095D01*
X139652381Y-153015333D02*
X140261905Y-153015333D01*
X139957143Y-153320095D02*
X139957143Y-152710571D01*
X147061904Y-152901047D02*
X147176190Y-152939142D01*
X147176190Y-152939142D02*
X147214285Y-152977238D01*
X147214285Y-152977238D02*
X147252381Y-153053428D01*
X147252381Y-153053428D02*
X147252381Y-153167714D01*
X147252381Y-153167714D02*
X147214285Y-153243904D01*
X147214285Y-153243904D02*
X147176190Y-153282000D01*
X147176190Y-153282000D02*
X147100000Y-153320095D01*
X147100000Y-153320095D02*
X146795238Y-153320095D01*
X146795238Y-153320095D02*
X146795238Y-152520095D01*
X146795238Y-152520095D02*
X147061904Y-152520095D01*
X147061904Y-152520095D02*
X147138095Y-152558190D01*
X147138095Y-152558190D02*
X147176190Y-152596285D01*
X147176190Y-152596285D02*
X147214285Y-152672476D01*
X147214285Y-152672476D02*
X147214285Y-152748666D01*
X147214285Y-152748666D02*
X147176190Y-152824857D01*
X147176190Y-152824857D02*
X147138095Y-152862952D01*
X147138095Y-152862952D02*
X147061904Y-152901047D01*
X147061904Y-152901047D02*
X146795238Y-152901047D01*
X147595238Y-153015333D02*
X148204762Y-153015333D01*
X147900000Y-153320095D02*
X147900000Y-152710571D01*
X138395237Y-153670095D02*
X138852380Y-153670095D01*
X138623808Y-154470095D02*
X138623808Y-153670095D01*
X139119047Y-154470095D02*
X139119047Y-153670095D01*
X139119047Y-154051047D02*
X139576190Y-154051047D01*
X139576190Y-154470095D02*
X139576190Y-153670095D01*
X139957142Y-154051047D02*
X140223808Y-154051047D01*
X140338094Y-154470095D02*
X139957142Y-154470095D01*
X139957142Y-154470095D02*
X139957142Y-153670095D01*
X139957142Y-153670095D02*
X140338094Y-153670095D01*
X141557142Y-154051047D02*
X141671428Y-154089142D01*
X141671428Y-154089142D02*
X141709523Y-154127238D01*
X141709523Y-154127238D02*
X141747619Y-154203428D01*
X141747619Y-154203428D02*
X141747619Y-154317714D01*
X141747619Y-154317714D02*
X141709523Y-154393904D01*
X141709523Y-154393904D02*
X141671428Y-154432000D01*
X141671428Y-154432000D02*
X141595238Y-154470095D01*
X141595238Y-154470095D02*
X141290476Y-154470095D01*
X141290476Y-154470095D02*
X141290476Y-153670095D01*
X141290476Y-153670095D02*
X141557142Y-153670095D01*
X141557142Y-153670095D02*
X141633333Y-153708190D01*
X141633333Y-153708190D02*
X141671428Y-153746285D01*
X141671428Y-153746285D02*
X141709523Y-153822476D01*
X141709523Y-153822476D02*
X141709523Y-153898666D01*
X141709523Y-153898666D02*
X141671428Y-153974857D01*
X141671428Y-153974857D02*
X141633333Y-154012952D01*
X141633333Y-154012952D02*
X141557142Y-154051047D01*
X141557142Y-154051047D02*
X141290476Y-154051047D01*
X142547619Y-154470095D02*
X142280952Y-154089142D01*
X142090476Y-154470095D02*
X142090476Y-153670095D01*
X142090476Y-153670095D02*
X142395238Y-153670095D01*
X142395238Y-153670095D02*
X142471428Y-153708190D01*
X142471428Y-153708190D02*
X142509523Y-153746285D01*
X142509523Y-153746285D02*
X142547619Y-153822476D01*
X142547619Y-153822476D02*
X142547619Y-153936761D01*
X142547619Y-153936761D02*
X142509523Y-154012952D01*
X142509523Y-154012952D02*
X142471428Y-154051047D01*
X142471428Y-154051047D02*
X142395238Y-154089142D01*
X142395238Y-154089142D02*
X142090476Y-154089142D01*
X142852380Y-154241523D02*
X143233333Y-154241523D01*
X142776190Y-154470095D02*
X143042857Y-153670095D01*
X143042857Y-153670095D02*
X143309523Y-154470095D01*
X143499999Y-153670095D02*
X143690475Y-154470095D01*
X143690475Y-154470095D02*
X143842856Y-153898666D01*
X143842856Y-153898666D02*
X143995237Y-154470095D01*
X143995237Y-154470095D02*
X144185714Y-153670095D01*
X144490476Y-154470095D02*
X144490476Y-153670095D01*
X144490476Y-153670095D02*
X144947619Y-154470095D01*
X144947619Y-154470095D02*
X144947619Y-153670095D01*
X145938095Y-154165333D02*
X146547619Y-154165333D01*
X147499999Y-153746285D02*
X147538095Y-153708190D01*
X147538095Y-153708190D02*
X147614285Y-153670095D01*
X147614285Y-153670095D02*
X147804761Y-153670095D01*
X147804761Y-153670095D02*
X147880952Y-153708190D01*
X147880952Y-153708190D02*
X147919047Y-153746285D01*
X147919047Y-153746285D02*
X147957142Y-153822476D01*
X147957142Y-153822476D02*
X147957142Y-153898666D01*
X147957142Y-153898666D02*
X147919047Y-154012952D01*
X147919047Y-154012952D02*
X147461904Y-154470095D01*
X147461904Y-154470095D02*
X147957142Y-154470095D01*
X148452381Y-153670095D02*
X148528571Y-153670095D01*
X148528571Y-153670095D02*
X148604762Y-153708190D01*
X148604762Y-153708190D02*
X148642857Y-153746285D01*
X148642857Y-153746285D02*
X148680952Y-153822476D01*
X148680952Y-153822476D02*
X148719047Y-153974857D01*
X148719047Y-153974857D02*
X148719047Y-154165333D01*
X148719047Y-154165333D02*
X148680952Y-154317714D01*
X148680952Y-154317714D02*
X148642857Y-154393904D01*
X148642857Y-154393904D02*
X148604762Y-154432000D01*
X148604762Y-154432000D02*
X148528571Y-154470095D01*
X148528571Y-154470095D02*
X148452381Y-154470095D01*
X148452381Y-154470095D02*
X148376190Y-154432000D01*
X148376190Y-154432000D02*
X148338095Y-154393904D01*
X148338095Y-154393904D02*
X148300000Y-154317714D01*
X148300000Y-154317714D02*
X148261904Y-154165333D01*
X148261904Y-154165333D02*
X148261904Y-153974857D01*
X148261904Y-153974857D02*
X148300000Y-153822476D01*
X148300000Y-153822476D02*
X148338095Y-153746285D01*
X148338095Y-153746285D02*
X148376190Y-153708190D01*
X148376190Y-153708190D02*
X148452381Y-153670095D01*
X149023809Y-154241523D02*
X149404762Y-154241523D01*
X148947619Y-154470095D02*
X149214286Y-153670095D01*
X149214286Y-153670095D02*
X149480952Y-154470095D01*
X150280952Y-153936761D02*
X150471428Y-154470095D01*
X150471428Y-154470095D02*
X150661905Y-153936761D01*
X150928571Y-153746285D02*
X150966667Y-153708190D01*
X150966667Y-153708190D02*
X151042857Y-153670095D01*
X151042857Y-153670095D02*
X151233333Y-153670095D01*
X151233333Y-153670095D02*
X151309524Y-153708190D01*
X151309524Y-153708190D02*
X151347619Y-153746285D01*
X151347619Y-153746285D02*
X151385714Y-153822476D01*
X151385714Y-153822476D02*
X151385714Y-153898666D01*
X151385714Y-153898666D02*
X151347619Y-154012952D01*
X151347619Y-154012952D02*
X150890476Y-154470095D01*
X150890476Y-154470095D02*
X151385714Y-154470095D01*
X151728572Y-154393904D02*
X151766667Y-154432000D01*
X151766667Y-154432000D02*
X151728572Y-154470095D01*
X151728572Y-154470095D02*
X151690476Y-154432000D01*
X151690476Y-154432000D02*
X151728572Y-154393904D01*
X151728572Y-154393904D02*
X151728572Y-154470095D01*
X152261905Y-153670095D02*
X152338095Y-153670095D01*
X152338095Y-153670095D02*
X152414286Y-153708190D01*
X152414286Y-153708190D02*
X152452381Y-153746285D01*
X152452381Y-153746285D02*
X152490476Y-153822476D01*
X152490476Y-153822476D02*
X152528571Y-153974857D01*
X152528571Y-153974857D02*
X152528571Y-154165333D01*
X152528571Y-154165333D02*
X152490476Y-154317714D01*
X152490476Y-154317714D02*
X152452381Y-154393904D01*
X152452381Y-154393904D02*
X152414286Y-154432000D01*
X152414286Y-154432000D02*
X152338095Y-154470095D01*
X152338095Y-154470095D02*
X152261905Y-154470095D01*
X152261905Y-154470095D02*
X152185714Y-154432000D01*
X152185714Y-154432000D02*
X152147619Y-154393904D01*
X152147619Y-154393904D02*
X152109524Y-154317714D01*
X152109524Y-154317714D02*
X152071428Y-154165333D01*
X152071428Y-154165333D02*
X152071428Y-153974857D01*
X152071428Y-153974857D02*
X152109524Y-153822476D01*
X152109524Y-153822476D02*
X152147619Y-153746285D01*
X152147619Y-153746285D02*
X152185714Y-153708190D01*
X152185714Y-153708190D02*
X152261905Y-153670095D01*
X142738095Y-153320095D02*
X142738095Y-152520095D01*
X142738095Y-152520095D02*
X143004761Y-153091523D01*
X143004761Y-153091523D02*
X143271428Y-152520095D01*
X143271428Y-152520095D02*
X143271428Y-153320095D01*
X143652381Y-153015333D02*
X144261905Y-153015333D01*
X151061904Y-152901047D02*
X151176190Y-152939142D01*
X151176190Y-152939142D02*
X151214285Y-152977238D01*
X151214285Y-152977238D02*
X151252381Y-153053428D01*
X151252381Y-153053428D02*
X151252381Y-153167714D01*
X151252381Y-153167714D02*
X151214285Y-153243904D01*
X151214285Y-153243904D02*
X151176190Y-153282000D01*
X151176190Y-153282000D02*
X151100000Y-153320095D01*
X151100000Y-153320095D02*
X150795238Y-153320095D01*
X150795238Y-153320095D02*
X150795238Y-152520095D01*
X150795238Y-152520095D02*
X151061904Y-152520095D01*
X151061904Y-152520095D02*
X151138095Y-152558190D01*
X151138095Y-152558190D02*
X151176190Y-152596285D01*
X151176190Y-152596285D02*
X151214285Y-152672476D01*
X151214285Y-152672476D02*
X151214285Y-152748666D01*
X151214285Y-152748666D02*
X151176190Y-152824857D01*
X151176190Y-152824857D02*
X151138095Y-152862952D01*
X151138095Y-152862952D02*
X151061904Y-152901047D01*
X151061904Y-152901047D02*
X150795238Y-152901047D01*
X151595238Y-153015333D02*
X152204762Y-153015333D01*
%TO.C,G\u002A\u002A\u002A*%
G36*
X149108387Y-162672634D02*
G01*
X149130509Y-162680371D01*
X149131911Y-162681171D01*
X149146816Y-162692740D01*
X149158759Y-162707003D01*
X149160042Y-162709143D01*
X149169669Y-162726272D01*
X149169669Y-163370198D01*
X149169669Y-164014123D01*
X149158735Y-164032780D01*
X149143505Y-164050800D01*
X149123480Y-164062887D01*
X149100627Y-164068423D01*
X149076911Y-164066789D01*
X149064124Y-164062572D01*
X149047736Y-164051484D01*
X149033642Y-164034769D01*
X149024270Y-164015400D01*
X149023551Y-164012941D01*
X149022855Y-164006270D01*
X149022236Y-163991667D01*
X149021692Y-163969075D01*
X149021223Y-163938434D01*
X149020829Y-163899686D01*
X149020511Y-163852771D01*
X149020267Y-163797632D01*
X149020097Y-163734209D01*
X149020001Y-163662443D01*
X149019978Y-163582276D01*
X149020030Y-163493649D01*
X149020154Y-163396503D01*
X149020214Y-163360725D01*
X149020372Y-163274139D01*
X149020528Y-163195736D01*
X149020687Y-163125102D01*
X149020855Y-163061822D01*
X149021036Y-163005480D01*
X149021237Y-162955661D01*
X149021464Y-162911951D01*
X149021721Y-162873934D01*
X149022014Y-162841195D01*
X149022349Y-162813320D01*
X149022731Y-162789893D01*
X149023166Y-162770499D01*
X149023659Y-162754724D01*
X149024216Y-162742152D01*
X149024843Y-162732369D01*
X149025544Y-162724958D01*
X149026326Y-162719506D01*
X149027194Y-162715597D01*
X149028153Y-162712816D01*
X149028864Y-162711351D01*
X149043702Y-162692305D01*
X149063135Y-162679142D01*
X149085312Y-162672405D01*
X149108387Y-162672634D01*
G37*
G36*
X142269168Y-163527109D02*
G01*
X142323302Y-163527140D01*
X142370013Y-163527208D01*
X142409892Y-163527326D01*
X142443525Y-163527509D01*
X142471501Y-163527768D01*
X142494409Y-163528119D01*
X142512837Y-163528573D01*
X142527373Y-163529146D01*
X142538605Y-163529849D01*
X142547123Y-163530697D01*
X142553514Y-163531703D01*
X142558367Y-163532880D01*
X142562270Y-163534242D01*
X142564653Y-163535268D01*
X142582424Y-163547530D01*
X142596968Y-163565451D01*
X142606135Y-163586158D01*
X142607515Y-163592483D01*
X142606952Y-163613758D01*
X142599563Y-163635107D01*
X142586733Y-163654061D01*
X142569850Y-163668150D01*
X142563127Y-163671523D01*
X142556098Y-163672664D01*
X142541287Y-163673692D01*
X142519498Y-163674605D01*
X142491535Y-163675404D01*
X142458205Y-163676090D01*
X142420311Y-163676662D01*
X142378658Y-163677120D01*
X142334051Y-163677466D01*
X142287295Y-163677698D01*
X142239194Y-163677818D01*
X142190554Y-163677826D01*
X142142177Y-163677721D01*
X142094871Y-163677504D01*
X142049439Y-163677175D01*
X142006685Y-163676735D01*
X141967416Y-163676183D01*
X141932435Y-163675520D01*
X141902546Y-163674746D01*
X141878556Y-163673861D01*
X141861269Y-163672865D01*
X141851488Y-163671759D01*
X141849973Y-163671339D01*
X141832361Y-163659413D01*
X141818208Y-163641771D01*
X141808917Y-163620955D01*
X141805885Y-163599506D01*
X141806535Y-163592483D01*
X141813669Y-163571500D01*
X141826827Y-163552442D01*
X141843855Y-163538181D01*
X141849396Y-163535268D01*
X141852991Y-163533774D01*
X141857140Y-163532474D01*
X141862432Y-163531355D01*
X141869456Y-163530402D01*
X141878799Y-163529603D01*
X141891049Y-163528944D01*
X141906796Y-163528412D01*
X141926628Y-163527993D01*
X141951133Y-163527674D01*
X141980899Y-163527441D01*
X142016514Y-163527281D01*
X142058568Y-163527181D01*
X142107647Y-163527126D01*
X142164342Y-163527105D01*
X142207025Y-163527102D01*
X142269168Y-163527109D01*
G37*
G36*
X149878519Y-163142462D02*
G01*
X149927558Y-163152588D01*
X149980793Y-163170567D01*
X150032214Y-163196212D01*
X150080864Y-163228635D01*
X150125787Y-163266946D01*
X150166027Y-163310257D01*
X150200629Y-163357678D01*
X150228635Y-163408320D01*
X150244562Y-163447377D01*
X150259626Y-163502957D01*
X150267832Y-163561795D01*
X150269170Y-163621948D01*
X150263629Y-163681472D01*
X150251199Y-163738423D01*
X150246247Y-163754350D01*
X150223617Y-163808837D01*
X150193551Y-163860154D01*
X150156866Y-163907543D01*
X150114379Y-163950247D01*
X150066908Y-163987509D01*
X150015269Y-164018570D01*
X149960280Y-164042675D01*
X149922549Y-164054404D01*
X149891614Y-164060623D01*
X149855350Y-164064936D01*
X149816582Y-164067236D01*
X149778133Y-164067419D01*
X149742828Y-164065380D01*
X149718491Y-164062029D01*
X149657115Y-164046225D01*
X149599557Y-164022719D01*
X149545839Y-163991521D01*
X149495980Y-163952642D01*
X149462157Y-163919553D01*
X149421903Y-163870940D01*
X149389771Y-163819821D01*
X149365548Y-163765689D01*
X149349023Y-163708036D01*
X149339981Y-163646357D01*
X149338627Y-163625546D01*
X149339210Y-163585129D01*
X149489029Y-163585129D01*
X149489768Y-163636628D01*
X149498029Y-163684555D01*
X149514086Y-163729963D01*
X149537972Y-163773534D01*
X149570110Y-163815657D01*
X149607580Y-163851093D01*
X149650041Y-163879604D01*
X149697156Y-163900951D01*
X149735021Y-163912044D01*
X149761253Y-163915947D01*
X149792728Y-163917291D01*
X149826524Y-163916222D01*
X149859722Y-163912885D01*
X149889401Y-163907425D01*
X149902692Y-163903724D01*
X149948064Y-163885031D01*
X149988957Y-163859561D01*
X150021040Y-163832160D01*
X150056542Y-163792239D01*
X150084200Y-163748912D01*
X150103909Y-163702446D01*
X150115563Y-163653106D01*
X150119058Y-163601159D01*
X150118495Y-163585031D01*
X150112831Y-163537114D01*
X150101275Y-163494077D01*
X150083162Y-163454456D01*
X150057823Y-163416782D01*
X150025370Y-163380371D01*
X150006087Y-163361522D01*
X149990226Y-163347538D01*
X149975610Y-163336759D01*
X149960060Y-163327525D01*
X149947834Y-163321279D01*
X149916810Y-163307305D01*
X149888798Y-163297763D01*
X149860721Y-163291954D01*
X149829502Y-163289184D01*
X149803809Y-163288679D01*
X149768503Y-163289719D01*
X149738519Y-163293304D01*
X149710778Y-163300130D01*
X149682205Y-163310893D01*
X149659784Y-163321279D01*
X149642354Y-163330409D01*
X149627340Y-163339956D01*
X149612562Y-163351579D01*
X149595844Y-163366937D01*
X149582248Y-163380371D01*
X149549032Y-163417758D01*
X149523732Y-163455685D01*
X149505711Y-163495554D01*
X149494328Y-163538768D01*
X149489029Y-163585129D01*
X149339210Y-163585129D01*
X149339562Y-163560769D01*
X149348517Y-163499074D01*
X149365466Y-163440529D01*
X149390380Y-163385205D01*
X149423233Y-163333171D01*
X149463998Y-163284497D01*
X149477433Y-163270885D01*
X149526002Y-163229182D01*
X149578399Y-163195023D01*
X149634074Y-163168554D01*
X149692475Y-163149918D01*
X149753050Y-163139260D01*
X149815249Y-163136727D01*
X149878519Y-163142462D01*
G37*
G36*
X140192777Y-163143760D02*
G01*
X140254447Y-163158758D01*
X140275823Y-163165961D01*
X140304870Y-163178096D01*
X140334908Y-163193519D01*
X140364535Y-163211242D01*
X140392353Y-163230279D01*
X140416963Y-163249642D01*
X140436964Y-163268347D01*
X140450958Y-163285404D01*
X140454890Y-163292214D01*
X140462220Y-163315780D01*
X140462084Y-163338661D01*
X140455418Y-163359631D01*
X140443162Y-163377466D01*
X140426254Y-163390941D01*
X140405631Y-163398830D01*
X140382232Y-163399909D01*
X140373531Y-163398445D01*
X140364817Y-163396305D01*
X140357501Y-163393670D01*
X140349979Y-163389514D01*
X140340651Y-163382811D01*
X140327916Y-163372534D01*
X140311070Y-163358414D01*
X140274616Y-163332281D01*
X140233840Y-163310982D01*
X140192824Y-163296463D01*
X140168896Y-163291986D01*
X140139598Y-163289383D01*
X140107877Y-163288662D01*
X140076676Y-163289829D01*
X140048939Y-163292895D01*
X140033751Y-163296017D01*
X139985935Y-163313001D01*
X139941523Y-163337463D01*
X139901426Y-163368656D01*
X139866552Y-163405829D01*
X139837810Y-163448235D01*
X139829171Y-163464574D01*
X139813302Y-163501682D01*
X139803258Y-163537770D01*
X139798476Y-163575669D01*
X139798394Y-163618212D01*
X139798447Y-163619347D01*
X139803921Y-163668893D01*
X139815754Y-163713512D01*
X139834525Y-163754517D01*
X139860817Y-163793219D01*
X139889726Y-163825501D01*
X139927205Y-163858755D01*
X139966043Y-163883991D01*
X140007508Y-163901765D01*
X140052864Y-163912632D01*
X140098240Y-163916972D01*
X140131667Y-163917366D01*
X140159419Y-163915513D01*
X140179926Y-163912184D01*
X140212744Y-163902531D01*
X140247690Y-163887436D01*
X140281824Y-163868402D01*
X140312202Y-163846931D01*
X140319191Y-163841075D01*
X140339928Y-163824333D01*
X140357547Y-163813616D01*
X140374080Y-163808067D01*
X140391562Y-163806826D01*
X140399140Y-163807331D01*
X140422740Y-163813496D01*
X140441726Y-163826661D01*
X140455224Y-163846215D01*
X140455485Y-163846782D01*
X140462311Y-163867548D01*
X140463123Y-163887466D01*
X140457559Y-163907127D01*
X140445257Y-163927127D01*
X140425858Y-163948058D01*
X140398998Y-163970514D01*
X140365861Y-163994056D01*
X140317894Y-164021779D01*
X140265647Y-164044028D01*
X140225068Y-164056383D01*
X140200472Y-164061005D01*
X140169930Y-164064398D01*
X140136018Y-164066483D01*
X140101312Y-164067180D01*
X140068387Y-164066410D01*
X140039819Y-164064093D01*
X140028684Y-164062456D01*
X139969329Y-164047651D01*
X139912590Y-164024785D01*
X139858957Y-163994128D01*
X139808920Y-163955949D01*
X139773103Y-163921546D01*
X139732369Y-163872962D01*
X139699737Y-163821810D01*
X139675089Y-163767765D01*
X139658306Y-163710507D01*
X139649270Y-163649712D01*
X139647863Y-163585060D01*
X139648017Y-163581070D01*
X139653512Y-163522161D01*
X139665090Y-163468263D01*
X139683207Y-163417889D01*
X139708317Y-163369550D01*
X139716706Y-163356110D01*
X139755129Y-163304177D01*
X139798620Y-163258836D01*
X139846557Y-163220297D01*
X139898320Y-163188773D01*
X139953288Y-163164475D01*
X140010839Y-163147613D01*
X140070351Y-163138399D01*
X140131204Y-163137044D01*
X140192777Y-163143760D01*
G37*
G36*
X142913874Y-162769847D02*
G01*
X142934392Y-162781221D01*
X142950130Y-162799567D01*
X142952933Y-162804613D01*
X142955183Y-162809420D01*
X142957003Y-162814729D01*
X142958440Y-162821454D01*
X142959538Y-162830508D01*
X142960342Y-162842806D01*
X142960898Y-162859260D01*
X142961251Y-162880784D01*
X142961446Y-162908293D01*
X142961529Y-162942699D01*
X142961544Y-162978587D01*
X142961544Y-163135681D01*
X143070100Y-163135775D01*
X143107216Y-163135925D01*
X143136828Y-163136430D01*
X143160028Y-163137476D01*
X143177907Y-163139253D01*
X143191560Y-163141948D01*
X143202078Y-163145748D01*
X143210554Y-163150842D01*
X143218079Y-163157419D01*
X143222437Y-163161984D01*
X143235064Y-163181605D01*
X143240559Y-163203681D01*
X143239236Y-163226355D01*
X143231405Y-163247774D01*
X143217376Y-163266084D01*
X143203213Y-163276527D01*
X143197698Y-163279444D01*
X143192047Y-163281703D01*
X143185133Y-163283389D01*
X143175830Y-163284585D01*
X143163013Y-163285376D01*
X143145556Y-163285844D01*
X143122331Y-163286074D01*
X143092214Y-163286149D01*
X143073660Y-163286155D01*
X142961236Y-163286155D01*
X142962465Y-163553783D01*
X142963694Y-163821412D01*
X142975689Y-163845839D01*
X142992737Y-163872369D01*
X143015725Y-163893769D01*
X143035826Y-163906265D01*
X143046786Y-163911225D01*
X143058507Y-163914187D01*
X143073676Y-163915608D01*
X143092671Y-163915948D01*
X143114659Y-163915364D01*
X143131723Y-163912928D01*
X143146599Y-163907640D01*
X143162021Y-163898503D01*
X143180725Y-163884518D01*
X143182415Y-163883184D01*
X143207349Y-163867641D01*
X143232016Y-163860625D01*
X143256272Y-163862149D01*
X143279975Y-163872228D01*
X143282449Y-163873798D01*
X143297642Y-163888575D01*
X143307764Y-163908441D01*
X143311999Y-163931014D01*
X143309704Y-163953254D01*
X143301456Y-163970674D01*
X143286295Y-163989302D01*
X143265602Y-164008076D01*
X143240756Y-164025931D01*
X143213138Y-164041803D01*
X143184129Y-164054627D01*
X143173411Y-164058357D01*
X143156022Y-164062199D01*
X143132721Y-164064966D01*
X143106136Y-164066588D01*
X143078897Y-164066990D01*
X143053630Y-164066101D01*
X143032963Y-164063849D01*
X143026033Y-164062415D01*
X142982107Y-164047028D01*
X142941385Y-164024599D01*
X142904755Y-163996061D01*
X142873105Y-163962350D01*
X142847324Y-163924400D01*
X142828299Y-163883147D01*
X142817497Y-163842904D01*
X142816522Y-163836187D01*
X142815650Y-163827276D01*
X142814877Y-163815704D01*
X142814196Y-163801007D01*
X142813603Y-163782718D01*
X142813090Y-163760371D01*
X142812654Y-163733501D01*
X142812287Y-163701642D01*
X142811985Y-163664329D01*
X142811742Y-163621096D01*
X142811552Y-163571476D01*
X142811410Y-163515005D01*
X142811310Y-163451216D01*
X142811247Y-163379644D01*
X142811220Y-163320520D01*
X142811233Y-163240931D01*
X142811322Y-163167366D01*
X142811484Y-163100079D01*
X142811718Y-163039324D01*
X142812022Y-162985355D01*
X142812392Y-162938426D01*
X142812829Y-162898791D01*
X142813328Y-162866703D01*
X142813889Y-162842416D01*
X142814509Y-162826184D01*
X142815186Y-162818262D01*
X142815285Y-162817831D01*
X142823630Y-162800876D01*
X142837509Y-162784681D01*
X142854195Y-162772397D01*
X142854924Y-162772010D01*
X142866048Y-162768465D01*
X142881262Y-162766281D01*
X142889395Y-162765945D01*
X142913874Y-162769847D01*
G37*
G36*
X145058433Y-163139025D02*
G01*
X145116718Y-163147842D01*
X145173132Y-163163636D01*
X145226740Y-163186255D01*
X145276606Y-163215542D01*
X145321791Y-163251344D01*
X145331152Y-163260218D01*
X145347201Y-163276976D01*
X145357544Y-163290561D01*
X145363485Y-163302780D01*
X145364655Y-163306640D01*
X145367369Y-163331659D01*
X145362558Y-163354452D01*
X145351152Y-163373792D01*
X145334083Y-163388452D01*
X145312283Y-163397206D01*
X145294381Y-163399164D01*
X145281062Y-163398607D01*
X145269785Y-163396312D01*
X145258648Y-163391339D01*
X145245749Y-163382748D01*
X145229189Y-163369601D01*
X145221438Y-163363129D01*
X145177711Y-163331889D01*
X145129650Y-163308071D01*
X145102573Y-163298511D01*
X145075986Y-163292647D01*
X145044105Y-163289215D01*
X145009896Y-163288251D01*
X144976323Y-163289790D01*
X144946351Y-163293867D01*
X144934902Y-163296519D01*
X144888056Y-163313605D01*
X144844227Y-163338173D01*
X144804489Y-163369331D01*
X144769919Y-163406185D01*
X144741589Y-163447841D01*
X144732766Y-163464574D01*
X144719021Y-163496363D01*
X144709883Y-163527001D01*
X144704705Y-163559468D01*
X144702840Y-163596741D01*
X144702806Y-163602537D01*
X144705888Y-163653426D01*
X144715595Y-163699480D01*
X144732401Y-163741851D01*
X144756782Y-163781691D01*
X144789212Y-163820151D01*
X144795004Y-163826077D01*
X144813639Y-163844253D01*
X144829155Y-163857756D01*
X144844041Y-163868430D01*
X144860786Y-163878123D01*
X144874713Y-163885196D01*
X144923049Y-163904393D01*
X144972743Y-163915515D01*
X145022885Y-163918632D01*
X145072562Y-163913814D01*
X145120862Y-163901128D01*
X145166873Y-163880644D01*
X145198646Y-163860697D01*
X145212894Y-163850056D01*
X145225348Y-163839962D01*
X145233430Y-163832509D01*
X145233701Y-163832212D01*
X145252312Y-163817561D01*
X145275014Y-163808964D01*
X145299388Y-163806858D01*
X145323016Y-163811678D01*
X145330172Y-163814829D01*
X145347991Y-163828406D01*
X145360313Y-163847017D01*
X145366681Y-163868729D01*
X145366636Y-163891610D01*
X145359720Y-163913726D01*
X145355379Y-163921252D01*
X145340245Y-163939441D01*
X145318462Y-163959200D01*
X145291582Y-163979514D01*
X145261156Y-163999367D01*
X145228735Y-164017743D01*
X145195871Y-164033626D01*
X145165683Y-164045471D01*
X145122594Y-164057107D01*
X145074672Y-164064794D01*
X145024829Y-164068322D01*
X144975972Y-164067482D01*
X144932040Y-164062253D01*
X144880804Y-164049688D01*
X144830288Y-164030434D01*
X144805058Y-164018308D01*
X144771589Y-163999524D01*
X144741126Y-163978555D01*
X144711422Y-163953667D01*
X144680230Y-163923126D01*
X144676112Y-163918822D01*
X144636578Y-163872112D01*
X144604992Y-163823172D01*
X144580781Y-163770914D01*
X144563371Y-163714254D01*
X144559932Y-163698883D01*
X144555561Y-163669359D01*
X144553205Y-163634413D01*
X144552803Y-163596616D01*
X144554294Y-163558541D01*
X144557615Y-163522761D01*
X144562707Y-163491847D01*
X144565131Y-163481771D01*
X144575501Y-163450028D01*
X144589945Y-163415129D01*
X144606916Y-163380422D01*
X144624866Y-163349258D01*
X144629928Y-163341518D01*
X144655214Y-163308811D01*
X144686514Y-163275756D01*
X144721822Y-163244044D01*
X144759133Y-163215369D01*
X144796441Y-163191422D01*
X144825312Y-163176640D01*
X144881717Y-163155995D01*
X144939996Y-163142947D01*
X144999213Y-163137342D01*
X145058433Y-163139025D01*
G37*
G36*
X148428527Y-163142790D02*
G01*
X148488125Y-163156924D01*
X148545197Y-163179010D01*
X148599167Y-163208844D01*
X148649456Y-163246221D01*
X148675400Y-163269983D01*
X148718765Y-163318187D01*
X148754156Y-163369601D01*
X148781595Y-163424273D01*
X148801104Y-163482250D01*
X148812704Y-163543581D01*
X148815567Y-163575895D01*
X148815166Y-163640254D01*
X148806595Y-163702012D01*
X148789939Y-163760943D01*
X148765285Y-163816819D01*
X148732719Y-163869415D01*
X148692328Y-163918503D01*
X148680192Y-163931026D01*
X148632808Y-163973212D01*
X148583041Y-164007379D01*
X148530184Y-164033939D01*
X148473531Y-164053306D01*
X148469401Y-164054404D01*
X148438466Y-164060623D01*
X148402202Y-164064936D01*
X148363434Y-164067236D01*
X148324985Y-164067419D01*
X148289679Y-164065380D01*
X148265343Y-164062029D01*
X148204982Y-164046372D01*
X148147916Y-164023121D01*
X148094759Y-163992848D01*
X148046124Y-163956123D01*
X148002626Y-163913516D01*
X147964879Y-163865598D01*
X147933498Y-163812941D01*
X147909095Y-163756114D01*
X147898228Y-163720890D01*
X147893920Y-163703583D01*
X147890866Y-163687948D01*
X147888844Y-163671798D01*
X147887631Y-163652948D01*
X147887004Y-163629213D01*
X147886838Y-163612719D01*
X148034257Y-163612719D01*
X148039537Y-163662172D01*
X148052853Y-163710171D01*
X148074093Y-163756031D01*
X148103145Y-163799064D01*
X148127099Y-163826153D01*
X148164872Y-163859291D01*
X148206289Y-163885037D01*
X148252326Y-163903932D01*
X148281872Y-163912044D01*
X148305378Y-163915552D01*
X148334355Y-163916994D01*
X148365957Y-163916486D01*
X148397339Y-163914146D01*
X148425654Y-163910090D01*
X148445244Y-163905361D01*
X148491675Y-163886367D01*
X148534584Y-163859940D01*
X148573112Y-163826823D01*
X148606401Y-163787758D01*
X148633592Y-163743488D01*
X148634561Y-163741579D01*
X148652177Y-163697361D01*
X148662645Y-163649799D01*
X148665900Y-163600419D01*
X148661878Y-163550751D01*
X148650513Y-163502323D01*
X148645312Y-163487329D01*
X148627612Y-163450545D01*
X148603036Y-163414310D01*
X148573217Y-163380416D01*
X148539786Y-163350652D01*
X148504376Y-163326811D01*
X148493927Y-163321238D01*
X148463562Y-163307314D01*
X148435801Y-163297779D01*
X148407672Y-163291959D01*
X148376201Y-163289179D01*
X148350661Y-163288679D01*
X148315355Y-163289719D01*
X148285370Y-163293304D01*
X148257630Y-163300130D01*
X148229057Y-163310893D01*
X148206636Y-163321279D01*
X148189130Y-163330461D01*
X148173963Y-163340123D01*
X148158955Y-163351919D01*
X148141932Y-163367503D01*
X148128758Y-163380443D01*
X148110530Y-163399080D01*
X148097047Y-163414231D01*
X148086639Y-163428139D01*
X148077640Y-163443046D01*
X148068381Y-163461196D01*
X148067753Y-163462495D01*
X148048253Y-163512194D01*
X148037125Y-163562497D01*
X148034257Y-163612719D01*
X147886838Y-163612719D01*
X147886796Y-163608599D01*
X147886911Y-163576038D01*
X147887819Y-163549984D01*
X147889662Y-163528370D01*
X147892582Y-163509127D01*
X147894194Y-163501117D01*
X147910728Y-163444251D01*
X147935057Y-163389752D01*
X147966515Y-163338455D01*
X148004437Y-163291190D01*
X148048158Y-163248793D01*
X148097011Y-163212094D01*
X148148596Y-163182767D01*
X148186917Y-163165833D01*
X148223701Y-163153518D01*
X148262309Y-163144881D01*
X148304068Y-163139189D01*
X148366982Y-163136810D01*
X148428527Y-163142790D01*
G37*
G36*
X147277406Y-163140841D02*
G01*
X147335906Y-163152433D01*
X147392562Y-163171589D01*
X147446488Y-163198339D01*
X147466229Y-163210599D01*
X147516982Y-163248998D01*
X147561826Y-163293177D01*
X147600279Y-163342439D01*
X147631857Y-163396087D01*
X147656076Y-163453425D01*
X147670695Y-163505359D01*
X147672649Y-163514659D01*
X147674298Y-163523788D01*
X147675669Y-163533542D01*
X147676787Y-163544719D01*
X147677680Y-163558115D01*
X147678373Y-163574528D01*
X147678893Y-163594753D01*
X147679266Y-163619589D01*
X147679519Y-163649831D01*
X147679677Y-163686276D01*
X147679768Y-163729723D01*
X147679818Y-163780966D01*
X147679818Y-163781264D01*
X147679977Y-164016269D01*
X147667079Y-164034476D01*
X147648968Y-164053729D01*
X147627606Y-164065175D01*
X147605457Y-164068619D01*
X147580392Y-164064634D01*
X147558831Y-164053019D01*
X147545382Y-164039337D01*
X147533802Y-164024163D01*
X147531360Y-163789510D01*
X147530814Y-163738369D01*
X147530305Y-163695052D01*
X147529800Y-163658786D01*
X147529265Y-163628796D01*
X147528666Y-163604310D01*
X147527969Y-163584554D01*
X147527141Y-163568753D01*
X147526147Y-163556134D01*
X147524955Y-163545924D01*
X147523529Y-163537348D01*
X147521837Y-163529633D01*
X147519845Y-163522004D01*
X147519657Y-163521322D01*
X147502161Y-163473482D01*
X147477494Y-163429311D01*
X147446460Y-163389616D01*
X147409864Y-163355202D01*
X147368509Y-163326875D01*
X147323201Y-163305442D01*
X147295193Y-163296423D01*
X147271723Y-163292026D01*
X147242761Y-163289446D01*
X147211166Y-163288684D01*
X147179799Y-163289735D01*
X147151516Y-163292601D01*
X147131822Y-163296519D01*
X147084053Y-163313862D01*
X147039995Y-163338612D01*
X147000317Y-163370132D01*
X146965692Y-163407783D01*
X146936788Y-163450929D01*
X146914279Y-163498932D01*
X146911885Y-163505417D01*
X146909744Y-163511545D01*
X146907924Y-163517499D01*
X146906394Y-163524019D01*
X146905119Y-163531845D01*
X146904067Y-163541718D01*
X146903202Y-163554376D01*
X146902493Y-163570561D01*
X146901906Y-163591013D01*
X146901406Y-163616472D01*
X146900962Y-163647677D01*
X146900538Y-163685370D01*
X146900102Y-163730290D01*
X146899695Y-163774831D01*
X146897512Y-164016301D01*
X146884615Y-164034492D01*
X146873832Y-164047038D01*
X146861584Y-164057593D01*
X146856736Y-164060651D01*
X146837113Y-164066984D01*
X146814750Y-164067963D01*
X146793668Y-164063544D01*
X146788654Y-164061389D01*
X146776667Y-164053230D01*
X146765020Y-164041916D01*
X146762858Y-164039251D01*
X146751338Y-164024149D01*
X146750135Y-163611084D01*
X146749987Y-163552041D01*
X146749894Y-163495320D01*
X146749853Y-163441527D01*
X146749862Y-163391268D01*
X146749920Y-163345149D01*
X146750025Y-163303775D01*
X146750175Y-163267753D01*
X146750369Y-163237688D01*
X146750605Y-163214187D01*
X146750882Y-163197854D01*
X146751196Y-163189297D01*
X146751319Y-163188238D01*
X146755524Y-163179471D01*
X146763608Y-163167942D01*
X146769107Y-163161409D01*
X146788078Y-163146076D01*
X146809655Y-163138024D01*
X146832139Y-163137379D01*
X146853832Y-163144271D01*
X146867985Y-163153952D01*
X146881333Y-163167718D01*
X146890218Y-163182680D01*
X146895754Y-163201358D01*
X146898810Y-163223580D01*
X146901812Y-163255156D01*
X146937279Y-163228450D01*
X146988243Y-163195288D01*
X147042678Y-163169511D01*
X147099697Y-163151147D01*
X147158416Y-163140228D01*
X147217947Y-163136783D01*
X147277406Y-163140841D01*
G37*
G36*
X143975772Y-163138144D02*
G01*
X144036051Y-163147230D01*
X144094947Y-163164263D01*
X144147823Y-163187329D01*
X144201559Y-163219558D01*
X144249856Y-163257921D01*
X144292274Y-163301750D01*
X144328376Y-163350376D01*
X144357721Y-163403130D01*
X144379872Y-163459344D01*
X144394390Y-163518349D01*
X144400528Y-163572535D01*
X144401500Y-163593809D01*
X144401626Y-163608620D01*
X144400663Y-163619086D01*
X144398364Y-163627320D01*
X144394484Y-163635439D01*
X144392895Y-163638311D01*
X144383200Y-163651665D01*
X144371264Y-163663171D01*
X144367564Y-163665776D01*
X144352353Y-163675237D01*
X143990446Y-163677387D01*
X143628538Y-163679536D01*
X143642308Y-163716080D01*
X143664284Y-163762482D01*
X143693216Y-163804271D01*
X143728428Y-163840794D01*
X143769243Y-163871397D01*
X143814986Y-163895425D01*
X143836443Y-163903727D01*
X143850986Y-163908527D01*
X143863653Y-163911850D01*
X143876626Y-163913971D01*
X143892087Y-163915162D01*
X143912216Y-163915696D01*
X143933176Y-163915833D01*
X143959580Y-163915709D01*
X143979594Y-163915026D01*
X143995419Y-163913555D01*
X144009257Y-163911065D01*
X144023309Y-163907328D01*
X144027759Y-163905971D01*
X144063057Y-163892666D01*
X144096397Y-163874898D01*
X144130140Y-163851326D01*
X144145390Y-163839047D01*
X144165279Y-163823600D01*
X144181839Y-163813038D01*
X144193880Y-163808119D01*
X144194029Y-163808090D01*
X144220362Y-163806744D01*
X144243642Y-163812484D01*
X144262803Y-163824496D01*
X144276782Y-163841966D01*
X144284512Y-163864080D01*
X144285715Y-163878151D01*
X144284646Y-163895125D01*
X144280685Y-163909305D01*
X144272702Y-163922783D01*
X144259566Y-163937647D01*
X144246999Y-163949721D01*
X144199344Y-163988026D01*
X144146757Y-164019417D01*
X144089820Y-164043578D01*
X144054440Y-164054309D01*
X144022819Y-164060665D01*
X143985903Y-164065030D01*
X143946547Y-164067299D01*
X143907606Y-164067364D01*
X143871936Y-164065121D01*
X143849436Y-164061932D01*
X143789958Y-164046408D01*
X143733156Y-164022990D01*
X143679716Y-163992151D01*
X143630328Y-163954362D01*
X143585680Y-163910096D01*
X143546459Y-163859824D01*
X143539436Y-163849260D01*
X143512331Y-163799729D01*
X143491732Y-163745676D01*
X143477826Y-163688410D01*
X143470798Y-163629239D01*
X143470837Y-163569470D01*
X143476089Y-163526913D01*
X143631153Y-163526913D01*
X143936938Y-163526913D01*
X143987358Y-163526893D01*
X144035186Y-163526834D01*
X144079737Y-163526741D01*
X144120331Y-163526616D01*
X144156283Y-163526463D01*
X144186913Y-163526284D01*
X144211536Y-163526084D01*
X144229472Y-163525865D01*
X144240036Y-163525632D01*
X144242722Y-163525436D01*
X144241436Y-163520916D01*
X144238097Y-163510674D01*
X144234318Y-163499532D01*
X144213952Y-163452980D01*
X144186937Y-163411131D01*
X144154088Y-163374490D01*
X144116223Y-163343557D01*
X144074159Y-163318836D01*
X144028713Y-163300827D01*
X143980701Y-163290034D01*
X143930942Y-163286959D01*
X143893395Y-163289958D01*
X143845235Y-163300111D01*
X143801651Y-163316632D01*
X143761322Y-163340193D01*
X143722927Y-163371469D01*
X143711250Y-163382796D01*
X143692935Y-163402106D01*
X143679134Y-163419189D01*
X143667605Y-163437138D01*
X143656399Y-163458447D01*
X143647697Y-163476940D01*
X143640345Y-163494070D01*
X143635329Y-163507455D01*
X143633804Y-163512940D01*
X143631153Y-163526913D01*
X143476089Y-163526913D01*
X143478126Y-163510412D01*
X143486206Y-163475322D01*
X143495774Y-163446821D01*
X143509402Y-163414773D01*
X143525598Y-163382195D01*
X143542869Y-163352104D01*
X143558577Y-163329011D01*
X143578190Y-163305456D01*
X143602153Y-163280151D01*
X143628287Y-163255150D01*
X143654415Y-163232512D01*
X143678360Y-163214292D01*
X143684173Y-163210393D01*
X143738276Y-163180397D01*
X143795360Y-163158131D01*
X143854553Y-163143638D01*
X143914981Y-163136961D01*
X143975772Y-163138144D01*
G37*
G36*
X140761725Y-162673045D02*
G01*
X140782277Y-162681701D01*
X140800012Y-162696998D01*
X140812389Y-162716503D01*
X140814033Y-162720483D01*
X140815435Y-162725194D01*
X140816613Y-162731316D01*
X140817587Y-162739528D01*
X140818378Y-162750509D01*
X140819004Y-162764936D01*
X140819485Y-162783488D01*
X140819842Y-162806844D01*
X140820092Y-162835684D01*
X140820256Y-162870684D01*
X140820354Y-162912525D01*
X140820405Y-162961884D01*
X140820421Y-162994880D01*
X140820494Y-163041388D01*
X140820674Y-163085247D01*
X140820949Y-163125718D01*
X140821309Y-163162062D01*
X140821744Y-163193542D01*
X140822244Y-163219419D01*
X140822798Y-163238955D01*
X140823397Y-163251410D01*
X140824029Y-163256046D01*
X140824065Y-163256060D01*
X140829161Y-163253210D01*
X140836799Y-163246273D01*
X140837536Y-163245499D01*
X140845862Y-163238052D01*
X140858885Y-163227935D01*
X140874057Y-163217111D01*
X140877009Y-163215111D01*
X140930856Y-163184006D01*
X140987549Y-163160677D01*
X141046274Y-163145131D01*
X141106216Y-163137374D01*
X141166562Y-163137416D01*
X141226497Y-163145261D01*
X141285206Y-163160919D01*
X141341876Y-163184395D01*
X141387942Y-163210574D01*
X141411610Y-163227807D01*
X141437910Y-163250120D01*
X141464705Y-163275439D01*
X141489863Y-163301686D01*
X141511250Y-163326785D01*
X141521315Y-163340331D01*
X141552995Y-163393603D01*
X141576968Y-163450308D01*
X141593050Y-163509710D01*
X141601053Y-163571072D01*
X141600792Y-163633658D01*
X141599415Y-163649400D01*
X141589260Y-163711817D01*
X141572131Y-163769469D01*
X141547699Y-163823051D01*
X141515633Y-163873257D01*
X141475604Y-163920783D01*
X141465502Y-163931142D01*
X141417598Y-163973795D01*
X141367222Y-164008278D01*
X141313992Y-164034762D01*
X141257525Y-164053416D01*
X141197439Y-164064412D01*
X141160156Y-164067375D01*
X141096537Y-164066783D01*
X141037220Y-164059030D01*
X140981400Y-164043871D01*
X140928270Y-164021063D01*
X140877025Y-163990361D01*
X140855984Y-163975140D01*
X140820515Y-163948180D01*
X140820421Y-163977230D01*
X140817232Y-164007196D01*
X140808101Y-164031958D01*
X140793369Y-164050910D01*
X140773376Y-164063443D01*
X140771868Y-164064033D01*
X140749141Y-164068504D01*
X140725635Y-164066075D01*
X140707057Y-164058451D01*
X140693787Y-164047875D01*
X140682125Y-164034525D01*
X140680209Y-164031603D01*
X140670085Y-164014878D01*
X140670071Y-163602150D01*
X140822938Y-163602150D01*
X140823058Y-163628065D01*
X140823609Y-163647498D01*
X140824837Y-163662562D01*
X140826990Y-163675372D01*
X140830315Y-163688040D01*
X140834501Y-163701033D01*
X140855049Y-163749016D01*
X140882491Y-163792395D01*
X140916146Y-163830533D01*
X140955330Y-163862796D01*
X140999363Y-163888548D01*
X141047561Y-163907152D01*
X141059124Y-163910343D01*
X141089686Y-163915597D01*
X141125139Y-163917553D01*
X141162486Y-163916336D01*
X141198728Y-163912071D01*
X141230870Y-163904884D01*
X141237118Y-163902914D01*
X141282738Y-163883244D01*
X141324087Y-163856786D01*
X141360622Y-163824427D01*
X141391801Y-163787053D01*
X141417081Y-163745551D01*
X141435920Y-163700805D01*
X141447774Y-163653703D01*
X141452101Y-163605129D01*
X141448620Y-163557617D01*
X141437703Y-163509026D01*
X141420544Y-163465372D01*
X141396418Y-163425250D01*
X141364598Y-163387255D01*
X141356032Y-163378589D01*
X141319485Y-163346587D01*
X141282129Y-163322294D01*
X141242206Y-163304871D01*
X141197956Y-163293479D01*
X141168288Y-163289156D01*
X141116541Y-163287595D01*
X141066309Y-163294344D01*
X141018307Y-163309154D01*
X140973252Y-163331774D01*
X140931859Y-163361953D01*
X140914668Y-163377884D01*
X140880555Y-163417468D01*
X140853160Y-163461235D01*
X140834921Y-163503267D01*
X140830211Y-163517469D01*
X140826925Y-163529793D01*
X140824808Y-163542335D01*
X140823608Y-163557190D01*
X140823069Y-163576455D01*
X140822938Y-163602150D01*
X140670071Y-163602150D01*
X140670063Y-163369776D01*
X140670041Y-162724673D01*
X140681493Y-162707012D01*
X140698239Y-162688013D01*
X140718198Y-162676092D01*
X140739863Y-162671139D01*
X140761725Y-162673045D01*
G37*
G36*
X145709483Y-162675382D02*
G01*
X145729709Y-162686389D01*
X145746233Y-162702803D01*
X145755787Y-162720008D01*
X145756902Y-162727453D01*
X145757862Y-162743472D01*
X145758666Y-162768070D01*
X145759314Y-162801248D01*
X145759807Y-162843011D01*
X145760144Y-162893362D01*
X145760325Y-162952304D01*
X145760359Y-162996284D01*
X145760359Y-163260458D01*
X145785080Y-163240322D01*
X145835811Y-163204378D01*
X145890072Y-163175934D01*
X145947062Y-163155077D01*
X146005975Y-163141889D01*
X146066009Y-163136456D01*
X146126361Y-163138862D01*
X146186226Y-163149192D01*
X146244802Y-163167529D01*
X146288852Y-163187329D01*
X146342383Y-163219584D01*
X146390989Y-163258504D01*
X146434055Y-163303333D01*
X146470967Y-163353312D01*
X146501111Y-163407685D01*
X146523873Y-163465695D01*
X146529093Y-163483409D01*
X146540376Y-163524763D01*
X146541828Y-163768829D01*
X146543281Y-164012894D01*
X146533425Y-164030430D01*
X146518534Y-164049013D01*
X146499221Y-164061593D01*
X146477310Y-164067857D01*
X146454627Y-164067495D01*
X146432996Y-164060193D01*
X146418653Y-164050061D01*
X146410196Y-164039970D01*
X146402069Y-164026721D01*
X146400476Y-164023477D01*
X146398692Y-164019148D01*
X146397196Y-164014046D01*
X146395962Y-164007424D01*
X146394964Y-163998532D01*
X146394176Y-163986620D01*
X146393574Y-163970940D01*
X146393132Y-163950742D01*
X146392825Y-163925277D01*
X146392627Y-163893795D01*
X146392513Y-163855548D01*
X146392457Y-163809786D01*
X146392444Y-163786733D01*
X146392388Y-163733933D01*
X146392230Y-163688927D01*
X146391918Y-163650913D01*
X146391394Y-163619086D01*
X146390605Y-163592643D01*
X146389496Y-163570780D01*
X146388010Y-163552693D01*
X146386095Y-163537579D01*
X146383694Y-163524634D01*
X146380752Y-163513054D01*
X146377215Y-163502036D01*
X146373028Y-163490777D01*
X146372027Y-163488220D01*
X146349625Y-163442510D01*
X146320781Y-163401694D01*
X146286330Y-163366280D01*
X146247107Y-163336775D01*
X146203946Y-163313685D01*
X146157682Y-163297519D01*
X146109150Y-163288783D01*
X146059185Y-163287985D01*
X146044645Y-163289299D01*
X146022505Y-163292471D01*
X145999743Y-163296766D01*
X145980309Y-163301412D01*
X145975322Y-163302882D01*
X145936433Y-163319197D01*
X145898357Y-163342666D01*
X145862653Y-163371878D01*
X145830876Y-163405422D01*
X145804585Y-163441885D01*
X145788547Y-163472212D01*
X145783287Y-163484170D01*
X145778810Y-163494908D01*
X145775043Y-163505215D01*
X145771917Y-163515880D01*
X145769362Y-163527690D01*
X145767305Y-163541435D01*
X145765677Y-163557902D01*
X145764407Y-163577881D01*
X145763424Y-163602158D01*
X145762657Y-163631523D01*
X145762037Y-163666764D01*
X145761492Y-163708670D01*
X145760952Y-163758028D01*
X145760690Y-163783042D01*
X145758210Y-164019825D01*
X145747535Y-164035394D01*
X145730691Y-164052986D01*
X145709663Y-164064252D01*
X145686417Y-164068616D01*
X145662918Y-164065501D01*
X145655028Y-164062550D01*
X145635818Y-164049409D01*
X145620839Y-164029344D01*
X145616539Y-164020332D01*
X145615626Y-164017454D01*
X145614800Y-164013131D01*
X145614056Y-164006954D01*
X145613390Y-163998515D01*
X145612798Y-163987405D01*
X145612276Y-163973215D01*
X145611820Y-163955537D01*
X145611426Y-163933961D01*
X145611090Y-163908079D01*
X145610807Y-163877483D01*
X145610573Y-163841764D01*
X145610385Y-163800512D01*
X145610237Y-163753319D01*
X145610127Y-163699777D01*
X145610050Y-163639477D01*
X145610002Y-163572010D01*
X145609978Y-163496967D01*
X145609975Y-163413940D01*
X145609980Y-163369053D01*
X145609996Y-163282614D01*
X145610021Y-163204354D01*
X145610060Y-163133854D01*
X145610118Y-163070697D01*
X145610201Y-163014462D01*
X145610313Y-162964732D01*
X145610459Y-162921086D01*
X145610645Y-162883107D01*
X145610877Y-162850375D01*
X145611158Y-162822471D01*
X145611495Y-162798977D01*
X145611891Y-162779473D01*
X145612354Y-162763541D01*
X145612887Y-162750761D01*
X145613496Y-162740716D01*
X145614186Y-162732985D01*
X145614963Y-162727151D01*
X145615830Y-162722793D01*
X145616794Y-162719494D01*
X145617860Y-162716834D01*
X145618011Y-162716503D01*
X145632070Y-162694462D01*
X145650567Y-162679779D01*
X145673631Y-162672368D01*
X145687765Y-162671361D01*
X145709483Y-162675382D01*
G37*
G36*
X151702729Y-163138589D02*
G01*
X151722826Y-163145911D01*
X151740594Y-163160056D01*
X151745726Y-163166339D01*
X151749050Y-163172337D01*
X151755648Y-163185584D01*
X151765247Y-163205499D01*
X151777576Y-163231496D01*
X151792363Y-163262994D01*
X151809335Y-163299408D01*
X151828221Y-163340155D01*
X151848749Y-163384652D01*
X151870647Y-163432316D01*
X151893642Y-163482562D01*
X151916806Y-163533362D01*
X151940395Y-163585178D01*
X151962958Y-163634726D01*
X151984242Y-163681450D01*
X152003996Y-163724797D01*
X152021965Y-163764211D01*
X152037897Y-163799139D01*
X152051539Y-163829025D01*
X152062638Y-163853316D01*
X152070941Y-163871457D01*
X152076195Y-163882894D01*
X152078148Y-163887072D01*
X152078152Y-163887078D01*
X152080021Y-163883430D01*
X152085198Y-163872501D01*
X152093433Y-163854835D01*
X152104474Y-163830980D01*
X152118071Y-163801480D01*
X152133973Y-163766881D01*
X152151930Y-163727730D01*
X152171689Y-163684571D01*
X152193002Y-163637951D01*
X152215616Y-163588416D01*
X152239281Y-163536510D01*
X152241947Y-163530657D01*
X152272055Y-163464669D01*
X152298835Y-163406190D01*
X152322455Y-163354873D01*
X152343079Y-163310370D01*
X152360873Y-163272333D01*
X152376003Y-163240413D01*
X152388634Y-163214262D01*
X152398932Y-163193534D01*
X152407061Y-163177880D01*
X152413188Y-163166951D01*
X152417479Y-163160400D01*
X152418800Y-163158842D01*
X152438436Y-163144501D01*
X152460776Y-163137672D01*
X152484043Y-163138532D01*
X152506460Y-163147256D01*
X152510389Y-163149758D01*
X152527517Y-163163857D01*
X152537543Y-163179113D01*
X152541839Y-163198128D01*
X152542265Y-163210158D01*
X152542158Y-163214135D01*
X152541768Y-163218356D01*
X152540917Y-163223234D01*
X152539424Y-163229179D01*
X152537112Y-163236604D01*
X152533800Y-163245920D01*
X152529310Y-163257538D01*
X152523463Y-163271872D01*
X152516079Y-163289332D01*
X152506980Y-163310330D01*
X152495987Y-163335278D01*
X152482919Y-163364588D01*
X152467599Y-163398671D01*
X152449847Y-163437938D01*
X152429484Y-163482803D01*
X152406331Y-163533676D01*
X152380209Y-163590969D01*
X152350939Y-163655094D01*
X152318341Y-163726462D01*
X152304425Y-163756923D01*
X152275280Y-163820652D01*
X152246907Y-163882572D01*
X152219532Y-163942195D01*
X152193382Y-163999033D01*
X152168683Y-164052596D01*
X152145663Y-164102396D01*
X152124547Y-164147944D01*
X152105563Y-164188752D01*
X152088936Y-164224330D01*
X152074895Y-164254191D01*
X152063665Y-164277846D01*
X152055473Y-164294805D01*
X152050546Y-164304581D01*
X152049708Y-164306090D01*
X152015527Y-164356216D01*
X151975445Y-164401093D01*
X151930287Y-164440233D01*
X151880881Y-164473148D01*
X151828053Y-164499351D01*
X151772629Y-164518354D01*
X151715435Y-164529670D01*
X151665310Y-164532882D01*
X151644963Y-164532702D01*
X151630971Y-164531829D01*
X151621096Y-164529861D01*
X151613100Y-164526396D01*
X151606654Y-164522348D01*
X151589544Y-164505951D01*
X151578610Y-164485366D01*
X151574247Y-164462595D01*
X151576849Y-164439639D01*
X151586328Y-164419192D01*
X151597009Y-164406474D01*
X151610102Y-164397110D01*
X151627250Y-164390404D01*
X151650096Y-164385661D01*
X151671835Y-164382986D01*
X151705496Y-164378728D01*
X151733671Y-164372905D01*
X151759444Y-164364639D01*
X151785902Y-164353050D01*
X151797763Y-164347081D01*
X151825901Y-164329726D01*
X151854802Y-164307073D01*
X151881820Y-164281488D01*
X151904309Y-164255336D01*
X151911029Y-164245873D01*
X151916958Y-164235814D01*
X151925201Y-164220289D01*
X151935090Y-164200719D01*
X151945956Y-164178527D01*
X151957128Y-164155135D01*
X151967937Y-164131963D01*
X151977715Y-164110435D01*
X151985792Y-164091972D01*
X151991499Y-164077996D01*
X151994166Y-164069928D01*
X151994279Y-164069019D01*
X151992528Y-164064571D01*
X151987428Y-164052820D01*
X151979214Y-164034281D01*
X151968116Y-164009468D01*
X151954368Y-163978896D01*
X151938203Y-163943080D01*
X151919853Y-163902534D01*
X151899550Y-163857773D01*
X151877528Y-163809312D01*
X151854018Y-163757665D01*
X151829254Y-163703347D01*
X151804189Y-163648449D01*
X151773750Y-163581799D01*
X151746706Y-163522507D01*
X151722860Y-163470117D01*
X151702015Y-163424177D01*
X151683974Y-163384230D01*
X151668540Y-163349824D01*
X151655515Y-163320503D01*
X151644702Y-163295813D01*
X151635904Y-163275300D01*
X151628923Y-163258508D01*
X151623562Y-163244985D01*
X151619625Y-163234275D01*
X151616913Y-163225924D01*
X151615230Y-163219477D01*
X151614378Y-163214481D01*
X151614159Y-163210672D01*
X151617881Y-163187283D01*
X151627947Y-163167794D01*
X151642910Y-163152693D01*
X151661325Y-163142467D01*
X151681746Y-163137604D01*
X151702729Y-163138589D01*
G37*
G36*
X151314141Y-163139066D02*
G01*
X151317108Y-163139967D01*
X151335387Y-163149724D01*
X151351727Y-163165023D01*
X151363464Y-163183085D01*
X151366594Y-163191594D01*
X151367413Y-163198083D01*
X151368122Y-163211189D01*
X151368723Y-163231108D01*
X151369216Y-163258034D01*
X151369604Y-163292163D01*
X151369887Y-163333690D01*
X151370067Y-163382810D01*
X151370145Y-163439717D01*
X151370122Y-163504609D01*
X151370000Y-163577678D01*
X151369780Y-163659121D01*
X151369738Y-163672067D01*
X151369502Y-163746916D01*
X151369290Y-163813700D01*
X151369073Y-163872951D01*
X151368823Y-163925200D01*
X151368509Y-163970982D01*
X151368103Y-164010828D01*
X151367577Y-164045270D01*
X151366901Y-164074841D01*
X151366046Y-164100075D01*
X151364983Y-164121503D01*
X151363684Y-164139657D01*
X151362119Y-164155071D01*
X151360260Y-164168276D01*
X151358077Y-164179806D01*
X151355541Y-164190193D01*
X151352624Y-164199969D01*
X151349296Y-164209667D01*
X151345529Y-164219819D01*
X151341294Y-164230959D01*
X151339010Y-164237017D01*
X151317064Y-164285443D01*
X151288181Y-164331500D01*
X151251664Y-164376241D01*
X151235461Y-164393297D01*
X151206085Y-164421674D01*
X151178892Y-164444575D01*
X151151433Y-164463769D01*
X151121260Y-164481026D01*
X151098412Y-164492336D01*
X151070043Y-164505050D01*
X151044575Y-164514653D01*
X151019884Y-164521593D01*
X150993850Y-164526313D01*
X150964347Y-164529261D01*
X150929255Y-164530882D01*
X150913017Y-164531262D01*
X150878624Y-164531607D01*
X150851484Y-164531159D01*
X150830280Y-164529860D01*
X150813697Y-164527651D01*
X150808356Y-164526565D01*
X150746996Y-164509015D01*
X150691145Y-164485166D01*
X150640140Y-164454708D01*
X150615262Y-164436114D01*
X150593407Y-164418064D01*
X150577646Y-164403440D01*
X150567012Y-164390758D01*
X150560538Y-164378538D01*
X150557259Y-164365296D01*
X150556207Y-164349549D01*
X150556178Y-164345496D01*
X150557653Y-164322638D01*
X150562868Y-164305880D01*
X150573010Y-164293110D01*
X150589268Y-164282218D01*
X150592810Y-164280357D01*
X150614540Y-164272401D01*
X150635484Y-164271676D01*
X150656745Y-164278425D01*
X150679426Y-164292887D01*
X150689890Y-164301537D01*
X150723451Y-164328221D01*
X150756610Y-164348655D01*
X150792194Y-164364556D01*
X150795706Y-164365858D01*
X150842788Y-164378660D01*
X150892022Y-164383956D01*
X150941762Y-164381852D01*
X150990361Y-164372454D01*
X151036174Y-164355868D01*
X151048992Y-164349578D01*
X151091309Y-164322682D01*
X151129125Y-164289086D01*
X151161562Y-164249886D01*
X151187744Y-164206179D01*
X151206795Y-164159063D01*
X151209995Y-164148155D01*
X151211989Y-164137435D01*
X151213920Y-164120914D01*
X151215726Y-164100028D01*
X151217348Y-164076214D01*
X151218724Y-164050910D01*
X151219793Y-164025551D01*
X151220497Y-164001576D01*
X151220772Y-163980420D01*
X151220560Y-163963521D01*
X151219800Y-163952315D01*
X151218430Y-163948240D01*
X151218424Y-163948240D01*
X151213850Y-163950870D01*
X151204881Y-163957747D01*
X151194038Y-163966885D01*
X151158925Y-163993398D01*
X151117646Y-164017480D01*
X151072544Y-164037955D01*
X151025958Y-164053646D01*
X151016199Y-164056225D01*
X150988573Y-164061518D01*
X150955354Y-164065324D01*
X150919441Y-164067513D01*
X150883731Y-164067952D01*
X150851125Y-164066511D01*
X150833132Y-164064528D01*
X150772848Y-164051550D01*
X150715821Y-164030689D01*
X150661929Y-164001880D01*
X150611051Y-163965061D01*
X150564561Y-163921730D01*
X150523981Y-163874104D01*
X150491480Y-163824133D01*
X150466847Y-163771287D01*
X150449873Y-163715036D01*
X150440348Y-163654852D01*
X150437949Y-163602150D01*
X150437974Y-163601763D01*
X150588498Y-163601763D01*
X150590631Y-163645128D01*
X150597199Y-163683358D01*
X150608690Y-163718957D01*
X150613756Y-163730797D01*
X150639119Y-163776662D01*
X150670935Y-163817249D01*
X150708513Y-163851973D01*
X150751160Y-163880253D01*
X150798185Y-163901507D01*
X150827032Y-163910343D01*
X150856892Y-163915494D01*
X150891678Y-163917511D01*
X150928353Y-163916513D01*
X150963884Y-163912619D01*
X150995235Y-163905947D01*
X151003301Y-163903445D01*
X151048931Y-163883605D01*
X151091174Y-163856091D01*
X151130435Y-163820641D01*
X151131019Y-163820031D01*
X151164206Y-163779961D01*
X151189319Y-163737407D01*
X151206713Y-163691596D01*
X151216739Y-163641756D01*
X151218033Y-163629722D01*
X151218401Y-163580355D01*
X151210834Y-163531962D01*
X151195920Y-163485460D01*
X151174246Y-163441771D01*
X151146400Y-163401812D01*
X151112970Y-163366503D01*
X151074542Y-163336763D01*
X151031705Y-163313510D01*
X151010618Y-163305224D01*
X150960097Y-163292016D01*
X150909352Y-163287098D01*
X150859216Y-163290228D01*
X150810521Y-163301164D01*
X150764097Y-163319661D01*
X150720776Y-163345477D01*
X150681389Y-163378370D01*
X150653263Y-163409626D01*
X150625252Y-163451576D01*
X150605158Y-163496762D01*
X150592929Y-163545337D01*
X150588515Y-163597454D01*
X150588498Y-163601763D01*
X150437974Y-163601763D01*
X150442023Y-163537979D01*
X150454128Y-163476712D01*
X150474084Y-163418690D01*
X150501715Y-163364257D01*
X150536843Y-163313755D01*
X150579289Y-163267524D01*
X150628875Y-163225908D01*
X150636474Y-163220401D01*
X150687681Y-163189051D01*
X150742217Y-163165076D01*
X150799180Y-163148454D01*
X150857666Y-163139167D01*
X150916773Y-163137195D01*
X150975596Y-163142519D01*
X151033233Y-163155117D01*
X151088780Y-163174972D01*
X151141334Y-163202064D01*
X151184945Y-163232313D01*
X151220413Y-163260380D01*
X151220413Y-163227987D01*
X151221747Y-163202536D01*
X151226292Y-163183123D01*
X151234865Y-163167527D01*
X151247537Y-163154176D01*
X151267645Y-163141934D01*
X151290727Y-163136717D01*
X151314141Y-163139066D01*
G37*
%TD*%
M02*
