M48
; DRILL file {KiCad 7.0.2-6a45011f42~172~ubuntu22.04.1} date Mon 29 May 2023 23:07:18
; FORMAT={-:-/ absolute / inch / decimal}
; #@! TF.CreationDate,2023-05-29T23:07:18+12:00
; #@! TF.GenerationSoftware,Kicad,Pcbnew,7.0.2-6a45011f42~172~ubuntu22.04.1
; #@! TF.FileFunction,Plated,1,4,PTH
FMAT,2
INCH
; #@! TA.AperFunction,Plated,PTH,ViaDrill
T1C0.0118
; #@! TA.AperFunction,Plated,PTH,ComponentDrill
T2C0.0394
%
G90
G05
T1
X5.3524Y-6.0315
X5.3524Y-6.4685
X5.3573Y-6.0728
X5.3573Y-6.1722
X5.3583Y-6.372
X5.3593Y-6.2717
X5.426Y-6.372
X5.4262Y-6.1722
X5.4272Y-6.0728
X5.4272Y-6.2717
X5.4449Y-6.4724
X5.4463Y-6.1984
X5.4488Y-5.872
X5.4488Y-5.8957
X5.4488Y-5.9252
X5.4488Y-5.9547
X5.4488Y-5.9783
X5.4646Y-6.0945
X5.4646Y-6.1339
X5.4646Y-6.1732
X5.4724Y-5.872
X5.4724Y-5.9783
X5.4764Y-6.1142
X5.4764Y-6.1535
X5.4764Y-6.3504
X5.4764Y-6.3898
X5.4803Y-6.4724
X5.4882Y-6.0945
X5.4882Y-6.1339
X5.4882Y-6.1732
X5.4882Y-6.3307
X5.4882Y-6.3701
X5.4882Y-6.4094
X5.5Y-6.1142
X5.5Y-6.1535
X5.5Y-6.3504
X5.5Y-6.3898
X5.5079Y-6.4724
X5.5118Y-5.872
X5.5118Y-5.9783
X5.5118Y-6.0433
X5.5118Y-6.0945
X5.5118Y-6.1339
X5.5118Y-6.1732
X5.5118Y-6.3307
X5.5118Y-6.3701
X5.5118Y-6.4094
X5.5236Y-6.1142
X5.5236Y-6.1535
X5.5236Y-6.3504
X5.5236Y-6.3898
X5.5354Y-5.872
X5.5354Y-5.8957
X5.5354Y-5.9252
X5.5354Y-5.9547
X5.5354Y-5.9783
X5.5354Y-6.0945
X5.5354Y-6.1339
X5.5354Y-6.1732
X5.5354Y-6.3307
X5.5354Y-6.3701
X5.5354Y-6.4094
X5.5374Y-6.4724
X5.5472Y-6.1142
X5.5472Y-6.1535
X5.5472Y-6.3504
X5.5472Y-6.3898
X5.5591Y-6.0945
X5.5591Y-6.1339
X5.5591Y-6.1732
X5.5591Y-6.3307
X5.5591Y-6.3701
X5.5591Y-6.4094
X5.5669Y-6.4724
X5.5844Y-6.4233
X5.5846Y-6.1969
X5.6004Y-6.4724
X5.6063Y-5.872
X5.6063Y-5.8957
X5.6063Y-5.9252
X5.6063Y-5.9547
X5.6063Y-5.9783
X5.6122Y-6.0945
X5.6122Y-6.1339
X5.6122Y-6.1732
X5.6122Y-6.3307
X5.6122Y-6.3701
X5.6122Y-6.4094
X5.624Y-6.1142
X5.624Y-6.1535
X5.624Y-6.3504
X5.624Y-6.3898
X5.628Y-6.4724
X5.6299Y-5.872
X5.6299Y-5.9783
X5.6299Y-6.0433
X5.6358Y-6.0945
X5.6358Y-6.1339
X5.6358Y-6.1732
X5.6358Y-6.3307
X5.6358Y-6.3701
X5.6358Y-6.4094
X5.6476Y-6.1142
X5.6476Y-6.1535
X5.6476Y-6.3504
X5.6476Y-6.3898
X5.6594Y-6.0945
X5.6594Y-6.1339
X5.6594Y-6.1732
X5.6594Y-6.3307
X5.6594Y-6.3701
X5.6594Y-6.4094
X5.6624Y-6.4724
X5.6693Y-5.872
X5.6693Y-5.9783
X5.6713Y-6.1142
X5.6713Y-6.1535
X5.6713Y-6.3504
X5.6713Y-6.3898
X5.6831Y-6.0945
X5.6831Y-6.1339
X5.6831Y-6.1732
X5.6831Y-6.3307
X5.6831Y-6.3701
X5.6831Y-6.4094
X5.689Y-6.4724
X5.6929Y-5.872
X5.6929Y-5.8957
X5.6929Y-5.9252
X5.6929Y-5.9547
X5.6929Y-5.9783
X5.6949Y-6.1142
X5.6949Y-6.1535
X5.6949Y-6.3504
X5.6949Y-6.3898
X5.7067Y-6.0945
X5.7067Y-6.1339
X5.7067Y-6.1732
X5.7067Y-6.3307
X5.7067Y-6.3701
X5.7067Y-6.4094
X5.7146Y-6.4724
X5.7333Y-6.1923
X5.7402Y-6.4724
X5.7618Y-5.872
X5.7618Y-5.8957
X5.7618Y-5.9252
X5.7618Y-5.9547
X5.7618Y-5.9783
X5.7618Y-6.0945
X5.7618Y-6.1339
X5.7618Y-6.1732
X5.7677Y-6.4724
X5.7736Y-6.1142
X5.7736Y-6.1535
X5.7766Y-6.3661
X5.7854Y-5.872
X5.7854Y-5.9783
X5.7854Y-6.0945
X5.7854Y-6.1339
X5.7854Y-6.1732
X5.7953Y-6.4724
X5.7972Y-6.1142
X5.7972Y-6.1535
X5.8091Y-6.0945
X5.8091Y-6.1339
X5.8091Y-6.1732
X5.8209Y-6.1142
X5.8209Y-6.1535
X5.8228Y-6.4724
X5.8248Y-5.872
X5.8248Y-5.9783
X5.8268Y-6.0433
X5.8327Y-6.0945
X5.8327Y-6.1339
X5.8327Y-6.1732
X5.8376Y-6.3661
X5.8445Y-6.1142
X5.8445Y-6.1535
X5.8484Y-5.872
X5.8484Y-5.8957
X5.8484Y-5.9252
X5.8484Y-5.9547
X5.8484Y-5.9783
X5.8504Y-6.4724
X5.8563Y-6.0945
X5.8563Y-6.1339
X5.8563Y-6.1732
X5.876Y-6.4724
X5.8848Y-6.2087
X5.9016Y-6.4724
X5.9213Y-5.872
X5.9213Y-5.8957
X5.9213Y-5.9252
X5.9213Y-5.9547
X5.9213Y-5.9783
X5.9291Y-6.4724
X5.9449Y-5.872
X5.9449Y-5.9783
X5.9449Y-6.0433
X5.9488Y-6.3386
X5.9488Y-6.3976
X5.9528Y-6.2205
X5.9528Y-6.2795
X5.9567Y-6.4724
X5.9596Y-6.1024
X5.9843Y-5.872
X5.9843Y-5.9783
X5.9843Y-6.4724
X6.0079Y-5.872
X6.0079Y-5.8957
X6.0079Y-5.9252
X6.0079Y-5.9547
X6.0079Y-5.9783
X6.0118Y-6.4724
X6.0276Y-6.0728
X6.0294Y-6.1714
X6.0295Y-6.2717
X6.0295Y-6.372
X6.0984Y-6.0728
X6.0984Y-6.1722
X6.0984Y-6.2717
X6.0984Y-6.372
X6.1024Y-6.0315
X6.1043Y-6.4685
T2
X5.3937Y-6.122
X5.3937Y-6.222
X5.3937Y-6.322
X5.3937Y-6.422
X5.4921Y-5.9252
X5.6496Y-5.9252
X5.8071Y-5.9252
X5.9646Y-5.9252
X6.063Y-6.122
X6.063Y-6.222
X6.063Y-6.322
X6.063Y-6.422
T0
M30
