%TF.GenerationSoftware,KiCad,Pcbnew,7.0.2-6a45011f42~172~ubuntu22.04.1*%
%TF.CreationDate,2023-05-29T23:07:21+12:00*%
%TF.ProjectId,THE_BRAWN-20A_POWER,5448455f-4252-4415-974e-2d3230415f50,v2.0*%
%TF.SameCoordinates,Original*%
%TF.FileFunction,Profile,NP*%
%FSLAX46Y46*%
G04 Gerber Fmt 4.6, Leading zero omitted, Abs format (unit mm)*
G04 Created by KiCad (PCBNEW 7.0.2-6a45011f42~172~ubuntu22.04.1) date 2023-05-29 23:07:21*
%MOMM*%
%LPD*%
G01*
G04 APERTURE LIST*
%TA.AperFunction,Profile*%
%ADD10C,0.050000*%
%TD*%
G04 APERTURE END LIST*
D10*
X149000000Y-148750000D02*
X149000000Y-152250000D01*
X138000000Y-148750000D02*
X138000000Y-152250000D01*
X153000000Y-148750000D02*
X153000000Y-152250000D01*
X155500000Y-152750000D02*
X155500000Y-164750000D01*
X141000000Y-148750000D02*
X141000000Y-152250000D01*
X145500000Y-152750000D02*
G75*
G03*
X146000000Y-152250000I0J500000D01*
G01*
X135500000Y-152750000D02*
X135500000Y-164750000D01*
X138000000Y-148750000D02*
X141000000Y-148750000D01*
X149000000Y-152250000D02*
G75*
G03*
X149500000Y-152750000I500000J0D01*
G01*
X141000000Y-152250000D02*
G75*
G03*
X141500000Y-152750000I500000J0D01*
G01*
X142000000Y-148750000D02*
X142000000Y-152250000D01*
X135500000Y-152750000D02*
X137500000Y-152750000D01*
X142000000Y-148750000D02*
X145000000Y-148750000D01*
X137500000Y-152750000D02*
G75*
G03*
X138000000Y-152250000I0J500000D01*
G01*
X150000000Y-148750000D02*
X153000000Y-148750000D01*
X155500000Y-164750000D02*
X135500000Y-164750000D01*
X153000000Y-152250000D02*
G75*
G03*
X153500000Y-152750000I500000J0D01*
G01*
X149500000Y-152750000D02*
G75*
G03*
X150000000Y-152250000I0J500000D01*
G01*
X150000000Y-148750000D02*
X150000000Y-152250000D01*
X146000000Y-148750000D02*
X149000000Y-148750000D01*
X146000000Y-148750000D02*
X146000000Y-152250000D01*
X141500000Y-152750000D02*
G75*
G03*
X142000000Y-152250000I0J500000D01*
G01*
X145000000Y-148750000D02*
X145000000Y-152250000D01*
X153500000Y-152750000D02*
X155500000Y-152750000D01*
X145000000Y-152250000D02*
G75*
G03*
X145500000Y-152750000I500000J0D01*
G01*
M02*
