%TF.GenerationSoftware,KiCad,Pcbnew,7.0.2-6a45011f42~172~ubuntu22.04.1*%
%TF.CreationDate,2023-05-29T23:07:21+12:00*%
%TF.ProjectId,THE_BRAWN-20A_POWER,5448455f-4252-4415-974e-2d3230415f50,v2.0*%
%TF.SameCoordinates,Original*%
%TF.FileFunction,Copper,L2,Inr*%
%TF.FilePolarity,Positive*%
%FSLAX46Y46*%
G04 Gerber Fmt 4.6, Leading zero omitted, Abs format (unit mm)*
G04 Created by KiCad (PCBNEW 7.0.2-6a45011f42~172~ubuntu22.04.1) date 2023-05-29 23:07:21*
%MOMM*%
%LPD*%
G01*
G04 APERTURE LIST*
G04 Aperture macros list*
%AMRoundRect*
0 Rectangle with rounded corners*
0 $1 Rounding radius*
0 $2 $3 $4 $5 $6 $7 $8 $9 X,Y pos of 4 corners*
0 Add a 4 corners polygon primitive as box body*
4,1,4,$2,$3,$4,$5,$6,$7,$8,$9,$2,$3,0*
0 Add four circle primitives for the rounded corners*
1,1,$1+$1,$2,$3*
1,1,$1+$1,$4,$5*
1,1,$1+$1,$6,$7*
1,1,$1+$1,$8,$9*
0 Add four rect primitives between the rounded corners*
20,1,$1+$1,$2,$3,$4,$5,0*
20,1,$1+$1,$4,$5,$6,$7,0*
20,1,$1+$1,$6,$7,$8,$9,0*
20,1,$1+$1,$8,$9,$2,$3,0*%
G04 Aperture macros list end*
%TA.AperFunction,ComponentPad*%
%ADD10RoundRect,0.450000X-0.450000X-0.450000X0.450000X-0.450000X0.450000X0.450000X-0.450000X0.450000X0*%
%TD*%
%TA.AperFunction,ComponentPad*%
%ADD11C,2.000000*%
%TD*%
%TA.AperFunction,ViaPad*%
%ADD12C,0.500000*%
%TD*%
%TA.AperFunction,Conductor*%
%ADD13C,0.200000*%
%TD*%
G04 APERTURE END LIST*
D10*
%TO.N,GND*%
%TO.C,J2*%
X137000000Y-155500000D03*
X137000000Y-158040000D03*
%TO.N,/A_FET_N2*%
X137000000Y-160580000D03*
%TO.N,/A_FET_N1*%
X137000000Y-163120000D03*
%TD*%
D11*
%TO.N,/A_MOTOR-*%
%TO.C,H4*%
X143500000Y-150500000D03*
%TD*%
%TO.N,/A_MOTOR+*%
%TO.C,H3*%
X139500000Y-150500000D03*
%TD*%
%TO.N,GND*%
%TO.C,H2*%
X151500000Y-150500000D03*
%TD*%
D10*
%TO.N,/A_FET_N1_HS*%
%TO.C,J1*%
X154000000Y-155500000D03*
%TO.N,/A_FET_N2_HS*%
X154000000Y-158040000D03*
%TO.N,VCC*%
X154000000Y-160580000D03*
%TO.N,GND*%
X154000000Y-163120000D03*
%TD*%
D11*
%TO.N,Net-(Q1-D)*%
%TO.C,H1*%
X147500000Y-150500000D03*
%TD*%
D12*
%TO.N,/A_MOTOR+*%
X141200000Y-162800000D03*
X140300000Y-155300000D03*
X140600000Y-156800000D03*
X140600000Y-150500000D03*
X139400000Y-160800000D03*
X140300000Y-162300000D03*
X140000000Y-151850000D03*
X140000000Y-156800000D03*
X139400000Y-155800000D03*
X139100000Y-162300000D03*
X140600000Y-149150000D03*
X140000000Y-149150000D03*
X141200000Y-156800000D03*
X141200000Y-161800000D03*
X140000000Y-162800000D03*
X140600000Y-160800000D03*
X139400000Y-162800000D03*
X139700000Y-161300000D03*
X140600000Y-151850000D03*
X140000000Y-153500000D03*
X140000000Y-160800000D03*
X140600000Y-151250000D03*
X139700000Y-162300000D03*
X138800000Y-156800000D03*
X138400000Y-149150000D03*
X140000000Y-161800000D03*
X139000000Y-151850000D03*
X138400000Y-149750000D03*
X139400000Y-161800000D03*
X139000000Y-149150000D03*
X140600000Y-154800000D03*
X140300000Y-156300000D03*
X141200000Y-154800000D03*
X140000000Y-155800000D03*
X138400000Y-150500000D03*
X141200000Y-155800000D03*
X139100000Y-161300000D03*
X139700000Y-155300000D03*
X139100000Y-155300000D03*
X140600000Y-161800000D03*
X139400000Y-154800000D03*
X138400000Y-151250000D03*
X140300000Y-161300000D03*
X139700000Y-156300000D03*
X138400000Y-151850000D03*
X138800000Y-154800000D03*
X140600000Y-162800000D03*
X139100000Y-156300000D03*
X140900000Y-161300000D03*
X140600000Y-149750000D03*
X140600000Y-155800000D03*
X141200000Y-160800000D03*
X140900000Y-162300000D03*
X140900000Y-155300000D03*
X140000000Y-154800000D03*
X139400000Y-156800000D03*
X138800000Y-155800000D03*
X140900000Y-156300000D03*
%TO.N,/A_MOTOR-*%
X144950000Y-161800000D03*
X142400000Y-151850000D03*
X143150000Y-155800000D03*
X142400000Y-150500000D03*
X144650000Y-161300000D03*
X144350000Y-161800000D03*
X142400000Y-149750000D03*
X144350000Y-156800000D03*
X144600000Y-149750000D03*
X144950000Y-160800000D03*
X144050000Y-161300000D03*
X143000000Y-149150000D03*
X143150000Y-162800000D03*
X143150000Y-156800000D03*
X142850000Y-161300000D03*
X144050000Y-155300000D03*
X142550000Y-156800000D03*
X142400000Y-149150000D03*
X143750000Y-162800000D03*
X144000000Y-149150000D03*
X142400000Y-151250000D03*
X142550000Y-154800000D03*
X144350000Y-162800000D03*
X142550000Y-162800000D03*
X143450000Y-156300000D03*
X143750000Y-154800000D03*
X143450000Y-162300000D03*
X144050000Y-162300000D03*
X144350000Y-160800000D03*
X144000000Y-151850000D03*
X144950000Y-154800000D03*
X142850000Y-156300000D03*
X143150000Y-160800000D03*
X144650000Y-156300000D03*
X144650000Y-162300000D03*
X143000000Y-151850000D03*
X143450000Y-161300000D03*
X142550000Y-161800000D03*
X142550000Y-160800000D03*
X143750000Y-155800000D03*
X143450000Y-155300000D03*
X144950000Y-155800000D03*
X144350000Y-155800000D03*
X144950000Y-162800000D03*
X143000000Y-153500000D03*
X142850000Y-162300000D03*
X143150000Y-161800000D03*
X143750000Y-161800000D03*
X144600000Y-150500000D03*
X144600000Y-151250000D03*
X144050000Y-156300000D03*
X144650000Y-155300000D03*
X144600000Y-151850000D03*
X144950000Y-156800000D03*
X143750000Y-160800000D03*
X143750000Y-156800000D03*
X142550000Y-155800000D03*
X142850000Y-155300000D03*
X143150000Y-154800000D03*
X144600000Y-149150000D03*
X144350000Y-154800000D03*
%TO.N,VCC*%
X149475000Y-157700000D03*
%TO.N,GND*%
X137820230Y-161849775D03*
X152600000Y-150500000D03*
X135950000Y-153200000D03*
X154900000Y-159300000D03*
X136100000Y-161850000D03*
X152700000Y-164400000D03*
X151000000Y-151850000D03*
X145150000Y-164400000D03*
X152000000Y-149150000D03*
X136125000Y-159300000D03*
X153150000Y-161850000D03*
X152000000Y-164400000D03*
X141400000Y-164400000D03*
X150400000Y-149750000D03*
X138300000Y-164400000D03*
X150400000Y-149150000D03*
X152600000Y-149750000D03*
X139900000Y-164400000D03*
X152000000Y-151850000D03*
X140650000Y-164400000D03*
X142250000Y-164400000D03*
X154900000Y-161850000D03*
X145800000Y-164400000D03*
X155000000Y-153200000D03*
X155050000Y-164300000D03*
X154900000Y-156775000D03*
X152600000Y-151250000D03*
X137850000Y-154250000D03*
X149900000Y-164400000D03*
X148599503Y-164400000D03*
X153100000Y-154250000D03*
X150400000Y-151850000D03*
X150400000Y-150500000D03*
X152600000Y-149150000D03*
X136075000Y-156775000D03*
X151000000Y-149150000D03*
X137850000Y-159300000D03*
X151000000Y-153500000D03*
X150600000Y-164400000D03*
X152600000Y-151850000D03*
X147200498Y-164400000D03*
X153150000Y-159300000D03*
X145625000Y-157285000D03*
X150400000Y-151250000D03*
X151300000Y-164400000D03*
X149250000Y-164400000D03*
X136075000Y-154250000D03*
X143825000Y-164400000D03*
X135950000Y-164300000D03*
X144500000Y-164400000D03*
X154900000Y-154250000D03*
X137825000Y-156775000D03*
%TO.N,/A_FET_P1*%
X138336801Y-157439387D03*
X146725000Y-161700000D03*
X151200000Y-159500000D03*
%TO.N,/A_FET_N1*%
X151100000Y-161000000D03*
X139200000Y-164400000D03*
%TO.N,/A_FET_N1_HS*%
X151374500Y-155000000D03*
X146500000Y-164400000D03*
%TO.N,/A_FET_N2_HS*%
X147900001Y-164400000D03*
X153147731Y-156754538D03*
%TO.N,/A_FET_P2*%
X151200000Y-158000000D03*
X148275000Y-161700000D03*
X141850000Y-157400000D03*
%TO.N,/A_FET_N2*%
X141842774Y-163152480D03*
X142950000Y-164400000D03*
X151100000Y-162500000D03*
%TO.N,Net-(Q1-D)*%
X147850000Y-156300000D03*
X148750000Y-154800000D03*
X146950000Y-154800000D03*
X146350000Y-155800000D03*
X147950000Y-151850000D03*
X148450000Y-156300000D03*
X146650000Y-155300000D03*
X148550000Y-150500000D03*
X148550000Y-151850000D03*
X146950000Y-156800000D03*
X146350000Y-151250000D03*
X146950000Y-149150000D03*
X147550000Y-156800000D03*
X148550000Y-149750000D03*
X148150000Y-156800000D03*
X146350000Y-149150000D03*
X146350000Y-151850000D03*
X148450000Y-155300000D03*
X146350000Y-149750000D03*
X146950000Y-151850000D03*
X146350000Y-154800000D03*
X148750000Y-155800000D03*
X148150000Y-154800000D03*
X146350000Y-150500000D03*
X146650000Y-156300000D03*
X147250000Y-156300000D03*
X147850000Y-155300000D03*
X147250000Y-155300000D03*
X147550000Y-155800000D03*
X148750000Y-156800000D03*
X148550000Y-151250000D03*
X147950000Y-149150000D03*
X148150000Y-155800000D03*
X148550000Y-149150000D03*
X147550000Y-154800000D03*
X146350000Y-156800000D03*
X148000000Y-153500000D03*
X146950000Y-155800000D03*
%TD*%
D13*
%TO.N,/A_FET_N1*%
X137155000Y-163475000D02*
X136800000Y-163120000D01*
%TO.N,/A_FET_N2*%
X142950000Y-163900000D02*
X142500000Y-163450000D01*
X142500000Y-163450000D02*
X142140294Y-163450000D01*
X142950000Y-164400500D02*
X142950000Y-163900000D01*
X137157818Y-160580000D02*
X136800000Y-160580000D01*
X142140294Y-163450000D02*
X141842774Y-163152480D01*
%TD*%
%TA.AperFunction,Conductor*%
%TO.N,GND*%
G36*
X152842539Y-148870185D02*
G01*
X152888294Y-148922989D01*
X152899500Y-148974500D01*
X152899500Y-152317660D01*
X152929610Y-152449587D01*
X152988324Y-152571505D01*
X152988325Y-152571507D01*
X153072695Y-152677305D01*
X153178493Y-152761675D01*
X153300411Y-152820388D01*
X153300412Y-152820389D01*
X153432339Y-152850500D01*
X153432340Y-152850500D01*
X153484083Y-152850500D01*
X155275500Y-152850500D01*
X155342539Y-152870185D01*
X155388294Y-152922989D01*
X155399500Y-152974500D01*
X155399500Y-164525500D01*
X155379815Y-164592539D01*
X155327011Y-164638294D01*
X155275500Y-164649500D01*
X148462365Y-164649500D01*
X148395326Y-164629815D01*
X148349571Y-164577011D01*
X148339627Y-164507853D01*
X148355134Y-164400000D01*
X148336698Y-164271774D01*
X148311956Y-164217598D01*
X148282882Y-164153935D01*
X148198050Y-164056033D01*
X148089069Y-163985994D01*
X147964774Y-163949500D01*
X147964773Y-163949500D01*
X147835229Y-163949500D01*
X147835228Y-163949500D01*
X147710932Y-163985994D01*
X147601951Y-164056033D01*
X147517119Y-164153935D01*
X147463303Y-164271773D01*
X147444868Y-164399999D01*
X147460375Y-164507853D01*
X147450431Y-164577012D01*
X147404676Y-164629816D01*
X147337637Y-164649500D01*
X147062364Y-164649500D01*
X146995325Y-164629815D01*
X146949570Y-164577011D01*
X146939626Y-164507853D01*
X146955133Y-164400000D01*
X146936697Y-164271774D01*
X146911955Y-164217598D01*
X146882881Y-164153935D01*
X146798049Y-164056033D01*
X146689068Y-163985994D01*
X146564773Y-163949500D01*
X146564772Y-163949500D01*
X146435228Y-163949500D01*
X146435227Y-163949500D01*
X146310931Y-163985994D01*
X146201950Y-164056033D01*
X146117118Y-164153935D01*
X146063302Y-164271773D01*
X146044867Y-164399999D01*
X146060374Y-164507853D01*
X146050430Y-164577012D01*
X146004675Y-164629816D01*
X145937636Y-164649500D01*
X143512364Y-164649500D01*
X143445325Y-164629815D01*
X143399570Y-164577011D01*
X143389626Y-164507853D01*
X143405133Y-164400000D01*
X143386697Y-164271774D01*
X143332882Y-164153937D01*
X143323264Y-164142837D01*
X143280786Y-164093813D01*
X143251762Y-164030257D01*
X143250500Y-164012612D01*
X143250500Y-163969245D01*
X143253243Y-163952424D01*
X143252772Y-163942237D01*
X143252773Y-163942235D01*
X143250632Y-163895919D01*
X143250500Y-163890194D01*
X143250500Y-163871177D01*
X143248817Y-163856680D01*
X143247585Y-163830008D01*
X143244786Y-163823670D01*
X143236332Y-163796367D01*
X143235061Y-163789567D01*
X143226371Y-163775532D01*
X143221002Y-163766860D01*
X143212995Y-163751670D01*
X143202206Y-163727235D01*
X143197310Y-163722339D01*
X143179563Y-163699933D01*
X143175919Y-163694048D01*
X143154602Y-163677950D01*
X143141648Y-163666677D01*
X142919458Y-163444487D01*
X142885973Y-163383164D01*
X142890957Y-163313472D01*
X142932829Y-163257539D01*
X142998293Y-163233122D01*
X143042073Y-163237829D01*
X143085227Y-163250500D01*
X143085228Y-163250500D01*
X143214773Y-163250500D01*
X143339068Y-163214005D01*
X143378060Y-163188945D01*
X143382960Y-163185796D01*
X143449999Y-163166112D01*
X143517037Y-163185795D01*
X143518925Y-163187009D01*
X143560931Y-163214005D01*
X143685227Y-163250500D01*
X143685228Y-163250500D01*
X143814773Y-163250500D01*
X143900345Y-163225374D01*
X143939069Y-163214004D01*
X143982958Y-163185797D01*
X144049997Y-163166112D01*
X144117037Y-163185795D01*
X144117039Y-163185797D01*
X144160931Y-163214005D01*
X144285227Y-163250500D01*
X144285228Y-163250500D01*
X144414773Y-163250500D01*
X144539068Y-163214005D01*
X144578060Y-163188945D01*
X144582960Y-163185796D01*
X144649999Y-163166112D01*
X144717037Y-163185795D01*
X144718925Y-163187009D01*
X144760931Y-163214005D01*
X144885227Y-163250500D01*
X144885228Y-163250500D01*
X145014773Y-163250500D01*
X145139068Y-163214005D01*
X145167758Y-163195566D01*
X145248049Y-163143967D01*
X145332882Y-163046063D01*
X145386697Y-162928226D01*
X145405133Y-162800000D01*
X145386697Y-162671774D01*
X145384492Y-162666946D01*
X145332881Y-162553935D01*
X145286146Y-162500000D01*
X150644867Y-162500000D01*
X150663302Y-162628226D01*
X150717118Y-162746064D01*
X150801950Y-162843966D01*
X150801951Y-162843967D01*
X150830640Y-162862404D01*
X150910931Y-162914005D01*
X151035227Y-162950500D01*
X151035228Y-162950500D01*
X151164773Y-162950500D01*
X151289068Y-162914005D01*
X151317758Y-162895566D01*
X151398049Y-162843967D01*
X151482882Y-162746063D01*
X151536697Y-162628226D01*
X151555133Y-162500000D01*
X151538053Y-162381203D01*
X151536697Y-162371773D01*
X151482881Y-162253935D01*
X151398049Y-162156033D01*
X151289068Y-162085994D01*
X151164773Y-162049500D01*
X151164772Y-162049500D01*
X151035228Y-162049500D01*
X151035227Y-162049500D01*
X150910931Y-162085994D01*
X150801950Y-162156033D01*
X150717118Y-162253935D01*
X150663302Y-162371773D01*
X150644867Y-162500000D01*
X145286146Y-162500000D01*
X145248049Y-162456033D01*
X145167574Y-162404314D01*
X145121819Y-162351509D01*
X145111876Y-162282351D01*
X145140902Y-162218795D01*
X145167568Y-162195688D01*
X145248049Y-162143967D01*
X145332882Y-162046063D01*
X145386697Y-161928226D01*
X145405133Y-161800000D01*
X145390755Y-161700000D01*
X146269867Y-161700000D01*
X146288302Y-161828226D01*
X146342118Y-161946064D01*
X146405916Y-162019691D01*
X146426951Y-162043967D01*
X146430214Y-162046064D01*
X146535931Y-162114005D01*
X146660227Y-162150500D01*
X146660228Y-162150500D01*
X146789773Y-162150500D01*
X146914068Y-162114005D01*
X146957650Y-162085996D01*
X147023049Y-162043967D01*
X147107882Y-161946063D01*
X147161697Y-161828226D01*
X147180133Y-161700000D01*
X147819867Y-161700000D01*
X147838302Y-161828226D01*
X147892118Y-161946064D01*
X147955916Y-162019691D01*
X147976951Y-162043967D01*
X147980214Y-162046064D01*
X148085931Y-162114005D01*
X148210227Y-162150500D01*
X148210228Y-162150500D01*
X148339773Y-162150500D01*
X148464068Y-162114005D01*
X148507650Y-162085996D01*
X148573049Y-162043967D01*
X148657882Y-161946063D01*
X148711697Y-161828226D01*
X148730133Y-161700000D01*
X148711697Y-161571774D01*
X148700876Y-161548080D01*
X148657881Y-161453935D01*
X148573049Y-161356033D01*
X148464068Y-161285994D01*
X148339773Y-161249500D01*
X148339772Y-161249500D01*
X148210228Y-161249500D01*
X148210227Y-161249500D01*
X148085931Y-161285994D01*
X147976950Y-161356033D01*
X147892118Y-161453935D01*
X147838302Y-161571773D01*
X147819867Y-161700000D01*
X147180133Y-161700000D01*
X147161697Y-161571774D01*
X147150876Y-161548080D01*
X147107881Y-161453935D01*
X147023049Y-161356033D01*
X146914068Y-161285994D01*
X146789773Y-161249500D01*
X146789772Y-161249500D01*
X146660228Y-161249500D01*
X146660227Y-161249500D01*
X146535931Y-161285994D01*
X146426950Y-161356033D01*
X146342118Y-161453935D01*
X146288302Y-161571773D01*
X146269867Y-161700000D01*
X145390755Y-161700000D01*
X145386697Y-161671774D01*
X145332882Y-161553937D01*
X145332881Y-161553936D01*
X145332881Y-161553935D01*
X145248049Y-161456033D01*
X145167574Y-161404314D01*
X145121819Y-161351509D01*
X145111876Y-161282351D01*
X145140902Y-161218795D01*
X145167568Y-161195688D01*
X145248049Y-161143967D01*
X145332882Y-161046063D01*
X145353919Y-161000000D01*
X150644867Y-161000000D01*
X150663302Y-161128226D01*
X150717118Y-161246064D01*
X150779145Y-161317647D01*
X150801951Y-161343967D01*
X150813687Y-161351509D01*
X150910931Y-161414005D01*
X151035227Y-161450500D01*
X151035228Y-161450500D01*
X151164773Y-161450500D01*
X151289068Y-161414005D01*
X151352947Y-161372952D01*
X151398049Y-161343967D01*
X151482882Y-161246063D01*
X151536697Y-161128226D01*
X151541374Y-161095694D01*
X152899500Y-161095694D01*
X152899690Y-161098114D01*
X152899691Y-161098128D01*
X152902402Y-161132572D01*
X152948255Y-161290397D01*
X152964371Y-161317647D01*
X153031919Y-161431865D01*
X153148135Y-161548081D01*
X153188198Y-161571774D01*
X153289602Y-161631744D01*
X153447427Y-161677597D01*
X153447431Y-161677598D01*
X153484306Y-161680500D01*
X153486751Y-161680500D01*
X154513249Y-161680500D01*
X154515694Y-161680500D01*
X154552569Y-161677598D01*
X154710398Y-161631744D01*
X154851865Y-161548081D01*
X154968081Y-161431865D01*
X155051744Y-161290398D01*
X155097598Y-161132569D01*
X155100500Y-161095694D01*
X155100500Y-160064306D01*
X155097598Y-160027431D01*
X155051744Y-159869602D01*
X154968081Y-159728135D01*
X154851865Y-159611919D01*
X154710397Y-159528255D01*
X154552572Y-159482402D01*
X154518128Y-159479691D01*
X154518114Y-159479690D01*
X154515694Y-159479500D01*
X153484306Y-159479500D01*
X153481886Y-159479690D01*
X153481871Y-159479691D01*
X153447427Y-159482402D01*
X153289602Y-159528255D01*
X153148134Y-159611919D01*
X153031919Y-159728134D01*
X152948255Y-159869602D01*
X152902402Y-160027427D01*
X152899691Y-160061871D01*
X152899690Y-160061886D01*
X152899500Y-160064306D01*
X152899500Y-161095694D01*
X151541374Y-161095694D01*
X151555133Y-161000000D01*
X151537625Y-160878225D01*
X151536697Y-160871773D01*
X151482881Y-160753935D01*
X151398049Y-160656033D01*
X151289068Y-160585994D01*
X151164773Y-160549500D01*
X151164772Y-160549500D01*
X151035228Y-160549500D01*
X151035227Y-160549500D01*
X150910931Y-160585994D01*
X150801950Y-160656033D01*
X150717118Y-160753935D01*
X150663302Y-160871773D01*
X150644867Y-161000000D01*
X145353919Y-161000000D01*
X145386697Y-160928226D01*
X145405133Y-160800000D01*
X145386697Y-160671774D01*
X145379508Y-160656033D01*
X145332881Y-160553935D01*
X145248049Y-160456033D01*
X145139068Y-160385994D01*
X145014773Y-160349500D01*
X145014772Y-160349500D01*
X144885228Y-160349500D01*
X144885227Y-160349500D01*
X144760932Y-160385994D01*
X144717039Y-160414203D01*
X144650000Y-160433887D01*
X144582961Y-160414203D01*
X144539067Y-160385994D01*
X144414773Y-160349500D01*
X144414772Y-160349500D01*
X144285228Y-160349500D01*
X144285227Y-160349500D01*
X144160932Y-160385994D01*
X144117039Y-160414203D01*
X144050000Y-160433887D01*
X143982961Y-160414203D01*
X143939067Y-160385994D01*
X143814773Y-160349500D01*
X143814772Y-160349500D01*
X143685228Y-160349500D01*
X143685227Y-160349500D01*
X143560932Y-160385994D01*
X143517039Y-160414203D01*
X143450000Y-160433887D01*
X143382961Y-160414203D01*
X143339067Y-160385994D01*
X143214773Y-160349500D01*
X143214772Y-160349500D01*
X143085228Y-160349500D01*
X143085227Y-160349500D01*
X142960929Y-160385995D01*
X142917037Y-160414203D01*
X142849998Y-160433887D01*
X142782959Y-160414202D01*
X142739068Y-160385994D01*
X142614773Y-160349500D01*
X142614772Y-160349500D01*
X142485228Y-160349500D01*
X142485227Y-160349500D01*
X142360931Y-160385994D01*
X142251950Y-160456033D01*
X142167118Y-160553935D01*
X142113302Y-160671773D01*
X142094867Y-160800000D01*
X142113302Y-160928226D01*
X142167118Y-161046064D01*
X142242077Y-161132572D01*
X142251951Y-161143967D01*
X142295220Y-161171774D01*
X142332426Y-161195685D01*
X142378180Y-161248489D01*
X142388124Y-161317647D01*
X142359099Y-161381203D01*
X142332426Y-161404315D01*
X142251949Y-161456034D01*
X142167118Y-161553935D01*
X142113302Y-161671773D01*
X142094867Y-161800000D01*
X142113302Y-161928226D01*
X142167118Y-162046064D01*
X142225988Y-162114004D01*
X142251951Y-162143967D01*
X142295220Y-162171774D01*
X142332426Y-162195685D01*
X142378180Y-162248489D01*
X142388124Y-162317647D01*
X142359099Y-162381203D01*
X142332426Y-162404315D01*
X142251949Y-162456034D01*
X142167118Y-162553935D01*
X142121445Y-162653944D01*
X142075690Y-162706748D01*
X142008650Y-162726432D01*
X141973717Y-162721409D01*
X141907547Y-162701980D01*
X141907546Y-162701980D01*
X141778002Y-162701980D01*
X141768660Y-162704723D01*
X141698790Y-162704721D01*
X141640013Y-162666946D01*
X141620933Y-162637256D01*
X141582882Y-162553936D01*
X141498049Y-162456033D01*
X141417574Y-162404314D01*
X141371819Y-162351509D01*
X141361876Y-162282351D01*
X141390902Y-162218795D01*
X141417568Y-162195688D01*
X141498049Y-162143967D01*
X141582882Y-162046063D01*
X141636697Y-161928226D01*
X141655133Y-161800000D01*
X141636697Y-161671774D01*
X141582882Y-161553937D01*
X141582881Y-161553936D01*
X141582881Y-161553935D01*
X141498049Y-161456033D01*
X141417574Y-161404314D01*
X141371819Y-161351509D01*
X141361876Y-161282351D01*
X141390902Y-161218795D01*
X141417568Y-161195688D01*
X141498049Y-161143967D01*
X141582882Y-161046063D01*
X141636697Y-160928226D01*
X141655133Y-160800000D01*
X141636697Y-160671774D01*
X141629508Y-160656033D01*
X141582881Y-160553935D01*
X141498049Y-160456033D01*
X141389068Y-160385994D01*
X141264773Y-160349500D01*
X141264772Y-160349500D01*
X141135228Y-160349500D01*
X141135227Y-160349500D01*
X141010932Y-160385994D01*
X140967039Y-160414203D01*
X140900000Y-160433887D01*
X140832961Y-160414203D01*
X140789067Y-160385994D01*
X140664773Y-160349500D01*
X140664772Y-160349500D01*
X140535228Y-160349500D01*
X140535227Y-160349500D01*
X140410929Y-160385995D01*
X140367037Y-160414203D01*
X140299998Y-160433887D01*
X140232959Y-160414202D01*
X140189068Y-160385994D01*
X140064773Y-160349500D01*
X140064772Y-160349500D01*
X139935228Y-160349500D01*
X139935227Y-160349500D01*
X139810932Y-160385994D01*
X139767039Y-160414203D01*
X139700000Y-160433887D01*
X139632961Y-160414203D01*
X139589067Y-160385994D01*
X139464773Y-160349500D01*
X139464772Y-160349500D01*
X139335228Y-160349500D01*
X139335227Y-160349500D01*
X139210931Y-160385994D01*
X139101950Y-160456033D01*
X139017118Y-160553935D01*
X138963302Y-160671773D01*
X138942757Y-160814669D01*
X138913732Y-160878225D01*
X138887059Y-160901337D01*
X138801950Y-160956033D01*
X138717118Y-161053935D01*
X138663302Y-161171773D01*
X138644867Y-161300000D01*
X138663302Y-161428226D01*
X138717118Y-161546064D01*
X138739396Y-161571774D01*
X138801951Y-161643967D01*
X138854282Y-161677598D01*
X138882426Y-161695685D01*
X138928180Y-161748489D01*
X138938124Y-161817647D01*
X138909099Y-161881203D01*
X138882426Y-161904315D01*
X138801949Y-161956034D01*
X138717118Y-162053935D01*
X138663302Y-162171773D01*
X138644867Y-162300000D01*
X138663302Y-162428226D01*
X138717118Y-162546064D01*
X138796136Y-162637256D01*
X138801951Y-162643967D01*
X138845220Y-162671774D01*
X138887060Y-162698663D01*
X138932814Y-162751467D01*
X138942758Y-162785331D01*
X138963302Y-162928226D01*
X139017118Y-163046064D01*
X139100000Y-163141715D01*
X139101951Y-163143967D01*
X139130640Y-163162404D01*
X139210931Y-163214005D01*
X139335227Y-163250500D01*
X139335228Y-163250500D01*
X139464773Y-163250500D01*
X139589068Y-163214005D01*
X139628060Y-163188945D01*
X139632960Y-163185796D01*
X139699999Y-163166112D01*
X139767037Y-163185795D01*
X139768925Y-163187009D01*
X139810931Y-163214005D01*
X139935227Y-163250500D01*
X139935228Y-163250500D01*
X140064773Y-163250500D01*
X140150345Y-163225374D01*
X140189069Y-163214004D01*
X140232958Y-163185797D01*
X140299997Y-163166112D01*
X140367037Y-163185795D01*
X140367039Y-163185797D01*
X140410931Y-163214005D01*
X140535227Y-163250500D01*
X140535228Y-163250500D01*
X140664773Y-163250500D01*
X140789068Y-163214005D01*
X140828060Y-163188945D01*
X140832960Y-163185796D01*
X140899999Y-163166112D01*
X140967037Y-163185795D01*
X140968925Y-163187009D01*
X141010931Y-163214005D01*
X141135227Y-163250500D01*
X141135228Y-163250500D01*
X141264771Y-163250500D01*
X141264772Y-163250500D01*
X141274110Y-163247757D01*
X141343978Y-163247756D01*
X141402757Y-163285529D01*
X141421840Y-163315222D01*
X141459892Y-163398544D01*
X141499702Y-163444487D01*
X141544725Y-163496447D01*
X141573414Y-163514884D01*
X141653705Y-163566485D01*
X141778001Y-163602980D01*
X141778002Y-163602980D01*
X141814021Y-163602980D01*
X141881060Y-163622665D01*
X141897557Y-163635341D01*
X141910839Y-163647449D01*
X141930611Y-163665475D01*
X141934751Y-163669429D01*
X141948181Y-163682859D01*
X141959616Y-163691916D01*
X141979361Y-163709916D01*
X141985815Y-163712416D01*
X142011099Y-163725743D01*
X142016813Y-163729657D01*
X142042819Y-163735773D01*
X142059211Y-163740849D01*
X142084121Y-163750500D01*
X142091046Y-163750500D01*
X142119436Y-163753794D01*
X142126175Y-163755379D01*
X142152626Y-163751689D01*
X142169758Y-163750500D01*
X142324167Y-163750500D01*
X142391206Y-163770185D01*
X142411848Y-163786819D01*
X142583831Y-163958802D01*
X142617316Y-164020125D01*
X142612332Y-164089817D01*
X142589866Y-164127682D01*
X142567118Y-164153935D01*
X142513302Y-164271773D01*
X142494867Y-164399999D01*
X142510374Y-164507853D01*
X142500430Y-164577012D01*
X142454675Y-164629816D01*
X142387636Y-164649500D01*
X139762364Y-164649500D01*
X139695325Y-164629815D01*
X139649570Y-164577011D01*
X139639626Y-164507853D01*
X139655133Y-164400000D01*
X139636697Y-164271774D01*
X139611955Y-164217598D01*
X139582881Y-164153935D01*
X139498049Y-164056033D01*
X139389068Y-163985994D01*
X139264773Y-163949500D01*
X139264772Y-163949500D01*
X139135228Y-163949500D01*
X139135227Y-163949500D01*
X139010931Y-163985994D01*
X138901950Y-164056033D01*
X138817118Y-164153935D01*
X138763302Y-164271773D01*
X138744867Y-164399999D01*
X138760374Y-164507853D01*
X138750430Y-164577012D01*
X138704675Y-164629816D01*
X138637636Y-164649500D01*
X135724500Y-164649500D01*
X135657461Y-164629815D01*
X135611706Y-164577011D01*
X135600500Y-164525500D01*
X135600500Y-163635694D01*
X135899500Y-163635694D01*
X135899690Y-163638114D01*
X135899691Y-163638128D01*
X135902402Y-163672572D01*
X135948255Y-163830397D01*
X135983619Y-163890194D01*
X136031919Y-163971865D01*
X136148135Y-164088081D01*
X136259490Y-164153936D01*
X136289602Y-164171744D01*
X136447427Y-164217597D01*
X136447431Y-164217598D01*
X136484306Y-164220500D01*
X136486751Y-164220500D01*
X137513249Y-164220500D01*
X137515694Y-164220500D01*
X137552569Y-164217598D01*
X137710398Y-164171744D01*
X137851865Y-164088081D01*
X137968081Y-163971865D01*
X138051744Y-163830398D01*
X138097598Y-163672569D01*
X138100500Y-163635694D01*
X138100500Y-162604306D01*
X138097598Y-162567431D01*
X138051744Y-162409602D01*
X137968081Y-162268135D01*
X137851865Y-162151919D01*
X137838419Y-162143967D01*
X137710397Y-162068255D01*
X137552572Y-162022402D01*
X137518128Y-162019691D01*
X137518114Y-162019690D01*
X137515694Y-162019500D01*
X136484306Y-162019500D01*
X136481886Y-162019690D01*
X136481871Y-162019691D01*
X136447427Y-162022402D01*
X136289602Y-162068255D01*
X136148134Y-162151919D01*
X136031919Y-162268134D01*
X135948255Y-162409602D01*
X135902402Y-162567427D01*
X135899691Y-162601871D01*
X135899690Y-162601886D01*
X135899500Y-162604306D01*
X135899500Y-163635694D01*
X135600500Y-163635694D01*
X135600500Y-161095694D01*
X135899500Y-161095694D01*
X135899690Y-161098114D01*
X135899691Y-161098128D01*
X135902402Y-161132572D01*
X135948255Y-161290397D01*
X135964371Y-161317647D01*
X136031919Y-161431865D01*
X136148135Y-161548081D01*
X136188198Y-161571774D01*
X136289602Y-161631744D01*
X136447427Y-161677597D01*
X136447431Y-161677598D01*
X136484306Y-161680500D01*
X136486751Y-161680500D01*
X137513249Y-161680500D01*
X137515694Y-161680500D01*
X137552569Y-161677598D01*
X137710398Y-161631744D01*
X137851865Y-161548081D01*
X137968081Y-161431865D01*
X138051744Y-161290398D01*
X138097598Y-161132569D01*
X138100500Y-161095694D01*
X138100500Y-160064306D01*
X138097598Y-160027431D01*
X138051744Y-159869602D01*
X137968081Y-159728135D01*
X137851865Y-159611919D01*
X137710397Y-159528255D01*
X137613144Y-159500000D01*
X150744867Y-159500000D01*
X150763302Y-159628226D01*
X150817118Y-159746064D01*
X150901950Y-159843966D01*
X150901951Y-159843967D01*
X150930640Y-159862404D01*
X151010931Y-159914005D01*
X151135227Y-159950500D01*
X151135228Y-159950500D01*
X151264773Y-159950500D01*
X151389068Y-159914005D01*
X151417758Y-159895566D01*
X151498049Y-159843967D01*
X151582882Y-159746063D01*
X151636697Y-159628226D01*
X151655133Y-159500000D01*
X151636697Y-159371774D01*
X151582882Y-159253937D01*
X151582881Y-159253936D01*
X151582881Y-159253935D01*
X151498049Y-159156033D01*
X151389068Y-159085994D01*
X151264773Y-159049500D01*
X151264772Y-159049500D01*
X151135228Y-159049500D01*
X151135227Y-159049500D01*
X151010931Y-159085994D01*
X150901950Y-159156033D01*
X150817118Y-159253935D01*
X150763302Y-159371773D01*
X150744867Y-159500000D01*
X137613144Y-159500000D01*
X137552572Y-159482402D01*
X137518128Y-159479691D01*
X137518114Y-159479690D01*
X137515694Y-159479500D01*
X136484306Y-159479500D01*
X136481886Y-159479690D01*
X136481871Y-159479691D01*
X136447427Y-159482402D01*
X136289602Y-159528255D01*
X136148134Y-159611919D01*
X136031919Y-159728134D01*
X135948255Y-159869602D01*
X135902402Y-160027427D01*
X135899691Y-160061871D01*
X135899690Y-160061886D01*
X135899500Y-160064306D01*
X135899500Y-161095694D01*
X135600500Y-161095694D01*
X135600500Y-157439386D01*
X137881668Y-157439386D01*
X137900103Y-157567613D01*
X137953919Y-157685451D01*
X138013262Y-157753937D01*
X138038752Y-157783354D01*
X138067441Y-157801791D01*
X138147732Y-157853392D01*
X138272028Y-157889887D01*
X138272029Y-157889887D01*
X138401574Y-157889887D01*
X138525869Y-157853392D01*
X138554559Y-157834953D01*
X138634850Y-157783354D01*
X138719683Y-157685450D01*
X138773498Y-157567613D01*
X138791934Y-157439387D01*
X138784117Y-157385022D01*
X138794060Y-157315868D01*
X138839815Y-157263063D01*
X138871918Y-157248401D01*
X138989069Y-157214004D01*
X139032960Y-157185796D01*
X139099999Y-157166112D01*
X139167037Y-157185795D01*
X139168925Y-157187009D01*
X139210931Y-157214005D01*
X139335227Y-157250500D01*
X139335228Y-157250500D01*
X139464773Y-157250500D01*
X139526920Y-157232251D01*
X139589069Y-157214004D01*
X139632958Y-157185797D01*
X139699997Y-157166112D01*
X139767037Y-157185795D01*
X139767039Y-157185797D01*
X139810931Y-157214005D01*
X139935227Y-157250500D01*
X139935228Y-157250500D01*
X140064773Y-157250500D01*
X140189068Y-157214005D01*
X140229324Y-157188134D01*
X140232960Y-157185796D01*
X140299999Y-157166112D01*
X140367037Y-157185795D01*
X140368925Y-157187009D01*
X140410931Y-157214005D01*
X140535227Y-157250500D01*
X140535228Y-157250500D01*
X140664773Y-157250500D01*
X140789068Y-157214005D01*
X140829324Y-157188134D01*
X140832960Y-157185796D01*
X140899999Y-157166112D01*
X140967037Y-157185795D01*
X140968925Y-157187009D01*
X141010931Y-157214005D01*
X141135227Y-157250500D01*
X141273258Y-157250500D01*
X141340297Y-157270185D01*
X141386052Y-157322989D01*
X141395996Y-157392145D01*
X141394866Y-157399998D01*
X141413302Y-157528226D01*
X141467118Y-157646064D01*
X141551950Y-157743966D01*
X141551951Y-157743967D01*
X141567462Y-157753935D01*
X141660931Y-157814005D01*
X141785227Y-157850500D01*
X141785228Y-157850500D01*
X141914773Y-157850500D01*
X142039068Y-157814005D01*
X142086763Y-157783353D01*
X142148049Y-157743967D01*
X142186146Y-157700000D01*
X149019867Y-157700000D01*
X149038302Y-157828226D01*
X149092118Y-157946064D01*
X149176950Y-158043966D01*
X149176951Y-158043967D01*
X149205640Y-158062404D01*
X149285931Y-158114005D01*
X149410227Y-158150500D01*
X149410228Y-158150500D01*
X149539773Y-158150500D01*
X149664068Y-158114005D01*
X149692758Y-158095566D01*
X149773049Y-158043967D01*
X149811146Y-158000000D01*
X150744867Y-158000000D01*
X150763302Y-158128226D01*
X150817118Y-158246064D01*
X150901950Y-158343966D01*
X150901951Y-158343967D01*
X150930640Y-158362404D01*
X151010931Y-158414005D01*
X151135227Y-158450500D01*
X151135228Y-158450500D01*
X151264773Y-158450500D01*
X151389068Y-158414005D01*
X151417758Y-158395566D01*
X151498049Y-158343967D01*
X151582882Y-158246063D01*
X151636697Y-158128226D01*
X151655133Y-158000000D01*
X151636697Y-157871774D01*
X151626981Y-157850500D01*
X151582881Y-157753935D01*
X151498049Y-157656033D01*
X151389068Y-157585994D01*
X151264773Y-157549500D01*
X151264772Y-157549500D01*
X151135228Y-157549500D01*
X151135227Y-157549500D01*
X151010931Y-157585994D01*
X150901950Y-157656033D01*
X150817118Y-157753935D01*
X150763302Y-157871773D01*
X150744867Y-158000000D01*
X149811146Y-158000000D01*
X149857882Y-157946063D01*
X149911697Y-157828226D01*
X149930133Y-157700000D01*
X149911697Y-157571774D01*
X149891135Y-157526751D01*
X149857881Y-157453935D01*
X149773049Y-157356033D01*
X149664068Y-157285994D01*
X149539773Y-157249500D01*
X149539772Y-157249500D01*
X149410228Y-157249500D01*
X149410227Y-157249500D01*
X149285931Y-157285994D01*
X149176950Y-157356033D01*
X149092118Y-157453935D01*
X149038302Y-157571773D01*
X149019867Y-157700000D01*
X142186146Y-157700000D01*
X142232882Y-157646063D01*
X142286697Y-157528226D01*
X142305133Y-157400000D01*
X142302211Y-157379679D01*
X142312154Y-157310525D01*
X142357908Y-157257720D01*
X142424948Y-157238035D01*
X142459879Y-157243057D01*
X142485228Y-157250500D01*
X142485230Y-157250500D01*
X142614773Y-157250500D01*
X142739068Y-157214005D01*
X142779324Y-157188134D01*
X142782960Y-157185796D01*
X142849999Y-157166112D01*
X142917037Y-157185795D01*
X142918925Y-157187009D01*
X142960931Y-157214005D01*
X143085227Y-157250500D01*
X143085228Y-157250500D01*
X143214773Y-157250500D01*
X143276920Y-157232251D01*
X143339069Y-157214004D01*
X143382958Y-157185797D01*
X143449997Y-157166112D01*
X143517037Y-157185795D01*
X143517039Y-157185797D01*
X143560931Y-157214005D01*
X143685227Y-157250500D01*
X143685228Y-157250500D01*
X143814773Y-157250500D01*
X143939068Y-157214005D01*
X143979324Y-157188134D01*
X143982960Y-157185796D01*
X144049999Y-157166112D01*
X144117037Y-157185795D01*
X144118925Y-157187009D01*
X144160931Y-157214005D01*
X144285227Y-157250500D01*
X144285228Y-157250500D01*
X144414773Y-157250500D01*
X144539068Y-157214005D01*
X144579324Y-157188134D01*
X144582960Y-157185796D01*
X144649999Y-157166112D01*
X144717037Y-157185795D01*
X144718925Y-157187009D01*
X144760931Y-157214005D01*
X144885227Y-157250500D01*
X144885228Y-157250500D01*
X145014773Y-157250500D01*
X145139068Y-157214005D01*
X145179322Y-157188135D01*
X145248049Y-157143967D01*
X145332882Y-157046063D01*
X145386697Y-156928226D01*
X145405133Y-156800000D01*
X145894867Y-156800000D01*
X145913302Y-156928226D01*
X145967118Y-157046064D01*
X146050000Y-157141715D01*
X146051951Y-157143967D01*
X146067465Y-157153937D01*
X146160931Y-157214005D01*
X146285227Y-157250500D01*
X146285228Y-157250500D01*
X146414773Y-157250500D01*
X146476920Y-157232251D01*
X146539069Y-157214004D01*
X146582958Y-157185797D01*
X146649997Y-157166112D01*
X146717037Y-157185795D01*
X146717039Y-157185797D01*
X146760931Y-157214005D01*
X146885227Y-157250500D01*
X146885228Y-157250500D01*
X147014773Y-157250500D01*
X147139068Y-157214005D01*
X147179324Y-157188134D01*
X147182960Y-157185796D01*
X147249999Y-157166112D01*
X147317037Y-157185795D01*
X147318925Y-157187009D01*
X147360931Y-157214005D01*
X147485227Y-157250500D01*
X147485228Y-157250500D01*
X147614773Y-157250500D01*
X147739068Y-157214005D01*
X147779324Y-157188134D01*
X147782960Y-157185796D01*
X147849999Y-157166112D01*
X147917037Y-157185795D01*
X147918925Y-157187009D01*
X147960931Y-157214005D01*
X148085227Y-157250500D01*
X148085228Y-157250500D01*
X148214773Y-157250500D01*
X148339068Y-157214005D01*
X148379324Y-157188134D01*
X148382960Y-157185796D01*
X148449999Y-157166112D01*
X148517037Y-157185795D01*
X148518925Y-157187009D01*
X148560931Y-157214005D01*
X148685227Y-157250500D01*
X148685228Y-157250500D01*
X148814773Y-157250500D01*
X148939068Y-157214005D01*
X148979322Y-157188135D01*
X149048049Y-157143967D01*
X149132882Y-157046063D01*
X149186697Y-156928226D01*
X149205133Y-156800000D01*
X149198597Y-156754538D01*
X152692598Y-156754538D01*
X152711033Y-156882764D01*
X152764849Y-157000602D01*
X152804241Y-157046063D01*
X152849682Y-157098505D01*
X152919628Y-157143456D01*
X152965382Y-157196259D01*
X152975326Y-157265418D01*
X152959321Y-157310890D01*
X152948255Y-157329601D01*
X152902402Y-157487427D01*
X152899691Y-157521871D01*
X152899690Y-157521886D01*
X152899500Y-157524306D01*
X152899500Y-158555694D01*
X152899690Y-158558114D01*
X152899691Y-158558128D01*
X152902402Y-158592572D01*
X152948255Y-158750397D01*
X152948256Y-158750398D01*
X153031919Y-158891865D01*
X153148135Y-159008081D01*
X153218171Y-159049500D01*
X153289602Y-159091744D01*
X153447427Y-159137597D01*
X153447431Y-159137598D01*
X153484306Y-159140500D01*
X153486751Y-159140500D01*
X154513249Y-159140500D01*
X154515694Y-159140500D01*
X154552569Y-159137598D01*
X154710398Y-159091744D01*
X154851865Y-159008081D01*
X154968081Y-158891865D01*
X155051744Y-158750398D01*
X155097598Y-158592569D01*
X155100500Y-158555694D01*
X155100500Y-157524306D01*
X155097598Y-157487431D01*
X155087866Y-157453935D01*
X155051744Y-157329602D01*
X155040462Y-157310525D01*
X154968081Y-157188135D01*
X154851865Y-157071919D01*
X154825003Y-157056033D01*
X154710397Y-156988255D01*
X154552572Y-156942402D01*
X154518128Y-156939691D01*
X154518114Y-156939690D01*
X154515694Y-156939500D01*
X154513249Y-156939500D01*
X153719374Y-156939500D01*
X153652335Y-156919815D01*
X153606580Y-156867011D01*
X153596636Y-156797853D01*
X153602864Y-156754538D01*
X153601082Y-156742145D01*
X153611025Y-156672989D01*
X153656780Y-156620185D01*
X153723819Y-156600500D01*
X154513249Y-156600500D01*
X154515694Y-156600500D01*
X154552569Y-156597598D01*
X154710398Y-156551744D01*
X154851865Y-156468081D01*
X154968081Y-156351865D01*
X155051744Y-156210398D01*
X155097598Y-156052569D01*
X155100500Y-156015694D01*
X155100500Y-154984306D01*
X155097598Y-154947431D01*
X155092018Y-154928226D01*
X155051744Y-154789602D01*
X154982060Y-154671773D01*
X154968081Y-154648135D01*
X154851865Y-154531919D01*
X154710397Y-154448255D01*
X154552572Y-154402402D01*
X154518128Y-154399691D01*
X154518114Y-154399690D01*
X154515694Y-154399500D01*
X153484306Y-154399500D01*
X153481886Y-154399690D01*
X153481871Y-154399691D01*
X153447427Y-154402402D01*
X153289602Y-154448255D01*
X153148134Y-154531919D01*
X153031919Y-154648134D01*
X152948255Y-154789602D01*
X152902402Y-154947427D01*
X152899691Y-154981871D01*
X152899690Y-154981886D01*
X152899500Y-154984306D01*
X152899500Y-156015694D01*
X152899690Y-156018114D01*
X152899691Y-156018128D01*
X152902402Y-156052572D01*
X152952626Y-156225441D01*
X152950946Y-156225928D01*
X152963250Y-156274425D01*
X152941090Y-156340687D01*
X152906377Y-156374135D01*
X152849680Y-156410572D01*
X152764849Y-156508473D01*
X152711033Y-156626311D01*
X152692598Y-156754538D01*
X149198597Y-156754538D01*
X149186697Y-156671774D01*
X149165934Y-156626311D01*
X149132881Y-156553935D01*
X149048049Y-156456033D01*
X148967574Y-156404314D01*
X148921819Y-156351509D01*
X148911876Y-156282351D01*
X148940902Y-156218795D01*
X148967568Y-156195688D01*
X149048049Y-156143967D01*
X149132882Y-156046063D01*
X149186697Y-155928226D01*
X149205133Y-155800000D01*
X149186697Y-155671774D01*
X149132882Y-155553937D01*
X149132881Y-155553936D01*
X149132881Y-155553935D01*
X149048049Y-155456033D01*
X148967574Y-155404314D01*
X148921819Y-155351509D01*
X148911876Y-155282351D01*
X148940902Y-155218795D01*
X148967568Y-155195688D01*
X149048049Y-155143967D01*
X149132882Y-155046063D01*
X149153919Y-155000000D01*
X150919367Y-155000000D01*
X150937802Y-155128226D01*
X150991618Y-155246064D01*
X151053645Y-155317647D01*
X151076451Y-155343967D01*
X151088187Y-155351509D01*
X151185431Y-155414005D01*
X151309727Y-155450500D01*
X151309728Y-155450500D01*
X151439273Y-155450500D01*
X151563568Y-155414005D01*
X151627447Y-155372952D01*
X151672549Y-155343967D01*
X151757382Y-155246063D01*
X151811197Y-155128226D01*
X151829633Y-155000000D01*
X151811197Y-154871774D01*
X151757382Y-154753937D01*
X151757381Y-154753936D01*
X151757381Y-154753935D01*
X151672549Y-154656033D01*
X151563568Y-154585994D01*
X151439273Y-154549500D01*
X151439272Y-154549500D01*
X151309728Y-154549500D01*
X151309727Y-154549500D01*
X151185431Y-154585994D01*
X151076450Y-154656033D01*
X150991618Y-154753935D01*
X150937802Y-154871773D01*
X150919367Y-155000000D01*
X149153919Y-155000000D01*
X149186697Y-154928226D01*
X149205133Y-154800000D01*
X149186697Y-154671774D01*
X149179508Y-154656033D01*
X149132881Y-154553935D01*
X149048049Y-154456033D01*
X148939068Y-154385994D01*
X148814773Y-154349500D01*
X148814772Y-154349500D01*
X148685228Y-154349500D01*
X148685227Y-154349500D01*
X148560929Y-154385995D01*
X148517037Y-154414203D01*
X148449998Y-154433887D01*
X148382959Y-154414202D01*
X148339068Y-154385994D01*
X148214773Y-154349500D01*
X148214772Y-154349500D01*
X148085228Y-154349500D01*
X148085227Y-154349500D01*
X147960932Y-154385994D01*
X147917039Y-154414203D01*
X147850000Y-154433887D01*
X147782961Y-154414203D01*
X147739067Y-154385994D01*
X147614773Y-154349500D01*
X147614772Y-154349500D01*
X147485228Y-154349500D01*
X147485227Y-154349500D01*
X147360932Y-154385994D01*
X147317039Y-154414203D01*
X147250000Y-154433887D01*
X147182961Y-154414203D01*
X147139067Y-154385994D01*
X147014773Y-154349500D01*
X147014772Y-154349500D01*
X146885228Y-154349500D01*
X146885227Y-154349500D01*
X146760929Y-154385995D01*
X146717037Y-154414203D01*
X146649998Y-154433887D01*
X146582959Y-154414202D01*
X146539068Y-154385994D01*
X146414773Y-154349500D01*
X146414772Y-154349500D01*
X146285228Y-154349500D01*
X146285227Y-154349500D01*
X146160931Y-154385994D01*
X146051950Y-154456033D01*
X145967118Y-154553935D01*
X145913302Y-154671773D01*
X145894867Y-154800000D01*
X145913302Y-154928226D01*
X145967118Y-155046064D01*
X146051948Y-155143964D01*
X146051951Y-155143967D01*
X146132358Y-155195641D01*
X146132426Y-155195685D01*
X146178180Y-155248489D01*
X146188124Y-155317647D01*
X146159099Y-155381203D01*
X146132426Y-155404315D01*
X146051949Y-155456034D01*
X145967118Y-155553935D01*
X145913302Y-155671773D01*
X145894867Y-155800000D01*
X145913302Y-155928226D01*
X145967118Y-156046064D01*
X146051948Y-156143964D01*
X146051951Y-156143967D01*
X146132358Y-156195641D01*
X146132426Y-156195685D01*
X146178180Y-156248489D01*
X146188124Y-156317647D01*
X146159099Y-156381203D01*
X146132426Y-156404315D01*
X146051949Y-156456034D01*
X145967118Y-156553935D01*
X145913302Y-156671773D01*
X145894867Y-156800000D01*
X145405133Y-156800000D01*
X145386697Y-156671774D01*
X145365934Y-156626311D01*
X145332881Y-156553935D01*
X145248049Y-156456033D01*
X145167574Y-156404314D01*
X145121819Y-156351509D01*
X145111876Y-156282351D01*
X145140902Y-156218795D01*
X145167568Y-156195688D01*
X145248049Y-156143967D01*
X145332882Y-156046063D01*
X145386697Y-155928226D01*
X145405133Y-155800000D01*
X145386697Y-155671774D01*
X145332882Y-155553937D01*
X145332881Y-155553936D01*
X145332881Y-155553935D01*
X145248049Y-155456033D01*
X145167574Y-155404314D01*
X145121819Y-155351509D01*
X145111876Y-155282351D01*
X145140902Y-155218795D01*
X145167568Y-155195688D01*
X145248049Y-155143967D01*
X145332882Y-155046063D01*
X145386697Y-154928226D01*
X145405133Y-154800000D01*
X145386697Y-154671774D01*
X145379508Y-154656033D01*
X145332881Y-154553935D01*
X145248049Y-154456033D01*
X145139068Y-154385994D01*
X145014773Y-154349500D01*
X145014772Y-154349500D01*
X144885228Y-154349500D01*
X144885227Y-154349500D01*
X144760932Y-154385994D01*
X144717039Y-154414203D01*
X144650000Y-154433887D01*
X144582961Y-154414203D01*
X144539067Y-154385994D01*
X144414773Y-154349500D01*
X144414772Y-154349500D01*
X144285228Y-154349500D01*
X144285227Y-154349500D01*
X144160932Y-154385994D01*
X144117039Y-154414203D01*
X144050000Y-154433887D01*
X143982961Y-154414203D01*
X143939067Y-154385994D01*
X143814773Y-154349500D01*
X143814772Y-154349500D01*
X143685228Y-154349500D01*
X143685227Y-154349500D01*
X143560929Y-154385995D01*
X143517037Y-154414203D01*
X143449998Y-154433887D01*
X143382959Y-154414202D01*
X143339068Y-154385994D01*
X143214773Y-154349500D01*
X143214772Y-154349500D01*
X143085228Y-154349500D01*
X143085227Y-154349500D01*
X142960932Y-154385994D01*
X142917039Y-154414203D01*
X142850000Y-154433887D01*
X142782961Y-154414203D01*
X142739067Y-154385994D01*
X142614773Y-154349500D01*
X142614772Y-154349500D01*
X142485228Y-154349500D01*
X142485227Y-154349500D01*
X142360931Y-154385994D01*
X142251950Y-154456033D01*
X142167118Y-154553935D01*
X142113302Y-154671773D01*
X142094867Y-154800000D01*
X142113302Y-154928226D01*
X142167118Y-155046064D01*
X142251948Y-155143964D01*
X142251951Y-155143967D01*
X142332358Y-155195641D01*
X142332426Y-155195685D01*
X142378180Y-155248489D01*
X142388124Y-155317647D01*
X142359099Y-155381203D01*
X142332426Y-155404315D01*
X142251949Y-155456034D01*
X142167118Y-155553935D01*
X142113302Y-155671773D01*
X142094867Y-155800000D01*
X142113302Y-155928226D01*
X142167118Y-156046064D01*
X142251948Y-156143964D01*
X142251951Y-156143967D01*
X142332358Y-156195641D01*
X142332426Y-156195685D01*
X142378180Y-156248489D01*
X142388124Y-156317647D01*
X142359099Y-156381203D01*
X142332426Y-156404315D01*
X142251949Y-156456034D01*
X142167118Y-156553935D01*
X142113302Y-156671773D01*
X142094867Y-156800000D01*
X142097788Y-156820318D01*
X142087844Y-156889477D01*
X142042088Y-156942280D01*
X141975049Y-156961964D01*
X141940116Y-156956941D01*
X141914773Y-156949500D01*
X141914772Y-156949500D01*
X141785228Y-156949500D01*
X141776742Y-156949500D01*
X141709703Y-156929815D01*
X141663948Y-156877011D01*
X141654004Y-156807855D01*
X141655133Y-156800000D01*
X141636697Y-156671773D01*
X141582881Y-156553935D01*
X141498049Y-156456033D01*
X141417574Y-156404314D01*
X141371819Y-156351509D01*
X141361876Y-156282351D01*
X141390902Y-156218795D01*
X141417568Y-156195688D01*
X141498049Y-156143967D01*
X141582882Y-156046063D01*
X141636697Y-155928226D01*
X141655133Y-155800000D01*
X141636697Y-155671774D01*
X141582882Y-155553937D01*
X141582881Y-155553936D01*
X141582881Y-155553935D01*
X141498049Y-155456033D01*
X141417574Y-155404314D01*
X141371819Y-155351509D01*
X141361876Y-155282351D01*
X141390902Y-155218795D01*
X141417568Y-155195688D01*
X141498049Y-155143967D01*
X141582882Y-155046063D01*
X141636697Y-154928226D01*
X141655133Y-154800000D01*
X141636697Y-154671774D01*
X141629508Y-154656033D01*
X141582881Y-154553935D01*
X141498049Y-154456033D01*
X141389068Y-154385994D01*
X141264773Y-154349500D01*
X141264772Y-154349500D01*
X141135228Y-154349500D01*
X141135227Y-154349500D01*
X141010932Y-154385994D01*
X140967039Y-154414203D01*
X140900000Y-154433887D01*
X140832961Y-154414203D01*
X140789067Y-154385994D01*
X140664773Y-154349500D01*
X140664772Y-154349500D01*
X140535228Y-154349500D01*
X140535227Y-154349500D01*
X140410932Y-154385994D01*
X140367039Y-154414203D01*
X140300000Y-154433887D01*
X140232961Y-154414203D01*
X140189067Y-154385994D01*
X140064773Y-154349500D01*
X140064772Y-154349500D01*
X139935228Y-154349500D01*
X139935227Y-154349500D01*
X139810929Y-154385995D01*
X139767037Y-154414203D01*
X139699998Y-154433887D01*
X139632959Y-154414202D01*
X139589068Y-154385994D01*
X139464773Y-154349500D01*
X139464772Y-154349500D01*
X139335228Y-154349500D01*
X139335227Y-154349500D01*
X139210932Y-154385994D01*
X139167039Y-154414203D01*
X139100000Y-154433887D01*
X139032961Y-154414203D01*
X138989067Y-154385994D01*
X138864773Y-154349500D01*
X138864772Y-154349500D01*
X138735228Y-154349500D01*
X138735227Y-154349500D01*
X138610931Y-154385994D01*
X138501950Y-154456033D01*
X138417118Y-154553935D01*
X138363302Y-154671773D01*
X138344867Y-154800000D01*
X138363302Y-154928226D01*
X138417118Y-155046064D01*
X138501948Y-155143964D01*
X138501951Y-155143967D01*
X138582358Y-155195641D01*
X138582426Y-155195685D01*
X138628180Y-155248489D01*
X138638124Y-155317647D01*
X138609099Y-155381203D01*
X138582426Y-155404315D01*
X138501949Y-155456034D01*
X138417118Y-155553935D01*
X138363302Y-155671773D01*
X138344867Y-155800000D01*
X138363302Y-155928226D01*
X138417118Y-156046064D01*
X138501948Y-156143964D01*
X138501951Y-156143967D01*
X138582358Y-156195641D01*
X138582426Y-156195685D01*
X138628180Y-156248489D01*
X138638124Y-156317647D01*
X138609099Y-156381203D01*
X138582426Y-156404315D01*
X138501949Y-156456034D01*
X138417118Y-156553935D01*
X138363302Y-156671773D01*
X138351403Y-156754538D01*
X138344867Y-156800000D01*
X138347788Y-156820318D01*
X138352683Y-156854361D01*
X138342739Y-156923520D01*
X138296984Y-156976324D01*
X138264879Y-156990985D01*
X138147733Y-157025381D01*
X138038751Y-157095420D01*
X137953919Y-157193322D01*
X137900103Y-157311160D01*
X137881668Y-157439386D01*
X135600500Y-157439386D01*
X135600500Y-153500000D01*
X139544867Y-153500000D01*
X139563302Y-153628226D01*
X139617118Y-153746064D01*
X139701950Y-153843966D01*
X139701951Y-153843967D01*
X139730640Y-153862404D01*
X139810931Y-153914005D01*
X139935227Y-153950500D01*
X139935228Y-153950500D01*
X140064773Y-153950500D01*
X140189068Y-153914005D01*
X140217758Y-153895566D01*
X140298049Y-153843967D01*
X140382882Y-153746063D01*
X140436697Y-153628226D01*
X140455133Y-153500000D01*
X142544867Y-153500000D01*
X142563302Y-153628226D01*
X142617118Y-153746064D01*
X142701950Y-153843966D01*
X142701951Y-153843967D01*
X142730640Y-153862404D01*
X142810931Y-153914005D01*
X142935227Y-153950500D01*
X142935228Y-153950500D01*
X143064773Y-153950500D01*
X143189068Y-153914005D01*
X143217758Y-153895566D01*
X143298049Y-153843967D01*
X143382882Y-153746063D01*
X143436697Y-153628226D01*
X143455133Y-153500000D01*
X147544867Y-153500000D01*
X147563302Y-153628226D01*
X147617118Y-153746064D01*
X147701950Y-153843966D01*
X147701951Y-153843967D01*
X147730640Y-153862404D01*
X147810931Y-153914005D01*
X147935227Y-153950500D01*
X147935228Y-153950500D01*
X148064773Y-153950500D01*
X148189068Y-153914005D01*
X148217758Y-153895566D01*
X148298049Y-153843967D01*
X148382882Y-153746063D01*
X148436697Y-153628226D01*
X148455133Y-153500000D01*
X148436697Y-153371774D01*
X148382882Y-153253937D01*
X148382881Y-153253936D01*
X148382881Y-153253935D01*
X148298049Y-153156033D01*
X148189068Y-153085994D01*
X148064773Y-153049500D01*
X148064772Y-153049500D01*
X147935228Y-153049500D01*
X147935227Y-153049500D01*
X147810931Y-153085994D01*
X147701950Y-153156033D01*
X147617118Y-153253935D01*
X147563302Y-153371773D01*
X147544867Y-153500000D01*
X143455133Y-153500000D01*
X143436697Y-153371774D01*
X143382882Y-153253937D01*
X143382881Y-153253936D01*
X143382881Y-153253935D01*
X143298049Y-153156033D01*
X143189068Y-153085994D01*
X143064773Y-153049500D01*
X143064772Y-153049500D01*
X142935228Y-153049500D01*
X142935227Y-153049500D01*
X142810931Y-153085994D01*
X142701950Y-153156033D01*
X142617118Y-153253935D01*
X142563302Y-153371773D01*
X142544867Y-153500000D01*
X140455133Y-153500000D01*
X140436697Y-153371774D01*
X140382882Y-153253937D01*
X140382881Y-153253936D01*
X140382881Y-153253935D01*
X140298049Y-153156033D01*
X140189068Y-153085994D01*
X140064773Y-153049500D01*
X140064772Y-153049500D01*
X139935228Y-153049500D01*
X139935227Y-153049500D01*
X139810931Y-153085994D01*
X139701950Y-153156033D01*
X139617118Y-153253935D01*
X139563302Y-153371773D01*
X139544867Y-153500000D01*
X135600500Y-153500000D01*
X135600500Y-152974500D01*
X135620185Y-152907461D01*
X135672989Y-152861706D01*
X135724500Y-152850500D01*
X137567661Y-152850500D01*
X137633623Y-152835444D01*
X137699588Y-152820389D01*
X137821507Y-152761675D01*
X137927305Y-152677305D01*
X138011675Y-152571507D01*
X138070389Y-152449588D01*
X138089578Y-152365510D01*
X138123686Y-152304533D01*
X138185347Y-152271675D01*
X138245403Y-152274126D01*
X138335227Y-152300500D01*
X138335228Y-152300500D01*
X138464773Y-152300500D01*
X138526920Y-152282251D01*
X138589069Y-152264004D01*
X138632958Y-152235797D01*
X138699997Y-152216112D01*
X138767037Y-152235795D01*
X138767039Y-152235797D01*
X138810931Y-152264005D01*
X138935227Y-152300500D01*
X138935228Y-152300500D01*
X139064773Y-152300500D01*
X139189068Y-152264005D01*
X139217758Y-152245566D01*
X139298049Y-152193967D01*
X139382882Y-152096063D01*
X139387205Y-152086595D01*
X139432961Y-152033791D01*
X139500000Y-152014107D01*
X139567040Y-152033792D01*
X139612794Y-152086595D01*
X139617118Y-152096064D01*
X139701950Y-152193966D01*
X139701951Y-152193967D01*
X139730640Y-152212404D01*
X139810931Y-152264005D01*
X139935227Y-152300500D01*
X139935228Y-152300500D01*
X140064773Y-152300500D01*
X140126920Y-152282251D01*
X140189069Y-152264004D01*
X140232958Y-152235797D01*
X140299997Y-152216112D01*
X140367037Y-152235795D01*
X140367039Y-152235797D01*
X140410931Y-152264005D01*
X140535227Y-152300500D01*
X140535228Y-152300500D01*
X140664773Y-152300500D01*
X140754596Y-152274126D01*
X140824465Y-152274126D01*
X140883243Y-152311901D01*
X140910421Y-152365511D01*
X140929610Y-152449586D01*
X140929611Y-152449588D01*
X140988325Y-152571507D01*
X141072695Y-152677305D01*
X141178493Y-152761675D01*
X141300411Y-152820388D01*
X141300412Y-152820389D01*
X141432339Y-152850500D01*
X141432340Y-152850500D01*
X141567661Y-152850500D01*
X141633623Y-152835444D01*
X141699588Y-152820389D01*
X141821507Y-152761675D01*
X141927305Y-152677305D01*
X142011675Y-152571507D01*
X142070389Y-152449588D01*
X142089578Y-152365510D01*
X142123686Y-152304533D01*
X142185347Y-152271675D01*
X142245403Y-152274126D01*
X142335227Y-152300500D01*
X142335228Y-152300500D01*
X142464773Y-152300500D01*
X142589068Y-152264005D01*
X142628060Y-152238945D01*
X142632960Y-152235796D01*
X142699999Y-152216112D01*
X142767037Y-152235795D01*
X142768925Y-152237009D01*
X142810931Y-152264005D01*
X142935227Y-152300500D01*
X142935228Y-152300500D01*
X143064773Y-152300500D01*
X143189068Y-152264005D01*
X143217758Y-152245566D01*
X143298049Y-152193967D01*
X143382882Y-152096063D01*
X143387205Y-152086595D01*
X143432961Y-152033791D01*
X143500000Y-152014107D01*
X143567040Y-152033792D01*
X143612794Y-152086595D01*
X143617118Y-152096064D01*
X143701950Y-152193966D01*
X143701951Y-152193967D01*
X143730640Y-152212404D01*
X143810931Y-152264005D01*
X143935227Y-152300500D01*
X143935228Y-152300500D01*
X144064773Y-152300500D01*
X144189068Y-152264005D01*
X144228060Y-152238945D01*
X144232960Y-152235796D01*
X144299999Y-152216112D01*
X144367037Y-152235795D01*
X144368925Y-152237009D01*
X144410931Y-152264005D01*
X144535227Y-152300500D01*
X144535228Y-152300500D01*
X144664773Y-152300500D01*
X144754596Y-152274126D01*
X144824465Y-152274126D01*
X144883243Y-152311901D01*
X144910421Y-152365511D01*
X144929610Y-152449586D01*
X144929611Y-152449588D01*
X144988325Y-152571507D01*
X145072695Y-152677305D01*
X145178493Y-152761675D01*
X145300411Y-152820388D01*
X145300412Y-152820389D01*
X145432339Y-152850500D01*
X145432340Y-152850500D01*
X145567661Y-152850500D01*
X145633623Y-152835444D01*
X145699588Y-152820389D01*
X145821507Y-152761675D01*
X145927305Y-152677305D01*
X146011675Y-152571507D01*
X146070389Y-152449588D01*
X146086438Y-152379269D01*
X146120546Y-152318291D01*
X146182207Y-152285433D01*
X146242260Y-152287883D01*
X146285228Y-152300500D01*
X146285230Y-152300500D01*
X146414773Y-152300500D01*
X146539068Y-152264005D01*
X146578060Y-152238945D01*
X146582960Y-152235796D01*
X146649999Y-152216112D01*
X146717037Y-152235795D01*
X146718925Y-152237009D01*
X146760931Y-152264005D01*
X146885227Y-152300500D01*
X146885228Y-152300500D01*
X147014773Y-152300500D01*
X147139068Y-152264005D01*
X147167758Y-152245566D01*
X147248049Y-152193967D01*
X147332882Y-152096063D01*
X147337205Y-152086595D01*
X147382961Y-152033791D01*
X147450000Y-152014107D01*
X147517040Y-152033792D01*
X147562794Y-152086595D01*
X147567118Y-152096064D01*
X147651950Y-152193966D01*
X147651951Y-152193967D01*
X147680640Y-152212404D01*
X147760931Y-152264005D01*
X147885227Y-152300500D01*
X147885228Y-152300500D01*
X148014773Y-152300500D01*
X148139068Y-152264005D01*
X148178060Y-152238945D01*
X148182960Y-152235796D01*
X148249999Y-152216112D01*
X148317037Y-152235795D01*
X148318925Y-152237009D01*
X148360931Y-152264005D01*
X148485227Y-152300500D01*
X148485228Y-152300500D01*
X148614773Y-152300500D01*
X148751456Y-152260367D01*
X148821325Y-152260367D01*
X148880103Y-152298142D01*
X148907281Y-152351752D01*
X148929610Y-152449587D01*
X148988324Y-152571505D01*
X148988325Y-152571507D01*
X149072695Y-152677305D01*
X149178493Y-152761675D01*
X149300411Y-152820388D01*
X149300412Y-152820389D01*
X149432339Y-152850500D01*
X149432340Y-152850500D01*
X149567661Y-152850500D01*
X149633623Y-152835444D01*
X149699588Y-152820389D01*
X149821507Y-152761675D01*
X149927305Y-152677305D01*
X150011675Y-152571507D01*
X150070389Y-152449588D01*
X150100500Y-152317660D01*
X150100500Y-152250000D01*
X150100500Y-152223071D01*
X150100500Y-148974500D01*
X150120185Y-148907461D01*
X150172989Y-148861706D01*
X150224500Y-148850500D01*
X152775500Y-148850500D01*
X152842539Y-148870185D01*
G37*
%TD.AperFunction*%
%TD*%
M02*
