%TF.GenerationSoftware,KiCad,Pcbnew,7.0.2-6a45011f42~172~ubuntu22.04.1*%
%TF.CreationDate,2023-05-29T23:07:21+12:00*%
%TF.ProjectId,THE_BRAWN-20A_POWER,5448455f-4252-4415-974e-2d3230415f50,v2.0*%
%TF.SameCoordinates,Original*%
%TF.FileFunction,AssemblyDrawing,Top*%
%FSLAX46Y46*%
G04 Gerber Fmt 4.6, Leading zero omitted, Abs format (unit mm)*
G04 Created by KiCad (PCBNEW 7.0.2-6a45011f42~172~ubuntu22.04.1) date 2023-05-29 23:07:21*
%MOMM*%
%LPD*%
G01*
G04 APERTURE LIST*
%ADD10C,0.150000*%
%ADD11C,0.100000*%
G04 APERTURE END LIST*
D10*
%TO.C,J2*%
X136462619Y-155833333D02*
X137176904Y-155833333D01*
X137176904Y-155833333D02*
X137319761Y-155880952D01*
X137319761Y-155880952D02*
X137415000Y-155976190D01*
X137415000Y-155976190D02*
X137462619Y-156119047D01*
X137462619Y-156119047D02*
X137462619Y-156214285D01*
X136557857Y-155404761D02*
X136510238Y-155357142D01*
X136510238Y-155357142D02*
X136462619Y-155261904D01*
X136462619Y-155261904D02*
X136462619Y-155023809D01*
X136462619Y-155023809D02*
X136510238Y-154928571D01*
X136510238Y-154928571D02*
X136557857Y-154880952D01*
X136557857Y-154880952D02*
X136653095Y-154833333D01*
X136653095Y-154833333D02*
X136748333Y-154833333D01*
X136748333Y-154833333D02*
X136891190Y-154880952D01*
X136891190Y-154880952D02*
X137462619Y-155452380D01*
X137462619Y-155452380D02*
X137462619Y-154833333D01*
%TO.C,H4*%
X136928571Y-154162619D02*
X136928571Y-153162619D01*
X136928571Y-153162619D02*
X137261904Y-153876904D01*
X137261904Y-153876904D02*
X137595237Y-153162619D01*
X137595237Y-153162619D02*
X137595237Y-154162619D01*
X138214285Y-154162619D02*
X138119047Y-154115000D01*
X138119047Y-154115000D02*
X138071428Y-154067380D01*
X138071428Y-154067380D02*
X138023809Y-153972142D01*
X138023809Y-153972142D02*
X138023809Y-153686428D01*
X138023809Y-153686428D02*
X138071428Y-153591190D01*
X138071428Y-153591190D02*
X138119047Y-153543571D01*
X138119047Y-153543571D02*
X138214285Y-153495952D01*
X138214285Y-153495952D02*
X138357142Y-153495952D01*
X138357142Y-153495952D02*
X138452380Y-153543571D01*
X138452380Y-153543571D02*
X138499999Y-153591190D01*
X138499999Y-153591190D02*
X138547618Y-153686428D01*
X138547618Y-153686428D02*
X138547618Y-153972142D01*
X138547618Y-153972142D02*
X138499999Y-154067380D01*
X138499999Y-154067380D02*
X138452380Y-154115000D01*
X138452380Y-154115000D02*
X138357142Y-154162619D01*
X138357142Y-154162619D02*
X138214285Y-154162619D01*
X139404761Y-153495952D02*
X139404761Y-154162619D01*
X138976190Y-153495952D02*
X138976190Y-154019761D01*
X138976190Y-154019761D02*
X139023809Y-154115000D01*
X139023809Y-154115000D02*
X139119047Y-154162619D01*
X139119047Y-154162619D02*
X139261904Y-154162619D01*
X139261904Y-154162619D02*
X139357142Y-154115000D01*
X139357142Y-154115000D02*
X139404761Y-154067380D01*
X139880952Y-153495952D02*
X139880952Y-154162619D01*
X139880952Y-153591190D02*
X139928571Y-153543571D01*
X139928571Y-153543571D02*
X140023809Y-153495952D01*
X140023809Y-153495952D02*
X140166666Y-153495952D01*
X140166666Y-153495952D02*
X140261904Y-153543571D01*
X140261904Y-153543571D02*
X140309523Y-153638809D01*
X140309523Y-153638809D02*
X140309523Y-154162619D01*
X140642857Y-153495952D02*
X141023809Y-153495952D01*
X140785714Y-153162619D02*
X140785714Y-154019761D01*
X140785714Y-154019761D02*
X140833333Y-154115000D01*
X140833333Y-154115000D02*
X140928571Y-154162619D01*
X140928571Y-154162619D02*
X141023809Y-154162619D01*
X141357143Y-154162619D02*
X141357143Y-153495952D01*
X141357143Y-153162619D02*
X141309524Y-153210238D01*
X141309524Y-153210238D02*
X141357143Y-153257857D01*
X141357143Y-153257857D02*
X141404762Y-153210238D01*
X141404762Y-153210238D02*
X141357143Y-153162619D01*
X141357143Y-153162619D02*
X141357143Y-153257857D01*
X141833333Y-153495952D02*
X141833333Y-154162619D01*
X141833333Y-153591190D02*
X141880952Y-153543571D01*
X141880952Y-153543571D02*
X141976190Y-153495952D01*
X141976190Y-153495952D02*
X142119047Y-153495952D01*
X142119047Y-153495952D02*
X142214285Y-153543571D01*
X142214285Y-153543571D02*
X142261904Y-153638809D01*
X142261904Y-153638809D02*
X142261904Y-154162619D01*
X143166666Y-153495952D02*
X143166666Y-154305476D01*
X143166666Y-154305476D02*
X143119047Y-154400714D01*
X143119047Y-154400714D02*
X143071428Y-154448333D01*
X143071428Y-154448333D02*
X142976190Y-154495952D01*
X142976190Y-154495952D02*
X142833333Y-154495952D01*
X142833333Y-154495952D02*
X142738095Y-154448333D01*
X143166666Y-154115000D02*
X143071428Y-154162619D01*
X143071428Y-154162619D02*
X142880952Y-154162619D01*
X142880952Y-154162619D02*
X142785714Y-154115000D01*
X142785714Y-154115000D02*
X142738095Y-154067380D01*
X142738095Y-154067380D02*
X142690476Y-153972142D01*
X142690476Y-153972142D02*
X142690476Y-153686428D01*
X142690476Y-153686428D02*
X142738095Y-153591190D01*
X142738095Y-153591190D02*
X142785714Y-153543571D01*
X142785714Y-153543571D02*
X142880952Y-153495952D01*
X142880952Y-153495952D02*
X143071428Y-153495952D01*
X143071428Y-153495952D02*
X143166666Y-153543571D01*
X143642857Y-154162619D02*
X143642857Y-153162619D01*
X143642857Y-153638809D02*
X144214285Y-153638809D01*
X144214285Y-154162619D02*
X144214285Y-153162619D01*
X144833333Y-154162619D02*
X144738095Y-154115000D01*
X144738095Y-154115000D02*
X144690476Y-154067380D01*
X144690476Y-154067380D02*
X144642857Y-153972142D01*
X144642857Y-153972142D02*
X144642857Y-153686428D01*
X144642857Y-153686428D02*
X144690476Y-153591190D01*
X144690476Y-153591190D02*
X144738095Y-153543571D01*
X144738095Y-153543571D02*
X144833333Y-153495952D01*
X144833333Y-153495952D02*
X144976190Y-153495952D01*
X144976190Y-153495952D02*
X145071428Y-153543571D01*
X145071428Y-153543571D02*
X145119047Y-153591190D01*
X145119047Y-153591190D02*
X145166666Y-153686428D01*
X145166666Y-153686428D02*
X145166666Y-153972142D01*
X145166666Y-153972142D02*
X145119047Y-154067380D01*
X145119047Y-154067380D02*
X145071428Y-154115000D01*
X145071428Y-154115000D02*
X144976190Y-154162619D01*
X144976190Y-154162619D02*
X144833333Y-154162619D01*
X145738095Y-154162619D02*
X145642857Y-154115000D01*
X145642857Y-154115000D02*
X145595238Y-154019761D01*
X145595238Y-154019761D02*
X145595238Y-153162619D01*
X146500000Y-154115000D02*
X146404762Y-154162619D01*
X146404762Y-154162619D02*
X146214286Y-154162619D01*
X146214286Y-154162619D02*
X146119048Y-154115000D01*
X146119048Y-154115000D02*
X146071429Y-154019761D01*
X146071429Y-154019761D02*
X146071429Y-153638809D01*
X146071429Y-153638809D02*
X146119048Y-153543571D01*
X146119048Y-153543571D02*
X146214286Y-153495952D01*
X146214286Y-153495952D02*
X146404762Y-153495952D01*
X146404762Y-153495952D02*
X146500000Y-153543571D01*
X146500000Y-153543571D02*
X146547619Y-153638809D01*
X146547619Y-153638809D02*
X146547619Y-153734047D01*
X146547619Y-153734047D02*
X146071429Y-153829285D01*
X146738096Y-154257857D02*
X147500000Y-154257857D01*
X147738096Y-154162619D02*
X147738096Y-153162619D01*
X147738096Y-153162619D02*
X148119048Y-153162619D01*
X148119048Y-153162619D02*
X148214286Y-153210238D01*
X148214286Y-153210238D02*
X148261905Y-153257857D01*
X148261905Y-153257857D02*
X148309524Y-153353095D01*
X148309524Y-153353095D02*
X148309524Y-153495952D01*
X148309524Y-153495952D02*
X148261905Y-153591190D01*
X148261905Y-153591190D02*
X148214286Y-153638809D01*
X148214286Y-153638809D02*
X148119048Y-153686428D01*
X148119048Y-153686428D02*
X147738096Y-153686428D01*
X149166667Y-154162619D02*
X149166667Y-153638809D01*
X149166667Y-153638809D02*
X149119048Y-153543571D01*
X149119048Y-153543571D02*
X149023810Y-153495952D01*
X149023810Y-153495952D02*
X148833334Y-153495952D01*
X148833334Y-153495952D02*
X148738096Y-153543571D01*
X149166667Y-154115000D02*
X149071429Y-154162619D01*
X149071429Y-154162619D02*
X148833334Y-154162619D01*
X148833334Y-154162619D02*
X148738096Y-154115000D01*
X148738096Y-154115000D02*
X148690477Y-154019761D01*
X148690477Y-154019761D02*
X148690477Y-153924523D01*
X148690477Y-153924523D02*
X148738096Y-153829285D01*
X148738096Y-153829285D02*
X148833334Y-153781666D01*
X148833334Y-153781666D02*
X149071429Y-153781666D01*
X149071429Y-153781666D02*
X149166667Y-153734047D01*
X150071429Y-154162619D02*
X150071429Y-153162619D01*
X150071429Y-154115000D02*
X149976191Y-154162619D01*
X149976191Y-154162619D02*
X149785715Y-154162619D01*
X149785715Y-154162619D02*
X149690477Y-154115000D01*
X149690477Y-154115000D02*
X149642858Y-154067380D01*
X149642858Y-154067380D02*
X149595239Y-153972142D01*
X149595239Y-153972142D02*
X149595239Y-153686428D01*
X149595239Y-153686428D02*
X149642858Y-153591190D01*
X149642858Y-153591190D02*
X149690477Y-153543571D01*
X149690477Y-153543571D02*
X149785715Y-153495952D01*
X149785715Y-153495952D02*
X149976191Y-153495952D01*
X149976191Y-153495952D02*
X150071429Y-153543571D01*
X142738095Y-150962619D02*
X142738095Y-149962619D01*
X142738095Y-150438809D02*
X143309523Y-150438809D01*
X143309523Y-150962619D02*
X143309523Y-149962619D01*
X144214285Y-150295952D02*
X144214285Y-150962619D01*
X143976190Y-149915000D02*
X143738095Y-150629285D01*
X143738095Y-150629285D02*
X144357142Y-150629285D01*
%TO.C,H3*%
X132928571Y-154162619D02*
X132928571Y-153162619D01*
X132928571Y-153162619D02*
X133261904Y-153876904D01*
X133261904Y-153876904D02*
X133595237Y-153162619D01*
X133595237Y-153162619D02*
X133595237Y-154162619D01*
X134214285Y-154162619D02*
X134119047Y-154115000D01*
X134119047Y-154115000D02*
X134071428Y-154067380D01*
X134071428Y-154067380D02*
X134023809Y-153972142D01*
X134023809Y-153972142D02*
X134023809Y-153686428D01*
X134023809Y-153686428D02*
X134071428Y-153591190D01*
X134071428Y-153591190D02*
X134119047Y-153543571D01*
X134119047Y-153543571D02*
X134214285Y-153495952D01*
X134214285Y-153495952D02*
X134357142Y-153495952D01*
X134357142Y-153495952D02*
X134452380Y-153543571D01*
X134452380Y-153543571D02*
X134499999Y-153591190D01*
X134499999Y-153591190D02*
X134547618Y-153686428D01*
X134547618Y-153686428D02*
X134547618Y-153972142D01*
X134547618Y-153972142D02*
X134499999Y-154067380D01*
X134499999Y-154067380D02*
X134452380Y-154115000D01*
X134452380Y-154115000D02*
X134357142Y-154162619D01*
X134357142Y-154162619D02*
X134214285Y-154162619D01*
X135404761Y-153495952D02*
X135404761Y-154162619D01*
X134976190Y-153495952D02*
X134976190Y-154019761D01*
X134976190Y-154019761D02*
X135023809Y-154115000D01*
X135023809Y-154115000D02*
X135119047Y-154162619D01*
X135119047Y-154162619D02*
X135261904Y-154162619D01*
X135261904Y-154162619D02*
X135357142Y-154115000D01*
X135357142Y-154115000D02*
X135404761Y-154067380D01*
X135880952Y-153495952D02*
X135880952Y-154162619D01*
X135880952Y-153591190D02*
X135928571Y-153543571D01*
X135928571Y-153543571D02*
X136023809Y-153495952D01*
X136023809Y-153495952D02*
X136166666Y-153495952D01*
X136166666Y-153495952D02*
X136261904Y-153543571D01*
X136261904Y-153543571D02*
X136309523Y-153638809D01*
X136309523Y-153638809D02*
X136309523Y-154162619D01*
X136642857Y-153495952D02*
X137023809Y-153495952D01*
X136785714Y-153162619D02*
X136785714Y-154019761D01*
X136785714Y-154019761D02*
X136833333Y-154115000D01*
X136833333Y-154115000D02*
X136928571Y-154162619D01*
X136928571Y-154162619D02*
X137023809Y-154162619D01*
X137357143Y-154162619D02*
X137357143Y-153495952D01*
X137357143Y-153162619D02*
X137309524Y-153210238D01*
X137309524Y-153210238D02*
X137357143Y-153257857D01*
X137357143Y-153257857D02*
X137404762Y-153210238D01*
X137404762Y-153210238D02*
X137357143Y-153162619D01*
X137357143Y-153162619D02*
X137357143Y-153257857D01*
X137833333Y-153495952D02*
X137833333Y-154162619D01*
X137833333Y-153591190D02*
X137880952Y-153543571D01*
X137880952Y-153543571D02*
X137976190Y-153495952D01*
X137976190Y-153495952D02*
X138119047Y-153495952D01*
X138119047Y-153495952D02*
X138214285Y-153543571D01*
X138214285Y-153543571D02*
X138261904Y-153638809D01*
X138261904Y-153638809D02*
X138261904Y-154162619D01*
X139166666Y-153495952D02*
X139166666Y-154305476D01*
X139166666Y-154305476D02*
X139119047Y-154400714D01*
X139119047Y-154400714D02*
X139071428Y-154448333D01*
X139071428Y-154448333D02*
X138976190Y-154495952D01*
X138976190Y-154495952D02*
X138833333Y-154495952D01*
X138833333Y-154495952D02*
X138738095Y-154448333D01*
X139166666Y-154115000D02*
X139071428Y-154162619D01*
X139071428Y-154162619D02*
X138880952Y-154162619D01*
X138880952Y-154162619D02*
X138785714Y-154115000D01*
X138785714Y-154115000D02*
X138738095Y-154067380D01*
X138738095Y-154067380D02*
X138690476Y-153972142D01*
X138690476Y-153972142D02*
X138690476Y-153686428D01*
X138690476Y-153686428D02*
X138738095Y-153591190D01*
X138738095Y-153591190D02*
X138785714Y-153543571D01*
X138785714Y-153543571D02*
X138880952Y-153495952D01*
X138880952Y-153495952D02*
X139071428Y-153495952D01*
X139071428Y-153495952D02*
X139166666Y-153543571D01*
X139642857Y-154162619D02*
X139642857Y-153162619D01*
X139642857Y-153638809D02*
X140214285Y-153638809D01*
X140214285Y-154162619D02*
X140214285Y-153162619D01*
X140833333Y-154162619D02*
X140738095Y-154115000D01*
X140738095Y-154115000D02*
X140690476Y-154067380D01*
X140690476Y-154067380D02*
X140642857Y-153972142D01*
X140642857Y-153972142D02*
X140642857Y-153686428D01*
X140642857Y-153686428D02*
X140690476Y-153591190D01*
X140690476Y-153591190D02*
X140738095Y-153543571D01*
X140738095Y-153543571D02*
X140833333Y-153495952D01*
X140833333Y-153495952D02*
X140976190Y-153495952D01*
X140976190Y-153495952D02*
X141071428Y-153543571D01*
X141071428Y-153543571D02*
X141119047Y-153591190D01*
X141119047Y-153591190D02*
X141166666Y-153686428D01*
X141166666Y-153686428D02*
X141166666Y-153972142D01*
X141166666Y-153972142D02*
X141119047Y-154067380D01*
X141119047Y-154067380D02*
X141071428Y-154115000D01*
X141071428Y-154115000D02*
X140976190Y-154162619D01*
X140976190Y-154162619D02*
X140833333Y-154162619D01*
X141738095Y-154162619D02*
X141642857Y-154115000D01*
X141642857Y-154115000D02*
X141595238Y-154019761D01*
X141595238Y-154019761D02*
X141595238Y-153162619D01*
X142500000Y-154115000D02*
X142404762Y-154162619D01*
X142404762Y-154162619D02*
X142214286Y-154162619D01*
X142214286Y-154162619D02*
X142119048Y-154115000D01*
X142119048Y-154115000D02*
X142071429Y-154019761D01*
X142071429Y-154019761D02*
X142071429Y-153638809D01*
X142071429Y-153638809D02*
X142119048Y-153543571D01*
X142119048Y-153543571D02*
X142214286Y-153495952D01*
X142214286Y-153495952D02*
X142404762Y-153495952D01*
X142404762Y-153495952D02*
X142500000Y-153543571D01*
X142500000Y-153543571D02*
X142547619Y-153638809D01*
X142547619Y-153638809D02*
X142547619Y-153734047D01*
X142547619Y-153734047D02*
X142071429Y-153829285D01*
X142738096Y-154257857D02*
X143500000Y-154257857D01*
X143738096Y-154162619D02*
X143738096Y-153162619D01*
X143738096Y-153162619D02*
X144119048Y-153162619D01*
X144119048Y-153162619D02*
X144214286Y-153210238D01*
X144214286Y-153210238D02*
X144261905Y-153257857D01*
X144261905Y-153257857D02*
X144309524Y-153353095D01*
X144309524Y-153353095D02*
X144309524Y-153495952D01*
X144309524Y-153495952D02*
X144261905Y-153591190D01*
X144261905Y-153591190D02*
X144214286Y-153638809D01*
X144214286Y-153638809D02*
X144119048Y-153686428D01*
X144119048Y-153686428D02*
X143738096Y-153686428D01*
X145166667Y-154162619D02*
X145166667Y-153638809D01*
X145166667Y-153638809D02*
X145119048Y-153543571D01*
X145119048Y-153543571D02*
X145023810Y-153495952D01*
X145023810Y-153495952D02*
X144833334Y-153495952D01*
X144833334Y-153495952D02*
X144738096Y-153543571D01*
X145166667Y-154115000D02*
X145071429Y-154162619D01*
X145071429Y-154162619D02*
X144833334Y-154162619D01*
X144833334Y-154162619D02*
X144738096Y-154115000D01*
X144738096Y-154115000D02*
X144690477Y-154019761D01*
X144690477Y-154019761D02*
X144690477Y-153924523D01*
X144690477Y-153924523D02*
X144738096Y-153829285D01*
X144738096Y-153829285D02*
X144833334Y-153781666D01*
X144833334Y-153781666D02*
X145071429Y-153781666D01*
X145071429Y-153781666D02*
X145166667Y-153734047D01*
X146071429Y-154162619D02*
X146071429Y-153162619D01*
X146071429Y-154115000D02*
X145976191Y-154162619D01*
X145976191Y-154162619D02*
X145785715Y-154162619D01*
X145785715Y-154162619D02*
X145690477Y-154115000D01*
X145690477Y-154115000D02*
X145642858Y-154067380D01*
X145642858Y-154067380D02*
X145595239Y-153972142D01*
X145595239Y-153972142D02*
X145595239Y-153686428D01*
X145595239Y-153686428D02*
X145642858Y-153591190D01*
X145642858Y-153591190D02*
X145690477Y-153543571D01*
X145690477Y-153543571D02*
X145785715Y-153495952D01*
X145785715Y-153495952D02*
X145976191Y-153495952D01*
X145976191Y-153495952D02*
X146071429Y-153543571D01*
X138738095Y-150962619D02*
X138738095Y-149962619D01*
X138738095Y-150438809D02*
X139309523Y-150438809D01*
X139309523Y-150962619D02*
X139309523Y-149962619D01*
X139690476Y-149962619D02*
X140309523Y-149962619D01*
X140309523Y-149962619D02*
X139976190Y-150343571D01*
X139976190Y-150343571D02*
X140119047Y-150343571D01*
X140119047Y-150343571D02*
X140214285Y-150391190D01*
X140214285Y-150391190D02*
X140261904Y-150438809D01*
X140261904Y-150438809D02*
X140309523Y-150534047D01*
X140309523Y-150534047D02*
X140309523Y-150772142D01*
X140309523Y-150772142D02*
X140261904Y-150867380D01*
X140261904Y-150867380D02*
X140214285Y-150915000D01*
X140214285Y-150915000D02*
X140119047Y-150962619D01*
X140119047Y-150962619D02*
X139833333Y-150962619D01*
X139833333Y-150962619D02*
X139738095Y-150915000D01*
X139738095Y-150915000D02*
X139690476Y-150867380D01*
%TO.C,H2*%
X144928571Y-154162619D02*
X144928571Y-153162619D01*
X144928571Y-153162619D02*
X145261904Y-153876904D01*
X145261904Y-153876904D02*
X145595237Y-153162619D01*
X145595237Y-153162619D02*
X145595237Y-154162619D01*
X146214285Y-154162619D02*
X146119047Y-154115000D01*
X146119047Y-154115000D02*
X146071428Y-154067380D01*
X146071428Y-154067380D02*
X146023809Y-153972142D01*
X146023809Y-153972142D02*
X146023809Y-153686428D01*
X146023809Y-153686428D02*
X146071428Y-153591190D01*
X146071428Y-153591190D02*
X146119047Y-153543571D01*
X146119047Y-153543571D02*
X146214285Y-153495952D01*
X146214285Y-153495952D02*
X146357142Y-153495952D01*
X146357142Y-153495952D02*
X146452380Y-153543571D01*
X146452380Y-153543571D02*
X146499999Y-153591190D01*
X146499999Y-153591190D02*
X146547618Y-153686428D01*
X146547618Y-153686428D02*
X146547618Y-153972142D01*
X146547618Y-153972142D02*
X146499999Y-154067380D01*
X146499999Y-154067380D02*
X146452380Y-154115000D01*
X146452380Y-154115000D02*
X146357142Y-154162619D01*
X146357142Y-154162619D02*
X146214285Y-154162619D01*
X147404761Y-153495952D02*
X147404761Y-154162619D01*
X146976190Y-153495952D02*
X146976190Y-154019761D01*
X146976190Y-154019761D02*
X147023809Y-154115000D01*
X147023809Y-154115000D02*
X147119047Y-154162619D01*
X147119047Y-154162619D02*
X147261904Y-154162619D01*
X147261904Y-154162619D02*
X147357142Y-154115000D01*
X147357142Y-154115000D02*
X147404761Y-154067380D01*
X147880952Y-153495952D02*
X147880952Y-154162619D01*
X147880952Y-153591190D02*
X147928571Y-153543571D01*
X147928571Y-153543571D02*
X148023809Y-153495952D01*
X148023809Y-153495952D02*
X148166666Y-153495952D01*
X148166666Y-153495952D02*
X148261904Y-153543571D01*
X148261904Y-153543571D02*
X148309523Y-153638809D01*
X148309523Y-153638809D02*
X148309523Y-154162619D01*
X148642857Y-153495952D02*
X149023809Y-153495952D01*
X148785714Y-153162619D02*
X148785714Y-154019761D01*
X148785714Y-154019761D02*
X148833333Y-154115000D01*
X148833333Y-154115000D02*
X148928571Y-154162619D01*
X148928571Y-154162619D02*
X149023809Y-154162619D01*
X149357143Y-154162619D02*
X149357143Y-153495952D01*
X149357143Y-153162619D02*
X149309524Y-153210238D01*
X149309524Y-153210238D02*
X149357143Y-153257857D01*
X149357143Y-153257857D02*
X149404762Y-153210238D01*
X149404762Y-153210238D02*
X149357143Y-153162619D01*
X149357143Y-153162619D02*
X149357143Y-153257857D01*
X149833333Y-153495952D02*
X149833333Y-154162619D01*
X149833333Y-153591190D02*
X149880952Y-153543571D01*
X149880952Y-153543571D02*
X149976190Y-153495952D01*
X149976190Y-153495952D02*
X150119047Y-153495952D01*
X150119047Y-153495952D02*
X150214285Y-153543571D01*
X150214285Y-153543571D02*
X150261904Y-153638809D01*
X150261904Y-153638809D02*
X150261904Y-154162619D01*
X151166666Y-153495952D02*
X151166666Y-154305476D01*
X151166666Y-154305476D02*
X151119047Y-154400714D01*
X151119047Y-154400714D02*
X151071428Y-154448333D01*
X151071428Y-154448333D02*
X150976190Y-154495952D01*
X150976190Y-154495952D02*
X150833333Y-154495952D01*
X150833333Y-154495952D02*
X150738095Y-154448333D01*
X151166666Y-154115000D02*
X151071428Y-154162619D01*
X151071428Y-154162619D02*
X150880952Y-154162619D01*
X150880952Y-154162619D02*
X150785714Y-154115000D01*
X150785714Y-154115000D02*
X150738095Y-154067380D01*
X150738095Y-154067380D02*
X150690476Y-153972142D01*
X150690476Y-153972142D02*
X150690476Y-153686428D01*
X150690476Y-153686428D02*
X150738095Y-153591190D01*
X150738095Y-153591190D02*
X150785714Y-153543571D01*
X150785714Y-153543571D02*
X150880952Y-153495952D01*
X150880952Y-153495952D02*
X151071428Y-153495952D01*
X151071428Y-153495952D02*
X151166666Y-153543571D01*
X151642857Y-154162619D02*
X151642857Y-153162619D01*
X151642857Y-153638809D02*
X152214285Y-153638809D01*
X152214285Y-154162619D02*
X152214285Y-153162619D01*
X152833333Y-154162619D02*
X152738095Y-154115000D01*
X152738095Y-154115000D02*
X152690476Y-154067380D01*
X152690476Y-154067380D02*
X152642857Y-153972142D01*
X152642857Y-153972142D02*
X152642857Y-153686428D01*
X152642857Y-153686428D02*
X152690476Y-153591190D01*
X152690476Y-153591190D02*
X152738095Y-153543571D01*
X152738095Y-153543571D02*
X152833333Y-153495952D01*
X152833333Y-153495952D02*
X152976190Y-153495952D01*
X152976190Y-153495952D02*
X153071428Y-153543571D01*
X153071428Y-153543571D02*
X153119047Y-153591190D01*
X153119047Y-153591190D02*
X153166666Y-153686428D01*
X153166666Y-153686428D02*
X153166666Y-153972142D01*
X153166666Y-153972142D02*
X153119047Y-154067380D01*
X153119047Y-154067380D02*
X153071428Y-154115000D01*
X153071428Y-154115000D02*
X152976190Y-154162619D01*
X152976190Y-154162619D02*
X152833333Y-154162619D01*
X153738095Y-154162619D02*
X153642857Y-154115000D01*
X153642857Y-154115000D02*
X153595238Y-154019761D01*
X153595238Y-154019761D02*
X153595238Y-153162619D01*
X154500000Y-154115000D02*
X154404762Y-154162619D01*
X154404762Y-154162619D02*
X154214286Y-154162619D01*
X154214286Y-154162619D02*
X154119048Y-154115000D01*
X154119048Y-154115000D02*
X154071429Y-154019761D01*
X154071429Y-154019761D02*
X154071429Y-153638809D01*
X154071429Y-153638809D02*
X154119048Y-153543571D01*
X154119048Y-153543571D02*
X154214286Y-153495952D01*
X154214286Y-153495952D02*
X154404762Y-153495952D01*
X154404762Y-153495952D02*
X154500000Y-153543571D01*
X154500000Y-153543571D02*
X154547619Y-153638809D01*
X154547619Y-153638809D02*
X154547619Y-153734047D01*
X154547619Y-153734047D02*
X154071429Y-153829285D01*
X154738096Y-154257857D02*
X155500000Y-154257857D01*
X155738096Y-154162619D02*
X155738096Y-153162619D01*
X155738096Y-153162619D02*
X156119048Y-153162619D01*
X156119048Y-153162619D02*
X156214286Y-153210238D01*
X156214286Y-153210238D02*
X156261905Y-153257857D01*
X156261905Y-153257857D02*
X156309524Y-153353095D01*
X156309524Y-153353095D02*
X156309524Y-153495952D01*
X156309524Y-153495952D02*
X156261905Y-153591190D01*
X156261905Y-153591190D02*
X156214286Y-153638809D01*
X156214286Y-153638809D02*
X156119048Y-153686428D01*
X156119048Y-153686428D02*
X155738096Y-153686428D01*
X157166667Y-154162619D02*
X157166667Y-153638809D01*
X157166667Y-153638809D02*
X157119048Y-153543571D01*
X157119048Y-153543571D02*
X157023810Y-153495952D01*
X157023810Y-153495952D02*
X156833334Y-153495952D01*
X156833334Y-153495952D02*
X156738096Y-153543571D01*
X157166667Y-154115000D02*
X157071429Y-154162619D01*
X157071429Y-154162619D02*
X156833334Y-154162619D01*
X156833334Y-154162619D02*
X156738096Y-154115000D01*
X156738096Y-154115000D02*
X156690477Y-154019761D01*
X156690477Y-154019761D02*
X156690477Y-153924523D01*
X156690477Y-153924523D02*
X156738096Y-153829285D01*
X156738096Y-153829285D02*
X156833334Y-153781666D01*
X156833334Y-153781666D02*
X157071429Y-153781666D01*
X157071429Y-153781666D02*
X157166667Y-153734047D01*
X158071429Y-154162619D02*
X158071429Y-153162619D01*
X158071429Y-154115000D02*
X157976191Y-154162619D01*
X157976191Y-154162619D02*
X157785715Y-154162619D01*
X157785715Y-154162619D02*
X157690477Y-154115000D01*
X157690477Y-154115000D02*
X157642858Y-154067380D01*
X157642858Y-154067380D02*
X157595239Y-153972142D01*
X157595239Y-153972142D02*
X157595239Y-153686428D01*
X157595239Y-153686428D02*
X157642858Y-153591190D01*
X157642858Y-153591190D02*
X157690477Y-153543571D01*
X157690477Y-153543571D02*
X157785715Y-153495952D01*
X157785715Y-153495952D02*
X157976191Y-153495952D01*
X157976191Y-153495952D02*
X158071429Y-153543571D01*
X150738095Y-150962619D02*
X150738095Y-149962619D01*
X150738095Y-150438809D02*
X151309523Y-150438809D01*
X151309523Y-150962619D02*
X151309523Y-149962619D01*
X151738095Y-150057857D02*
X151785714Y-150010238D01*
X151785714Y-150010238D02*
X151880952Y-149962619D01*
X151880952Y-149962619D02*
X152119047Y-149962619D01*
X152119047Y-149962619D02*
X152214285Y-150010238D01*
X152214285Y-150010238D02*
X152261904Y-150057857D01*
X152261904Y-150057857D02*
X152309523Y-150153095D01*
X152309523Y-150153095D02*
X152309523Y-150248333D01*
X152309523Y-150248333D02*
X152261904Y-150391190D01*
X152261904Y-150391190D02*
X151690476Y-150962619D01*
X151690476Y-150962619D02*
X152309523Y-150962619D01*
%TO.C,J1*%
X153462619Y-155833333D02*
X154176904Y-155833333D01*
X154176904Y-155833333D02*
X154319761Y-155880952D01*
X154319761Y-155880952D02*
X154415000Y-155976190D01*
X154415000Y-155976190D02*
X154462619Y-156119047D01*
X154462619Y-156119047D02*
X154462619Y-156214285D01*
X154462619Y-154833333D02*
X154462619Y-155404761D01*
X154462619Y-155119047D02*
X153462619Y-155119047D01*
X153462619Y-155119047D02*
X153605476Y-155214285D01*
X153605476Y-155214285D02*
X153700714Y-155309523D01*
X153700714Y-155309523D02*
X153748333Y-155404761D01*
%TO.C,H1*%
X140928571Y-154162619D02*
X140928571Y-153162619D01*
X140928571Y-153162619D02*
X141261904Y-153876904D01*
X141261904Y-153876904D02*
X141595237Y-153162619D01*
X141595237Y-153162619D02*
X141595237Y-154162619D01*
X142214285Y-154162619D02*
X142119047Y-154115000D01*
X142119047Y-154115000D02*
X142071428Y-154067380D01*
X142071428Y-154067380D02*
X142023809Y-153972142D01*
X142023809Y-153972142D02*
X142023809Y-153686428D01*
X142023809Y-153686428D02*
X142071428Y-153591190D01*
X142071428Y-153591190D02*
X142119047Y-153543571D01*
X142119047Y-153543571D02*
X142214285Y-153495952D01*
X142214285Y-153495952D02*
X142357142Y-153495952D01*
X142357142Y-153495952D02*
X142452380Y-153543571D01*
X142452380Y-153543571D02*
X142499999Y-153591190D01*
X142499999Y-153591190D02*
X142547618Y-153686428D01*
X142547618Y-153686428D02*
X142547618Y-153972142D01*
X142547618Y-153972142D02*
X142499999Y-154067380D01*
X142499999Y-154067380D02*
X142452380Y-154115000D01*
X142452380Y-154115000D02*
X142357142Y-154162619D01*
X142357142Y-154162619D02*
X142214285Y-154162619D01*
X143404761Y-153495952D02*
X143404761Y-154162619D01*
X142976190Y-153495952D02*
X142976190Y-154019761D01*
X142976190Y-154019761D02*
X143023809Y-154115000D01*
X143023809Y-154115000D02*
X143119047Y-154162619D01*
X143119047Y-154162619D02*
X143261904Y-154162619D01*
X143261904Y-154162619D02*
X143357142Y-154115000D01*
X143357142Y-154115000D02*
X143404761Y-154067380D01*
X143880952Y-153495952D02*
X143880952Y-154162619D01*
X143880952Y-153591190D02*
X143928571Y-153543571D01*
X143928571Y-153543571D02*
X144023809Y-153495952D01*
X144023809Y-153495952D02*
X144166666Y-153495952D01*
X144166666Y-153495952D02*
X144261904Y-153543571D01*
X144261904Y-153543571D02*
X144309523Y-153638809D01*
X144309523Y-153638809D02*
X144309523Y-154162619D01*
X144642857Y-153495952D02*
X145023809Y-153495952D01*
X144785714Y-153162619D02*
X144785714Y-154019761D01*
X144785714Y-154019761D02*
X144833333Y-154115000D01*
X144833333Y-154115000D02*
X144928571Y-154162619D01*
X144928571Y-154162619D02*
X145023809Y-154162619D01*
X145357143Y-154162619D02*
X145357143Y-153495952D01*
X145357143Y-153162619D02*
X145309524Y-153210238D01*
X145309524Y-153210238D02*
X145357143Y-153257857D01*
X145357143Y-153257857D02*
X145404762Y-153210238D01*
X145404762Y-153210238D02*
X145357143Y-153162619D01*
X145357143Y-153162619D02*
X145357143Y-153257857D01*
X145833333Y-153495952D02*
X145833333Y-154162619D01*
X145833333Y-153591190D02*
X145880952Y-153543571D01*
X145880952Y-153543571D02*
X145976190Y-153495952D01*
X145976190Y-153495952D02*
X146119047Y-153495952D01*
X146119047Y-153495952D02*
X146214285Y-153543571D01*
X146214285Y-153543571D02*
X146261904Y-153638809D01*
X146261904Y-153638809D02*
X146261904Y-154162619D01*
X147166666Y-153495952D02*
X147166666Y-154305476D01*
X147166666Y-154305476D02*
X147119047Y-154400714D01*
X147119047Y-154400714D02*
X147071428Y-154448333D01*
X147071428Y-154448333D02*
X146976190Y-154495952D01*
X146976190Y-154495952D02*
X146833333Y-154495952D01*
X146833333Y-154495952D02*
X146738095Y-154448333D01*
X147166666Y-154115000D02*
X147071428Y-154162619D01*
X147071428Y-154162619D02*
X146880952Y-154162619D01*
X146880952Y-154162619D02*
X146785714Y-154115000D01*
X146785714Y-154115000D02*
X146738095Y-154067380D01*
X146738095Y-154067380D02*
X146690476Y-153972142D01*
X146690476Y-153972142D02*
X146690476Y-153686428D01*
X146690476Y-153686428D02*
X146738095Y-153591190D01*
X146738095Y-153591190D02*
X146785714Y-153543571D01*
X146785714Y-153543571D02*
X146880952Y-153495952D01*
X146880952Y-153495952D02*
X147071428Y-153495952D01*
X147071428Y-153495952D02*
X147166666Y-153543571D01*
X147642857Y-154162619D02*
X147642857Y-153162619D01*
X147642857Y-153638809D02*
X148214285Y-153638809D01*
X148214285Y-154162619D02*
X148214285Y-153162619D01*
X148833333Y-154162619D02*
X148738095Y-154115000D01*
X148738095Y-154115000D02*
X148690476Y-154067380D01*
X148690476Y-154067380D02*
X148642857Y-153972142D01*
X148642857Y-153972142D02*
X148642857Y-153686428D01*
X148642857Y-153686428D02*
X148690476Y-153591190D01*
X148690476Y-153591190D02*
X148738095Y-153543571D01*
X148738095Y-153543571D02*
X148833333Y-153495952D01*
X148833333Y-153495952D02*
X148976190Y-153495952D01*
X148976190Y-153495952D02*
X149071428Y-153543571D01*
X149071428Y-153543571D02*
X149119047Y-153591190D01*
X149119047Y-153591190D02*
X149166666Y-153686428D01*
X149166666Y-153686428D02*
X149166666Y-153972142D01*
X149166666Y-153972142D02*
X149119047Y-154067380D01*
X149119047Y-154067380D02*
X149071428Y-154115000D01*
X149071428Y-154115000D02*
X148976190Y-154162619D01*
X148976190Y-154162619D02*
X148833333Y-154162619D01*
X149738095Y-154162619D02*
X149642857Y-154115000D01*
X149642857Y-154115000D02*
X149595238Y-154019761D01*
X149595238Y-154019761D02*
X149595238Y-153162619D01*
X150500000Y-154115000D02*
X150404762Y-154162619D01*
X150404762Y-154162619D02*
X150214286Y-154162619D01*
X150214286Y-154162619D02*
X150119048Y-154115000D01*
X150119048Y-154115000D02*
X150071429Y-154019761D01*
X150071429Y-154019761D02*
X150071429Y-153638809D01*
X150071429Y-153638809D02*
X150119048Y-153543571D01*
X150119048Y-153543571D02*
X150214286Y-153495952D01*
X150214286Y-153495952D02*
X150404762Y-153495952D01*
X150404762Y-153495952D02*
X150500000Y-153543571D01*
X150500000Y-153543571D02*
X150547619Y-153638809D01*
X150547619Y-153638809D02*
X150547619Y-153734047D01*
X150547619Y-153734047D02*
X150071429Y-153829285D01*
X150738096Y-154257857D02*
X151500000Y-154257857D01*
X151738096Y-154162619D02*
X151738096Y-153162619D01*
X151738096Y-153162619D02*
X152119048Y-153162619D01*
X152119048Y-153162619D02*
X152214286Y-153210238D01*
X152214286Y-153210238D02*
X152261905Y-153257857D01*
X152261905Y-153257857D02*
X152309524Y-153353095D01*
X152309524Y-153353095D02*
X152309524Y-153495952D01*
X152309524Y-153495952D02*
X152261905Y-153591190D01*
X152261905Y-153591190D02*
X152214286Y-153638809D01*
X152214286Y-153638809D02*
X152119048Y-153686428D01*
X152119048Y-153686428D02*
X151738096Y-153686428D01*
X153166667Y-154162619D02*
X153166667Y-153638809D01*
X153166667Y-153638809D02*
X153119048Y-153543571D01*
X153119048Y-153543571D02*
X153023810Y-153495952D01*
X153023810Y-153495952D02*
X152833334Y-153495952D01*
X152833334Y-153495952D02*
X152738096Y-153543571D01*
X153166667Y-154115000D02*
X153071429Y-154162619D01*
X153071429Y-154162619D02*
X152833334Y-154162619D01*
X152833334Y-154162619D02*
X152738096Y-154115000D01*
X152738096Y-154115000D02*
X152690477Y-154019761D01*
X152690477Y-154019761D02*
X152690477Y-153924523D01*
X152690477Y-153924523D02*
X152738096Y-153829285D01*
X152738096Y-153829285D02*
X152833334Y-153781666D01*
X152833334Y-153781666D02*
X153071429Y-153781666D01*
X153071429Y-153781666D02*
X153166667Y-153734047D01*
X154071429Y-154162619D02*
X154071429Y-153162619D01*
X154071429Y-154115000D02*
X153976191Y-154162619D01*
X153976191Y-154162619D02*
X153785715Y-154162619D01*
X153785715Y-154162619D02*
X153690477Y-154115000D01*
X153690477Y-154115000D02*
X153642858Y-154067380D01*
X153642858Y-154067380D02*
X153595239Y-153972142D01*
X153595239Y-153972142D02*
X153595239Y-153686428D01*
X153595239Y-153686428D02*
X153642858Y-153591190D01*
X153642858Y-153591190D02*
X153690477Y-153543571D01*
X153690477Y-153543571D02*
X153785715Y-153495952D01*
X153785715Y-153495952D02*
X153976191Y-153495952D01*
X153976191Y-153495952D02*
X154071429Y-153543571D01*
X146738095Y-150962619D02*
X146738095Y-149962619D01*
X146738095Y-150438809D02*
X147309523Y-150438809D01*
X147309523Y-150962619D02*
X147309523Y-149962619D01*
X148309523Y-150962619D02*
X147738095Y-150962619D01*
X148023809Y-150962619D02*
X148023809Y-149962619D01*
X148023809Y-149962619D02*
X147928571Y-150105476D01*
X147928571Y-150105476D02*
X147833333Y-150200714D01*
X147833333Y-150200714D02*
X147738095Y-150248333D01*
D11*
%TO.C,J2*%
X135730000Y-154865000D02*
X136365000Y-154230000D01*
X135730000Y-164400000D02*
X135730000Y-154865000D01*
X136365000Y-154230000D02*
X138270000Y-154230000D01*
X138270000Y-154230000D02*
X138270000Y-164400000D01*
X138270000Y-164400000D02*
X135730000Y-164400000D01*
%TO.C,J1*%
X152730000Y-154865000D02*
X153365000Y-154230000D01*
X152730000Y-164400000D02*
X152730000Y-154865000D01*
X153365000Y-154230000D02*
X155270000Y-154230000D01*
X155270000Y-154230000D02*
X155270000Y-164400000D01*
X155270000Y-164400000D02*
X152730000Y-164400000D01*
%TD*%
M02*
