%TF.GenerationSoftware,KiCad,Pcbnew,7.0.2-6a45011f42~172~ubuntu22.04.1*%
%TF.CreationDate,2023-05-30T13:10:43+12:00*%
%TF.ProjectId,THE_BRAWN-20A_LOGIC_FIXTURE,5448455f-4252-4415-974e-2d3230415f4c,v1.0*%
%TF.SameCoordinates,Original*%
%TF.FileFunction,Copper,L2,Bot*%
%TF.FilePolarity,Positive*%
%FSLAX46Y46*%
G04 Gerber Fmt 4.6, Leading zero omitted, Abs format (unit mm)*
G04 Created by KiCad (PCBNEW 7.0.2-6a45011f42~172~ubuntu22.04.1) date 2023-05-30 13:10:43*
%MOMM*%
%LPD*%
G01*
G04 APERTURE LIST*
G04 Aperture macros list*
%AMRoundRect*
0 Rectangle with rounded corners*
0 $1 Rounding radius*
0 $2 $3 $4 $5 $6 $7 $8 $9 X,Y pos of 4 corners*
0 Add a 4 corners polygon primitive as box body*
4,1,4,$2,$3,$4,$5,$6,$7,$8,$9,$2,$3,0*
0 Add four circle primitives for the rounded corners*
1,1,$1+$1,$2,$3*
1,1,$1+$1,$4,$5*
1,1,$1+$1,$6,$7*
1,1,$1+$1,$8,$9*
0 Add four rect primitives between the rounded corners*
20,1,$1+$1,$2,$3,$4,$5,0*
20,1,$1+$1,$4,$5,$6,$7,0*
20,1,$1+$1,$6,$7,$8,$9,0*
20,1,$1+$1,$8,$9,$2,$3,0*%
G04 Aperture macros list end*
%TA.AperFunction,ComponentPad*%
%ADD10C,2.200000*%
%TD*%
%TA.AperFunction,ComponentPad*%
%ADD11C,1.400000*%
%TD*%
%TA.AperFunction,ComponentPad*%
%ADD12C,1.300000*%
%TD*%
%TA.AperFunction,ComponentPad*%
%ADD13RoundRect,0.450000X0.450000X-0.450000X0.450000X0.450000X-0.450000X0.450000X-0.450000X-0.450000X0*%
%TD*%
%TA.AperFunction,ComponentPad*%
%ADD14C,3.000000*%
%TD*%
%TA.AperFunction,SMDPad,CuDef*%
%ADD15RoundRect,0.200000X0.275000X-0.200000X0.275000X0.200000X-0.275000X0.200000X-0.275000X-0.200000X0*%
%TD*%
%TA.AperFunction,SMDPad,CuDef*%
%ADD16RoundRect,0.200000X-0.200000X-0.275000X0.200000X-0.275000X0.200000X0.275000X-0.200000X0.275000X0*%
%TD*%
%TA.AperFunction,ComponentPad*%
%ADD17RoundRect,0.450000X0.450000X0.450000X-0.450000X0.450000X-0.450000X-0.450000X0.450000X-0.450000X0*%
%TD*%
%TA.AperFunction,ViaPad*%
%ADD18C,0.800000*%
%TD*%
%TA.AperFunction,Conductor*%
%ADD19C,1.000000*%
%TD*%
%TA.AperFunction,Conductor*%
%ADD20C,0.400000*%
%TD*%
%TA.AperFunction,Conductor*%
%ADD21C,0.200000*%
%TD*%
G04 APERTURE END LIST*
D10*
%TO.P,TP21,1,1*%
%TO.N,Net-(R15-Pad1)*%
X228500000Y-143820000D03*
%TD*%
%TO.P,TP14,1,1*%
%TO.N,Net-(R12-Pad1)*%
X221500000Y-138500000D03*
%TD*%
%TO.P,TP9,1,1*%
%TO.N,Net-(R6-Pad2)*%
X218500000Y-141500000D03*
%TD*%
%TO.P,TP1,1,1*%
%TO.N,Net-(R1-Pad2)*%
X211500000Y-136200000D03*
%TD*%
%TO.P,TP5,1,1*%
%TO.N,Net-(R3-Pad1)*%
X217000000Y-132900000D03*
%TD*%
D11*
%TO.P,TP12,1,1*%
%TO.N,Net-(R10-Pad1)*%
X226000000Y-131200000D03*
%TD*%
D10*
%TO.P,TP10,1,1*%
%TO.N,Net-(R8-Pad1)*%
X220000000Y-132900000D03*
%TD*%
%TO.P,TP19,1,1*%
%TO.N,/B_FET_N2_HS*%
X228500000Y-138740000D03*
%TD*%
D12*
%TO.P,TP11,1,1*%
%TO.N,Net-(R9-Pad1)*%
X222000000Y-131200000D03*
%TD*%
D10*
%TO.P,TP18,1,1*%
%TO.N,/B_FET_N1_HS*%
X228500000Y-136200000D03*
%TD*%
%TO.P,TP2,1,1*%
%TO.N,Net-(R2-Pad2)*%
X211500000Y-138740000D03*
%TD*%
D13*
%TO.P,J5,1,1*%
%TO.N,/MOTOR_1+*%
X215000000Y-136000000D03*
%TO.P,J5,2,2*%
%TO.N,/MOTOR_1-*%
X217540000Y-136000000D03*
%TD*%
D12*
%TO.P,TP7,1,1*%
%TO.N,Net-(R7-Pad1)*%
X218000000Y-131200000D03*
%TD*%
D10*
%TO.P,TP13,1,1*%
%TO.N,Net-(R11-Pad1)*%
X223000000Y-132900000D03*
%TD*%
%TO.P,TP20,1,1*%
%TO.N,Net-(R14-Pad1)*%
X228500000Y-141280000D03*
%TD*%
%TO.P,TP3,1,1*%
%TO.N,/A_FET_N2*%
X211500000Y-141280000D03*
%TD*%
D14*
%TO.P,TP17,1,1*%
%TO.N,/GND*%
X231250000Y-109500000D03*
%TD*%
D11*
%TO.P,TP6,1,1*%
%TO.N,Net-(R4-Pad1)*%
X214000000Y-131200000D03*
%TD*%
D10*
%TO.P,TP15,1,1*%
%TO.N,Net-(R13-Pad1)*%
X221500000Y-141500000D03*
%TD*%
D14*
%TO.P,TP16,1,1*%
%TO.N,/BATT+*%
X227750000Y-109500000D03*
%TD*%
D10*
%TO.P,TP8,1,1*%
%TO.N,Net-(R5-Pad2)*%
X218500000Y-138500000D03*
%TD*%
%TO.P,TP4,1,1*%
%TO.N,/A_FET_N1*%
X211500000Y-143820000D03*
%TD*%
D15*
%TO.P,R8,1*%
%TO.N,Net-(R8-Pad1)*%
X220000000Y-129625000D03*
%TO.P,R8,2*%
%TO.N,/GND*%
X220000000Y-127975000D03*
%TD*%
%TO.P,R3,1*%
%TO.N,Net-(R3-Pad1)*%
X218500000Y-129625000D03*
%TO.P,R3,2*%
%TO.N,/SIGNAL1*%
X218500000Y-127975000D03*
%TD*%
D13*
%TO.P,J3,1,1*%
%TO.N,/BATT+*%
X190310000Y-106110000D03*
%TO.P,J3,2,2*%
%TO.N,/GND*%
X187770000Y-106110000D03*
%TO.P,J3,3,3*%
X185230000Y-106110000D03*
%TO.P,J3,4,4*%
%TO.N,/SERVO*%
X182690000Y-106110000D03*
%TD*%
D16*
%TO.P,R14,1*%
%TO.N,Net-(R14-Pad1)*%
X230475000Y-141280000D03*
%TO.P,R14,2*%
%TO.N,/VCC*%
X232125000Y-141280000D03*
%TD*%
%TO.P,R1,1*%
%TO.N,/GND*%
X207875000Y-136200000D03*
%TO.P,R1,2*%
%TO.N,Net-(R1-Pad2)*%
X209525000Y-136200000D03*
%TD*%
D15*
%TO.P,R10,1*%
%TO.N,Net-(R10-Pad1)*%
X226000000Y-129625000D03*
%TO.P,R10,2*%
%TO.N,/GND*%
X226000000Y-127975000D03*
%TD*%
D13*
%TO.P,J2,1,1*%
%TO.N,unconnected-(J2-Pad1)*%
X254770000Y-107769500D03*
%TO.P,J2,2,2*%
%TO.N,/INVERT*%
X252230000Y-107769500D03*
%TO.P,J2,3,3*%
%TO.N,unconnected-(J2-Pad3)*%
X249690000Y-107769500D03*
%TD*%
D15*
%TO.P,R11,1*%
%TO.N,Net-(R11-Pad1)*%
X221500000Y-129625000D03*
%TO.P,R11,2*%
%TO.N,/INVERT*%
X221500000Y-127975000D03*
%TD*%
%TO.P,R4,1*%
%TO.N,Net-(R4-Pad1)*%
X214000000Y-129625000D03*
%TO.P,R4,2*%
%TO.N,/MOTOR_1+*%
X214000000Y-127975000D03*
%TD*%
D16*
%TO.P,R15,1*%
%TO.N,Net-(R15-Pad1)*%
X230475000Y-143820000D03*
%TO.P,R15,2*%
%TO.N,/GND*%
X232125000Y-143820000D03*
%TD*%
D15*
%TO.P,R7,1*%
%TO.N,Net-(R7-Pad1)*%
X217000000Y-129625000D03*
%TO.P,R7,2*%
%TO.N,/MOTOR_1-*%
X217000000Y-127975000D03*
%TD*%
D17*
%TO.P,J1,1,1*%
%TO.N,/GND*%
X257310000Y-102689500D03*
%TO.P,J1,2,2*%
%TO.N,/5V0*%
X257310000Y-105229500D03*
%TO.P,J1,3,3*%
%TO.N,/SIGNAL1*%
X257310000Y-107769500D03*
%TD*%
D15*
%TO.P,R9,1*%
%TO.N,Net-(R9-Pad1)*%
X223000000Y-129625000D03*
%TO.P,R9,2*%
%TO.N,/BATT+*%
X223000000Y-127975000D03*
%TD*%
D16*
%TO.P,R2,1*%
%TO.N,/GND*%
X207875000Y-138740000D03*
%TO.P,R2,2*%
%TO.N,Net-(R2-Pad2)*%
X209525000Y-138740000D03*
%TD*%
%TO.P,R12,1*%
%TO.N,Net-(R12-Pad1)*%
X223425000Y-138500000D03*
%TO.P,R12,2*%
%TO.N,/nRST*%
X225075000Y-138500000D03*
%TD*%
D13*
%TO.P,J4,1,1*%
%TO.N,/GND*%
X189040000Y-123890000D03*
%TO.P,J4,2,2*%
%TO.N,/5V0*%
X186500000Y-123890000D03*
%TO.P,J4,3,3*%
%TO.N,/SERVO_OUT*%
X183960000Y-123890000D03*
%TD*%
D16*
%TO.P,R5,1*%
%TO.N,/SWDIO*%
X214875000Y-138500000D03*
%TO.P,R5,2*%
%TO.N,Net-(R5-Pad2)*%
X216525000Y-138500000D03*
%TD*%
%TO.P,R13,1*%
%TO.N,Net-(R13-Pad1)*%
X223425000Y-141500000D03*
%TO.P,R13,2*%
%TO.N,/3V3*%
X225075000Y-141500000D03*
%TD*%
%TO.P,R6,1*%
%TO.N,/SWDCLK*%
X214875000Y-141500000D03*
%TO.P,R6,2*%
%TO.N,Net-(R6-Pad2)*%
X216525000Y-141500000D03*
%TD*%
D18*
%TO.N,/GND*%
X179965247Y-157664866D03*
X179965247Y-151314866D03*
X179965247Y-144964866D03*
%TO.N,/BATT+*%
X223000000Y-127275000D03*
%TO.N,/3V3*%
X244590000Y-104415000D03*
X242781950Y-102425000D03*
%TO.N,/nRST*%
X240400000Y-110331622D03*
X244590000Y-105685000D03*
X242775000Y-108450000D03*
%TO.N,/SWDIO*%
X243300000Y-104425000D03*
%TO.N,/SIGNAL1*%
X218500000Y-127225000D03*
%TO.N,/GND*%
X211715247Y-125914866D03*
X224415247Y-157664866D03*
X186315247Y-151314866D03*
X179965247Y-94164866D03*
X186315247Y-164014866D03*
X256165247Y-144964866D03*
X211715247Y-183064866D03*
X186315247Y-113214866D03*
X205365247Y-144964866D03*
X192665247Y-125914866D03*
X237115247Y-183064866D03*
X192665247Y-100514866D03*
X249815247Y-94164866D03*
X205365247Y-100514866D03*
X179965247Y-164014866D03*
X179965247Y-100514866D03*
X179965247Y-125914866D03*
X173615247Y-132264866D03*
X205365247Y-164014866D03*
X226000000Y-127225000D03*
X173615247Y-106864866D03*
X211715247Y-119564866D03*
X199015247Y-164014866D03*
X230765247Y-164014866D03*
X173615247Y-164014866D03*
X199015247Y-100514866D03*
X205365247Y-183064866D03*
X173615247Y-113214866D03*
X262515247Y-144964866D03*
X211715247Y-164014866D03*
X173615247Y-100514866D03*
X199015247Y-113214866D03*
X173615247Y-170364866D03*
X230765247Y-144964866D03*
X230765247Y-94164866D03*
X186315247Y-119564866D03*
X186315247Y-100514866D03*
X262515247Y-157664866D03*
X262515247Y-176714866D03*
X205365247Y-113214866D03*
X243465247Y-132264866D03*
X186315247Y-138614866D03*
X205365247Y-125914866D03*
X230765247Y-113214866D03*
X186315247Y-144964866D03*
X243465247Y-100514866D03*
X218065247Y-164014866D03*
X249815247Y-151314866D03*
X218065247Y-106864866D03*
X199015247Y-183064866D03*
X224415247Y-183064866D03*
X243465247Y-138614866D03*
X237115247Y-113214866D03*
X179965247Y-138614866D03*
X218065247Y-144964866D03*
X186315247Y-100514866D03*
X211715247Y-151314866D03*
X205365247Y-106864866D03*
X199015247Y-151314866D03*
X211715247Y-106864866D03*
X205365247Y-94164866D03*
X224415247Y-144964866D03*
X243465247Y-157664866D03*
X192665247Y-113214866D03*
X243465247Y-151314866D03*
X237115247Y-164014866D03*
X262515247Y-132264866D03*
X243375000Y-106875000D03*
X242050000Y-104400000D03*
X256165247Y-100514866D03*
X230765247Y-138614866D03*
X192665247Y-151314866D03*
X205365247Y-119564866D03*
X192665247Y-132264866D03*
X262515247Y-170364866D03*
X237115247Y-138614866D03*
X230765247Y-183064866D03*
X192665247Y-183064866D03*
X249815247Y-132264866D03*
X237115247Y-151314866D03*
X249815247Y-164014866D03*
X218122904Y-125622904D03*
X211715247Y-100514866D03*
X262515247Y-151314866D03*
X262515247Y-113214866D03*
X199015247Y-138614866D03*
X192665247Y-138614866D03*
X243465247Y-183064866D03*
X243465247Y-119564866D03*
X243465247Y-164014866D03*
X199015247Y-106864866D03*
X192665247Y-144964866D03*
X186315247Y-157664866D03*
X230765247Y-100514866D03*
X230765247Y-125914866D03*
X262515247Y-164014866D03*
X224415247Y-113214866D03*
X179965247Y-119564866D03*
X192665247Y-119564866D03*
X262515247Y-125914866D03*
X173615247Y-144964866D03*
X237115247Y-132264866D03*
X186315247Y-132264866D03*
X218065247Y-113214866D03*
X179965247Y-132264866D03*
X242082450Y-101250000D03*
X192665247Y-94164866D03*
X237115247Y-119564866D03*
X218065247Y-100514866D03*
X256165247Y-119564866D03*
X244000000Y-108450000D03*
X256165247Y-151314866D03*
X211715247Y-113214866D03*
X224584901Y-132286490D03*
X249815247Y-144964866D03*
X224415247Y-151314866D03*
X192665247Y-164014866D03*
X173615247Y-151314866D03*
X224415247Y-164014866D03*
X249815247Y-138614866D03*
X230765247Y-119564866D03*
X205365247Y-132264866D03*
X237115247Y-144964866D03*
X199015247Y-157664866D03*
X243465247Y-113214866D03*
X249815247Y-100514866D03*
X173615247Y-119564866D03*
X186315247Y-183064866D03*
X246697950Y-105925000D03*
X249815247Y-125914866D03*
X256165247Y-157664866D03*
X179965247Y-113214866D03*
X256165247Y-183064866D03*
X199015247Y-132264866D03*
X173615247Y-125914866D03*
X256165247Y-138614866D03*
X256165247Y-132264866D03*
X199015247Y-94164866D03*
X211715247Y-157664866D03*
X173615247Y-176714866D03*
X220000000Y-127225000D03*
X186315247Y-94164866D03*
X186315247Y-113214866D03*
X179965247Y-183064866D03*
X262515247Y-100514866D03*
X186315247Y-119564866D03*
X224415247Y-125914866D03*
X237115247Y-100514866D03*
X192665247Y-157664866D03*
X199015247Y-119564866D03*
X262515247Y-119564866D03*
X218065247Y-119564866D03*
X256165247Y-113214866D03*
X211715247Y-132264866D03*
X237115247Y-94164866D03*
X256165247Y-164014866D03*
X199015247Y-144964866D03*
X205365247Y-138614866D03*
X243465247Y-94164866D03*
X249815247Y-157664866D03*
X256165247Y-125914866D03*
X192665247Y-106864866D03*
X262515247Y-106864866D03*
X243465247Y-144964866D03*
X224415247Y-100514866D03*
X179965247Y-106864866D03*
X230765247Y-132264866D03*
X237115247Y-157664866D03*
X199015247Y-125914866D03*
X211715247Y-94164866D03*
X249815247Y-119564866D03*
X249815247Y-183064866D03*
X173615247Y-157664866D03*
X249815247Y-113214866D03*
X256165247Y-94164866D03*
X246697950Y-104200000D03*
X237115247Y-125914866D03*
X243465247Y-125914866D03*
X224415247Y-119564866D03*
%TO.N,/INVERT*%
X221500000Y-127225000D03*
%TO.N,/SWDCLK*%
X240775000Y-104425000D03*
%TO.N,/MOTOR_1+*%
X214000000Y-127150000D03*
%TO.N,/5V0*%
X225750000Y-122150000D03*
%TD*%
D19*
%TO.N,/BATT+*%
X223000000Y-127975000D02*
X223000000Y-123350000D01*
X182300000Y-125150000D02*
X182300000Y-122024478D01*
D20*
X222950000Y-127325000D02*
X222950000Y-128050000D01*
D19*
X198647056Y-123350000D02*
X193697056Y-128300000D01*
D20*
X222950000Y-127225000D02*
X223000000Y-127275000D01*
D19*
X227050000Y-123350000D02*
X222000000Y-123350000D01*
D20*
X222950000Y-127200000D02*
X222950000Y-127225000D01*
D19*
X182300000Y-122024478D02*
X190310000Y-114014478D01*
X227750000Y-122650000D02*
X227050000Y-123350000D01*
X227750000Y-109500000D02*
X227750000Y-122650000D01*
X193697056Y-128300000D02*
X185450000Y-128300000D01*
X223000000Y-127275000D02*
X223000000Y-127175000D01*
D20*
X223000000Y-127275000D02*
X222950000Y-127325000D01*
D19*
X190310000Y-114014478D02*
X190310000Y-106110000D01*
X222000000Y-123350000D02*
X198647056Y-123350000D01*
X223000000Y-127275000D02*
X223000000Y-127975000D01*
X223000000Y-123350000D02*
X222000000Y-123350000D01*
X185450000Y-128300000D02*
X182300000Y-125150000D01*
%TO.N,Net-(R1-Pad2)*%
X211500000Y-136200000D02*
X209525000Y-136200000D01*
%TO.N,Net-(R2-Pad2)*%
X209525000Y-138740000D02*
X211500000Y-138740000D01*
D21*
%TO.N,/3V3*%
X240690450Y-109632122D02*
X239447153Y-109632122D01*
X240249999Y-150165686D02*
X240249999Y-111471573D01*
X225075000Y-141500000D02*
X225800000Y-141500000D01*
X239359315Y-100525000D02*
X242347400Y-100525000D01*
X242347400Y-100525000D02*
X242781950Y-100959550D01*
X236994700Y-107179668D02*
X236994700Y-102889614D01*
X241100000Y-110041672D02*
X240690450Y-109632122D01*
X225800000Y-141500000D02*
X226150000Y-141850000D01*
X237515686Y-152900000D02*
X240249999Y-150165686D01*
X242781950Y-100959550D02*
X242781950Y-102425000D01*
X226150000Y-141850000D02*
X226150000Y-144578297D01*
X229100000Y-150615686D02*
X231384315Y-152900000D01*
X226150000Y-144578297D02*
X229100000Y-147528297D01*
X236994700Y-102889614D02*
X239359315Y-100525000D01*
X231384315Y-152900000D02*
X237515686Y-152900000D01*
X229100000Y-147528297D02*
X229100000Y-150615686D01*
X240249999Y-111471573D02*
X241100000Y-110621572D01*
X241100000Y-110621572D02*
X241100000Y-110041672D01*
X239447153Y-109632122D02*
X236994700Y-107179668D01*
D20*
%TO.N,Net-(R5-Pad2)*%
X218500000Y-138500000D02*
X216575000Y-138500000D01*
D21*
%TO.N,/nRST*%
X240400000Y-110331622D02*
X239849999Y-110881623D01*
X226550000Y-141450000D02*
X225075000Y-139975000D01*
X244590000Y-106649950D02*
X244590000Y-105685000D01*
X231550000Y-152500000D02*
X229500000Y-150450000D01*
X229500000Y-150450000D02*
X229500000Y-147362613D01*
X242789950Y-108450000D02*
X244590000Y-106649950D01*
X225075000Y-139975000D02*
X225075000Y-138500000D01*
X239849999Y-110881623D02*
X239849999Y-150000001D01*
X239849999Y-150000001D02*
X237350000Y-152500000D01*
X229500000Y-147362613D02*
X226550000Y-144412613D01*
X237350000Y-152500000D02*
X231550000Y-152500000D01*
X226550000Y-144412613D02*
X226550000Y-141450000D01*
X242775000Y-108450000D02*
X242789950Y-108450000D01*
%TO.N,/SWDIO*%
X246496833Y-100972550D02*
X245223167Y-100972550D01*
X243300000Y-102895717D02*
X243300000Y-104425000D01*
X213300000Y-142740686D02*
X213859315Y-143300000D01*
X246474283Y-109150000D02*
X247400000Y-108224283D01*
X228300000Y-150947058D02*
X231052945Y-153700000D01*
X241049999Y-111850001D02*
X243750000Y-109150000D01*
X228300000Y-147859669D02*
X228300000Y-150947058D01*
X237847058Y-153700000D02*
X241049999Y-150497056D01*
X241049999Y-150497056D02*
X241049999Y-111850001D01*
X245223167Y-100972550D02*
X243300000Y-102895717D01*
X213825000Y-138550000D02*
X213300000Y-139075000D01*
X247400000Y-108224283D02*
X247400000Y-101875717D01*
X243750000Y-109150000D02*
X246474283Y-109150000D01*
X231052945Y-153700000D02*
X237847058Y-153700000D01*
X223740331Y-143300000D02*
X228300000Y-147859669D01*
X213859315Y-143300000D02*
X223740331Y-143300000D01*
X214875000Y-138550000D02*
X213825000Y-138550000D01*
X247400000Y-101875717D02*
X246496833Y-100972550D01*
X213300000Y-139075000D02*
X213300000Y-142740686D01*
X214925000Y-138500000D02*
X214875000Y-138550000D01*
D20*
%TO.N,/SIGNAL1*%
X218500000Y-127225000D02*
X218500000Y-128050000D01*
%TO.N,/GND*%
X220000000Y-127225000D02*
X220000000Y-128050000D01*
D21*
X237125381Y-100525000D02*
X237115247Y-100514866D01*
X242082450Y-101250000D02*
X242082450Y-104367550D01*
D20*
X226000000Y-127225000D02*
X226000000Y-128050000D01*
D21*
X242082450Y-104367550D02*
X242050000Y-104400000D01*
D20*
%TO.N,/INVERT*%
X221500000Y-127225000D02*
X221500000Y-128050000D01*
X252200000Y-107799500D02*
X252230000Y-107769500D01*
%TO.N,/MOTOR_1-*%
X215500000Y-134000000D02*
X215500000Y-132278679D01*
X215800000Y-129175000D02*
X217000000Y-127975000D01*
X217500000Y-136000000D02*
X215500000Y-134000000D01*
X215500000Y-132278679D02*
X215800000Y-131978679D01*
X215800000Y-131978679D02*
X215800000Y-129175000D01*
X217540000Y-136000000D02*
X217500000Y-136000000D01*
%TO.N,Net-(R6-Pad2)*%
X216575000Y-141500000D02*
X218500000Y-141500000D01*
D21*
%TO.N,/SWDCLK*%
X241500000Y-110787258D02*
X240649999Y-111637259D01*
X240649999Y-150331371D02*
X240649999Y-112125000D01*
X239612839Y-109232122D02*
X240856136Y-109232122D01*
X240649999Y-111637259D02*
X240649999Y-112125000D01*
X237394700Y-103055300D02*
X237394700Y-107013983D01*
X213700000Y-142575000D02*
X214025000Y-142900000D01*
X239525000Y-100925000D02*
X237394700Y-103055300D01*
X241682450Y-101873167D02*
X240734283Y-100925000D01*
X231218630Y-153300000D02*
X237681372Y-153300000D01*
X237394700Y-107013983D02*
X239612839Y-109232122D01*
X237681372Y-153300000D02*
X240649999Y-150331371D01*
X214025000Y-142900000D02*
X223906017Y-142900000D01*
X240775000Y-104425000D02*
X241682450Y-103517550D01*
X214925000Y-141500000D02*
X214050000Y-141500000D01*
X240734283Y-100925000D02*
X239525000Y-100925000D01*
X241500000Y-109875987D02*
X241500000Y-110787258D01*
X214050000Y-141500000D02*
X213700000Y-141850000D01*
X228700000Y-147693983D02*
X228700000Y-150781372D01*
X228700000Y-150781372D02*
X231218630Y-153300000D01*
X223906017Y-142900000D02*
X228700000Y-147693983D01*
X240856136Y-109232122D02*
X241500000Y-109875987D01*
X213700000Y-141850000D02*
X213700000Y-142575000D01*
X241682450Y-103517550D02*
X241682450Y-101873167D01*
D20*
%TO.N,unconnected-(J2-Pad1)*%
X254800000Y-107799500D02*
X254770000Y-107769500D01*
%TO.N,/MOTOR_1+*%
X214000000Y-127150000D02*
X214000000Y-127975000D01*
X215200000Y-131730151D02*
X215200000Y-129175000D01*
X215000000Y-136000000D02*
X214900000Y-135900000D01*
X214900000Y-135900000D02*
X214900000Y-132030151D01*
X215200000Y-129175000D02*
X214000000Y-127975000D01*
X214900000Y-132030151D02*
X215200000Y-131730151D01*
D19*
%TO.N,Net-(R14-Pad1)*%
X230475000Y-141280000D02*
X228500000Y-141280000D01*
%TO.N,Net-(R15-Pad1)*%
X230475000Y-143820000D02*
X228500000Y-143820000D01*
D20*
%TO.N,Net-(R7-Pad1)*%
X217000000Y-129625000D02*
X217000000Y-130200000D01*
X217000000Y-130200000D02*
X218000000Y-131200000D01*
D19*
%TO.N,Net-(R8-Pad1)*%
X220000000Y-132900000D02*
X220000000Y-129625000D01*
D20*
%TO.N,Net-(R9-Pad1)*%
X223000000Y-130200000D02*
X222000000Y-131200000D01*
X223000000Y-129625000D02*
X223000000Y-130200000D01*
%TO.N,Net-(R3-Pad1)*%
X217000000Y-132900000D02*
X217784925Y-132900000D01*
X219050000Y-131634925D02*
X219050000Y-130175000D01*
X219050000Y-130175000D02*
X218500000Y-129625000D01*
X217784925Y-132900000D02*
X219050000Y-131634925D01*
%TO.N,Net-(R10-Pad1)*%
X226000000Y-129625000D02*
X226000000Y-131200000D01*
%TO.N,Net-(R4-Pad1)*%
X214000000Y-129625000D02*
X214000000Y-131200000D01*
%TO.N,Net-(R11-Pad1)*%
X223000000Y-132900000D02*
X222121321Y-132900000D01*
X222121321Y-132900000D02*
X220950000Y-131728679D01*
X220950000Y-130175000D02*
X221500000Y-129625000D01*
X220950000Y-131728679D02*
X220950000Y-130175000D01*
%TO.N,Net-(R12-Pad1)*%
X223425000Y-138500000D02*
X221500000Y-138500000D01*
%TO.N,Net-(R13-Pad1)*%
X221500000Y-141500000D02*
X223425000Y-141500000D01*
D19*
%TO.N,/5V0*%
X188140000Y-127100000D02*
X193190000Y-127100000D01*
X186490000Y-123890000D02*
X186490000Y-125500000D01*
X186490000Y-125500000D02*
X187240000Y-126250000D01*
X187290000Y-126250000D02*
X188140000Y-127100000D01*
X193190000Y-127100000D02*
X198140000Y-122150000D01*
X198140000Y-122150000D02*
X225750000Y-122150000D01*
%TD*%
%TA.AperFunction,Conductor*%
%TO.N,/GND*%
G36*
X238625082Y-102354054D02*
G01*
X238681918Y-102396601D01*
X238706729Y-102463121D01*
X238707050Y-102472110D01*
X238707050Y-102629155D01*
X238744451Y-102853282D01*
X238746274Y-102864206D01*
X238763787Y-102915220D01*
X238823650Y-103089596D01*
X238937069Y-103299177D01*
X238945010Y-103309379D01*
X239083440Y-103487235D01*
X239083442Y-103487237D01*
X239083443Y-103487238D01*
X239258764Y-103648632D01*
X239304453Y-103678482D01*
X239458266Y-103778973D01*
X239676498Y-103874699D01*
X239907510Y-103933199D01*
X240085528Y-103947950D01*
X240088142Y-103947950D01*
X240134051Y-103947950D01*
X240202172Y-103967952D01*
X240248665Y-104021608D01*
X240258769Y-104091882D01*
X240250460Y-104122168D01*
X240189955Y-104268238D01*
X240169318Y-104424999D01*
X240189955Y-104581761D01*
X240250464Y-104727842D01*
X240346717Y-104853282D01*
X240472157Y-104949535D01*
X240472158Y-104949535D01*
X240472159Y-104949536D01*
X240618238Y-105010044D01*
X240775000Y-105030682D01*
X240931762Y-105010044D01*
X241077841Y-104949536D01*
X241203282Y-104853282D01*
X241299536Y-104727841D01*
X241360044Y-104581762D01*
X241380682Y-104425000D01*
X241367768Y-104326912D01*
X241378707Y-104256767D01*
X241403592Y-104221377D01*
X241845738Y-103779231D01*
X241859630Y-103769237D01*
X241866674Y-103761509D01*
X241866678Y-103761508D01*
X241897916Y-103727239D01*
X241901872Y-103723097D01*
X241914624Y-103710347D01*
X241914628Y-103710340D01*
X241915375Y-103709594D01*
X241924461Y-103698122D01*
X241942366Y-103678483D01*
X241944783Y-103672241D01*
X241958325Y-103646549D01*
X241962106Y-103641031D01*
X241968189Y-103615164D01*
X241973350Y-103598501D01*
X241982950Y-103573723D01*
X241982950Y-103567030D01*
X241986297Y-103538181D01*
X241987829Y-103531669D01*
X241984158Y-103505352D01*
X241982950Y-103487945D01*
X241982950Y-102698672D01*
X242002952Y-102630551D01*
X242056608Y-102584058D01*
X242126882Y-102573954D01*
X242191462Y-102603448D01*
X242225359Y-102650454D01*
X242257414Y-102727842D01*
X242353667Y-102853282D01*
X242479107Y-102949535D01*
X242479108Y-102949535D01*
X242479109Y-102949536D01*
X242625188Y-103010044D01*
X242781950Y-103030682D01*
X242857054Y-103020794D01*
X242927201Y-103031733D01*
X242980300Y-103078861D01*
X242999499Y-103145716D01*
X242999500Y-103836531D01*
X242979498Y-103904652D01*
X242950204Y-103936493D01*
X242871717Y-103996717D01*
X242775464Y-104122157D01*
X242714955Y-104268238D01*
X242694318Y-104424999D01*
X242714955Y-104581761D01*
X242775464Y-104727842D01*
X242871717Y-104853282D01*
X242997157Y-104949535D01*
X242997158Y-104949535D01*
X242997159Y-104949536D01*
X243143238Y-105010044D01*
X243300000Y-105030682D01*
X243456762Y-105010044D01*
X243602841Y-104949536D01*
X243728282Y-104853282D01*
X243824536Y-104727841D01*
X243829326Y-104716276D01*
X243830662Y-104713052D01*
X243875209Y-104657771D01*
X243942572Y-104635349D01*
X244011364Y-104652906D01*
X244059743Y-104704868D01*
X244063480Y-104713052D01*
X244065464Y-104717842D01*
X244161717Y-104843282D01*
X244300319Y-104949635D01*
X244297414Y-104953420D01*
X244328110Y-104978174D01*
X244350508Y-105045545D01*
X244332927Y-105114331D01*
X244297768Y-105147041D01*
X244300319Y-105150365D01*
X244161717Y-105256717D01*
X244065464Y-105382157D01*
X244004955Y-105528238D01*
X243984318Y-105684999D01*
X244004955Y-105841761D01*
X244065464Y-105987842D01*
X244161715Y-106113279D01*
X244161716Y-106113280D01*
X244161718Y-106113282D01*
X244240206Y-106173507D01*
X244282071Y-106230843D01*
X244289500Y-106273468D01*
X244289500Y-106473288D01*
X244269498Y-106541409D01*
X244252595Y-106562383D01*
X242991834Y-107823143D01*
X242929522Y-107857169D01*
X242886293Y-107858969D01*
X242775000Y-107844318D01*
X242774999Y-107844318D01*
X242618238Y-107864955D01*
X242472157Y-107925464D01*
X242346717Y-108021717D01*
X242250464Y-108147157D01*
X242189955Y-108293238D01*
X242169318Y-108449999D01*
X242189955Y-108606761D01*
X242250464Y-108752842D01*
X242346717Y-108878282D01*
X242472157Y-108974535D01*
X242472158Y-108974535D01*
X242472159Y-108974536D01*
X242618238Y-109035044D01*
X242775000Y-109055682D01*
X242931762Y-109035044D01*
X243077841Y-108974536D01*
X243203282Y-108878282D01*
X243299536Y-108752841D01*
X243360044Y-108606762D01*
X243380682Y-108450000D01*
X243369508Y-108365124D01*
X243380447Y-108294976D01*
X243405330Y-108259589D01*
X244206957Y-107457962D01*
X244269267Y-107423939D01*
X244340083Y-107429004D01*
X244396918Y-107471551D01*
X244421729Y-107538071D01*
X244422050Y-107547060D01*
X244422049Y-107709155D01*
X244461273Y-107944202D01*
X244538650Y-108169596D01*
X244652069Y-108379177D01*
X244798440Y-108567235D01*
X244867489Y-108630799D01*
X244904060Y-108691652D01*
X244901925Y-108762616D01*
X244861764Y-108821162D01*
X244796326Y-108848700D01*
X244782151Y-108849500D01*
X243819570Y-108849500D01*
X243802678Y-108846744D01*
X243745963Y-108849366D01*
X243740146Y-108849500D01*
X243721098Y-108849500D01*
X243706557Y-108851186D01*
X243680009Y-108852413D01*
X243673878Y-108855121D01*
X243646150Y-108863707D01*
X243639566Y-108864938D01*
X243616969Y-108878928D01*
X243601544Y-108887059D01*
X243577234Y-108897793D01*
X243572499Y-108902529D01*
X243549745Y-108920552D01*
X243544048Y-108924079D01*
X243528030Y-108945290D01*
X243516578Y-108958449D01*
X242015595Y-110459433D01*
X241953283Y-110493458D01*
X241882468Y-110488394D01*
X241825632Y-110445847D01*
X241800821Y-110379327D01*
X241800500Y-110370338D01*
X241800500Y-109945559D01*
X241803255Y-109928669D01*
X241802772Y-109918224D01*
X241802773Y-109918223D01*
X241800634Y-109871951D01*
X241800500Y-109866134D01*
X241800500Y-109847082D01*
X241798811Y-109832541D01*
X241797585Y-109805996D01*
X241794878Y-109799867D01*
X241786289Y-109772125D01*
X241785061Y-109765556D01*
X241785061Y-109765554D01*
X241771069Y-109742956D01*
X241762943Y-109727540D01*
X241752206Y-109703222D01*
X241747473Y-109698489D01*
X241729445Y-109675729D01*
X241725919Y-109670035D01*
X241725917Y-109670033D01*
X241704717Y-109654024D01*
X241691553Y-109642569D01*
X241117817Y-109068832D01*
X241107818Y-109054935D01*
X241065852Y-109016677D01*
X241061662Y-109012677D01*
X241048933Y-108999948D01*
X241048932Y-108999947D01*
X241048184Y-108999199D01*
X241036711Y-108990111D01*
X241006992Y-108963020D01*
X240964559Y-108930409D01*
X240940591Y-108863581D01*
X240956559Y-108794403D01*
X240997458Y-108750699D01*
X241031234Y-108728633D01*
X241206560Y-108567235D01*
X241352929Y-108379179D01*
X241466349Y-108169597D01*
X241543726Y-107944206D01*
X241575973Y-107750964D01*
X241582950Y-107709155D01*
X241582950Y-107470844D01*
X241549293Y-107269155D01*
X241543726Y-107235794D01*
X241466349Y-107010403D01*
X241416146Y-106917635D01*
X241352930Y-106800822D01*
X241323584Y-106763118D01*
X241206560Y-106612765D01*
X241206556Y-106612761D01*
X241031235Y-106451367D01*
X240831734Y-106321027D01*
X240613500Y-106225300D01*
X240382495Y-106166802D01*
X240382493Y-106166801D01*
X240382490Y-106166801D01*
X240263332Y-106156927D01*
X240207070Y-106152265D01*
X240207063Y-106152264D01*
X240204472Y-106152050D01*
X240085528Y-106152050D01*
X240082937Y-106152264D01*
X240082929Y-106152265D01*
X240009807Y-106158324D01*
X239907510Y-106166801D01*
X239907507Y-106166801D01*
X239907504Y-106166802D01*
X239676499Y-106225300D01*
X239458265Y-106321027D01*
X239258764Y-106451367D01*
X239083440Y-106612763D01*
X239051165Y-106654230D01*
X239041496Y-106661187D01*
X239041066Y-106663489D01*
X239028201Y-106683735D01*
X238937071Y-106800819D01*
X238823650Y-107010403D01*
X238746273Y-107235797D01*
X238707050Y-107470844D01*
X238707050Y-107597171D01*
X238687048Y-107665292D01*
X238633392Y-107711785D01*
X238563118Y-107721889D01*
X238498538Y-107692395D01*
X238491955Y-107686266D01*
X237732105Y-106926416D01*
X237698079Y-106864104D01*
X237695200Y-106837321D01*
X237695200Y-106831239D01*
X237715202Y-106763118D01*
X237768858Y-106716625D01*
X237839132Y-106706521D01*
X237877742Y-106718639D01*
X237983185Y-106771594D01*
X238152829Y-106811800D01*
X238152831Y-106811800D01*
X238279767Y-106811800D01*
X238283436Y-106811800D01*
X238413164Y-106796637D01*
X238576993Y-106737008D01*
X238722654Y-106641205D01*
X238837122Y-106519876D01*
X238840713Y-106517777D01*
X238842610Y-106513847D01*
X238929467Y-106363407D01*
X238979469Y-106196388D01*
X238989607Y-106022340D01*
X238959332Y-105850646D01*
X238890279Y-105690562D01*
X238886138Y-105685000D01*
X238786169Y-105550718D01*
X238652614Y-105438650D01*
X238496817Y-105360407D01*
X238496816Y-105360406D01*
X238496815Y-105360406D01*
X238327171Y-105320200D01*
X238196564Y-105320200D01*
X238192936Y-105320623D01*
X238192919Y-105320625D01*
X238066834Y-105335363D01*
X237903007Y-105394991D01*
X237890437Y-105403259D01*
X237822532Y-105423980D01*
X237754204Y-105404699D01*
X237707146Y-105351538D01*
X237695200Y-105297987D01*
X237695200Y-104799239D01*
X237715202Y-104731118D01*
X237768858Y-104684625D01*
X237839132Y-104674521D01*
X237877742Y-104686639D01*
X237983185Y-104739594D01*
X238152829Y-104779800D01*
X238152831Y-104779800D01*
X238279767Y-104779800D01*
X238283436Y-104779800D01*
X238413164Y-104764637D01*
X238576993Y-104705008D01*
X238722654Y-104609205D01*
X238842296Y-104482393D01*
X238929467Y-104331407D01*
X238979469Y-104164388D01*
X238989607Y-103990340D01*
X238959332Y-103818646D01*
X238890279Y-103658562D01*
X238882887Y-103648633D01*
X238786169Y-103518718D01*
X238652614Y-103406650D01*
X238496817Y-103328407D01*
X238496816Y-103328406D01*
X238496815Y-103328406D01*
X238327171Y-103288200D01*
X238196564Y-103288200D01*
X238192936Y-103288623D01*
X238192919Y-103288625D01*
X238066834Y-103303363D01*
X237903007Y-103362991D01*
X237890437Y-103371259D01*
X237822532Y-103391980D01*
X237754204Y-103372699D01*
X237707146Y-103319538D01*
X237695200Y-103265987D01*
X237695200Y-103231960D01*
X237715202Y-103163839D01*
X237732100Y-103142869D01*
X238491955Y-102383014D01*
X238554267Y-102348989D01*
X238625082Y-102354054D01*
G37*
%TD.AperFunction*%
%TA.AperFunction,Conductor*%
G36*
X244340082Y-102384771D02*
G01*
X244396918Y-102427318D01*
X244421729Y-102493838D01*
X244422050Y-102502827D01*
X244422050Y-102629155D01*
X244459451Y-102853282D01*
X244461274Y-102864206D01*
X244478787Y-102915220D01*
X244538650Y-103089596D01*
X244652069Y-103299177D01*
X244660010Y-103309379D01*
X244798440Y-103487235D01*
X244798442Y-103487237D01*
X244798443Y-103487238D01*
X244973762Y-103648630D01*
X244973764Y-103648631D01*
X244973766Y-103648633D01*
X244989034Y-103658608D01*
X244994425Y-103662130D01*
X245035239Y-103709952D01*
X245066576Y-103712569D01*
X245090051Y-103724606D01*
X245173266Y-103778973D01*
X245391498Y-103874699D01*
X245622510Y-103933199D01*
X245800528Y-103947950D01*
X245803142Y-103947950D01*
X245916858Y-103947950D01*
X245919472Y-103947950D01*
X246097490Y-103933199D01*
X246328502Y-103874699D01*
X246546734Y-103778973D01*
X246746234Y-103648633D01*
X246888163Y-103517978D01*
X246951827Y-103486558D01*
X247022373Y-103494545D01*
X247077402Y-103539404D01*
X247099443Y-103606892D01*
X247099500Y-103610680D01*
X247099500Y-106489319D01*
X247079498Y-106557440D01*
X247025842Y-106603933D01*
X246955568Y-106614037D01*
X246890988Y-106584543D01*
X246888163Y-106582020D01*
X246746235Y-106451367D01*
X246546734Y-106321027D01*
X246328500Y-106225300D01*
X246097495Y-106166802D01*
X246097493Y-106166801D01*
X246097490Y-106166801D01*
X245978332Y-106156927D01*
X245922070Y-106152265D01*
X245922063Y-106152264D01*
X245919472Y-106152050D01*
X245800528Y-106152050D01*
X245797937Y-106152264D01*
X245797929Y-106152265D01*
X245724807Y-106158324D01*
X245622510Y-106166801D01*
X245622507Y-106166801D01*
X245622504Y-106166802D01*
X245391499Y-106225300D01*
X245173265Y-106321027D01*
X245090049Y-106375395D01*
X245022080Y-106395908D01*
X244953811Y-106376419D01*
X244906917Y-106323114D01*
X244896285Y-106252918D01*
X244925292Y-106188117D01*
X244944427Y-106169952D01*
X245018282Y-106113282D01*
X245114536Y-105987841D01*
X245175044Y-105841762D01*
X245191651Y-105715615D01*
X245220372Y-105650692D01*
X245279636Y-105611599D01*
X245350628Y-105610754D01*
X245397563Y-105635542D01*
X245447386Y-105677349D01*
X245603185Y-105755594D01*
X245772829Y-105795800D01*
X245772831Y-105795800D01*
X245899767Y-105795800D01*
X245903436Y-105795800D01*
X246033164Y-105780637D01*
X246196993Y-105721008D01*
X246342654Y-105625205D01*
X246462296Y-105498393D01*
X246549467Y-105347407D01*
X246599469Y-105180388D01*
X246609607Y-105006340D01*
X246579332Y-104834646D01*
X246510279Y-104674562D01*
X246510248Y-104674521D01*
X246406169Y-104534718D01*
X246272614Y-104422650D01*
X246116817Y-104344407D01*
X246116816Y-104344406D01*
X246116815Y-104344406D01*
X245947171Y-104304200D01*
X245816564Y-104304200D01*
X245812936Y-104304623D01*
X245812919Y-104304625D01*
X245686834Y-104319363D01*
X245523009Y-104378990D01*
X245385328Y-104469545D01*
X245317423Y-104490266D01*
X245249094Y-104470985D01*
X245202036Y-104417824D01*
X245191169Y-104380722D01*
X245175044Y-104258238D01*
X245114536Y-104112159D01*
X245114535Y-104112158D01*
X245114535Y-104112157D01*
X245018281Y-103986717D01*
X244944437Y-103930054D01*
X244914041Y-103888427D01*
X244889107Y-103888240D01*
X244877293Y-103884023D01*
X244746761Y-103829955D01*
X244590000Y-103809318D01*
X244433238Y-103829955D01*
X244287157Y-103890464D01*
X244161717Y-103986717D01*
X244065464Y-104112157D01*
X244059336Y-104126951D01*
X244014786Y-104182231D01*
X243947422Y-104204650D01*
X243878631Y-104187090D01*
X243830254Y-104135127D01*
X243826527Y-104126967D01*
X243824536Y-104122159D01*
X243824533Y-104122156D01*
X243824533Y-104122154D01*
X243728282Y-103996717D01*
X243649796Y-103936493D01*
X243607929Y-103879155D01*
X243600500Y-103836531D01*
X243600500Y-103072377D01*
X243620502Y-103004256D01*
X243637405Y-102983282D01*
X244206955Y-102413732D01*
X244269267Y-102379706D01*
X244340082Y-102384771D01*
G37*
%TD.AperFunction*%
%TA.AperFunction,Conductor*%
G36*
X242238860Y-100845502D02*
G01*
X242259834Y-100862405D01*
X242444545Y-101047116D01*
X242478571Y-101109428D01*
X242481450Y-101136211D01*
X242481450Y-101836531D01*
X242461448Y-101904652D01*
X242432154Y-101936493D01*
X242353667Y-101996717D01*
X242257415Y-102122156D01*
X242225359Y-102199546D01*
X242180810Y-102254826D01*
X242113447Y-102277247D01*
X242044656Y-102259689D01*
X241996277Y-102207726D01*
X241982950Y-102151327D01*
X241982950Y-101942739D01*
X241985705Y-101925849D01*
X241985222Y-101915404D01*
X241985223Y-101915403D01*
X241983084Y-101869131D01*
X241982950Y-101863314D01*
X241982950Y-101844262D01*
X241981261Y-101829721D01*
X241980035Y-101803176D01*
X241977328Y-101797047D01*
X241968739Y-101769305D01*
X241967511Y-101762734D01*
X241953519Y-101740136D01*
X241945393Y-101724720D01*
X241934656Y-101700402D01*
X241929923Y-101695669D01*
X241911895Y-101672909D01*
X241908369Y-101667215D01*
X241887163Y-101651201D01*
X241874000Y-101639746D01*
X241274849Y-101040595D01*
X241240823Y-100978283D01*
X241245888Y-100907468D01*
X241288435Y-100850632D01*
X241354955Y-100825821D01*
X241363944Y-100825500D01*
X242170739Y-100825500D01*
X242238860Y-100845502D01*
G37*
%TD.AperFunction*%
%TA.AperFunction,Conductor*%
G36*
X229579662Y-106281555D02*
G01*
X229607963Y-106314216D01*
X229645389Y-106376419D01*
X229681310Y-106436119D01*
X229904462Y-106729670D01*
X229906813Y-106732152D01*
X229906814Y-106732153D01*
X230155698Y-106994897D01*
X230155703Y-106994902D01*
X230158044Y-106997373D01*
X230439083Y-107236090D01*
X230632899Y-107367501D01*
X230637849Y-107370857D01*
X230683007Y-107425641D01*
X230691377Y-107496143D01*
X230660303Y-107559978D01*
X230601135Y-107596473D01*
X230580139Y-107602355D01*
X230572039Y-107605235D01*
X230327981Y-107711245D01*
X230320352Y-107715197D01*
X230092997Y-107853454D01*
X230085983Y-107858405D01*
X230020715Y-107911504D01*
X230020714Y-107911505D01*
X230928201Y-108818992D01*
X230911109Y-108825213D01*
X230764627Y-108921555D01*
X230644312Y-109049082D01*
X230569482Y-109178691D01*
X229660541Y-108269750D01*
X229532796Y-108450724D01*
X229528339Y-108458056D01*
X229437317Y-108633719D01*
X229388218Y-108685000D01*
X229319188Y-108701595D01*
X229252144Y-108678235D01*
X229216325Y-108638749D01*
X229158962Y-108539393D01*
X229158961Y-108539392D01*
X229158959Y-108539388D01*
X229000050Y-108340123D01*
X228813217Y-108166768D01*
X228813214Y-108166766D01*
X228813212Y-108166764D01*
X228602634Y-108023195D01*
X228373004Y-107912610D01*
X228129461Y-107837488D01*
X228129458Y-107837487D01*
X228026240Y-107821929D01*
X227961864Y-107791998D01*
X227923887Y-107732012D01*
X227924370Y-107661017D01*
X227963159Y-107601553D01*
X227985996Y-107586018D01*
X228255716Y-107443022D01*
X228560917Y-107236090D01*
X228841956Y-106997373D01*
X229095538Y-106729670D01*
X229318690Y-106436119D01*
X229392036Y-106314215D01*
X229444293Y-106266159D01*
X229514238Y-106253983D01*
X229579662Y-106281555D01*
G37*
%TD.AperFunction*%
%TA.AperFunction,Conductor*%
G36*
X187310507Y-105900156D02*
G01*
X187270000Y-106038111D01*
X187270000Y-106181889D01*
X187310507Y-106319844D01*
X187338884Y-106364000D01*
X185661116Y-106364000D01*
X185689493Y-106319844D01*
X185730000Y-106181889D01*
X185730000Y-106038111D01*
X185689493Y-105900156D01*
X185661116Y-105856000D01*
X187338884Y-105856000D01*
X187310507Y-105900156D01*
G37*
%TD.AperFunction*%
%TA.AperFunction,Conductor*%
G36*
X268004119Y-90100770D02*
G01*
X268016905Y-90101608D01*
X268239699Y-90116210D01*
X268256022Y-90118358D01*
X268483539Y-90163615D01*
X268499442Y-90167876D01*
X268719095Y-90242439D01*
X268734302Y-90248738D01*
X268942351Y-90351336D01*
X268956608Y-90359567D01*
X269149478Y-90488438D01*
X269162543Y-90498463D01*
X269336946Y-90651411D01*
X269348588Y-90663053D01*
X269501532Y-90837451D01*
X269511565Y-90850527D01*
X269640427Y-91043383D01*
X269648668Y-91057657D01*
X269751257Y-91265687D01*
X269757564Y-91280914D01*
X269832120Y-91500549D01*
X269836386Y-91516468D01*
X269881639Y-91743967D01*
X269883790Y-91760308D01*
X269899230Y-91995880D01*
X269899500Y-92004121D01*
X269899500Y-187995878D01*
X269899230Y-188004119D01*
X269883790Y-188239691D01*
X269881639Y-188256032D01*
X269836386Y-188483531D01*
X269832120Y-188499450D01*
X269757564Y-188719085D01*
X269751257Y-188734312D01*
X269648668Y-188942342D01*
X269640427Y-188956616D01*
X269511565Y-189149472D01*
X269501532Y-189162548D01*
X269348594Y-189336940D01*
X269336940Y-189348594D01*
X269162548Y-189501532D01*
X269149472Y-189511565D01*
X268956616Y-189640427D01*
X268942342Y-189648668D01*
X268734312Y-189751257D01*
X268719085Y-189757564D01*
X268499450Y-189832120D01*
X268483531Y-189836386D01*
X268256032Y-189881639D01*
X268239691Y-189883790D01*
X268004120Y-189899230D01*
X267995879Y-189899500D01*
X172004121Y-189899500D01*
X171995880Y-189899230D01*
X171760308Y-189883790D01*
X171743967Y-189881639D01*
X171516468Y-189836386D01*
X171500549Y-189832120D01*
X171280914Y-189757564D01*
X171265687Y-189751257D01*
X171263643Y-189750249D01*
X171057653Y-189648666D01*
X171043387Y-189640429D01*
X170850524Y-189511562D01*
X170837451Y-189501532D01*
X170707911Y-189387928D01*
X170663053Y-189348588D01*
X170651411Y-189336946D01*
X170498463Y-189162543D01*
X170488438Y-189149478D01*
X170359567Y-188956608D01*
X170351336Y-188942351D01*
X170248738Y-188734302D01*
X170242439Y-188719095D01*
X170167876Y-188499442D01*
X170163615Y-188483539D01*
X170118358Y-188256022D01*
X170116210Y-188239701D01*
X170100768Y-188004089D01*
X170100500Y-187995902D01*
X170100500Y-187973071D01*
X170100500Y-185184370D01*
X171599500Y-185184370D01*
X171599868Y-185187757D01*
X171599869Y-185187768D01*
X171638092Y-185539220D01*
X171639368Y-185550948D01*
X171640100Y-185554275D01*
X171640101Y-185554279D01*
X171717901Y-185907730D01*
X171717904Y-185907741D01*
X171718636Y-185911066D01*
X171836375Y-186260503D01*
X171991205Y-186595162D01*
X172181310Y-186911119D01*
X172404462Y-187204670D01*
X172406813Y-187207152D01*
X172406814Y-187207153D01*
X172655698Y-187469897D01*
X172655703Y-187469902D01*
X172658044Y-187472373D01*
X172939083Y-187711090D01*
X173244284Y-187918022D01*
X173570070Y-188090743D01*
X173912621Y-188227227D01*
X174267919Y-188325875D01*
X174631801Y-188385531D01*
X174907890Y-188400500D01*
X174909610Y-188400500D01*
X175090390Y-188400500D01*
X175092110Y-188400500D01*
X175368199Y-188385531D01*
X175732081Y-188325875D01*
X176087379Y-188227227D01*
X176429930Y-188090743D01*
X176755716Y-187918022D01*
X177060917Y-187711090D01*
X177341956Y-187472373D01*
X177595538Y-187204670D01*
X177818690Y-186911119D01*
X178008795Y-186595162D01*
X178163625Y-186260503D01*
X178281364Y-185911066D01*
X178360632Y-185550948D01*
X178400500Y-185184370D01*
X216599500Y-185184370D01*
X216599868Y-185187757D01*
X216599869Y-185187768D01*
X216638092Y-185539220D01*
X216639368Y-185550948D01*
X216640100Y-185554275D01*
X216640101Y-185554279D01*
X216717901Y-185907730D01*
X216717904Y-185907741D01*
X216718636Y-185911066D01*
X216836375Y-186260503D01*
X216991205Y-186595162D01*
X217181310Y-186911119D01*
X217404462Y-187204670D01*
X217406813Y-187207152D01*
X217406814Y-187207153D01*
X217655698Y-187469897D01*
X217655703Y-187469902D01*
X217658044Y-187472373D01*
X217939083Y-187711090D01*
X218244284Y-187918022D01*
X218570070Y-188090743D01*
X218912621Y-188227227D01*
X219267919Y-188325875D01*
X219631801Y-188385531D01*
X219907890Y-188400500D01*
X219909610Y-188400500D01*
X220090390Y-188400500D01*
X220092110Y-188400500D01*
X220368199Y-188385531D01*
X220732081Y-188325875D01*
X221087379Y-188227227D01*
X221429930Y-188090743D01*
X221755716Y-187918022D01*
X222060917Y-187711090D01*
X222341956Y-187472373D01*
X222595538Y-187204670D01*
X222818690Y-186911119D01*
X223008795Y-186595162D01*
X223163625Y-186260503D01*
X223281364Y-185911066D01*
X223360632Y-185550948D01*
X223400500Y-185184370D01*
X261599500Y-185184370D01*
X261599868Y-185187757D01*
X261599869Y-185187768D01*
X261638092Y-185539220D01*
X261639368Y-185550948D01*
X261640100Y-185554275D01*
X261640101Y-185554279D01*
X261717901Y-185907730D01*
X261717904Y-185907741D01*
X261718636Y-185911066D01*
X261836375Y-186260503D01*
X261991205Y-186595162D01*
X262181310Y-186911119D01*
X262404462Y-187204670D01*
X262406813Y-187207152D01*
X262406814Y-187207153D01*
X262655698Y-187469897D01*
X262655703Y-187469902D01*
X262658044Y-187472373D01*
X262939083Y-187711090D01*
X263244284Y-187918022D01*
X263570070Y-188090743D01*
X263912621Y-188227227D01*
X264267919Y-188325875D01*
X264631801Y-188385531D01*
X264907890Y-188400500D01*
X264909610Y-188400500D01*
X265090390Y-188400500D01*
X265092110Y-188400500D01*
X265368199Y-188385531D01*
X265732081Y-188325875D01*
X266087379Y-188227227D01*
X266429930Y-188090743D01*
X266755716Y-187918022D01*
X267060917Y-187711090D01*
X267341956Y-187472373D01*
X267595538Y-187204670D01*
X267818690Y-186911119D01*
X268008795Y-186595162D01*
X268163625Y-186260503D01*
X268281364Y-185911066D01*
X268360632Y-185550948D01*
X268400500Y-185184370D01*
X268400500Y-184815630D01*
X268360632Y-184449052D01*
X268281364Y-184088934D01*
X268163625Y-183739497D01*
X268008795Y-183404838D01*
X267818690Y-183088881D01*
X267595538Y-182795330D01*
X267581231Y-182780227D01*
X267344301Y-182530102D01*
X267344295Y-182530096D01*
X267341956Y-182527627D01*
X267060917Y-182288910D01*
X267004169Y-182250434D01*
X266758538Y-182083891D01*
X266758533Y-182083888D01*
X266755716Y-182081978D01*
X266715275Y-182060537D01*
X266432941Y-181910853D01*
X266432936Y-181910850D01*
X266429930Y-181909257D01*
X266426763Y-181907995D01*
X266090548Y-181774035D01*
X266090537Y-181774031D01*
X266087379Y-181772773D01*
X266084098Y-181771862D01*
X266084092Y-181771860D01*
X265735375Y-181675039D01*
X265735365Y-181675036D01*
X265732081Y-181674125D01*
X265728722Y-181673574D01*
X265728707Y-181673571D01*
X265371576Y-181615022D01*
X265371564Y-181615020D01*
X265368199Y-181614469D01*
X265364789Y-181614284D01*
X265364779Y-181614283D01*
X265093831Y-181599593D01*
X265093819Y-181599592D01*
X265092110Y-181599500D01*
X264907890Y-181599500D01*
X264906181Y-181599592D01*
X264906168Y-181599593D01*
X264635220Y-181614283D01*
X264635208Y-181614284D01*
X264631801Y-181614469D01*
X264628437Y-181615020D01*
X264628423Y-181615022D01*
X264271292Y-181673571D01*
X264271273Y-181673574D01*
X264267919Y-181674125D01*
X264264638Y-181675035D01*
X264264624Y-181675039D01*
X263915907Y-181771860D01*
X263915896Y-181771863D01*
X263912621Y-181772773D01*
X263909467Y-181774029D01*
X263909451Y-181774035D01*
X263573236Y-181907995D01*
X263573227Y-181907999D01*
X263570070Y-181909257D01*
X263567070Y-181910847D01*
X263567058Y-181910853D01*
X263247301Y-182080378D01*
X263247294Y-182080382D01*
X263244284Y-182081978D01*
X263241474Y-182083882D01*
X263241461Y-182083891D01*
X262941908Y-182286994D01*
X262941900Y-182286999D01*
X262939083Y-182288910D01*
X262936483Y-182291118D01*
X262936477Y-182291123D01*
X262660640Y-182525421D01*
X262660630Y-182525430D01*
X262658044Y-182527627D01*
X262655713Y-182530087D01*
X262655698Y-182530102D01*
X262406814Y-182792846D01*
X262406805Y-182792855D01*
X262404462Y-182795330D01*
X262402395Y-182798048D01*
X262402395Y-182798049D01*
X262183380Y-183086157D01*
X262183373Y-183086165D01*
X262181310Y-183088881D01*
X262179552Y-183091801D01*
X262179545Y-183091813D01*
X261992966Y-183401911D01*
X261991205Y-183404838D01*
X261989775Y-183407928D01*
X261989768Y-183407942D01*
X261837808Y-183736398D01*
X261837803Y-183736409D01*
X261836375Y-183739497D01*
X261835289Y-183742719D01*
X261835285Y-183742730D01*
X261719726Y-184085697D01*
X261719722Y-184085708D01*
X261718636Y-184088934D01*
X261717905Y-184092253D01*
X261717901Y-184092269D01*
X261640101Y-184445720D01*
X261639368Y-184449052D01*
X261638999Y-184452442D01*
X261638999Y-184452444D01*
X261599869Y-184812231D01*
X261599868Y-184812243D01*
X261599500Y-184815630D01*
X261599500Y-185184370D01*
X223400500Y-185184370D01*
X223400500Y-184815630D01*
X223360632Y-184449052D01*
X223281364Y-184088934D01*
X223163625Y-183739497D01*
X223008795Y-183404838D01*
X222818690Y-183088881D01*
X222595538Y-182795330D01*
X222581231Y-182780227D01*
X222344301Y-182530102D01*
X222344295Y-182530096D01*
X222341956Y-182527627D01*
X222060917Y-182288910D01*
X222004169Y-182250434D01*
X221758538Y-182083891D01*
X221758533Y-182083888D01*
X221755716Y-182081978D01*
X221715275Y-182060537D01*
X221432941Y-181910853D01*
X221432936Y-181910850D01*
X221429930Y-181909257D01*
X221426763Y-181907995D01*
X221090548Y-181774035D01*
X221090537Y-181774031D01*
X221087379Y-181772773D01*
X221084098Y-181771862D01*
X221084092Y-181771860D01*
X220735375Y-181675039D01*
X220735365Y-181675036D01*
X220732081Y-181674125D01*
X220728722Y-181673574D01*
X220728707Y-181673571D01*
X220371576Y-181615022D01*
X220371564Y-181615020D01*
X220368199Y-181614469D01*
X220364789Y-181614284D01*
X220364779Y-181614283D01*
X220093831Y-181599593D01*
X220093819Y-181599592D01*
X220092110Y-181599500D01*
X219907890Y-181599500D01*
X219906181Y-181599592D01*
X219906168Y-181599593D01*
X219635220Y-181614283D01*
X219635208Y-181614284D01*
X219631801Y-181614469D01*
X219628437Y-181615020D01*
X219628423Y-181615022D01*
X219271292Y-181673571D01*
X219271273Y-181673574D01*
X219267919Y-181674125D01*
X219264638Y-181675035D01*
X219264624Y-181675039D01*
X218915907Y-181771860D01*
X218915896Y-181771863D01*
X218912621Y-181772773D01*
X218909467Y-181774029D01*
X218909451Y-181774035D01*
X218573236Y-181907995D01*
X218573227Y-181907999D01*
X218570070Y-181909257D01*
X218567070Y-181910847D01*
X218567058Y-181910853D01*
X218247301Y-182080378D01*
X218247294Y-182080382D01*
X218244284Y-182081978D01*
X218241474Y-182083882D01*
X218241461Y-182083891D01*
X217941908Y-182286994D01*
X217941900Y-182286999D01*
X217939083Y-182288910D01*
X217936483Y-182291118D01*
X217936477Y-182291123D01*
X217660640Y-182525421D01*
X217660630Y-182525430D01*
X217658044Y-182527627D01*
X217655713Y-182530087D01*
X217655698Y-182530102D01*
X217406814Y-182792846D01*
X217406805Y-182792855D01*
X217404462Y-182795330D01*
X217402395Y-182798048D01*
X217402395Y-182798049D01*
X217183380Y-183086157D01*
X217183373Y-183086165D01*
X217181310Y-183088881D01*
X217179552Y-183091801D01*
X217179545Y-183091813D01*
X216992966Y-183401911D01*
X216991205Y-183404838D01*
X216989775Y-183407928D01*
X216989768Y-183407942D01*
X216837808Y-183736398D01*
X216837803Y-183736409D01*
X216836375Y-183739497D01*
X216835289Y-183742719D01*
X216835285Y-183742730D01*
X216719726Y-184085697D01*
X216719722Y-184085708D01*
X216718636Y-184088934D01*
X216717905Y-184092253D01*
X216717901Y-184092269D01*
X216640101Y-184445720D01*
X216639368Y-184449052D01*
X216638999Y-184452442D01*
X216638999Y-184452444D01*
X216599869Y-184812231D01*
X216599868Y-184812243D01*
X216599500Y-184815630D01*
X216599500Y-185184370D01*
X178400500Y-185184370D01*
X178400500Y-184815630D01*
X178360632Y-184449052D01*
X178281364Y-184088934D01*
X178163625Y-183739497D01*
X178008795Y-183404838D01*
X177818690Y-183088881D01*
X177595538Y-182795330D01*
X177581231Y-182780227D01*
X177344301Y-182530102D01*
X177344295Y-182530096D01*
X177341956Y-182527627D01*
X177060917Y-182288910D01*
X177004169Y-182250434D01*
X176758538Y-182083891D01*
X176758533Y-182083888D01*
X176755716Y-182081978D01*
X176715275Y-182060537D01*
X176432941Y-181910853D01*
X176432936Y-181910850D01*
X176429930Y-181909257D01*
X176426763Y-181907995D01*
X176090548Y-181774035D01*
X176090537Y-181774031D01*
X176087379Y-181772773D01*
X176084098Y-181771862D01*
X176084092Y-181771860D01*
X175735375Y-181675039D01*
X175735365Y-181675036D01*
X175732081Y-181674125D01*
X175728722Y-181673574D01*
X175728707Y-181673571D01*
X175371576Y-181615022D01*
X175371564Y-181615020D01*
X175368199Y-181614469D01*
X175364789Y-181614284D01*
X175364779Y-181614283D01*
X175093831Y-181599593D01*
X175093819Y-181599592D01*
X175092110Y-181599500D01*
X174907890Y-181599500D01*
X174906181Y-181599592D01*
X174906168Y-181599593D01*
X174635220Y-181614283D01*
X174635208Y-181614284D01*
X174631801Y-181614469D01*
X174628437Y-181615020D01*
X174628423Y-181615022D01*
X174271292Y-181673571D01*
X174271273Y-181673574D01*
X174267919Y-181674125D01*
X174264638Y-181675035D01*
X174264624Y-181675039D01*
X173915907Y-181771860D01*
X173915896Y-181771863D01*
X173912621Y-181772773D01*
X173909467Y-181774029D01*
X173909451Y-181774035D01*
X173573236Y-181907995D01*
X173573227Y-181907999D01*
X173570070Y-181909257D01*
X173567070Y-181910847D01*
X173567058Y-181910853D01*
X173247301Y-182080378D01*
X173247294Y-182080382D01*
X173244284Y-182081978D01*
X173241474Y-182083882D01*
X173241461Y-182083891D01*
X172941908Y-182286994D01*
X172941900Y-182286999D01*
X172939083Y-182288910D01*
X172936483Y-182291118D01*
X172936477Y-182291123D01*
X172660640Y-182525421D01*
X172660630Y-182525430D01*
X172658044Y-182527627D01*
X172655713Y-182530087D01*
X172655698Y-182530102D01*
X172406814Y-182792846D01*
X172406805Y-182792855D01*
X172404462Y-182795330D01*
X172402395Y-182798048D01*
X172402395Y-182798049D01*
X172183380Y-183086157D01*
X172183373Y-183086165D01*
X172181310Y-183088881D01*
X172179552Y-183091801D01*
X172179545Y-183091813D01*
X171992966Y-183401911D01*
X171991205Y-183404838D01*
X171989775Y-183407928D01*
X171989768Y-183407942D01*
X171837808Y-183736398D01*
X171837803Y-183736409D01*
X171836375Y-183739497D01*
X171835289Y-183742719D01*
X171835285Y-183742730D01*
X171719726Y-184085697D01*
X171719722Y-184085708D01*
X171718636Y-184088934D01*
X171717905Y-184092253D01*
X171717901Y-184092269D01*
X171640101Y-184445720D01*
X171639368Y-184449052D01*
X171638999Y-184452442D01*
X171638999Y-184452444D01*
X171599869Y-184812231D01*
X171599868Y-184812243D01*
X171599500Y-184815630D01*
X171599500Y-185184370D01*
X170100500Y-185184370D01*
X170100500Y-179567659D01*
X179899500Y-179567659D01*
X179929610Y-179699587D01*
X179958967Y-179760547D01*
X179988325Y-179821507D01*
X180072695Y-179927305D01*
X180178493Y-180011675D01*
X180300412Y-180070389D01*
X180432340Y-180100500D01*
X259567660Y-180100500D01*
X259699588Y-180070389D01*
X259821507Y-180011675D01*
X259927305Y-179927305D01*
X260011675Y-179821507D01*
X260070389Y-179699588D01*
X260100500Y-179567660D01*
X260100500Y-179500000D01*
X260100500Y-179473071D01*
X260100500Y-170484083D01*
X260100500Y-170432340D01*
X260070389Y-170300412D01*
X260011675Y-170178493D01*
X259927305Y-170072695D01*
X259821507Y-169988325D01*
X259760547Y-169958968D01*
X259699587Y-169929610D01*
X259567660Y-169899500D01*
X259515917Y-169899500D01*
X180526929Y-169899500D01*
X180500000Y-169899500D01*
X180432340Y-169899500D01*
X180300412Y-169929610D01*
X180178491Y-169988326D01*
X180072695Y-170072695D01*
X179988326Y-170178491D01*
X179929610Y-170300412D01*
X179899500Y-170432340D01*
X179899500Y-179567659D01*
X170100500Y-179567659D01*
X170100500Y-157908919D01*
X203695736Y-157908919D01*
X203695831Y-157912375D01*
X203695831Y-157912386D01*
X203703329Y-158184370D01*
X203705771Y-158272968D01*
X203706247Y-158276407D01*
X203706248Y-158276408D01*
X203744779Y-158554279D01*
X203755793Y-158633703D01*
X203756644Y-158637066D01*
X203756647Y-158637078D01*
X203844341Y-158983370D01*
X203845196Y-158986746D01*
X203846411Y-158989991D01*
X203846416Y-158990007D01*
X203971673Y-159324552D01*
X203972894Y-159327812D01*
X203974461Y-159330908D01*
X203974463Y-159330913D01*
X204135764Y-159649652D01*
X204135769Y-159649661D01*
X204137337Y-159652759D01*
X204139237Y-159655668D01*
X204139241Y-159655674D01*
X204240554Y-159810745D01*
X204336528Y-159957645D01*
X204568051Y-160238767D01*
X204570538Y-160241186D01*
X204808184Y-160472373D01*
X204829094Y-160492714D01*
X204831836Y-160494848D01*
X205112124Y-160713005D01*
X205116489Y-160716402D01*
X205426747Y-160907117D01*
X205756102Y-161062544D01*
X206100557Y-161180795D01*
X206455929Y-161260436D01*
X206817906Y-161300500D01*
X206821388Y-161300500D01*
X207089250Y-161300500D01*
X207090972Y-161300500D01*
X207363634Y-161285457D01*
X207722855Y-161225513D01*
X208073300Y-161126417D01*
X208410718Y-160989370D01*
X208731011Y-160816036D01*
X209030292Y-160608519D01*
X209304928Y-160369338D01*
X209551585Y-160101397D01*
X209767270Y-159807948D01*
X209949363Y-159492552D01*
X210095656Y-159159039D01*
X210204371Y-158811457D01*
X210274190Y-158454025D01*
X210304264Y-158091081D01*
X210299243Y-157908919D01*
X216695736Y-157908919D01*
X216695831Y-157912375D01*
X216695831Y-157912386D01*
X216703329Y-158184370D01*
X216705771Y-158272968D01*
X216706247Y-158276407D01*
X216706248Y-158276408D01*
X216744779Y-158554279D01*
X216755793Y-158633703D01*
X216756644Y-158637066D01*
X216756647Y-158637078D01*
X216844341Y-158983370D01*
X216845196Y-158986746D01*
X216846411Y-158989991D01*
X216846416Y-158990007D01*
X216971673Y-159324552D01*
X216972894Y-159327812D01*
X216974461Y-159330908D01*
X216974463Y-159330913D01*
X217135764Y-159649652D01*
X217135769Y-159649661D01*
X217137337Y-159652759D01*
X217139237Y-159655668D01*
X217139241Y-159655674D01*
X217240554Y-159810745D01*
X217336528Y-159957645D01*
X217568051Y-160238767D01*
X217570538Y-160241186D01*
X217808184Y-160472373D01*
X217829094Y-160492714D01*
X217831836Y-160494848D01*
X218112124Y-160713005D01*
X218116489Y-160716402D01*
X218426747Y-160907117D01*
X218756102Y-161062544D01*
X219100557Y-161180795D01*
X219455929Y-161260436D01*
X219817906Y-161300500D01*
X219821388Y-161300500D01*
X220089250Y-161300500D01*
X220090972Y-161300500D01*
X220363634Y-161285457D01*
X220722855Y-161225513D01*
X221073300Y-161126417D01*
X221410718Y-160989370D01*
X221731011Y-160816036D01*
X222030292Y-160608519D01*
X222304928Y-160369338D01*
X222551585Y-160101397D01*
X222767270Y-159807948D01*
X222949363Y-159492552D01*
X223095656Y-159159039D01*
X223204371Y-158811457D01*
X223274190Y-158454025D01*
X223296534Y-158184370D01*
X229599500Y-158184370D01*
X229599868Y-158187757D01*
X229599869Y-158187768D01*
X229628450Y-158450561D01*
X229639368Y-158550948D01*
X229640100Y-158554275D01*
X229640101Y-158554279D01*
X229717901Y-158907730D01*
X229717904Y-158907741D01*
X229718636Y-158911066D01*
X229719724Y-158914296D01*
X229719726Y-158914302D01*
X229802187Y-159159039D01*
X229836375Y-159260503D01*
X229837806Y-159263596D01*
X229837808Y-159263601D01*
X229945124Y-159495561D01*
X229991205Y-159595162D01*
X230181310Y-159911119D01*
X230404462Y-160204670D01*
X230406813Y-160207152D01*
X230406814Y-160207153D01*
X230655698Y-160469897D01*
X230655703Y-160469902D01*
X230658044Y-160472373D01*
X230939083Y-160711090D01*
X231244284Y-160918022D01*
X231570070Y-161090743D01*
X231912621Y-161227227D01*
X232267919Y-161325875D01*
X232631801Y-161385531D01*
X232907890Y-161400500D01*
X232909610Y-161400500D01*
X233090390Y-161400500D01*
X233092110Y-161400500D01*
X233368199Y-161385531D01*
X233732081Y-161325875D01*
X234087379Y-161227227D01*
X234429930Y-161090743D01*
X234755716Y-160918022D01*
X235060917Y-160711090D01*
X235341956Y-160472373D01*
X235595538Y-160204670D01*
X235818690Y-159911119D01*
X236008795Y-159595162D01*
X236163625Y-159260503D01*
X236281364Y-158911066D01*
X236360632Y-158550948D01*
X236400500Y-158184370D01*
X236400500Y-157815630D01*
X236360632Y-157449052D01*
X236281364Y-157088934D01*
X236163625Y-156739497D01*
X236008795Y-156404838D01*
X235818690Y-156088881D01*
X235595538Y-155795330D01*
X235437393Y-155628378D01*
X235344301Y-155530102D01*
X235344295Y-155530096D01*
X235341956Y-155527627D01*
X235060917Y-155288910D01*
X234771800Y-155092883D01*
X234758538Y-155083891D01*
X234758533Y-155083888D01*
X234755716Y-155081978D01*
X234618676Y-155009324D01*
X234432941Y-154910853D01*
X234432936Y-154910850D01*
X234429930Y-154909257D01*
X234426763Y-154907995D01*
X234090548Y-154774035D01*
X234090537Y-154774031D01*
X234087379Y-154772773D01*
X234084098Y-154771862D01*
X234084092Y-154771860D01*
X233735375Y-154675039D01*
X233735365Y-154675036D01*
X233732081Y-154674125D01*
X233728722Y-154673574D01*
X233728707Y-154673571D01*
X233371576Y-154615022D01*
X233371564Y-154615020D01*
X233368199Y-154614469D01*
X233364789Y-154614284D01*
X233364779Y-154614283D01*
X233093831Y-154599593D01*
X233093819Y-154599592D01*
X233092110Y-154599500D01*
X232907890Y-154599500D01*
X232906181Y-154599592D01*
X232906168Y-154599593D01*
X232635220Y-154614283D01*
X232635208Y-154614284D01*
X232631801Y-154614469D01*
X232628437Y-154615020D01*
X232628423Y-154615022D01*
X232271292Y-154673571D01*
X232271273Y-154673574D01*
X232267919Y-154674125D01*
X232264638Y-154675035D01*
X232264624Y-154675039D01*
X231915907Y-154771860D01*
X231915896Y-154771863D01*
X231912621Y-154772773D01*
X231909467Y-154774029D01*
X231909451Y-154774035D01*
X231573236Y-154907995D01*
X231573227Y-154907999D01*
X231570070Y-154909257D01*
X231567070Y-154910847D01*
X231567058Y-154910853D01*
X231247301Y-155080378D01*
X231247294Y-155080382D01*
X231244284Y-155081978D01*
X231241474Y-155083882D01*
X231241461Y-155083891D01*
X230941908Y-155286994D01*
X230941900Y-155286999D01*
X230939083Y-155288910D01*
X230936483Y-155291118D01*
X230936477Y-155291123D01*
X230660640Y-155525421D01*
X230660630Y-155525430D01*
X230658044Y-155527627D01*
X230655713Y-155530087D01*
X230655698Y-155530102D01*
X230406814Y-155792846D01*
X230406805Y-155792855D01*
X230404462Y-155795330D01*
X230402395Y-155798048D01*
X230402395Y-155798049D01*
X230183380Y-156086157D01*
X230183373Y-156086165D01*
X230181310Y-156088881D01*
X230179552Y-156091801D01*
X230179545Y-156091813D01*
X230117425Y-156195058D01*
X229991205Y-156404838D01*
X229989775Y-156407928D01*
X229989768Y-156407942D01*
X229837808Y-156736398D01*
X229837803Y-156736409D01*
X229836375Y-156739497D01*
X229835289Y-156742719D01*
X229835285Y-156742730D01*
X229719726Y-157085697D01*
X229719722Y-157085708D01*
X229718636Y-157088934D01*
X229717905Y-157092253D01*
X229717901Y-157092269D01*
X229640101Y-157445720D01*
X229639368Y-157449052D01*
X229638999Y-157452442D01*
X229638999Y-157452444D01*
X229599869Y-157812231D01*
X229599868Y-157812243D01*
X229599500Y-157815630D01*
X229599500Y-158184370D01*
X223296534Y-158184370D01*
X223304264Y-158091081D01*
X223294229Y-157727032D01*
X223244207Y-157366297D01*
X223154804Y-157013254D01*
X223027106Y-156672188D01*
X222939648Y-156499368D01*
X222864235Y-156350347D01*
X222864233Y-156350344D01*
X222862663Y-156347241D01*
X222663472Y-156042355D01*
X222431949Y-155761233D01*
X222194360Y-155530102D01*
X222173399Y-155509711D01*
X222173396Y-155509709D01*
X222170906Y-155507286D01*
X222168163Y-155505151D01*
X221886252Y-155285731D01*
X221886247Y-155285727D01*
X221883511Y-155283598D01*
X221573253Y-155092883D01*
X221570127Y-155091407D01*
X221570120Y-155091404D01*
X221247043Y-154938940D01*
X221247040Y-154938938D01*
X221243898Y-154937456D01*
X221240610Y-154936327D01*
X221240607Y-154936326D01*
X220902723Y-154820331D01*
X220902722Y-154820330D01*
X220899443Y-154819205D01*
X220896067Y-154818448D01*
X220896055Y-154818445D01*
X220547456Y-154740322D01*
X220547445Y-154740320D01*
X220544071Y-154739564D01*
X220540626Y-154739182D01*
X220540622Y-154739182D01*
X220185557Y-154699883D01*
X220185551Y-154699882D01*
X220182094Y-154699500D01*
X219909028Y-154699500D01*
X219907334Y-154699593D01*
X219907314Y-154699594D01*
X219639824Y-154714352D01*
X219639820Y-154714352D01*
X219636366Y-154714543D01*
X219632950Y-154715112D01*
X219632941Y-154715114D01*
X219280582Y-154773913D01*
X219280573Y-154773914D01*
X219277145Y-154774487D01*
X219273809Y-154775430D01*
X219273797Y-154775433D01*
X218930046Y-154872636D01*
X218930032Y-154872640D01*
X218926700Y-154873583D01*
X218923478Y-154874891D01*
X218923474Y-154874893D01*
X218592496Y-155009324D01*
X218592487Y-155009328D01*
X218589282Y-155010630D01*
X218586240Y-155012276D01*
X218586232Y-155012280D01*
X218272046Y-155182309D01*
X218272037Y-155182314D01*
X218268989Y-155183964D01*
X218266144Y-155185936D01*
X218266132Y-155185944D01*
X217972561Y-155389502D01*
X217972551Y-155389509D01*
X217969708Y-155391481D01*
X217967093Y-155393757D01*
X217967087Y-155393763D01*
X217697693Y-155628378D01*
X217697679Y-155628391D01*
X217695072Y-155630662D01*
X217692718Y-155633218D01*
X217692715Y-155633222D01*
X217450770Y-155896044D01*
X217450763Y-155896051D01*
X217448415Y-155898603D01*
X217446363Y-155901393D01*
X217446357Y-155901402D01*
X217234785Y-156189254D01*
X217234772Y-156189272D01*
X217232730Y-156192052D01*
X217230998Y-156195051D01*
X217230994Y-156195058D01*
X217052374Y-156504438D01*
X217052368Y-156504449D01*
X217050637Y-156507448D01*
X217049242Y-156510626D01*
X217049241Y-156510630D01*
X216905737Y-156837783D01*
X216905731Y-156837798D01*
X216904344Y-156840961D01*
X216903311Y-156844263D01*
X216903309Y-156844269D01*
X216796665Y-157185228D01*
X216796661Y-157185242D01*
X216795629Y-157188543D01*
X216794966Y-157191937D01*
X216794963Y-157191949D01*
X216726476Y-157542562D01*
X216726474Y-157542573D01*
X216725810Y-157545975D01*
X216725523Y-157549437D01*
X216725523Y-157549438D01*
X216710520Y-157730506D01*
X216695736Y-157908919D01*
X210299243Y-157908919D01*
X210294229Y-157727032D01*
X210244207Y-157366297D01*
X210154804Y-157013254D01*
X210027106Y-156672188D01*
X209939648Y-156499368D01*
X209864235Y-156350347D01*
X209864233Y-156350344D01*
X209862663Y-156347241D01*
X209663472Y-156042355D01*
X209431949Y-155761233D01*
X209194360Y-155530102D01*
X209173399Y-155509711D01*
X209173396Y-155509709D01*
X209170906Y-155507286D01*
X209168163Y-155505151D01*
X208886252Y-155285731D01*
X208886247Y-155285727D01*
X208883511Y-155283598D01*
X208573253Y-155092883D01*
X208570127Y-155091407D01*
X208570120Y-155091404D01*
X208247043Y-154938940D01*
X208247040Y-154938938D01*
X208243898Y-154937456D01*
X208240610Y-154936327D01*
X208240607Y-154936326D01*
X207902723Y-154820331D01*
X207902722Y-154820330D01*
X207899443Y-154819205D01*
X207896067Y-154818448D01*
X207896055Y-154818445D01*
X207547456Y-154740322D01*
X207547445Y-154740320D01*
X207544071Y-154739564D01*
X207540626Y-154739182D01*
X207540622Y-154739182D01*
X207185557Y-154699883D01*
X207185551Y-154699882D01*
X207182094Y-154699500D01*
X206909028Y-154699500D01*
X206907334Y-154699593D01*
X206907314Y-154699594D01*
X206639824Y-154714352D01*
X206639820Y-154714352D01*
X206636366Y-154714543D01*
X206632950Y-154715112D01*
X206632941Y-154715114D01*
X206280582Y-154773913D01*
X206280573Y-154773914D01*
X206277145Y-154774487D01*
X206273809Y-154775430D01*
X206273797Y-154775433D01*
X205930046Y-154872636D01*
X205930032Y-154872640D01*
X205926700Y-154873583D01*
X205923478Y-154874891D01*
X205923474Y-154874893D01*
X205592496Y-155009324D01*
X205592487Y-155009328D01*
X205589282Y-155010630D01*
X205586240Y-155012276D01*
X205586232Y-155012280D01*
X205272046Y-155182309D01*
X205272037Y-155182314D01*
X205268989Y-155183964D01*
X205266144Y-155185936D01*
X205266132Y-155185944D01*
X204972561Y-155389502D01*
X204972551Y-155389509D01*
X204969708Y-155391481D01*
X204967093Y-155393757D01*
X204967087Y-155393763D01*
X204697693Y-155628378D01*
X204697679Y-155628391D01*
X204695072Y-155630662D01*
X204692718Y-155633218D01*
X204692715Y-155633222D01*
X204450770Y-155896044D01*
X204450763Y-155896051D01*
X204448415Y-155898603D01*
X204446363Y-155901393D01*
X204446357Y-155901402D01*
X204234785Y-156189254D01*
X204234772Y-156189272D01*
X204232730Y-156192052D01*
X204230998Y-156195051D01*
X204230994Y-156195058D01*
X204052374Y-156504438D01*
X204052368Y-156504449D01*
X204050637Y-156507448D01*
X204049242Y-156510626D01*
X204049241Y-156510630D01*
X203905737Y-156837783D01*
X203905731Y-156837798D01*
X203904344Y-156840961D01*
X203903311Y-156844263D01*
X203903309Y-156844269D01*
X203796665Y-157185228D01*
X203796661Y-157185242D01*
X203795629Y-157188543D01*
X203794966Y-157191937D01*
X203794963Y-157191949D01*
X203726476Y-157542562D01*
X203726474Y-157542573D01*
X203725810Y-157545975D01*
X203725523Y-157549437D01*
X203725523Y-157549438D01*
X203710520Y-157730506D01*
X203695736Y-157908919D01*
X170100500Y-157908919D01*
X170100500Y-148908919D01*
X203695736Y-148908919D01*
X203695831Y-148912375D01*
X203695831Y-148912386D01*
X203703329Y-149184370D01*
X203705771Y-149272968D01*
X203706247Y-149276407D01*
X203706248Y-149276408D01*
X203744779Y-149554279D01*
X203755793Y-149633703D01*
X203756644Y-149637066D01*
X203756647Y-149637078D01*
X203844341Y-149983370D01*
X203845196Y-149986746D01*
X203846411Y-149989991D01*
X203846416Y-149990007D01*
X203971673Y-150324552D01*
X203972894Y-150327812D01*
X203974461Y-150330908D01*
X203974463Y-150330913D01*
X204135764Y-150649652D01*
X204135769Y-150649661D01*
X204137337Y-150652759D01*
X204139237Y-150655668D01*
X204139241Y-150655674D01*
X204240554Y-150810745D01*
X204336528Y-150957645D01*
X204568051Y-151238767D01*
X204570538Y-151241186D01*
X204808184Y-151472373D01*
X204829094Y-151492714D01*
X204831836Y-151494848D01*
X205112124Y-151713005D01*
X205116489Y-151716402D01*
X205426747Y-151907117D01*
X205756102Y-152062544D01*
X206100557Y-152180795D01*
X206455929Y-152260436D01*
X206817906Y-152300500D01*
X206821388Y-152300500D01*
X207089250Y-152300500D01*
X207090972Y-152300500D01*
X207363634Y-152285457D01*
X207722855Y-152225513D01*
X208073300Y-152126417D01*
X208410718Y-151989370D01*
X208731011Y-151816036D01*
X209030292Y-151608519D01*
X209304928Y-151369338D01*
X209551585Y-151101397D01*
X209767270Y-150807948D01*
X209949363Y-150492552D01*
X210095656Y-150159039D01*
X210204371Y-149811457D01*
X210274190Y-149454025D01*
X210304264Y-149091081D01*
X210299243Y-148908919D01*
X216695736Y-148908919D01*
X216695831Y-148912375D01*
X216695831Y-148912386D01*
X216703329Y-149184370D01*
X216705771Y-149272968D01*
X216706247Y-149276407D01*
X216706248Y-149276408D01*
X216744779Y-149554279D01*
X216755793Y-149633703D01*
X216756644Y-149637066D01*
X216756647Y-149637078D01*
X216844341Y-149983370D01*
X216845196Y-149986746D01*
X216846411Y-149989991D01*
X216846416Y-149990007D01*
X216971673Y-150324552D01*
X216972894Y-150327812D01*
X216974461Y-150330908D01*
X216974463Y-150330913D01*
X217135764Y-150649652D01*
X217135769Y-150649661D01*
X217137337Y-150652759D01*
X217139237Y-150655668D01*
X217139241Y-150655674D01*
X217240554Y-150810745D01*
X217336528Y-150957645D01*
X217568051Y-151238767D01*
X217570538Y-151241186D01*
X217808184Y-151472373D01*
X217829094Y-151492714D01*
X217831836Y-151494848D01*
X218112124Y-151713005D01*
X218116489Y-151716402D01*
X218426747Y-151907117D01*
X218756102Y-152062544D01*
X219100557Y-152180795D01*
X219455929Y-152260436D01*
X219817906Y-152300500D01*
X219821388Y-152300500D01*
X220089250Y-152300500D01*
X220090972Y-152300500D01*
X220363634Y-152285457D01*
X220722855Y-152225513D01*
X221073300Y-152126417D01*
X221410718Y-151989370D01*
X221731011Y-151816036D01*
X222030292Y-151608519D01*
X222304928Y-151369338D01*
X222551585Y-151101397D01*
X222767270Y-150807948D01*
X222949363Y-150492552D01*
X223095656Y-150159039D01*
X223204371Y-149811457D01*
X223274190Y-149454025D01*
X223304264Y-149091081D01*
X223294229Y-148727032D01*
X223244207Y-148366297D01*
X223154804Y-148013254D01*
X223143903Y-147984140D01*
X223076045Y-147802900D01*
X223027106Y-147672188D01*
X222895247Y-147411629D01*
X222864235Y-147350347D01*
X222864233Y-147350344D01*
X222862663Y-147347241D01*
X222663472Y-147042355D01*
X222431949Y-146761233D01*
X222194360Y-146530102D01*
X222173399Y-146509711D01*
X222173396Y-146509709D01*
X222170906Y-146507286D01*
X222168163Y-146505151D01*
X221886252Y-146285731D01*
X221886247Y-146285727D01*
X221883511Y-146283598D01*
X221573253Y-146092883D01*
X221570127Y-146091407D01*
X221570120Y-146091404D01*
X221247043Y-145938940D01*
X221247040Y-145938938D01*
X221243898Y-145937456D01*
X221240610Y-145936327D01*
X221240607Y-145936326D01*
X220902723Y-145820331D01*
X220902722Y-145820330D01*
X220899443Y-145819205D01*
X220896067Y-145818448D01*
X220896055Y-145818445D01*
X220547456Y-145740322D01*
X220547445Y-145740320D01*
X220544071Y-145739564D01*
X220540626Y-145739182D01*
X220540622Y-145739182D01*
X220185557Y-145699883D01*
X220185551Y-145699882D01*
X220182094Y-145699500D01*
X219909028Y-145699500D01*
X219907334Y-145699593D01*
X219907314Y-145699594D01*
X219639824Y-145714352D01*
X219639820Y-145714352D01*
X219636366Y-145714543D01*
X219632950Y-145715112D01*
X219632941Y-145715114D01*
X219280582Y-145773913D01*
X219280573Y-145773914D01*
X219277145Y-145774487D01*
X219273809Y-145775430D01*
X219273797Y-145775433D01*
X218930046Y-145872636D01*
X218930032Y-145872640D01*
X218926700Y-145873583D01*
X218923478Y-145874891D01*
X218923474Y-145874893D01*
X218592496Y-146009324D01*
X218592487Y-146009328D01*
X218589282Y-146010630D01*
X218586240Y-146012276D01*
X218586232Y-146012280D01*
X218272046Y-146182309D01*
X218272037Y-146182314D01*
X218268989Y-146183964D01*
X218266144Y-146185936D01*
X218266132Y-146185944D01*
X217972561Y-146389502D01*
X217972551Y-146389509D01*
X217969708Y-146391481D01*
X217967093Y-146393757D01*
X217967087Y-146393763D01*
X217697693Y-146628378D01*
X217697679Y-146628391D01*
X217695072Y-146630662D01*
X217692718Y-146633218D01*
X217692715Y-146633222D01*
X217450770Y-146896044D01*
X217450763Y-146896051D01*
X217448415Y-146898603D01*
X217446363Y-146901393D01*
X217446357Y-146901402D01*
X217234785Y-147189254D01*
X217234772Y-147189272D01*
X217232730Y-147192052D01*
X217230998Y-147195051D01*
X217230994Y-147195058D01*
X217052374Y-147504438D01*
X217052368Y-147504449D01*
X217050637Y-147507448D01*
X217049242Y-147510626D01*
X217049241Y-147510630D01*
X216905737Y-147837783D01*
X216905731Y-147837798D01*
X216904344Y-147840961D01*
X216903311Y-147844263D01*
X216903309Y-147844269D01*
X216796665Y-148185228D01*
X216796661Y-148185242D01*
X216795629Y-148188543D01*
X216794966Y-148191937D01*
X216794963Y-148191949D01*
X216726476Y-148542562D01*
X216726474Y-148542573D01*
X216725810Y-148545975D01*
X216725523Y-148549437D01*
X216725523Y-148549438D01*
X216710520Y-148730506D01*
X216695736Y-148908919D01*
X210299243Y-148908919D01*
X210294229Y-148727032D01*
X210244207Y-148366297D01*
X210154804Y-148013254D01*
X210143903Y-147984140D01*
X210076045Y-147802900D01*
X210027106Y-147672188D01*
X209895247Y-147411629D01*
X209864235Y-147350347D01*
X209864233Y-147350344D01*
X209862663Y-147347241D01*
X209663472Y-147042355D01*
X209431949Y-146761233D01*
X209194360Y-146530102D01*
X209173399Y-146509711D01*
X209173396Y-146509709D01*
X209170906Y-146507286D01*
X209168163Y-146505151D01*
X208886252Y-146285731D01*
X208886247Y-146285727D01*
X208883511Y-146283598D01*
X208573253Y-146092883D01*
X208570127Y-146091407D01*
X208570120Y-146091404D01*
X208247043Y-145938940D01*
X208247040Y-145938938D01*
X208243898Y-145937456D01*
X208240610Y-145936327D01*
X208240607Y-145936326D01*
X207902723Y-145820331D01*
X207902722Y-145820330D01*
X207899443Y-145819205D01*
X207896067Y-145818448D01*
X207896055Y-145818445D01*
X207547456Y-145740322D01*
X207547445Y-145740320D01*
X207544071Y-145739564D01*
X207540626Y-145739182D01*
X207540622Y-145739182D01*
X207185557Y-145699883D01*
X207185551Y-145699882D01*
X207182094Y-145699500D01*
X206909028Y-145699500D01*
X206907334Y-145699593D01*
X206907314Y-145699594D01*
X206639824Y-145714352D01*
X206639820Y-145714352D01*
X206636366Y-145714543D01*
X206632950Y-145715112D01*
X206632941Y-145715114D01*
X206280582Y-145773913D01*
X206280573Y-145773914D01*
X206277145Y-145774487D01*
X206273809Y-145775430D01*
X206273797Y-145775433D01*
X205930046Y-145872636D01*
X205930032Y-145872640D01*
X205926700Y-145873583D01*
X205923478Y-145874891D01*
X205923474Y-145874893D01*
X205592496Y-146009324D01*
X205592487Y-146009328D01*
X205589282Y-146010630D01*
X205586240Y-146012276D01*
X205586232Y-146012280D01*
X205272046Y-146182309D01*
X205272037Y-146182314D01*
X205268989Y-146183964D01*
X205266144Y-146185936D01*
X205266132Y-146185944D01*
X204972561Y-146389502D01*
X204972551Y-146389509D01*
X204969708Y-146391481D01*
X204967093Y-146393757D01*
X204967087Y-146393763D01*
X204697693Y-146628378D01*
X204697679Y-146628391D01*
X204695072Y-146630662D01*
X204692718Y-146633218D01*
X204692715Y-146633222D01*
X204450770Y-146896044D01*
X204450763Y-146896051D01*
X204448415Y-146898603D01*
X204446363Y-146901393D01*
X204446357Y-146901402D01*
X204234785Y-147189254D01*
X204234772Y-147189272D01*
X204232730Y-147192052D01*
X204230998Y-147195051D01*
X204230994Y-147195058D01*
X204052374Y-147504438D01*
X204052368Y-147504449D01*
X204050637Y-147507448D01*
X204049242Y-147510626D01*
X204049241Y-147510630D01*
X203905737Y-147837783D01*
X203905731Y-147837798D01*
X203904344Y-147840961D01*
X203903311Y-147844263D01*
X203903309Y-147844269D01*
X203796665Y-148185228D01*
X203796661Y-148185242D01*
X203795629Y-148188543D01*
X203794966Y-148191937D01*
X203794963Y-148191949D01*
X203726476Y-148542562D01*
X203726474Y-148542573D01*
X203725810Y-148545975D01*
X203725523Y-148549437D01*
X203725523Y-148549438D01*
X203710520Y-148730506D01*
X203695736Y-148908919D01*
X170100500Y-148908919D01*
X170100500Y-140184370D01*
X171599500Y-140184370D01*
X171599868Y-140187757D01*
X171599869Y-140187768D01*
X171619627Y-140369432D01*
X171639368Y-140550948D01*
X171640100Y-140554275D01*
X171640101Y-140554279D01*
X171717901Y-140907730D01*
X171717904Y-140907741D01*
X171718636Y-140911066D01*
X171719724Y-140914296D01*
X171719726Y-140914302D01*
X171832092Y-141247793D01*
X171836375Y-141260503D01*
X171837806Y-141263596D01*
X171837808Y-141263601D01*
X171987205Y-141586518D01*
X171991205Y-141595162D01*
X172070226Y-141726496D01*
X172171188Y-141894297D01*
X172181310Y-141911119D01*
X172404462Y-142204670D01*
X172406813Y-142207152D01*
X172406814Y-142207153D01*
X172655698Y-142469897D01*
X172655703Y-142469902D01*
X172658044Y-142472373D01*
X172939083Y-142711090D01*
X173244284Y-142918022D01*
X173570070Y-143090743D01*
X173912621Y-143227227D01*
X174267919Y-143325875D01*
X174631801Y-143385531D01*
X174907890Y-143400500D01*
X174909610Y-143400500D01*
X175090390Y-143400500D01*
X175092110Y-143400500D01*
X175368199Y-143385531D01*
X175732081Y-143325875D01*
X176087379Y-143227227D01*
X176429930Y-143090743D01*
X176755716Y-142918022D01*
X177060917Y-142711090D01*
X177341956Y-142472373D01*
X177595538Y-142204670D01*
X177818690Y-141911119D01*
X178008795Y-141595162D01*
X178163625Y-141260503D01*
X178281364Y-140911066D01*
X178360632Y-140550948D01*
X178400500Y-140184370D01*
X178400500Y-139815630D01*
X178360632Y-139449052D01*
X178281364Y-139088934D01*
X178249377Y-138994000D01*
X206967001Y-138994000D01*
X206967001Y-139069360D01*
X206967260Y-139075077D01*
X206973481Y-139143556D01*
X207024633Y-139307706D01*
X207113582Y-139454846D01*
X207235153Y-139576417D01*
X207382293Y-139665366D01*
X207546443Y-139716518D01*
X207614913Y-139722739D01*
X207620648Y-139722999D01*
X207620999Y-139722999D01*
X208129000Y-139722999D01*
X208129361Y-139722999D01*
X208135077Y-139722739D01*
X208203556Y-139716518D01*
X208367706Y-139665366D01*
X208514846Y-139576417D01*
X208636417Y-139454846D01*
X208725366Y-139307705D01*
X208746874Y-139238686D01*
X208786236Y-139179600D01*
X208851294Y-139151175D01*
X208921392Y-139162435D01*
X208974275Y-139209806D01*
X208979436Y-139218969D01*
X208996950Y-139253343D01*
X209086655Y-139343048D01*
X209086657Y-139343049D01*
X209086658Y-139343050D01*
X209199696Y-139400646D01*
X209293481Y-139415500D01*
X209307616Y-139415499D01*
X209352297Y-139423687D01*
X209356128Y-139425140D01*
X209482628Y-139440500D01*
X210337286Y-139440500D01*
X210405407Y-139460502D01*
X210440499Y-139494229D01*
X210499953Y-139579139D01*
X210660861Y-139740047D01*
X210782362Y-139825122D01*
X210847267Y-139870569D01*
X210901387Y-139895806D01*
X210954672Y-139942723D01*
X210974132Y-140011000D01*
X210953590Y-140078960D01*
X210901387Y-140124194D01*
X210847267Y-140149430D01*
X210660858Y-140279955D01*
X210499955Y-140440858D01*
X210369432Y-140627265D01*
X210273260Y-140833504D01*
X210214365Y-141053307D01*
X210194532Y-141280000D01*
X210214365Y-141506692D01*
X210273260Y-141726495D01*
X210354401Y-141900500D01*
X210369432Y-141932734D01*
X210499953Y-142119139D01*
X210660861Y-142280047D01*
X210745254Y-142339139D01*
X210847267Y-142410569D01*
X210901387Y-142435806D01*
X210954672Y-142482723D01*
X210974132Y-142551000D01*
X210953590Y-142618960D01*
X210901387Y-142664194D01*
X210847267Y-142689430D01*
X210660858Y-142819955D01*
X210499955Y-142980858D01*
X210369432Y-143167265D01*
X210273260Y-143373504D01*
X210214365Y-143593307D01*
X210194532Y-143820000D01*
X210214365Y-144046692D01*
X210273260Y-144266495D01*
X210344148Y-144418512D01*
X210369432Y-144472734D01*
X210499953Y-144659139D01*
X210660861Y-144820047D01*
X210847266Y-144950568D01*
X211053504Y-145046739D01*
X211273308Y-145105635D01*
X211500000Y-145125468D01*
X211726692Y-145105635D01*
X211946496Y-145046739D01*
X212152734Y-144950568D01*
X212339139Y-144820047D01*
X212500047Y-144659139D01*
X212630568Y-144472734D01*
X212726739Y-144266496D01*
X212785635Y-144046692D01*
X212805468Y-143820000D01*
X212785635Y-143593308D01*
X212726739Y-143373504D01*
X212630568Y-143167266D01*
X212500047Y-142980861D01*
X212339139Y-142819953D01*
X212200409Y-142722814D01*
X212152735Y-142689432D01*
X212098613Y-142664195D01*
X212045328Y-142617278D01*
X212025867Y-142549000D01*
X212046409Y-142481040D01*
X212098613Y-142435805D01*
X212121529Y-142425119D01*
X212152734Y-142410568D01*
X212339139Y-142280047D01*
X212500047Y-142119139D01*
X212630568Y-141932734D01*
X212726739Y-141726496D01*
X212751793Y-141632990D01*
X212788743Y-141572370D01*
X212852603Y-141541348D01*
X212923097Y-141549776D01*
X212977845Y-141594978D01*
X212999463Y-141662603D01*
X212999499Y-141665603D01*
X212999500Y-142671116D01*
X212996744Y-142688007D01*
X212999366Y-142744722D01*
X212999500Y-142750539D01*
X212999500Y-142769589D01*
X213001186Y-142784130D01*
X213002413Y-142810676D01*
X213005121Y-142816808D01*
X213013707Y-142844533D01*
X213014938Y-142851117D01*
X213028924Y-142873706D01*
X213037055Y-142889132D01*
X213047794Y-142913452D01*
X213052527Y-142918185D01*
X213070558Y-142940949D01*
X213074079Y-142946636D01*
X213074080Y-142946637D01*
X213074081Y-142946638D01*
X213095280Y-142962647D01*
X213108441Y-142974099D01*
X213484535Y-143350192D01*
X213597635Y-143463291D01*
X213607633Y-143477187D01*
X213649597Y-143515442D01*
X213653786Y-143519442D01*
X213666518Y-143532174D01*
X213666521Y-143532176D01*
X213667263Y-143532918D01*
X213678742Y-143542012D01*
X213698382Y-143559916D01*
X213704624Y-143562334D01*
X213730317Y-143575877D01*
X213735834Y-143579656D01*
X213761697Y-143585738D01*
X213778347Y-143590893D01*
X213803142Y-143600500D01*
X213809834Y-143600500D01*
X213838682Y-143603846D01*
X213845196Y-143605379D01*
X213871511Y-143601707D01*
X213888919Y-143600500D01*
X223563670Y-143600500D01*
X223631791Y-143620502D01*
X223652765Y-143637405D01*
X227962595Y-147947235D01*
X227996621Y-148009547D01*
X227999500Y-148036330D01*
X227999500Y-150877488D01*
X227996744Y-150894379D01*
X227999366Y-150951094D01*
X227999500Y-150956911D01*
X227999500Y-150975961D01*
X228001186Y-150990502D01*
X228002413Y-151017049D01*
X228005120Y-151023179D01*
X228013707Y-151050908D01*
X228014937Y-151057490D01*
X228028925Y-151080082D01*
X228037059Y-151095512D01*
X228047794Y-151119823D01*
X228052525Y-151124554D01*
X228070555Y-151147316D01*
X228074081Y-151153010D01*
X228095284Y-151169022D01*
X228108445Y-151180474D01*
X230791265Y-153863291D01*
X230801263Y-153877187D01*
X230843227Y-153915442D01*
X230847416Y-153919442D01*
X230857415Y-153929441D01*
X230860892Y-153932918D01*
X230872371Y-153942011D01*
X230892012Y-153959916D01*
X230898252Y-153962333D01*
X230923940Y-153975873D01*
X230929464Y-153979657D01*
X230955334Y-153985741D01*
X230971987Y-153990898D01*
X230996772Y-154000500D01*
X231003464Y-154000500D01*
X231032311Y-154003846D01*
X231038826Y-154005379D01*
X231065141Y-154001707D01*
X231082549Y-154000500D01*
X237777488Y-154000500D01*
X237794379Y-154003255D01*
X237804821Y-154002772D01*
X237804823Y-154002773D01*
X237848840Y-154000738D01*
X237851095Y-154000634D01*
X237856912Y-154000500D01*
X237875962Y-154000500D01*
X237890500Y-153998811D01*
X237917050Y-153997585D01*
X237923176Y-153994879D01*
X237950915Y-153986290D01*
X237957491Y-153985061D01*
X237980084Y-153971071D01*
X237995512Y-153962940D01*
X238019823Y-153952206D01*
X238024553Y-153947475D01*
X238047321Y-153929441D01*
X238053010Y-153925919D01*
X238069031Y-153904702D01*
X238080473Y-153891554D01*
X241213288Y-150758737D01*
X241227178Y-150748745D01*
X241234224Y-150741015D01*
X241234227Y-150741014D01*
X241265456Y-150706755D01*
X241269411Y-150702614D01*
X241282174Y-150689853D01*
X241282178Y-150689846D01*
X241282925Y-150689100D01*
X241292025Y-150677612D01*
X241309915Y-150657989D01*
X241312330Y-150651753D01*
X241325878Y-150626051D01*
X241326532Y-150625095D01*
X241329656Y-150620536D01*
X241335738Y-150594673D01*
X241340899Y-150578006D01*
X241350499Y-150553229D01*
X241350499Y-150546536D01*
X241353846Y-150517687D01*
X241355378Y-150511174D01*
X241351707Y-150484858D01*
X241350499Y-150467450D01*
X241350499Y-140184370D01*
X261599500Y-140184370D01*
X261599868Y-140187757D01*
X261599869Y-140187768D01*
X261619627Y-140369432D01*
X261639368Y-140550948D01*
X261640100Y-140554275D01*
X261640101Y-140554279D01*
X261717901Y-140907730D01*
X261717904Y-140907741D01*
X261718636Y-140911066D01*
X261719724Y-140914296D01*
X261719726Y-140914302D01*
X261832092Y-141247793D01*
X261836375Y-141260503D01*
X261837806Y-141263596D01*
X261837808Y-141263601D01*
X261987205Y-141586518D01*
X261991205Y-141595162D01*
X262070226Y-141726496D01*
X262171188Y-141894297D01*
X262181310Y-141911119D01*
X262404462Y-142204670D01*
X262406813Y-142207152D01*
X262406814Y-142207153D01*
X262655698Y-142469897D01*
X262655703Y-142469902D01*
X262658044Y-142472373D01*
X262939083Y-142711090D01*
X263244284Y-142918022D01*
X263570070Y-143090743D01*
X263912621Y-143227227D01*
X264267919Y-143325875D01*
X264631801Y-143385531D01*
X264907890Y-143400500D01*
X264909610Y-143400500D01*
X265090390Y-143400500D01*
X265092110Y-143400500D01*
X265368199Y-143385531D01*
X265732081Y-143325875D01*
X266087379Y-143227227D01*
X266429930Y-143090743D01*
X266755716Y-142918022D01*
X267060917Y-142711090D01*
X267341956Y-142472373D01*
X267595538Y-142204670D01*
X267818690Y-141911119D01*
X268008795Y-141595162D01*
X268163625Y-141260503D01*
X268281364Y-140911066D01*
X268360632Y-140550948D01*
X268400500Y-140184370D01*
X268400500Y-139815630D01*
X268360632Y-139449052D01*
X268281364Y-139088934D01*
X268163625Y-138739497D01*
X268008795Y-138404838D01*
X267818690Y-138088881D01*
X267595538Y-137795330D01*
X267419444Y-137609430D01*
X267344301Y-137530102D01*
X267344295Y-137530096D01*
X267341956Y-137527627D01*
X267060917Y-137288910D01*
X266921720Y-137194532D01*
X266758538Y-137083891D01*
X266758533Y-137083888D01*
X266755716Y-137081978D01*
X266514758Y-136954230D01*
X266432941Y-136910853D01*
X266432936Y-136910850D01*
X266429930Y-136909257D01*
X266426763Y-136907995D01*
X266090548Y-136774035D01*
X266090537Y-136774031D01*
X266087379Y-136772773D01*
X266084098Y-136771862D01*
X266084092Y-136771860D01*
X265735375Y-136675039D01*
X265735365Y-136675036D01*
X265732081Y-136674125D01*
X265728722Y-136673574D01*
X265728707Y-136673571D01*
X265371576Y-136615022D01*
X265371564Y-136615020D01*
X265368199Y-136614469D01*
X265364789Y-136614284D01*
X265364779Y-136614283D01*
X265093831Y-136599593D01*
X265093819Y-136599592D01*
X265092110Y-136599500D01*
X264907890Y-136599500D01*
X264906181Y-136599592D01*
X264906168Y-136599593D01*
X264635220Y-136614283D01*
X264635208Y-136614284D01*
X264631801Y-136614469D01*
X264628437Y-136615020D01*
X264628423Y-136615022D01*
X264271292Y-136673571D01*
X264271273Y-136673574D01*
X264267919Y-136674125D01*
X264264638Y-136675035D01*
X264264624Y-136675039D01*
X263915907Y-136771860D01*
X263915896Y-136771863D01*
X263912621Y-136772773D01*
X263909467Y-136774029D01*
X263909451Y-136774035D01*
X263573236Y-136907995D01*
X263573227Y-136907999D01*
X263570070Y-136909257D01*
X263567070Y-136910847D01*
X263567058Y-136910853D01*
X263247301Y-137080378D01*
X263247294Y-137080382D01*
X263244284Y-137081978D01*
X263241474Y-137083882D01*
X263241461Y-137083891D01*
X262941908Y-137286994D01*
X262941900Y-137286999D01*
X262939083Y-137288910D01*
X262936483Y-137291118D01*
X262936477Y-137291123D01*
X262660640Y-137525421D01*
X262660630Y-137525430D01*
X262658044Y-137527627D01*
X262655713Y-137530087D01*
X262655698Y-137530102D01*
X262406814Y-137792846D01*
X262406805Y-137792855D01*
X262404462Y-137795330D01*
X262402395Y-137798048D01*
X262402395Y-137798049D01*
X262183380Y-138086157D01*
X262183373Y-138086165D01*
X262181310Y-138088881D01*
X262179552Y-138091801D01*
X262179545Y-138091813D01*
X262019116Y-138358449D01*
X261991205Y-138404838D01*
X261989775Y-138407928D01*
X261989768Y-138407942D01*
X261837808Y-138736398D01*
X261837803Y-138736409D01*
X261836375Y-138739497D01*
X261835289Y-138742719D01*
X261835285Y-138742730D01*
X261719726Y-139085697D01*
X261719722Y-139085708D01*
X261718636Y-139088934D01*
X261717905Y-139092253D01*
X261717901Y-139092269D01*
X261641250Y-139440500D01*
X261639368Y-139449052D01*
X261638999Y-139452442D01*
X261638999Y-139452444D01*
X261599869Y-139812231D01*
X261599868Y-139812243D01*
X261599500Y-139815630D01*
X261599500Y-140184370D01*
X241350499Y-140184370D01*
X241350499Y-112026661D01*
X241370501Y-111958540D01*
X241387404Y-111937566D01*
X243837566Y-109487405D01*
X243899878Y-109453379D01*
X243926661Y-109450500D01*
X246404713Y-109450500D01*
X246421604Y-109453255D01*
X246432046Y-109452772D01*
X246432048Y-109452773D01*
X246476065Y-109450738D01*
X246478320Y-109450634D01*
X246484137Y-109450500D01*
X246503187Y-109450500D01*
X246517725Y-109448811D01*
X246544275Y-109447585D01*
X246550401Y-109444879D01*
X246578140Y-109436290D01*
X246584716Y-109435061D01*
X246607309Y-109421071D01*
X246622737Y-109412940D01*
X246647048Y-109402206D01*
X246651778Y-109397475D01*
X246674546Y-109379441D01*
X246680235Y-109375919D01*
X246696253Y-109354706D01*
X246707695Y-109341557D01*
X247563291Y-108485962D01*
X247577180Y-108475971D01*
X247584225Y-108468242D01*
X247584228Y-108468241D01*
X247615457Y-108433982D01*
X247619412Y-108429841D01*
X247632175Y-108417080D01*
X247632179Y-108417073D01*
X247632926Y-108416327D01*
X247642026Y-108404839D01*
X247659916Y-108385216D01*
X247662331Y-108378980D01*
X247675879Y-108353278D01*
X247676533Y-108352322D01*
X247679657Y-108347763D01*
X247685739Y-108321900D01*
X247690900Y-108305233D01*
X247698664Y-108285194D01*
X248589500Y-108285194D01*
X248592402Y-108322069D01*
X248638256Y-108479898D01*
X248713283Y-108606762D01*
X248721921Y-108621368D01*
X248838131Y-108737578D01*
X248838133Y-108737579D01*
X248838135Y-108737581D01*
X248979602Y-108821244D01*
X249137431Y-108867098D01*
X249174306Y-108870000D01*
X249176777Y-108870000D01*
X250203223Y-108870000D01*
X250205694Y-108870000D01*
X250242569Y-108867098D01*
X250400398Y-108821244D01*
X250541865Y-108737581D01*
X250658081Y-108621365D01*
X250741744Y-108479898D01*
X250787598Y-108322069D01*
X250790500Y-108285194D01*
X251129500Y-108285194D01*
X251132402Y-108322069D01*
X251178256Y-108479898D01*
X251253283Y-108606762D01*
X251261921Y-108621368D01*
X251378131Y-108737578D01*
X251378133Y-108737579D01*
X251378135Y-108737581D01*
X251519602Y-108821244D01*
X251677431Y-108867098D01*
X251714306Y-108870000D01*
X251716777Y-108870000D01*
X252743223Y-108870000D01*
X252745694Y-108870000D01*
X252782569Y-108867098D01*
X252940398Y-108821244D01*
X253081865Y-108737581D01*
X253198081Y-108621365D01*
X253281744Y-108479898D01*
X253327598Y-108322069D01*
X253330500Y-108285194D01*
X253669500Y-108285194D01*
X253672402Y-108322069D01*
X253718256Y-108479898D01*
X253793283Y-108606762D01*
X253801921Y-108621368D01*
X253918131Y-108737578D01*
X253918133Y-108737579D01*
X253918135Y-108737581D01*
X254059602Y-108821244D01*
X254217431Y-108867098D01*
X254254306Y-108870000D01*
X254256777Y-108870000D01*
X255283223Y-108870000D01*
X255285694Y-108870000D01*
X255322569Y-108867098D01*
X255480398Y-108821244D01*
X255621865Y-108737581D01*
X255738081Y-108621365D01*
X255821744Y-108479898D01*
X255867598Y-108322069D01*
X255870500Y-108285194D01*
X256209500Y-108285194D01*
X256212402Y-108322069D01*
X256258256Y-108479898D01*
X256333283Y-108606762D01*
X256341921Y-108621368D01*
X256458131Y-108737578D01*
X256458133Y-108737579D01*
X256458135Y-108737581D01*
X256599602Y-108821244D01*
X256757431Y-108867098D01*
X256794306Y-108870000D01*
X256796777Y-108870000D01*
X257823223Y-108870000D01*
X257825694Y-108870000D01*
X257862569Y-108867098D01*
X258020398Y-108821244D01*
X258161865Y-108737581D01*
X258278081Y-108621365D01*
X258361744Y-108479898D01*
X258407598Y-108322069D01*
X258410500Y-108285194D01*
X258410500Y-107253806D01*
X258407598Y-107216931D01*
X258361744Y-107059102D01*
X258278081Y-106917635D01*
X258278079Y-106917633D01*
X258278078Y-106917631D01*
X258161868Y-106801421D01*
X258161865Y-106801419D01*
X258020398Y-106717756D01*
X257862569Y-106671902D01*
X257828150Y-106669193D01*
X257828142Y-106669192D01*
X257825694Y-106669000D01*
X256794306Y-106669000D01*
X256791858Y-106669192D01*
X256791849Y-106669193D01*
X256757430Y-106671902D01*
X256599602Y-106717756D01*
X256458131Y-106801421D01*
X256341921Y-106917631D01*
X256258256Y-107059102D01*
X256212402Y-107216930D01*
X256209827Y-107249655D01*
X256209500Y-107253806D01*
X256209500Y-108285194D01*
X255870500Y-108285194D01*
X255870500Y-107253806D01*
X255867598Y-107216931D01*
X255821744Y-107059102D01*
X255738081Y-106917635D01*
X255738079Y-106917633D01*
X255738078Y-106917631D01*
X255621868Y-106801421D01*
X255621865Y-106801419D01*
X255480398Y-106717756D01*
X255322569Y-106671902D01*
X255288150Y-106669193D01*
X255288142Y-106669192D01*
X255285694Y-106669000D01*
X254254306Y-106669000D01*
X254251858Y-106669192D01*
X254251849Y-106669193D01*
X254217430Y-106671902D01*
X254059602Y-106717756D01*
X253918131Y-106801421D01*
X253801921Y-106917631D01*
X253718256Y-107059102D01*
X253672402Y-107216930D01*
X253669827Y-107249655D01*
X253669500Y-107253806D01*
X253669500Y-108285194D01*
X253330500Y-108285194D01*
X253330500Y-107253806D01*
X253327598Y-107216931D01*
X253281744Y-107059102D01*
X253198081Y-106917635D01*
X253198079Y-106917633D01*
X253198078Y-106917631D01*
X253081868Y-106801421D01*
X253081865Y-106801419D01*
X252940398Y-106717756D01*
X252782569Y-106671902D01*
X252748150Y-106669193D01*
X252748142Y-106669192D01*
X252745694Y-106669000D01*
X251714306Y-106669000D01*
X251711858Y-106669192D01*
X251711849Y-106669193D01*
X251677430Y-106671902D01*
X251519602Y-106717756D01*
X251378131Y-106801421D01*
X251261921Y-106917631D01*
X251178256Y-107059102D01*
X251132402Y-107216930D01*
X251129827Y-107249655D01*
X251129500Y-107253806D01*
X251129500Y-108285194D01*
X250790500Y-108285194D01*
X250790500Y-107253806D01*
X250787598Y-107216931D01*
X250741744Y-107059102D01*
X250658081Y-106917635D01*
X250658079Y-106917633D01*
X250658078Y-106917631D01*
X250541868Y-106801421D01*
X250541865Y-106801419D01*
X250400398Y-106717756D01*
X250242569Y-106671902D01*
X250208150Y-106669193D01*
X250208142Y-106669192D01*
X250205694Y-106669000D01*
X249174306Y-106669000D01*
X249171858Y-106669192D01*
X249171849Y-106669193D01*
X249137430Y-106671902D01*
X248979602Y-106717756D01*
X248838131Y-106801421D01*
X248721921Y-106917631D01*
X248638256Y-107059102D01*
X248592402Y-107216930D01*
X248589827Y-107249655D01*
X248589500Y-107253806D01*
X248589500Y-108285194D01*
X247698664Y-108285194D01*
X247700500Y-108280456D01*
X247700500Y-108273763D01*
X247703847Y-108244914D01*
X247705379Y-108238400D01*
X247701708Y-108212086D01*
X247700500Y-108194690D01*
X247700500Y-103192285D01*
X255902000Y-103192285D01*
X255902246Y-103197852D01*
X255912162Y-103309379D01*
X255965762Y-103496705D01*
X256055970Y-103669397D01*
X256179098Y-103820401D01*
X256330103Y-103943531D01*
X256482775Y-104023280D01*
X256533894Y-104072548D01*
X256550261Y-104141632D01*
X256526680Y-104208599D01*
X256488579Y-104243414D01*
X256458132Y-104261420D01*
X256341921Y-104377631D01*
X256258256Y-104519102D01*
X256212402Y-104676930D01*
X256210410Y-104702246D01*
X256209500Y-104713806D01*
X256209500Y-105745194D01*
X256212402Y-105782069D01*
X256258256Y-105939898D01*
X256286610Y-105987842D01*
X256341921Y-106081368D01*
X256458131Y-106197578D01*
X256458133Y-106197579D01*
X256458135Y-106197581D01*
X256599602Y-106281244D01*
X256757431Y-106327098D01*
X256794306Y-106330000D01*
X256796777Y-106330000D01*
X257823223Y-106330000D01*
X257825694Y-106330000D01*
X257862569Y-106327098D01*
X258020398Y-106281244D01*
X258161865Y-106197581D01*
X258278081Y-106081365D01*
X258361744Y-105939898D01*
X258407598Y-105782069D01*
X258410500Y-105745194D01*
X258410500Y-104713806D01*
X258407598Y-104676931D01*
X258361744Y-104519102D01*
X258278081Y-104377635D01*
X258278079Y-104377633D01*
X258278078Y-104377631D01*
X258161866Y-104261419D01*
X258131421Y-104243414D01*
X258082969Y-104191521D01*
X258070264Y-104121670D01*
X258097340Y-104056040D01*
X258137224Y-104023279D01*
X258289899Y-103943528D01*
X258440901Y-103820401D01*
X258564029Y-103669397D01*
X258654237Y-103496705D01*
X258707837Y-103309379D01*
X258717753Y-103197852D01*
X258718000Y-103192285D01*
X258718000Y-102943500D01*
X257741116Y-102943500D01*
X257769493Y-102899344D01*
X257810000Y-102761389D01*
X257810000Y-102617611D01*
X257769493Y-102479656D01*
X257741116Y-102435500D01*
X258718000Y-102435500D01*
X258718000Y-102186714D01*
X258717753Y-102181147D01*
X258707837Y-102069620D01*
X258654237Y-101882294D01*
X258564029Y-101709602D01*
X258440901Y-101558598D01*
X258289897Y-101435470D01*
X258117205Y-101345262D01*
X257929879Y-101291662D01*
X257818352Y-101281746D01*
X257812785Y-101281500D01*
X257564000Y-101281500D01*
X257564000Y-102255825D01*
X257452315Y-102204820D01*
X257345763Y-102189500D01*
X257274237Y-102189500D01*
X257167685Y-102204820D01*
X257055999Y-102255825D01*
X257056000Y-101281500D01*
X256807215Y-101281500D01*
X256801647Y-101281746D01*
X256690120Y-101291662D01*
X256502794Y-101345262D01*
X256330102Y-101435470D01*
X256179098Y-101558598D01*
X256055970Y-101709602D01*
X255965762Y-101882294D01*
X255912162Y-102069620D01*
X255902246Y-102181147D01*
X255902000Y-102186714D01*
X255902000Y-102435500D01*
X256878884Y-102435500D01*
X256850507Y-102479656D01*
X256810000Y-102617611D01*
X256810000Y-102761389D01*
X256850507Y-102899344D01*
X256878884Y-102943500D01*
X255902000Y-102943500D01*
X255902000Y-103192285D01*
X247700500Y-103192285D01*
X247700500Y-101945287D01*
X247703255Y-101928398D01*
X247702772Y-101917953D01*
X247702773Y-101917952D01*
X247700634Y-101871680D01*
X247700500Y-101865863D01*
X247700500Y-101846812D01*
X247698811Y-101832271D01*
X247697585Y-101805725D01*
X247694877Y-101799594D01*
X247686289Y-101771855D01*
X247685061Y-101765284D01*
X247685060Y-101765282D01*
X247671077Y-101742698D01*
X247662942Y-101727265D01*
X247652207Y-101702954D01*
X247652206Y-101702953D01*
X247652206Y-101702952D01*
X247647473Y-101698219D01*
X247629445Y-101675459D01*
X247625919Y-101669765D01*
X247604713Y-101653751D01*
X247591550Y-101642296D01*
X246758515Y-100809261D01*
X246748517Y-100795364D01*
X246706549Y-100757105D01*
X246702359Y-100753105D01*
X246689630Y-100740376D01*
X246689629Y-100740375D01*
X246688881Y-100739627D01*
X246677408Y-100730539D01*
X246657766Y-100712633D01*
X246651518Y-100710213D01*
X246625832Y-100696674D01*
X246620314Y-100692894D01*
X246620313Y-100692893D01*
X246620312Y-100692893D01*
X246594451Y-100686810D01*
X246577788Y-100681650D01*
X246553007Y-100672050D01*
X246553006Y-100672050D01*
X246546314Y-100672050D01*
X246517465Y-100668703D01*
X246510952Y-100667171D01*
X246495734Y-100669294D01*
X246484637Y-100670842D01*
X246467229Y-100672050D01*
X245292738Y-100672050D01*
X245275846Y-100669294D01*
X245219131Y-100671916D01*
X245213314Y-100672050D01*
X245194265Y-100672050D01*
X245179724Y-100673736D01*
X245153177Y-100674963D01*
X245147043Y-100677672D01*
X245119317Y-100686257D01*
X245112736Y-100687487D01*
X245090141Y-100701477D01*
X245074712Y-100709609D01*
X245050403Y-100720343D01*
X245045667Y-100725079D01*
X245022912Y-100743103D01*
X245017214Y-100746631D01*
X245001197Y-100767840D01*
X244989745Y-100780999D01*
X243540025Y-102230719D01*
X243477713Y-102264745D01*
X243406898Y-102259680D01*
X243350062Y-102217133D01*
X243334521Y-102189842D01*
X243334379Y-102189500D01*
X243306486Y-102122159D01*
X243306485Y-102122156D01*
X243210232Y-101996717D01*
X243131746Y-101936493D01*
X243089879Y-101879155D01*
X243082450Y-101836531D01*
X243082450Y-101029125D01*
X243085206Y-101012229D01*
X243084723Y-101001787D01*
X243084724Y-101001786D01*
X243082584Y-100955492D01*
X243082450Y-100949675D01*
X243082450Y-100930648D01*
X243080763Y-100916109D01*
X243079536Y-100889559D01*
X243076832Y-100883435D01*
X243068238Y-100855684D01*
X243067011Y-100849117D01*
X243053025Y-100826529D01*
X243044890Y-100811095D01*
X243034156Y-100786785D01*
X243029423Y-100782052D01*
X243011395Y-100759292D01*
X243007869Y-100753598D01*
X242986663Y-100737584D01*
X242973500Y-100726129D01*
X242609082Y-100361711D01*
X242599084Y-100347814D01*
X242557116Y-100309555D01*
X242552926Y-100305555D01*
X242540197Y-100292826D01*
X242540196Y-100292825D01*
X242539448Y-100292077D01*
X242527975Y-100282989D01*
X242508333Y-100265083D01*
X242502085Y-100262663D01*
X242476399Y-100249124D01*
X242470881Y-100245344D01*
X242470880Y-100245343D01*
X242470879Y-100245343D01*
X242445018Y-100239260D01*
X242428355Y-100234100D01*
X242403574Y-100224500D01*
X242403573Y-100224500D01*
X242396881Y-100224500D01*
X242368032Y-100221153D01*
X242361519Y-100219621D01*
X242346301Y-100221744D01*
X242335204Y-100223292D01*
X242317796Y-100224500D01*
X239428886Y-100224500D01*
X239411994Y-100221744D01*
X239355279Y-100224366D01*
X239349462Y-100224500D01*
X239330413Y-100224500D01*
X239315872Y-100226186D01*
X239289325Y-100227413D01*
X239283191Y-100230122D01*
X239255465Y-100238707D01*
X239248884Y-100239937D01*
X239226289Y-100253927D01*
X239210860Y-100262059D01*
X239186551Y-100272793D01*
X239181815Y-100277529D01*
X239159060Y-100295553D01*
X239153362Y-100299081D01*
X239137345Y-100320290D01*
X239125893Y-100333449D01*
X236831405Y-102627936D01*
X236817511Y-102637934D01*
X236779253Y-102679899D01*
X236775241Y-102684101D01*
X236761779Y-102697563D01*
X236752691Y-102709036D01*
X236734783Y-102728680D01*
X236732362Y-102734930D01*
X236718826Y-102760610D01*
X236715043Y-102766133D01*
X236708959Y-102791997D01*
X236703800Y-102808659D01*
X236694200Y-102833441D01*
X236694200Y-102840132D01*
X236690853Y-102868980D01*
X236689320Y-102875493D01*
X236692992Y-102901810D01*
X236694200Y-102919218D01*
X236694200Y-107110097D01*
X236691444Y-107126988D01*
X236694066Y-107183703D01*
X236694200Y-107189520D01*
X236694200Y-107208571D01*
X236695886Y-107223112D01*
X236697113Y-107249655D01*
X236699820Y-107255785D01*
X236708409Y-107283522D01*
X236709639Y-107290101D01*
X236723622Y-107312685D01*
X236731757Y-107328118D01*
X236742492Y-107352430D01*
X236742493Y-107352431D01*
X236742494Y-107352433D01*
X236747225Y-107357164D01*
X236765255Y-107379926D01*
X236768780Y-107385619D01*
X236789986Y-107401633D01*
X236803150Y-107413089D01*
X239185472Y-109795412D01*
X239195470Y-109809308D01*
X239237435Y-109847564D01*
X239241624Y-109851564D01*
X239254356Y-109864296D01*
X239254359Y-109864298D01*
X239255101Y-109865040D01*
X239266580Y-109874134D01*
X239286220Y-109892038D01*
X239292462Y-109894456D01*
X239318155Y-109907999D01*
X239323672Y-109911778D01*
X239349535Y-109917860D01*
X239366185Y-109923015D01*
X239390980Y-109932622D01*
X239397672Y-109932622D01*
X239426520Y-109935968D01*
X239433034Y-109937501D01*
X239459349Y-109933829D01*
X239476757Y-109932622D01*
X239726722Y-109932622D01*
X239794843Y-109952624D01*
X239841336Y-110006280D01*
X239851440Y-110076554D01*
X239843132Y-110106836D01*
X239833172Y-110130882D01*
X239814955Y-110174861D01*
X239794317Y-110331622D01*
X239807230Y-110429706D01*
X239796290Y-110499854D01*
X239771403Y-110535246D01*
X239686704Y-110619945D01*
X239672810Y-110629943D01*
X239634552Y-110671908D01*
X239630540Y-110676110D01*
X239617078Y-110689572D01*
X239607990Y-110701045D01*
X239590082Y-110720689D01*
X239587661Y-110726939D01*
X239574125Y-110752619D01*
X239570342Y-110758142D01*
X239564258Y-110784006D01*
X239559099Y-110800668D01*
X239549499Y-110825450D01*
X239549499Y-110832142D01*
X239546152Y-110860989D01*
X239544619Y-110867502D01*
X239548290Y-110893818D01*
X239549498Y-110911222D01*
X239549498Y-149823339D01*
X239529496Y-149891460D01*
X239512593Y-149912434D01*
X238948829Y-150476199D01*
X237814532Y-151610497D01*
X237262434Y-152162595D01*
X237200122Y-152196620D01*
X237173339Y-152199500D01*
X234731449Y-152199500D01*
X234663328Y-152179498D01*
X234616835Y-152125842D01*
X234606731Y-152055568D01*
X234636225Y-151990988D01*
X234672428Y-151962178D01*
X234755716Y-151918022D01*
X235060917Y-151711090D01*
X235341956Y-151472373D01*
X235595538Y-151204670D01*
X235818690Y-150911119D01*
X236008795Y-150595162D01*
X236163625Y-150260503D01*
X236281364Y-149911066D01*
X236360632Y-149550948D01*
X236400500Y-149184370D01*
X236400500Y-148815630D01*
X236360632Y-148449052D01*
X236281364Y-148088934D01*
X236163625Y-147739497D01*
X236008795Y-147404838D01*
X235818690Y-147088881D01*
X235595538Y-146795330D01*
X235437393Y-146628378D01*
X235344301Y-146530102D01*
X235344295Y-146530096D01*
X235341956Y-146527627D01*
X235060917Y-146288910D01*
X234771800Y-146092883D01*
X234758538Y-146083891D01*
X234758533Y-146083888D01*
X234755716Y-146081978D01*
X234618676Y-146009324D01*
X234432941Y-145910853D01*
X234432936Y-145910850D01*
X234429930Y-145909257D01*
X234426763Y-145907995D01*
X234090548Y-145774035D01*
X234090537Y-145774031D01*
X234087379Y-145772773D01*
X234084098Y-145771862D01*
X234084092Y-145771860D01*
X233735375Y-145675039D01*
X233735365Y-145675036D01*
X233732081Y-145674125D01*
X233728722Y-145673574D01*
X233728707Y-145673571D01*
X233371576Y-145615022D01*
X233371564Y-145615020D01*
X233368199Y-145614469D01*
X233364789Y-145614284D01*
X233364779Y-145614283D01*
X233093831Y-145599593D01*
X233093819Y-145599592D01*
X233092110Y-145599500D01*
X232907890Y-145599500D01*
X232906181Y-145599592D01*
X232906168Y-145599593D01*
X232635220Y-145614283D01*
X232635208Y-145614284D01*
X232631801Y-145614469D01*
X232628437Y-145615020D01*
X232628423Y-145615022D01*
X232271292Y-145673571D01*
X232271273Y-145673574D01*
X232267919Y-145674125D01*
X232264638Y-145675035D01*
X232264624Y-145675039D01*
X231915907Y-145771860D01*
X231915896Y-145771863D01*
X231912621Y-145772773D01*
X231909467Y-145774029D01*
X231909451Y-145774035D01*
X231573236Y-145907995D01*
X231573227Y-145907999D01*
X231570070Y-145909257D01*
X231567070Y-145910847D01*
X231567058Y-145910853D01*
X231247301Y-146080378D01*
X231247294Y-146080382D01*
X231244284Y-146081978D01*
X231241474Y-146083882D01*
X231241461Y-146083891D01*
X230941908Y-146286994D01*
X230941900Y-146286999D01*
X230939083Y-146288910D01*
X230936483Y-146291118D01*
X230936477Y-146291123D01*
X230660640Y-146525421D01*
X230660630Y-146525430D01*
X230658044Y-146527627D01*
X230655713Y-146530087D01*
X230655698Y-146530102D01*
X230406814Y-146792846D01*
X230406805Y-146792855D01*
X230404462Y-146795330D01*
X230402395Y-146798048D01*
X230402395Y-146798049D01*
X230183380Y-147086157D01*
X230183373Y-147086165D01*
X230181310Y-147088881D01*
X230179552Y-147091801D01*
X230179545Y-147091813D01*
X230030824Y-147338990D01*
X229978565Y-147387047D01*
X229908620Y-147399223D01*
X229843196Y-147371650D01*
X229803065Y-147313084D01*
X229800557Y-147299354D01*
X229797585Y-147292623D01*
X229797585Y-147292621D01*
X229794877Y-147286490D01*
X229786289Y-147258751D01*
X229785061Y-147252180D01*
X229771077Y-147229594D01*
X229762942Y-147214161D01*
X229752207Y-147189850D01*
X229752206Y-147189849D01*
X229752206Y-147189848D01*
X229747473Y-147185115D01*
X229729445Y-147162355D01*
X229725919Y-147156661D01*
X229704713Y-147140647D01*
X229691550Y-147129192D01*
X227726084Y-145163726D01*
X227692058Y-145101414D01*
X227697123Y-145030599D01*
X227739670Y-144973763D01*
X227806190Y-144948952D01*
X227868427Y-144960435D01*
X228053504Y-145046739D01*
X228273308Y-145105635D01*
X228500000Y-145125468D01*
X228726692Y-145105635D01*
X228946496Y-145046739D01*
X229152734Y-144950568D01*
X229339139Y-144820047D01*
X229500047Y-144659139D01*
X229559500Y-144574229D01*
X229614957Y-144529901D01*
X229662714Y-144520500D01*
X230513563Y-144520500D01*
X230517372Y-144520500D01*
X230643872Y-144505140D01*
X230647703Y-144503686D01*
X230692383Y-144495499D01*
X230706518Y-144495499D01*
X230800304Y-144480646D01*
X230913342Y-144423050D01*
X231003050Y-144333342D01*
X231020565Y-144298966D01*
X231069309Y-144247354D01*
X231138224Y-144230286D01*
X231205426Y-144253186D01*
X231249579Y-144308783D01*
X231253125Y-144318685D01*
X231274633Y-144387706D01*
X231363582Y-144534846D01*
X231485153Y-144656417D01*
X231632293Y-144745366D01*
X231796443Y-144796518D01*
X231864913Y-144802739D01*
X231870648Y-144802999D01*
X231870999Y-144802999D01*
X231871000Y-144802998D01*
X231871000Y-144074000D01*
X232379000Y-144074000D01*
X232379000Y-144802999D01*
X232379361Y-144802999D01*
X232385077Y-144802739D01*
X232453556Y-144796518D01*
X232617706Y-144745366D01*
X232764846Y-144656417D01*
X232886417Y-144534846D01*
X232975366Y-144387706D01*
X233026518Y-144223556D01*
X233032741Y-144155074D01*
X233033000Y-144149363D01*
X233033000Y-144074000D01*
X232379000Y-144074000D01*
X231871000Y-144074000D01*
X231871000Y-142837000D01*
X232379000Y-142837000D01*
X232379000Y-143566000D01*
X233032999Y-143566000D01*
X233032999Y-143490639D01*
X233032739Y-143484922D01*
X233026518Y-143416443D01*
X232975366Y-143252293D01*
X232886417Y-143105153D01*
X232764846Y-142983582D01*
X232617706Y-142894633D01*
X232453556Y-142843481D01*
X232385074Y-142837258D01*
X232379363Y-142837000D01*
X232379000Y-142837000D01*
X231871000Y-142837000D01*
X231870626Y-142837000D01*
X231864935Y-142837259D01*
X231796443Y-142843481D01*
X231632293Y-142894633D01*
X231485153Y-142983582D01*
X231363582Y-143105153D01*
X231274632Y-143252296D01*
X231253124Y-143321315D01*
X231213761Y-143380400D01*
X231148703Y-143408824D01*
X231078605Y-143397563D01*
X231025723Y-143350192D01*
X231020572Y-143341047D01*
X231003050Y-143306658D01*
X231003049Y-143306657D01*
X231003048Y-143306655D01*
X230913344Y-143216951D01*
X230800304Y-143159354D01*
X230800303Y-143159354D01*
X230706519Y-143144500D01*
X230706518Y-143144500D01*
X230692381Y-143144500D01*
X230647703Y-143136313D01*
X230643871Y-143134859D01*
X230521155Y-143119959D01*
X230521149Y-143119958D01*
X230517372Y-143119500D01*
X230513563Y-143119500D01*
X229662714Y-143119500D01*
X229594593Y-143099498D01*
X229559500Y-143065770D01*
X229500046Y-142980860D01*
X229432637Y-142913451D01*
X229339139Y-142819953D01*
X229200409Y-142722814D01*
X229152735Y-142689432D01*
X229098613Y-142664195D01*
X229045328Y-142617278D01*
X229025867Y-142549000D01*
X229046409Y-142481040D01*
X229098613Y-142435805D01*
X229121529Y-142425119D01*
X229152734Y-142410568D01*
X229339139Y-142280047D01*
X229500047Y-142119139D01*
X229559500Y-142034229D01*
X229614957Y-141989901D01*
X229662714Y-141980500D01*
X230513563Y-141980500D01*
X230517372Y-141980500D01*
X230643872Y-141965140D01*
X230647703Y-141963686D01*
X230692383Y-141955499D01*
X230706518Y-141955499D01*
X230800304Y-141940646D01*
X230913342Y-141883050D01*
X231003050Y-141793342D01*
X231060646Y-141680304D01*
X231060646Y-141680299D01*
X231064548Y-141672643D01*
X231072278Y-141649328D01*
X231105244Y-141586518D01*
X231524500Y-141586518D01*
X231536551Y-141662603D01*
X231539354Y-141680304D01*
X231562890Y-141726495D01*
X231596951Y-141793344D01*
X231686655Y-141883048D01*
X231686657Y-141883049D01*
X231686658Y-141883050D01*
X231799696Y-141940646D01*
X231893481Y-141955500D01*
X232356518Y-141955499D01*
X232450304Y-141940646D01*
X232563342Y-141883050D01*
X232653050Y-141793342D01*
X232710646Y-141680304D01*
X232725500Y-141586519D01*
X232725499Y-140973482D01*
X232710646Y-140879696D01*
X232653050Y-140766658D01*
X232653049Y-140766657D01*
X232653048Y-140766655D01*
X232563344Y-140676951D01*
X232450304Y-140619354D01*
X232356519Y-140604500D01*
X232356517Y-140604500D01*
X231893481Y-140604500D01*
X231799696Y-140619354D01*
X231686655Y-140676951D01*
X231596951Y-140766655D01*
X231539354Y-140879695D01*
X231524500Y-140973482D01*
X231524500Y-141586518D01*
X231105244Y-141586518D01*
X231134790Y-141530225D01*
X231175500Y-141365056D01*
X231175500Y-141194944D01*
X231134790Y-141029775D01*
X231072281Y-140910676D01*
X231064550Y-140887360D01*
X231060646Y-140879698D01*
X231060646Y-140879696D01*
X231003050Y-140766658D01*
X231003049Y-140766657D01*
X231003048Y-140766655D01*
X230913344Y-140676951D01*
X230800304Y-140619354D01*
X230800303Y-140619354D01*
X230706519Y-140604500D01*
X230706518Y-140604500D01*
X230692381Y-140604500D01*
X230647703Y-140596313D01*
X230643871Y-140594859D01*
X230521155Y-140579959D01*
X230521149Y-140579958D01*
X230517372Y-140579500D01*
X230513563Y-140579500D01*
X229662714Y-140579500D01*
X229594593Y-140559498D01*
X229559500Y-140525770D01*
X229500047Y-140440861D01*
X229339139Y-140279953D01*
X229236980Y-140208421D01*
X229152735Y-140149432D01*
X229098613Y-140124195D01*
X229045328Y-140077278D01*
X229025867Y-140009000D01*
X229046409Y-139941040D01*
X229098613Y-139895805D01*
X229152734Y-139870568D01*
X229339139Y-139740047D01*
X229500047Y-139579139D01*
X229630568Y-139392734D01*
X229726739Y-139186496D01*
X229785635Y-138966692D01*
X229805468Y-138740000D01*
X229785635Y-138513308D01*
X229726739Y-138293504D01*
X229630568Y-138087266D01*
X229500047Y-137900861D01*
X229339139Y-137739953D01*
X229226179Y-137660858D01*
X229152735Y-137609432D01*
X229098613Y-137584195D01*
X229045328Y-137537278D01*
X229025867Y-137469000D01*
X229046409Y-137401040D01*
X229098613Y-137355805D01*
X229152734Y-137330568D01*
X229339139Y-137200047D01*
X229500047Y-137039139D01*
X229630568Y-136852734D01*
X229726739Y-136646496D01*
X229785635Y-136426692D01*
X229805468Y-136200000D01*
X229785635Y-135973308D01*
X229726739Y-135753504D01*
X229630568Y-135547266D01*
X229500047Y-135360861D01*
X229339139Y-135199953D01*
X229152734Y-135069432D01*
X229072288Y-135031919D01*
X228946495Y-134973260D01*
X228726692Y-134914365D01*
X228558990Y-134899693D01*
X228500000Y-134894532D01*
X228499999Y-134894532D01*
X228273307Y-134914365D01*
X228053504Y-134973260D01*
X227847265Y-135069432D01*
X227660858Y-135199955D01*
X227499955Y-135360858D01*
X227369432Y-135547265D01*
X227273260Y-135753504D01*
X227214365Y-135973307D01*
X227194532Y-136200000D01*
X227214365Y-136426692D01*
X227273260Y-136646495D01*
X227332145Y-136772773D01*
X227369432Y-136852734D01*
X227499953Y-137039139D01*
X227660861Y-137200047D01*
X227785035Y-137286994D01*
X227847267Y-137330569D01*
X227901387Y-137355806D01*
X227954672Y-137402723D01*
X227974132Y-137471000D01*
X227953590Y-137538960D01*
X227901387Y-137584194D01*
X227847267Y-137609430D01*
X227660858Y-137739955D01*
X227499955Y-137900858D01*
X227369432Y-138087265D01*
X227273260Y-138293504D01*
X227214365Y-138513307D01*
X227194532Y-138740000D01*
X227214365Y-138966692D01*
X227273260Y-139186495D01*
X227344440Y-139339139D01*
X227369432Y-139392734D01*
X227499953Y-139579139D01*
X227660861Y-139740047D01*
X227782362Y-139825122D01*
X227847267Y-139870569D01*
X227901387Y-139895806D01*
X227954672Y-139942723D01*
X227974132Y-140011000D01*
X227953590Y-140078960D01*
X227901387Y-140124194D01*
X227847267Y-140149430D01*
X227660858Y-140279955D01*
X227499955Y-140440858D01*
X227369432Y-140627265D01*
X227273260Y-140833504D01*
X227214365Y-141053307D01*
X227195118Y-141273307D01*
X227194532Y-141280000D01*
X227200083Y-141343444D01*
X227214365Y-141506692D01*
X227273260Y-141726495D01*
X227354401Y-141900500D01*
X227369432Y-141932734D01*
X227499953Y-142119139D01*
X227660861Y-142280047D01*
X227745254Y-142339139D01*
X227847267Y-142410569D01*
X227901387Y-142435806D01*
X227954672Y-142482723D01*
X227974132Y-142551000D01*
X227953590Y-142618960D01*
X227901387Y-142664194D01*
X227847267Y-142689430D01*
X227660858Y-142819955D01*
X227499955Y-142980858D01*
X227369432Y-143167265D01*
X227273260Y-143373504D01*
X227214365Y-143593307D01*
X227194532Y-143819999D01*
X227214365Y-144046692D01*
X227273260Y-144266495D01*
X227359563Y-144451570D01*
X227370224Y-144521761D01*
X227341244Y-144586574D01*
X227281825Y-144625431D01*
X227210830Y-144625994D01*
X227156273Y-144593915D01*
X226887405Y-144325047D01*
X226853379Y-144262735D01*
X226850500Y-144235952D01*
X226850500Y-141519571D01*
X226853255Y-141502681D01*
X226852772Y-141492236D01*
X226852773Y-141492235D01*
X226850634Y-141445963D01*
X226850500Y-141440146D01*
X226850500Y-141421095D01*
X226848811Y-141406554D01*
X226847585Y-141380008D01*
X226844877Y-141373877D01*
X226836289Y-141346138D01*
X226835061Y-141339567D01*
X226821077Y-141316981D01*
X226812942Y-141301548D01*
X226802207Y-141277237D01*
X226802206Y-141277236D01*
X226802206Y-141277235D01*
X226797473Y-141272502D01*
X226779445Y-141249742D01*
X226775919Y-141244048D01*
X226754713Y-141228034D01*
X226741550Y-141216579D01*
X225412405Y-139887434D01*
X225378379Y-139825122D01*
X225375500Y-139798339D01*
X225375500Y-139576417D01*
X225375500Y-139250492D01*
X225395501Y-139182375D01*
X225444293Y-139138232D01*
X225513342Y-139103050D01*
X225603050Y-139013342D01*
X225660646Y-138900304D01*
X225675500Y-138806519D01*
X225675499Y-138193482D01*
X225660646Y-138099696D01*
X225603050Y-137986658D01*
X225603049Y-137986657D01*
X225603048Y-137986655D01*
X225513344Y-137896951D01*
X225400304Y-137839354D01*
X225400303Y-137839353D01*
X225306519Y-137824500D01*
X225306517Y-137824500D01*
X224843481Y-137824500D01*
X224749696Y-137839354D01*
X224636655Y-137896951D01*
X224546951Y-137986655D01*
X224489354Y-138099695D01*
X224474500Y-138193482D01*
X224474500Y-138806518D01*
X224481466Y-138850500D01*
X224489354Y-138900304D01*
X224534989Y-138989868D01*
X224546951Y-139013344D01*
X224636656Y-139103049D01*
X224636658Y-139103050D01*
X224705703Y-139138230D01*
X224757317Y-139186976D01*
X224774500Y-139250496D01*
X224774500Y-139905430D01*
X224771744Y-139922321D01*
X224774366Y-139979036D01*
X224774500Y-139984853D01*
X224774500Y-140003903D01*
X224776186Y-140018444D01*
X224777413Y-140044991D01*
X224780120Y-140051121D01*
X224788707Y-140078850D01*
X224789937Y-140085432D01*
X224803925Y-140108024D01*
X224812059Y-140123454D01*
X224822794Y-140147765D01*
X224827525Y-140152496D01*
X224845555Y-140175258D01*
X224849080Y-140180951D01*
X224870286Y-140196965D01*
X224883450Y-140208421D01*
X225284434Y-140609405D01*
X225318460Y-140671717D01*
X225313395Y-140742532D01*
X225270848Y-140799368D01*
X225204328Y-140824179D01*
X225195339Y-140824500D01*
X224843481Y-140824500D01*
X224749696Y-140839354D01*
X224636655Y-140896951D01*
X224546951Y-140986655D01*
X224489354Y-141099695D01*
X224474500Y-141193482D01*
X224474500Y-141806518D01*
X224480862Y-141846685D01*
X224489354Y-141900304D01*
X224534989Y-141989868D01*
X224546951Y-142013344D01*
X224636655Y-142103048D01*
X224636657Y-142103049D01*
X224636658Y-142103050D01*
X224749696Y-142160646D01*
X224843481Y-142175500D01*
X225306518Y-142175499D01*
X225400304Y-142160646D01*
X225513342Y-142103050D01*
X225603050Y-142013342D01*
X225611233Y-141997281D01*
X225659980Y-141945666D01*
X225728895Y-141928600D01*
X225796097Y-141951500D01*
X225840250Y-142007097D01*
X225849500Y-142054484D01*
X225849500Y-144114321D01*
X225829498Y-144182442D01*
X225775842Y-144228935D01*
X225705568Y-144239039D01*
X225640988Y-144209545D01*
X225634405Y-144203416D01*
X224167699Y-142736711D01*
X224157701Y-142722814D01*
X224115733Y-142684555D01*
X224111543Y-142680555D01*
X224098814Y-142667826D01*
X224098813Y-142667825D01*
X224098065Y-142667077D01*
X224086592Y-142657989D01*
X224066950Y-142640083D01*
X224060702Y-142637663D01*
X224035016Y-142624124D01*
X224029498Y-142620344D01*
X224029497Y-142620343D01*
X224029496Y-142620343D01*
X224003635Y-142614260D01*
X223986972Y-142609100D01*
X223962191Y-142599500D01*
X223962190Y-142599500D01*
X223955498Y-142599500D01*
X223926649Y-142596153D01*
X223920136Y-142594621D01*
X223893821Y-142598292D01*
X223876413Y-142599500D01*
X222543876Y-142599500D01*
X222475755Y-142579498D01*
X222429262Y-142525842D01*
X222419158Y-142455568D01*
X222448652Y-142390988D01*
X222454781Y-142384405D01*
X222454780Y-142384405D01*
X222500047Y-142339139D01*
X222630568Y-142152734D01*
X222683562Y-142039086D01*
X222730478Y-141985804D01*
X222798755Y-141966343D01*
X222866715Y-141986885D01*
X222886851Y-142003244D01*
X222986655Y-142103048D01*
X222986657Y-142103049D01*
X222986658Y-142103050D01*
X223099696Y-142160646D01*
X223193481Y-142175500D01*
X223656518Y-142175499D01*
X223750304Y-142160646D01*
X223863342Y-142103050D01*
X223953050Y-142013342D01*
X224010646Y-141900304D01*
X224025500Y-141806519D01*
X224025499Y-141193482D01*
X224010646Y-141099696D01*
X223953050Y-140986658D01*
X223953049Y-140986657D01*
X223953048Y-140986655D01*
X223863344Y-140896951D01*
X223750304Y-140839354D01*
X223713368Y-140833504D01*
X223656519Y-140824500D01*
X223656517Y-140824500D01*
X223193481Y-140824500D01*
X223099696Y-140839354D01*
X222986657Y-140896950D01*
X222886851Y-140996756D01*
X222824539Y-141030781D01*
X222753723Y-141025715D01*
X222696887Y-140983169D01*
X222683561Y-140960910D01*
X222667751Y-140927006D01*
X222630568Y-140847266D01*
X222614402Y-140824179D01*
X222557233Y-140742532D01*
X222500047Y-140660861D01*
X222339139Y-140499953D01*
X222152734Y-140369432D01*
X221946495Y-140273260D01*
X221726692Y-140214365D01*
X221500000Y-140194532D01*
X221273307Y-140214365D01*
X221053504Y-140273260D01*
X220847265Y-140369432D01*
X220660858Y-140499955D01*
X220499955Y-140660858D01*
X220369432Y-140847265D01*
X220273260Y-141053504D01*
X220214365Y-141273307D01*
X220199769Y-141440146D01*
X220194532Y-141500000D01*
X220210307Y-141680304D01*
X220214365Y-141726692D01*
X220273260Y-141946495D01*
X220293501Y-141989901D01*
X220369432Y-142152734D01*
X220499953Y-142339139D01*
X220499954Y-142339140D01*
X220499955Y-142339141D01*
X220545219Y-142384405D01*
X220579245Y-142446717D01*
X220574180Y-142517532D01*
X220531633Y-142574368D01*
X220465113Y-142599179D01*
X220456124Y-142599500D01*
X219543876Y-142599500D01*
X219475755Y-142579498D01*
X219429262Y-142525842D01*
X219419158Y-142455568D01*
X219448652Y-142390988D01*
X219454781Y-142384405D01*
X219500047Y-142339139D01*
X219630568Y-142152734D01*
X219726739Y-141946496D01*
X219785635Y-141726692D01*
X219805468Y-141500000D01*
X219785635Y-141273308D01*
X219726739Y-141053504D01*
X219630568Y-140847266D01*
X219500047Y-140660861D01*
X219339139Y-140499953D01*
X219152734Y-140369432D01*
X218946495Y-140273260D01*
X218726692Y-140214365D01*
X218500000Y-140194532D01*
X218273307Y-140214365D01*
X218053504Y-140273260D01*
X217847265Y-140369432D01*
X217660858Y-140499955D01*
X217499955Y-140660858D01*
X217369432Y-140847265D01*
X217293486Y-141010131D01*
X217246568Y-141063416D01*
X217178291Y-141082877D01*
X217110331Y-141062335D01*
X217067024Y-141014084D01*
X217053048Y-140986655D01*
X216963344Y-140896951D01*
X216850304Y-140839354D01*
X216813368Y-140833504D01*
X216756519Y-140824500D01*
X216756517Y-140824500D01*
X216293481Y-140824500D01*
X216199696Y-140839354D01*
X216086655Y-140896951D01*
X215996951Y-140986655D01*
X215939354Y-141099695D01*
X215924500Y-141193482D01*
X215924500Y-141806518D01*
X215930862Y-141846685D01*
X215939354Y-141900304D01*
X215984989Y-141989868D01*
X215996951Y-142013344D01*
X216086655Y-142103048D01*
X216086657Y-142103049D01*
X216086658Y-142103050D01*
X216199696Y-142160646D01*
X216293481Y-142175500D01*
X216756518Y-142175499D01*
X216850304Y-142160646D01*
X216963342Y-142103050D01*
X217053050Y-142013342D01*
X217067024Y-141985915D01*
X217115771Y-141934301D01*
X217184686Y-141917234D01*
X217251888Y-141940134D01*
X217293485Y-141989867D01*
X217369432Y-142152734D01*
X217499953Y-142339139D01*
X217499955Y-142339141D01*
X217545219Y-142384405D01*
X217579245Y-142446717D01*
X217574180Y-142517532D01*
X217531633Y-142574368D01*
X217465113Y-142599179D01*
X217456124Y-142599500D01*
X214201662Y-142599500D01*
X214133541Y-142579498D01*
X214112571Y-142562599D01*
X214037404Y-142487432D01*
X214003379Y-142425119D01*
X214000500Y-142398337D01*
X214000500Y-142026660D01*
X214020502Y-141958539D01*
X214037400Y-141937570D01*
X214094261Y-141880709D01*
X214156571Y-141846685D01*
X214227386Y-141851750D01*
X214284222Y-141894297D01*
X214295619Y-141912600D01*
X214322390Y-141965140D01*
X214346951Y-142013344D01*
X214436655Y-142103048D01*
X214436657Y-142103049D01*
X214436658Y-142103050D01*
X214549696Y-142160646D01*
X214643481Y-142175500D01*
X215106518Y-142175499D01*
X215200304Y-142160646D01*
X215313342Y-142103050D01*
X215403050Y-142013342D01*
X215460646Y-141900304D01*
X215475500Y-141806519D01*
X215475499Y-141193482D01*
X215460646Y-141099696D01*
X215403050Y-140986658D01*
X215403049Y-140986657D01*
X215403048Y-140986655D01*
X215313344Y-140896951D01*
X215200304Y-140839354D01*
X215163368Y-140833504D01*
X215106519Y-140824500D01*
X215106517Y-140824500D01*
X214643481Y-140824500D01*
X214549696Y-140839354D01*
X214436655Y-140896951D01*
X214346951Y-140986655D01*
X214280294Y-141117477D01*
X214279152Y-141116895D01*
X214259967Y-141157365D01*
X214199698Y-141194891D01*
X214165932Y-141199500D01*
X214119571Y-141199500D01*
X214102679Y-141196744D01*
X214045964Y-141199366D01*
X214040147Y-141199500D01*
X214021098Y-141199500D01*
X214006557Y-141201186D01*
X213980010Y-141202413D01*
X213973876Y-141205122D01*
X213946150Y-141213707D01*
X213939569Y-141214937D01*
X213916974Y-141228927D01*
X213901545Y-141237059D01*
X213877236Y-141247793D01*
X213872500Y-141252529D01*
X213849745Y-141270553D01*
X213844047Y-141274081D01*
X213828033Y-141295286D01*
X213816627Y-141308400D01*
X213815641Y-141309387D01*
X213753346Y-141343444D01*
X213682527Y-141338415D01*
X213625670Y-141295897D01*
X213600826Y-141229389D01*
X213600500Y-141220337D01*
X213600500Y-139251661D01*
X213620502Y-139183540D01*
X213637405Y-139162566D01*
X213912566Y-138887405D01*
X213974878Y-138853379D01*
X214001661Y-138850500D01*
X214186765Y-138850500D01*
X214254886Y-138870502D01*
X214299030Y-138919295D01*
X214334989Y-138989868D01*
X214346951Y-139013344D01*
X214436655Y-139103048D01*
X214436657Y-139103049D01*
X214436658Y-139103050D01*
X214549696Y-139160646D01*
X214643481Y-139175500D01*
X215106518Y-139175499D01*
X215200304Y-139160646D01*
X215313342Y-139103050D01*
X215403050Y-139013342D01*
X215460646Y-138900304D01*
X215475500Y-138806519D01*
X215475499Y-138193482D01*
X215460646Y-138099696D01*
X215403050Y-137986658D01*
X215403049Y-137986657D01*
X215403048Y-137986655D01*
X215313344Y-137896951D01*
X215200304Y-137839354D01*
X215200303Y-137839354D01*
X215106519Y-137824500D01*
X215106517Y-137824500D01*
X214643481Y-137824500D01*
X214549696Y-137839354D01*
X214436655Y-137896951D01*
X214346951Y-137986655D01*
X214289354Y-138099695D01*
X214282462Y-138143211D01*
X214252050Y-138207364D01*
X214191781Y-138244891D01*
X214158013Y-138249500D01*
X213894570Y-138249500D01*
X213877678Y-138246744D01*
X213820963Y-138249366D01*
X213815146Y-138249500D01*
X213796098Y-138249500D01*
X213781557Y-138251186D01*
X213755009Y-138252413D01*
X213748878Y-138255121D01*
X213721150Y-138263707D01*
X213714566Y-138264938D01*
X213691969Y-138278928D01*
X213676544Y-138287059D01*
X213652234Y-138297793D01*
X213647499Y-138302529D01*
X213624745Y-138320552D01*
X213619048Y-138324079D01*
X213603030Y-138345290D01*
X213591578Y-138358449D01*
X213136705Y-138813322D01*
X213122811Y-138823320D01*
X213084553Y-138865285D01*
X213080541Y-138869487D01*
X213067079Y-138882949D01*
X213057991Y-138894422D01*
X213040083Y-138914066D01*
X213037662Y-138920316D01*
X213023898Y-138946328D01*
X213023878Y-138946357D01*
X212968737Y-138991079D01*
X212898172Y-138998891D01*
X212834585Y-138967312D01*
X212798166Y-138906368D01*
X212794633Y-138863841D01*
X212805468Y-138740000D01*
X212785635Y-138513308D01*
X212726739Y-138293504D01*
X212630568Y-138087266D01*
X212500047Y-137900861D01*
X212339139Y-137739953D01*
X212226179Y-137660858D01*
X212152735Y-137609432D01*
X212098613Y-137584195D01*
X212045328Y-137537278D01*
X212025867Y-137469000D01*
X212046409Y-137401040D01*
X212098613Y-137355805D01*
X212152734Y-137330568D01*
X212339139Y-137200047D01*
X212500047Y-137039139D01*
X212630568Y-136852734D01*
X212726739Y-136646496D01*
X212785635Y-136426692D01*
X212805468Y-136200000D01*
X212785635Y-135973308D01*
X212726739Y-135753504D01*
X212630568Y-135547266D01*
X212500047Y-135360861D01*
X212339139Y-135199953D01*
X212152734Y-135069432D01*
X212072288Y-135031919D01*
X211946495Y-134973260D01*
X211726692Y-134914365D01*
X211500000Y-134894532D01*
X211273307Y-134914365D01*
X211053504Y-134973260D01*
X210847265Y-135069432D01*
X210660861Y-135199953D01*
X210499953Y-135360860D01*
X210440500Y-135445770D01*
X210385043Y-135490099D01*
X210337286Y-135499500D01*
X209482628Y-135499500D01*
X209478853Y-135499958D01*
X209478842Y-135499959D01*
X209356125Y-135514859D01*
X209352287Y-135516315D01*
X209307621Y-135524500D01*
X209293484Y-135524500D01*
X209199696Y-135539354D01*
X209086655Y-135596951D01*
X208996949Y-135686657D01*
X208979435Y-135721031D01*
X208930686Y-135772646D01*
X208861771Y-135789711D01*
X208794570Y-135766810D01*
X208750418Y-135711211D01*
X208746874Y-135701313D01*
X208725366Y-135632293D01*
X208636417Y-135485153D01*
X208514846Y-135363582D01*
X208367706Y-135274633D01*
X208203556Y-135223481D01*
X208135074Y-135217258D01*
X208129363Y-135217000D01*
X208129000Y-135217000D01*
X208129000Y-137182999D01*
X208129361Y-137182999D01*
X208135077Y-137182739D01*
X208203556Y-137176518D01*
X208367706Y-137125366D01*
X208514846Y-137036417D01*
X208636417Y-136914846D01*
X208725366Y-136767705D01*
X208746874Y-136698686D01*
X208786236Y-136639600D01*
X208851294Y-136611175D01*
X208921392Y-136622435D01*
X208974275Y-136669806D01*
X208979436Y-136678969D01*
X208996950Y-136713343D01*
X209086655Y-136803048D01*
X209086657Y-136803049D01*
X209086658Y-136803050D01*
X209199696Y-136860646D01*
X209293481Y-136875500D01*
X209307616Y-136875499D01*
X209352297Y-136883687D01*
X209356128Y-136885140D01*
X209482628Y-136900500D01*
X210337286Y-136900500D01*
X210405407Y-136920502D01*
X210440499Y-136954229D01*
X210499953Y-137039139D01*
X210660861Y-137200047D01*
X210787772Y-137288910D01*
X210847267Y-137330569D01*
X210901387Y-137355806D01*
X210954672Y-137402723D01*
X210974132Y-137471000D01*
X210953590Y-137538960D01*
X210901387Y-137584194D01*
X210847267Y-137609430D01*
X210660861Y-137739953D01*
X210499953Y-137900860D01*
X210440500Y-137985770D01*
X210385043Y-138030099D01*
X210337286Y-138039500D01*
X209482628Y-138039500D01*
X209478853Y-138039958D01*
X209478842Y-138039959D01*
X209356125Y-138054859D01*
X209352287Y-138056315D01*
X209307621Y-138064500D01*
X209293484Y-138064500D01*
X209199696Y-138079354D01*
X209086655Y-138136951D01*
X208996949Y-138226657D01*
X208979435Y-138261031D01*
X208930686Y-138312646D01*
X208861771Y-138329711D01*
X208794570Y-138306810D01*
X208750418Y-138251211D01*
X208746874Y-138241313D01*
X208725366Y-138172293D01*
X208636417Y-138025153D01*
X208514846Y-137903582D01*
X208367706Y-137814633D01*
X208203556Y-137763481D01*
X208135074Y-137757258D01*
X208129363Y-137757000D01*
X208129000Y-137757000D01*
X208129000Y-139722999D01*
X207620999Y-139722999D01*
X207621000Y-139722998D01*
X207621000Y-138994000D01*
X206967001Y-138994000D01*
X178249377Y-138994000D01*
X178163625Y-138739497D01*
X178046345Y-138486000D01*
X206967000Y-138486000D01*
X207621000Y-138486000D01*
X207621000Y-137757000D01*
X207620626Y-137757000D01*
X207614935Y-137757259D01*
X207546443Y-137763481D01*
X207382293Y-137814633D01*
X207235153Y-137903582D01*
X207113582Y-138025153D01*
X207024633Y-138172293D01*
X206973481Y-138336443D01*
X206967258Y-138404925D01*
X206967000Y-138410636D01*
X206967000Y-138486000D01*
X178046345Y-138486000D01*
X178008795Y-138404838D01*
X177818690Y-138088881D01*
X177595538Y-137795330D01*
X177419444Y-137609430D01*
X177344301Y-137530102D01*
X177344295Y-137530096D01*
X177341956Y-137527627D01*
X177060917Y-137288910D01*
X176921720Y-137194532D01*
X176758538Y-137083891D01*
X176758533Y-137083888D01*
X176755716Y-137081978D01*
X176514758Y-136954230D01*
X176432941Y-136910853D01*
X176432936Y-136910850D01*
X176429930Y-136909257D01*
X176426763Y-136907995D01*
X176090548Y-136774035D01*
X176090537Y-136774031D01*
X176087379Y-136772773D01*
X176084098Y-136771862D01*
X176084092Y-136771860D01*
X175735375Y-136675039D01*
X175735365Y-136675036D01*
X175732081Y-136674125D01*
X175728722Y-136673574D01*
X175728707Y-136673571D01*
X175371576Y-136615022D01*
X175371564Y-136615020D01*
X175368199Y-136614469D01*
X175364789Y-136614284D01*
X175364779Y-136614283D01*
X175093831Y-136599593D01*
X175093819Y-136599592D01*
X175092110Y-136599500D01*
X174907890Y-136599500D01*
X174906181Y-136599592D01*
X174906168Y-136599593D01*
X174635220Y-136614283D01*
X174635208Y-136614284D01*
X174631801Y-136614469D01*
X174628437Y-136615020D01*
X174628423Y-136615022D01*
X174271292Y-136673571D01*
X174271273Y-136673574D01*
X174267919Y-136674125D01*
X174264638Y-136675035D01*
X174264624Y-136675039D01*
X173915907Y-136771860D01*
X173915896Y-136771863D01*
X173912621Y-136772773D01*
X173909467Y-136774029D01*
X173909451Y-136774035D01*
X173573236Y-136907995D01*
X173573227Y-136907999D01*
X173570070Y-136909257D01*
X173567070Y-136910847D01*
X173567058Y-136910853D01*
X173247301Y-137080378D01*
X173247294Y-137080382D01*
X173244284Y-137081978D01*
X173241474Y-137083882D01*
X173241461Y-137083891D01*
X172941908Y-137286994D01*
X172941900Y-137286999D01*
X172939083Y-137288910D01*
X172936483Y-137291118D01*
X172936477Y-137291123D01*
X172660640Y-137525421D01*
X172660630Y-137525430D01*
X172658044Y-137527627D01*
X172655713Y-137530087D01*
X172655698Y-137530102D01*
X172406814Y-137792846D01*
X172406805Y-137792855D01*
X172404462Y-137795330D01*
X172402395Y-137798048D01*
X172402395Y-137798049D01*
X172183380Y-138086157D01*
X172183373Y-138086165D01*
X172181310Y-138088881D01*
X172179552Y-138091801D01*
X172179545Y-138091813D01*
X172019116Y-138358449D01*
X171991205Y-138404838D01*
X171989775Y-138407928D01*
X171989768Y-138407942D01*
X171837808Y-138736398D01*
X171837803Y-138736409D01*
X171836375Y-138739497D01*
X171835289Y-138742719D01*
X171835285Y-138742730D01*
X171719726Y-139085697D01*
X171719722Y-139085708D01*
X171718636Y-139088934D01*
X171717905Y-139092253D01*
X171717901Y-139092269D01*
X171641250Y-139440500D01*
X171639368Y-139449052D01*
X171638999Y-139452442D01*
X171638999Y-139452444D01*
X171599869Y-139812231D01*
X171599868Y-139812243D01*
X171599500Y-139815630D01*
X171599500Y-140184370D01*
X170100500Y-140184370D01*
X170100500Y-136454000D01*
X206967001Y-136454000D01*
X206967001Y-136529360D01*
X206967260Y-136535077D01*
X206973481Y-136603556D01*
X207024633Y-136767706D01*
X207113582Y-136914846D01*
X207235153Y-137036417D01*
X207382293Y-137125366D01*
X207546443Y-137176518D01*
X207614913Y-137182739D01*
X207620648Y-137182999D01*
X207620999Y-137182999D01*
X207621000Y-137182998D01*
X207621000Y-136454000D01*
X206967001Y-136454000D01*
X170100500Y-136454000D01*
X170100500Y-135946000D01*
X206967000Y-135946000D01*
X207621000Y-135946000D01*
X207621000Y-135217000D01*
X207620626Y-135217000D01*
X207614935Y-135217259D01*
X207546443Y-135223481D01*
X207382293Y-135274633D01*
X207235153Y-135363582D01*
X207113582Y-135485153D01*
X207024633Y-135632293D01*
X206973481Y-135796443D01*
X206967258Y-135864925D01*
X206967000Y-135870636D01*
X206967000Y-135946000D01*
X170100500Y-135946000D01*
X170100500Y-106625694D01*
X181589500Y-106625694D01*
X181592402Y-106662569D01*
X181638256Y-106820398D01*
X181721919Y-106961865D01*
X181721921Y-106961868D01*
X181838131Y-107078078D01*
X181838133Y-107078079D01*
X181838135Y-107078081D01*
X181979602Y-107161744D01*
X182137431Y-107207598D01*
X182174306Y-107210500D01*
X182176777Y-107210500D01*
X183203223Y-107210500D01*
X183205694Y-107210500D01*
X183242569Y-107207598D01*
X183400398Y-107161744D01*
X183541865Y-107078081D01*
X183658081Y-106961865D01*
X183676084Y-106931422D01*
X183727976Y-106882970D01*
X183797826Y-106870264D01*
X183863458Y-106897338D01*
X183896219Y-106937223D01*
X183975970Y-107089897D01*
X184099098Y-107240901D01*
X184250102Y-107364029D01*
X184422794Y-107454237D01*
X184610120Y-107507837D01*
X184721647Y-107517753D01*
X184727215Y-107518000D01*
X184976000Y-107518000D01*
X184976000Y-106543674D01*
X185087685Y-106594680D01*
X185194237Y-106610000D01*
X185265763Y-106610000D01*
X185372315Y-106594680D01*
X185484000Y-106543674D01*
X185484000Y-107518000D01*
X185732785Y-107518000D01*
X185738352Y-107517753D01*
X185849879Y-107507837D01*
X186037205Y-107454237D01*
X186209897Y-107364029D01*
X186360904Y-107240900D01*
X186402348Y-107190073D01*
X186460898Y-107149918D01*
X186531863Y-107147792D01*
X186592711Y-107184371D01*
X186597652Y-107190073D01*
X186639095Y-107240900D01*
X186790102Y-107364029D01*
X186962794Y-107454237D01*
X187150120Y-107507837D01*
X187261647Y-107517753D01*
X187267215Y-107518000D01*
X187516000Y-107518000D01*
X187516000Y-106543674D01*
X187627685Y-106594680D01*
X187734237Y-106610000D01*
X187805763Y-106610000D01*
X187912315Y-106594680D01*
X188024000Y-106543674D01*
X188024000Y-107518000D01*
X188272785Y-107518000D01*
X188278352Y-107517753D01*
X188389879Y-107507837D01*
X188577205Y-107454237D01*
X188749897Y-107364029D01*
X188900901Y-107240901D01*
X189024028Y-107089899D01*
X189103779Y-106937224D01*
X189153048Y-106886105D01*
X189222132Y-106869738D01*
X189289098Y-106893318D01*
X189323914Y-106931421D01*
X189341919Y-106961866D01*
X189458132Y-107078079D01*
X189458134Y-107078080D01*
X189458135Y-107078081D01*
X189547639Y-107131013D01*
X189596091Y-107182904D01*
X189609500Y-107239466D01*
X189609500Y-113672130D01*
X189589498Y-113740251D01*
X189572595Y-113761225D01*
X181822334Y-121511485D01*
X181816794Y-121516701D01*
X181771816Y-121556549D01*
X181737679Y-121606003D01*
X181733171Y-121612129D01*
X181696122Y-121659419D01*
X181692038Y-121668494D01*
X181680839Y-121688351D01*
X181675181Y-121696548D01*
X181653875Y-121752725D01*
X181650964Y-121759753D01*
X181626304Y-121814546D01*
X181624508Y-121824347D01*
X181618389Y-121846299D01*
X181614860Y-121855605D01*
X181607618Y-121915243D01*
X181606473Y-121922764D01*
X181595641Y-121981871D01*
X181599270Y-122041843D01*
X181599500Y-122049452D01*
X181599500Y-125125024D01*
X181599270Y-125132633D01*
X181595641Y-125192606D01*
X181606473Y-125251715D01*
X181607618Y-125259236D01*
X181614860Y-125318874D01*
X181618387Y-125328175D01*
X181624508Y-125350131D01*
X181626304Y-125359931D01*
X181650968Y-125414735D01*
X181653879Y-125421762D01*
X181675182Y-125477930D01*
X181680834Y-125486118D01*
X181692036Y-125505979D01*
X181696122Y-125515057D01*
X181733182Y-125562361D01*
X181737684Y-125568480D01*
X181771816Y-125617928D01*
X181816794Y-125657775D01*
X181822336Y-125662993D01*
X184937014Y-128777671D01*
X184942216Y-128783196D01*
X184982071Y-128828183D01*
X185031532Y-128862324D01*
X185037641Y-128866820D01*
X185084944Y-128903878D01*
X185094015Y-128907961D01*
X185113880Y-128919165D01*
X185116313Y-128920844D01*
X185122070Y-128924818D01*
X185178266Y-128946130D01*
X185185244Y-128949020D01*
X185240069Y-128973695D01*
X185249866Y-128975490D01*
X185271825Y-128981612D01*
X185281128Y-128985140D01*
X185340752Y-128992379D01*
X185348275Y-128993524D01*
X185407393Y-129004358D01*
X185407393Y-129004357D01*
X185407394Y-129004358D01*
X185467367Y-129000729D01*
X185474975Y-129000500D01*
X193672081Y-129000500D01*
X193679688Y-129000729D01*
X193709145Y-129002511D01*
X193739661Y-129004358D01*
X193739661Y-129004357D01*
X193739662Y-129004358D01*
X193798785Y-128993522D01*
X193806303Y-128992379D01*
X193865928Y-128985140D01*
X193875230Y-128981611D01*
X193897188Y-128975490D01*
X193906988Y-128973695D01*
X193961812Y-128949020D01*
X193968794Y-128946128D01*
X194024986Y-128924818D01*
X194033175Y-128919165D01*
X194053043Y-128907960D01*
X194057217Y-128906081D01*
X194062113Y-128903878D01*
X194109416Y-128866817D01*
X194115518Y-128862326D01*
X194164985Y-128828183D01*
X194204840Y-128783194D01*
X194210025Y-128777686D01*
X198900307Y-124087405D01*
X198962620Y-124053379D01*
X198989403Y-124050500D01*
X221957628Y-124050500D01*
X222173500Y-124050500D01*
X222241621Y-124070502D01*
X222288114Y-124124158D01*
X222299500Y-124176500D01*
X222299500Y-126952535D01*
X222279498Y-127020656D01*
X222225842Y-127067149D01*
X222155568Y-127077253D01*
X222090988Y-127047759D01*
X222057091Y-127000753D01*
X222024535Y-126922157D01*
X221928282Y-126796717D01*
X221802842Y-126700464D01*
X221656761Y-126639955D01*
X221500000Y-126619318D01*
X221343238Y-126639955D01*
X221197157Y-126700464D01*
X221071717Y-126796717D01*
X220975464Y-126922157D01*
X220914955Y-127068238D01*
X220907638Y-127123822D01*
X220878916Y-127188749D01*
X220819651Y-127227841D01*
X220748659Y-127228686D01*
X220717532Y-127215205D01*
X220567706Y-127124633D01*
X220403556Y-127073481D01*
X220335074Y-127067258D01*
X220329363Y-127067000D01*
X220254000Y-127067000D01*
X220254000Y-128103000D01*
X220233998Y-128171121D01*
X220180342Y-128217614D01*
X220128000Y-128229000D01*
X219872000Y-128229000D01*
X219803879Y-128208998D01*
X219757386Y-128155342D01*
X219746000Y-128103000D01*
X219746000Y-127066999D01*
X219670639Y-127067000D01*
X219664922Y-127067260D01*
X219596443Y-127073481D01*
X219432292Y-127124633D01*
X219282467Y-127215205D01*
X219213822Y-127233328D01*
X219146277Y-127211463D01*
X219101275Y-127156550D01*
X219092361Y-127123820D01*
X219085044Y-127068238D01*
X219024535Y-126922157D01*
X218928282Y-126796717D01*
X218802842Y-126700464D01*
X218656761Y-126639955D01*
X218520636Y-126622034D01*
X218500000Y-126619318D01*
X218499999Y-126619318D01*
X218343238Y-126639955D01*
X218197157Y-126700464D01*
X218071717Y-126796717D01*
X217975464Y-126922157D01*
X217914955Y-127068238D01*
X217894318Y-127224999D01*
X217914955Y-127381762D01*
X217922832Y-127400778D01*
X217930420Y-127471368D01*
X217898639Y-127534854D01*
X217897006Y-127536546D01*
X217862265Y-127604728D01*
X217813516Y-127656343D01*
X217744601Y-127673408D01*
X217677400Y-127650506D01*
X217637733Y-127604727D01*
X217603050Y-127536658D01*
X217603049Y-127536656D01*
X217513344Y-127446951D01*
X217400304Y-127389354D01*
X217400303Y-127389353D01*
X217306519Y-127374500D01*
X217306517Y-127374500D01*
X216693481Y-127374500D01*
X216599696Y-127389354D01*
X216486655Y-127446951D01*
X216396951Y-127536655D01*
X216339354Y-127649695D01*
X216324500Y-127743482D01*
X216324500Y-128031916D01*
X216304498Y-128100037D01*
X216287595Y-128121011D01*
X215589094Y-128819512D01*
X215526782Y-128853538D01*
X215455967Y-128848473D01*
X215410904Y-128819512D01*
X214712404Y-128121012D01*
X214678378Y-128058700D01*
X214675499Y-128031917D01*
X214675499Y-127743481D01*
X214664401Y-127673408D01*
X214660646Y-127649696D01*
X214603050Y-127536658D01*
X214603049Y-127536657D01*
X214603048Y-127536655D01*
X214582515Y-127516122D01*
X214548489Y-127453810D01*
X214553554Y-127382995D01*
X214555201Y-127378809D01*
X214585044Y-127306762D01*
X214605682Y-127150000D01*
X214585044Y-126993238D01*
X214524536Y-126847159D01*
X214524535Y-126847158D01*
X214524535Y-126847157D01*
X214428282Y-126721717D01*
X214302842Y-126625464D01*
X214156761Y-126564955D01*
X214020636Y-126547034D01*
X214000000Y-126544318D01*
X213999999Y-126544318D01*
X213843238Y-126564955D01*
X213697157Y-126625464D01*
X213571717Y-126721717D01*
X213475464Y-126847157D01*
X213414955Y-126993238D01*
X213394318Y-127149999D01*
X213414955Y-127306761D01*
X213444798Y-127378808D01*
X213452387Y-127449398D01*
X213420607Y-127512885D01*
X213417487Y-127516119D01*
X213396950Y-127536656D01*
X213339354Y-127649695D01*
X213324500Y-127743482D01*
X213324500Y-128206518D01*
X213337323Y-128287480D01*
X213339354Y-128300304D01*
X213394874Y-128409268D01*
X213396951Y-128413344D01*
X213486655Y-128503048D01*
X213486657Y-128503049D01*
X213486658Y-128503050D01*
X213599696Y-128560646D01*
X213693481Y-128575500D01*
X213981915Y-128575499D01*
X214050035Y-128595501D01*
X214071010Y-128612404D01*
X214268011Y-128809405D01*
X214302037Y-128871717D01*
X214296972Y-128942532D01*
X214254425Y-128999368D01*
X214187905Y-129024179D01*
X214178916Y-129024500D01*
X213693481Y-129024500D01*
X213599696Y-129039354D01*
X213486655Y-129096951D01*
X213396951Y-129186655D01*
X213339354Y-129299695D01*
X213324500Y-129393482D01*
X213324500Y-129856518D01*
X213335599Y-129926592D01*
X213339354Y-129950304D01*
X213391694Y-130053027D01*
X213396951Y-130063344D01*
X213486655Y-130153048D01*
X213486657Y-130153049D01*
X213486658Y-130153050D01*
X213504408Y-130162094D01*
X213530703Y-130175492D01*
X213582318Y-130224240D01*
X213599500Y-130287759D01*
X213599500Y-130313701D01*
X213579498Y-130381822D01*
X213547561Y-130415637D01*
X213394129Y-130527111D01*
X213267465Y-130667785D01*
X213172820Y-130831716D01*
X213114325Y-131011742D01*
X213094540Y-131200000D01*
X213114325Y-131388257D01*
X213172820Y-131568283D01*
X213267465Y-131732214D01*
X213393507Y-131872197D01*
X213394129Y-131872888D01*
X213547270Y-131984151D01*
X213547271Y-131984151D01*
X213547272Y-131984152D01*
X213720192Y-132061142D01*
X213720197Y-132061144D01*
X213905354Y-132100500D01*
X213905356Y-132100500D01*
X214094644Y-132100500D01*
X214094646Y-132100500D01*
X214279803Y-132061144D01*
X214322250Y-132042244D01*
X214392617Y-132032810D01*
X214456914Y-132062916D01*
X214494728Y-132123004D01*
X214499500Y-132157351D01*
X214499500Y-134792671D01*
X214479498Y-134860792D01*
X214425842Y-134907285D01*
X214408655Y-134913667D01*
X214289601Y-134948256D01*
X214289602Y-134948256D01*
X214148131Y-135031921D01*
X214031921Y-135148131D01*
X213948256Y-135289602D01*
X213902402Y-135447430D01*
X213899694Y-135481843D01*
X213899500Y-135484306D01*
X213899500Y-136515694D01*
X213902402Y-136552569D01*
X213948256Y-136710398D01*
X213985891Y-136774035D01*
X214031921Y-136851868D01*
X214148131Y-136968078D01*
X214148133Y-136968079D01*
X214148135Y-136968081D01*
X214289602Y-137051744D01*
X214447431Y-137097598D01*
X214484306Y-137100500D01*
X214486777Y-137100500D01*
X215513223Y-137100500D01*
X215515694Y-137100500D01*
X215552569Y-137097598D01*
X215710398Y-137051744D01*
X215851865Y-136968081D01*
X215968081Y-136851865D01*
X216051744Y-136710398D01*
X216097598Y-136552569D01*
X216100500Y-136515694D01*
X216100500Y-135484306D01*
X216100183Y-135480278D01*
X216100235Y-135480030D01*
X216100209Y-135479363D01*
X216100245Y-135479981D01*
X216114769Y-135410796D01*
X216164604Y-135360230D01*
X216233866Y-135344634D01*
X216300566Y-135368960D01*
X216314888Y-135381280D01*
X216402595Y-135468987D01*
X216436621Y-135531299D01*
X216439500Y-135558081D01*
X216439500Y-136515694D01*
X216442402Y-136552569D01*
X216488256Y-136710398D01*
X216525891Y-136774035D01*
X216571921Y-136851868D01*
X216688131Y-136968078D01*
X216688133Y-136968079D01*
X216688135Y-136968081D01*
X216829602Y-137051744D01*
X216987431Y-137097598D01*
X217024306Y-137100500D01*
X217026777Y-137100500D01*
X217855642Y-137100500D01*
X217923763Y-137120502D01*
X217970256Y-137174158D01*
X217980360Y-137244432D01*
X217950866Y-137309012D01*
X217908892Y-137340695D01*
X217847265Y-137369432D01*
X217660858Y-137499955D01*
X217499955Y-137660858D01*
X217369432Y-137847265D01*
X217293486Y-138010131D01*
X217246568Y-138063416D01*
X217178291Y-138082877D01*
X217110331Y-138062335D01*
X217067024Y-138014084D01*
X217053048Y-137986655D01*
X216963344Y-137896951D01*
X216850304Y-137839354D01*
X216756519Y-137824500D01*
X216756517Y-137824500D01*
X216293481Y-137824500D01*
X216199696Y-137839354D01*
X216086655Y-137896951D01*
X215996951Y-137986655D01*
X215939354Y-138099695D01*
X215924500Y-138193482D01*
X215924500Y-138806518D01*
X215931466Y-138850500D01*
X215939354Y-138900304D01*
X215984989Y-138989868D01*
X215996951Y-139013344D01*
X216086655Y-139103048D01*
X216086657Y-139103049D01*
X216086658Y-139103050D01*
X216199696Y-139160646D01*
X216293481Y-139175500D01*
X216756518Y-139175499D01*
X216850304Y-139160646D01*
X216963342Y-139103050D01*
X217053050Y-139013342D01*
X217067024Y-138985915D01*
X217115771Y-138934301D01*
X217184686Y-138917234D01*
X217251888Y-138940134D01*
X217293485Y-138989867D01*
X217369432Y-139152734D01*
X217499953Y-139339139D01*
X217660861Y-139500047D01*
X217847266Y-139630568D01*
X218053504Y-139726739D01*
X218273308Y-139785635D01*
X218500000Y-139805468D01*
X218726692Y-139785635D01*
X218946496Y-139726739D01*
X219152734Y-139630568D01*
X219339139Y-139500047D01*
X219500047Y-139339139D01*
X219630568Y-139152734D01*
X219726739Y-138946496D01*
X219785635Y-138726692D01*
X219805468Y-138500000D01*
X219805468Y-138499999D01*
X220194532Y-138499999D01*
X220214365Y-138726692D01*
X220273260Y-138946495D01*
X220357751Y-139127685D01*
X220369432Y-139152734D01*
X220499953Y-139339139D01*
X220660861Y-139500047D01*
X220847266Y-139630568D01*
X221053504Y-139726739D01*
X221273308Y-139785635D01*
X221500000Y-139805468D01*
X221726692Y-139785635D01*
X221946496Y-139726739D01*
X222152734Y-139630568D01*
X222339139Y-139500047D01*
X222500047Y-139339139D01*
X222630568Y-139152734D01*
X222683562Y-139039086D01*
X222730478Y-138985804D01*
X222798755Y-138966343D01*
X222866715Y-138986885D01*
X222886851Y-139003244D01*
X222986655Y-139103048D01*
X222986657Y-139103049D01*
X222986658Y-139103050D01*
X223099696Y-139160646D01*
X223193481Y-139175500D01*
X223656518Y-139175499D01*
X223750304Y-139160646D01*
X223863342Y-139103050D01*
X223953050Y-139013342D01*
X224010646Y-138900304D01*
X224025500Y-138806519D01*
X224025499Y-138193482D01*
X224010646Y-138099696D01*
X223953050Y-137986658D01*
X223953049Y-137986657D01*
X223953048Y-137986655D01*
X223863344Y-137896951D01*
X223750304Y-137839354D01*
X223750304Y-137839353D01*
X223656519Y-137824500D01*
X223656517Y-137824500D01*
X223193481Y-137824500D01*
X223099696Y-137839354D01*
X222986657Y-137896950D01*
X222886851Y-137996756D01*
X222824539Y-138030781D01*
X222753723Y-138025715D01*
X222696887Y-137983169D01*
X222683561Y-137960910D01*
X222655558Y-137900858D01*
X222630568Y-137847266D01*
X222607718Y-137814633D01*
X222590359Y-137789841D01*
X222500047Y-137660861D01*
X222339139Y-137499953D01*
X222152734Y-137369432D01*
X222069393Y-137330569D01*
X221946495Y-137273260D01*
X221726692Y-137214365D01*
X221500000Y-137194532D01*
X221273307Y-137214365D01*
X221053504Y-137273260D01*
X220847265Y-137369432D01*
X220660858Y-137499955D01*
X220499955Y-137660858D01*
X220369432Y-137847265D01*
X220273260Y-138053504D01*
X220214365Y-138273307D01*
X220194532Y-138499999D01*
X219805468Y-138499999D01*
X219785635Y-138273308D01*
X219726739Y-138053504D01*
X219630568Y-137847266D01*
X219500047Y-137660861D01*
X219339139Y-137499953D01*
X219152734Y-137369432D01*
X219069393Y-137330569D01*
X218946495Y-137273260D01*
X218726692Y-137214365D01*
X218726691Y-137214364D01*
X218500000Y-137194532D01*
X218499999Y-137194532D01*
X218499998Y-137194532D01*
X218485136Y-137195832D01*
X218476180Y-137196615D01*
X218406576Y-137182626D01*
X218355585Y-137133226D01*
X218339395Y-137064100D01*
X218363149Y-136997194D01*
X218381628Y-136980355D01*
X218380610Y-136979337D01*
X218508078Y-136851868D01*
X218508081Y-136851865D01*
X218591744Y-136710398D01*
X218637598Y-136552569D01*
X218640500Y-136515694D01*
X218640500Y-135484306D01*
X218637598Y-135447431D01*
X218591744Y-135289602D01*
X218508081Y-135148135D01*
X218508079Y-135148133D01*
X218508078Y-135148131D01*
X218391868Y-135031921D01*
X218292679Y-134973261D01*
X218250398Y-134948256D01*
X218092569Y-134902402D01*
X218092568Y-134902402D01*
X218058150Y-134899693D01*
X218058142Y-134899692D01*
X218055694Y-134899500D01*
X217024306Y-134899500D01*
X217023089Y-134899595D01*
X216954405Y-134882322D01*
X216929222Y-134862830D01*
X216859063Y-134792671D01*
X216383543Y-134317150D01*
X216349518Y-134254840D01*
X216354583Y-134184025D01*
X216397130Y-134127189D01*
X216463650Y-134102378D01*
X216525889Y-134113862D01*
X216553503Y-134126739D01*
X216612398Y-134142519D01*
X216773308Y-134185635D01*
X217000000Y-134205468D01*
X217226692Y-134185635D01*
X217446496Y-134126739D01*
X217652734Y-134030568D01*
X217839139Y-133900047D01*
X218000047Y-133739139D01*
X218130568Y-133552734D01*
X218226739Y-133346496D01*
X218285635Y-133126692D01*
X218297075Y-132995927D01*
X218322938Y-132929810D01*
X218333493Y-132917823D01*
X218482653Y-132768663D01*
X218544963Y-132734639D01*
X218615778Y-132739704D01*
X218672614Y-132782251D01*
X218697425Y-132848771D01*
X218697267Y-132868740D01*
X218694532Y-132899998D01*
X218714365Y-133126692D01*
X218773260Y-133346495D01*
X218869432Y-133552734D01*
X218999953Y-133739139D01*
X219160861Y-133900047D01*
X219347266Y-134030568D01*
X219553504Y-134126739D01*
X219773308Y-134185635D01*
X220000000Y-134205468D01*
X220226692Y-134185635D01*
X220446496Y-134126739D01*
X220652734Y-134030568D01*
X220839139Y-133900047D01*
X221000047Y-133739139D01*
X221130568Y-133552734D01*
X221226739Y-133346496D01*
X221285635Y-133126692D01*
X221301987Y-132939784D01*
X221327849Y-132873670D01*
X221385353Y-132832030D01*
X221456240Y-132828089D01*
X221516602Y-132861674D01*
X221675487Y-133020559D01*
X221709513Y-133082871D01*
X221711912Y-133098670D01*
X221714363Y-133126688D01*
X221773260Y-133346495D01*
X221869432Y-133552733D01*
X221869432Y-133552734D01*
X221999953Y-133739139D01*
X222160861Y-133900047D01*
X222347266Y-134030568D01*
X222553504Y-134126739D01*
X222773308Y-134185635D01*
X223000000Y-134205468D01*
X223226692Y-134185635D01*
X223446496Y-134126739D01*
X223652734Y-134030568D01*
X223839139Y-133900047D01*
X224000047Y-133739139D01*
X224130568Y-133552734D01*
X224226739Y-133346496D01*
X224285635Y-133126692D01*
X224305468Y-132900000D01*
X224285635Y-132673308D01*
X224226739Y-132453504D01*
X224130568Y-132247266D01*
X224000047Y-132060861D01*
X223839139Y-131899953D01*
X223652734Y-131769432D01*
X223620249Y-131754284D01*
X223446495Y-131673260D01*
X223226692Y-131614365D01*
X223000000Y-131594532D01*
X222999999Y-131594532D01*
X222999998Y-131594532D01*
X222948872Y-131599005D01*
X222879267Y-131585015D01*
X222828276Y-131535615D01*
X222812086Y-131466489D01*
X222818059Y-131434548D01*
X222833100Y-131388257D01*
X222836497Y-131377803D01*
X222855185Y-131200000D01*
X222836497Y-131022197D01*
X222836495Y-131022193D01*
X222835112Y-131009027D01*
X222837231Y-131008804D01*
X222835689Y-130955009D01*
X222868456Y-130897935D01*
X223305484Y-130460909D01*
X223305484Y-130460908D01*
X223319943Y-130446450D01*
X223319947Y-130446444D01*
X223328050Y-130438342D01*
X223338038Y-130418737D01*
X223348354Y-130401901D01*
X223361297Y-130384089D01*
X223368097Y-130363158D01*
X223375662Y-130344897D01*
X223380574Y-130335257D01*
X223385646Y-130325304D01*
X223389087Y-130303574D01*
X223393698Y-130284366D01*
X223400500Y-130263433D01*
X223400500Y-130263429D01*
X223404965Y-130249688D01*
X223445039Y-130191083D01*
X223467587Y-130176362D01*
X223513342Y-130153050D01*
X223603050Y-130063342D01*
X223660646Y-129950304D01*
X223675500Y-129856519D01*
X223675499Y-129393482D01*
X223660646Y-129299696D01*
X223603050Y-129186658D01*
X223603049Y-129186657D01*
X223603048Y-129186655D01*
X223513344Y-129096951D01*
X223400304Y-129039354D01*
X223400303Y-129039353D01*
X223306519Y-129024500D01*
X223306517Y-129024500D01*
X222693481Y-129024500D01*
X222599696Y-129039354D01*
X222486655Y-129096951D01*
X222396949Y-129186657D01*
X222362265Y-129254728D01*
X222313516Y-129306343D01*
X222244601Y-129323408D01*
X222177400Y-129300506D01*
X222137733Y-129254727D01*
X222103050Y-129186658D01*
X222103049Y-129186656D01*
X222013344Y-129096951D01*
X221900304Y-129039354D01*
X221900304Y-129039353D01*
X221806519Y-129024500D01*
X221806517Y-129024500D01*
X221193481Y-129024500D01*
X221099696Y-129039354D01*
X220986655Y-129096951D01*
X220896949Y-129186657D01*
X220862265Y-129254728D01*
X220813516Y-129306343D01*
X220744601Y-129323408D01*
X220677400Y-129300506D01*
X220637733Y-129254727D01*
X220603050Y-129186658D01*
X220603049Y-129186656D01*
X220513343Y-129096950D01*
X220478969Y-129079436D01*
X220427353Y-129030688D01*
X220410287Y-128961773D01*
X220433187Y-128894572D01*
X220488785Y-128850419D01*
X220498686Y-128846874D01*
X220567705Y-128825366D01*
X220714846Y-128736417D01*
X220836418Y-128614845D01*
X220862842Y-128571134D01*
X220915200Y-128523185D01*
X220985169Y-128511154D01*
X221027874Y-128524050D01*
X221099696Y-128560646D01*
X221193481Y-128575500D01*
X221806518Y-128575499D01*
X221900304Y-128560646D01*
X222013342Y-128503050D01*
X222103050Y-128413342D01*
X222137734Y-128345270D01*
X222186481Y-128293657D01*
X222255396Y-128276591D01*
X222322598Y-128299492D01*
X222362265Y-128345270D01*
X222395800Y-128411085D01*
X222396951Y-128413344D01*
X222486655Y-128503048D01*
X222486657Y-128503049D01*
X222486658Y-128503050D01*
X222599696Y-128560646D01*
X222599698Y-128560646D01*
X222607360Y-128564550D01*
X222630676Y-128572281D01*
X222749775Y-128634790D01*
X222914944Y-128675500D01*
X222914946Y-128675500D01*
X223085054Y-128675500D01*
X223085056Y-128675500D01*
X223250225Y-128634790D01*
X223369328Y-128572278D01*
X223392643Y-128564548D01*
X223400299Y-128560646D01*
X223400304Y-128560646D01*
X223513342Y-128503050D01*
X223603050Y-128413342D01*
X223660646Y-128300304D01*
X223671939Y-128229000D01*
X225017001Y-128229000D01*
X225017001Y-128229360D01*
X225017260Y-128235077D01*
X225023481Y-128303556D01*
X225074633Y-128467706D01*
X225163582Y-128614846D01*
X225285153Y-128736417D01*
X225432294Y-128825366D01*
X225501313Y-128846874D01*
X225560399Y-128886237D01*
X225588824Y-128951295D01*
X225577564Y-129021393D01*
X225530193Y-129074275D01*
X225521031Y-129079436D01*
X225486655Y-129096951D01*
X225396951Y-129186655D01*
X225339354Y-129299695D01*
X225324500Y-129393482D01*
X225324500Y-129856518D01*
X225335599Y-129926592D01*
X225339354Y-129950304D01*
X225391694Y-130053027D01*
X225396951Y-130063344D01*
X225486655Y-130153048D01*
X225486657Y-130153049D01*
X225486658Y-130153050D01*
X225504408Y-130162094D01*
X225530703Y-130175492D01*
X225582318Y-130224240D01*
X225599500Y-130287759D01*
X225599500Y-130313701D01*
X225579498Y-130381822D01*
X225547561Y-130415637D01*
X225394129Y-130527111D01*
X225267465Y-130667785D01*
X225172820Y-130831716D01*
X225114325Y-131011742D01*
X225094540Y-131200000D01*
X225114325Y-131388257D01*
X225172820Y-131568283D01*
X225267465Y-131732214D01*
X225393507Y-131872197D01*
X225394129Y-131872888D01*
X225547270Y-131984151D01*
X225547271Y-131984151D01*
X225547272Y-131984152D01*
X225720192Y-132061142D01*
X225720197Y-132061144D01*
X225905354Y-132100500D01*
X225905356Y-132100500D01*
X226094644Y-132100500D01*
X226094646Y-132100500D01*
X226279803Y-132061144D01*
X226452730Y-131984151D01*
X226605871Y-131872888D01*
X226732533Y-131732216D01*
X226827179Y-131568284D01*
X226860254Y-131466489D01*
X226885674Y-131388257D01*
X226887555Y-131370352D01*
X226905460Y-131200000D01*
X226885674Y-131011744D01*
X226885674Y-131011742D01*
X226827179Y-130831716D01*
X226732534Y-130667785D01*
X226639512Y-130564474D01*
X226605871Y-130527112D01*
X226599438Y-130522438D01*
X226452439Y-130415637D01*
X226409085Y-130359415D01*
X226400500Y-130313701D01*
X226400500Y-130287759D01*
X226420502Y-130219638D01*
X226469297Y-130175492D01*
X226477950Y-130171083D01*
X226513342Y-130153050D01*
X226603050Y-130063342D01*
X226660646Y-129950304D01*
X226675500Y-129856519D01*
X226675499Y-129393482D01*
X226660646Y-129299696D01*
X226603050Y-129186658D01*
X226603049Y-129186657D01*
X226603048Y-129186655D01*
X226513344Y-129096951D01*
X226478969Y-129079436D01*
X226427354Y-129030687D01*
X226410288Y-128961772D01*
X226433189Y-128894571D01*
X226488787Y-128850419D01*
X226498687Y-128846874D01*
X226567705Y-128825366D01*
X226714846Y-128736417D01*
X226836417Y-128614846D01*
X226925366Y-128467706D01*
X226976518Y-128303556D01*
X226982741Y-128235074D01*
X226983000Y-128229363D01*
X226983000Y-128229000D01*
X225017001Y-128229000D01*
X223671939Y-128229000D01*
X223675500Y-128206519D01*
X223675499Y-128192383D01*
X223683688Y-128147699D01*
X223685140Y-128143872D01*
X223700500Y-128017372D01*
X223700500Y-127721000D01*
X225017000Y-127721000D01*
X225746000Y-127721000D01*
X225746000Y-127067000D01*
X226254000Y-127067000D01*
X226254000Y-127721000D01*
X226982999Y-127721000D01*
X226982999Y-127720639D01*
X226982739Y-127714922D01*
X226976518Y-127646443D01*
X226925366Y-127482293D01*
X226836417Y-127335153D01*
X226714846Y-127213582D01*
X226567706Y-127124633D01*
X226403556Y-127073481D01*
X226335074Y-127067258D01*
X226329363Y-127067000D01*
X226254000Y-127067000D01*
X225746000Y-127067000D01*
X225746000Y-127066999D01*
X225670639Y-127067000D01*
X225664922Y-127067260D01*
X225596443Y-127073481D01*
X225432293Y-127124633D01*
X225285153Y-127213582D01*
X225163582Y-127335153D01*
X225074633Y-127482293D01*
X225023481Y-127646443D01*
X225017258Y-127714925D01*
X225017000Y-127720636D01*
X225017000Y-127721000D01*
X223700500Y-127721000D01*
X223700500Y-127232628D01*
X223700500Y-124176499D01*
X223720502Y-124108379D01*
X223774158Y-124061886D01*
X223826500Y-124050500D01*
X227025025Y-124050500D01*
X227032632Y-124050729D01*
X227062089Y-124052511D01*
X227092605Y-124054358D01*
X227092605Y-124054357D01*
X227092606Y-124054358D01*
X227151729Y-124043522D01*
X227159247Y-124042379D01*
X227218872Y-124035140D01*
X227228174Y-124031611D01*
X227250132Y-124025490D01*
X227259932Y-124023695D01*
X227314756Y-123999020D01*
X227321738Y-123996128D01*
X227377930Y-123974818D01*
X227386116Y-123969166D01*
X227405987Y-123957960D01*
X227410161Y-123956081D01*
X227415057Y-123953878D01*
X227462360Y-123916817D01*
X227468462Y-123912326D01*
X227517929Y-123878183D01*
X227557776Y-123833203D01*
X227562961Y-123827694D01*
X228227687Y-123162967D01*
X228233195Y-123157783D01*
X228278183Y-123117929D01*
X228312328Y-123068459D01*
X228316806Y-123062372D01*
X228353877Y-123015057D01*
X228357956Y-123005991D01*
X228369162Y-122986123D01*
X228374818Y-122977930D01*
X228396130Y-122921731D01*
X228399031Y-122914728D01*
X228423694Y-122859932D01*
X228425488Y-122850136D01*
X228431611Y-122828175D01*
X228435140Y-122818872D01*
X228442387Y-122759184D01*
X228443521Y-122751733D01*
X228454357Y-122692606D01*
X228450730Y-122632643D01*
X228450500Y-122625035D01*
X228450500Y-111129239D01*
X228470502Y-111061118D01*
X228521831Y-111015717D01*
X228602634Y-110976805D01*
X228813217Y-110833232D01*
X229000050Y-110659877D01*
X229158959Y-110460612D01*
X229216326Y-110361247D01*
X229267706Y-110312256D01*
X229337420Y-110298819D01*
X229403331Y-110325206D01*
X229437317Y-110366281D01*
X229528333Y-110541934D01*
X229532804Y-110549287D01*
X229660540Y-110730248D01*
X229660541Y-110730248D01*
X230571099Y-109819690D01*
X230596059Y-109877553D01*
X230700756Y-110018185D01*
X230835062Y-110130882D01*
X230930430Y-110178777D01*
X230020715Y-111088492D01*
X230020715Y-111088494D01*
X230085984Y-111141595D01*
X230092995Y-111146543D01*
X230320352Y-111284802D01*
X230327981Y-111288754D01*
X230572039Y-111394764D01*
X230580132Y-111397641D01*
X230836359Y-111469433D01*
X230844777Y-111471182D01*
X231108380Y-111507413D01*
X231116954Y-111508000D01*
X231383046Y-111508000D01*
X231391619Y-111507413D01*
X231655222Y-111471182D01*
X231663640Y-111469433D01*
X231919867Y-111397641D01*
X231927960Y-111394764D01*
X232172018Y-111288754D01*
X232179647Y-111284802D01*
X232407004Y-111146543D01*
X232414016Y-111141594D01*
X232479283Y-111088494D01*
X232479283Y-111088492D01*
X231571798Y-110181007D01*
X231588891Y-110174787D01*
X231735373Y-110078445D01*
X231855688Y-109950918D01*
X231930517Y-109821307D01*
X232839457Y-110730247D01*
X232967199Y-110549280D01*
X232971666Y-110541934D01*
X233094082Y-110305682D01*
X233097504Y-110297806D01*
X233186615Y-110047072D01*
X233188930Y-110038807D01*
X233243071Y-109778268D01*
X233244239Y-109769769D01*
X233262398Y-109504298D01*
X233262398Y-109495701D01*
X233244239Y-109230230D01*
X233243071Y-109221731D01*
X233188930Y-108961192D01*
X233186615Y-108952927D01*
X233097504Y-108702193D01*
X233094082Y-108694317D01*
X232971666Y-108458065D01*
X232967199Y-108450719D01*
X232839457Y-108269750D01*
X231928899Y-109180307D01*
X231903941Y-109122447D01*
X231799244Y-108981815D01*
X231664938Y-108869118D01*
X231569568Y-108821221D01*
X232428385Y-107962405D01*
X232490697Y-107928380D01*
X232517480Y-107925500D01*
X232590390Y-107925500D01*
X232592110Y-107925500D01*
X232868199Y-107910531D01*
X233232081Y-107850875D01*
X233587379Y-107752227D01*
X233929930Y-107615743D01*
X234255716Y-107443022D01*
X234560917Y-107236090D01*
X234841956Y-106997373D01*
X235095538Y-106729670D01*
X235318690Y-106436119D01*
X235508795Y-106120162D01*
X235663625Y-105785503D01*
X235781364Y-105436066D01*
X235860632Y-105075948D01*
X235900500Y-104709370D01*
X235900500Y-104340630D01*
X235860632Y-103974052D01*
X235781364Y-103613934D01*
X235663625Y-103264497D01*
X235508795Y-102929838D01*
X235318690Y-102613881D01*
X235095538Y-102320330D01*
X235042885Y-102264745D01*
X234844301Y-102055102D01*
X234844295Y-102055096D01*
X234841956Y-102052627D01*
X234560917Y-101813910D01*
X234485438Y-101762734D01*
X234258538Y-101608891D01*
X234258533Y-101608888D01*
X234255716Y-101606978D01*
X234164462Y-101558598D01*
X233932941Y-101435853D01*
X233932936Y-101435850D01*
X233929930Y-101434257D01*
X233926763Y-101432995D01*
X233590548Y-101299035D01*
X233590537Y-101299031D01*
X233587379Y-101297773D01*
X233584098Y-101296862D01*
X233584092Y-101296860D01*
X233235375Y-101200039D01*
X233235365Y-101200036D01*
X233232081Y-101199125D01*
X233228722Y-101198574D01*
X233228707Y-101198571D01*
X232871576Y-101140022D01*
X232871564Y-101140020D01*
X232868199Y-101139469D01*
X232864789Y-101139284D01*
X232864779Y-101139283D01*
X232593831Y-101124593D01*
X232593819Y-101124592D01*
X232592110Y-101124500D01*
X232407890Y-101124500D01*
X232406181Y-101124592D01*
X232406168Y-101124593D01*
X232135220Y-101139283D01*
X232135208Y-101139284D01*
X232131801Y-101139469D01*
X232128437Y-101140020D01*
X232128423Y-101140022D01*
X231771292Y-101198571D01*
X231771273Y-101198574D01*
X231767919Y-101199125D01*
X231764638Y-101200035D01*
X231764624Y-101200039D01*
X231415907Y-101296860D01*
X231415896Y-101296863D01*
X231412621Y-101297773D01*
X231409467Y-101299029D01*
X231409451Y-101299035D01*
X231073236Y-101432995D01*
X231073227Y-101432999D01*
X231070070Y-101434257D01*
X231067070Y-101435847D01*
X231067058Y-101435853D01*
X230747301Y-101605378D01*
X230747294Y-101605382D01*
X230744284Y-101606978D01*
X230741474Y-101608882D01*
X230741461Y-101608891D01*
X230441908Y-101811994D01*
X230441900Y-101811999D01*
X230439083Y-101813910D01*
X230436483Y-101816118D01*
X230436477Y-101816123D01*
X230160640Y-102050421D01*
X230160630Y-102050430D01*
X230158044Y-102052627D01*
X230155713Y-102055087D01*
X230155698Y-102055102D01*
X229906814Y-102317846D01*
X229906805Y-102317855D01*
X229904462Y-102320330D01*
X229902395Y-102323048D01*
X229902395Y-102323049D01*
X229683380Y-102611157D01*
X229683373Y-102611165D01*
X229681310Y-102613881D01*
X229679552Y-102616802D01*
X229679541Y-102616819D01*
X229607962Y-102735783D01*
X229555703Y-102783840D01*
X229485758Y-102796015D01*
X229420335Y-102768442D01*
X229392036Y-102735783D01*
X229318690Y-102613881D01*
X229095538Y-102320330D01*
X229042885Y-102264745D01*
X228844301Y-102055102D01*
X228844295Y-102055096D01*
X228841956Y-102052627D01*
X228560917Y-101813910D01*
X228485438Y-101762734D01*
X228258538Y-101608891D01*
X228258533Y-101608888D01*
X228255716Y-101606978D01*
X228164462Y-101558598D01*
X227932941Y-101435853D01*
X227932936Y-101435850D01*
X227929930Y-101434257D01*
X227926763Y-101432995D01*
X227590548Y-101299035D01*
X227590537Y-101299031D01*
X227587379Y-101297773D01*
X227584098Y-101296862D01*
X227584092Y-101296860D01*
X227235375Y-101200039D01*
X227235365Y-101200036D01*
X227232081Y-101199125D01*
X227228722Y-101198574D01*
X227228707Y-101198571D01*
X226871576Y-101140022D01*
X226871564Y-101140020D01*
X226868199Y-101139469D01*
X226864789Y-101139284D01*
X226864779Y-101139283D01*
X226593831Y-101124593D01*
X226593819Y-101124592D01*
X226592110Y-101124500D01*
X226407890Y-101124500D01*
X226406181Y-101124592D01*
X226406168Y-101124593D01*
X226135220Y-101139283D01*
X226135208Y-101139284D01*
X226131801Y-101139469D01*
X226128437Y-101140020D01*
X226128423Y-101140022D01*
X225771292Y-101198571D01*
X225771273Y-101198574D01*
X225767919Y-101199125D01*
X225764638Y-101200035D01*
X225764624Y-101200039D01*
X225415907Y-101296860D01*
X225415896Y-101296863D01*
X225412621Y-101297773D01*
X225409467Y-101299029D01*
X225409451Y-101299035D01*
X225073236Y-101432995D01*
X225073227Y-101432999D01*
X225070070Y-101434257D01*
X225067070Y-101435847D01*
X225067058Y-101435853D01*
X224747301Y-101605378D01*
X224747294Y-101605382D01*
X224744284Y-101606978D01*
X224741474Y-101608882D01*
X224741461Y-101608891D01*
X224441908Y-101811994D01*
X224441900Y-101811999D01*
X224439083Y-101813910D01*
X224436483Y-101816118D01*
X224436477Y-101816123D01*
X224160640Y-102050421D01*
X224160630Y-102050430D01*
X224158044Y-102052627D01*
X224155713Y-102055087D01*
X224155698Y-102055102D01*
X223906814Y-102317846D01*
X223906805Y-102317855D01*
X223904462Y-102320330D01*
X223902395Y-102323048D01*
X223902395Y-102323049D01*
X223683380Y-102611157D01*
X223683373Y-102611165D01*
X223681310Y-102613881D01*
X223679552Y-102616801D01*
X223679545Y-102616813D01*
X223508069Y-102901810D01*
X223491205Y-102929838D01*
X223489775Y-102932928D01*
X223489768Y-102932942D01*
X223337808Y-103261398D01*
X223337803Y-103261409D01*
X223336375Y-103264497D01*
X223335289Y-103267719D01*
X223335285Y-103267730D01*
X223219726Y-103610697D01*
X223219722Y-103610708D01*
X223218636Y-103613934D01*
X223217905Y-103617253D01*
X223217901Y-103617269D01*
X223140101Y-103970720D01*
X223139368Y-103974052D01*
X223138999Y-103977442D01*
X223138999Y-103977444D01*
X223099869Y-104337231D01*
X223099868Y-104337243D01*
X223099500Y-104340630D01*
X223099500Y-104709370D01*
X223099868Y-104712757D01*
X223099869Y-104712768D01*
X223126042Y-104953420D01*
X223139368Y-105075948D01*
X223140100Y-105079275D01*
X223140101Y-105079279D01*
X223217901Y-105432730D01*
X223217904Y-105432741D01*
X223218636Y-105436066D01*
X223219724Y-105439296D01*
X223219726Y-105439302D01*
X223326296Y-105755592D01*
X223336375Y-105785503D01*
X223337806Y-105788596D01*
X223337808Y-105788601D01*
X223488021Y-106113282D01*
X223491205Y-106120162D01*
X223583446Y-106273468D01*
X223644773Y-106375395D01*
X223681310Y-106436119D01*
X223904462Y-106729670D01*
X223906813Y-106732152D01*
X223906814Y-106732153D01*
X224155698Y-106994897D01*
X224155703Y-106994902D01*
X224158044Y-106997373D01*
X224439083Y-107236090D01*
X224744284Y-107443022D01*
X225070070Y-107615743D01*
X225412621Y-107752227D01*
X225767919Y-107850875D01*
X226131801Y-107910531D01*
X226407890Y-107925500D01*
X226409610Y-107925500D01*
X226590390Y-107925500D01*
X226592110Y-107925500D01*
X226628522Y-107923525D01*
X226697623Y-107939808D01*
X226746954Y-107990867D01*
X226760849Y-108060491D01*
X226734897Y-108126574D01*
X226706324Y-108153444D01*
X226686787Y-108166764D01*
X226686781Y-108166768D01*
X226686783Y-108166768D01*
X226499950Y-108340123D01*
X226391615Y-108475971D01*
X226341039Y-108539391D01*
X226213607Y-108760111D01*
X226120492Y-108997362D01*
X226063778Y-109245841D01*
X226044732Y-109500000D01*
X226063778Y-109754158D01*
X226104787Y-109933830D01*
X226120492Y-110002637D01*
X226213607Y-110239888D01*
X226341041Y-110460612D01*
X226499950Y-110659877D01*
X226686783Y-110833232D01*
X226897366Y-110976805D01*
X226978169Y-111015717D01*
X227030865Y-111063294D01*
X227049500Y-111129239D01*
X227049500Y-122307652D01*
X227029498Y-122375773D01*
X227012595Y-122396746D01*
X226796746Y-122612596D01*
X226734437Y-122646620D01*
X226707653Y-122649500D01*
X226487389Y-122649500D01*
X226419268Y-122629498D01*
X226372775Y-122575842D01*
X226362671Y-122505568D01*
X226375822Y-122464945D01*
X226377272Y-122462181D01*
X226409790Y-122400225D01*
X226450500Y-122235056D01*
X226450500Y-122064944D01*
X226409790Y-121899775D01*
X226330734Y-121749148D01*
X226217929Y-121621817D01*
X226102347Y-121542036D01*
X226077929Y-121525181D01*
X225918871Y-121464859D01*
X225796155Y-121449959D01*
X225796149Y-121449958D01*
X225792372Y-121449500D01*
X225788563Y-121449500D01*
X198164965Y-121449500D01*
X198157357Y-121449270D01*
X198097392Y-121445642D01*
X198038302Y-121456471D01*
X198030781Y-121457616D01*
X197971127Y-121464860D01*
X197961815Y-121468391D01*
X197939863Y-121474510D01*
X197930068Y-121476305D01*
X197875279Y-121500963D01*
X197868250Y-121503875D01*
X197812067Y-121525182D01*
X197803869Y-121530841D01*
X197784019Y-121542036D01*
X197774945Y-121546120D01*
X197755814Y-121561108D01*
X197727639Y-121583180D01*
X197721525Y-121587680D01*
X197672070Y-121621817D01*
X197632223Y-121666794D01*
X197627007Y-121672334D01*
X192936748Y-126362595D01*
X192874436Y-126396620D01*
X192847653Y-126399500D01*
X188482347Y-126399500D01*
X188414226Y-126379498D01*
X188393251Y-126362595D01*
X187758058Y-125727401D01*
X187758057Y-125727400D01*
X187755367Y-125724710D01*
X187655057Y-125646122D01*
X187655055Y-125646121D01*
X187655054Y-125646120D01*
X187624689Y-125632453D01*
X187587308Y-125606650D01*
X187227404Y-125246746D01*
X187193378Y-125184434D01*
X187190500Y-125157659D01*
X187190500Y-125025380D01*
X187210503Y-124957259D01*
X187252361Y-124916927D01*
X187272363Y-124905098D01*
X187351865Y-124858081D01*
X187468081Y-124741865D01*
X187486084Y-124711422D01*
X187537976Y-124662970D01*
X187607826Y-124650264D01*
X187673458Y-124677338D01*
X187706219Y-124717223D01*
X187785970Y-124869897D01*
X187909098Y-125020901D01*
X188060102Y-125144029D01*
X188232794Y-125234237D01*
X188420120Y-125287837D01*
X188531647Y-125297753D01*
X188537215Y-125298000D01*
X188786000Y-125298000D01*
X188786000Y-124323674D01*
X188897685Y-124374680D01*
X189004237Y-124390000D01*
X189075763Y-124390000D01*
X189182315Y-124374680D01*
X189294000Y-124323674D01*
X189294000Y-125298000D01*
X189542785Y-125298000D01*
X189548352Y-125297753D01*
X189659879Y-125287837D01*
X189847205Y-125234237D01*
X190019897Y-125144029D01*
X190170901Y-125020901D01*
X190294029Y-124869897D01*
X190384237Y-124697205D01*
X190437837Y-124509879D01*
X190447753Y-124398352D01*
X190448000Y-124392785D01*
X190448000Y-124144000D01*
X189471116Y-124144000D01*
X189499493Y-124099844D01*
X189540000Y-123961889D01*
X189540000Y-123818111D01*
X189499493Y-123680156D01*
X189471116Y-123636000D01*
X190448000Y-123636000D01*
X190448000Y-123387214D01*
X190447753Y-123381647D01*
X190437837Y-123270120D01*
X190384237Y-123082794D01*
X190294029Y-122910102D01*
X190170901Y-122759098D01*
X190019897Y-122635970D01*
X189847205Y-122545762D01*
X189659879Y-122492162D01*
X189548352Y-122482246D01*
X189542785Y-122482000D01*
X189294000Y-122482000D01*
X189294000Y-123456325D01*
X189182315Y-123405320D01*
X189075763Y-123390000D01*
X189004237Y-123390000D01*
X188897685Y-123405320D01*
X188786000Y-123456325D01*
X188786000Y-122482000D01*
X188537215Y-122482000D01*
X188531647Y-122482246D01*
X188420120Y-122492162D01*
X188232794Y-122545762D01*
X188060102Y-122635970D01*
X187909098Y-122759098D01*
X187785969Y-122910102D01*
X187706219Y-123062776D01*
X187656950Y-123113894D01*
X187587866Y-123130261D01*
X187520900Y-123106680D01*
X187486084Y-123068577D01*
X187468081Y-123038135D01*
X187468079Y-123038133D01*
X187468078Y-123038131D01*
X187351868Y-122921921D01*
X187351574Y-122921747D01*
X187210398Y-122838256D01*
X187052569Y-122792402D01*
X187018150Y-122789693D01*
X187018142Y-122789692D01*
X187015694Y-122789500D01*
X185984306Y-122789500D01*
X185981858Y-122789692D01*
X185981849Y-122789693D01*
X185947430Y-122792402D01*
X185789602Y-122838256D01*
X185648131Y-122921921D01*
X185531921Y-123038131D01*
X185505508Y-123082794D01*
X185448256Y-123179602D01*
X185402402Y-123337431D01*
X185399500Y-123374306D01*
X185399500Y-124405694D01*
X185402402Y-124442569D01*
X185448256Y-124600398D01*
X185513916Y-124711423D01*
X185531921Y-124741868D01*
X185648132Y-124858079D01*
X185648134Y-124858080D01*
X185648135Y-124858081D01*
X185727638Y-124905098D01*
X185776091Y-124956990D01*
X185789500Y-125013552D01*
X185789500Y-125475024D01*
X185789270Y-125482633D01*
X185785641Y-125542606D01*
X185796473Y-125601715D01*
X185797618Y-125609236D01*
X185804860Y-125668874D01*
X185808387Y-125678175D01*
X185814508Y-125700131D01*
X185816304Y-125709931D01*
X185840968Y-125764735D01*
X185843879Y-125771762D01*
X185865182Y-125827930D01*
X185870834Y-125836118D01*
X185882036Y-125855979D01*
X185886122Y-125865057D01*
X185923182Y-125912361D01*
X185927684Y-125918480D01*
X185961816Y-125967928D01*
X186006794Y-126007775D01*
X186012336Y-126012993D01*
X186774633Y-126775290D01*
X186777634Y-126777641D01*
X186777635Y-126777642D01*
X186874943Y-126853878D01*
X186905306Y-126867543D01*
X186942690Y-126893347D01*
X187278029Y-127228686D01*
X187433748Y-127384404D01*
X187467773Y-127446717D01*
X187462709Y-127517532D01*
X187420162Y-127574368D01*
X187353642Y-127599179D01*
X187344653Y-127599500D01*
X185792347Y-127599500D01*
X185724226Y-127579498D01*
X185703252Y-127562595D01*
X183345885Y-125205228D01*
X183311859Y-125142916D01*
X183316924Y-125072101D01*
X183359471Y-125015265D01*
X183425991Y-124990454D01*
X183439935Y-124990230D01*
X183441815Y-124990304D01*
X183444306Y-124990500D01*
X183446796Y-124990500D01*
X184473223Y-124990500D01*
X184475694Y-124990500D01*
X184512569Y-124987598D01*
X184670398Y-124941744D01*
X184811865Y-124858081D01*
X184928081Y-124741865D01*
X185011744Y-124600398D01*
X185057598Y-124442569D01*
X185060500Y-124405694D01*
X185060500Y-123374306D01*
X185057598Y-123337431D01*
X185011744Y-123179602D01*
X184928081Y-123038135D01*
X184928079Y-123038133D01*
X184928078Y-123038131D01*
X184811868Y-122921921D01*
X184811574Y-122921747D01*
X184670398Y-122838256D01*
X184512569Y-122792402D01*
X184478150Y-122789693D01*
X184478142Y-122789692D01*
X184475694Y-122789500D01*
X183444306Y-122789500D01*
X183441858Y-122789692D01*
X183441849Y-122789693D01*
X183407430Y-122792402D01*
X183249601Y-122838255D01*
X183249602Y-122838256D01*
X183190637Y-122873127D01*
X183121822Y-122890586D01*
X183054491Y-122868069D01*
X183010022Y-122812724D01*
X183000500Y-122764673D01*
X183000500Y-122366823D01*
X183020502Y-122298702D01*
X183037400Y-122277733D01*
X190787686Y-114527447D01*
X190793194Y-114522262D01*
X190838183Y-114482407D01*
X190872324Y-114432944D01*
X190876806Y-114426852D01*
X190913878Y-114379534D01*
X190917960Y-114370463D01*
X190929164Y-114350597D01*
X190934818Y-114342408D01*
X190956122Y-114286229D01*
X190959028Y-114279214D01*
X190983695Y-114224409D01*
X190985489Y-114214614D01*
X190991615Y-114192643D01*
X190995140Y-114183350D01*
X191002383Y-114123691D01*
X191003524Y-114116200D01*
X191014358Y-114057083D01*
X191010730Y-113997110D01*
X191010500Y-113989502D01*
X191010500Y-107239466D01*
X191030502Y-107171345D01*
X191072360Y-107131013D01*
X191161865Y-107078081D01*
X191278081Y-106961865D01*
X191361744Y-106820398D01*
X191407598Y-106662569D01*
X191410500Y-106625694D01*
X191410500Y-105594306D01*
X191407598Y-105557431D01*
X191361744Y-105399602D01*
X191278081Y-105258135D01*
X191278079Y-105258133D01*
X191278078Y-105258131D01*
X191161868Y-105141921D01*
X191141883Y-105130102D01*
X191020398Y-105058256D01*
X190862569Y-105012402D01*
X190828150Y-105009693D01*
X190828142Y-105009692D01*
X190825694Y-105009500D01*
X189794306Y-105009500D01*
X189791858Y-105009692D01*
X189791849Y-105009693D01*
X189757430Y-105012402D01*
X189599602Y-105058256D01*
X189458131Y-105141921D01*
X189341920Y-105258132D01*
X189323914Y-105288579D01*
X189272020Y-105337031D01*
X189202169Y-105349735D01*
X189136539Y-105322658D01*
X189103780Y-105282775D01*
X189024031Y-105130103D01*
X188900901Y-104979098D01*
X188749897Y-104855970D01*
X188577205Y-104765762D01*
X188389879Y-104712162D01*
X188278352Y-104702246D01*
X188272785Y-104702000D01*
X188024000Y-104702000D01*
X188024000Y-105676325D01*
X187912315Y-105625320D01*
X187805763Y-105610000D01*
X187734237Y-105610000D01*
X187627685Y-105625320D01*
X187516000Y-105676325D01*
X187516000Y-104702000D01*
X187267215Y-104702000D01*
X187261647Y-104702246D01*
X187150120Y-104712162D01*
X186962794Y-104765762D01*
X186790102Y-104855970D01*
X186639097Y-104979098D01*
X186597652Y-105029927D01*
X186539101Y-105070081D01*
X186468136Y-105072206D01*
X186407288Y-105035628D01*
X186402348Y-105029927D01*
X186360902Y-104979098D01*
X186209897Y-104855970D01*
X186037205Y-104765762D01*
X185849879Y-104712162D01*
X185738352Y-104702246D01*
X185732785Y-104702000D01*
X185484000Y-104702000D01*
X185484000Y-105676325D01*
X185372315Y-105625320D01*
X185265763Y-105610000D01*
X185194237Y-105610000D01*
X185087685Y-105625320D01*
X184976000Y-105676325D01*
X184976000Y-104702000D01*
X184727215Y-104702000D01*
X184721647Y-104702246D01*
X184610120Y-104712162D01*
X184422794Y-104765762D01*
X184250102Y-104855970D01*
X184099098Y-104979098D01*
X183975969Y-105130102D01*
X183896219Y-105282776D01*
X183846950Y-105333894D01*
X183777866Y-105350261D01*
X183710900Y-105326680D01*
X183676084Y-105288577D01*
X183658081Y-105258135D01*
X183658079Y-105258133D01*
X183658078Y-105258131D01*
X183541868Y-105141921D01*
X183521883Y-105130102D01*
X183400398Y-105058256D01*
X183242569Y-105012402D01*
X183208150Y-105009693D01*
X183208142Y-105009692D01*
X183205694Y-105009500D01*
X182174306Y-105009500D01*
X182171858Y-105009692D01*
X182171849Y-105009693D01*
X182137430Y-105012402D01*
X181979602Y-105058256D01*
X181838131Y-105141921D01*
X181721921Y-105258131D01*
X181638256Y-105399602D01*
X181592625Y-105556665D01*
X181592402Y-105557431D01*
X181589500Y-105594306D01*
X181589500Y-106625694D01*
X170100500Y-106625694D01*
X170100500Y-95184370D01*
X171599500Y-95184370D01*
X171599868Y-95187757D01*
X171599869Y-95187768D01*
X171638092Y-95539220D01*
X171639368Y-95550948D01*
X171640100Y-95554275D01*
X171640101Y-95554279D01*
X171717901Y-95907730D01*
X171717904Y-95907741D01*
X171718636Y-95911066D01*
X171836375Y-96260503D01*
X171991205Y-96595162D01*
X172181310Y-96911119D01*
X172404462Y-97204670D01*
X172406813Y-97207152D01*
X172406814Y-97207153D01*
X172655698Y-97469897D01*
X172655703Y-97469902D01*
X172658044Y-97472373D01*
X172939083Y-97711090D01*
X173244284Y-97918022D01*
X173570070Y-98090743D01*
X173912621Y-98227227D01*
X174267919Y-98325875D01*
X174631801Y-98385531D01*
X174907890Y-98400500D01*
X174909610Y-98400500D01*
X175090390Y-98400500D01*
X175092110Y-98400500D01*
X175368199Y-98385531D01*
X175732081Y-98325875D01*
X176087379Y-98227227D01*
X176429930Y-98090743D01*
X176755716Y-97918022D01*
X177060917Y-97711090D01*
X177341956Y-97472373D01*
X177595538Y-97204670D01*
X177818690Y-96911119D01*
X178008795Y-96595162D01*
X178163625Y-96260503D01*
X178281364Y-95911066D01*
X178360632Y-95550948D01*
X178400500Y-95184370D01*
X216599500Y-95184370D01*
X216599868Y-95187757D01*
X216599869Y-95187768D01*
X216638092Y-95539220D01*
X216639368Y-95550948D01*
X216640100Y-95554275D01*
X216640101Y-95554279D01*
X216717901Y-95907730D01*
X216717904Y-95907741D01*
X216718636Y-95911066D01*
X216836375Y-96260503D01*
X216991205Y-96595162D01*
X217181310Y-96911119D01*
X217404462Y-97204670D01*
X217406813Y-97207152D01*
X217406814Y-97207153D01*
X217655698Y-97469897D01*
X217655703Y-97469902D01*
X217658044Y-97472373D01*
X217939083Y-97711090D01*
X218244284Y-97918022D01*
X218570070Y-98090743D01*
X218912621Y-98227227D01*
X219267919Y-98325875D01*
X219631801Y-98385531D01*
X219907890Y-98400500D01*
X219909610Y-98400500D01*
X220090390Y-98400500D01*
X220092110Y-98400500D01*
X220368199Y-98385531D01*
X220732081Y-98325875D01*
X221087379Y-98227227D01*
X221429930Y-98090743D01*
X221755716Y-97918022D01*
X222060917Y-97711090D01*
X222341956Y-97472373D01*
X222595538Y-97204670D01*
X222818690Y-96911119D01*
X223008795Y-96595162D01*
X223163625Y-96260503D01*
X223281364Y-95911066D01*
X223360632Y-95550948D01*
X223400500Y-95184370D01*
X261599500Y-95184370D01*
X261599868Y-95187757D01*
X261599869Y-95187768D01*
X261638092Y-95539220D01*
X261639368Y-95550948D01*
X261640100Y-95554275D01*
X261640101Y-95554279D01*
X261717901Y-95907730D01*
X261717904Y-95907741D01*
X261718636Y-95911066D01*
X261836375Y-96260503D01*
X261991205Y-96595162D01*
X262181310Y-96911119D01*
X262404462Y-97204670D01*
X262406813Y-97207152D01*
X262406814Y-97207153D01*
X262655698Y-97469897D01*
X262655703Y-97469902D01*
X262658044Y-97472373D01*
X262939083Y-97711090D01*
X263244284Y-97918022D01*
X263570070Y-98090743D01*
X263912621Y-98227227D01*
X264267919Y-98325875D01*
X264631801Y-98385531D01*
X264907890Y-98400500D01*
X264909610Y-98400500D01*
X265090390Y-98400500D01*
X265092110Y-98400500D01*
X265368199Y-98385531D01*
X265732081Y-98325875D01*
X266087379Y-98227227D01*
X266429930Y-98090743D01*
X266755716Y-97918022D01*
X267060917Y-97711090D01*
X267341956Y-97472373D01*
X267595538Y-97204670D01*
X267818690Y-96911119D01*
X268008795Y-96595162D01*
X268163625Y-96260503D01*
X268281364Y-95911066D01*
X268360632Y-95550948D01*
X268400500Y-95184370D01*
X268400500Y-94815630D01*
X268360632Y-94449052D01*
X268281364Y-94088934D01*
X268163625Y-93739497D01*
X268008795Y-93404838D01*
X267818690Y-93088881D01*
X267595538Y-92795330D01*
X267581231Y-92780227D01*
X267344301Y-92530102D01*
X267344295Y-92530096D01*
X267341956Y-92527627D01*
X267060917Y-92288910D01*
X267004169Y-92250434D01*
X266758538Y-92083891D01*
X266758533Y-92083888D01*
X266755716Y-92081978D01*
X266715275Y-92060537D01*
X266432941Y-91910853D01*
X266432936Y-91910850D01*
X266429930Y-91909257D01*
X266426763Y-91907995D01*
X266090548Y-91774035D01*
X266090537Y-91774031D01*
X266087379Y-91772773D01*
X266084098Y-91771862D01*
X266084092Y-91771860D01*
X265735375Y-91675039D01*
X265735365Y-91675036D01*
X265732081Y-91674125D01*
X265728722Y-91673574D01*
X265728707Y-91673571D01*
X265371576Y-91615022D01*
X265371564Y-91615020D01*
X265368199Y-91614469D01*
X265364789Y-91614284D01*
X265364779Y-91614283D01*
X265093831Y-91599593D01*
X265093819Y-91599592D01*
X265092110Y-91599500D01*
X264907890Y-91599500D01*
X264906181Y-91599592D01*
X264906168Y-91599593D01*
X264635220Y-91614283D01*
X264635208Y-91614284D01*
X264631801Y-91614469D01*
X264628437Y-91615020D01*
X264628423Y-91615022D01*
X264271292Y-91673571D01*
X264271273Y-91673574D01*
X264267919Y-91674125D01*
X264264638Y-91675035D01*
X264264624Y-91675039D01*
X263915907Y-91771860D01*
X263915896Y-91771863D01*
X263912621Y-91772773D01*
X263909467Y-91774029D01*
X263909451Y-91774035D01*
X263573236Y-91907995D01*
X263573227Y-91907999D01*
X263570070Y-91909257D01*
X263567070Y-91910847D01*
X263567058Y-91910853D01*
X263247301Y-92080378D01*
X263247294Y-92080382D01*
X263244284Y-92081978D01*
X263241474Y-92083882D01*
X263241461Y-92083891D01*
X262941908Y-92286994D01*
X262941900Y-92286999D01*
X262939083Y-92288910D01*
X262936483Y-92291118D01*
X262936477Y-92291123D01*
X262660640Y-92525421D01*
X262660630Y-92525430D01*
X262658044Y-92527627D01*
X262655713Y-92530087D01*
X262655698Y-92530102D01*
X262406814Y-92792846D01*
X262406805Y-92792855D01*
X262404462Y-92795330D01*
X262402395Y-92798048D01*
X262402395Y-92798049D01*
X262183380Y-93086157D01*
X262183373Y-93086165D01*
X262181310Y-93088881D01*
X262179552Y-93091801D01*
X262179545Y-93091813D01*
X261992966Y-93401911D01*
X261991205Y-93404838D01*
X261989775Y-93407928D01*
X261989768Y-93407942D01*
X261837808Y-93736398D01*
X261837803Y-93736409D01*
X261836375Y-93739497D01*
X261835289Y-93742719D01*
X261835285Y-93742730D01*
X261719726Y-94085697D01*
X261719722Y-94085708D01*
X261718636Y-94088934D01*
X261717905Y-94092253D01*
X261717901Y-94092269D01*
X261640101Y-94445720D01*
X261639368Y-94449052D01*
X261638999Y-94452442D01*
X261638999Y-94452444D01*
X261599869Y-94812231D01*
X261599868Y-94812243D01*
X261599500Y-94815630D01*
X261599500Y-95184370D01*
X223400500Y-95184370D01*
X223400500Y-94815630D01*
X223360632Y-94449052D01*
X223281364Y-94088934D01*
X223163625Y-93739497D01*
X223008795Y-93404838D01*
X222818690Y-93088881D01*
X222595538Y-92795330D01*
X222581231Y-92780227D01*
X222344301Y-92530102D01*
X222344295Y-92530096D01*
X222341956Y-92527627D01*
X222060917Y-92288910D01*
X222004169Y-92250434D01*
X221758538Y-92083891D01*
X221758533Y-92083888D01*
X221755716Y-92081978D01*
X221715275Y-92060537D01*
X221432941Y-91910853D01*
X221432936Y-91910850D01*
X221429930Y-91909257D01*
X221426763Y-91907995D01*
X221090548Y-91774035D01*
X221090537Y-91774031D01*
X221087379Y-91772773D01*
X221084098Y-91771862D01*
X221084092Y-91771860D01*
X220735375Y-91675039D01*
X220735365Y-91675036D01*
X220732081Y-91674125D01*
X220728722Y-91673574D01*
X220728707Y-91673571D01*
X220371576Y-91615022D01*
X220371564Y-91615020D01*
X220368199Y-91614469D01*
X220364789Y-91614284D01*
X220364779Y-91614283D01*
X220093831Y-91599593D01*
X220093819Y-91599592D01*
X220092110Y-91599500D01*
X219907890Y-91599500D01*
X219906181Y-91599592D01*
X219906168Y-91599593D01*
X219635220Y-91614283D01*
X219635208Y-91614284D01*
X219631801Y-91614469D01*
X219628437Y-91615020D01*
X219628423Y-91615022D01*
X219271292Y-91673571D01*
X219271273Y-91673574D01*
X219267919Y-91674125D01*
X219264638Y-91675035D01*
X219264624Y-91675039D01*
X218915907Y-91771860D01*
X218915896Y-91771863D01*
X218912621Y-91772773D01*
X218909467Y-91774029D01*
X218909451Y-91774035D01*
X218573236Y-91907995D01*
X218573227Y-91907999D01*
X218570070Y-91909257D01*
X218567070Y-91910847D01*
X218567058Y-91910853D01*
X218247301Y-92080378D01*
X218247294Y-92080382D01*
X218244284Y-92081978D01*
X218241474Y-92083882D01*
X218241461Y-92083891D01*
X217941908Y-92286994D01*
X217941900Y-92286999D01*
X217939083Y-92288910D01*
X217936483Y-92291118D01*
X217936477Y-92291123D01*
X217660640Y-92525421D01*
X217660630Y-92525430D01*
X217658044Y-92527627D01*
X217655713Y-92530087D01*
X217655698Y-92530102D01*
X217406814Y-92792846D01*
X217406805Y-92792855D01*
X217404462Y-92795330D01*
X217402395Y-92798048D01*
X217402395Y-92798049D01*
X217183380Y-93086157D01*
X217183373Y-93086165D01*
X217181310Y-93088881D01*
X217179552Y-93091801D01*
X217179545Y-93091813D01*
X216992966Y-93401911D01*
X216991205Y-93404838D01*
X216989775Y-93407928D01*
X216989768Y-93407942D01*
X216837808Y-93736398D01*
X216837803Y-93736409D01*
X216836375Y-93739497D01*
X216835289Y-93742719D01*
X216835285Y-93742730D01*
X216719726Y-94085697D01*
X216719722Y-94085708D01*
X216718636Y-94088934D01*
X216717905Y-94092253D01*
X216717901Y-94092269D01*
X216640101Y-94445720D01*
X216639368Y-94449052D01*
X216638999Y-94452442D01*
X216638999Y-94452444D01*
X216599869Y-94812231D01*
X216599868Y-94812243D01*
X216599500Y-94815630D01*
X216599500Y-95184370D01*
X178400500Y-95184370D01*
X178400500Y-94815630D01*
X178360632Y-94449052D01*
X178281364Y-94088934D01*
X178163625Y-93739497D01*
X178008795Y-93404838D01*
X177818690Y-93088881D01*
X177595538Y-92795330D01*
X177581231Y-92780227D01*
X177344301Y-92530102D01*
X177344295Y-92530096D01*
X177341956Y-92527627D01*
X177060917Y-92288910D01*
X177004169Y-92250434D01*
X176758538Y-92083891D01*
X176758533Y-92083888D01*
X176755716Y-92081978D01*
X176715275Y-92060537D01*
X176432941Y-91910853D01*
X176432936Y-91910850D01*
X176429930Y-91909257D01*
X176426763Y-91907995D01*
X176090548Y-91774035D01*
X176090537Y-91774031D01*
X176087379Y-91772773D01*
X176084098Y-91771862D01*
X176084092Y-91771860D01*
X175735375Y-91675039D01*
X175735365Y-91675036D01*
X175732081Y-91674125D01*
X175728722Y-91673574D01*
X175728707Y-91673571D01*
X175371576Y-91615022D01*
X175371564Y-91615020D01*
X175368199Y-91614469D01*
X175364789Y-91614284D01*
X175364779Y-91614283D01*
X175093831Y-91599593D01*
X175093819Y-91599592D01*
X175092110Y-91599500D01*
X174907890Y-91599500D01*
X174906181Y-91599592D01*
X174906168Y-91599593D01*
X174635220Y-91614283D01*
X174635208Y-91614284D01*
X174631801Y-91614469D01*
X174628437Y-91615020D01*
X174628423Y-91615022D01*
X174271292Y-91673571D01*
X174271273Y-91673574D01*
X174267919Y-91674125D01*
X174264638Y-91675035D01*
X174264624Y-91675039D01*
X173915907Y-91771860D01*
X173915896Y-91771863D01*
X173912621Y-91772773D01*
X173909467Y-91774029D01*
X173909451Y-91774035D01*
X173573236Y-91907995D01*
X173573227Y-91907999D01*
X173570070Y-91909257D01*
X173567070Y-91910847D01*
X173567058Y-91910853D01*
X173247301Y-92080378D01*
X173247294Y-92080382D01*
X173244284Y-92081978D01*
X173241474Y-92083882D01*
X173241461Y-92083891D01*
X172941908Y-92286994D01*
X172941900Y-92286999D01*
X172939083Y-92288910D01*
X172936483Y-92291118D01*
X172936477Y-92291123D01*
X172660640Y-92525421D01*
X172660630Y-92525430D01*
X172658044Y-92527627D01*
X172655713Y-92530087D01*
X172655698Y-92530102D01*
X172406814Y-92792846D01*
X172406805Y-92792855D01*
X172404462Y-92795330D01*
X172402395Y-92798048D01*
X172402395Y-92798049D01*
X172183380Y-93086157D01*
X172183373Y-93086165D01*
X172181310Y-93088881D01*
X172179552Y-93091801D01*
X172179545Y-93091813D01*
X171992966Y-93401911D01*
X171991205Y-93404838D01*
X171989775Y-93407928D01*
X171989768Y-93407942D01*
X171837808Y-93736398D01*
X171837803Y-93736409D01*
X171836375Y-93739497D01*
X171835289Y-93742719D01*
X171835285Y-93742730D01*
X171719726Y-94085697D01*
X171719722Y-94085708D01*
X171718636Y-94088934D01*
X171717905Y-94092253D01*
X171717901Y-94092269D01*
X171640101Y-94445720D01*
X171639368Y-94449052D01*
X171638999Y-94452442D01*
X171638999Y-94452444D01*
X171599869Y-94812231D01*
X171599868Y-94812243D01*
X171599500Y-94815630D01*
X171599500Y-95184370D01*
X170100500Y-95184370D01*
X170100500Y-92004120D01*
X170100770Y-91995881D01*
X170109523Y-91862326D01*
X170116210Y-91760298D01*
X170118358Y-91743979D01*
X170163616Y-91516456D01*
X170167875Y-91500561D01*
X170242441Y-91280898D01*
X170248735Y-91265702D01*
X170351339Y-91057641D01*
X170359563Y-91043398D01*
X170488444Y-90850513D01*
X170498457Y-90837463D01*
X170651418Y-90663045D01*
X170663045Y-90651418D01*
X170837463Y-90498457D01*
X170850513Y-90488444D01*
X171043398Y-90359563D01*
X171057641Y-90351339D01*
X171265702Y-90248735D01*
X171280898Y-90242441D01*
X171500561Y-90167875D01*
X171516456Y-90163616D01*
X171743979Y-90118358D01*
X171760298Y-90116210D01*
X171984271Y-90101530D01*
X171995881Y-90100770D01*
X172004121Y-90100500D01*
X172026929Y-90100500D01*
X267973071Y-90100500D01*
X267995879Y-90100500D01*
X268004119Y-90100770D01*
G37*
%TD.AperFunction*%
%TD*%
M02*
