M48
; DRILL file {KiCad 7.0.2-6a45011f42~172~ubuntu22.04.1} date Tue 30 May 2023 13:10:41
; FORMAT={-:-/ absolute / inch / decimal}
; #@! TF.CreationDate,2023-05-30T13:10:41+12:00
; #@! TF.GenerationSoftware,Kicad,Pcbnew,7.0.2-6a45011f42~172~ubuntu22.04.1
; #@! TF.FileFunction,Plated,1,2,PTH
FMAT,2
INCH
; #@! TA.AperFunction,Plated,PTH,ViaDrill
T1C0.0157
; #@! TA.AperFunction,Plated,PTH,ComponentDrill
T2C0.0394
; #@! TA.AperFunction,Plated,PTH,ComponentDrill
T3C0.0591
; #@! TA.AperFunction,Plated,PTH,ComponentDrill
T4C0.0669
%
G90
G05
T1
X6.8352Y-3.9573
X6.8352Y-4.2073
X6.8352Y-4.4573
X6.8352Y-4.7073
X6.8352Y-4.9573
X6.8352Y-5.2073
X6.8352Y-5.7073
X6.8352Y-5.9573
X6.8352Y-6.2073
X6.8352Y-6.4573
X6.8352Y-6.7073
X6.8352Y-6.9573
X7.0852Y-3.7073
X7.0852Y-3.9573
X7.0852Y-4.2073
X7.0852Y-4.4573
X7.0852Y-4.7073
X7.0852Y-4.9573
X7.0852Y-5.2073
X7.0852Y-5.4573
X7.0852Y-5.7073
X7.0852Y-5.9573
X7.0852Y-6.2073
X7.0852Y-6.4573
X7.0852Y-7.2073
X7.3352Y-3.7073
X7.3352Y-3.9573
X7.3352Y-3.9573
X7.3352Y-4.4573
X7.3352Y-4.4573
X7.3352Y-4.7073
X7.3352Y-4.7073
X7.3352Y-5.2073
X7.3352Y-5.4573
X7.3352Y-5.7073
X7.3352Y-5.9573
X7.3352Y-6.2073
X7.3352Y-6.4573
X7.3352Y-7.2073
X7.5852Y-3.7073
X7.5852Y-3.9573
X7.5852Y-4.2073
X7.5852Y-4.4573
X7.5852Y-4.7073
X7.5852Y-4.9573
X7.5852Y-5.2073
X7.5852Y-5.4573
X7.5852Y-5.7073
X7.5852Y-5.9573
X7.5852Y-6.2073
X7.5852Y-6.4573
X7.5852Y-7.2073
X7.8352Y-3.7073
X7.8352Y-3.9573
X7.8352Y-4.2073
X7.8352Y-4.4573
X7.8352Y-4.7073
X7.8352Y-4.9573
X7.8352Y-5.2073
X7.8352Y-5.4573
X7.8352Y-5.7073
X7.8352Y-5.9573
X7.8352Y-6.2073
X7.8352Y-6.4573
X7.8352Y-7.2073
X8.0852Y-3.7073
X8.0852Y-3.9573
X8.0852Y-4.2073
X8.0852Y-4.4573
X8.0852Y-4.7073
X8.0852Y-4.9573
X8.0852Y-5.2073
X8.0852Y-5.4573
X8.0852Y-5.7073
X8.0852Y-6.4573
X8.0852Y-7.2073
X8.3352Y-3.7073
X8.3352Y-3.9573
X8.3352Y-4.2073
X8.3352Y-4.4573
X8.3352Y-4.7073
X8.3352Y-4.9573
X8.3352Y-5.2073
X8.3352Y-5.9573
X8.3352Y-6.2073
X8.3352Y-6.4573
X8.3352Y-7.2073
X8.4252Y-5.0059
X8.5852Y-3.9573
X8.5852Y-4.2073
X8.5852Y-4.4573
X8.5852Y-4.7073
X8.5852Y-5.7073
X8.5852Y-6.4573
X8.5875Y-4.9458
X8.6024Y-5.0089
X8.6614Y-5.0089
X8.7205Y-5.0089
X8.7795Y-5.0108
X8.8352Y-3.9573
X8.8352Y-4.4573
X8.8352Y-4.7073
X8.8352Y-4.9573
X8.8352Y-5.7073
X8.8352Y-5.9573
X8.8352Y-6.2073
X8.8352Y-6.4573
X8.8352Y-7.2073
X8.8419Y-5.2081
X8.8878Y-4.8091
X8.8976Y-5.0089
X9.0852Y-3.7073
X9.0852Y-3.9573
X9.0852Y-4.4573
X9.0852Y-4.7073
X9.0852Y-4.9573
X9.0852Y-5.2073
X9.0852Y-5.4573
X9.0852Y-5.7073
X9.0852Y-6.4573
X9.0852Y-7.2073
X9.3352Y-3.7073
X9.3352Y-3.9573
X9.3352Y-4.4573
X9.3352Y-4.7073
X9.3352Y-4.9573
X9.3352Y-5.2073
X9.3352Y-5.4573
X9.3352Y-5.7073
X9.3352Y-5.9573
X9.3352Y-6.2073
X9.3352Y-6.4573
X9.3352Y-7.2073
X9.4646Y-4.3438
X9.4793Y-4.1112
X9.5295Y-4.1102
X9.5308Y-3.9862
X9.5581Y-4.2697
X9.5583Y-4.0325
X9.5787Y-4.1112
X9.5817Y-4.2077
X9.5852Y-3.7073
X9.5852Y-3.9573
X9.5852Y-4.4573
X9.5852Y-4.7073
X9.5852Y-4.9573
X9.5852Y-5.2073
X9.5852Y-5.4573
X9.5852Y-5.7073
X9.5852Y-5.9573
X9.5852Y-6.2073
X9.5852Y-6.4573
X9.5852Y-7.2073
X9.6063Y-4.2697
X9.6295Y-4.1108
X9.6295Y-4.1608
X9.7125Y-4.1024
X9.7125Y-4.1703
X9.8352Y-3.7073
X9.8352Y-3.9573
X9.8352Y-4.4573
X9.8352Y-4.7073
X9.8352Y-4.9573
X9.8352Y-5.2073
X9.8352Y-5.4573
X9.8352Y-5.7073
X9.8352Y-5.9573
X9.8352Y-6.2073
X9.8352Y-6.4573
X9.8352Y-7.2073
X10.0852Y-3.7073
X10.0852Y-3.9573
X10.0852Y-4.4573
X10.0852Y-4.7073
X10.0852Y-4.9573
X10.0852Y-5.2073
X10.0852Y-5.4573
X10.0852Y-5.7073
X10.0852Y-5.9573
X10.0852Y-6.2073
X10.0852Y-6.4573
X10.0852Y-7.2073
X10.3352Y-3.9573
X10.3352Y-4.2073
X10.3352Y-4.4573
X10.3352Y-4.7073
X10.3352Y-4.9573
X10.3352Y-5.2073
X10.3352Y-5.7073
X10.3352Y-5.9573
X10.3352Y-6.2073
X10.3352Y-6.4573
X10.3352Y-6.7073
X10.3352Y-6.9573
T2
X7.1925Y-4.1776
X7.2425Y-4.8776
X7.2925Y-4.1776
X7.3425Y-4.8776
X7.3925Y-4.1776
X7.4425Y-4.8776
X7.4925Y-4.1776
X8.4252Y-5.1654
X8.4646Y-5.3543
X8.5646Y-5.3543
X8.5827Y-5.1654
X8.7402Y-5.1654
X8.8976Y-5.1654
X9.8303Y-4.2429
X9.9303Y-4.2429
X10.0303Y-4.2429
X10.1303Y-4.0429
X10.1303Y-4.1429
X10.1303Y-4.2429
T3
X8.9665Y-4.311
X9.1043Y-4.311
T4
X8.3268Y-5.3622
X8.3268Y-5.4622
X8.3268Y-5.5622
X8.3268Y-5.6622
X8.5433Y-5.2323
X8.6024Y-5.4528
X8.6024Y-5.5709
X8.6614Y-5.2323
X8.7205Y-5.4528
X8.7205Y-5.5709
X8.7795Y-5.2323
X8.9961Y-5.3622
X8.9961Y-5.4622
X8.9961Y-5.5622
X8.9961Y-5.6622
T0
M30
