%TF.GenerationSoftware,KiCad,Pcbnew,7.0.2-6a45011f42~172~ubuntu22.04.1*%
%TF.CreationDate,2023-05-30T13:10:41+12:00*%
%TF.ProjectId,THE_BRAWN-20A_LOGIC_FIXTURE,5448455f-4252-4415-974e-2d3230415f4c,v1.0*%
%TF.SameCoordinates,Original*%
%TF.FileFunction,Drillmap*%
%TF.FilePolarity,Positive*%
%FSLAX45Y45*%
G04 Gerber Fmt 4.5, Leading zero omitted, Abs format (unit mm)*
G04 Created by KiCad (PCBNEW 7.0.2-6a45011f42~172~ubuntu22.04.1) date 2023-05-30 13:10:41*
%MOMM*%
%LPD*%
G01*
G04 APERTURE LIST*
%ADD10C,0.100000*%
%ADD11C,0.200000*%
%ADD12C,0.099060*%
%ADD13C,0.237490*%
%ADD14C,0.300000*%
%ADD15C,0.320000*%
G04 APERTURE END LIST*
D10*
X17200000Y-19000000D02*
X26800000Y-19000000D01*
X18050000Y-18000000D02*
X25950000Y-18000000D01*
X26800000Y-9000000D02*
X17200000Y-9000000D01*
X27000000Y-9200000D02*
G75*
G03*
X26800000Y-9000000I-200000J0D01*
G01*
X17000000Y-18800000D02*
G75*
G03*
X17200000Y-19000000I200000J0D01*
G01*
X18000000Y-17950000D02*
G75*
G03*
X18050000Y-18000000I50000J0D01*
G01*
X27000000Y-18800000D02*
X27000000Y-9200000D01*
X26000000Y-17050000D02*
G75*
G03*
X25950000Y-17000000I-50000J0D01*
G01*
X26800000Y-19000000D02*
G75*
G03*
X27000000Y-18800000I0J200000D01*
G01*
X18050000Y-17000000D02*
X25950000Y-17000000D01*
X18000000Y-17050000D02*
X18000000Y-17950000D01*
X25950000Y-18000000D02*
G75*
G03*
X26000000Y-17950000I0J50000D01*
G01*
X26000000Y-17050000D02*
X26000000Y-17950000D01*
X17200000Y-9000000D02*
G75*
G03*
X17000000Y-9200000I0J-200000D01*
G01*
X18050000Y-17000000D02*
G75*
G03*
X18000000Y-17050000I0J-50000D01*
G01*
X17000000Y-9200000D02*
X17000000Y-18800000D01*
D11*
D12*
X23774470Y-10353870D02*
X23873530Y-10452930D01*
X23873530Y-10353870D02*
X23774470Y-10452930D01*
X23774470Y-10557070D02*
X23873530Y-10656130D01*
X23873530Y-10557070D02*
X23774470Y-10656130D01*
X24536470Y-10455470D02*
X24635530Y-10554530D01*
X24635530Y-10455470D02*
X24536470Y-10554530D01*
D13*
X24133245Y-10251000D02*
G75*
G03*
X24133245Y-10251000I-118745J0D01*
G01*
X24133245Y-10759000D02*
G75*
G03*
X24133245Y-10759000I-118745J0D01*
G01*
X24704745Y-10251000D02*
G75*
G03*
X24704745Y-10251000I-118745J0D01*
G01*
X24704745Y-10759000D02*
G75*
G03*
X24704745Y-10759000I-118745J0D01*
G01*
D14*
X20700000Y-14750000D02*
X20700000Y-15050000D01*
X20550000Y-14900000D02*
X20850000Y-14900000D01*
X20700000Y-15650000D02*
X20700000Y-15950000D01*
X20550000Y-15800000D02*
X20850000Y-15800000D01*
X22000000Y-14750000D02*
X22000000Y-15050000D01*
X21850000Y-14900000D02*
X22150000Y-14900000D01*
X22000000Y-15650000D02*
X22000000Y-15950000D01*
X21850000Y-15800000D02*
X22150000Y-15800000D01*
D15*
X17613138Y-9613138D02*
X17613138Y-9386862D01*
X17386862Y-9386862D01*
X17386862Y-9613138D01*
X17613138Y-9613138D01*
X17613138Y-14113138D02*
X17613138Y-13886862D01*
X17386862Y-13886862D01*
X17386862Y-14113138D01*
X17613138Y-14113138D01*
X17613138Y-18613138D02*
X17613138Y-18386862D01*
X17386862Y-18386862D01*
X17386862Y-18613138D01*
X17613138Y-18613138D01*
X22113138Y-9613138D02*
X22113138Y-9386862D01*
X21886862Y-9386862D01*
X21886862Y-9613138D01*
X22113138Y-9613138D01*
X22113138Y-18613138D02*
X22113138Y-18386862D01*
X21886862Y-18386862D01*
X21886862Y-18613138D01*
X22113138Y-18613138D01*
X22763138Y-10565638D02*
X22763138Y-10339362D01*
X22536862Y-10339362D01*
X22536862Y-10565638D01*
X22763138Y-10565638D01*
X23363138Y-10565638D02*
X23363138Y-10339362D01*
X23136862Y-10339362D01*
X23136862Y-10565638D01*
X23363138Y-10565638D01*
X23413138Y-15013138D02*
X23413138Y-14786862D01*
X23186862Y-14786862D01*
X23186862Y-15013138D01*
X23413138Y-15013138D01*
X23413138Y-15913138D02*
X23413138Y-15686862D01*
X23186862Y-15686862D01*
X23186862Y-15913138D01*
X23413138Y-15913138D01*
X26613138Y-9613138D02*
X26613138Y-9386862D01*
X26386862Y-9386862D01*
X26386862Y-9613138D01*
X26613138Y-9613138D01*
X26613138Y-14113138D02*
X26613138Y-13886862D01*
X26386862Y-13886862D01*
X26386862Y-14113138D01*
X26613138Y-14113138D01*
X26613138Y-18613138D02*
X26613138Y-18386862D01*
X26386862Y-18386862D01*
X26386862Y-18613138D01*
X26613138Y-18613138D01*
D11*
X17242619Y-19317524D02*
X17242619Y-19117524D01*
X17242619Y-19117524D02*
X17290238Y-19117524D01*
X17290238Y-19117524D02*
X17318810Y-19127048D01*
X17318810Y-19127048D02*
X17337857Y-19146095D01*
X17337857Y-19146095D02*
X17347381Y-19165143D01*
X17347381Y-19165143D02*
X17356905Y-19203238D01*
X17356905Y-19203238D02*
X17356905Y-19231810D01*
X17356905Y-19231810D02*
X17347381Y-19269905D01*
X17347381Y-19269905D02*
X17337857Y-19288952D01*
X17337857Y-19288952D02*
X17318810Y-19308000D01*
X17318810Y-19308000D02*
X17290238Y-19317524D01*
X17290238Y-19317524D02*
X17242619Y-19317524D01*
X17442619Y-19317524D02*
X17442619Y-19184190D01*
X17442619Y-19222286D02*
X17452143Y-19203238D01*
X17452143Y-19203238D02*
X17461667Y-19193714D01*
X17461667Y-19193714D02*
X17480714Y-19184190D01*
X17480714Y-19184190D02*
X17499762Y-19184190D01*
X17566429Y-19317524D02*
X17566429Y-19184190D01*
X17566429Y-19117524D02*
X17556905Y-19127048D01*
X17556905Y-19127048D02*
X17566429Y-19136571D01*
X17566429Y-19136571D02*
X17575952Y-19127048D01*
X17575952Y-19127048D02*
X17566429Y-19117524D01*
X17566429Y-19117524D02*
X17566429Y-19136571D01*
X17690238Y-19317524D02*
X17671190Y-19308000D01*
X17671190Y-19308000D02*
X17661667Y-19288952D01*
X17661667Y-19288952D02*
X17661667Y-19117524D01*
X17795000Y-19317524D02*
X17775952Y-19308000D01*
X17775952Y-19308000D02*
X17766429Y-19288952D01*
X17766429Y-19288952D02*
X17766429Y-19117524D01*
X18023571Y-19317524D02*
X18023571Y-19117524D01*
X18023571Y-19117524D02*
X18090238Y-19260381D01*
X18090238Y-19260381D02*
X18156905Y-19117524D01*
X18156905Y-19117524D02*
X18156905Y-19317524D01*
X18337857Y-19317524D02*
X18337857Y-19212762D01*
X18337857Y-19212762D02*
X18328333Y-19193714D01*
X18328333Y-19193714D02*
X18309286Y-19184190D01*
X18309286Y-19184190D02*
X18271190Y-19184190D01*
X18271190Y-19184190D02*
X18252143Y-19193714D01*
X18337857Y-19308000D02*
X18318810Y-19317524D01*
X18318810Y-19317524D02*
X18271190Y-19317524D01*
X18271190Y-19317524D02*
X18252143Y-19308000D01*
X18252143Y-19308000D02*
X18242619Y-19288952D01*
X18242619Y-19288952D02*
X18242619Y-19269905D01*
X18242619Y-19269905D02*
X18252143Y-19250857D01*
X18252143Y-19250857D02*
X18271190Y-19241333D01*
X18271190Y-19241333D02*
X18318810Y-19241333D01*
X18318810Y-19241333D02*
X18337857Y-19231810D01*
X18433095Y-19184190D02*
X18433095Y-19384190D01*
X18433095Y-19193714D02*
X18452143Y-19184190D01*
X18452143Y-19184190D02*
X18490238Y-19184190D01*
X18490238Y-19184190D02*
X18509286Y-19193714D01*
X18509286Y-19193714D02*
X18518810Y-19203238D01*
X18518810Y-19203238D02*
X18528333Y-19222286D01*
X18528333Y-19222286D02*
X18528333Y-19279429D01*
X18528333Y-19279429D02*
X18518810Y-19298476D01*
X18518810Y-19298476D02*
X18509286Y-19308000D01*
X18509286Y-19308000D02*
X18490238Y-19317524D01*
X18490238Y-19317524D02*
X18452143Y-19317524D01*
X18452143Y-19317524D02*
X18433095Y-19308000D01*
X18614048Y-19298476D02*
X18623571Y-19308000D01*
X18623571Y-19308000D02*
X18614048Y-19317524D01*
X18614048Y-19317524D02*
X18604524Y-19308000D01*
X18604524Y-19308000D02*
X18614048Y-19298476D01*
X18614048Y-19298476D02*
X18614048Y-19317524D01*
X18614048Y-19193714D02*
X18623571Y-19203238D01*
X18623571Y-19203238D02*
X18614048Y-19212762D01*
X18614048Y-19212762D02*
X18604524Y-19203238D01*
X18604524Y-19203238D02*
X18614048Y-19193714D01*
X18614048Y-19193714D02*
X18614048Y-19212762D01*
D12*
X16895940Y-19595470D02*
X16995000Y-19694530D01*
X16995000Y-19595470D02*
X16895940Y-19694530D01*
D11*
X17280714Y-19537524D02*
X17299762Y-19537524D01*
X17299762Y-19537524D02*
X17318810Y-19547048D01*
X17318810Y-19547048D02*
X17328333Y-19556571D01*
X17328333Y-19556571D02*
X17337857Y-19575619D01*
X17337857Y-19575619D02*
X17347381Y-19613714D01*
X17347381Y-19613714D02*
X17347381Y-19661333D01*
X17347381Y-19661333D02*
X17337857Y-19699429D01*
X17337857Y-19699429D02*
X17328333Y-19718476D01*
X17328333Y-19718476D02*
X17318810Y-19728000D01*
X17318810Y-19728000D02*
X17299762Y-19737524D01*
X17299762Y-19737524D02*
X17280714Y-19737524D01*
X17280714Y-19737524D02*
X17261667Y-19728000D01*
X17261667Y-19728000D02*
X17252143Y-19718476D01*
X17252143Y-19718476D02*
X17242619Y-19699429D01*
X17242619Y-19699429D02*
X17233095Y-19661333D01*
X17233095Y-19661333D02*
X17233095Y-19613714D01*
X17233095Y-19613714D02*
X17242619Y-19575619D01*
X17242619Y-19575619D02*
X17252143Y-19556571D01*
X17252143Y-19556571D02*
X17261667Y-19547048D01*
X17261667Y-19547048D02*
X17280714Y-19537524D01*
X17433095Y-19718476D02*
X17442619Y-19728000D01*
X17442619Y-19728000D02*
X17433095Y-19737524D01*
X17433095Y-19737524D02*
X17423571Y-19728000D01*
X17423571Y-19728000D02*
X17433095Y-19718476D01*
X17433095Y-19718476D02*
X17433095Y-19737524D01*
X17537857Y-19737524D02*
X17575952Y-19737524D01*
X17575952Y-19737524D02*
X17595000Y-19728000D01*
X17595000Y-19728000D02*
X17604524Y-19718476D01*
X17604524Y-19718476D02*
X17623571Y-19689905D01*
X17623571Y-19689905D02*
X17633095Y-19651810D01*
X17633095Y-19651810D02*
X17633095Y-19575619D01*
X17633095Y-19575619D02*
X17623571Y-19556571D01*
X17623571Y-19556571D02*
X17614048Y-19547048D01*
X17614048Y-19547048D02*
X17595000Y-19537524D01*
X17595000Y-19537524D02*
X17556905Y-19537524D01*
X17556905Y-19537524D02*
X17537857Y-19547048D01*
X17537857Y-19547048D02*
X17528333Y-19556571D01*
X17528333Y-19556571D02*
X17518810Y-19575619D01*
X17518810Y-19575619D02*
X17518810Y-19623238D01*
X17518810Y-19623238D02*
X17528333Y-19642286D01*
X17528333Y-19642286D02*
X17537857Y-19651810D01*
X17537857Y-19651810D02*
X17556905Y-19661333D01*
X17556905Y-19661333D02*
X17595000Y-19661333D01*
X17595000Y-19661333D02*
X17614048Y-19651810D01*
X17614048Y-19651810D02*
X17623571Y-19642286D01*
X17623571Y-19642286D02*
X17633095Y-19623238D01*
X17728333Y-19737524D02*
X17766429Y-19737524D01*
X17766429Y-19737524D02*
X17785476Y-19728000D01*
X17785476Y-19728000D02*
X17795000Y-19718476D01*
X17795000Y-19718476D02*
X17814048Y-19689905D01*
X17814048Y-19689905D02*
X17823571Y-19651810D01*
X17823571Y-19651810D02*
X17823571Y-19575619D01*
X17823571Y-19575619D02*
X17814048Y-19556571D01*
X17814048Y-19556571D02*
X17804524Y-19547048D01*
X17804524Y-19547048D02*
X17785476Y-19537524D01*
X17785476Y-19537524D02*
X17747381Y-19537524D01*
X17747381Y-19537524D02*
X17728333Y-19547048D01*
X17728333Y-19547048D02*
X17718810Y-19556571D01*
X17718810Y-19556571D02*
X17709286Y-19575619D01*
X17709286Y-19575619D02*
X17709286Y-19623238D01*
X17709286Y-19623238D02*
X17718810Y-19642286D01*
X17718810Y-19642286D02*
X17728333Y-19651810D01*
X17728333Y-19651810D02*
X17747381Y-19661333D01*
X17747381Y-19661333D02*
X17785476Y-19661333D01*
X17785476Y-19661333D02*
X17804524Y-19651810D01*
X17804524Y-19651810D02*
X17814048Y-19642286D01*
X17814048Y-19642286D02*
X17823571Y-19623238D01*
X18014048Y-19737524D02*
X17899762Y-19737524D01*
X17956905Y-19737524D02*
X17956905Y-19537524D01*
X17956905Y-19537524D02*
X17937857Y-19566095D01*
X17937857Y-19566095D02*
X17918810Y-19585143D01*
X17918810Y-19585143D02*
X17899762Y-19594667D01*
X18099762Y-19737524D02*
X18099762Y-19604190D01*
X18099762Y-19623238D02*
X18109286Y-19613714D01*
X18109286Y-19613714D02*
X18128333Y-19604190D01*
X18128333Y-19604190D02*
X18156905Y-19604190D01*
X18156905Y-19604190D02*
X18175952Y-19613714D01*
X18175952Y-19613714D02*
X18185476Y-19632762D01*
X18185476Y-19632762D02*
X18185476Y-19737524D01*
X18185476Y-19632762D02*
X18195000Y-19613714D01*
X18195000Y-19613714D02*
X18214048Y-19604190D01*
X18214048Y-19604190D02*
X18242619Y-19604190D01*
X18242619Y-19604190D02*
X18261667Y-19613714D01*
X18261667Y-19613714D02*
X18271191Y-19632762D01*
X18271191Y-19632762D02*
X18271191Y-19737524D01*
X18366429Y-19737524D02*
X18366429Y-19604190D01*
X18366429Y-19623238D02*
X18375952Y-19613714D01*
X18375952Y-19613714D02*
X18395000Y-19604190D01*
X18395000Y-19604190D02*
X18423572Y-19604190D01*
X18423572Y-19604190D02*
X18442619Y-19613714D01*
X18442619Y-19613714D02*
X18452143Y-19632762D01*
X18452143Y-19632762D02*
X18452143Y-19737524D01*
X18452143Y-19632762D02*
X18461667Y-19613714D01*
X18461667Y-19613714D02*
X18480714Y-19604190D01*
X18480714Y-19604190D02*
X18509286Y-19604190D01*
X18509286Y-19604190D02*
X18528333Y-19613714D01*
X18528333Y-19613714D02*
X18537857Y-19632762D01*
X18537857Y-19632762D02*
X18537857Y-19737524D01*
X18928333Y-19528000D02*
X18756905Y-19785143D01*
X19185476Y-19537524D02*
X19204524Y-19537524D01*
X19204524Y-19537524D02*
X19223572Y-19547048D01*
X19223572Y-19547048D02*
X19233095Y-19556571D01*
X19233095Y-19556571D02*
X19242619Y-19575619D01*
X19242619Y-19575619D02*
X19252143Y-19613714D01*
X19252143Y-19613714D02*
X19252143Y-19661333D01*
X19252143Y-19661333D02*
X19242619Y-19699429D01*
X19242619Y-19699429D02*
X19233095Y-19718476D01*
X19233095Y-19718476D02*
X19223572Y-19728000D01*
X19223572Y-19728000D02*
X19204524Y-19737524D01*
X19204524Y-19737524D02*
X19185476Y-19737524D01*
X19185476Y-19737524D02*
X19166429Y-19728000D01*
X19166429Y-19728000D02*
X19156905Y-19718476D01*
X19156905Y-19718476D02*
X19147381Y-19699429D01*
X19147381Y-19699429D02*
X19137857Y-19661333D01*
X19137857Y-19661333D02*
X19137857Y-19613714D01*
X19137857Y-19613714D02*
X19147381Y-19575619D01*
X19147381Y-19575619D02*
X19156905Y-19556571D01*
X19156905Y-19556571D02*
X19166429Y-19547048D01*
X19166429Y-19547048D02*
X19185476Y-19537524D01*
X19337857Y-19718476D02*
X19347381Y-19728000D01*
X19347381Y-19728000D02*
X19337857Y-19737524D01*
X19337857Y-19737524D02*
X19328334Y-19728000D01*
X19328334Y-19728000D02*
X19337857Y-19718476D01*
X19337857Y-19718476D02*
X19337857Y-19737524D01*
X19471191Y-19537524D02*
X19490238Y-19537524D01*
X19490238Y-19537524D02*
X19509286Y-19547048D01*
X19509286Y-19547048D02*
X19518810Y-19556571D01*
X19518810Y-19556571D02*
X19528334Y-19575619D01*
X19528334Y-19575619D02*
X19537857Y-19613714D01*
X19537857Y-19613714D02*
X19537857Y-19661333D01*
X19537857Y-19661333D02*
X19528334Y-19699429D01*
X19528334Y-19699429D02*
X19518810Y-19718476D01*
X19518810Y-19718476D02*
X19509286Y-19728000D01*
X19509286Y-19728000D02*
X19490238Y-19737524D01*
X19490238Y-19737524D02*
X19471191Y-19737524D01*
X19471191Y-19737524D02*
X19452143Y-19728000D01*
X19452143Y-19728000D02*
X19442619Y-19718476D01*
X19442619Y-19718476D02*
X19433095Y-19699429D01*
X19433095Y-19699429D02*
X19423572Y-19661333D01*
X19423572Y-19661333D02*
X19423572Y-19613714D01*
X19423572Y-19613714D02*
X19433095Y-19575619D01*
X19433095Y-19575619D02*
X19442619Y-19556571D01*
X19442619Y-19556571D02*
X19452143Y-19547048D01*
X19452143Y-19547048D02*
X19471191Y-19537524D01*
X19604524Y-19537524D02*
X19728334Y-19537524D01*
X19728334Y-19537524D02*
X19661667Y-19613714D01*
X19661667Y-19613714D02*
X19690238Y-19613714D01*
X19690238Y-19613714D02*
X19709286Y-19623238D01*
X19709286Y-19623238D02*
X19718810Y-19632762D01*
X19718810Y-19632762D02*
X19728334Y-19651810D01*
X19728334Y-19651810D02*
X19728334Y-19699429D01*
X19728334Y-19699429D02*
X19718810Y-19718476D01*
X19718810Y-19718476D02*
X19709286Y-19728000D01*
X19709286Y-19728000D02*
X19690238Y-19737524D01*
X19690238Y-19737524D02*
X19633095Y-19737524D01*
X19633095Y-19737524D02*
X19614048Y-19728000D01*
X19614048Y-19728000D02*
X19604524Y-19718476D01*
X19823572Y-19737524D02*
X19861667Y-19737524D01*
X19861667Y-19737524D02*
X19880715Y-19728000D01*
X19880715Y-19728000D02*
X19890238Y-19718476D01*
X19890238Y-19718476D02*
X19909286Y-19689905D01*
X19909286Y-19689905D02*
X19918810Y-19651810D01*
X19918810Y-19651810D02*
X19918810Y-19575619D01*
X19918810Y-19575619D02*
X19909286Y-19556571D01*
X19909286Y-19556571D02*
X19899762Y-19547048D01*
X19899762Y-19547048D02*
X19880715Y-19537524D01*
X19880715Y-19537524D02*
X19842619Y-19537524D01*
X19842619Y-19537524D02*
X19823572Y-19547048D01*
X19823572Y-19547048D02*
X19814048Y-19556571D01*
X19814048Y-19556571D02*
X19804524Y-19575619D01*
X19804524Y-19575619D02*
X19804524Y-19623238D01*
X19804524Y-19623238D02*
X19814048Y-19642286D01*
X19814048Y-19642286D02*
X19823572Y-19651810D01*
X19823572Y-19651810D02*
X19842619Y-19661333D01*
X19842619Y-19661333D02*
X19880715Y-19661333D01*
X19880715Y-19661333D02*
X19899762Y-19651810D01*
X19899762Y-19651810D02*
X19909286Y-19642286D01*
X19909286Y-19642286D02*
X19918810Y-19623238D01*
X20042619Y-19537524D02*
X20061667Y-19537524D01*
X20061667Y-19537524D02*
X20080715Y-19547048D01*
X20080715Y-19547048D02*
X20090238Y-19556571D01*
X20090238Y-19556571D02*
X20099762Y-19575619D01*
X20099762Y-19575619D02*
X20109286Y-19613714D01*
X20109286Y-19613714D02*
X20109286Y-19661333D01*
X20109286Y-19661333D02*
X20099762Y-19699429D01*
X20099762Y-19699429D02*
X20090238Y-19718476D01*
X20090238Y-19718476D02*
X20080715Y-19728000D01*
X20080715Y-19728000D02*
X20061667Y-19737524D01*
X20061667Y-19737524D02*
X20042619Y-19737524D01*
X20042619Y-19737524D02*
X20023572Y-19728000D01*
X20023572Y-19728000D02*
X20014048Y-19718476D01*
X20014048Y-19718476D02*
X20004524Y-19699429D01*
X20004524Y-19699429D02*
X19995000Y-19661333D01*
X19995000Y-19661333D02*
X19995000Y-19613714D01*
X19995000Y-19613714D02*
X20004524Y-19575619D01*
X20004524Y-19575619D02*
X20014048Y-19556571D01*
X20014048Y-19556571D02*
X20023572Y-19547048D01*
X20023572Y-19547048D02*
X20042619Y-19537524D01*
X20185476Y-19537524D02*
X20185476Y-19575619D01*
X20261667Y-19537524D02*
X20261667Y-19575619D01*
X20556905Y-19813714D02*
X20547381Y-19804190D01*
X20547381Y-19804190D02*
X20528334Y-19775619D01*
X20528334Y-19775619D02*
X20518810Y-19756571D01*
X20518810Y-19756571D02*
X20509286Y-19728000D01*
X20509286Y-19728000D02*
X20499762Y-19680381D01*
X20499762Y-19680381D02*
X20499762Y-19642286D01*
X20499762Y-19642286D02*
X20509286Y-19594667D01*
X20509286Y-19594667D02*
X20518810Y-19566095D01*
X20518810Y-19566095D02*
X20528334Y-19547048D01*
X20528334Y-19547048D02*
X20547381Y-19518476D01*
X20547381Y-19518476D02*
X20556905Y-19508952D01*
X20614048Y-19537524D02*
X20737857Y-19537524D01*
X20737857Y-19537524D02*
X20671191Y-19613714D01*
X20671191Y-19613714D02*
X20699762Y-19613714D01*
X20699762Y-19613714D02*
X20718810Y-19623238D01*
X20718810Y-19623238D02*
X20728334Y-19632762D01*
X20728334Y-19632762D02*
X20737857Y-19651810D01*
X20737857Y-19651810D02*
X20737857Y-19699429D01*
X20737857Y-19699429D02*
X20728334Y-19718476D01*
X20728334Y-19718476D02*
X20718810Y-19728000D01*
X20718810Y-19728000D02*
X20699762Y-19737524D01*
X20699762Y-19737524D02*
X20642619Y-19737524D01*
X20642619Y-19737524D02*
X20623572Y-19728000D01*
X20623572Y-19728000D02*
X20614048Y-19718476D01*
X20975953Y-19737524D02*
X20975953Y-19537524D01*
X21061667Y-19737524D02*
X21061667Y-19632762D01*
X21061667Y-19632762D02*
X21052143Y-19613714D01*
X21052143Y-19613714D02*
X21033096Y-19604190D01*
X21033096Y-19604190D02*
X21004524Y-19604190D01*
X21004524Y-19604190D02*
X20985477Y-19613714D01*
X20985477Y-19613714D02*
X20975953Y-19623238D01*
X21185477Y-19737524D02*
X21166429Y-19728000D01*
X21166429Y-19728000D02*
X21156905Y-19718476D01*
X21156905Y-19718476D02*
X21147381Y-19699429D01*
X21147381Y-19699429D02*
X21147381Y-19642286D01*
X21147381Y-19642286D02*
X21156905Y-19623238D01*
X21156905Y-19623238D02*
X21166429Y-19613714D01*
X21166429Y-19613714D02*
X21185477Y-19604190D01*
X21185477Y-19604190D02*
X21214048Y-19604190D01*
X21214048Y-19604190D02*
X21233096Y-19613714D01*
X21233096Y-19613714D02*
X21242619Y-19623238D01*
X21242619Y-19623238D02*
X21252143Y-19642286D01*
X21252143Y-19642286D02*
X21252143Y-19699429D01*
X21252143Y-19699429D02*
X21242619Y-19718476D01*
X21242619Y-19718476D02*
X21233096Y-19728000D01*
X21233096Y-19728000D02*
X21214048Y-19737524D01*
X21214048Y-19737524D02*
X21185477Y-19737524D01*
X21366429Y-19737524D02*
X21347381Y-19728000D01*
X21347381Y-19728000D02*
X21337858Y-19708952D01*
X21337858Y-19708952D02*
X21337858Y-19537524D01*
X21518810Y-19728000D02*
X21499762Y-19737524D01*
X21499762Y-19737524D02*
X21461667Y-19737524D01*
X21461667Y-19737524D02*
X21442619Y-19728000D01*
X21442619Y-19728000D02*
X21433096Y-19708952D01*
X21433096Y-19708952D02*
X21433096Y-19632762D01*
X21433096Y-19632762D02*
X21442619Y-19613714D01*
X21442619Y-19613714D02*
X21461667Y-19604190D01*
X21461667Y-19604190D02*
X21499762Y-19604190D01*
X21499762Y-19604190D02*
X21518810Y-19613714D01*
X21518810Y-19613714D02*
X21528334Y-19632762D01*
X21528334Y-19632762D02*
X21528334Y-19651810D01*
X21528334Y-19651810D02*
X21433096Y-19670857D01*
X21604524Y-19728000D02*
X21623572Y-19737524D01*
X21623572Y-19737524D02*
X21661667Y-19737524D01*
X21661667Y-19737524D02*
X21680715Y-19728000D01*
X21680715Y-19728000D02*
X21690239Y-19708952D01*
X21690239Y-19708952D02*
X21690239Y-19699429D01*
X21690239Y-19699429D02*
X21680715Y-19680381D01*
X21680715Y-19680381D02*
X21661667Y-19670857D01*
X21661667Y-19670857D02*
X21633096Y-19670857D01*
X21633096Y-19670857D02*
X21614048Y-19661333D01*
X21614048Y-19661333D02*
X21604524Y-19642286D01*
X21604524Y-19642286D02*
X21604524Y-19632762D01*
X21604524Y-19632762D02*
X21614048Y-19613714D01*
X21614048Y-19613714D02*
X21633096Y-19604190D01*
X21633096Y-19604190D02*
X21661667Y-19604190D01*
X21661667Y-19604190D02*
X21680715Y-19613714D01*
X21756905Y-19813714D02*
X21766429Y-19804190D01*
X21766429Y-19804190D02*
X21785477Y-19775619D01*
X21785477Y-19775619D02*
X21795000Y-19756571D01*
X21795000Y-19756571D02*
X21804524Y-19728000D01*
X21804524Y-19728000D02*
X21814048Y-19680381D01*
X21814048Y-19680381D02*
X21814048Y-19642286D01*
X21814048Y-19642286D02*
X21804524Y-19594667D01*
X21804524Y-19594667D02*
X21795000Y-19566095D01*
X21795000Y-19566095D02*
X21785477Y-19547048D01*
X21785477Y-19547048D02*
X21766429Y-19518476D01*
X21766429Y-19518476D02*
X21756905Y-19508952D01*
X22118810Y-19813714D02*
X22109286Y-19804190D01*
X22109286Y-19804190D02*
X22090239Y-19775619D01*
X22090239Y-19775619D02*
X22080715Y-19756571D01*
X22080715Y-19756571D02*
X22071191Y-19728000D01*
X22071191Y-19728000D02*
X22061667Y-19680381D01*
X22061667Y-19680381D02*
X22061667Y-19642286D01*
X22061667Y-19642286D02*
X22071191Y-19594667D01*
X22071191Y-19594667D02*
X22080715Y-19566095D01*
X22080715Y-19566095D02*
X22090239Y-19547048D01*
X22090239Y-19547048D02*
X22109286Y-19518476D01*
X22109286Y-19518476D02*
X22118810Y-19508952D01*
X22195000Y-19604190D02*
X22195000Y-19737524D01*
X22195000Y-19623238D02*
X22204524Y-19613714D01*
X22204524Y-19613714D02*
X22223572Y-19604190D01*
X22223572Y-19604190D02*
X22252143Y-19604190D01*
X22252143Y-19604190D02*
X22271191Y-19613714D01*
X22271191Y-19613714D02*
X22280715Y-19632762D01*
X22280715Y-19632762D02*
X22280715Y-19737524D01*
X22404524Y-19737524D02*
X22385477Y-19728000D01*
X22385477Y-19728000D02*
X22375953Y-19718476D01*
X22375953Y-19718476D02*
X22366429Y-19699429D01*
X22366429Y-19699429D02*
X22366429Y-19642286D01*
X22366429Y-19642286D02*
X22375953Y-19623238D01*
X22375953Y-19623238D02*
X22385477Y-19613714D01*
X22385477Y-19613714D02*
X22404524Y-19604190D01*
X22404524Y-19604190D02*
X22433096Y-19604190D01*
X22433096Y-19604190D02*
X22452143Y-19613714D01*
X22452143Y-19613714D02*
X22461667Y-19623238D01*
X22461667Y-19623238D02*
X22471191Y-19642286D01*
X22471191Y-19642286D02*
X22471191Y-19699429D01*
X22471191Y-19699429D02*
X22461667Y-19718476D01*
X22461667Y-19718476D02*
X22452143Y-19728000D01*
X22452143Y-19728000D02*
X22433096Y-19737524D01*
X22433096Y-19737524D02*
X22404524Y-19737524D01*
X22528334Y-19604190D02*
X22604524Y-19604190D01*
X22556905Y-19537524D02*
X22556905Y-19708952D01*
X22556905Y-19708952D02*
X22566429Y-19728000D01*
X22566429Y-19728000D02*
X22585477Y-19737524D01*
X22585477Y-19737524D02*
X22604524Y-19737524D01*
X22823572Y-19604190D02*
X22823572Y-19804190D01*
X22823572Y-19613714D02*
X22842619Y-19604190D01*
X22842619Y-19604190D02*
X22880715Y-19604190D01*
X22880715Y-19604190D02*
X22899762Y-19613714D01*
X22899762Y-19613714D02*
X22909286Y-19623238D01*
X22909286Y-19623238D02*
X22918810Y-19642286D01*
X22918810Y-19642286D02*
X22918810Y-19699429D01*
X22918810Y-19699429D02*
X22909286Y-19718476D01*
X22909286Y-19718476D02*
X22899762Y-19728000D01*
X22899762Y-19728000D02*
X22880715Y-19737524D01*
X22880715Y-19737524D02*
X22842619Y-19737524D01*
X22842619Y-19737524D02*
X22823572Y-19728000D01*
X23033096Y-19737524D02*
X23014048Y-19728000D01*
X23014048Y-19728000D02*
X23004524Y-19708952D01*
X23004524Y-19708952D02*
X23004524Y-19537524D01*
X23195000Y-19737524D02*
X23195000Y-19632762D01*
X23195000Y-19632762D02*
X23185477Y-19613714D01*
X23185477Y-19613714D02*
X23166429Y-19604190D01*
X23166429Y-19604190D02*
X23128334Y-19604190D01*
X23128334Y-19604190D02*
X23109286Y-19613714D01*
X23195000Y-19728000D02*
X23175953Y-19737524D01*
X23175953Y-19737524D02*
X23128334Y-19737524D01*
X23128334Y-19737524D02*
X23109286Y-19728000D01*
X23109286Y-19728000D02*
X23099762Y-19708952D01*
X23099762Y-19708952D02*
X23099762Y-19689905D01*
X23099762Y-19689905D02*
X23109286Y-19670857D01*
X23109286Y-19670857D02*
X23128334Y-19661333D01*
X23128334Y-19661333D02*
X23175953Y-19661333D01*
X23175953Y-19661333D02*
X23195000Y-19651810D01*
X23261667Y-19604190D02*
X23337858Y-19604190D01*
X23290239Y-19537524D02*
X23290239Y-19708952D01*
X23290239Y-19708952D02*
X23299762Y-19728000D01*
X23299762Y-19728000D02*
X23318810Y-19737524D01*
X23318810Y-19737524D02*
X23337858Y-19737524D01*
X23480715Y-19728000D02*
X23461667Y-19737524D01*
X23461667Y-19737524D02*
X23423572Y-19737524D01*
X23423572Y-19737524D02*
X23404524Y-19728000D01*
X23404524Y-19728000D02*
X23395000Y-19708952D01*
X23395000Y-19708952D02*
X23395000Y-19632762D01*
X23395000Y-19632762D02*
X23404524Y-19613714D01*
X23404524Y-19613714D02*
X23423572Y-19604190D01*
X23423572Y-19604190D02*
X23461667Y-19604190D01*
X23461667Y-19604190D02*
X23480715Y-19613714D01*
X23480715Y-19613714D02*
X23490239Y-19632762D01*
X23490239Y-19632762D02*
X23490239Y-19651810D01*
X23490239Y-19651810D02*
X23395000Y-19670857D01*
X23661667Y-19737524D02*
X23661667Y-19537524D01*
X23661667Y-19728000D02*
X23642620Y-19737524D01*
X23642620Y-19737524D02*
X23604524Y-19737524D01*
X23604524Y-19737524D02*
X23585477Y-19728000D01*
X23585477Y-19728000D02*
X23575953Y-19718476D01*
X23575953Y-19718476D02*
X23566429Y-19699429D01*
X23566429Y-19699429D02*
X23566429Y-19642286D01*
X23566429Y-19642286D02*
X23575953Y-19623238D01*
X23575953Y-19623238D02*
X23585477Y-19613714D01*
X23585477Y-19613714D02*
X23604524Y-19604190D01*
X23604524Y-19604190D02*
X23642620Y-19604190D01*
X23642620Y-19604190D02*
X23661667Y-19613714D01*
X23737858Y-19813714D02*
X23747381Y-19804190D01*
X23747381Y-19804190D02*
X23766429Y-19775619D01*
X23766429Y-19775619D02*
X23775953Y-19756571D01*
X23775953Y-19756571D02*
X23785477Y-19728000D01*
X23785477Y-19728000D02*
X23795000Y-19680381D01*
X23795000Y-19680381D02*
X23795000Y-19642286D01*
X23795000Y-19642286D02*
X23785477Y-19594667D01*
X23785477Y-19594667D02*
X23775953Y-19566095D01*
X23775953Y-19566095D02*
X23766429Y-19547048D01*
X23766429Y-19547048D02*
X23747381Y-19518476D01*
X23747381Y-19518476D02*
X23737858Y-19508952D01*
X16995000Y-19909000D02*
G75*
G03*
X16995000Y-19909000I-100000J0D01*
G01*
X17233095Y-19820571D02*
X17242619Y-19811048D01*
X17242619Y-19811048D02*
X17261667Y-19801524D01*
X17261667Y-19801524D02*
X17309286Y-19801524D01*
X17309286Y-19801524D02*
X17328333Y-19811048D01*
X17328333Y-19811048D02*
X17337857Y-19820571D01*
X17337857Y-19820571D02*
X17347381Y-19839619D01*
X17347381Y-19839619D02*
X17347381Y-19858667D01*
X17347381Y-19858667D02*
X17337857Y-19887238D01*
X17337857Y-19887238D02*
X17223571Y-20001524D01*
X17223571Y-20001524D02*
X17347381Y-20001524D01*
X17433095Y-19982476D02*
X17442619Y-19992000D01*
X17442619Y-19992000D02*
X17433095Y-20001524D01*
X17433095Y-20001524D02*
X17423571Y-19992000D01*
X17423571Y-19992000D02*
X17433095Y-19982476D01*
X17433095Y-19982476D02*
X17433095Y-20001524D01*
X17509286Y-19801524D02*
X17633095Y-19801524D01*
X17633095Y-19801524D02*
X17566429Y-19877714D01*
X17566429Y-19877714D02*
X17595000Y-19877714D01*
X17595000Y-19877714D02*
X17614048Y-19887238D01*
X17614048Y-19887238D02*
X17623571Y-19896762D01*
X17623571Y-19896762D02*
X17633095Y-19915810D01*
X17633095Y-19915810D02*
X17633095Y-19963429D01*
X17633095Y-19963429D02*
X17623571Y-19982476D01*
X17623571Y-19982476D02*
X17614048Y-19992000D01*
X17614048Y-19992000D02*
X17595000Y-20001524D01*
X17595000Y-20001524D02*
X17537857Y-20001524D01*
X17537857Y-20001524D02*
X17518810Y-19992000D01*
X17518810Y-19992000D02*
X17509286Y-19982476D01*
X17699762Y-19801524D02*
X17833095Y-19801524D01*
X17833095Y-19801524D02*
X17747381Y-20001524D01*
X18004524Y-19801524D02*
X17909286Y-19801524D01*
X17909286Y-19801524D02*
X17899762Y-19896762D01*
X17899762Y-19896762D02*
X17909286Y-19887238D01*
X17909286Y-19887238D02*
X17928333Y-19877714D01*
X17928333Y-19877714D02*
X17975952Y-19877714D01*
X17975952Y-19877714D02*
X17995000Y-19887238D01*
X17995000Y-19887238D02*
X18004524Y-19896762D01*
X18004524Y-19896762D02*
X18014048Y-19915810D01*
X18014048Y-19915810D02*
X18014048Y-19963429D01*
X18014048Y-19963429D02*
X18004524Y-19982476D01*
X18004524Y-19982476D02*
X17995000Y-19992000D01*
X17995000Y-19992000D02*
X17975952Y-20001524D01*
X17975952Y-20001524D02*
X17928333Y-20001524D01*
X17928333Y-20001524D02*
X17909286Y-19992000D01*
X17909286Y-19992000D02*
X17899762Y-19982476D01*
X18099762Y-20001524D02*
X18099762Y-19868190D01*
X18099762Y-19887238D02*
X18109286Y-19877714D01*
X18109286Y-19877714D02*
X18128333Y-19868190D01*
X18128333Y-19868190D02*
X18156905Y-19868190D01*
X18156905Y-19868190D02*
X18175952Y-19877714D01*
X18175952Y-19877714D02*
X18185476Y-19896762D01*
X18185476Y-19896762D02*
X18185476Y-20001524D01*
X18185476Y-19896762D02*
X18195000Y-19877714D01*
X18195000Y-19877714D02*
X18214048Y-19868190D01*
X18214048Y-19868190D02*
X18242619Y-19868190D01*
X18242619Y-19868190D02*
X18261667Y-19877714D01*
X18261667Y-19877714D02*
X18271191Y-19896762D01*
X18271191Y-19896762D02*
X18271191Y-20001524D01*
X18366429Y-20001524D02*
X18366429Y-19868190D01*
X18366429Y-19887238D02*
X18375952Y-19877714D01*
X18375952Y-19877714D02*
X18395000Y-19868190D01*
X18395000Y-19868190D02*
X18423572Y-19868190D01*
X18423572Y-19868190D02*
X18442619Y-19877714D01*
X18442619Y-19877714D02*
X18452143Y-19896762D01*
X18452143Y-19896762D02*
X18452143Y-20001524D01*
X18452143Y-19896762D02*
X18461667Y-19877714D01*
X18461667Y-19877714D02*
X18480714Y-19868190D01*
X18480714Y-19868190D02*
X18509286Y-19868190D01*
X18509286Y-19868190D02*
X18528333Y-19877714D01*
X18528333Y-19877714D02*
X18537857Y-19896762D01*
X18537857Y-19896762D02*
X18537857Y-20001524D01*
X18928333Y-19792000D02*
X18756905Y-20049143D01*
X19185476Y-19801524D02*
X19204524Y-19801524D01*
X19204524Y-19801524D02*
X19223572Y-19811048D01*
X19223572Y-19811048D02*
X19233095Y-19820571D01*
X19233095Y-19820571D02*
X19242619Y-19839619D01*
X19242619Y-19839619D02*
X19252143Y-19877714D01*
X19252143Y-19877714D02*
X19252143Y-19925333D01*
X19252143Y-19925333D02*
X19242619Y-19963429D01*
X19242619Y-19963429D02*
X19233095Y-19982476D01*
X19233095Y-19982476D02*
X19223572Y-19992000D01*
X19223572Y-19992000D02*
X19204524Y-20001524D01*
X19204524Y-20001524D02*
X19185476Y-20001524D01*
X19185476Y-20001524D02*
X19166429Y-19992000D01*
X19166429Y-19992000D02*
X19156905Y-19982476D01*
X19156905Y-19982476D02*
X19147381Y-19963429D01*
X19147381Y-19963429D02*
X19137857Y-19925333D01*
X19137857Y-19925333D02*
X19137857Y-19877714D01*
X19137857Y-19877714D02*
X19147381Y-19839619D01*
X19147381Y-19839619D02*
X19156905Y-19820571D01*
X19156905Y-19820571D02*
X19166429Y-19811048D01*
X19166429Y-19811048D02*
X19185476Y-19801524D01*
X19337857Y-19982476D02*
X19347381Y-19992000D01*
X19347381Y-19992000D02*
X19337857Y-20001524D01*
X19337857Y-20001524D02*
X19328334Y-19992000D01*
X19328334Y-19992000D02*
X19337857Y-19982476D01*
X19337857Y-19982476D02*
X19337857Y-20001524D01*
X19471191Y-19801524D02*
X19490238Y-19801524D01*
X19490238Y-19801524D02*
X19509286Y-19811048D01*
X19509286Y-19811048D02*
X19518810Y-19820571D01*
X19518810Y-19820571D02*
X19528334Y-19839619D01*
X19528334Y-19839619D02*
X19537857Y-19877714D01*
X19537857Y-19877714D02*
X19537857Y-19925333D01*
X19537857Y-19925333D02*
X19528334Y-19963429D01*
X19528334Y-19963429D02*
X19518810Y-19982476D01*
X19518810Y-19982476D02*
X19509286Y-19992000D01*
X19509286Y-19992000D02*
X19490238Y-20001524D01*
X19490238Y-20001524D02*
X19471191Y-20001524D01*
X19471191Y-20001524D02*
X19452143Y-19992000D01*
X19452143Y-19992000D02*
X19442619Y-19982476D01*
X19442619Y-19982476D02*
X19433095Y-19963429D01*
X19433095Y-19963429D02*
X19423572Y-19925333D01*
X19423572Y-19925333D02*
X19423572Y-19877714D01*
X19423572Y-19877714D02*
X19433095Y-19839619D01*
X19433095Y-19839619D02*
X19442619Y-19820571D01*
X19442619Y-19820571D02*
X19452143Y-19811048D01*
X19452143Y-19811048D02*
X19471191Y-19801524D01*
X19633095Y-20001524D02*
X19671191Y-20001524D01*
X19671191Y-20001524D02*
X19690238Y-19992000D01*
X19690238Y-19992000D02*
X19699762Y-19982476D01*
X19699762Y-19982476D02*
X19718810Y-19953905D01*
X19718810Y-19953905D02*
X19728334Y-19915810D01*
X19728334Y-19915810D02*
X19728334Y-19839619D01*
X19728334Y-19839619D02*
X19718810Y-19820571D01*
X19718810Y-19820571D02*
X19709286Y-19811048D01*
X19709286Y-19811048D02*
X19690238Y-19801524D01*
X19690238Y-19801524D02*
X19652143Y-19801524D01*
X19652143Y-19801524D02*
X19633095Y-19811048D01*
X19633095Y-19811048D02*
X19623572Y-19820571D01*
X19623572Y-19820571D02*
X19614048Y-19839619D01*
X19614048Y-19839619D02*
X19614048Y-19887238D01*
X19614048Y-19887238D02*
X19623572Y-19906286D01*
X19623572Y-19906286D02*
X19633095Y-19915810D01*
X19633095Y-19915810D02*
X19652143Y-19925333D01*
X19652143Y-19925333D02*
X19690238Y-19925333D01*
X19690238Y-19925333D02*
X19709286Y-19915810D01*
X19709286Y-19915810D02*
X19718810Y-19906286D01*
X19718810Y-19906286D02*
X19728334Y-19887238D01*
X19795000Y-19801524D02*
X19918810Y-19801524D01*
X19918810Y-19801524D02*
X19852143Y-19877714D01*
X19852143Y-19877714D02*
X19880715Y-19877714D01*
X19880715Y-19877714D02*
X19899762Y-19887238D01*
X19899762Y-19887238D02*
X19909286Y-19896762D01*
X19909286Y-19896762D02*
X19918810Y-19915810D01*
X19918810Y-19915810D02*
X19918810Y-19963429D01*
X19918810Y-19963429D02*
X19909286Y-19982476D01*
X19909286Y-19982476D02*
X19899762Y-19992000D01*
X19899762Y-19992000D02*
X19880715Y-20001524D01*
X19880715Y-20001524D02*
X19823572Y-20001524D01*
X19823572Y-20001524D02*
X19804524Y-19992000D01*
X19804524Y-19992000D02*
X19795000Y-19982476D01*
X20099762Y-19801524D02*
X20004524Y-19801524D01*
X20004524Y-19801524D02*
X19995000Y-19896762D01*
X19995000Y-19896762D02*
X20004524Y-19887238D01*
X20004524Y-19887238D02*
X20023572Y-19877714D01*
X20023572Y-19877714D02*
X20071191Y-19877714D01*
X20071191Y-19877714D02*
X20090238Y-19887238D01*
X20090238Y-19887238D02*
X20099762Y-19896762D01*
X20099762Y-19896762D02*
X20109286Y-19915810D01*
X20109286Y-19915810D02*
X20109286Y-19963429D01*
X20109286Y-19963429D02*
X20099762Y-19982476D01*
X20099762Y-19982476D02*
X20090238Y-19992000D01*
X20090238Y-19992000D02*
X20071191Y-20001524D01*
X20071191Y-20001524D02*
X20023572Y-20001524D01*
X20023572Y-20001524D02*
X20004524Y-19992000D01*
X20004524Y-19992000D02*
X19995000Y-19982476D01*
X20185476Y-19801524D02*
X20185476Y-19839619D01*
X20261667Y-19801524D02*
X20261667Y-19839619D01*
X20556905Y-20077714D02*
X20547381Y-20068190D01*
X20547381Y-20068190D02*
X20528334Y-20039619D01*
X20528334Y-20039619D02*
X20518810Y-20020571D01*
X20518810Y-20020571D02*
X20509286Y-19992000D01*
X20509286Y-19992000D02*
X20499762Y-19944381D01*
X20499762Y-19944381D02*
X20499762Y-19906286D01*
X20499762Y-19906286D02*
X20509286Y-19858667D01*
X20509286Y-19858667D02*
X20518810Y-19830095D01*
X20518810Y-19830095D02*
X20528334Y-19811048D01*
X20528334Y-19811048D02*
X20547381Y-19782476D01*
X20547381Y-19782476D02*
X20556905Y-19772952D01*
X20718810Y-19868190D02*
X20718810Y-20001524D01*
X20671191Y-19792000D02*
X20623572Y-19934857D01*
X20623572Y-19934857D02*
X20747381Y-19934857D01*
X20975953Y-20001524D02*
X20975953Y-19801524D01*
X21061667Y-20001524D02*
X21061667Y-19896762D01*
X21061667Y-19896762D02*
X21052143Y-19877714D01*
X21052143Y-19877714D02*
X21033096Y-19868190D01*
X21033096Y-19868190D02*
X21004524Y-19868190D01*
X21004524Y-19868190D02*
X20985477Y-19877714D01*
X20985477Y-19877714D02*
X20975953Y-19887238D01*
X21185477Y-20001524D02*
X21166429Y-19992000D01*
X21166429Y-19992000D02*
X21156905Y-19982476D01*
X21156905Y-19982476D02*
X21147381Y-19963429D01*
X21147381Y-19963429D02*
X21147381Y-19906286D01*
X21147381Y-19906286D02*
X21156905Y-19887238D01*
X21156905Y-19887238D02*
X21166429Y-19877714D01*
X21166429Y-19877714D02*
X21185477Y-19868190D01*
X21185477Y-19868190D02*
X21214048Y-19868190D01*
X21214048Y-19868190D02*
X21233096Y-19877714D01*
X21233096Y-19877714D02*
X21242619Y-19887238D01*
X21242619Y-19887238D02*
X21252143Y-19906286D01*
X21252143Y-19906286D02*
X21252143Y-19963429D01*
X21252143Y-19963429D02*
X21242619Y-19982476D01*
X21242619Y-19982476D02*
X21233096Y-19992000D01*
X21233096Y-19992000D02*
X21214048Y-20001524D01*
X21214048Y-20001524D02*
X21185477Y-20001524D01*
X21366429Y-20001524D02*
X21347381Y-19992000D01*
X21347381Y-19992000D02*
X21337858Y-19972952D01*
X21337858Y-19972952D02*
X21337858Y-19801524D01*
X21518810Y-19992000D02*
X21499762Y-20001524D01*
X21499762Y-20001524D02*
X21461667Y-20001524D01*
X21461667Y-20001524D02*
X21442619Y-19992000D01*
X21442619Y-19992000D02*
X21433096Y-19972952D01*
X21433096Y-19972952D02*
X21433096Y-19896762D01*
X21433096Y-19896762D02*
X21442619Y-19877714D01*
X21442619Y-19877714D02*
X21461667Y-19868190D01*
X21461667Y-19868190D02*
X21499762Y-19868190D01*
X21499762Y-19868190D02*
X21518810Y-19877714D01*
X21518810Y-19877714D02*
X21528334Y-19896762D01*
X21528334Y-19896762D02*
X21528334Y-19915810D01*
X21528334Y-19915810D02*
X21433096Y-19934857D01*
X21604524Y-19992000D02*
X21623572Y-20001524D01*
X21623572Y-20001524D02*
X21661667Y-20001524D01*
X21661667Y-20001524D02*
X21680715Y-19992000D01*
X21680715Y-19992000D02*
X21690239Y-19972952D01*
X21690239Y-19972952D02*
X21690239Y-19963429D01*
X21690239Y-19963429D02*
X21680715Y-19944381D01*
X21680715Y-19944381D02*
X21661667Y-19934857D01*
X21661667Y-19934857D02*
X21633096Y-19934857D01*
X21633096Y-19934857D02*
X21614048Y-19925333D01*
X21614048Y-19925333D02*
X21604524Y-19906286D01*
X21604524Y-19906286D02*
X21604524Y-19896762D01*
X21604524Y-19896762D02*
X21614048Y-19877714D01*
X21614048Y-19877714D02*
X21633096Y-19868190D01*
X21633096Y-19868190D02*
X21661667Y-19868190D01*
X21661667Y-19868190D02*
X21680715Y-19877714D01*
X21756905Y-20077714D02*
X21766429Y-20068190D01*
X21766429Y-20068190D02*
X21785477Y-20039619D01*
X21785477Y-20039619D02*
X21795000Y-20020571D01*
X21795000Y-20020571D02*
X21804524Y-19992000D01*
X21804524Y-19992000D02*
X21814048Y-19944381D01*
X21814048Y-19944381D02*
X21814048Y-19906286D01*
X21814048Y-19906286D02*
X21804524Y-19858667D01*
X21804524Y-19858667D02*
X21795000Y-19830095D01*
X21795000Y-19830095D02*
X21785477Y-19811048D01*
X21785477Y-19811048D02*
X21766429Y-19782476D01*
X21766429Y-19782476D02*
X21756905Y-19772952D01*
X22118810Y-20077714D02*
X22109286Y-20068190D01*
X22109286Y-20068190D02*
X22090239Y-20039619D01*
X22090239Y-20039619D02*
X22080715Y-20020571D01*
X22080715Y-20020571D02*
X22071191Y-19992000D01*
X22071191Y-19992000D02*
X22061667Y-19944381D01*
X22061667Y-19944381D02*
X22061667Y-19906286D01*
X22061667Y-19906286D02*
X22071191Y-19858667D01*
X22071191Y-19858667D02*
X22080715Y-19830095D01*
X22080715Y-19830095D02*
X22090239Y-19811048D01*
X22090239Y-19811048D02*
X22109286Y-19782476D01*
X22109286Y-19782476D02*
X22118810Y-19772952D01*
X22195000Y-19868190D02*
X22195000Y-20001524D01*
X22195000Y-19887238D02*
X22204524Y-19877714D01*
X22204524Y-19877714D02*
X22223572Y-19868190D01*
X22223572Y-19868190D02*
X22252143Y-19868190D01*
X22252143Y-19868190D02*
X22271191Y-19877714D01*
X22271191Y-19877714D02*
X22280715Y-19896762D01*
X22280715Y-19896762D02*
X22280715Y-20001524D01*
X22404524Y-20001524D02*
X22385477Y-19992000D01*
X22385477Y-19992000D02*
X22375953Y-19982476D01*
X22375953Y-19982476D02*
X22366429Y-19963429D01*
X22366429Y-19963429D02*
X22366429Y-19906286D01*
X22366429Y-19906286D02*
X22375953Y-19887238D01*
X22375953Y-19887238D02*
X22385477Y-19877714D01*
X22385477Y-19877714D02*
X22404524Y-19868190D01*
X22404524Y-19868190D02*
X22433096Y-19868190D01*
X22433096Y-19868190D02*
X22452143Y-19877714D01*
X22452143Y-19877714D02*
X22461667Y-19887238D01*
X22461667Y-19887238D02*
X22471191Y-19906286D01*
X22471191Y-19906286D02*
X22471191Y-19963429D01*
X22471191Y-19963429D02*
X22461667Y-19982476D01*
X22461667Y-19982476D02*
X22452143Y-19992000D01*
X22452143Y-19992000D02*
X22433096Y-20001524D01*
X22433096Y-20001524D02*
X22404524Y-20001524D01*
X22528334Y-19868190D02*
X22604524Y-19868190D01*
X22556905Y-19801524D02*
X22556905Y-19972952D01*
X22556905Y-19972952D02*
X22566429Y-19992000D01*
X22566429Y-19992000D02*
X22585477Y-20001524D01*
X22585477Y-20001524D02*
X22604524Y-20001524D01*
X22823572Y-19868190D02*
X22823572Y-20068190D01*
X22823572Y-19877714D02*
X22842619Y-19868190D01*
X22842619Y-19868190D02*
X22880715Y-19868190D01*
X22880715Y-19868190D02*
X22899762Y-19877714D01*
X22899762Y-19877714D02*
X22909286Y-19887238D01*
X22909286Y-19887238D02*
X22918810Y-19906286D01*
X22918810Y-19906286D02*
X22918810Y-19963429D01*
X22918810Y-19963429D02*
X22909286Y-19982476D01*
X22909286Y-19982476D02*
X22899762Y-19992000D01*
X22899762Y-19992000D02*
X22880715Y-20001524D01*
X22880715Y-20001524D02*
X22842619Y-20001524D01*
X22842619Y-20001524D02*
X22823572Y-19992000D01*
X23033096Y-20001524D02*
X23014048Y-19992000D01*
X23014048Y-19992000D02*
X23004524Y-19972952D01*
X23004524Y-19972952D02*
X23004524Y-19801524D01*
X23195000Y-20001524D02*
X23195000Y-19896762D01*
X23195000Y-19896762D02*
X23185477Y-19877714D01*
X23185477Y-19877714D02*
X23166429Y-19868190D01*
X23166429Y-19868190D02*
X23128334Y-19868190D01*
X23128334Y-19868190D02*
X23109286Y-19877714D01*
X23195000Y-19992000D02*
X23175953Y-20001524D01*
X23175953Y-20001524D02*
X23128334Y-20001524D01*
X23128334Y-20001524D02*
X23109286Y-19992000D01*
X23109286Y-19992000D02*
X23099762Y-19972952D01*
X23099762Y-19972952D02*
X23099762Y-19953905D01*
X23099762Y-19953905D02*
X23109286Y-19934857D01*
X23109286Y-19934857D02*
X23128334Y-19925333D01*
X23128334Y-19925333D02*
X23175953Y-19925333D01*
X23175953Y-19925333D02*
X23195000Y-19915810D01*
X23261667Y-19868190D02*
X23337858Y-19868190D01*
X23290239Y-19801524D02*
X23290239Y-19972952D01*
X23290239Y-19972952D02*
X23299762Y-19992000D01*
X23299762Y-19992000D02*
X23318810Y-20001524D01*
X23318810Y-20001524D02*
X23337858Y-20001524D01*
X23480715Y-19992000D02*
X23461667Y-20001524D01*
X23461667Y-20001524D02*
X23423572Y-20001524D01*
X23423572Y-20001524D02*
X23404524Y-19992000D01*
X23404524Y-19992000D02*
X23395000Y-19972952D01*
X23395000Y-19972952D02*
X23395000Y-19896762D01*
X23395000Y-19896762D02*
X23404524Y-19877714D01*
X23404524Y-19877714D02*
X23423572Y-19868190D01*
X23423572Y-19868190D02*
X23461667Y-19868190D01*
X23461667Y-19868190D02*
X23480715Y-19877714D01*
X23480715Y-19877714D02*
X23490239Y-19896762D01*
X23490239Y-19896762D02*
X23490239Y-19915810D01*
X23490239Y-19915810D02*
X23395000Y-19934857D01*
X23661667Y-20001524D02*
X23661667Y-19801524D01*
X23661667Y-19992000D02*
X23642620Y-20001524D01*
X23642620Y-20001524D02*
X23604524Y-20001524D01*
X23604524Y-20001524D02*
X23585477Y-19992000D01*
X23585477Y-19992000D02*
X23575953Y-19982476D01*
X23575953Y-19982476D02*
X23566429Y-19963429D01*
X23566429Y-19963429D02*
X23566429Y-19906286D01*
X23566429Y-19906286D02*
X23575953Y-19887238D01*
X23575953Y-19887238D02*
X23585477Y-19877714D01*
X23585477Y-19877714D02*
X23604524Y-19868190D01*
X23604524Y-19868190D02*
X23642620Y-19868190D01*
X23642620Y-19868190D02*
X23661667Y-19877714D01*
X23737858Y-20077714D02*
X23747381Y-20068190D01*
X23747381Y-20068190D02*
X23766429Y-20039619D01*
X23766429Y-20039619D02*
X23775953Y-20020571D01*
X23775953Y-20020571D02*
X23785477Y-19992000D01*
X23785477Y-19992000D02*
X23795000Y-19944381D01*
X23795000Y-19944381D02*
X23795000Y-19906286D01*
X23795000Y-19906286D02*
X23785477Y-19858667D01*
X23785477Y-19858667D02*
X23775953Y-19830095D01*
X23775953Y-19830095D02*
X23766429Y-19811048D01*
X23766429Y-19811048D02*
X23747381Y-19782476D01*
X23747381Y-19782476D02*
X23737858Y-19772952D01*
X16895000Y-20129000D02*
X16895000Y-20329000D01*
X16795000Y-20229000D02*
X16995000Y-20229000D01*
X17223571Y-20121524D02*
X17347381Y-20121524D01*
X17347381Y-20121524D02*
X17280714Y-20197714D01*
X17280714Y-20197714D02*
X17309286Y-20197714D01*
X17309286Y-20197714D02*
X17328333Y-20207238D01*
X17328333Y-20207238D02*
X17337857Y-20216762D01*
X17337857Y-20216762D02*
X17347381Y-20235810D01*
X17347381Y-20235810D02*
X17347381Y-20283429D01*
X17347381Y-20283429D02*
X17337857Y-20302476D01*
X17337857Y-20302476D02*
X17328333Y-20312000D01*
X17328333Y-20312000D02*
X17309286Y-20321524D01*
X17309286Y-20321524D02*
X17252143Y-20321524D01*
X17252143Y-20321524D02*
X17233095Y-20312000D01*
X17233095Y-20312000D02*
X17223571Y-20302476D01*
X17433095Y-20302476D02*
X17442619Y-20312000D01*
X17442619Y-20312000D02*
X17433095Y-20321524D01*
X17433095Y-20321524D02*
X17423571Y-20312000D01*
X17423571Y-20312000D02*
X17433095Y-20302476D01*
X17433095Y-20302476D02*
X17433095Y-20321524D01*
X17566429Y-20121524D02*
X17585476Y-20121524D01*
X17585476Y-20121524D02*
X17604524Y-20131048D01*
X17604524Y-20131048D02*
X17614048Y-20140571D01*
X17614048Y-20140571D02*
X17623571Y-20159619D01*
X17623571Y-20159619D02*
X17633095Y-20197714D01*
X17633095Y-20197714D02*
X17633095Y-20245333D01*
X17633095Y-20245333D02*
X17623571Y-20283429D01*
X17623571Y-20283429D02*
X17614048Y-20302476D01*
X17614048Y-20302476D02*
X17604524Y-20312000D01*
X17604524Y-20312000D02*
X17585476Y-20321524D01*
X17585476Y-20321524D02*
X17566429Y-20321524D01*
X17566429Y-20321524D02*
X17547381Y-20312000D01*
X17547381Y-20312000D02*
X17537857Y-20302476D01*
X17537857Y-20302476D02*
X17528333Y-20283429D01*
X17528333Y-20283429D02*
X17518810Y-20245333D01*
X17518810Y-20245333D02*
X17518810Y-20197714D01*
X17518810Y-20197714D02*
X17528333Y-20159619D01*
X17528333Y-20159619D02*
X17537857Y-20140571D01*
X17537857Y-20140571D02*
X17547381Y-20131048D01*
X17547381Y-20131048D02*
X17566429Y-20121524D01*
X17756905Y-20121524D02*
X17775952Y-20121524D01*
X17775952Y-20121524D02*
X17795000Y-20131048D01*
X17795000Y-20131048D02*
X17804524Y-20140571D01*
X17804524Y-20140571D02*
X17814048Y-20159619D01*
X17814048Y-20159619D02*
X17823571Y-20197714D01*
X17823571Y-20197714D02*
X17823571Y-20245333D01*
X17823571Y-20245333D02*
X17814048Y-20283429D01*
X17814048Y-20283429D02*
X17804524Y-20302476D01*
X17804524Y-20302476D02*
X17795000Y-20312000D01*
X17795000Y-20312000D02*
X17775952Y-20321524D01*
X17775952Y-20321524D02*
X17756905Y-20321524D01*
X17756905Y-20321524D02*
X17737857Y-20312000D01*
X17737857Y-20312000D02*
X17728333Y-20302476D01*
X17728333Y-20302476D02*
X17718810Y-20283429D01*
X17718810Y-20283429D02*
X17709286Y-20245333D01*
X17709286Y-20245333D02*
X17709286Y-20197714D01*
X17709286Y-20197714D02*
X17718810Y-20159619D01*
X17718810Y-20159619D02*
X17728333Y-20140571D01*
X17728333Y-20140571D02*
X17737857Y-20131048D01*
X17737857Y-20131048D02*
X17756905Y-20121524D01*
X17947381Y-20121524D02*
X17966429Y-20121524D01*
X17966429Y-20121524D02*
X17985476Y-20131048D01*
X17985476Y-20131048D02*
X17995000Y-20140571D01*
X17995000Y-20140571D02*
X18004524Y-20159619D01*
X18004524Y-20159619D02*
X18014048Y-20197714D01*
X18014048Y-20197714D02*
X18014048Y-20245333D01*
X18014048Y-20245333D02*
X18004524Y-20283429D01*
X18004524Y-20283429D02*
X17995000Y-20302476D01*
X17995000Y-20302476D02*
X17985476Y-20312000D01*
X17985476Y-20312000D02*
X17966429Y-20321524D01*
X17966429Y-20321524D02*
X17947381Y-20321524D01*
X17947381Y-20321524D02*
X17928333Y-20312000D01*
X17928333Y-20312000D02*
X17918810Y-20302476D01*
X17918810Y-20302476D02*
X17909286Y-20283429D01*
X17909286Y-20283429D02*
X17899762Y-20245333D01*
X17899762Y-20245333D02*
X17899762Y-20197714D01*
X17899762Y-20197714D02*
X17909286Y-20159619D01*
X17909286Y-20159619D02*
X17918810Y-20140571D01*
X17918810Y-20140571D02*
X17928333Y-20131048D01*
X17928333Y-20131048D02*
X17947381Y-20121524D01*
X18099762Y-20321524D02*
X18099762Y-20188190D01*
X18099762Y-20207238D02*
X18109286Y-20197714D01*
X18109286Y-20197714D02*
X18128333Y-20188190D01*
X18128333Y-20188190D02*
X18156905Y-20188190D01*
X18156905Y-20188190D02*
X18175952Y-20197714D01*
X18175952Y-20197714D02*
X18185476Y-20216762D01*
X18185476Y-20216762D02*
X18185476Y-20321524D01*
X18185476Y-20216762D02*
X18195000Y-20197714D01*
X18195000Y-20197714D02*
X18214048Y-20188190D01*
X18214048Y-20188190D02*
X18242619Y-20188190D01*
X18242619Y-20188190D02*
X18261667Y-20197714D01*
X18261667Y-20197714D02*
X18271191Y-20216762D01*
X18271191Y-20216762D02*
X18271191Y-20321524D01*
X18366429Y-20321524D02*
X18366429Y-20188190D01*
X18366429Y-20207238D02*
X18375952Y-20197714D01*
X18375952Y-20197714D02*
X18395000Y-20188190D01*
X18395000Y-20188190D02*
X18423572Y-20188190D01*
X18423572Y-20188190D02*
X18442619Y-20197714D01*
X18442619Y-20197714D02*
X18452143Y-20216762D01*
X18452143Y-20216762D02*
X18452143Y-20321524D01*
X18452143Y-20216762D02*
X18461667Y-20197714D01*
X18461667Y-20197714D02*
X18480714Y-20188190D01*
X18480714Y-20188190D02*
X18509286Y-20188190D01*
X18509286Y-20188190D02*
X18528333Y-20197714D01*
X18528333Y-20197714D02*
X18537857Y-20216762D01*
X18537857Y-20216762D02*
X18537857Y-20321524D01*
X18928333Y-20112000D02*
X18756905Y-20369143D01*
X19185476Y-20121524D02*
X19204524Y-20121524D01*
X19204524Y-20121524D02*
X19223572Y-20131048D01*
X19223572Y-20131048D02*
X19233095Y-20140571D01*
X19233095Y-20140571D02*
X19242619Y-20159619D01*
X19242619Y-20159619D02*
X19252143Y-20197714D01*
X19252143Y-20197714D02*
X19252143Y-20245333D01*
X19252143Y-20245333D02*
X19242619Y-20283429D01*
X19242619Y-20283429D02*
X19233095Y-20302476D01*
X19233095Y-20302476D02*
X19223572Y-20312000D01*
X19223572Y-20312000D02*
X19204524Y-20321524D01*
X19204524Y-20321524D02*
X19185476Y-20321524D01*
X19185476Y-20321524D02*
X19166429Y-20312000D01*
X19166429Y-20312000D02*
X19156905Y-20302476D01*
X19156905Y-20302476D02*
X19147381Y-20283429D01*
X19147381Y-20283429D02*
X19137857Y-20245333D01*
X19137857Y-20245333D02*
X19137857Y-20197714D01*
X19137857Y-20197714D02*
X19147381Y-20159619D01*
X19147381Y-20159619D02*
X19156905Y-20140571D01*
X19156905Y-20140571D02*
X19166429Y-20131048D01*
X19166429Y-20131048D02*
X19185476Y-20121524D01*
X19337857Y-20302476D02*
X19347381Y-20312000D01*
X19347381Y-20312000D02*
X19337857Y-20321524D01*
X19337857Y-20321524D02*
X19328334Y-20312000D01*
X19328334Y-20312000D02*
X19337857Y-20302476D01*
X19337857Y-20302476D02*
X19337857Y-20321524D01*
X19537857Y-20321524D02*
X19423572Y-20321524D01*
X19480714Y-20321524D02*
X19480714Y-20121524D01*
X19480714Y-20121524D02*
X19461667Y-20150095D01*
X19461667Y-20150095D02*
X19442619Y-20169143D01*
X19442619Y-20169143D02*
X19423572Y-20178667D01*
X19728334Y-20321524D02*
X19614048Y-20321524D01*
X19671191Y-20321524D02*
X19671191Y-20121524D01*
X19671191Y-20121524D02*
X19652143Y-20150095D01*
X19652143Y-20150095D02*
X19633095Y-20169143D01*
X19633095Y-20169143D02*
X19614048Y-20178667D01*
X19842619Y-20207238D02*
X19823572Y-20197714D01*
X19823572Y-20197714D02*
X19814048Y-20188190D01*
X19814048Y-20188190D02*
X19804524Y-20169143D01*
X19804524Y-20169143D02*
X19804524Y-20159619D01*
X19804524Y-20159619D02*
X19814048Y-20140571D01*
X19814048Y-20140571D02*
X19823572Y-20131048D01*
X19823572Y-20131048D02*
X19842619Y-20121524D01*
X19842619Y-20121524D02*
X19880715Y-20121524D01*
X19880715Y-20121524D02*
X19899762Y-20131048D01*
X19899762Y-20131048D02*
X19909286Y-20140571D01*
X19909286Y-20140571D02*
X19918810Y-20159619D01*
X19918810Y-20159619D02*
X19918810Y-20169143D01*
X19918810Y-20169143D02*
X19909286Y-20188190D01*
X19909286Y-20188190D02*
X19899762Y-20197714D01*
X19899762Y-20197714D02*
X19880715Y-20207238D01*
X19880715Y-20207238D02*
X19842619Y-20207238D01*
X19842619Y-20207238D02*
X19823572Y-20216762D01*
X19823572Y-20216762D02*
X19814048Y-20226286D01*
X19814048Y-20226286D02*
X19804524Y-20245333D01*
X19804524Y-20245333D02*
X19804524Y-20283429D01*
X19804524Y-20283429D02*
X19814048Y-20302476D01*
X19814048Y-20302476D02*
X19823572Y-20312000D01*
X19823572Y-20312000D02*
X19842619Y-20321524D01*
X19842619Y-20321524D02*
X19880715Y-20321524D01*
X19880715Y-20321524D02*
X19899762Y-20312000D01*
X19899762Y-20312000D02*
X19909286Y-20302476D01*
X19909286Y-20302476D02*
X19918810Y-20283429D01*
X19918810Y-20283429D02*
X19918810Y-20245333D01*
X19918810Y-20245333D02*
X19909286Y-20226286D01*
X19909286Y-20226286D02*
X19899762Y-20216762D01*
X19899762Y-20216762D02*
X19880715Y-20207238D01*
X20109286Y-20321524D02*
X19995000Y-20321524D01*
X20052143Y-20321524D02*
X20052143Y-20121524D01*
X20052143Y-20121524D02*
X20033095Y-20150095D01*
X20033095Y-20150095D02*
X20014048Y-20169143D01*
X20014048Y-20169143D02*
X19995000Y-20178667D01*
X20185476Y-20121524D02*
X20185476Y-20159619D01*
X20261667Y-20121524D02*
X20261667Y-20159619D01*
X20556905Y-20397714D02*
X20547381Y-20388190D01*
X20547381Y-20388190D02*
X20528334Y-20359619D01*
X20528334Y-20359619D02*
X20518810Y-20340571D01*
X20518810Y-20340571D02*
X20509286Y-20312000D01*
X20509286Y-20312000D02*
X20499762Y-20264381D01*
X20499762Y-20264381D02*
X20499762Y-20226286D01*
X20499762Y-20226286D02*
X20509286Y-20178667D01*
X20509286Y-20178667D02*
X20518810Y-20150095D01*
X20518810Y-20150095D02*
X20528334Y-20131048D01*
X20528334Y-20131048D02*
X20547381Y-20102476D01*
X20547381Y-20102476D02*
X20556905Y-20092952D01*
X20718810Y-20188190D02*
X20718810Y-20321524D01*
X20671191Y-20112000D02*
X20623572Y-20254857D01*
X20623572Y-20254857D02*
X20747381Y-20254857D01*
X20975953Y-20321524D02*
X20975953Y-20121524D01*
X21061667Y-20321524D02*
X21061667Y-20216762D01*
X21061667Y-20216762D02*
X21052143Y-20197714D01*
X21052143Y-20197714D02*
X21033096Y-20188190D01*
X21033096Y-20188190D02*
X21004524Y-20188190D01*
X21004524Y-20188190D02*
X20985477Y-20197714D01*
X20985477Y-20197714D02*
X20975953Y-20207238D01*
X21185477Y-20321524D02*
X21166429Y-20312000D01*
X21166429Y-20312000D02*
X21156905Y-20302476D01*
X21156905Y-20302476D02*
X21147381Y-20283429D01*
X21147381Y-20283429D02*
X21147381Y-20226286D01*
X21147381Y-20226286D02*
X21156905Y-20207238D01*
X21156905Y-20207238D02*
X21166429Y-20197714D01*
X21166429Y-20197714D02*
X21185477Y-20188190D01*
X21185477Y-20188190D02*
X21214048Y-20188190D01*
X21214048Y-20188190D02*
X21233096Y-20197714D01*
X21233096Y-20197714D02*
X21242619Y-20207238D01*
X21242619Y-20207238D02*
X21252143Y-20226286D01*
X21252143Y-20226286D02*
X21252143Y-20283429D01*
X21252143Y-20283429D02*
X21242619Y-20302476D01*
X21242619Y-20302476D02*
X21233096Y-20312000D01*
X21233096Y-20312000D02*
X21214048Y-20321524D01*
X21214048Y-20321524D02*
X21185477Y-20321524D01*
X21366429Y-20321524D02*
X21347381Y-20312000D01*
X21347381Y-20312000D02*
X21337858Y-20292952D01*
X21337858Y-20292952D02*
X21337858Y-20121524D01*
X21518810Y-20312000D02*
X21499762Y-20321524D01*
X21499762Y-20321524D02*
X21461667Y-20321524D01*
X21461667Y-20321524D02*
X21442619Y-20312000D01*
X21442619Y-20312000D02*
X21433096Y-20292952D01*
X21433096Y-20292952D02*
X21433096Y-20216762D01*
X21433096Y-20216762D02*
X21442619Y-20197714D01*
X21442619Y-20197714D02*
X21461667Y-20188190D01*
X21461667Y-20188190D02*
X21499762Y-20188190D01*
X21499762Y-20188190D02*
X21518810Y-20197714D01*
X21518810Y-20197714D02*
X21528334Y-20216762D01*
X21528334Y-20216762D02*
X21528334Y-20235810D01*
X21528334Y-20235810D02*
X21433096Y-20254857D01*
X21604524Y-20312000D02*
X21623572Y-20321524D01*
X21623572Y-20321524D02*
X21661667Y-20321524D01*
X21661667Y-20321524D02*
X21680715Y-20312000D01*
X21680715Y-20312000D02*
X21690239Y-20292952D01*
X21690239Y-20292952D02*
X21690239Y-20283429D01*
X21690239Y-20283429D02*
X21680715Y-20264381D01*
X21680715Y-20264381D02*
X21661667Y-20254857D01*
X21661667Y-20254857D02*
X21633096Y-20254857D01*
X21633096Y-20254857D02*
X21614048Y-20245333D01*
X21614048Y-20245333D02*
X21604524Y-20226286D01*
X21604524Y-20226286D02*
X21604524Y-20216762D01*
X21604524Y-20216762D02*
X21614048Y-20197714D01*
X21614048Y-20197714D02*
X21633096Y-20188190D01*
X21633096Y-20188190D02*
X21661667Y-20188190D01*
X21661667Y-20188190D02*
X21680715Y-20197714D01*
X21756905Y-20397714D02*
X21766429Y-20388190D01*
X21766429Y-20388190D02*
X21785477Y-20359619D01*
X21785477Y-20359619D02*
X21795000Y-20340571D01*
X21795000Y-20340571D02*
X21804524Y-20312000D01*
X21804524Y-20312000D02*
X21814048Y-20264381D01*
X21814048Y-20264381D02*
X21814048Y-20226286D01*
X21814048Y-20226286D02*
X21804524Y-20178667D01*
X21804524Y-20178667D02*
X21795000Y-20150095D01*
X21795000Y-20150095D02*
X21785477Y-20131048D01*
X21785477Y-20131048D02*
X21766429Y-20102476D01*
X21766429Y-20102476D02*
X21756905Y-20092952D01*
X22118810Y-20397714D02*
X22109286Y-20388190D01*
X22109286Y-20388190D02*
X22090239Y-20359619D01*
X22090239Y-20359619D02*
X22080715Y-20340571D01*
X22080715Y-20340571D02*
X22071191Y-20312000D01*
X22071191Y-20312000D02*
X22061667Y-20264381D01*
X22061667Y-20264381D02*
X22061667Y-20226286D01*
X22061667Y-20226286D02*
X22071191Y-20178667D01*
X22071191Y-20178667D02*
X22080715Y-20150095D01*
X22080715Y-20150095D02*
X22090239Y-20131048D01*
X22090239Y-20131048D02*
X22109286Y-20102476D01*
X22109286Y-20102476D02*
X22118810Y-20092952D01*
X22195000Y-20188190D02*
X22195000Y-20321524D01*
X22195000Y-20207238D02*
X22204524Y-20197714D01*
X22204524Y-20197714D02*
X22223572Y-20188190D01*
X22223572Y-20188190D02*
X22252143Y-20188190D01*
X22252143Y-20188190D02*
X22271191Y-20197714D01*
X22271191Y-20197714D02*
X22280715Y-20216762D01*
X22280715Y-20216762D02*
X22280715Y-20321524D01*
X22404524Y-20321524D02*
X22385477Y-20312000D01*
X22385477Y-20312000D02*
X22375953Y-20302476D01*
X22375953Y-20302476D02*
X22366429Y-20283429D01*
X22366429Y-20283429D02*
X22366429Y-20226286D01*
X22366429Y-20226286D02*
X22375953Y-20207238D01*
X22375953Y-20207238D02*
X22385477Y-20197714D01*
X22385477Y-20197714D02*
X22404524Y-20188190D01*
X22404524Y-20188190D02*
X22433096Y-20188190D01*
X22433096Y-20188190D02*
X22452143Y-20197714D01*
X22452143Y-20197714D02*
X22461667Y-20207238D01*
X22461667Y-20207238D02*
X22471191Y-20226286D01*
X22471191Y-20226286D02*
X22471191Y-20283429D01*
X22471191Y-20283429D02*
X22461667Y-20302476D01*
X22461667Y-20302476D02*
X22452143Y-20312000D01*
X22452143Y-20312000D02*
X22433096Y-20321524D01*
X22433096Y-20321524D02*
X22404524Y-20321524D01*
X22528334Y-20188190D02*
X22604524Y-20188190D01*
X22556905Y-20121524D02*
X22556905Y-20292952D01*
X22556905Y-20292952D02*
X22566429Y-20312000D01*
X22566429Y-20312000D02*
X22585477Y-20321524D01*
X22585477Y-20321524D02*
X22604524Y-20321524D01*
X22823572Y-20188190D02*
X22823572Y-20388190D01*
X22823572Y-20197714D02*
X22842619Y-20188190D01*
X22842619Y-20188190D02*
X22880715Y-20188190D01*
X22880715Y-20188190D02*
X22899762Y-20197714D01*
X22899762Y-20197714D02*
X22909286Y-20207238D01*
X22909286Y-20207238D02*
X22918810Y-20226286D01*
X22918810Y-20226286D02*
X22918810Y-20283429D01*
X22918810Y-20283429D02*
X22909286Y-20302476D01*
X22909286Y-20302476D02*
X22899762Y-20312000D01*
X22899762Y-20312000D02*
X22880715Y-20321524D01*
X22880715Y-20321524D02*
X22842619Y-20321524D01*
X22842619Y-20321524D02*
X22823572Y-20312000D01*
X23033096Y-20321524D02*
X23014048Y-20312000D01*
X23014048Y-20312000D02*
X23004524Y-20292952D01*
X23004524Y-20292952D02*
X23004524Y-20121524D01*
X23195000Y-20321524D02*
X23195000Y-20216762D01*
X23195000Y-20216762D02*
X23185477Y-20197714D01*
X23185477Y-20197714D02*
X23166429Y-20188190D01*
X23166429Y-20188190D02*
X23128334Y-20188190D01*
X23128334Y-20188190D02*
X23109286Y-20197714D01*
X23195000Y-20312000D02*
X23175953Y-20321524D01*
X23175953Y-20321524D02*
X23128334Y-20321524D01*
X23128334Y-20321524D02*
X23109286Y-20312000D01*
X23109286Y-20312000D02*
X23099762Y-20292952D01*
X23099762Y-20292952D02*
X23099762Y-20273905D01*
X23099762Y-20273905D02*
X23109286Y-20254857D01*
X23109286Y-20254857D02*
X23128334Y-20245333D01*
X23128334Y-20245333D02*
X23175953Y-20245333D01*
X23175953Y-20245333D02*
X23195000Y-20235810D01*
X23261667Y-20188190D02*
X23337858Y-20188190D01*
X23290239Y-20121524D02*
X23290239Y-20292952D01*
X23290239Y-20292952D02*
X23299762Y-20312000D01*
X23299762Y-20312000D02*
X23318810Y-20321524D01*
X23318810Y-20321524D02*
X23337858Y-20321524D01*
X23480715Y-20312000D02*
X23461667Y-20321524D01*
X23461667Y-20321524D02*
X23423572Y-20321524D01*
X23423572Y-20321524D02*
X23404524Y-20312000D01*
X23404524Y-20312000D02*
X23395000Y-20292952D01*
X23395000Y-20292952D02*
X23395000Y-20216762D01*
X23395000Y-20216762D02*
X23404524Y-20197714D01*
X23404524Y-20197714D02*
X23423572Y-20188190D01*
X23423572Y-20188190D02*
X23461667Y-20188190D01*
X23461667Y-20188190D02*
X23480715Y-20197714D01*
X23480715Y-20197714D02*
X23490239Y-20216762D01*
X23490239Y-20216762D02*
X23490239Y-20235810D01*
X23490239Y-20235810D02*
X23395000Y-20254857D01*
X23661667Y-20321524D02*
X23661667Y-20121524D01*
X23661667Y-20312000D02*
X23642620Y-20321524D01*
X23642620Y-20321524D02*
X23604524Y-20321524D01*
X23604524Y-20321524D02*
X23585477Y-20312000D01*
X23585477Y-20312000D02*
X23575953Y-20302476D01*
X23575953Y-20302476D02*
X23566429Y-20283429D01*
X23566429Y-20283429D02*
X23566429Y-20226286D01*
X23566429Y-20226286D02*
X23575953Y-20207238D01*
X23575953Y-20207238D02*
X23585477Y-20197714D01*
X23585477Y-20197714D02*
X23604524Y-20188190D01*
X23604524Y-20188190D02*
X23642620Y-20188190D01*
X23642620Y-20188190D02*
X23661667Y-20197714D01*
X23737858Y-20397714D02*
X23747381Y-20388190D01*
X23747381Y-20388190D02*
X23766429Y-20359619D01*
X23766429Y-20359619D02*
X23775953Y-20340571D01*
X23775953Y-20340571D02*
X23785477Y-20312000D01*
X23785477Y-20312000D02*
X23795000Y-20264381D01*
X23795000Y-20264381D02*
X23795000Y-20226286D01*
X23795000Y-20226286D02*
X23785477Y-20178667D01*
X23785477Y-20178667D02*
X23775953Y-20150095D01*
X23775953Y-20150095D02*
X23766429Y-20131048D01*
X23766429Y-20131048D02*
X23747381Y-20102476D01*
X23747381Y-20102476D02*
X23737858Y-20092952D01*
X16965711Y-20619711D02*
X16965711Y-20478289D01*
X16824289Y-20478289D01*
X16824289Y-20619711D01*
X16965711Y-20619711D01*
X17223571Y-20441524D02*
X17347381Y-20441524D01*
X17347381Y-20441524D02*
X17280714Y-20517714D01*
X17280714Y-20517714D02*
X17309286Y-20517714D01*
X17309286Y-20517714D02*
X17328333Y-20527238D01*
X17328333Y-20527238D02*
X17337857Y-20536762D01*
X17337857Y-20536762D02*
X17347381Y-20555810D01*
X17347381Y-20555810D02*
X17347381Y-20603429D01*
X17347381Y-20603429D02*
X17337857Y-20622476D01*
X17337857Y-20622476D02*
X17328333Y-20632000D01*
X17328333Y-20632000D02*
X17309286Y-20641524D01*
X17309286Y-20641524D02*
X17252143Y-20641524D01*
X17252143Y-20641524D02*
X17233095Y-20632000D01*
X17233095Y-20632000D02*
X17223571Y-20622476D01*
X17433095Y-20622476D02*
X17442619Y-20632000D01*
X17442619Y-20632000D02*
X17433095Y-20641524D01*
X17433095Y-20641524D02*
X17423571Y-20632000D01*
X17423571Y-20632000D02*
X17433095Y-20622476D01*
X17433095Y-20622476D02*
X17433095Y-20641524D01*
X17518810Y-20460571D02*
X17528333Y-20451048D01*
X17528333Y-20451048D02*
X17547381Y-20441524D01*
X17547381Y-20441524D02*
X17595000Y-20441524D01*
X17595000Y-20441524D02*
X17614048Y-20451048D01*
X17614048Y-20451048D02*
X17623571Y-20460571D01*
X17623571Y-20460571D02*
X17633095Y-20479619D01*
X17633095Y-20479619D02*
X17633095Y-20498667D01*
X17633095Y-20498667D02*
X17623571Y-20527238D01*
X17623571Y-20527238D02*
X17509286Y-20641524D01*
X17509286Y-20641524D02*
X17633095Y-20641524D01*
X17756905Y-20441524D02*
X17775952Y-20441524D01*
X17775952Y-20441524D02*
X17795000Y-20451048D01*
X17795000Y-20451048D02*
X17804524Y-20460571D01*
X17804524Y-20460571D02*
X17814048Y-20479619D01*
X17814048Y-20479619D02*
X17823571Y-20517714D01*
X17823571Y-20517714D02*
X17823571Y-20565333D01*
X17823571Y-20565333D02*
X17814048Y-20603429D01*
X17814048Y-20603429D02*
X17804524Y-20622476D01*
X17804524Y-20622476D02*
X17795000Y-20632000D01*
X17795000Y-20632000D02*
X17775952Y-20641524D01*
X17775952Y-20641524D02*
X17756905Y-20641524D01*
X17756905Y-20641524D02*
X17737857Y-20632000D01*
X17737857Y-20632000D02*
X17728333Y-20622476D01*
X17728333Y-20622476D02*
X17718810Y-20603429D01*
X17718810Y-20603429D02*
X17709286Y-20565333D01*
X17709286Y-20565333D02*
X17709286Y-20517714D01*
X17709286Y-20517714D02*
X17718810Y-20479619D01*
X17718810Y-20479619D02*
X17728333Y-20460571D01*
X17728333Y-20460571D02*
X17737857Y-20451048D01*
X17737857Y-20451048D02*
X17756905Y-20441524D01*
X17947381Y-20441524D02*
X17966429Y-20441524D01*
X17966429Y-20441524D02*
X17985476Y-20451048D01*
X17985476Y-20451048D02*
X17995000Y-20460571D01*
X17995000Y-20460571D02*
X18004524Y-20479619D01*
X18004524Y-20479619D02*
X18014048Y-20517714D01*
X18014048Y-20517714D02*
X18014048Y-20565333D01*
X18014048Y-20565333D02*
X18004524Y-20603429D01*
X18004524Y-20603429D02*
X17995000Y-20622476D01*
X17995000Y-20622476D02*
X17985476Y-20632000D01*
X17985476Y-20632000D02*
X17966429Y-20641524D01*
X17966429Y-20641524D02*
X17947381Y-20641524D01*
X17947381Y-20641524D02*
X17928333Y-20632000D01*
X17928333Y-20632000D02*
X17918810Y-20622476D01*
X17918810Y-20622476D02*
X17909286Y-20603429D01*
X17909286Y-20603429D02*
X17899762Y-20565333D01*
X17899762Y-20565333D02*
X17899762Y-20517714D01*
X17899762Y-20517714D02*
X17909286Y-20479619D01*
X17909286Y-20479619D02*
X17918810Y-20460571D01*
X17918810Y-20460571D02*
X17928333Y-20451048D01*
X17928333Y-20451048D02*
X17947381Y-20441524D01*
X18099762Y-20641524D02*
X18099762Y-20508190D01*
X18099762Y-20527238D02*
X18109286Y-20517714D01*
X18109286Y-20517714D02*
X18128333Y-20508190D01*
X18128333Y-20508190D02*
X18156905Y-20508190D01*
X18156905Y-20508190D02*
X18175952Y-20517714D01*
X18175952Y-20517714D02*
X18185476Y-20536762D01*
X18185476Y-20536762D02*
X18185476Y-20641524D01*
X18185476Y-20536762D02*
X18195000Y-20517714D01*
X18195000Y-20517714D02*
X18214048Y-20508190D01*
X18214048Y-20508190D02*
X18242619Y-20508190D01*
X18242619Y-20508190D02*
X18261667Y-20517714D01*
X18261667Y-20517714D02*
X18271191Y-20536762D01*
X18271191Y-20536762D02*
X18271191Y-20641524D01*
X18366429Y-20641524D02*
X18366429Y-20508190D01*
X18366429Y-20527238D02*
X18375952Y-20517714D01*
X18375952Y-20517714D02*
X18395000Y-20508190D01*
X18395000Y-20508190D02*
X18423572Y-20508190D01*
X18423572Y-20508190D02*
X18442619Y-20517714D01*
X18442619Y-20517714D02*
X18452143Y-20536762D01*
X18452143Y-20536762D02*
X18452143Y-20641524D01*
X18452143Y-20536762D02*
X18461667Y-20517714D01*
X18461667Y-20517714D02*
X18480714Y-20508190D01*
X18480714Y-20508190D02*
X18509286Y-20508190D01*
X18509286Y-20508190D02*
X18528333Y-20517714D01*
X18528333Y-20517714D02*
X18537857Y-20536762D01*
X18537857Y-20536762D02*
X18537857Y-20641524D01*
X18928333Y-20432000D02*
X18756905Y-20689143D01*
X19185476Y-20441524D02*
X19204524Y-20441524D01*
X19204524Y-20441524D02*
X19223572Y-20451048D01*
X19223572Y-20451048D02*
X19233095Y-20460571D01*
X19233095Y-20460571D02*
X19242619Y-20479619D01*
X19242619Y-20479619D02*
X19252143Y-20517714D01*
X19252143Y-20517714D02*
X19252143Y-20565333D01*
X19252143Y-20565333D02*
X19242619Y-20603429D01*
X19242619Y-20603429D02*
X19233095Y-20622476D01*
X19233095Y-20622476D02*
X19223572Y-20632000D01*
X19223572Y-20632000D02*
X19204524Y-20641524D01*
X19204524Y-20641524D02*
X19185476Y-20641524D01*
X19185476Y-20641524D02*
X19166429Y-20632000D01*
X19166429Y-20632000D02*
X19156905Y-20622476D01*
X19156905Y-20622476D02*
X19147381Y-20603429D01*
X19147381Y-20603429D02*
X19137857Y-20565333D01*
X19137857Y-20565333D02*
X19137857Y-20517714D01*
X19137857Y-20517714D02*
X19147381Y-20479619D01*
X19147381Y-20479619D02*
X19156905Y-20460571D01*
X19156905Y-20460571D02*
X19166429Y-20451048D01*
X19166429Y-20451048D02*
X19185476Y-20441524D01*
X19337857Y-20622476D02*
X19347381Y-20632000D01*
X19347381Y-20632000D02*
X19337857Y-20641524D01*
X19337857Y-20641524D02*
X19328334Y-20632000D01*
X19328334Y-20632000D02*
X19337857Y-20622476D01*
X19337857Y-20622476D02*
X19337857Y-20641524D01*
X19537857Y-20641524D02*
X19423572Y-20641524D01*
X19480714Y-20641524D02*
X19480714Y-20441524D01*
X19480714Y-20441524D02*
X19461667Y-20470095D01*
X19461667Y-20470095D02*
X19442619Y-20489143D01*
X19442619Y-20489143D02*
X19423572Y-20498667D01*
X19614048Y-20460571D02*
X19623572Y-20451048D01*
X19623572Y-20451048D02*
X19642619Y-20441524D01*
X19642619Y-20441524D02*
X19690238Y-20441524D01*
X19690238Y-20441524D02*
X19709286Y-20451048D01*
X19709286Y-20451048D02*
X19718810Y-20460571D01*
X19718810Y-20460571D02*
X19728334Y-20479619D01*
X19728334Y-20479619D02*
X19728334Y-20498667D01*
X19728334Y-20498667D02*
X19718810Y-20527238D01*
X19718810Y-20527238D02*
X19604524Y-20641524D01*
X19604524Y-20641524D02*
X19728334Y-20641524D01*
X19899762Y-20441524D02*
X19861667Y-20441524D01*
X19861667Y-20441524D02*
X19842619Y-20451048D01*
X19842619Y-20451048D02*
X19833095Y-20460571D01*
X19833095Y-20460571D02*
X19814048Y-20489143D01*
X19814048Y-20489143D02*
X19804524Y-20527238D01*
X19804524Y-20527238D02*
X19804524Y-20603429D01*
X19804524Y-20603429D02*
X19814048Y-20622476D01*
X19814048Y-20622476D02*
X19823572Y-20632000D01*
X19823572Y-20632000D02*
X19842619Y-20641524D01*
X19842619Y-20641524D02*
X19880715Y-20641524D01*
X19880715Y-20641524D02*
X19899762Y-20632000D01*
X19899762Y-20632000D02*
X19909286Y-20622476D01*
X19909286Y-20622476D02*
X19918810Y-20603429D01*
X19918810Y-20603429D02*
X19918810Y-20555810D01*
X19918810Y-20555810D02*
X19909286Y-20536762D01*
X19909286Y-20536762D02*
X19899762Y-20527238D01*
X19899762Y-20527238D02*
X19880715Y-20517714D01*
X19880715Y-20517714D02*
X19842619Y-20517714D01*
X19842619Y-20517714D02*
X19823572Y-20527238D01*
X19823572Y-20527238D02*
X19814048Y-20536762D01*
X19814048Y-20536762D02*
X19804524Y-20555810D01*
X20042619Y-20441524D02*
X20061667Y-20441524D01*
X20061667Y-20441524D02*
X20080715Y-20451048D01*
X20080715Y-20451048D02*
X20090238Y-20460571D01*
X20090238Y-20460571D02*
X20099762Y-20479619D01*
X20099762Y-20479619D02*
X20109286Y-20517714D01*
X20109286Y-20517714D02*
X20109286Y-20565333D01*
X20109286Y-20565333D02*
X20099762Y-20603429D01*
X20099762Y-20603429D02*
X20090238Y-20622476D01*
X20090238Y-20622476D02*
X20080715Y-20632000D01*
X20080715Y-20632000D02*
X20061667Y-20641524D01*
X20061667Y-20641524D02*
X20042619Y-20641524D01*
X20042619Y-20641524D02*
X20023572Y-20632000D01*
X20023572Y-20632000D02*
X20014048Y-20622476D01*
X20014048Y-20622476D02*
X20004524Y-20603429D01*
X20004524Y-20603429D02*
X19995000Y-20565333D01*
X19995000Y-20565333D02*
X19995000Y-20517714D01*
X19995000Y-20517714D02*
X20004524Y-20479619D01*
X20004524Y-20479619D02*
X20014048Y-20460571D01*
X20014048Y-20460571D02*
X20023572Y-20451048D01*
X20023572Y-20451048D02*
X20042619Y-20441524D01*
X20185476Y-20441524D02*
X20185476Y-20479619D01*
X20261667Y-20441524D02*
X20261667Y-20479619D01*
X20556905Y-20717714D02*
X20547381Y-20708190D01*
X20547381Y-20708190D02*
X20528334Y-20679619D01*
X20528334Y-20679619D02*
X20518810Y-20660571D01*
X20518810Y-20660571D02*
X20509286Y-20632000D01*
X20509286Y-20632000D02*
X20499762Y-20584381D01*
X20499762Y-20584381D02*
X20499762Y-20546286D01*
X20499762Y-20546286D02*
X20509286Y-20498667D01*
X20509286Y-20498667D02*
X20518810Y-20470095D01*
X20518810Y-20470095D02*
X20528334Y-20451048D01*
X20528334Y-20451048D02*
X20547381Y-20422476D01*
X20547381Y-20422476D02*
X20556905Y-20412952D01*
X20737857Y-20641524D02*
X20623572Y-20641524D01*
X20680715Y-20641524D02*
X20680715Y-20441524D01*
X20680715Y-20441524D02*
X20661667Y-20470095D01*
X20661667Y-20470095D02*
X20642619Y-20489143D01*
X20642619Y-20489143D02*
X20623572Y-20498667D01*
X20814048Y-20460571D02*
X20823572Y-20451048D01*
X20823572Y-20451048D02*
X20842619Y-20441524D01*
X20842619Y-20441524D02*
X20890238Y-20441524D01*
X20890238Y-20441524D02*
X20909286Y-20451048D01*
X20909286Y-20451048D02*
X20918810Y-20460571D01*
X20918810Y-20460571D02*
X20928334Y-20479619D01*
X20928334Y-20479619D02*
X20928334Y-20498667D01*
X20928334Y-20498667D02*
X20918810Y-20527238D01*
X20918810Y-20527238D02*
X20804524Y-20641524D01*
X20804524Y-20641524D02*
X20928334Y-20641524D01*
X21166429Y-20641524D02*
X21166429Y-20441524D01*
X21252143Y-20641524D02*
X21252143Y-20536762D01*
X21252143Y-20536762D02*
X21242619Y-20517714D01*
X21242619Y-20517714D02*
X21223572Y-20508190D01*
X21223572Y-20508190D02*
X21195000Y-20508190D01*
X21195000Y-20508190D02*
X21175953Y-20517714D01*
X21175953Y-20517714D02*
X21166429Y-20527238D01*
X21375953Y-20641524D02*
X21356905Y-20632000D01*
X21356905Y-20632000D02*
X21347381Y-20622476D01*
X21347381Y-20622476D02*
X21337858Y-20603429D01*
X21337858Y-20603429D02*
X21337858Y-20546286D01*
X21337858Y-20546286D02*
X21347381Y-20527238D01*
X21347381Y-20527238D02*
X21356905Y-20517714D01*
X21356905Y-20517714D02*
X21375953Y-20508190D01*
X21375953Y-20508190D02*
X21404524Y-20508190D01*
X21404524Y-20508190D02*
X21423572Y-20517714D01*
X21423572Y-20517714D02*
X21433096Y-20527238D01*
X21433096Y-20527238D02*
X21442619Y-20546286D01*
X21442619Y-20546286D02*
X21442619Y-20603429D01*
X21442619Y-20603429D02*
X21433096Y-20622476D01*
X21433096Y-20622476D02*
X21423572Y-20632000D01*
X21423572Y-20632000D02*
X21404524Y-20641524D01*
X21404524Y-20641524D02*
X21375953Y-20641524D01*
X21556905Y-20641524D02*
X21537858Y-20632000D01*
X21537858Y-20632000D02*
X21528334Y-20612952D01*
X21528334Y-20612952D02*
X21528334Y-20441524D01*
X21709286Y-20632000D02*
X21690239Y-20641524D01*
X21690239Y-20641524D02*
X21652143Y-20641524D01*
X21652143Y-20641524D02*
X21633096Y-20632000D01*
X21633096Y-20632000D02*
X21623572Y-20612952D01*
X21623572Y-20612952D02*
X21623572Y-20536762D01*
X21623572Y-20536762D02*
X21633096Y-20517714D01*
X21633096Y-20517714D02*
X21652143Y-20508190D01*
X21652143Y-20508190D02*
X21690239Y-20508190D01*
X21690239Y-20508190D02*
X21709286Y-20517714D01*
X21709286Y-20517714D02*
X21718810Y-20536762D01*
X21718810Y-20536762D02*
X21718810Y-20555810D01*
X21718810Y-20555810D02*
X21623572Y-20574857D01*
X21795000Y-20632000D02*
X21814048Y-20641524D01*
X21814048Y-20641524D02*
X21852143Y-20641524D01*
X21852143Y-20641524D02*
X21871191Y-20632000D01*
X21871191Y-20632000D02*
X21880715Y-20612952D01*
X21880715Y-20612952D02*
X21880715Y-20603429D01*
X21880715Y-20603429D02*
X21871191Y-20584381D01*
X21871191Y-20584381D02*
X21852143Y-20574857D01*
X21852143Y-20574857D02*
X21823572Y-20574857D01*
X21823572Y-20574857D02*
X21804524Y-20565333D01*
X21804524Y-20565333D02*
X21795000Y-20546286D01*
X21795000Y-20546286D02*
X21795000Y-20536762D01*
X21795000Y-20536762D02*
X21804524Y-20517714D01*
X21804524Y-20517714D02*
X21823572Y-20508190D01*
X21823572Y-20508190D02*
X21852143Y-20508190D01*
X21852143Y-20508190D02*
X21871191Y-20517714D01*
X21947381Y-20717714D02*
X21956905Y-20708190D01*
X21956905Y-20708190D02*
X21975953Y-20679619D01*
X21975953Y-20679619D02*
X21985477Y-20660571D01*
X21985477Y-20660571D02*
X21995000Y-20632000D01*
X21995000Y-20632000D02*
X22004524Y-20584381D01*
X22004524Y-20584381D02*
X22004524Y-20546286D01*
X22004524Y-20546286D02*
X21995000Y-20498667D01*
X21995000Y-20498667D02*
X21985477Y-20470095D01*
X21985477Y-20470095D02*
X21975953Y-20451048D01*
X21975953Y-20451048D02*
X21956905Y-20422476D01*
X21956905Y-20422476D02*
X21947381Y-20412952D01*
X22309286Y-20717714D02*
X22299762Y-20708190D01*
X22299762Y-20708190D02*
X22280715Y-20679619D01*
X22280715Y-20679619D02*
X22271191Y-20660571D01*
X22271191Y-20660571D02*
X22261667Y-20632000D01*
X22261667Y-20632000D02*
X22252143Y-20584381D01*
X22252143Y-20584381D02*
X22252143Y-20546286D01*
X22252143Y-20546286D02*
X22261667Y-20498667D01*
X22261667Y-20498667D02*
X22271191Y-20470095D01*
X22271191Y-20470095D02*
X22280715Y-20451048D01*
X22280715Y-20451048D02*
X22299762Y-20422476D01*
X22299762Y-20422476D02*
X22309286Y-20412952D01*
X22385477Y-20508190D02*
X22385477Y-20641524D01*
X22385477Y-20527238D02*
X22395000Y-20517714D01*
X22395000Y-20517714D02*
X22414048Y-20508190D01*
X22414048Y-20508190D02*
X22442619Y-20508190D01*
X22442619Y-20508190D02*
X22461667Y-20517714D01*
X22461667Y-20517714D02*
X22471191Y-20536762D01*
X22471191Y-20536762D02*
X22471191Y-20641524D01*
X22595000Y-20641524D02*
X22575953Y-20632000D01*
X22575953Y-20632000D02*
X22566429Y-20622476D01*
X22566429Y-20622476D02*
X22556905Y-20603429D01*
X22556905Y-20603429D02*
X22556905Y-20546286D01*
X22556905Y-20546286D02*
X22566429Y-20527238D01*
X22566429Y-20527238D02*
X22575953Y-20517714D01*
X22575953Y-20517714D02*
X22595000Y-20508190D01*
X22595000Y-20508190D02*
X22623572Y-20508190D01*
X22623572Y-20508190D02*
X22642619Y-20517714D01*
X22642619Y-20517714D02*
X22652143Y-20527238D01*
X22652143Y-20527238D02*
X22661667Y-20546286D01*
X22661667Y-20546286D02*
X22661667Y-20603429D01*
X22661667Y-20603429D02*
X22652143Y-20622476D01*
X22652143Y-20622476D02*
X22642619Y-20632000D01*
X22642619Y-20632000D02*
X22623572Y-20641524D01*
X22623572Y-20641524D02*
X22595000Y-20641524D01*
X22718810Y-20508190D02*
X22795000Y-20508190D01*
X22747381Y-20441524D02*
X22747381Y-20612952D01*
X22747381Y-20612952D02*
X22756905Y-20632000D01*
X22756905Y-20632000D02*
X22775953Y-20641524D01*
X22775953Y-20641524D02*
X22795000Y-20641524D01*
X23014048Y-20508190D02*
X23014048Y-20708190D01*
X23014048Y-20517714D02*
X23033096Y-20508190D01*
X23033096Y-20508190D02*
X23071191Y-20508190D01*
X23071191Y-20508190D02*
X23090239Y-20517714D01*
X23090239Y-20517714D02*
X23099762Y-20527238D01*
X23099762Y-20527238D02*
X23109286Y-20546286D01*
X23109286Y-20546286D02*
X23109286Y-20603429D01*
X23109286Y-20603429D02*
X23099762Y-20622476D01*
X23099762Y-20622476D02*
X23090239Y-20632000D01*
X23090239Y-20632000D02*
X23071191Y-20641524D01*
X23071191Y-20641524D02*
X23033096Y-20641524D01*
X23033096Y-20641524D02*
X23014048Y-20632000D01*
X23223572Y-20641524D02*
X23204524Y-20632000D01*
X23204524Y-20632000D02*
X23195000Y-20612952D01*
X23195000Y-20612952D02*
X23195000Y-20441524D01*
X23385477Y-20641524D02*
X23385477Y-20536762D01*
X23385477Y-20536762D02*
X23375953Y-20517714D01*
X23375953Y-20517714D02*
X23356905Y-20508190D01*
X23356905Y-20508190D02*
X23318810Y-20508190D01*
X23318810Y-20508190D02*
X23299762Y-20517714D01*
X23385477Y-20632000D02*
X23366429Y-20641524D01*
X23366429Y-20641524D02*
X23318810Y-20641524D01*
X23318810Y-20641524D02*
X23299762Y-20632000D01*
X23299762Y-20632000D02*
X23290239Y-20612952D01*
X23290239Y-20612952D02*
X23290239Y-20593905D01*
X23290239Y-20593905D02*
X23299762Y-20574857D01*
X23299762Y-20574857D02*
X23318810Y-20565333D01*
X23318810Y-20565333D02*
X23366429Y-20565333D01*
X23366429Y-20565333D02*
X23385477Y-20555810D01*
X23452143Y-20508190D02*
X23528334Y-20508190D01*
X23480715Y-20441524D02*
X23480715Y-20612952D01*
X23480715Y-20612952D02*
X23490239Y-20632000D01*
X23490239Y-20632000D02*
X23509286Y-20641524D01*
X23509286Y-20641524D02*
X23528334Y-20641524D01*
X23671191Y-20632000D02*
X23652143Y-20641524D01*
X23652143Y-20641524D02*
X23614048Y-20641524D01*
X23614048Y-20641524D02*
X23595000Y-20632000D01*
X23595000Y-20632000D02*
X23585477Y-20612952D01*
X23585477Y-20612952D02*
X23585477Y-20536762D01*
X23585477Y-20536762D02*
X23595000Y-20517714D01*
X23595000Y-20517714D02*
X23614048Y-20508190D01*
X23614048Y-20508190D02*
X23652143Y-20508190D01*
X23652143Y-20508190D02*
X23671191Y-20517714D01*
X23671191Y-20517714D02*
X23680715Y-20536762D01*
X23680715Y-20536762D02*
X23680715Y-20555810D01*
X23680715Y-20555810D02*
X23585477Y-20574857D01*
X23852143Y-20641524D02*
X23852143Y-20441524D01*
X23852143Y-20632000D02*
X23833096Y-20641524D01*
X23833096Y-20641524D02*
X23795000Y-20641524D01*
X23795000Y-20641524D02*
X23775953Y-20632000D01*
X23775953Y-20632000D02*
X23766429Y-20622476D01*
X23766429Y-20622476D02*
X23756905Y-20603429D01*
X23756905Y-20603429D02*
X23756905Y-20546286D01*
X23756905Y-20546286D02*
X23766429Y-20527238D01*
X23766429Y-20527238D02*
X23775953Y-20517714D01*
X23775953Y-20517714D02*
X23795000Y-20508190D01*
X23795000Y-20508190D02*
X23833096Y-20508190D01*
X23833096Y-20508190D02*
X23852143Y-20517714D01*
X23928334Y-20717714D02*
X23937858Y-20708190D01*
X23937858Y-20708190D02*
X23956905Y-20679619D01*
X23956905Y-20679619D02*
X23966429Y-20660571D01*
X23966429Y-20660571D02*
X23975953Y-20632000D01*
X23975953Y-20632000D02*
X23985477Y-20584381D01*
X23985477Y-20584381D02*
X23985477Y-20546286D01*
X23985477Y-20546286D02*
X23975953Y-20498667D01*
X23975953Y-20498667D02*
X23966429Y-20470095D01*
X23966429Y-20470095D02*
X23956905Y-20451048D01*
X23956905Y-20451048D02*
X23937858Y-20422476D01*
X23937858Y-20422476D02*
X23928334Y-20412952D01*
M02*
