%TF.GenerationSoftware,KiCad,Pcbnew,7.0.2-6a45011f42~172~ubuntu22.04.1*%
%TF.CreationDate,2023-05-30T13:10:43+12:00*%
%TF.ProjectId,THE_BRAWN-20A_LOGIC_FIXTURE,5448455f-4252-4415-974e-2d3230415f4c,v1.0*%
%TF.SameCoordinates,Original*%
%TF.FileFunction,Copper,L1,Top*%
%TF.FilePolarity,Positive*%
%FSLAX46Y46*%
G04 Gerber Fmt 4.6, Leading zero omitted, Abs format (unit mm)*
G04 Created by KiCad (PCBNEW 7.0.2-6a45011f42~172~ubuntu22.04.1) date 2023-05-30 13:10:43*
%MOMM*%
%LPD*%
G01*
G04 APERTURE LIST*
G04 Aperture macros list*
%AMRoundRect*
0 Rectangle with rounded corners*
0 $1 Rounding radius*
0 $2 $3 $4 $5 $6 $7 $8 $9 X,Y pos of 4 corners*
0 Add a 4 corners polygon primitive as box body*
4,1,4,$2,$3,$4,$5,$6,$7,$8,$9,$2,$3,0*
0 Add four circle primitives for the rounded corners*
1,1,$1+$1,$2,$3*
1,1,$1+$1,$4,$5*
1,1,$1+$1,$6,$7*
1,1,$1+$1,$8,$9*
0 Add four rect primitives between the rounded corners*
20,1,$1+$1,$2,$3,$4,$5,0*
20,1,$1+$1,$4,$5,$6,$7,0*
20,1,$1+$1,$6,$7,$8,$9,0*
20,1,$1+$1,$8,$9,$2,$3,0*%
G04 Aperture macros list end*
%TA.AperFunction,ComponentPad*%
%ADD10C,2.200000*%
%TD*%
%TA.AperFunction,ComponentPad*%
%ADD11C,1.400000*%
%TD*%
%TA.AperFunction,ConnectorPad*%
%ADD12C,0.787400*%
%TD*%
%TA.AperFunction,ComponentPad*%
%ADD13C,1.300000*%
%TD*%
%TA.AperFunction,ComponentPad*%
%ADD14RoundRect,0.450000X0.450000X-0.450000X0.450000X0.450000X-0.450000X0.450000X-0.450000X-0.450000X0*%
%TD*%
%TA.AperFunction,ComponentPad*%
%ADD15C,3.000000*%
%TD*%
%TA.AperFunction,ComponentPad*%
%ADD16RoundRect,0.450000X0.450000X0.450000X-0.450000X0.450000X-0.450000X-0.450000X0.450000X-0.450000X0*%
%TD*%
%TA.AperFunction,ViaPad*%
%ADD17C,0.800000*%
%TD*%
%TA.AperFunction,Conductor*%
%ADD18C,0.200000*%
%TD*%
%TA.AperFunction,Conductor*%
%ADD19C,0.400000*%
%TD*%
%TA.AperFunction,Conductor*%
%ADD20C,1.000000*%
%TD*%
G04 APERTURE END LIST*
D10*
%TO.P,TP21,1,1*%
%TO.N,Net-(R15-Pad1)*%
X228500000Y-143820000D03*
%TD*%
%TO.P,TP14,1,1*%
%TO.N,Net-(R12-Pad1)*%
X221500000Y-138500000D03*
%TD*%
%TO.P,TP9,1,1*%
%TO.N,Net-(R6-Pad2)*%
X218500000Y-141500000D03*
%TD*%
%TO.P,TP1,1,1*%
%TO.N,Net-(R1-Pad2)*%
X211500000Y-136200000D03*
%TD*%
%TO.P,TP5,1,1*%
%TO.N,Net-(R3-Pad1)*%
X217000000Y-132900000D03*
%TD*%
D11*
%TO.P,TP12,1,1*%
%TO.N,Net-(R10-Pad1)*%
X226000000Y-131200000D03*
%TD*%
D10*
%TO.P,TP10,1,1*%
%TO.N,Net-(R8-Pad1)*%
X220000000Y-132900000D03*
%TD*%
D12*
%TO.P,N1,1,VCC*%
%TO.N,/3V3*%
X244590000Y-104415000D03*
%TO.P,N1,2,SWDIO*%
%TO.N,/SWDIO*%
X243320000Y-104415000D03*
%TO.P,N1,3,GND*%
%TO.N,/GND*%
X242050000Y-104415000D03*
%TO.P,N1,4,SWCLK*%
%TO.N,/SWDCLK*%
X240780000Y-104415000D03*
%TO.P,N1,5,V_AUX*%
%TO.N,unconnected-(N1-V_AUX-Pad5)*%
X239510000Y-104415000D03*
%TO.P,N1,6,SWO*%
%TO.N,unconnected-(N1-SWO-Pad6)*%
X239510000Y-105685000D03*
%TO.P,N1,7,TX*%
%TO.N,unconnected-(N1-TX-Pad7)*%
X240780000Y-105685000D03*
%TO.P,N1,8,DET*%
%TO.N,unconnected-(N1-DET-Pad8)*%
X242050000Y-105685000D03*
%TO.P,N1,9,RX*%
%TO.N,unconnected-(N1-RX-Pad9)*%
X243320000Y-105685000D03*
%TO.P,N1,10,nRST*%
%TO.N,/nRST*%
X244590000Y-105685000D03*
%TD*%
D10*
%TO.P,TP19,1,1*%
%TO.N,/B_FET_N2_HS*%
X228500000Y-138740000D03*
%TD*%
D13*
%TO.P,TP11,1,1*%
%TO.N,Net-(R9-Pad1)*%
X222000000Y-131200000D03*
%TD*%
D10*
%TO.P,TP18,1,1*%
%TO.N,/B_FET_N1_HS*%
X228500000Y-136200000D03*
%TD*%
%TO.P,TP2,1,1*%
%TO.N,Net-(R2-Pad2)*%
X211500000Y-138740000D03*
%TD*%
D14*
%TO.P,J5,1,1*%
%TO.N,/MOTOR_1+*%
X215000000Y-136000000D03*
%TO.P,J5,2,2*%
%TO.N,/MOTOR_1-*%
X217540000Y-136000000D03*
%TD*%
D13*
%TO.P,TP7,1,1*%
%TO.N,Net-(R7-Pad1)*%
X218000000Y-131200000D03*
%TD*%
D10*
%TO.P,TP13,1,1*%
%TO.N,Net-(R11-Pad1)*%
X223000000Y-132900000D03*
%TD*%
%TO.P,TP20,1,1*%
%TO.N,Net-(R14-Pad1)*%
X228500000Y-141280000D03*
%TD*%
%TO.P,TP3,1,1*%
%TO.N,/A_FET_N2*%
X211500000Y-141280000D03*
%TD*%
D15*
%TO.P,TP17,1,1*%
%TO.N,/GND*%
X231250000Y-109500000D03*
%TD*%
D11*
%TO.P,TP6,1,1*%
%TO.N,Net-(R4-Pad1)*%
X214000000Y-131200000D03*
%TD*%
D10*
%TO.P,TP15,1,1*%
%TO.N,Net-(R13-Pad1)*%
X221500000Y-141500000D03*
%TD*%
D15*
%TO.P,TP16,1,1*%
%TO.N,/BATT+*%
X227750000Y-109500000D03*
%TD*%
D10*
%TO.P,TP8,1,1*%
%TO.N,Net-(R5-Pad2)*%
X218500000Y-138500000D03*
%TD*%
%TO.P,TP4,1,1*%
%TO.N,/A_FET_N1*%
X211500000Y-143820000D03*
%TD*%
D14*
%TO.P,J3,1,1*%
%TO.N,/BATT+*%
X190310000Y-106110000D03*
%TO.P,J3,2,2*%
%TO.N,/GND*%
X187770000Y-106110000D03*
%TO.P,J3,3,3*%
X185230000Y-106110000D03*
%TO.P,J3,4,4*%
%TO.N,/SERVO*%
X182690000Y-106110000D03*
%TD*%
%TO.P,J2,1,1*%
%TO.N,unconnected-(J2-Pad1)*%
X254770000Y-107769500D03*
%TO.P,J2,2,2*%
%TO.N,/INVERT*%
X252230000Y-107769500D03*
%TO.P,J2,3,3*%
%TO.N,unconnected-(J2-Pad3)*%
X249690000Y-107769500D03*
%TD*%
D16*
%TO.P,J1,1,1*%
%TO.N,/GND*%
X257310000Y-102689500D03*
%TO.P,J1,2,2*%
%TO.N,/5V0*%
X257310000Y-105229500D03*
%TO.P,J1,3,3*%
%TO.N,/SIGNAL1*%
X257310000Y-107769500D03*
%TD*%
D14*
%TO.P,J4,1,1*%
%TO.N,/GND*%
X189040000Y-123890000D03*
%TO.P,J4,2,2*%
%TO.N,/5V0*%
X186500000Y-123890000D03*
%TO.P,J4,3,3*%
%TO.N,/SERVO_OUT*%
X183960000Y-123890000D03*
%TD*%
D17*
%TO.N,/GND*%
X179965247Y-157664866D03*
X179965247Y-151314866D03*
X179965247Y-144964866D03*
%TO.N,/BATT+*%
X223000000Y-127275000D03*
%TO.N,/3V3*%
X244590000Y-104415000D03*
X242781950Y-102425000D03*
%TO.N,/nRST*%
X240400000Y-110331622D03*
X244590000Y-105685000D03*
X242775000Y-108450000D03*
%TO.N,/SWDIO*%
X243300000Y-104425000D03*
%TO.N,/SIGNAL1*%
X218500000Y-127225000D03*
%TO.N,/GND*%
X211715247Y-125914866D03*
X224415247Y-157664866D03*
X186315247Y-151314866D03*
X179965247Y-94164866D03*
X186315247Y-164014866D03*
X256165247Y-144964866D03*
X211715247Y-183064866D03*
X186315247Y-113214866D03*
X205365247Y-144964866D03*
X192665247Y-125914866D03*
X237115247Y-183064866D03*
X192665247Y-100514866D03*
X249815247Y-94164866D03*
X205365247Y-100514866D03*
X179965247Y-164014866D03*
X179965247Y-100514866D03*
X179965247Y-125914866D03*
X173615247Y-132264866D03*
X205365247Y-164014866D03*
X226000000Y-127225000D03*
X173615247Y-106864866D03*
X211715247Y-119564866D03*
X199015247Y-164014866D03*
X230765247Y-164014866D03*
X173615247Y-164014866D03*
X199015247Y-100514866D03*
X205365247Y-183064866D03*
X173615247Y-113214866D03*
X262515247Y-144964866D03*
X211715247Y-164014866D03*
X173615247Y-100514866D03*
X199015247Y-113214866D03*
X173615247Y-170364866D03*
X230765247Y-144964866D03*
X230765247Y-94164866D03*
X186315247Y-119564866D03*
X186315247Y-100514866D03*
X262515247Y-157664866D03*
X262515247Y-176714866D03*
X205365247Y-113214866D03*
X243465247Y-132264866D03*
X186315247Y-138614866D03*
X205365247Y-125914866D03*
X230765247Y-113214866D03*
X186315247Y-144964866D03*
X243465247Y-100514866D03*
X218065247Y-164014866D03*
X249815247Y-151314866D03*
X218065247Y-106864866D03*
X199015247Y-183064866D03*
X224415247Y-183064866D03*
X243465247Y-138614866D03*
X237115247Y-113214866D03*
X179965247Y-138614866D03*
X218065247Y-144964866D03*
X186315247Y-100514866D03*
X211715247Y-151314866D03*
X205365247Y-106864866D03*
X199015247Y-151314866D03*
X211715247Y-106864866D03*
X205365247Y-94164866D03*
X224415247Y-144964866D03*
X243465247Y-157664866D03*
X192665247Y-113214866D03*
X243465247Y-151314866D03*
X237115247Y-164014866D03*
X262515247Y-132264866D03*
X243375000Y-106875000D03*
X242050000Y-104400000D03*
X256165247Y-100514866D03*
X230765247Y-138614866D03*
X192665247Y-151314866D03*
X205365247Y-119564866D03*
X192665247Y-132264866D03*
X262515247Y-170364866D03*
X237115247Y-138614866D03*
X230765247Y-183064866D03*
X192665247Y-183064866D03*
X249815247Y-132264866D03*
X237115247Y-151314866D03*
X249815247Y-164014866D03*
X218122904Y-125622904D03*
X211715247Y-100514866D03*
X262515247Y-151314866D03*
X262515247Y-113214866D03*
X199015247Y-138614866D03*
X192665247Y-138614866D03*
X243465247Y-183064866D03*
X243465247Y-119564866D03*
X243465247Y-164014866D03*
X199015247Y-106864866D03*
X192665247Y-144964866D03*
X186315247Y-157664866D03*
X230765247Y-100514866D03*
X230765247Y-125914866D03*
X262515247Y-164014866D03*
X224415247Y-113214866D03*
X179965247Y-119564866D03*
X192665247Y-119564866D03*
X262515247Y-125914866D03*
X173615247Y-144964866D03*
X237115247Y-132264866D03*
X186315247Y-132264866D03*
X218065247Y-113214866D03*
X179965247Y-132264866D03*
X242082450Y-101250000D03*
X192665247Y-94164866D03*
X237115247Y-119564866D03*
X218065247Y-100514866D03*
X256165247Y-119564866D03*
X244000000Y-108450000D03*
X256165247Y-151314866D03*
X211715247Y-113214866D03*
X224584901Y-132286490D03*
X249815247Y-144964866D03*
X224415247Y-151314866D03*
X192665247Y-164014866D03*
X173615247Y-151314866D03*
X224415247Y-164014866D03*
X249815247Y-138614866D03*
X230765247Y-119564866D03*
X205365247Y-132264866D03*
X237115247Y-144964866D03*
X199015247Y-157664866D03*
X243465247Y-113214866D03*
X249815247Y-100514866D03*
X173615247Y-119564866D03*
X186315247Y-183064866D03*
X246697950Y-105925000D03*
X249815247Y-125914866D03*
X256165247Y-157664866D03*
X179965247Y-113214866D03*
X256165247Y-183064866D03*
X199015247Y-132264866D03*
X173615247Y-125914866D03*
X256165247Y-138614866D03*
X256165247Y-132264866D03*
X199015247Y-94164866D03*
X211715247Y-157664866D03*
X173615247Y-176714866D03*
X220000000Y-127225000D03*
X186315247Y-94164866D03*
X186315247Y-113214866D03*
X179965247Y-183064866D03*
X262515247Y-100514866D03*
X186315247Y-119564866D03*
X224415247Y-125914866D03*
X237115247Y-100514866D03*
X192665247Y-157664866D03*
X199015247Y-119564866D03*
X262515247Y-119564866D03*
X218065247Y-119564866D03*
X256165247Y-113214866D03*
X211715247Y-132264866D03*
X237115247Y-94164866D03*
X256165247Y-164014866D03*
X199015247Y-144964866D03*
X205365247Y-138614866D03*
X243465247Y-94164866D03*
X249815247Y-157664866D03*
X256165247Y-125914866D03*
X192665247Y-106864866D03*
X262515247Y-106864866D03*
X243465247Y-144964866D03*
X224415247Y-100514866D03*
X179965247Y-106864866D03*
X230765247Y-132264866D03*
X237115247Y-157664866D03*
X199015247Y-125914866D03*
X211715247Y-94164866D03*
X249815247Y-119564866D03*
X249815247Y-183064866D03*
X173615247Y-157664866D03*
X249815247Y-113214866D03*
X256165247Y-94164866D03*
X246697950Y-104200000D03*
X237115247Y-125914866D03*
X243465247Y-125914866D03*
X224415247Y-119564866D03*
%TO.N,/INVERT*%
X221500000Y-127225000D03*
%TO.N,/SWDCLK*%
X240775000Y-104425000D03*
%TO.N,/MOTOR_1+*%
X214000000Y-127150000D03*
%TO.N,/5V0*%
X225750000Y-122150000D03*
%TD*%
D18*
%TO.N,/3V3*%
X242781950Y-102425000D02*
X242781950Y-102606950D01*
X242781950Y-102606950D02*
X244590000Y-104415000D01*
%TO.N,/nRST*%
X240400000Y-110275000D02*
X241525000Y-109150000D01*
X244575000Y-105700000D02*
X244590000Y-105685000D01*
X242075000Y-109150000D02*
X242775000Y-108450000D01*
X240400000Y-110331622D02*
X240400000Y-110275000D01*
X241525000Y-109150000D02*
X242075000Y-109150000D01*
D19*
%TO.N,/SIGNAL1*%
X243898528Y-121250000D02*
X257310000Y-107838528D01*
X218500000Y-127225000D02*
X224475000Y-121250000D01*
X224475000Y-121250000D02*
X243898528Y-121250000D01*
X257310000Y-107838528D02*
X257310000Y-107769500D01*
%TO.N,/INVERT*%
X252250000Y-107789500D02*
X252230000Y-107769500D01*
X252250000Y-112050000D02*
X252250000Y-107789500D01*
X216650000Y-128150000D02*
X216200000Y-127700000D01*
X243650000Y-120650000D02*
X252250000Y-112050000D01*
X221500000Y-127750000D02*
X221100000Y-128150000D01*
X216200000Y-126893629D02*
X216668629Y-126425000D01*
X216668629Y-126425000D02*
X218451472Y-126425000D01*
X221100000Y-128150000D02*
X216650000Y-128150000D01*
X221500000Y-127100000D02*
X221500000Y-127225000D01*
X224226472Y-120650000D02*
X243650000Y-120650000D01*
X216200000Y-127700000D02*
X216200000Y-126893629D01*
X221500000Y-127225000D02*
X221500000Y-127750000D01*
X218451472Y-126425000D02*
X224226472Y-120650000D01*
D20*
%TO.N,/5V0*%
X225750000Y-122150000D02*
X244400000Y-122150000D01*
X244400000Y-122150000D02*
X256650000Y-109900000D01*
X258800000Y-109900000D02*
X259550000Y-109150000D01*
X258879500Y-105229500D02*
X257310000Y-105229500D01*
X259550000Y-105900000D02*
X258879500Y-105229500D01*
X259550000Y-109150000D02*
X259550000Y-105900000D01*
X256650000Y-109900000D02*
X258800000Y-109900000D01*
%TD*%
%TA.AperFunction,Conductor*%
%TO.N,/GND*%
G36*
X229579662Y-106281555D02*
G01*
X229607963Y-106314216D01*
X229677925Y-106430494D01*
X229681310Y-106436119D01*
X229904462Y-106729670D01*
X229906813Y-106732152D01*
X229906814Y-106732153D01*
X230155698Y-106994897D01*
X230155703Y-106994902D01*
X230158044Y-106997373D01*
X230439083Y-107236090D01*
X230637849Y-107370857D01*
X230683007Y-107425641D01*
X230691377Y-107496143D01*
X230660303Y-107559978D01*
X230601135Y-107596473D01*
X230580139Y-107602355D01*
X230572039Y-107605235D01*
X230327981Y-107711245D01*
X230320352Y-107715197D01*
X230092997Y-107853454D01*
X230085983Y-107858405D01*
X230020715Y-107911504D01*
X230020714Y-107911505D01*
X230928201Y-108818992D01*
X230911109Y-108825213D01*
X230764627Y-108921555D01*
X230644312Y-109049082D01*
X230569482Y-109178691D01*
X229660541Y-108269750D01*
X229532796Y-108450724D01*
X229528339Y-108458056D01*
X229437317Y-108633719D01*
X229388218Y-108685000D01*
X229319188Y-108701595D01*
X229252144Y-108678235D01*
X229216325Y-108638749D01*
X229158962Y-108539393D01*
X229158961Y-108539392D01*
X229158959Y-108539388D01*
X229000050Y-108340123D01*
X228813217Y-108166768D01*
X228813214Y-108166766D01*
X228813212Y-108166764D01*
X228602634Y-108023195D01*
X228373004Y-107912610D01*
X228129461Y-107837488D01*
X228129458Y-107837487D01*
X228026240Y-107821929D01*
X227961864Y-107791998D01*
X227923887Y-107732012D01*
X227924370Y-107661017D01*
X227963159Y-107601553D01*
X227985996Y-107586018D01*
X228255716Y-107443022D01*
X228560917Y-107236090D01*
X228841956Y-106997373D01*
X229095538Y-106729670D01*
X229318690Y-106436119D01*
X229392036Y-106314215D01*
X229444293Y-106266159D01*
X229514238Y-106253983D01*
X229579662Y-106281555D01*
G37*
%TD.AperFunction*%
%TA.AperFunction,Conductor*%
G36*
X187310507Y-105900156D02*
G01*
X187270000Y-106038111D01*
X187270000Y-106181889D01*
X187310507Y-106319844D01*
X187338884Y-106364000D01*
X185661116Y-106364000D01*
X185689493Y-106319844D01*
X185730000Y-106181889D01*
X185730000Y-106038111D01*
X185689493Y-105900156D01*
X185661116Y-105856000D01*
X187338884Y-105856000D01*
X187310507Y-105900156D01*
G37*
%TD.AperFunction*%
%TA.AperFunction,Conductor*%
G36*
X268004119Y-90100770D02*
G01*
X268016905Y-90101608D01*
X268239699Y-90116210D01*
X268256022Y-90118358D01*
X268483539Y-90163615D01*
X268499442Y-90167876D01*
X268719095Y-90242439D01*
X268734302Y-90248738D01*
X268942351Y-90351336D01*
X268956608Y-90359567D01*
X269149478Y-90488438D01*
X269162543Y-90498463D01*
X269336946Y-90651411D01*
X269348588Y-90663053D01*
X269501532Y-90837451D01*
X269511565Y-90850527D01*
X269640427Y-91043383D01*
X269648668Y-91057657D01*
X269751257Y-91265687D01*
X269757564Y-91280914D01*
X269832120Y-91500549D01*
X269836386Y-91516468D01*
X269881639Y-91743967D01*
X269883790Y-91760308D01*
X269899230Y-91995880D01*
X269899500Y-92004121D01*
X269899500Y-187995878D01*
X269899230Y-188004119D01*
X269883790Y-188239691D01*
X269881639Y-188256032D01*
X269836386Y-188483531D01*
X269832120Y-188499450D01*
X269757564Y-188719085D01*
X269751257Y-188734312D01*
X269648668Y-188942342D01*
X269640427Y-188956616D01*
X269511565Y-189149472D01*
X269501532Y-189162548D01*
X269348594Y-189336940D01*
X269336940Y-189348594D01*
X269162548Y-189501532D01*
X269149472Y-189511565D01*
X268956616Y-189640427D01*
X268942342Y-189648668D01*
X268734312Y-189751257D01*
X268719085Y-189757564D01*
X268499450Y-189832120D01*
X268483531Y-189836386D01*
X268256032Y-189881639D01*
X268239691Y-189883790D01*
X268004120Y-189899230D01*
X267995879Y-189899500D01*
X172004121Y-189899500D01*
X171995880Y-189899230D01*
X171760308Y-189883790D01*
X171743967Y-189881639D01*
X171516468Y-189836386D01*
X171500549Y-189832120D01*
X171280914Y-189757564D01*
X171265687Y-189751257D01*
X171263643Y-189750249D01*
X171057653Y-189648666D01*
X171043387Y-189640429D01*
X170850524Y-189511562D01*
X170837451Y-189501532D01*
X170707911Y-189387928D01*
X170663053Y-189348588D01*
X170651411Y-189336946D01*
X170498463Y-189162543D01*
X170488438Y-189149478D01*
X170359567Y-188956608D01*
X170351336Y-188942351D01*
X170248738Y-188734302D01*
X170242439Y-188719095D01*
X170167876Y-188499442D01*
X170163615Y-188483539D01*
X170118358Y-188256022D01*
X170116210Y-188239701D01*
X170100768Y-188004089D01*
X170100500Y-187995902D01*
X170100500Y-187973071D01*
X170100500Y-185184370D01*
X171599500Y-185184370D01*
X171599868Y-185187757D01*
X171599869Y-185187768D01*
X171638092Y-185539220D01*
X171639368Y-185550948D01*
X171640100Y-185554275D01*
X171640101Y-185554279D01*
X171717901Y-185907730D01*
X171717904Y-185907741D01*
X171718636Y-185911066D01*
X171836375Y-186260503D01*
X171991205Y-186595162D01*
X172181310Y-186911119D01*
X172404462Y-187204670D01*
X172406813Y-187207152D01*
X172406814Y-187207153D01*
X172655698Y-187469897D01*
X172655703Y-187469902D01*
X172658044Y-187472373D01*
X172939083Y-187711090D01*
X173244284Y-187918022D01*
X173570070Y-188090743D01*
X173912621Y-188227227D01*
X174267919Y-188325875D01*
X174631801Y-188385531D01*
X174907890Y-188400500D01*
X174909610Y-188400500D01*
X175090390Y-188400500D01*
X175092110Y-188400500D01*
X175368199Y-188385531D01*
X175732081Y-188325875D01*
X176087379Y-188227227D01*
X176429930Y-188090743D01*
X176755716Y-187918022D01*
X177060917Y-187711090D01*
X177341956Y-187472373D01*
X177595538Y-187204670D01*
X177818690Y-186911119D01*
X178008795Y-186595162D01*
X178163625Y-186260503D01*
X178281364Y-185911066D01*
X178360632Y-185550948D01*
X178400500Y-185184370D01*
X216599500Y-185184370D01*
X216599868Y-185187757D01*
X216599869Y-185187768D01*
X216638092Y-185539220D01*
X216639368Y-185550948D01*
X216640100Y-185554275D01*
X216640101Y-185554279D01*
X216717901Y-185907730D01*
X216717904Y-185907741D01*
X216718636Y-185911066D01*
X216836375Y-186260503D01*
X216991205Y-186595162D01*
X217181310Y-186911119D01*
X217404462Y-187204670D01*
X217406813Y-187207152D01*
X217406814Y-187207153D01*
X217655698Y-187469897D01*
X217655703Y-187469902D01*
X217658044Y-187472373D01*
X217939083Y-187711090D01*
X218244284Y-187918022D01*
X218570070Y-188090743D01*
X218912621Y-188227227D01*
X219267919Y-188325875D01*
X219631801Y-188385531D01*
X219907890Y-188400500D01*
X219909610Y-188400500D01*
X220090390Y-188400500D01*
X220092110Y-188400500D01*
X220368199Y-188385531D01*
X220732081Y-188325875D01*
X221087379Y-188227227D01*
X221429930Y-188090743D01*
X221755716Y-187918022D01*
X222060917Y-187711090D01*
X222341956Y-187472373D01*
X222595538Y-187204670D01*
X222818690Y-186911119D01*
X223008795Y-186595162D01*
X223163625Y-186260503D01*
X223281364Y-185911066D01*
X223360632Y-185550948D01*
X223400500Y-185184370D01*
X261599500Y-185184370D01*
X261599868Y-185187757D01*
X261599869Y-185187768D01*
X261638092Y-185539220D01*
X261639368Y-185550948D01*
X261640100Y-185554275D01*
X261640101Y-185554279D01*
X261717901Y-185907730D01*
X261717904Y-185907741D01*
X261718636Y-185911066D01*
X261836375Y-186260503D01*
X261991205Y-186595162D01*
X262181310Y-186911119D01*
X262404462Y-187204670D01*
X262406813Y-187207152D01*
X262406814Y-187207153D01*
X262655698Y-187469897D01*
X262655703Y-187469902D01*
X262658044Y-187472373D01*
X262939083Y-187711090D01*
X263244284Y-187918022D01*
X263570070Y-188090743D01*
X263912621Y-188227227D01*
X264267919Y-188325875D01*
X264631801Y-188385531D01*
X264907890Y-188400500D01*
X264909610Y-188400500D01*
X265090390Y-188400500D01*
X265092110Y-188400500D01*
X265368199Y-188385531D01*
X265732081Y-188325875D01*
X266087379Y-188227227D01*
X266429930Y-188090743D01*
X266755716Y-187918022D01*
X267060917Y-187711090D01*
X267341956Y-187472373D01*
X267595538Y-187204670D01*
X267818690Y-186911119D01*
X268008795Y-186595162D01*
X268163625Y-186260503D01*
X268281364Y-185911066D01*
X268360632Y-185550948D01*
X268400500Y-185184370D01*
X268400500Y-184815630D01*
X268360632Y-184449052D01*
X268281364Y-184088934D01*
X268163625Y-183739497D01*
X268008795Y-183404838D01*
X267818690Y-183088881D01*
X267595538Y-182795330D01*
X267581231Y-182780227D01*
X267344301Y-182530102D01*
X267344295Y-182530096D01*
X267341956Y-182527627D01*
X267060917Y-182288910D01*
X267004169Y-182250434D01*
X266758538Y-182083891D01*
X266758533Y-182083888D01*
X266755716Y-182081978D01*
X266715275Y-182060537D01*
X266432941Y-181910853D01*
X266432936Y-181910850D01*
X266429930Y-181909257D01*
X266426763Y-181907995D01*
X266090548Y-181774035D01*
X266090537Y-181774031D01*
X266087379Y-181772773D01*
X266084098Y-181771862D01*
X266084092Y-181771860D01*
X265735375Y-181675039D01*
X265735365Y-181675036D01*
X265732081Y-181674125D01*
X265728722Y-181673574D01*
X265728707Y-181673571D01*
X265371576Y-181615022D01*
X265371564Y-181615020D01*
X265368199Y-181614469D01*
X265364789Y-181614284D01*
X265364779Y-181614283D01*
X265093831Y-181599593D01*
X265093819Y-181599592D01*
X265092110Y-181599500D01*
X264907890Y-181599500D01*
X264906181Y-181599592D01*
X264906168Y-181599593D01*
X264635220Y-181614283D01*
X264635208Y-181614284D01*
X264631801Y-181614469D01*
X264628437Y-181615020D01*
X264628423Y-181615022D01*
X264271292Y-181673571D01*
X264271273Y-181673574D01*
X264267919Y-181674125D01*
X264264638Y-181675035D01*
X264264624Y-181675039D01*
X263915907Y-181771860D01*
X263915896Y-181771863D01*
X263912621Y-181772773D01*
X263909467Y-181774029D01*
X263909451Y-181774035D01*
X263573236Y-181907995D01*
X263573227Y-181907999D01*
X263570070Y-181909257D01*
X263567070Y-181910847D01*
X263567058Y-181910853D01*
X263247301Y-182080378D01*
X263247294Y-182080382D01*
X263244284Y-182081978D01*
X263241474Y-182083882D01*
X263241461Y-182083891D01*
X262941908Y-182286994D01*
X262941900Y-182286999D01*
X262939083Y-182288910D01*
X262936483Y-182291118D01*
X262936477Y-182291123D01*
X262660640Y-182525421D01*
X262660630Y-182525430D01*
X262658044Y-182527627D01*
X262655713Y-182530087D01*
X262655698Y-182530102D01*
X262406814Y-182792846D01*
X262406805Y-182792855D01*
X262404462Y-182795330D01*
X262402395Y-182798048D01*
X262402395Y-182798049D01*
X262183380Y-183086157D01*
X262183373Y-183086165D01*
X262181310Y-183088881D01*
X262179552Y-183091801D01*
X262179545Y-183091813D01*
X261992966Y-183401911D01*
X261991205Y-183404838D01*
X261989775Y-183407928D01*
X261989768Y-183407942D01*
X261837808Y-183736398D01*
X261837803Y-183736409D01*
X261836375Y-183739497D01*
X261835289Y-183742719D01*
X261835285Y-183742730D01*
X261719726Y-184085697D01*
X261719722Y-184085708D01*
X261718636Y-184088934D01*
X261717905Y-184092253D01*
X261717901Y-184092269D01*
X261640101Y-184445720D01*
X261639368Y-184449052D01*
X261638999Y-184452442D01*
X261638999Y-184452444D01*
X261599869Y-184812231D01*
X261599868Y-184812243D01*
X261599500Y-184815630D01*
X261599500Y-185184370D01*
X223400500Y-185184370D01*
X223400500Y-184815630D01*
X223360632Y-184449052D01*
X223281364Y-184088934D01*
X223163625Y-183739497D01*
X223008795Y-183404838D01*
X222818690Y-183088881D01*
X222595538Y-182795330D01*
X222581231Y-182780227D01*
X222344301Y-182530102D01*
X222344295Y-182530096D01*
X222341956Y-182527627D01*
X222060917Y-182288910D01*
X222004169Y-182250434D01*
X221758538Y-182083891D01*
X221758533Y-182083888D01*
X221755716Y-182081978D01*
X221715275Y-182060537D01*
X221432941Y-181910853D01*
X221432936Y-181910850D01*
X221429930Y-181909257D01*
X221426763Y-181907995D01*
X221090548Y-181774035D01*
X221090537Y-181774031D01*
X221087379Y-181772773D01*
X221084098Y-181771862D01*
X221084092Y-181771860D01*
X220735375Y-181675039D01*
X220735365Y-181675036D01*
X220732081Y-181674125D01*
X220728722Y-181673574D01*
X220728707Y-181673571D01*
X220371576Y-181615022D01*
X220371564Y-181615020D01*
X220368199Y-181614469D01*
X220364789Y-181614284D01*
X220364779Y-181614283D01*
X220093831Y-181599593D01*
X220093819Y-181599592D01*
X220092110Y-181599500D01*
X219907890Y-181599500D01*
X219906181Y-181599592D01*
X219906168Y-181599593D01*
X219635220Y-181614283D01*
X219635208Y-181614284D01*
X219631801Y-181614469D01*
X219628437Y-181615020D01*
X219628423Y-181615022D01*
X219271292Y-181673571D01*
X219271273Y-181673574D01*
X219267919Y-181674125D01*
X219264638Y-181675035D01*
X219264624Y-181675039D01*
X218915907Y-181771860D01*
X218915896Y-181771863D01*
X218912621Y-181772773D01*
X218909467Y-181774029D01*
X218909451Y-181774035D01*
X218573236Y-181907995D01*
X218573227Y-181907999D01*
X218570070Y-181909257D01*
X218567070Y-181910847D01*
X218567058Y-181910853D01*
X218247301Y-182080378D01*
X218247294Y-182080382D01*
X218244284Y-182081978D01*
X218241474Y-182083882D01*
X218241461Y-182083891D01*
X217941908Y-182286994D01*
X217941900Y-182286999D01*
X217939083Y-182288910D01*
X217936483Y-182291118D01*
X217936477Y-182291123D01*
X217660640Y-182525421D01*
X217660630Y-182525430D01*
X217658044Y-182527627D01*
X217655713Y-182530087D01*
X217655698Y-182530102D01*
X217406814Y-182792846D01*
X217406805Y-182792855D01*
X217404462Y-182795330D01*
X217402395Y-182798048D01*
X217402395Y-182798049D01*
X217183380Y-183086157D01*
X217183373Y-183086165D01*
X217181310Y-183088881D01*
X217179552Y-183091801D01*
X217179545Y-183091813D01*
X216992966Y-183401911D01*
X216991205Y-183404838D01*
X216989775Y-183407928D01*
X216989768Y-183407942D01*
X216837808Y-183736398D01*
X216837803Y-183736409D01*
X216836375Y-183739497D01*
X216835289Y-183742719D01*
X216835285Y-183742730D01*
X216719726Y-184085697D01*
X216719722Y-184085708D01*
X216718636Y-184088934D01*
X216717905Y-184092253D01*
X216717901Y-184092269D01*
X216640101Y-184445720D01*
X216639368Y-184449052D01*
X216638999Y-184452442D01*
X216638999Y-184452444D01*
X216599869Y-184812231D01*
X216599868Y-184812243D01*
X216599500Y-184815630D01*
X216599500Y-185184370D01*
X178400500Y-185184370D01*
X178400500Y-184815630D01*
X178360632Y-184449052D01*
X178281364Y-184088934D01*
X178163625Y-183739497D01*
X178008795Y-183404838D01*
X177818690Y-183088881D01*
X177595538Y-182795330D01*
X177581231Y-182780227D01*
X177344301Y-182530102D01*
X177344295Y-182530096D01*
X177341956Y-182527627D01*
X177060917Y-182288910D01*
X177004169Y-182250434D01*
X176758538Y-182083891D01*
X176758533Y-182083888D01*
X176755716Y-182081978D01*
X176715275Y-182060537D01*
X176432941Y-181910853D01*
X176432936Y-181910850D01*
X176429930Y-181909257D01*
X176426763Y-181907995D01*
X176090548Y-181774035D01*
X176090537Y-181774031D01*
X176087379Y-181772773D01*
X176084098Y-181771862D01*
X176084092Y-181771860D01*
X175735375Y-181675039D01*
X175735365Y-181675036D01*
X175732081Y-181674125D01*
X175728722Y-181673574D01*
X175728707Y-181673571D01*
X175371576Y-181615022D01*
X175371564Y-181615020D01*
X175368199Y-181614469D01*
X175364789Y-181614284D01*
X175364779Y-181614283D01*
X175093831Y-181599593D01*
X175093819Y-181599592D01*
X175092110Y-181599500D01*
X174907890Y-181599500D01*
X174906181Y-181599592D01*
X174906168Y-181599593D01*
X174635220Y-181614283D01*
X174635208Y-181614284D01*
X174631801Y-181614469D01*
X174628437Y-181615020D01*
X174628423Y-181615022D01*
X174271292Y-181673571D01*
X174271273Y-181673574D01*
X174267919Y-181674125D01*
X174264638Y-181675035D01*
X174264624Y-181675039D01*
X173915907Y-181771860D01*
X173915896Y-181771863D01*
X173912621Y-181772773D01*
X173909467Y-181774029D01*
X173909451Y-181774035D01*
X173573236Y-181907995D01*
X173573227Y-181907999D01*
X173570070Y-181909257D01*
X173567070Y-181910847D01*
X173567058Y-181910853D01*
X173247301Y-182080378D01*
X173247294Y-182080382D01*
X173244284Y-182081978D01*
X173241474Y-182083882D01*
X173241461Y-182083891D01*
X172941908Y-182286994D01*
X172941900Y-182286999D01*
X172939083Y-182288910D01*
X172936483Y-182291118D01*
X172936477Y-182291123D01*
X172660640Y-182525421D01*
X172660630Y-182525430D01*
X172658044Y-182527627D01*
X172655713Y-182530087D01*
X172655698Y-182530102D01*
X172406814Y-182792846D01*
X172406805Y-182792855D01*
X172404462Y-182795330D01*
X172402395Y-182798048D01*
X172402395Y-182798049D01*
X172183380Y-183086157D01*
X172183373Y-183086165D01*
X172181310Y-183088881D01*
X172179552Y-183091801D01*
X172179545Y-183091813D01*
X171992966Y-183401911D01*
X171991205Y-183404838D01*
X171989775Y-183407928D01*
X171989768Y-183407942D01*
X171837808Y-183736398D01*
X171837803Y-183736409D01*
X171836375Y-183739497D01*
X171835289Y-183742719D01*
X171835285Y-183742730D01*
X171719726Y-184085697D01*
X171719722Y-184085708D01*
X171718636Y-184088934D01*
X171717905Y-184092253D01*
X171717901Y-184092269D01*
X171640101Y-184445720D01*
X171639368Y-184449052D01*
X171638999Y-184452442D01*
X171638999Y-184452444D01*
X171599869Y-184812231D01*
X171599868Y-184812243D01*
X171599500Y-184815630D01*
X171599500Y-185184370D01*
X170100500Y-185184370D01*
X170100500Y-179567659D01*
X179899500Y-179567659D01*
X179929610Y-179699587D01*
X179958967Y-179760547D01*
X179988325Y-179821507D01*
X180072695Y-179927305D01*
X180178493Y-180011675D01*
X180300412Y-180070389D01*
X180432340Y-180100500D01*
X259567660Y-180100500D01*
X259699588Y-180070389D01*
X259821507Y-180011675D01*
X259927305Y-179927305D01*
X260011675Y-179821507D01*
X260070389Y-179699588D01*
X260100500Y-179567660D01*
X260100500Y-179500000D01*
X260100500Y-179473071D01*
X260100500Y-170484083D01*
X260100500Y-170432340D01*
X260070389Y-170300412D01*
X260011675Y-170178493D01*
X259927305Y-170072695D01*
X259821507Y-169988325D01*
X259760547Y-169958968D01*
X259699587Y-169929610D01*
X259567660Y-169899500D01*
X259515917Y-169899500D01*
X180526929Y-169899500D01*
X180500000Y-169899500D01*
X180432340Y-169899500D01*
X180300412Y-169929610D01*
X180178491Y-169988326D01*
X180072695Y-170072695D01*
X179988326Y-170178491D01*
X179929610Y-170300412D01*
X179899500Y-170432340D01*
X179899500Y-179567659D01*
X170100500Y-179567659D01*
X170100500Y-157908919D01*
X203695736Y-157908919D01*
X203695831Y-157912375D01*
X203695831Y-157912386D01*
X203703329Y-158184370D01*
X203705771Y-158272968D01*
X203706247Y-158276407D01*
X203706248Y-158276408D01*
X203744779Y-158554279D01*
X203755793Y-158633703D01*
X203756644Y-158637066D01*
X203756647Y-158637078D01*
X203844341Y-158983370D01*
X203845196Y-158986746D01*
X203846411Y-158989991D01*
X203846416Y-158990007D01*
X203971673Y-159324552D01*
X203972894Y-159327812D01*
X203974461Y-159330908D01*
X203974463Y-159330913D01*
X204135764Y-159649652D01*
X204135769Y-159649661D01*
X204137337Y-159652759D01*
X204139237Y-159655668D01*
X204139241Y-159655674D01*
X204240554Y-159810745D01*
X204336528Y-159957645D01*
X204568051Y-160238767D01*
X204570538Y-160241186D01*
X204808184Y-160472373D01*
X204829094Y-160492714D01*
X204831836Y-160494848D01*
X205112124Y-160713005D01*
X205116489Y-160716402D01*
X205426747Y-160907117D01*
X205756102Y-161062544D01*
X206100557Y-161180795D01*
X206455929Y-161260436D01*
X206817906Y-161300500D01*
X206821388Y-161300500D01*
X207089250Y-161300500D01*
X207090972Y-161300500D01*
X207363634Y-161285457D01*
X207722855Y-161225513D01*
X208073300Y-161126417D01*
X208410718Y-160989370D01*
X208731011Y-160816036D01*
X209030292Y-160608519D01*
X209304928Y-160369338D01*
X209551585Y-160101397D01*
X209767270Y-159807948D01*
X209949363Y-159492552D01*
X210095656Y-159159039D01*
X210204371Y-158811457D01*
X210274190Y-158454025D01*
X210304264Y-158091081D01*
X210299243Y-157908919D01*
X216695736Y-157908919D01*
X216695831Y-157912375D01*
X216695831Y-157912386D01*
X216703329Y-158184370D01*
X216705771Y-158272968D01*
X216706247Y-158276407D01*
X216706248Y-158276408D01*
X216744779Y-158554279D01*
X216755793Y-158633703D01*
X216756644Y-158637066D01*
X216756647Y-158637078D01*
X216844341Y-158983370D01*
X216845196Y-158986746D01*
X216846411Y-158989991D01*
X216846416Y-158990007D01*
X216971673Y-159324552D01*
X216972894Y-159327812D01*
X216974461Y-159330908D01*
X216974463Y-159330913D01*
X217135764Y-159649652D01*
X217135769Y-159649661D01*
X217137337Y-159652759D01*
X217139237Y-159655668D01*
X217139241Y-159655674D01*
X217240554Y-159810745D01*
X217336528Y-159957645D01*
X217568051Y-160238767D01*
X217570538Y-160241186D01*
X217808184Y-160472373D01*
X217829094Y-160492714D01*
X217831836Y-160494848D01*
X218112124Y-160713005D01*
X218116489Y-160716402D01*
X218426747Y-160907117D01*
X218756102Y-161062544D01*
X219100557Y-161180795D01*
X219455929Y-161260436D01*
X219817906Y-161300500D01*
X219821388Y-161300500D01*
X220089250Y-161300500D01*
X220090972Y-161300500D01*
X220363634Y-161285457D01*
X220722855Y-161225513D01*
X221073300Y-161126417D01*
X221410718Y-160989370D01*
X221731011Y-160816036D01*
X222030292Y-160608519D01*
X222304928Y-160369338D01*
X222551585Y-160101397D01*
X222767270Y-159807948D01*
X222949363Y-159492552D01*
X223095656Y-159159039D01*
X223204371Y-158811457D01*
X223274190Y-158454025D01*
X223296534Y-158184370D01*
X229599500Y-158184370D01*
X229599868Y-158187757D01*
X229599869Y-158187768D01*
X229628450Y-158450561D01*
X229639368Y-158550948D01*
X229640100Y-158554275D01*
X229640101Y-158554279D01*
X229717901Y-158907730D01*
X229717904Y-158907741D01*
X229718636Y-158911066D01*
X229719724Y-158914296D01*
X229719726Y-158914302D01*
X229802187Y-159159039D01*
X229836375Y-159260503D01*
X229837806Y-159263596D01*
X229837808Y-159263601D01*
X229945124Y-159495561D01*
X229991205Y-159595162D01*
X230181310Y-159911119D01*
X230404462Y-160204670D01*
X230406813Y-160207152D01*
X230406814Y-160207153D01*
X230655698Y-160469897D01*
X230655703Y-160469902D01*
X230658044Y-160472373D01*
X230939083Y-160711090D01*
X231244284Y-160918022D01*
X231570070Y-161090743D01*
X231912621Y-161227227D01*
X232267919Y-161325875D01*
X232631801Y-161385531D01*
X232907890Y-161400500D01*
X232909610Y-161400500D01*
X233090390Y-161400500D01*
X233092110Y-161400500D01*
X233368199Y-161385531D01*
X233732081Y-161325875D01*
X234087379Y-161227227D01*
X234429930Y-161090743D01*
X234755716Y-160918022D01*
X235060917Y-160711090D01*
X235341956Y-160472373D01*
X235595538Y-160204670D01*
X235818690Y-159911119D01*
X236008795Y-159595162D01*
X236163625Y-159260503D01*
X236281364Y-158911066D01*
X236360632Y-158550948D01*
X236400500Y-158184370D01*
X236400500Y-157815630D01*
X236360632Y-157449052D01*
X236281364Y-157088934D01*
X236163625Y-156739497D01*
X236008795Y-156404838D01*
X235818690Y-156088881D01*
X235595538Y-155795330D01*
X235437393Y-155628378D01*
X235344301Y-155530102D01*
X235344295Y-155530096D01*
X235341956Y-155527627D01*
X235060917Y-155288910D01*
X234771800Y-155092883D01*
X234758538Y-155083891D01*
X234758533Y-155083888D01*
X234755716Y-155081978D01*
X234618676Y-155009324D01*
X234432941Y-154910853D01*
X234432936Y-154910850D01*
X234429930Y-154909257D01*
X234426763Y-154907995D01*
X234090548Y-154774035D01*
X234090537Y-154774031D01*
X234087379Y-154772773D01*
X234084098Y-154771862D01*
X234084092Y-154771860D01*
X233735375Y-154675039D01*
X233735365Y-154675036D01*
X233732081Y-154674125D01*
X233728722Y-154673574D01*
X233728707Y-154673571D01*
X233371576Y-154615022D01*
X233371564Y-154615020D01*
X233368199Y-154614469D01*
X233364789Y-154614284D01*
X233364779Y-154614283D01*
X233093831Y-154599593D01*
X233093819Y-154599592D01*
X233092110Y-154599500D01*
X232907890Y-154599500D01*
X232906181Y-154599592D01*
X232906168Y-154599593D01*
X232635220Y-154614283D01*
X232635208Y-154614284D01*
X232631801Y-154614469D01*
X232628437Y-154615020D01*
X232628423Y-154615022D01*
X232271292Y-154673571D01*
X232271273Y-154673574D01*
X232267919Y-154674125D01*
X232264638Y-154675035D01*
X232264624Y-154675039D01*
X231915907Y-154771860D01*
X231915896Y-154771863D01*
X231912621Y-154772773D01*
X231909467Y-154774029D01*
X231909451Y-154774035D01*
X231573236Y-154907995D01*
X231573227Y-154907999D01*
X231570070Y-154909257D01*
X231567070Y-154910847D01*
X231567058Y-154910853D01*
X231247301Y-155080378D01*
X231247294Y-155080382D01*
X231244284Y-155081978D01*
X231241474Y-155083882D01*
X231241461Y-155083891D01*
X230941908Y-155286994D01*
X230941900Y-155286999D01*
X230939083Y-155288910D01*
X230936483Y-155291118D01*
X230936477Y-155291123D01*
X230660640Y-155525421D01*
X230660630Y-155525430D01*
X230658044Y-155527627D01*
X230655713Y-155530087D01*
X230655698Y-155530102D01*
X230406814Y-155792846D01*
X230406805Y-155792855D01*
X230404462Y-155795330D01*
X230402395Y-155798048D01*
X230402395Y-155798049D01*
X230183380Y-156086157D01*
X230183373Y-156086165D01*
X230181310Y-156088881D01*
X230179552Y-156091801D01*
X230179545Y-156091813D01*
X230117425Y-156195058D01*
X229991205Y-156404838D01*
X229989775Y-156407928D01*
X229989768Y-156407942D01*
X229837808Y-156736398D01*
X229837803Y-156736409D01*
X229836375Y-156739497D01*
X229835289Y-156742719D01*
X229835285Y-156742730D01*
X229719726Y-157085697D01*
X229719722Y-157085708D01*
X229718636Y-157088934D01*
X229717905Y-157092253D01*
X229717901Y-157092269D01*
X229640101Y-157445720D01*
X229639368Y-157449052D01*
X229638999Y-157452442D01*
X229638999Y-157452444D01*
X229599869Y-157812231D01*
X229599868Y-157812243D01*
X229599500Y-157815630D01*
X229599500Y-158184370D01*
X223296534Y-158184370D01*
X223304264Y-158091081D01*
X223294229Y-157727032D01*
X223244207Y-157366297D01*
X223154804Y-157013254D01*
X223027106Y-156672188D01*
X222939648Y-156499368D01*
X222864235Y-156350347D01*
X222864233Y-156350344D01*
X222862663Y-156347241D01*
X222663472Y-156042355D01*
X222431949Y-155761233D01*
X222194360Y-155530102D01*
X222173399Y-155509711D01*
X222173396Y-155509709D01*
X222170906Y-155507286D01*
X222168163Y-155505151D01*
X221886252Y-155285731D01*
X221886247Y-155285727D01*
X221883511Y-155283598D01*
X221573253Y-155092883D01*
X221570127Y-155091407D01*
X221570120Y-155091404D01*
X221247043Y-154938940D01*
X221247040Y-154938938D01*
X221243898Y-154937456D01*
X221240610Y-154936327D01*
X221240607Y-154936326D01*
X220902723Y-154820331D01*
X220902722Y-154820330D01*
X220899443Y-154819205D01*
X220896067Y-154818448D01*
X220896055Y-154818445D01*
X220547456Y-154740322D01*
X220547445Y-154740320D01*
X220544071Y-154739564D01*
X220540626Y-154739182D01*
X220540622Y-154739182D01*
X220185557Y-154699883D01*
X220185551Y-154699882D01*
X220182094Y-154699500D01*
X219909028Y-154699500D01*
X219907334Y-154699593D01*
X219907314Y-154699594D01*
X219639824Y-154714352D01*
X219639820Y-154714352D01*
X219636366Y-154714543D01*
X219632950Y-154715112D01*
X219632941Y-154715114D01*
X219280582Y-154773913D01*
X219280573Y-154773914D01*
X219277145Y-154774487D01*
X219273809Y-154775430D01*
X219273797Y-154775433D01*
X218930046Y-154872636D01*
X218930032Y-154872640D01*
X218926700Y-154873583D01*
X218923478Y-154874891D01*
X218923474Y-154874893D01*
X218592496Y-155009324D01*
X218592487Y-155009328D01*
X218589282Y-155010630D01*
X218586240Y-155012276D01*
X218586232Y-155012280D01*
X218272046Y-155182309D01*
X218272037Y-155182314D01*
X218268989Y-155183964D01*
X218266144Y-155185936D01*
X218266132Y-155185944D01*
X217972561Y-155389502D01*
X217972551Y-155389509D01*
X217969708Y-155391481D01*
X217967093Y-155393757D01*
X217967087Y-155393763D01*
X217697693Y-155628378D01*
X217697679Y-155628391D01*
X217695072Y-155630662D01*
X217692718Y-155633218D01*
X217692715Y-155633222D01*
X217450770Y-155896044D01*
X217450763Y-155896051D01*
X217448415Y-155898603D01*
X217446363Y-155901393D01*
X217446357Y-155901402D01*
X217234785Y-156189254D01*
X217234772Y-156189272D01*
X217232730Y-156192052D01*
X217230998Y-156195051D01*
X217230994Y-156195058D01*
X217052374Y-156504438D01*
X217052368Y-156504449D01*
X217050637Y-156507448D01*
X217049242Y-156510626D01*
X217049241Y-156510630D01*
X216905737Y-156837783D01*
X216905731Y-156837798D01*
X216904344Y-156840961D01*
X216903311Y-156844263D01*
X216903309Y-156844269D01*
X216796665Y-157185228D01*
X216796661Y-157185242D01*
X216795629Y-157188543D01*
X216794966Y-157191937D01*
X216794963Y-157191949D01*
X216726476Y-157542562D01*
X216726474Y-157542573D01*
X216725810Y-157545975D01*
X216725523Y-157549437D01*
X216725523Y-157549438D01*
X216710520Y-157730506D01*
X216695736Y-157908919D01*
X210299243Y-157908919D01*
X210294229Y-157727032D01*
X210244207Y-157366297D01*
X210154804Y-157013254D01*
X210027106Y-156672188D01*
X209939648Y-156499368D01*
X209864235Y-156350347D01*
X209864233Y-156350344D01*
X209862663Y-156347241D01*
X209663472Y-156042355D01*
X209431949Y-155761233D01*
X209194360Y-155530102D01*
X209173399Y-155509711D01*
X209173396Y-155509709D01*
X209170906Y-155507286D01*
X209168163Y-155505151D01*
X208886252Y-155285731D01*
X208886247Y-155285727D01*
X208883511Y-155283598D01*
X208573253Y-155092883D01*
X208570127Y-155091407D01*
X208570120Y-155091404D01*
X208247043Y-154938940D01*
X208247040Y-154938938D01*
X208243898Y-154937456D01*
X208240610Y-154936327D01*
X208240607Y-154936326D01*
X207902723Y-154820331D01*
X207902722Y-154820330D01*
X207899443Y-154819205D01*
X207896067Y-154818448D01*
X207896055Y-154818445D01*
X207547456Y-154740322D01*
X207547445Y-154740320D01*
X207544071Y-154739564D01*
X207540626Y-154739182D01*
X207540622Y-154739182D01*
X207185557Y-154699883D01*
X207185551Y-154699882D01*
X207182094Y-154699500D01*
X206909028Y-154699500D01*
X206907334Y-154699593D01*
X206907314Y-154699594D01*
X206639824Y-154714352D01*
X206639820Y-154714352D01*
X206636366Y-154714543D01*
X206632950Y-154715112D01*
X206632941Y-154715114D01*
X206280582Y-154773913D01*
X206280573Y-154773914D01*
X206277145Y-154774487D01*
X206273809Y-154775430D01*
X206273797Y-154775433D01*
X205930046Y-154872636D01*
X205930032Y-154872640D01*
X205926700Y-154873583D01*
X205923478Y-154874891D01*
X205923474Y-154874893D01*
X205592496Y-155009324D01*
X205592487Y-155009328D01*
X205589282Y-155010630D01*
X205586240Y-155012276D01*
X205586232Y-155012280D01*
X205272046Y-155182309D01*
X205272037Y-155182314D01*
X205268989Y-155183964D01*
X205266144Y-155185936D01*
X205266132Y-155185944D01*
X204972561Y-155389502D01*
X204972551Y-155389509D01*
X204969708Y-155391481D01*
X204967093Y-155393757D01*
X204967087Y-155393763D01*
X204697693Y-155628378D01*
X204697679Y-155628391D01*
X204695072Y-155630662D01*
X204692718Y-155633218D01*
X204692715Y-155633222D01*
X204450770Y-155896044D01*
X204450763Y-155896051D01*
X204448415Y-155898603D01*
X204446363Y-155901393D01*
X204446357Y-155901402D01*
X204234785Y-156189254D01*
X204234772Y-156189272D01*
X204232730Y-156192052D01*
X204230998Y-156195051D01*
X204230994Y-156195058D01*
X204052374Y-156504438D01*
X204052368Y-156504449D01*
X204050637Y-156507448D01*
X204049242Y-156510626D01*
X204049241Y-156510630D01*
X203905737Y-156837783D01*
X203905731Y-156837798D01*
X203904344Y-156840961D01*
X203903311Y-156844263D01*
X203903309Y-156844269D01*
X203796665Y-157185228D01*
X203796661Y-157185242D01*
X203795629Y-157188543D01*
X203794966Y-157191937D01*
X203794963Y-157191949D01*
X203726476Y-157542562D01*
X203726474Y-157542573D01*
X203725810Y-157545975D01*
X203725523Y-157549437D01*
X203725523Y-157549438D01*
X203710520Y-157730506D01*
X203695736Y-157908919D01*
X170100500Y-157908919D01*
X170100500Y-148908919D01*
X203695736Y-148908919D01*
X203695831Y-148912375D01*
X203695831Y-148912386D01*
X203703329Y-149184370D01*
X203705771Y-149272968D01*
X203706247Y-149276407D01*
X203706248Y-149276408D01*
X203744779Y-149554279D01*
X203755793Y-149633703D01*
X203756644Y-149637066D01*
X203756647Y-149637078D01*
X203844341Y-149983370D01*
X203845196Y-149986746D01*
X203846411Y-149989991D01*
X203846416Y-149990007D01*
X203971673Y-150324552D01*
X203972894Y-150327812D01*
X203974461Y-150330908D01*
X203974463Y-150330913D01*
X204135764Y-150649652D01*
X204135769Y-150649661D01*
X204137337Y-150652759D01*
X204139237Y-150655668D01*
X204139241Y-150655674D01*
X204240554Y-150810745D01*
X204336528Y-150957645D01*
X204568051Y-151238767D01*
X204570538Y-151241186D01*
X204808184Y-151472373D01*
X204829094Y-151492714D01*
X204831836Y-151494848D01*
X205112124Y-151713005D01*
X205116489Y-151716402D01*
X205426747Y-151907117D01*
X205756102Y-152062544D01*
X206100557Y-152180795D01*
X206455929Y-152260436D01*
X206817906Y-152300500D01*
X206821388Y-152300500D01*
X207089250Y-152300500D01*
X207090972Y-152300500D01*
X207363634Y-152285457D01*
X207722855Y-152225513D01*
X208073300Y-152126417D01*
X208410718Y-151989370D01*
X208731011Y-151816036D01*
X209030292Y-151608519D01*
X209304928Y-151369338D01*
X209551585Y-151101397D01*
X209767270Y-150807948D01*
X209949363Y-150492552D01*
X210095656Y-150159039D01*
X210204371Y-149811457D01*
X210274190Y-149454025D01*
X210304264Y-149091081D01*
X210299243Y-148908919D01*
X216695736Y-148908919D01*
X216695831Y-148912375D01*
X216695831Y-148912386D01*
X216703329Y-149184370D01*
X216705771Y-149272968D01*
X216706247Y-149276407D01*
X216706248Y-149276408D01*
X216744779Y-149554279D01*
X216755793Y-149633703D01*
X216756644Y-149637066D01*
X216756647Y-149637078D01*
X216844341Y-149983370D01*
X216845196Y-149986746D01*
X216846411Y-149989991D01*
X216846416Y-149990007D01*
X216971673Y-150324552D01*
X216972894Y-150327812D01*
X216974461Y-150330908D01*
X216974463Y-150330913D01*
X217135764Y-150649652D01*
X217135769Y-150649661D01*
X217137337Y-150652759D01*
X217139237Y-150655668D01*
X217139241Y-150655674D01*
X217240554Y-150810745D01*
X217336528Y-150957645D01*
X217568051Y-151238767D01*
X217570538Y-151241186D01*
X217808184Y-151472373D01*
X217829094Y-151492714D01*
X217831836Y-151494848D01*
X218112124Y-151713005D01*
X218116489Y-151716402D01*
X218426747Y-151907117D01*
X218756102Y-152062544D01*
X219100557Y-152180795D01*
X219455929Y-152260436D01*
X219817906Y-152300500D01*
X219821388Y-152300500D01*
X220089250Y-152300500D01*
X220090972Y-152300500D01*
X220363634Y-152285457D01*
X220722855Y-152225513D01*
X221073300Y-152126417D01*
X221410718Y-151989370D01*
X221731011Y-151816036D01*
X222030292Y-151608519D01*
X222304928Y-151369338D01*
X222551585Y-151101397D01*
X222767270Y-150807948D01*
X222949363Y-150492552D01*
X223095656Y-150159039D01*
X223204371Y-149811457D01*
X223274190Y-149454025D01*
X223296534Y-149184370D01*
X229599500Y-149184370D01*
X229599868Y-149187757D01*
X229599869Y-149187768D01*
X229628450Y-149450561D01*
X229639368Y-149550948D01*
X229640100Y-149554275D01*
X229640101Y-149554279D01*
X229717901Y-149907730D01*
X229717904Y-149907741D01*
X229718636Y-149911066D01*
X229719724Y-149914296D01*
X229719726Y-149914302D01*
X229802187Y-150159039D01*
X229836375Y-150260503D01*
X229837806Y-150263596D01*
X229837808Y-150263601D01*
X229945124Y-150495561D01*
X229991205Y-150595162D01*
X230181310Y-150911119D01*
X230404462Y-151204670D01*
X230406813Y-151207152D01*
X230406814Y-151207153D01*
X230655698Y-151469897D01*
X230655703Y-151469902D01*
X230658044Y-151472373D01*
X230939083Y-151711090D01*
X231244284Y-151918022D01*
X231570070Y-152090743D01*
X231912621Y-152227227D01*
X232267919Y-152325875D01*
X232631801Y-152385531D01*
X232907890Y-152400500D01*
X232909610Y-152400500D01*
X233090390Y-152400500D01*
X233092110Y-152400500D01*
X233368199Y-152385531D01*
X233732081Y-152325875D01*
X234087379Y-152227227D01*
X234429930Y-152090743D01*
X234755716Y-151918022D01*
X235060917Y-151711090D01*
X235341956Y-151472373D01*
X235595538Y-151204670D01*
X235818690Y-150911119D01*
X236008795Y-150595162D01*
X236163625Y-150260503D01*
X236281364Y-149911066D01*
X236360632Y-149550948D01*
X236400500Y-149184370D01*
X236400500Y-148815630D01*
X236360632Y-148449052D01*
X236281364Y-148088934D01*
X236163625Y-147739497D01*
X236008795Y-147404838D01*
X235818690Y-147088881D01*
X235595538Y-146795330D01*
X235437393Y-146628378D01*
X235344301Y-146530102D01*
X235344295Y-146530096D01*
X235341956Y-146527627D01*
X235060917Y-146288910D01*
X234771800Y-146092883D01*
X234758538Y-146083891D01*
X234758533Y-146083888D01*
X234755716Y-146081978D01*
X234618676Y-146009324D01*
X234432941Y-145910853D01*
X234432936Y-145910850D01*
X234429930Y-145909257D01*
X234426763Y-145907995D01*
X234090548Y-145774035D01*
X234090537Y-145774031D01*
X234087379Y-145772773D01*
X234084098Y-145771862D01*
X234084092Y-145771860D01*
X233735375Y-145675039D01*
X233735365Y-145675036D01*
X233732081Y-145674125D01*
X233728722Y-145673574D01*
X233728707Y-145673571D01*
X233371576Y-145615022D01*
X233371564Y-145615020D01*
X233368199Y-145614469D01*
X233364789Y-145614284D01*
X233364779Y-145614283D01*
X233093831Y-145599593D01*
X233093819Y-145599592D01*
X233092110Y-145599500D01*
X232907890Y-145599500D01*
X232906181Y-145599592D01*
X232906168Y-145599593D01*
X232635220Y-145614283D01*
X232635208Y-145614284D01*
X232631801Y-145614469D01*
X232628437Y-145615020D01*
X232628423Y-145615022D01*
X232271292Y-145673571D01*
X232271273Y-145673574D01*
X232267919Y-145674125D01*
X232264638Y-145675035D01*
X232264624Y-145675039D01*
X231915907Y-145771860D01*
X231915896Y-145771863D01*
X231912621Y-145772773D01*
X231909467Y-145774029D01*
X231909451Y-145774035D01*
X231573236Y-145907995D01*
X231573227Y-145907999D01*
X231570070Y-145909257D01*
X231567070Y-145910847D01*
X231567058Y-145910853D01*
X231247301Y-146080378D01*
X231247294Y-146080382D01*
X231244284Y-146081978D01*
X231241474Y-146083882D01*
X231241461Y-146083891D01*
X230941908Y-146286994D01*
X230941900Y-146286999D01*
X230939083Y-146288910D01*
X230936483Y-146291118D01*
X230936477Y-146291123D01*
X230660640Y-146525421D01*
X230660630Y-146525430D01*
X230658044Y-146527627D01*
X230655713Y-146530087D01*
X230655698Y-146530102D01*
X230406814Y-146792846D01*
X230406805Y-146792855D01*
X230404462Y-146795330D01*
X230402395Y-146798048D01*
X230402395Y-146798049D01*
X230183380Y-147086157D01*
X230183373Y-147086165D01*
X230181310Y-147088881D01*
X230179552Y-147091801D01*
X230179545Y-147091813D01*
X230117425Y-147195058D01*
X229991205Y-147404838D01*
X229989775Y-147407928D01*
X229989768Y-147407942D01*
X229837808Y-147736398D01*
X229837803Y-147736409D01*
X229836375Y-147739497D01*
X229835289Y-147742719D01*
X229835285Y-147742730D01*
X229719726Y-148085697D01*
X229719722Y-148085708D01*
X229718636Y-148088934D01*
X229717905Y-148092253D01*
X229717901Y-148092269D01*
X229640101Y-148445720D01*
X229639368Y-148449052D01*
X229638999Y-148452442D01*
X229638999Y-148452444D01*
X229599869Y-148812231D01*
X229599868Y-148812243D01*
X229599500Y-148815630D01*
X229599500Y-149184370D01*
X223296534Y-149184370D01*
X223304264Y-149091081D01*
X223294229Y-148727032D01*
X223244207Y-148366297D01*
X223154804Y-148013254D01*
X223027106Y-147672188D01*
X222939648Y-147499368D01*
X222864235Y-147350347D01*
X222864233Y-147350344D01*
X222862663Y-147347241D01*
X222663472Y-147042355D01*
X222431949Y-146761233D01*
X222194360Y-146530102D01*
X222173399Y-146509711D01*
X222173396Y-146509709D01*
X222170906Y-146507286D01*
X222168163Y-146505151D01*
X221886252Y-146285731D01*
X221886247Y-146285727D01*
X221883511Y-146283598D01*
X221573253Y-146092883D01*
X221570127Y-146091407D01*
X221570120Y-146091404D01*
X221247043Y-145938940D01*
X221247040Y-145938938D01*
X221243898Y-145937456D01*
X221240610Y-145936327D01*
X221240607Y-145936326D01*
X220902723Y-145820331D01*
X220902722Y-145820330D01*
X220899443Y-145819205D01*
X220896067Y-145818448D01*
X220896055Y-145818445D01*
X220547456Y-145740322D01*
X220547445Y-145740320D01*
X220544071Y-145739564D01*
X220540626Y-145739182D01*
X220540622Y-145739182D01*
X220185557Y-145699883D01*
X220185551Y-145699882D01*
X220182094Y-145699500D01*
X219909028Y-145699500D01*
X219907334Y-145699593D01*
X219907314Y-145699594D01*
X219639824Y-145714352D01*
X219639820Y-145714352D01*
X219636366Y-145714543D01*
X219632950Y-145715112D01*
X219632941Y-145715114D01*
X219280582Y-145773913D01*
X219280573Y-145773914D01*
X219277145Y-145774487D01*
X219273809Y-145775430D01*
X219273797Y-145775433D01*
X218930046Y-145872636D01*
X218930032Y-145872640D01*
X218926700Y-145873583D01*
X218923478Y-145874891D01*
X218923474Y-145874893D01*
X218592496Y-146009324D01*
X218592487Y-146009328D01*
X218589282Y-146010630D01*
X218586240Y-146012276D01*
X218586232Y-146012280D01*
X218272046Y-146182309D01*
X218272037Y-146182314D01*
X218268989Y-146183964D01*
X218266144Y-146185936D01*
X218266132Y-146185944D01*
X217972561Y-146389502D01*
X217972551Y-146389509D01*
X217969708Y-146391481D01*
X217967093Y-146393757D01*
X217967087Y-146393763D01*
X217697693Y-146628378D01*
X217697679Y-146628391D01*
X217695072Y-146630662D01*
X217692718Y-146633218D01*
X217692715Y-146633222D01*
X217450770Y-146896044D01*
X217450763Y-146896051D01*
X217448415Y-146898603D01*
X217446363Y-146901393D01*
X217446357Y-146901402D01*
X217234785Y-147189254D01*
X217234772Y-147189272D01*
X217232730Y-147192052D01*
X217230998Y-147195051D01*
X217230994Y-147195058D01*
X217052374Y-147504438D01*
X217052368Y-147504449D01*
X217050637Y-147507448D01*
X217049242Y-147510626D01*
X217049241Y-147510630D01*
X216905737Y-147837783D01*
X216905731Y-147837798D01*
X216904344Y-147840961D01*
X216903311Y-147844263D01*
X216903309Y-147844269D01*
X216796665Y-148185228D01*
X216796661Y-148185242D01*
X216795629Y-148188543D01*
X216794966Y-148191937D01*
X216794963Y-148191949D01*
X216726476Y-148542562D01*
X216726474Y-148542573D01*
X216725810Y-148545975D01*
X216725523Y-148549437D01*
X216725523Y-148549438D01*
X216710520Y-148730506D01*
X216695736Y-148908919D01*
X210299243Y-148908919D01*
X210294229Y-148727032D01*
X210244207Y-148366297D01*
X210154804Y-148013254D01*
X210027106Y-147672188D01*
X209939648Y-147499368D01*
X209864235Y-147350347D01*
X209864233Y-147350344D01*
X209862663Y-147347241D01*
X209663472Y-147042355D01*
X209431949Y-146761233D01*
X209194360Y-146530102D01*
X209173399Y-146509711D01*
X209173396Y-146509709D01*
X209170906Y-146507286D01*
X209168163Y-146505151D01*
X208886252Y-146285731D01*
X208886247Y-146285727D01*
X208883511Y-146283598D01*
X208573253Y-146092883D01*
X208570127Y-146091407D01*
X208570120Y-146091404D01*
X208247043Y-145938940D01*
X208247040Y-145938938D01*
X208243898Y-145937456D01*
X208240610Y-145936327D01*
X208240607Y-145936326D01*
X207902723Y-145820331D01*
X207902722Y-145820330D01*
X207899443Y-145819205D01*
X207896067Y-145818448D01*
X207896055Y-145818445D01*
X207547456Y-145740322D01*
X207547445Y-145740320D01*
X207544071Y-145739564D01*
X207540626Y-145739182D01*
X207540622Y-145739182D01*
X207185557Y-145699883D01*
X207185551Y-145699882D01*
X207182094Y-145699500D01*
X206909028Y-145699500D01*
X206907334Y-145699593D01*
X206907314Y-145699594D01*
X206639824Y-145714352D01*
X206639820Y-145714352D01*
X206636366Y-145714543D01*
X206632950Y-145715112D01*
X206632941Y-145715114D01*
X206280582Y-145773913D01*
X206280573Y-145773914D01*
X206277145Y-145774487D01*
X206273809Y-145775430D01*
X206273797Y-145775433D01*
X205930046Y-145872636D01*
X205930032Y-145872640D01*
X205926700Y-145873583D01*
X205923478Y-145874891D01*
X205923474Y-145874893D01*
X205592496Y-146009324D01*
X205592487Y-146009328D01*
X205589282Y-146010630D01*
X205586240Y-146012276D01*
X205586232Y-146012280D01*
X205272046Y-146182309D01*
X205272037Y-146182314D01*
X205268989Y-146183964D01*
X205266144Y-146185936D01*
X205266132Y-146185944D01*
X204972561Y-146389502D01*
X204972551Y-146389509D01*
X204969708Y-146391481D01*
X204967093Y-146393757D01*
X204967087Y-146393763D01*
X204697693Y-146628378D01*
X204697679Y-146628391D01*
X204695072Y-146630662D01*
X204692718Y-146633218D01*
X204692715Y-146633222D01*
X204450770Y-146896044D01*
X204450763Y-146896051D01*
X204448415Y-146898603D01*
X204446363Y-146901393D01*
X204446357Y-146901402D01*
X204234785Y-147189254D01*
X204234772Y-147189272D01*
X204232730Y-147192052D01*
X204230998Y-147195051D01*
X204230994Y-147195058D01*
X204052374Y-147504438D01*
X204052368Y-147504449D01*
X204050637Y-147507448D01*
X204049242Y-147510626D01*
X204049241Y-147510630D01*
X203905737Y-147837783D01*
X203905731Y-147837798D01*
X203904344Y-147840961D01*
X203903311Y-147844263D01*
X203903309Y-147844269D01*
X203796665Y-148185228D01*
X203796661Y-148185242D01*
X203795629Y-148188543D01*
X203794966Y-148191937D01*
X203794963Y-148191949D01*
X203726476Y-148542562D01*
X203726474Y-148542573D01*
X203725810Y-148545975D01*
X203725523Y-148549437D01*
X203725523Y-148549438D01*
X203710520Y-148730506D01*
X203695736Y-148908919D01*
X170100500Y-148908919D01*
X170100500Y-143820000D01*
X210194532Y-143820000D01*
X210214365Y-144046692D01*
X210273260Y-144266495D01*
X210369432Y-144472734D01*
X210499953Y-144659139D01*
X210660861Y-144820047D01*
X210847266Y-144950568D01*
X211053504Y-145046739D01*
X211273308Y-145105635D01*
X211500000Y-145125468D01*
X211726692Y-145105635D01*
X211946496Y-145046739D01*
X212152734Y-144950568D01*
X212339139Y-144820047D01*
X212500047Y-144659139D01*
X212630568Y-144472734D01*
X212726739Y-144266496D01*
X212785635Y-144046692D01*
X212805468Y-143820000D01*
X212805468Y-143819999D01*
X227194532Y-143819999D01*
X227214365Y-144046692D01*
X227273260Y-144266495D01*
X227369431Y-144472733D01*
X227369432Y-144472734D01*
X227499953Y-144659139D01*
X227660861Y-144820047D01*
X227847266Y-144950568D01*
X228053504Y-145046739D01*
X228273308Y-145105635D01*
X228500000Y-145125468D01*
X228726692Y-145105635D01*
X228946496Y-145046739D01*
X229152734Y-144950568D01*
X229339139Y-144820047D01*
X229500047Y-144659139D01*
X229630568Y-144472734D01*
X229726739Y-144266496D01*
X229785635Y-144046692D01*
X229805468Y-143820000D01*
X229785635Y-143593308D01*
X229726739Y-143373504D01*
X229630568Y-143167266D01*
X229500047Y-142980861D01*
X229339139Y-142819953D01*
X229253151Y-142759744D01*
X229152735Y-142689432D01*
X229098613Y-142664195D01*
X229045328Y-142617278D01*
X229025867Y-142549000D01*
X229046409Y-142481040D01*
X229098613Y-142435805D01*
X229152734Y-142410568D01*
X229339139Y-142280047D01*
X229500047Y-142119139D01*
X229630568Y-141932734D01*
X229726739Y-141726496D01*
X229785635Y-141506692D01*
X229805468Y-141280000D01*
X229785635Y-141053308D01*
X229726739Y-140833504D01*
X229630568Y-140627266D01*
X229500047Y-140440861D01*
X229339139Y-140279953D01*
X229207484Y-140187768D01*
X229202631Y-140184370D01*
X261599500Y-140184370D01*
X261599868Y-140187757D01*
X261599869Y-140187768D01*
X261619627Y-140369432D01*
X261639368Y-140550948D01*
X261640100Y-140554275D01*
X261640101Y-140554279D01*
X261717901Y-140907730D01*
X261717904Y-140907741D01*
X261718636Y-140911066D01*
X261719724Y-140914296D01*
X261719726Y-140914302D01*
X261766562Y-141053307D01*
X261836375Y-141260503D01*
X261837806Y-141263596D01*
X261837808Y-141263601D01*
X261947177Y-141499999D01*
X261991205Y-141595162D01*
X262181310Y-141911119D01*
X262404462Y-142204670D01*
X262406813Y-142207152D01*
X262406814Y-142207153D01*
X262655698Y-142469897D01*
X262655703Y-142469902D01*
X262658044Y-142472373D01*
X262939083Y-142711090D01*
X263244284Y-142918022D01*
X263570070Y-143090743D01*
X263912621Y-143227227D01*
X264267919Y-143325875D01*
X264631801Y-143385531D01*
X264907890Y-143400500D01*
X264909610Y-143400500D01*
X265090390Y-143400500D01*
X265092110Y-143400500D01*
X265368199Y-143385531D01*
X265732081Y-143325875D01*
X266087379Y-143227227D01*
X266429930Y-143090743D01*
X266755716Y-142918022D01*
X267060917Y-142711090D01*
X267341956Y-142472373D01*
X267595538Y-142204670D01*
X267818690Y-141911119D01*
X268008795Y-141595162D01*
X268163625Y-141260503D01*
X268281364Y-140911066D01*
X268360632Y-140550948D01*
X268400500Y-140184370D01*
X268400500Y-139815630D01*
X268360632Y-139449052D01*
X268281364Y-139088934D01*
X268163625Y-138739497D01*
X268008795Y-138404838D01*
X267818690Y-138088881D01*
X267595538Y-137795330D01*
X267419444Y-137609430D01*
X267344301Y-137530102D01*
X267344295Y-137530096D01*
X267341956Y-137527627D01*
X267060917Y-137288910D01*
X266831301Y-137133226D01*
X266758538Y-137083891D01*
X266758533Y-137083888D01*
X266755716Y-137081978D01*
X266540878Y-136968078D01*
X266432941Y-136910853D01*
X266432936Y-136910850D01*
X266429930Y-136909257D01*
X266426763Y-136907995D01*
X266090548Y-136774035D01*
X266090537Y-136774031D01*
X266087379Y-136772773D01*
X266084098Y-136771862D01*
X266084092Y-136771860D01*
X265735375Y-136675039D01*
X265735365Y-136675036D01*
X265732081Y-136674125D01*
X265728722Y-136673574D01*
X265728707Y-136673571D01*
X265371576Y-136615022D01*
X265371564Y-136615020D01*
X265368199Y-136614469D01*
X265364789Y-136614284D01*
X265364779Y-136614283D01*
X265093831Y-136599593D01*
X265093819Y-136599592D01*
X265092110Y-136599500D01*
X264907890Y-136599500D01*
X264906181Y-136599592D01*
X264906168Y-136599593D01*
X264635220Y-136614283D01*
X264635208Y-136614284D01*
X264631801Y-136614469D01*
X264628437Y-136615020D01*
X264628423Y-136615022D01*
X264271292Y-136673571D01*
X264271273Y-136673574D01*
X264267919Y-136674125D01*
X264264638Y-136675035D01*
X264264624Y-136675039D01*
X263915907Y-136771860D01*
X263915896Y-136771863D01*
X263912621Y-136772773D01*
X263909467Y-136774029D01*
X263909451Y-136774035D01*
X263573236Y-136907995D01*
X263573227Y-136907999D01*
X263570070Y-136909257D01*
X263567070Y-136910847D01*
X263567058Y-136910853D01*
X263247301Y-137080378D01*
X263247294Y-137080382D01*
X263244284Y-137081978D01*
X263241474Y-137083882D01*
X263241461Y-137083891D01*
X262941908Y-137286994D01*
X262941900Y-137286999D01*
X262939083Y-137288910D01*
X262936483Y-137291118D01*
X262936477Y-137291123D01*
X262660640Y-137525421D01*
X262660630Y-137525430D01*
X262658044Y-137527627D01*
X262655713Y-137530087D01*
X262655698Y-137530102D01*
X262406814Y-137792846D01*
X262406805Y-137792855D01*
X262404462Y-137795330D01*
X262402395Y-137798048D01*
X262402395Y-137798049D01*
X262183380Y-138086157D01*
X262183373Y-138086165D01*
X262181310Y-138088881D01*
X262179552Y-138091801D01*
X262179545Y-138091813D01*
X262070344Y-138273308D01*
X261991205Y-138404838D01*
X261989775Y-138407928D01*
X261989768Y-138407942D01*
X261837808Y-138736398D01*
X261837803Y-138736409D01*
X261836375Y-138739497D01*
X261835289Y-138742719D01*
X261835285Y-138742730D01*
X261719726Y-139085697D01*
X261719722Y-139085708D01*
X261718636Y-139088934D01*
X261717905Y-139092253D01*
X261717901Y-139092269D01*
X261640101Y-139445720D01*
X261639368Y-139449052D01*
X261638999Y-139452442D01*
X261638999Y-139452444D01*
X261599869Y-139812231D01*
X261599868Y-139812243D01*
X261599500Y-139815630D01*
X261599500Y-140184370D01*
X229202631Y-140184370D01*
X229152735Y-140149432D01*
X229098613Y-140124195D01*
X229045328Y-140077278D01*
X229025867Y-140009000D01*
X229046409Y-139941040D01*
X229098613Y-139895805D01*
X229152734Y-139870568D01*
X229339139Y-139740047D01*
X229500047Y-139579139D01*
X229630568Y-139392734D01*
X229726739Y-139186496D01*
X229785635Y-138966692D01*
X229805468Y-138740000D01*
X229785635Y-138513308D01*
X229726739Y-138293504D01*
X229630568Y-138087266D01*
X229500047Y-137900861D01*
X229339139Y-137739953D01*
X229226179Y-137660858D01*
X229152735Y-137609432D01*
X229098613Y-137584195D01*
X229045328Y-137537278D01*
X229025867Y-137469000D01*
X229046409Y-137401040D01*
X229098613Y-137355805D01*
X229152734Y-137330568D01*
X229339139Y-137200047D01*
X229500047Y-137039139D01*
X229630568Y-136852734D01*
X229726739Y-136646496D01*
X229785635Y-136426692D01*
X229805468Y-136200000D01*
X229785635Y-135973308D01*
X229726739Y-135753504D01*
X229630568Y-135547266D01*
X229500047Y-135360861D01*
X229339139Y-135199953D01*
X229152734Y-135069432D01*
X229072288Y-135031919D01*
X228946495Y-134973260D01*
X228726692Y-134914365D01*
X228556784Y-134899500D01*
X228500000Y-134894532D01*
X228499999Y-134894532D01*
X228273307Y-134914365D01*
X228053504Y-134973260D01*
X227847265Y-135069432D01*
X227660858Y-135199955D01*
X227499955Y-135360858D01*
X227369432Y-135547265D01*
X227273260Y-135753504D01*
X227214365Y-135973307D01*
X227194532Y-136200000D01*
X227214365Y-136426692D01*
X227273260Y-136646495D01*
X227332145Y-136772773D01*
X227369432Y-136852734D01*
X227499953Y-137039139D01*
X227660861Y-137200047D01*
X227785035Y-137286994D01*
X227847267Y-137330569D01*
X227901387Y-137355806D01*
X227954672Y-137402723D01*
X227974132Y-137471000D01*
X227953590Y-137538960D01*
X227901387Y-137584194D01*
X227847267Y-137609430D01*
X227660858Y-137739955D01*
X227499955Y-137900858D01*
X227369432Y-138087265D01*
X227273260Y-138293504D01*
X227214365Y-138513307D01*
X227194532Y-138740000D01*
X227214365Y-138966692D01*
X227273260Y-139186495D01*
X227344440Y-139339139D01*
X227369432Y-139392734D01*
X227499953Y-139579139D01*
X227660861Y-139740047D01*
X227800664Y-139837937D01*
X227847267Y-139870569D01*
X227901387Y-139895806D01*
X227954672Y-139942723D01*
X227974132Y-140011000D01*
X227953590Y-140078960D01*
X227901387Y-140124194D01*
X227847267Y-140149430D01*
X227660858Y-140279955D01*
X227499955Y-140440858D01*
X227369432Y-140627265D01*
X227273260Y-140833504D01*
X227214365Y-141053307D01*
X227194532Y-141279999D01*
X227214365Y-141506692D01*
X227273260Y-141726495D01*
X227273352Y-141726692D01*
X227369432Y-141932734D01*
X227499953Y-142119139D01*
X227660861Y-142280047D01*
X227745254Y-142339139D01*
X227847267Y-142410569D01*
X227901387Y-142435806D01*
X227954672Y-142482723D01*
X227974132Y-142551000D01*
X227953590Y-142618960D01*
X227901387Y-142664194D01*
X227847267Y-142689430D01*
X227660858Y-142819955D01*
X227499955Y-142980858D01*
X227369432Y-143167265D01*
X227273260Y-143373504D01*
X227214365Y-143593307D01*
X227194532Y-143819999D01*
X212805468Y-143819999D01*
X212785635Y-143593308D01*
X212726739Y-143373504D01*
X212630568Y-143167266D01*
X212500047Y-142980861D01*
X212339139Y-142819953D01*
X212253151Y-142759744D01*
X212152735Y-142689432D01*
X212098613Y-142664195D01*
X212045328Y-142617278D01*
X212025867Y-142549000D01*
X212046409Y-142481040D01*
X212098613Y-142435805D01*
X212152734Y-142410568D01*
X212339139Y-142280047D01*
X212500047Y-142119139D01*
X212630568Y-141932734D01*
X212726739Y-141726496D01*
X212785635Y-141506692D01*
X212786220Y-141500000D01*
X217194532Y-141500000D01*
X217214365Y-141726692D01*
X217273260Y-141946495D01*
X217353766Y-142119139D01*
X217369432Y-142152734D01*
X217499953Y-142339139D01*
X217660861Y-142500047D01*
X217847266Y-142630568D01*
X218053504Y-142726739D01*
X218273308Y-142785635D01*
X218500000Y-142805468D01*
X218726692Y-142785635D01*
X218946496Y-142726739D01*
X219152734Y-142630568D01*
X219339139Y-142500047D01*
X219500047Y-142339139D01*
X219630568Y-142152734D01*
X219726739Y-141946496D01*
X219785635Y-141726692D01*
X219805468Y-141500000D01*
X220194532Y-141500000D01*
X220202586Y-141592057D01*
X220214365Y-141726692D01*
X220273260Y-141946495D01*
X220353766Y-142119139D01*
X220369432Y-142152734D01*
X220499953Y-142339139D01*
X220660861Y-142500047D01*
X220847266Y-142630568D01*
X221053504Y-142726739D01*
X221273308Y-142785635D01*
X221500000Y-142805468D01*
X221726692Y-142785635D01*
X221946496Y-142726739D01*
X222152734Y-142630568D01*
X222339139Y-142500047D01*
X222500047Y-142339139D01*
X222630568Y-142152734D01*
X222726739Y-141946496D01*
X222785635Y-141726692D01*
X222805468Y-141500000D01*
X222785635Y-141273308D01*
X222726739Y-141053504D01*
X222630568Y-140847266D01*
X222500047Y-140660861D01*
X222339139Y-140499953D01*
X222152734Y-140369432D01*
X221946495Y-140273260D01*
X221726692Y-140214365D01*
X221500000Y-140194532D01*
X221273307Y-140214365D01*
X221053504Y-140273260D01*
X220847265Y-140369432D01*
X220660858Y-140499955D01*
X220499955Y-140660858D01*
X220369432Y-140847265D01*
X220273260Y-141053504D01*
X220214365Y-141273307D01*
X220213780Y-141280000D01*
X220194532Y-141500000D01*
X219805468Y-141500000D01*
X219785635Y-141273308D01*
X219726739Y-141053504D01*
X219630568Y-140847266D01*
X219500047Y-140660861D01*
X219339139Y-140499953D01*
X219152734Y-140369432D01*
X218946495Y-140273260D01*
X218726692Y-140214365D01*
X218500000Y-140194532D01*
X218273307Y-140214365D01*
X218053504Y-140273260D01*
X217847265Y-140369432D01*
X217660858Y-140499955D01*
X217499955Y-140660858D01*
X217369432Y-140847265D01*
X217273260Y-141053504D01*
X217214365Y-141273307D01*
X217194532Y-141500000D01*
X212786220Y-141500000D01*
X212805468Y-141280000D01*
X212785635Y-141053308D01*
X212726739Y-140833504D01*
X212630568Y-140627266D01*
X212500047Y-140440861D01*
X212339139Y-140279953D01*
X212207484Y-140187768D01*
X212152735Y-140149432D01*
X212098613Y-140124195D01*
X212045328Y-140077278D01*
X212025867Y-140009000D01*
X212046409Y-139941040D01*
X212098613Y-139895805D01*
X212152734Y-139870568D01*
X212339139Y-139740047D01*
X212500047Y-139579139D01*
X212630568Y-139392734D01*
X212726739Y-139186496D01*
X212785635Y-138966692D01*
X212805468Y-138740000D01*
X212785635Y-138513308D01*
X212726739Y-138293504D01*
X212630568Y-138087266D01*
X212500047Y-137900861D01*
X212339139Y-137739953D01*
X212226179Y-137660858D01*
X212152735Y-137609432D01*
X212098613Y-137584195D01*
X212045328Y-137537278D01*
X212025867Y-137469000D01*
X212046409Y-137401040D01*
X212098613Y-137355805D01*
X212152734Y-137330568D01*
X212339139Y-137200047D01*
X212500047Y-137039139D01*
X212630568Y-136852734D01*
X212726739Y-136646496D01*
X212761787Y-136515694D01*
X213899500Y-136515694D01*
X213902402Y-136552569D01*
X213948256Y-136710398D01*
X213985891Y-136774035D01*
X214031921Y-136851868D01*
X214148131Y-136968078D01*
X214148133Y-136968079D01*
X214148135Y-136968081D01*
X214289602Y-137051744D01*
X214447431Y-137097598D01*
X214484306Y-137100500D01*
X214486777Y-137100500D01*
X215513223Y-137100500D01*
X215515694Y-137100500D01*
X215552569Y-137097598D01*
X215710398Y-137051744D01*
X215851865Y-136968081D01*
X215968081Y-136851865D01*
X216051744Y-136710398D01*
X216097598Y-136552569D01*
X216100500Y-136515694D01*
X216439500Y-136515694D01*
X216442402Y-136552569D01*
X216488256Y-136710398D01*
X216525891Y-136774035D01*
X216571921Y-136851868D01*
X216688131Y-136968078D01*
X216688133Y-136968079D01*
X216688135Y-136968081D01*
X216829602Y-137051744D01*
X216987431Y-137097598D01*
X217024306Y-137100500D01*
X217026777Y-137100500D01*
X217855642Y-137100500D01*
X217923763Y-137120502D01*
X217970256Y-137174158D01*
X217980360Y-137244432D01*
X217950866Y-137309012D01*
X217908892Y-137340695D01*
X217847265Y-137369432D01*
X217660858Y-137499955D01*
X217499955Y-137660858D01*
X217369432Y-137847265D01*
X217273260Y-138053504D01*
X217214365Y-138273307D01*
X217194532Y-138500000D01*
X217214365Y-138726692D01*
X217273260Y-138946495D01*
X217369431Y-139152733D01*
X217369432Y-139152734D01*
X217499953Y-139339139D01*
X217660861Y-139500047D01*
X217847266Y-139630568D01*
X218053504Y-139726739D01*
X218273308Y-139785635D01*
X218500000Y-139805468D01*
X218726692Y-139785635D01*
X218946496Y-139726739D01*
X219152734Y-139630568D01*
X219339139Y-139500047D01*
X219500047Y-139339139D01*
X219630568Y-139152734D01*
X219726739Y-138946496D01*
X219785635Y-138726692D01*
X219805468Y-138500000D01*
X219805468Y-138499999D01*
X220194532Y-138499999D01*
X220214365Y-138726692D01*
X220273260Y-138946495D01*
X220369431Y-139152734D01*
X220369432Y-139152734D01*
X220499953Y-139339139D01*
X220660861Y-139500047D01*
X220847266Y-139630568D01*
X221053504Y-139726739D01*
X221273308Y-139785635D01*
X221500000Y-139805468D01*
X221726692Y-139785635D01*
X221946496Y-139726739D01*
X222152734Y-139630568D01*
X222339139Y-139500047D01*
X222500047Y-139339139D01*
X222630568Y-139152734D01*
X222726739Y-138946496D01*
X222785635Y-138726692D01*
X222805468Y-138500000D01*
X222785635Y-138273308D01*
X222726739Y-138053504D01*
X222630568Y-137847266D01*
X222500047Y-137660861D01*
X222339139Y-137499953D01*
X222152734Y-137369432D01*
X222069393Y-137330569D01*
X221946495Y-137273260D01*
X221726692Y-137214365D01*
X221500000Y-137194532D01*
X221273307Y-137214365D01*
X221053504Y-137273260D01*
X220847265Y-137369432D01*
X220660858Y-137499955D01*
X220499955Y-137660858D01*
X220369432Y-137847265D01*
X220273260Y-138053504D01*
X220214365Y-138273307D01*
X220194532Y-138499999D01*
X219805468Y-138499999D01*
X219785635Y-138273308D01*
X219726739Y-138053504D01*
X219630568Y-137847266D01*
X219500047Y-137660861D01*
X219339139Y-137499953D01*
X219152734Y-137369432D01*
X219069393Y-137330569D01*
X218946495Y-137273260D01*
X218726692Y-137214365D01*
X218726691Y-137214364D01*
X218500000Y-137194532D01*
X218499999Y-137194532D01*
X218499998Y-137194532D01*
X218485136Y-137195832D01*
X218476180Y-137196615D01*
X218406576Y-137182626D01*
X218355585Y-137133226D01*
X218339395Y-137064100D01*
X218363149Y-136997194D01*
X218381628Y-136980355D01*
X218380610Y-136979337D01*
X218508078Y-136851868D01*
X218508081Y-136851865D01*
X218591744Y-136710398D01*
X218637598Y-136552569D01*
X218640500Y-136515694D01*
X218640500Y-135484306D01*
X218637598Y-135447431D01*
X218591744Y-135289602D01*
X218508081Y-135148135D01*
X218508079Y-135148133D01*
X218508078Y-135148131D01*
X218391868Y-135031921D01*
X218292679Y-134973261D01*
X218250398Y-134948256D01*
X218092569Y-134902402D01*
X218092568Y-134902402D01*
X218058150Y-134899693D01*
X218058142Y-134899692D01*
X218055694Y-134899500D01*
X217024306Y-134899500D01*
X217021858Y-134899692D01*
X217021849Y-134899693D01*
X216987430Y-134902402D01*
X216829602Y-134948256D01*
X216688131Y-135031921D01*
X216571921Y-135148131D01*
X216571918Y-135148135D01*
X216571919Y-135148135D01*
X216488256Y-135289602D01*
X216442402Y-135447431D01*
X216439500Y-135484306D01*
X216439500Y-136515694D01*
X216100500Y-136515694D01*
X216100500Y-135484306D01*
X216097598Y-135447431D01*
X216051744Y-135289602D01*
X215968081Y-135148135D01*
X215968079Y-135148133D01*
X215968078Y-135148131D01*
X215851868Y-135031921D01*
X215752679Y-134973261D01*
X215710398Y-134948256D01*
X215552569Y-134902402D01*
X215552568Y-134902402D01*
X215518150Y-134899693D01*
X215518142Y-134899692D01*
X215515694Y-134899500D01*
X214484306Y-134899500D01*
X214481858Y-134899692D01*
X214481849Y-134899693D01*
X214447430Y-134902402D01*
X214289602Y-134948256D01*
X214148131Y-135031921D01*
X214031921Y-135148131D01*
X214031918Y-135148135D01*
X214031919Y-135148135D01*
X213948256Y-135289602D01*
X213902402Y-135447431D01*
X213899500Y-135484306D01*
X213899500Y-136515694D01*
X212761787Y-136515694D01*
X212785635Y-136426692D01*
X212805468Y-136200000D01*
X212785635Y-135973308D01*
X212726739Y-135753504D01*
X212630568Y-135547266D01*
X212500047Y-135360861D01*
X212339139Y-135199953D01*
X212152734Y-135069432D01*
X212072288Y-135031919D01*
X211946495Y-134973260D01*
X211726692Y-134914365D01*
X211500000Y-134894532D01*
X211273307Y-134914365D01*
X211053504Y-134973260D01*
X210847265Y-135069432D01*
X210660858Y-135199955D01*
X210499955Y-135360858D01*
X210369432Y-135547265D01*
X210273260Y-135753504D01*
X210214365Y-135973307D01*
X210194532Y-136200000D01*
X210214365Y-136426692D01*
X210273260Y-136646495D01*
X210332145Y-136772773D01*
X210369432Y-136852734D01*
X210499953Y-137039139D01*
X210660861Y-137200047D01*
X210785035Y-137286994D01*
X210847267Y-137330569D01*
X210901387Y-137355806D01*
X210954672Y-137402723D01*
X210974132Y-137471000D01*
X210953590Y-137538960D01*
X210901387Y-137584194D01*
X210847267Y-137609430D01*
X210660858Y-137739955D01*
X210499955Y-137900858D01*
X210369432Y-138087265D01*
X210273260Y-138293504D01*
X210214365Y-138513307D01*
X210194532Y-138740000D01*
X210214365Y-138966692D01*
X210273260Y-139186495D01*
X210344440Y-139339139D01*
X210369432Y-139392734D01*
X210499953Y-139579139D01*
X210660861Y-139740047D01*
X210800664Y-139837937D01*
X210847267Y-139870569D01*
X210901387Y-139895806D01*
X210954672Y-139942723D01*
X210974132Y-140011000D01*
X210953590Y-140078960D01*
X210901387Y-140124194D01*
X210847267Y-140149430D01*
X210660858Y-140279955D01*
X210499955Y-140440858D01*
X210369432Y-140627265D01*
X210273260Y-140833504D01*
X210214365Y-141053307D01*
X210194532Y-141280000D01*
X210214365Y-141506692D01*
X210273260Y-141726495D01*
X210273352Y-141726692D01*
X210369432Y-141932734D01*
X210499953Y-142119139D01*
X210660861Y-142280047D01*
X210745254Y-142339139D01*
X210847267Y-142410569D01*
X210901387Y-142435806D01*
X210954672Y-142482723D01*
X210974132Y-142551000D01*
X210953590Y-142618960D01*
X210901387Y-142664194D01*
X210847267Y-142689430D01*
X210660858Y-142819955D01*
X210499955Y-142980858D01*
X210369432Y-143167265D01*
X210273260Y-143373504D01*
X210214365Y-143593307D01*
X210194532Y-143820000D01*
X170100500Y-143820000D01*
X170100500Y-140184370D01*
X171599500Y-140184370D01*
X171599868Y-140187757D01*
X171599869Y-140187768D01*
X171619627Y-140369432D01*
X171639368Y-140550948D01*
X171640100Y-140554275D01*
X171640101Y-140554279D01*
X171717901Y-140907730D01*
X171717904Y-140907741D01*
X171718636Y-140911066D01*
X171719724Y-140914296D01*
X171719726Y-140914302D01*
X171766562Y-141053307D01*
X171836375Y-141260503D01*
X171837806Y-141263596D01*
X171837808Y-141263601D01*
X171947177Y-141499999D01*
X171991205Y-141595162D01*
X172181310Y-141911119D01*
X172404462Y-142204670D01*
X172406813Y-142207152D01*
X172406814Y-142207153D01*
X172655698Y-142469897D01*
X172655703Y-142469902D01*
X172658044Y-142472373D01*
X172939083Y-142711090D01*
X173244284Y-142918022D01*
X173570070Y-143090743D01*
X173912621Y-143227227D01*
X174267919Y-143325875D01*
X174631801Y-143385531D01*
X174907890Y-143400500D01*
X174909610Y-143400500D01*
X175090390Y-143400500D01*
X175092110Y-143400500D01*
X175368199Y-143385531D01*
X175732081Y-143325875D01*
X176087379Y-143227227D01*
X176429930Y-143090743D01*
X176755716Y-142918022D01*
X177060917Y-142711090D01*
X177341956Y-142472373D01*
X177595538Y-142204670D01*
X177818690Y-141911119D01*
X178008795Y-141595162D01*
X178163625Y-141260503D01*
X178281364Y-140911066D01*
X178360632Y-140550948D01*
X178400500Y-140184370D01*
X178400500Y-139815630D01*
X178360632Y-139449052D01*
X178281364Y-139088934D01*
X178163625Y-138739497D01*
X178008795Y-138404838D01*
X177818690Y-138088881D01*
X177595538Y-137795330D01*
X177419444Y-137609430D01*
X177344301Y-137530102D01*
X177344295Y-137530096D01*
X177341956Y-137527627D01*
X177060917Y-137288910D01*
X176831301Y-137133226D01*
X176758538Y-137083891D01*
X176758533Y-137083888D01*
X176755716Y-137081978D01*
X176540878Y-136968078D01*
X176432941Y-136910853D01*
X176432936Y-136910850D01*
X176429930Y-136909257D01*
X176426763Y-136907995D01*
X176090548Y-136774035D01*
X176090537Y-136774031D01*
X176087379Y-136772773D01*
X176084098Y-136771862D01*
X176084092Y-136771860D01*
X175735375Y-136675039D01*
X175735365Y-136675036D01*
X175732081Y-136674125D01*
X175728722Y-136673574D01*
X175728707Y-136673571D01*
X175371576Y-136615022D01*
X175371564Y-136615020D01*
X175368199Y-136614469D01*
X175364789Y-136614284D01*
X175364779Y-136614283D01*
X175093831Y-136599593D01*
X175093819Y-136599592D01*
X175092110Y-136599500D01*
X174907890Y-136599500D01*
X174906181Y-136599592D01*
X174906168Y-136599593D01*
X174635220Y-136614283D01*
X174635208Y-136614284D01*
X174631801Y-136614469D01*
X174628437Y-136615020D01*
X174628423Y-136615022D01*
X174271292Y-136673571D01*
X174271273Y-136673574D01*
X174267919Y-136674125D01*
X174264638Y-136675035D01*
X174264624Y-136675039D01*
X173915907Y-136771860D01*
X173915896Y-136771863D01*
X173912621Y-136772773D01*
X173909467Y-136774029D01*
X173909451Y-136774035D01*
X173573236Y-136907995D01*
X173573227Y-136907999D01*
X173570070Y-136909257D01*
X173567070Y-136910847D01*
X173567058Y-136910853D01*
X173247301Y-137080378D01*
X173247294Y-137080382D01*
X173244284Y-137081978D01*
X173241474Y-137083882D01*
X173241461Y-137083891D01*
X172941908Y-137286994D01*
X172941900Y-137286999D01*
X172939083Y-137288910D01*
X172936483Y-137291118D01*
X172936477Y-137291123D01*
X172660640Y-137525421D01*
X172660630Y-137525430D01*
X172658044Y-137527627D01*
X172655713Y-137530087D01*
X172655698Y-137530102D01*
X172406814Y-137792846D01*
X172406805Y-137792855D01*
X172404462Y-137795330D01*
X172402395Y-137798048D01*
X172402395Y-137798049D01*
X172183380Y-138086157D01*
X172183373Y-138086165D01*
X172181310Y-138088881D01*
X172179552Y-138091801D01*
X172179545Y-138091813D01*
X172070344Y-138273308D01*
X171991205Y-138404838D01*
X171989775Y-138407928D01*
X171989768Y-138407942D01*
X171837808Y-138736398D01*
X171837803Y-138736409D01*
X171836375Y-138739497D01*
X171835289Y-138742719D01*
X171835285Y-138742730D01*
X171719726Y-139085697D01*
X171719722Y-139085708D01*
X171718636Y-139088934D01*
X171717905Y-139092253D01*
X171717901Y-139092269D01*
X171640101Y-139445720D01*
X171639368Y-139449052D01*
X171638999Y-139452442D01*
X171638999Y-139452444D01*
X171599869Y-139812231D01*
X171599868Y-139812243D01*
X171599500Y-139815630D01*
X171599500Y-140184370D01*
X170100500Y-140184370D01*
X170100500Y-132900000D01*
X215694532Y-132900000D01*
X215714365Y-133126692D01*
X215773260Y-133346495D01*
X215869432Y-133552733D01*
X215869432Y-133552734D01*
X215999953Y-133739139D01*
X216160861Y-133900047D01*
X216347266Y-134030568D01*
X216553504Y-134126739D01*
X216773308Y-134185635D01*
X217000000Y-134205468D01*
X217226692Y-134185635D01*
X217446496Y-134126739D01*
X217652734Y-134030568D01*
X217839139Y-133900047D01*
X218000047Y-133739139D01*
X218130568Y-133552734D01*
X218226739Y-133346496D01*
X218285635Y-133126692D01*
X218305468Y-132900000D01*
X218694532Y-132900000D01*
X218714365Y-133126692D01*
X218773260Y-133346495D01*
X218869432Y-133552734D01*
X218999953Y-133739139D01*
X219160861Y-133900047D01*
X219347266Y-134030568D01*
X219553504Y-134126739D01*
X219773308Y-134185635D01*
X220000000Y-134205468D01*
X220226692Y-134185635D01*
X220446496Y-134126739D01*
X220652734Y-134030568D01*
X220839139Y-133900047D01*
X221000047Y-133739139D01*
X221130568Y-133552734D01*
X221226739Y-133346496D01*
X221285635Y-133126692D01*
X221305468Y-132900000D01*
X221285635Y-132673308D01*
X221226739Y-132453504D01*
X221130568Y-132247266D01*
X221000047Y-132060861D01*
X220839139Y-131899953D01*
X220652734Y-131769432D01*
X220572925Y-131732216D01*
X220446495Y-131673260D01*
X220226692Y-131614365D01*
X220000000Y-131594532D01*
X219773307Y-131614365D01*
X219553504Y-131673260D01*
X219347265Y-131769432D01*
X219160858Y-131899955D01*
X218999955Y-132060858D01*
X218869432Y-132247265D01*
X218773260Y-132453504D01*
X218714365Y-132673307D01*
X218694532Y-132900000D01*
X218305468Y-132900000D01*
X218285635Y-132673308D01*
X218226739Y-132453504D01*
X218130568Y-132247266D01*
X218130564Y-132247261D01*
X218124018Y-132237911D01*
X218114494Y-132224310D01*
X218091806Y-132157039D01*
X218109090Y-132088178D01*
X218160859Y-132039593D01*
X218191503Y-132028795D01*
X218264267Y-132013329D01*
X218427593Y-131940612D01*
X218572230Y-131835526D01*
X218691859Y-131702665D01*
X218781250Y-131547835D01*
X218836497Y-131377803D01*
X218855185Y-131200000D01*
X221144815Y-131200000D01*
X221163503Y-131377804D01*
X221218749Y-131547835D01*
X221308139Y-131702663D01*
X221308141Y-131702665D01*
X221427770Y-131835526D01*
X221572407Y-131940612D01*
X221735733Y-132013329D01*
X221808491Y-132028794D01*
X221870962Y-132062521D01*
X221905284Y-132124671D01*
X221900556Y-132195510D01*
X221885505Y-132224310D01*
X221869433Y-132247261D01*
X221773260Y-132453504D01*
X221714365Y-132673307D01*
X221694532Y-132900000D01*
X221714365Y-133126692D01*
X221773260Y-133346495D01*
X221869432Y-133552733D01*
X221869432Y-133552734D01*
X221999953Y-133739139D01*
X222160861Y-133900047D01*
X222347266Y-134030568D01*
X222553504Y-134126739D01*
X222773308Y-134185635D01*
X223000000Y-134205468D01*
X223226692Y-134185635D01*
X223446496Y-134126739D01*
X223652734Y-134030568D01*
X223839139Y-133900047D01*
X224000047Y-133739139D01*
X224130568Y-133552734D01*
X224226739Y-133346496D01*
X224285635Y-133126692D01*
X224305468Y-132900000D01*
X224285635Y-132673308D01*
X224226739Y-132453504D01*
X224130568Y-132247266D01*
X224000047Y-132060861D01*
X223839139Y-131899953D01*
X223652734Y-131769432D01*
X223572925Y-131732216D01*
X223446495Y-131673260D01*
X223226692Y-131614365D01*
X223000000Y-131594532D01*
X222999999Y-131594532D01*
X222999998Y-131594532D01*
X222948872Y-131599005D01*
X222879267Y-131585015D01*
X222828276Y-131535615D01*
X222812086Y-131466489D01*
X222818059Y-131434548D01*
X222833100Y-131388257D01*
X222836497Y-131377803D01*
X222855185Y-131200000D01*
X225094540Y-131200000D01*
X225114325Y-131388257D01*
X225172820Y-131568283D01*
X225267465Y-131732214D01*
X225360488Y-131835526D01*
X225394129Y-131872888D01*
X225547270Y-131984151D01*
X225547271Y-131984151D01*
X225547272Y-131984152D01*
X225720192Y-132061142D01*
X225720197Y-132061144D01*
X225905354Y-132100500D01*
X225905356Y-132100500D01*
X226094644Y-132100500D01*
X226094646Y-132100500D01*
X226279803Y-132061144D01*
X226452730Y-131984151D01*
X226605871Y-131872888D01*
X226732533Y-131732216D01*
X226827179Y-131568284D01*
X226860254Y-131466489D01*
X226885674Y-131388257D01*
X226887555Y-131370352D01*
X226905460Y-131200000D01*
X226886773Y-131022197D01*
X226885674Y-131011742D01*
X226827179Y-130831716D01*
X226732534Y-130667785D01*
X226605870Y-130527111D01*
X226452727Y-130415847D01*
X226279807Y-130338857D01*
X226279803Y-130338856D01*
X226094646Y-130299500D01*
X225905354Y-130299500D01*
X225744016Y-130333793D01*
X225720192Y-130338857D01*
X225547272Y-130415847D01*
X225394129Y-130527111D01*
X225267465Y-130667785D01*
X225172820Y-130831716D01*
X225114325Y-131011742D01*
X225094540Y-131200000D01*
X222855185Y-131200000D01*
X222836497Y-131022197D01*
X222781250Y-130852165D01*
X222781250Y-130852164D01*
X222691860Y-130697336D01*
X222572229Y-130564473D01*
X222427594Y-130459389D01*
X222427593Y-130459388D01*
X222264267Y-130386671D01*
X222089391Y-130349500D01*
X221910609Y-130349500D01*
X221794024Y-130374280D01*
X221735732Y-130386671D01*
X221572406Y-130459389D01*
X221427770Y-130564473D01*
X221308139Y-130697336D01*
X221218749Y-130852164D01*
X221163503Y-131022195D01*
X221144815Y-131200000D01*
X218855185Y-131200000D01*
X218836497Y-131022197D01*
X218781250Y-130852165D01*
X218781250Y-130852164D01*
X218691860Y-130697336D01*
X218572229Y-130564473D01*
X218427594Y-130459389D01*
X218427593Y-130459388D01*
X218264267Y-130386671D01*
X218089391Y-130349500D01*
X217910609Y-130349500D01*
X217794025Y-130374280D01*
X217735732Y-130386671D01*
X217572406Y-130459389D01*
X217427770Y-130564473D01*
X217308139Y-130697336D01*
X217218749Y-130852164D01*
X217163503Y-131022195D01*
X217163502Y-131022197D01*
X217163503Y-131022197D01*
X217144815Y-131200000D01*
X217163503Y-131377803D01*
X217166900Y-131388257D01*
X217181941Y-131434549D01*
X217183967Y-131505517D01*
X217147304Y-131566314D01*
X217083591Y-131597639D01*
X217051127Y-131599005D01*
X217000001Y-131594532D01*
X217000000Y-131594532D01*
X216886653Y-131604448D01*
X216773307Y-131614365D01*
X216553504Y-131673260D01*
X216347265Y-131769432D01*
X216160858Y-131899955D01*
X215999955Y-132060858D01*
X215869432Y-132247265D01*
X215773260Y-132453504D01*
X215714365Y-132673307D01*
X215694532Y-132900000D01*
X170100500Y-132900000D01*
X170100500Y-131200000D01*
X213094540Y-131200000D01*
X213114325Y-131388257D01*
X213172820Y-131568283D01*
X213267465Y-131732214D01*
X213360488Y-131835526D01*
X213394129Y-131872888D01*
X213547270Y-131984151D01*
X213547271Y-131984151D01*
X213547272Y-131984152D01*
X213720192Y-132061142D01*
X213720197Y-132061144D01*
X213905354Y-132100500D01*
X213905356Y-132100500D01*
X214094644Y-132100500D01*
X214094646Y-132100500D01*
X214279803Y-132061144D01*
X214452730Y-131984151D01*
X214605871Y-131872888D01*
X214732533Y-131732216D01*
X214827179Y-131568284D01*
X214860254Y-131466489D01*
X214885674Y-131388257D01*
X214887555Y-131370352D01*
X214905460Y-131200000D01*
X214886773Y-131022197D01*
X214885674Y-131011742D01*
X214827179Y-130831716D01*
X214732534Y-130667785D01*
X214605870Y-130527111D01*
X214452727Y-130415847D01*
X214279807Y-130338857D01*
X214279803Y-130338856D01*
X214094646Y-130299500D01*
X213905354Y-130299500D01*
X213744016Y-130333793D01*
X213720192Y-130338857D01*
X213547272Y-130415847D01*
X213394129Y-130527111D01*
X213267465Y-130667785D01*
X213172820Y-130831716D01*
X213114325Y-131011742D01*
X213094540Y-131200000D01*
X170100500Y-131200000D01*
X170100500Y-127763433D01*
X215799500Y-127763433D01*
X215806298Y-127784358D01*
X215810912Y-127803577D01*
X215814354Y-127825306D01*
X215824340Y-127844905D01*
X215831906Y-127863170D01*
X215838703Y-127884089D01*
X215851631Y-127901883D01*
X215861960Y-127918738D01*
X215871948Y-127938339D01*
X215871950Y-127938342D01*
X215888183Y-127954575D01*
X215888190Y-127954583D01*
X216321950Y-128388342D01*
X216411655Y-128478048D01*
X216411657Y-128478049D01*
X216411658Y-128478050D01*
X216431256Y-128488035D01*
X216448114Y-128498366D01*
X216465910Y-128511296D01*
X216486832Y-128518093D01*
X216505093Y-128525657D01*
X216524696Y-128535646D01*
X216546425Y-128539087D01*
X216565642Y-128543701D01*
X216586567Y-128550500D01*
X221163431Y-128550500D01*
X221163433Y-128550500D01*
X221184360Y-128543700D01*
X221203576Y-128539087D01*
X221225304Y-128535646D01*
X221244906Y-128525657D01*
X221263163Y-128518094D01*
X221284090Y-128511296D01*
X221301891Y-128498362D01*
X221318738Y-128488038D01*
X221338342Y-128478050D01*
X221346442Y-128469949D01*
X221346451Y-128469944D01*
X221346450Y-128469943D01*
X221805483Y-128010909D01*
X221805482Y-128010908D01*
X221828050Y-127988342D01*
X221838035Y-127968743D01*
X221848366Y-127951884D01*
X221861296Y-127934090D01*
X221868095Y-127913160D01*
X221875661Y-127894900D01*
X221885645Y-127875306D01*
X221885645Y-127875305D01*
X221885646Y-127875304D01*
X221889087Y-127853570D01*
X221893700Y-127834354D01*
X221900499Y-127813433D01*
X221900499Y-127791949D01*
X221900500Y-127791943D01*
X221900500Y-127732259D01*
X221920502Y-127664138D01*
X221926538Y-127655555D01*
X221986170Y-127577841D01*
X222024536Y-127527841D01*
X222085044Y-127381762D01*
X222099100Y-127274999D01*
X222394318Y-127274999D01*
X222414955Y-127431761D01*
X222475464Y-127577842D01*
X222571717Y-127703282D01*
X222697157Y-127799535D01*
X222697158Y-127799535D01*
X222697159Y-127799536D01*
X222843238Y-127860044D01*
X223000000Y-127880682D01*
X223156762Y-127860044D01*
X223302841Y-127799536D01*
X223428282Y-127703282D01*
X223524536Y-127577841D01*
X223585044Y-127431762D01*
X223605682Y-127275000D01*
X223585044Y-127118238D01*
X223524536Y-126972159D01*
X223524535Y-126972158D01*
X223524535Y-126972157D01*
X223428282Y-126846717D01*
X223302842Y-126750464D01*
X223156761Y-126689955D01*
X223000000Y-126669318D01*
X222843238Y-126689955D01*
X222697157Y-126750464D01*
X222571717Y-126846717D01*
X222475464Y-126972157D01*
X222414955Y-127118238D01*
X222394318Y-127274999D01*
X222099100Y-127274999D01*
X222105682Y-127225000D01*
X222085044Y-127068238D01*
X222024536Y-126922159D01*
X222024535Y-126922158D01*
X222024535Y-126922157D01*
X221928282Y-126796717D01*
X221802842Y-126700464D01*
X221656761Y-126639955D01*
X221500000Y-126619318D01*
X221343238Y-126639955D01*
X221197157Y-126700464D01*
X221071717Y-126796717D01*
X220975464Y-126922157D01*
X220914955Y-127068238D01*
X220894318Y-127224999D01*
X220914955Y-127381761D01*
X220975464Y-127527841D01*
X220986480Y-127542198D01*
X221012079Y-127608419D01*
X220997813Y-127677967D01*
X220975621Y-127707986D01*
X220971019Y-127712587D01*
X220908714Y-127746618D01*
X220881917Y-127749500D01*
X219109954Y-127749500D01*
X219041833Y-127729498D01*
X218995340Y-127675842D01*
X218985236Y-127605568D01*
X219009992Y-127546795D01*
X219024536Y-127527841D01*
X219085044Y-127381762D01*
X219105682Y-127225000D01*
X219105681Y-127224998D01*
X219106056Y-127222157D01*
X219134778Y-127157230D01*
X219141871Y-127149520D01*
X224603987Y-121687405D01*
X224666300Y-121653379D01*
X224693083Y-121650500D01*
X225012611Y-121650500D01*
X225080732Y-121670502D01*
X225127225Y-121724158D01*
X225137329Y-121794432D01*
X225124178Y-121835055D01*
X225090211Y-121899772D01*
X225090210Y-121899774D01*
X225090210Y-121899775D01*
X225049500Y-122064944D01*
X225049500Y-122235056D01*
X225090210Y-122400225D01*
X225169266Y-122550852D01*
X225282071Y-122678183D01*
X225422070Y-122774818D01*
X225581128Y-122835140D01*
X225707628Y-122850500D01*
X244375025Y-122850500D01*
X244382632Y-122850729D01*
X244412089Y-122852511D01*
X244442605Y-122854358D01*
X244442605Y-122854357D01*
X244442606Y-122854358D01*
X244501729Y-122843522D01*
X244509247Y-122842379D01*
X244568872Y-122835140D01*
X244578174Y-122831611D01*
X244600132Y-122825490D01*
X244609932Y-122823695D01*
X244664756Y-122799020D01*
X244671738Y-122796128D01*
X244727930Y-122774818D01*
X244736116Y-122769166D01*
X244755987Y-122757960D01*
X244760161Y-122756081D01*
X244765057Y-122753878D01*
X244812360Y-122716817D01*
X244818462Y-122712326D01*
X244867929Y-122678183D01*
X244907784Y-122633194D01*
X244912969Y-122627686D01*
X256903251Y-110637405D01*
X256965564Y-110603379D01*
X256992347Y-110600500D01*
X258775025Y-110600500D01*
X258782632Y-110600729D01*
X258812089Y-110602511D01*
X258842605Y-110604358D01*
X258842605Y-110604357D01*
X258842606Y-110604358D01*
X258901729Y-110593522D01*
X258909247Y-110592379D01*
X258968872Y-110585140D01*
X258978174Y-110581611D01*
X259000132Y-110575490D01*
X259009932Y-110573695D01*
X259064756Y-110549020D01*
X259071738Y-110546128D01*
X259127930Y-110524818D01*
X259136116Y-110519166D01*
X259155987Y-110507960D01*
X259160161Y-110506081D01*
X259165057Y-110503878D01*
X259212360Y-110466817D01*
X259218462Y-110462326D01*
X259267929Y-110428183D01*
X259307784Y-110383194D01*
X259312969Y-110377686D01*
X260027686Y-109662969D01*
X260033194Y-109657784D01*
X260078183Y-109617929D01*
X260112326Y-109568462D01*
X260116817Y-109562360D01*
X260153878Y-109515057D01*
X260157964Y-109505977D01*
X260169161Y-109486125D01*
X260174818Y-109477930D01*
X260196128Y-109421736D01*
X260199037Y-109414715D01*
X260223694Y-109359932D01*
X260225487Y-109350144D01*
X260231611Y-109328175D01*
X260235140Y-109318872D01*
X260242387Y-109259184D01*
X260243521Y-109251733D01*
X260254357Y-109192606D01*
X260250730Y-109132643D01*
X260250500Y-109125035D01*
X260250500Y-105924963D01*
X260250730Y-105917355D01*
X260254357Y-105857394D01*
X260251191Y-105840117D01*
X260243523Y-105798275D01*
X260242381Y-105790767D01*
X260238110Y-105755594D01*
X260235140Y-105731128D01*
X260231610Y-105721822D01*
X260225486Y-105699850D01*
X260223694Y-105690068D01*
X260199026Y-105635259D01*
X260196131Y-105628269D01*
X260174818Y-105572070D01*
X260169165Y-105563880D01*
X260157963Y-105544018D01*
X260153879Y-105534944D01*
X260116827Y-105487651D01*
X260112317Y-105481521D01*
X260078185Y-105432073D01*
X260078183Y-105432071D01*
X260033196Y-105392216D01*
X260027671Y-105387014D01*
X259392493Y-104751836D01*
X259387275Y-104746294D01*
X259357037Y-104712162D01*
X259347429Y-104701317D01*
X259312100Y-104676931D01*
X259297980Y-104667184D01*
X259291861Y-104662682D01*
X259244557Y-104625622D01*
X259235479Y-104621536D01*
X259215618Y-104610334D01*
X259213982Y-104609205D01*
X259207430Y-104604682D01*
X259199322Y-104601607D01*
X259151262Y-104583379D01*
X259144235Y-104580468D01*
X259089431Y-104555804D01*
X259079631Y-104554008D01*
X259057675Y-104547887D01*
X259048374Y-104544360D01*
X258988736Y-104537118D01*
X258981215Y-104535973D01*
X258922106Y-104525141D01*
X258865442Y-104528569D01*
X258862132Y-104528770D01*
X258854525Y-104529000D01*
X258439467Y-104529000D01*
X258371346Y-104508998D01*
X258331013Y-104467139D01*
X258304703Y-104422651D01*
X258278081Y-104377635D01*
X258278079Y-104377633D01*
X258278078Y-104377631D01*
X258161866Y-104261419D01*
X258131421Y-104243414D01*
X258082969Y-104191521D01*
X258070264Y-104121670D01*
X258097340Y-104056040D01*
X258137224Y-104023279D01*
X258289899Y-103943528D01*
X258440901Y-103820401D01*
X258564029Y-103669397D01*
X258654237Y-103496705D01*
X258707837Y-103309379D01*
X258717753Y-103197852D01*
X258718000Y-103192285D01*
X258718000Y-102943500D01*
X257741116Y-102943500D01*
X257769493Y-102899344D01*
X257810000Y-102761389D01*
X257810000Y-102617611D01*
X257769493Y-102479656D01*
X257741116Y-102435500D01*
X258718000Y-102435500D01*
X258718000Y-102186714D01*
X258717753Y-102181147D01*
X258707837Y-102069620D01*
X258654237Y-101882294D01*
X258564029Y-101709602D01*
X258440901Y-101558598D01*
X258289897Y-101435470D01*
X258117205Y-101345262D01*
X257929879Y-101291662D01*
X257818352Y-101281746D01*
X257812785Y-101281500D01*
X257564000Y-101281500D01*
X257564000Y-102255825D01*
X257452315Y-102204820D01*
X257345763Y-102189500D01*
X257274237Y-102189500D01*
X257167685Y-102204820D01*
X257055999Y-102255825D01*
X257056000Y-101281500D01*
X256807215Y-101281500D01*
X256801647Y-101281746D01*
X256690120Y-101291662D01*
X256502794Y-101345262D01*
X256330102Y-101435470D01*
X256179098Y-101558598D01*
X256055970Y-101709602D01*
X255965762Y-101882294D01*
X255912162Y-102069620D01*
X255902246Y-102181147D01*
X255902000Y-102186714D01*
X255902000Y-102435500D01*
X256878884Y-102435500D01*
X256850507Y-102479656D01*
X256810000Y-102617611D01*
X256810000Y-102761389D01*
X256850507Y-102899344D01*
X256878884Y-102943500D01*
X255902000Y-102943500D01*
X255902000Y-103192285D01*
X255902246Y-103197852D01*
X255912162Y-103309379D01*
X255965762Y-103496705D01*
X256055970Y-103669397D01*
X256179098Y-103820401D01*
X256330103Y-103943531D01*
X256482775Y-104023280D01*
X256533894Y-104072548D01*
X256550261Y-104141632D01*
X256526680Y-104208599D01*
X256488579Y-104243414D01*
X256458132Y-104261420D01*
X256341921Y-104377631D01*
X256258256Y-104519102D01*
X256212402Y-104676930D01*
X256210410Y-104702246D01*
X256209500Y-104713806D01*
X256209500Y-105745194D01*
X256212402Y-105782069D01*
X256258256Y-105939898D01*
X256286610Y-105987842D01*
X256341921Y-106081368D01*
X256458131Y-106197578D01*
X256458133Y-106197579D01*
X256458135Y-106197581D01*
X256599602Y-106281244D01*
X256757431Y-106327098D01*
X256794306Y-106330000D01*
X256796777Y-106330000D01*
X257823223Y-106330000D01*
X257825694Y-106330000D01*
X257862569Y-106327098D01*
X258020398Y-106281244D01*
X258161865Y-106197581D01*
X258278081Y-106081365D01*
X258331013Y-105991860D01*
X258382906Y-105943408D01*
X258439467Y-105930000D01*
X258537153Y-105930000D01*
X258605274Y-105950002D01*
X258626248Y-105966905D01*
X258812594Y-106153251D01*
X258846620Y-106215563D01*
X258849499Y-106242346D01*
X258849499Y-108807653D01*
X258829497Y-108875774D01*
X258812595Y-108896747D01*
X258546746Y-109162596D01*
X258484436Y-109196620D01*
X258457653Y-109199500D01*
X256819612Y-109199500D01*
X256751491Y-109179498D01*
X256704998Y-109125842D01*
X256694894Y-109055568D01*
X256724388Y-108990988D01*
X256730517Y-108984405D01*
X256808017Y-108906905D01*
X256870329Y-108872879D01*
X256897112Y-108870000D01*
X257823223Y-108870000D01*
X257825694Y-108870000D01*
X257862569Y-108867098D01*
X258020398Y-108821244D01*
X258161865Y-108737581D01*
X258278081Y-108621365D01*
X258361744Y-108479898D01*
X258407598Y-108322069D01*
X258410500Y-108285194D01*
X258410500Y-107253806D01*
X258407598Y-107216931D01*
X258361744Y-107059102D01*
X258278081Y-106917635D01*
X258278079Y-106917633D01*
X258278078Y-106917631D01*
X258161868Y-106801421D01*
X258161865Y-106801419D01*
X258020398Y-106717756D01*
X257862569Y-106671902D01*
X257828150Y-106669193D01*
X257828142Y-106669192D01*
X257825694Y-106669000D01*
X256794306Y-106669000D01*
X256791858Y-106669192D01*
X256791849Y-106669193D01*
X256757430Y-106671902D01*
X256599602Y-106717756D01*
X256458131Y-106801421D01*
X256341921Y-106917631D01*
X256258256Y-107059102D01*
X256212402Y-107216930D01*
X256210516Y-107240901D01*
X256209500Y-107253806D01*
X256209500Y-108285194D01*
X256209692Y-108287638D01*
X256209693Y-108287654D01*
X256211322Y-108308349D01*
X256196725Y-108377828D01*
X256174805Y-108407328D01*
X256053886Y-108528247D01*
X255991574Y-108562273D01*
X255920759Y-108557208D01*
X255863923Y-108514661D01*
X255839112Y-108448141D01*
X255843795Y-108403997D01*
X255851006Y-108379179D01*
X255867598Y-108322069D01*
X255870500Y-108285194D01*
X255870500Y-107253806D01*
X255867598Y-107216931D01*
X255821744Y-107059102D01*
X255738081Y-106917635D01*
X255738079Y-106917633D01*
X255738078Y-106917631D01*
X255621868Y-106801421D01*
X255621865Y-106801419D01*
X255480398Y-106717756D01*
X255322569Y-106671902D01*
X255288150Y-106669193D01*
X255288142Y-106669192D01*
X255285694Y-106669000D01*
X254254306Y-106669000D01*
X254251858Y-106669192D01*
X254251849Y-106669193D01*
X254217430Y-106671902D01*
X254059602Y-106717756D01*
X253918131Y-106801421D01*
X253801921Y-106917631D01*
X253718256Y-107059102D01*
X253672402Y-107216930D01*
X253670516Y-107240901D01*
X253669500Y-107253806D01*
X253669500Y-108285194D01*
X253669692Y-108287642D01*
X253669693Y-108287650D01*
X253670133Y-108293238D01*
X253672402Y-108322069D01*
X253718256Y-108479898D01*
X253793283Y-108606762D01*
X253801921Y-108621368D01*
X253918131Y-108737578D01*
X253918133Y-108737579D01*
X253918135Y-108737581D01*
X254059602Y-108821244D01*
X254217431Y-108867098D01*
X254254306Y-108870000D01*
X254256777Y-108870000D01*
X255283223Y-108870000D01*
X255285694Y-108870000D01*
X255322569Y-108867098D01*
X255404498Y-108843295D01*
X255475494Y-108843496D01*
X255535111Y-108882049D01*
X255564420Y-108946714D01*
X255554116Y-109016959D01*
X255528747Y-109053386D01*
X252865595Y-111716539D01*
X252803283Y-111750565D01*
X252732468Y-111745500D01*
X252675632Y-111702953D01*
X252650821Y-111636433D01*
X252650500Y-111627444D01*
X252650500Y-108993965D01*
X252670502Y-108925844D01*
X252724158Y-108879351D01*
X252766614Y-108868353D01*
X252782569Y-108867098D01*
X252940398Y-108821244D01*
X253081865Y-108737581D01*
X253198081Y-108621365D01*
X253281744Y-108479898D01*
X253327598Y-108322069D01*
X253330500Y-108285194D01*
X253330500Y-107253806D01*
X253327598Y-107216931D01*
X253281744Y-107059102D01*
X253198081Y-106917635D01*
X253198079Y-106917633D01*
X253198078Y-106917631D01*
X253081868Y-106801421D01*
X253081865Y-106801419D01*
X252940398Y-106717756D01*
X252782569Y-106671902D01*
X252748150Y-106669193D01*
X252748142Y-106669192D01*
X252745694Y-106669000D01*
X251714306Y-106669000D01*
X251711858Y-106669192D01*
X251711849Y-106669193D01*
X251677430Y-106671902D01*
X251519602Y-106717756D01*
X251378131Y-106801421D01*
X251261921Y-106917631D01*
X251178256Y-107059102D01*
X251132402Y-107216930D01*
X251130516Y-107240901D01*
X251129500Y-107253806D01*
X251129500Y-108285194D01*
X251129692Y-108287642D01*
X251129693Y-108287650D01*
X251130133Y-108293238D01*
X251132402Y-108322069D01*
X251178256Y-108479898D01*
X251253283Y-108606762D01*
X251261921Y-108621368D01*
X251378131Y-108737578D01*
X251378133Y-108737579D01*
X251378135Y-108737581D01*
X251519602Y-108821244D01*
X251677431Y-108867098D01*
X251714306Y-108870000D01*
X251723500Y-108870000D01*
X251791621Y-108890002D01*
X251838114Y-108943658D01*
X251849500Y-108996000D01*
X251849500Y-111831916D01*
X251829498Y-111900037D01*
X251812595Y-111921011D01*
X243521012Y-120212595D01*
X243458700Y-120246621D01*
X243431917Y-120249500D01*
X224184531Y-120249500D01*
X224184519Y-120249501D01*
X224163037Y-120249501D01*
X224142119Y-120256297D01*
X224122899Y-120260911D01*
X224101168Y-120264353D01*
X224081562Y-120274342D01*
X224063306Y-120281904D01*
X224042383Y-120288703D01*
X224024585Y-120301634D01*
X224007732Y-120311961D01*
X223988131Y-120321948D01*
X223906048Y-120404028D01*
X223906031Y-120404048D01*
X218322484Y-125987595D01*
X218260172Y-126021621D01*
X218233389Y-126024500D01*
X216626688Y-126024500D01*
X216626676Y-126024501D01*
X216605194Y-126024501D01*
X216584276Y-126031297D01*
X216565056Y-126035911D01*
X216543325Y-126039353D01*
X216523719Y-126049342D01*
X216505463Y-126056904D01*
X216484540Y-126063703D01*
X216466744Y-126076633D01*
X216449888Y-126086962D01*
X216430287Y-126096949D01*
X216370818Y-126156413D01*
X216370815Y-126156420D01*
X215894521Y-126632714D01*
X215894517Y-126632718D01*
X215894516Y-126632720D01*
X215894513Y-126632723D01*
X215883231Y-126644005D01*
X215871948Y-126655288D01*
X215861963Y-126674885D01*
X215851639Y-126691733D01*
X215838702Y-126709540D01*
X215831904Y-126730463D01*
X215824340Y-126748725D01*
X215814354Y-126768324D01*
X215810912Y-126790053D01*
X215806298Y-126809271D01*
X215799500Y-126830195D01*
X215799500Y-127763433D01*
X170100500Y-127763433D01*
X170100500Y-127149999D01*
X213394318Y-127149999D01*
X213414955Y-127306761D01*
X213475464Y-127452842D01*
X213571717Y-127578282D01*
X213697157Y-127674535D01*
X213697158Y-127674535D01*
X213697159Y-127674536D01*
X213843238Y-127735044D01*
X214000000Y-127755682D01*
X214156762Y-127735044D01*
X214302841Y-127674536D01*
X214428282Y-127578282D01*
X214524536Y-127452841D01*
X214585044Y-127306762D01*
X214605682Y-127150000D01*
X214585044Y-126993238D01*
X214524536Y-126847159D01*
X214524535Y-126847158D01*
X214524535Y-126847157D01*
X214428282Y-126721717D01*
X214302842Y-126625464D01*
X214156761Y-126564955D01*
X214020636Y-126547034D01*
X214000000Y-126544318D01*
X213999999Y-126544318D01*
X213843238Y-126564955D01*
X213697157Y-126625464D01*
X213571717Y-126721717D01*
X213475464Y-126847157D01*
X213414955Y-126993238D01*
X213394318Y-127149999D01*
X170100500Y-127149999D01*
X170100500Y-124405694D01*
X182859500Y-124405694D01*
X182862402Y-124442569D01*
X182908256Y-124600398D01*
X182973916Y-124711423D01*
X182991921Y-124741868D01*
X183108131Y-124858078D01*
X183108133Y-124858079D01*
X183108135Y-124858081D01*
X183249602Y-124941744D01*
X183407431Y-124987598D01*
X183444306Y-124990500D01*
X183446777Y-124990500D01*
X184473223Y-124990500D01*
X184475694Y-124990500D01*
X184512569Y-124987598D01*
X184670398Y-124941744D01*
X184811865Y-124858081D01*
X184928081Y-124741865D01*
X185011744Y-124600398D01*
X185057598Y-124442569D01*
X185060500Y-124405694D01*
X185399500Y-124405694D01*
X185402402Y-124442569D01*
X185448256Y-124600398D01*
X185513916Y-124711423D01*
X185531921Y-124741868D01*
X185648131Y-124858078D01*
X185648133Y-124858079D01*
X185648135Y-124858081D01*
X185789602Y-124941744D01*
X185947431Y-124987598D01*
X185984306Y-124990500D01*
X185986777Y-124990500D01*
X187013223Y-124990500D01*
X187015694Y-124990500D01*
X187052569Y-124987598D01*
X187210398Y-124941744D01*
X187351865Y-124858081D01*
X187468081Y-124741865D01*
X187486084Y-124711422D01*
X187537976Y-124662970D01*
X187607826Y-124650264D01*
X187673458Y-124677338D01*
X187706219Y-124717223D01*
X187785970Y-124869897D01*
X187909098Y-125020901D01*
X188060102Y-125144029D01*
X188232794Y-125234237D01*
X188420120Y-125287837D01*
X188531647Y-125297753D01*
X188537215Y-125298000D01*
X188786000Y-125298000D01*
X188786000Y-124323674D01*
X188897685Y-124374680D01*
X189004237Y-124390000D01*
X189075763Y-124390000D01*
X189182315Y-124374680D01*
X189294000Y-124323674D01*
X189294000Y-125298000D01*
X189542785Y-125298000D01*
X189548352Y-125297753D01*
X189659879Y-125287837D01*
X189847205Y-125234237D01*
X190019897Y-125144029D01*
X190170901Y-125020901D01*
X190294029Y-124869897D01*
X190384237Y-124697205D01*
X190437837Y-124509879D01*
X190447753Y-124398352D01*
X190448000Y-124392785D01*
X190448000Y-124144000D01*
X189471116Y-124144000D01*
X189499493Y-124099844D01*
X189540000Y-123961889D01*
X189540000Y-123818111D01*
X189499493Y-123680156D01*
X189471116Y-123636000D01*
X190448000Y-123636000D01*
X190448000Y-123387214D01*
X190447753Y-123381647D01*
X190437837Y-123270120D01*
X190384237Y-123082794D01*
X190294029Y-122910102D01*
X190170901Y-122759098D01*
X190019897Y-122635970D01*
X189847205Y-122545762D01*
X189659879Y-122492162D01*
X189548352Y-122482246D01*
X189542785Y-122482000D01*
X189294000Y-122482000D01*
X189294000Y-123456325D01*
X189182315Y-123405320D01*
X189075763Y-123390000D01*
X189004237Y-123390000D01*
X188897685Y-123405320D01*
X188786000Y-123456325D01*
X188786000Y-122482000D01*
X188537215Y-122482000D01*
X188531647Y-122482246D01*
X188420120Y-122492162D01*
X188232794Y-122545762D01*
X188060102Y-122635970D01*
X187909098Y-122759098D01*
X187785969Y-122910102D01*
X187706219Y-123062776D01*
X187656950Y-123113894D01*
X187587866Y-123130261D01*
X187520900Y-123106680D01*
X187486084Y-123068577D01*
X187468081Y-123038135D01*
X187468079Y-123038133D01*
X187468078Y-123038131D01*
X187351868Y-122921921D01*
X187331883Y-122910102D01*
X187210398Y-122838256D01*
X187052569Y-122792402D01*
X187018150Y-122789693D01*
X187018142Y-122789692D01*
X187015694Y-122789500D01*
X185984306Y-122789500D01*
X185981858Y-122789692D01*
X185981849Y-122789693D01*
X185947430Y-122792402D01*
X185789602Y-122838256D01*
X185648131Y-122921921D01*
X185531921Y-123038131D01*
X185505508Y-123082794D01*
X185448256Y-123179602D01*
X185402402Y-123337431D01*
X185399500Y-123374306D01*
X185399500Y-124405694D01*
X185060500Y-124405694D01*
X185060500Y-123374306D01*
X185057598Y-123337431D01*
X185011744Y-123179602D01*
X184928081Y-123038135D01*
X184928079Y-123038133D01*
X184928078Y-123038131D01*
X184811868Y-122921921D01*
X184791883Y-122910102D01*
X184670398Y-122838256D01*
X184512569Y-122792402D01*
X184478150Y-122789693D01*
X184478142Y-122789692D01*
X184475694Y-122789500D01*
X183444306Y-122789500D01*
X183441858Y-122789692D01*
X183441849Y-122789693D01*
X183407430Y-122792402D01*
X183249602Y-122838256D01*
X183108131Y-122921921D01*
X182991921Y-123038131D01*
X182965508Y-123082794D01*
X182908256Y-123179602D01*
X182862402Y-123337431D01*
X182859500Y-123374306D01*
X182859500Y-124405694D01*
X170100500Y-124405694D01*
X170100500Y-106625694D01*
X181589500Y-106625694D01*
X181592402Y-106662569D01*
X181638256Y-106820398D01*
X181721919Y-106961865D01*
X181721921Y-106961868D01*
X181838131Y-107078078D01*
X181838133Y-107078079D01*
X181838135Y-107078081D01*
X181979602Y-107161744D01*
X182137431Y-107207598D01*
X182174306Y-107210500D01*
X182176777Y-107210500D01*
X183203223Y-107210500D01*
X183205694Y-107210500D01*
X183242569Y-107207598D01*
X183400398Y-107161744D01*
X183541865Y-107078081D01*
X183658081Y-106961865D01*
X183676084Y-106931422D01*
X183727976Y-106882970D01*
X183797826Y-106870264D01*
X183863458Y-106897338D01*
X183896219Y-106937223D01*
X183975970Y-107089897D01*
X184099098Y-107240901D01*
X184250102Y-107364029D01*
X184422794Y-107454237D01*
X184610120Y-107507837D01*
X184721647Y-107517753D01*
X184727215Y-107518000D01*
X184976000Y-107518000D01*
X184976000Y-106543674D01*
X185087685Y-106594680D01*
X185194237Y-106610000D01*
X185265763Y-106610000D01*
X185372315Y-106594680D01*
X185484000Y-106543674D01*
X185484000Y-107518000D01*
X185732785Y-107518000D01*
X185738352Y-107517753D01*
X185849879Y-107507837D01*
X186037205Y-107454237D01*
X186209897Y-107364029D01*
X186360904Y-107240900D01*
X186402348Y-107190073D01*
X186460898Y-107149918D01*
X186531863Y-107147792D01*
X186592711Y-107184371D01*
X186597652Y-107190073D01*
X186639095Y-107240900D01*
X186790102Y-107364029D01*
X186962794Y-107454237D01*
X187150120Y-107507837D01*
X187261647Y-107517753D01*
X187267215Y-107518000D01*
X187516000Y-107518000D01*
X187516000Y-106543674D01*
X187627685Y-106594680D01*
X187734237Y-106610000D01*
X187805763Y-106610000D01*
X187912315Y-106594680D01*
X188024000Y-106543674D01*
X188024000Y-107518000D01*
X188272785Y-107518000D01*
X188278352Y-107517753D01*
X188389879Y-107507837D01*
X188577205Y-107454237D01*
X188749897Y-107364029D01*
X188900901Y-107240901D01*
X189024028Y-107089899D01*
X189103779Y-106937224D01*
X189153048Y-106886105D01*
X189222132Y-106869738D01*
X189289098Y-106893318D01*
X189323914Y-106931421D01*
X189341919Y-106961866D01*
X189458131Y-107078078D01*
X189458133Y-107078079D01*
X189458135Y-107078081D01*
X189599602Y-107161744D01*
X189757431Y-107207598D01*
X189794306Y-107210500D01*
X189796777Y-107210500D01*
X190823223Y-107210500D01*
X190825694Y-107210500D01*
X190862569Y-107207598D01*
X191020398Y-107161744D01*
X191161865Y-107078081D01*
X191278081Y-106961865D01*
X191361744Y-106820398D01*
X191407598Y-106662569D01*
X191410500Y-106625694D01*
X191410500Y-105594306D01*
X191407598Y-105557431D01*
X191361744Y-105399602D01*
X191278081Y-105258135D01*
X191278079Y-105258133D01*
X191278078Y-105258131D01*
X191161868Y-105141921D01*
X191141883Y-105130102D01*
X191020398Y-105058256D01*
X190862569Y-105012402D01*
X190828150Y-105009693D01*
X190828142Y-105009692D01*
X190825694Y-105009500D01*
X189794306Y-105009500D01*
X189791858Y-105009692D01*
X189791849Y-105009693D01*
X189757430Y-105012402D01*
X189599602Y-105058256D01*
X189458131Y-105141921D01*
X189341920Y-105258132D01*
X189323914Y-105288579D01*
X189272020Y-105337031D01*
X189202169Y-105349735D01*
X189136539Y-105322658D01*
X189103780Y-105282775D01*
X189024031Y-105130103D01*
X188900901Y-104979098D01*
X188749897Y-104855970D01*
X188577205Y-104765762D01*
X188389879Y-104712162D01*
X188358477Y-104709370D01*
X223099500Y-104709370D01*
X223099868Y-104712757D01*
X223099869Y-104712768D01*
X223128835Y-104979098D01*
X223139368Y-105075948D01*
X223140100Y-105079275D01*
X223140101Y-105079279D01*
X223217901Y-105432730D01*
X223217904Y-105432741D01*
X223218636Y-105436066D01*
X223219724Y-105439296D01*
X223219726Y-105439302D01*
X223328136Y-105761053D01*
X223336375Y-105785503D01*
X223337806Y-105788596D01*
X223337808Y-105788601D01*
X223488021Y-106113282D01*
X223491205Y-106120162D01*
X223607963Y-106314216D01*
X223677925Y-106430494D01*
X223681310Y-106436119D01*
X223904462Y-106729670D01*
X223906813Y-106732152D01*
X223906814Y-106732153D01*
X224155698Y-106994897D01*
X224155703Y-106994902D01*
X224158044Y-106997373D01*
X224439083Y-107236090D01*
X224744284Y-107443022D01*
X225070070Y-107615743D01*
X225412621Y-107752227D01*
X225767919Y-107850875D01*
X226131801Y-107910531D01*
X226407890Y-107925500D01*
X226409610Y-107925500D01*
X226590390Y-107925500D01*
X226592110Y-107925500D01*
X226628522Y-107923525D01*
X226697623Y-107939808D01*
X226746954Y-107990867D01*
X226760849Y-108060491D01*
X226734897Y-108126574D01*
X226706324Y-108153444D01*
X226686787Y-108166764D01*
X226686781Y-108166768D01*
X226686783Y-108166768D01*
X226499950Y-108340123D01*
X226349926Y-108528247D01*
X226341039Y-108539391D01*
X226213607Y-108760111D01*
X226120492Y-108997362D01*
X226063778Y-109245841D01*
X226055228Y-109359932D01*
X226044732Y-109500000D01*
X226063778Y-109754157D01*
X226120492Y-110002637D01*
X226213607Y-110239888D01*
X226341041Y-110460612D01*
X226499950Y-110659877D01*
X226686783Y-110833232D01*
X226897366Y-110976805D01*
X227016410Y-111034134D01*
X227126995Y-111087389D01*
X227196901Y-111108951D01*
X227370542Y-111162513D01*
X227622565Y-111200500D01*
X227622567Y-111200500D01*
X227877433Y-111200500D01*
X227877435Y-111200500D01*
X228129458Y-111162513D01*
X228373004Y-111087389D01*
X228602634Y-110976805D01*
X228813217Y-110833232D01*
X229000050Y-110659877D01*
X229158959Y-110460612D01*
X229216326Y-110361247D01*
X229267706Y-110312256D01*
X229337420Y-110298819D01*
X229403331Y-110325206D01*
X229437317Y-110366281D01*
X229528333Y-110541934D01*
X229532804Y-110549287D01*
X229660540Y-110730248D01*
X229660541Y-110730248D01*
X230571099Y-109819690D01*
X230596059Y-109877553D01*
X230700756Y-110018185D01*
X230835062Y-110130882D01*
X230930430Y-110178777D01*
X230020715Y-111088492D01*
X230020715Y-111088494D01*
X230085984Y-111141595D01*
X230092995Y-111146543D01*
X230320352Y-111284802D01*
X230327981Y-111288754D01*
X230572039Y-111394764D01*
X230580132Y-111397641D01*
X230836359Y-111469433D01*
X230844777Y-111471182D01*
X231108380Y-111507413D01*
X231116954Y-111508000D01*
X231383046Y-111508000D01*
X231391619Y-111507413D01*
X231655222Y-111471182D01*
X231663640Y-111469433D01*
X231919867Y-111397641D01*
X231927960Y-111394764D01*
X232172018Y-111288754D01*
X232179647Y-111284802D01*
X232407004Y-111146543D01*
X232414016Y-111141594D01*
X232479283Y-111088494D01*
X232479283Y-111088492D01*
X231571798Y-110181007D01*
X231588891Y-110174787D01*
X231735373Y-110078445D01*
X231855688Y-109950918D01*
X231930517Y-109821307D01*
X232839457Y-110730247D01*
X232967199Y-110549280D01*
X232971666Y-110541934D01*
X233080641Y-110331622D01*
X239794318Y-110331622D01*
X239814955Y-110488383D01*
X239875464Y-110634464D01*
X239971717Y-110759904D01*
X240097157Y-110856157D01*
X240097158Y-110856157D01*
X240097159Y-110856158D01*
X240243238Y-110916666D01*
X240400000Y-110937304D01*
X240556762Y-110916666D01*
X240702841Y-110856158D01*
X240828282Y-110759904D01*
X240924536Y-110634463D01*
X240985044Y-110488384D01*
X241005682Y-110331622D01*
X240986181Y-110183500D01*
X240997120Y-110113355D01*
X241022005Y-110077964D01*
X241612566Y-109487404D01*
X241674879Y-109453379D01*
X241701662Y-109450500D01*
X242005430Y-109450500D01*
X242022321Y-109453255D01*
X242032763Y-109452772D01*
X242032765Y-109452773D01*
X242076782Y-109450738D01*
X242079037Y-109450634D01*
X242084854Y-109450500D01*
X242103904Y-109450500D01*
X242118442Y-109448811D01*
X242144992Y-109447585D01*
X242151118Y-109444879D01*
X242178857Y-109436290D01*
X242185433Y-109435061D01*
X242208026Y-109421071D01*
X242223454Y-109412940D01*
X242247765Y-109402206D01*
X242252495Y-109397475D01*
X242275263Y-109379441D01*
X242280952Y-109375919D01*
X242296973Y-109354702D01*
X242308415Y-109341554D01*
X242571376Y-109078593D01*
X242633686Y-109044569D01*
X242676909Y-109042768D01*
X242775000Y-109055682D01*
X242931762Y-109035044D01*
X243077841Y-108974536D01*
X243203282Y-108878282D01*
X243299536Y-108752841D01*
X243360044Y-108606762D01*
X243380682Y-108450000D01*
X243360044Y-108293238D01*
X243299536Y-108147159D01*
X243299535Y-108147158D01*
X243299535Y-108147157D01*
X243203282Y-108021717D01*
X243077842Y-107925464D01*
X242931761Y-107864955D01*
X242775000Y-107844318D01*
X242618238Y-107864955D01*
X242472157Y-107925464D01*
X242346717Y-108021717D01*
X242250464Y-108147157D01*
X242189955Y-108293238D01*
X242169318Y-108450000D01*
X242182230Y-108548082D01*
X242171290Y-108618230D01*
X242146404Y-108653622D01*
X241987434Y-108812595D01*
X241925122Y-108846620D01*
X241898338Y-108849500D01*
X241594570Y-108849500D01*
X241577678Y-108846744D01*
X241520963Y-108849366D01*
X241515146Y-108849500D01*
X241496098Y-108849500D01*
X241481557Y-108851186D01*
X241455009Y-108852413D01*
X241448878Y-108855121D01*
X241421150Y-108863707D01*
X241414566Y-108864938D01*
X241391969Y-108878928D01*
X241376544Y-108887059D01*
X241352234Y-108897793D01*
X241347499Y-108902529D01*
X241324745Y-108920552D01*
X241319048Y-108924079D01*
X241303030Y-108945290D01*
X241291578Y-108958449D01*
X240553589Y-109696438D01*
X240491277Y-109730464D01*
X240448049Y-109732265D01*
X240400001Y-109725939D01*
X240243238Y-109746577D01*
X240097157Y-109807086D01*
X239971717Y-109903339D01*
X239875464Y-110028779D01*
X239814955Y-110174860D01*
X239794318Y-110331622D01*
X233080641Y-110331622D01*
X233094082Y-110305682D01*
X233097504Y-110297806D01*
X233186615Y-110047072D01*
X233188930Y-110038807D01*
X233243071Y-109778268D01*
X233244239Y-109769769D01*
X233262398Y-109504298D01*
X233262398Y-109495701D01*
X233244239Y-109230230D01*
X233243071Y-109221731D01*
X233188930Y-108961192D01*
X233186615Y-108952927D01*
X233097504Y-108702193D01*
X233094082Y-108694317D01*
X232971666Y-108458065D01*
X232967199Y-108450719D01*
X232839457Y-108269750D01*
X231928899Y-109180307D01*
X231903941Y-109122447D01*
X231799244Y-108981815D01*
X231664938Y-108869118D01*
X231569568Y-108821221D01*
X232428385Y-107962405D01*
X232490697Y-107928380D01*
X232517480Y-107925500D01*
X232590390Y-107925500D01*
X232592110Y-107925500D01*
X232868199Y-107910531D01*
X233232081Y-107850875D01*
X233587379Y-107752227D01*
X233929930Y-107615743D01*
X234255716Y-107443022D01*
X234560917Y-107236090D01*
X234841956Y-106997373D01*
X235095538Y-106729670D01*
X235318690Y-106436119D01*
X235508795Y-106120162D01*
X235513654Y-106109660D01*
X237490393Y-106109660D01*
X237498464Y-106155431D01*
X237520668Y-106281355D01*
X237589721Y-106441439D01*
X237693830Y-106581281D01*
X237827385Y-106693349D01*
X237875984Y-106717756D01*
X237983185Y-106771594D01*
X238152829Y-106811800D01*
X238152831Y-106811800D01*
X238279767Y-106811800D01*
X238283436Y-106811800D01*
X238413164Y-106796637D01*
X238576993Y-106737008D01*
X238722654Y-106641205D01*
X238837122Y-106519876D01*
X238840713Y-106517777D01*
X238842610Y-106513847D01*
X238929467Y-106363407D01*
X238968320Y-106233627D01*
X239007017Y-106174108D01*
X239071752Y-106144957D01*
X239141972Y-106155431D01*
X239165729Y-106169804D01*
X239210336Y-106204032D01*
X239251140Y-106220934D01*
X239306421Y-106265483D01*
X239328842Y-106332846D01*
X239311284Y-106401637D01*
X239271839Y-106442825D01*
X239258764Y-106451367D01*
X239083440Y-106612763D01*
X239051165Y-106654230D01*
X239041496Y-106661187D01*
X239041066Y-106663489D01*
X239028201Y-106683735D01*
X238937071Y-106800819D01*
X238823650Y-107010403D01*
X238746273Y-107235797D01*
X238707050Y-107470844D01*
X238707050Y-107709155D01*
X238746273Y-107944202D01*
X238823650Y-108169596D01*
X238937069Y-108379177D01*
X238958980Y-108407328D01*
X239083440Y-108567235D01*
X239083442Y-108567237D01*
X239083443Y-108567238D01*
X239258764Y-108728632D01*
X239306948Y-108760112D01*
X239458266Y-108858973D01*
X239676498Y-108954699D01*
X239907510Y-109013199D01*
X240085528Y-109027950D01*
X240088142Y-109027950D01*
X240201858Y-109027950D01*
X240204472Y-109027950D01*
X240382490Y-109013199D01*
X240613502Y-108954699D01*
X240831734Y-108858973D01*
X241031234Y-108728633D01*
X241206560Y-108567235D01*
X241352929Y-108379179D01*
X241466349Y-108169597D01*
X241543726Y-107944206D01*
X241575973Y-107750964D01*
X241582950Y-107709155D01*
X244422050Y-107709155D01*
X244461273Y-107944202D01*
X244538650Y-108169596D01*
X244652069Y-108379177D01*
X244673980Y-108407328D01*
X244798440Y-108567235D01*
X244798442Y-108567237D01*
X244798443Y-108567238D01*
X244973764Y-108728632D01*
X245021948Y-108760112D01*
X245173266Y-108858973D01*
X245391498Y-108954699D01*
X245622510Y-109013199D01*
X245800528Y-109027950D01*
X245803142Y-109027950D01*
X245916858Y-109027950D01*
X245919472Y-109027950D01*
X246097490Y-109013199D01*
X246328502Y-108954699D01*
X246546734Y-108858973D01*
X246746234Y-108728633D01*
X246921560Y-108567235D01*
X247067929Y-108379179D01*
X247118791Y-108285194D01*
X248589500Y-108285194D01*
X248589692Y-108287642D01*
X248589693Y-108287650D01*
X248590133Y-108293238D01*
X248592402Y-108322069D01*
X248638256Y-108479898D01*
X248713283Y-108606762D01*
X248721921Y-108621368D01*
X248838131Y-108737578D01*
X248838133Y-108737579D01*
X248838135Y-108737581D01*
X248979602Y-108821244D01*
X249137431Y-108867098D01*
X249174306Y-108870000D01*
X249176777Y-108870000D01*
X250203223Y-108870000D01*
X250205694Y-108870000D01*
X250242569Y-108867098D01*
X250400398Y-108821244D01*
X250541865Y-108737581D01*
X250658081Y-108621365D01*
X250741744Y-108479898D01*
X250787598Y-108322069D01*
X250790500Y-108285194D01*
X250790500Y-107253806D01*
X250787598Y-107216931D01*
X250741744Y-107059102D01*
X250658081Y-106917635D01*
X250658079Y-106917633D01*
X250658078Y-106917631D01*
X250541868Y-106801421D01*
X250541865Y-106801419D01*
X250400398Y-106717756D01*
X250242569Y-106671902D01*
X250208150Y-106669193D01*
X250208142Y-106669192D01*
X250205694Y-106669000D01*
X249174306Y-106669000D01*
X249171858Y-106669192D01*
X249171849Y-106669193D01*
X249137430Y-106671902D01*
X248979602Y-106717756D01*
X248838131Y-106801421D01*
X248721921Y-106917631D01*
X248638256Y-107059102D01*
X248592402Y-107216930D01*
X248590516Y-107240901D01*
X248589500Y-107253806D01*
X248589500Y-108285194D01*
X247118791Y-108285194D01*
X247181349Y-108169597D01*
X247258726Y-107944206D01*
X247290973Y-107750964D01*
X247297950Y-107709155D01*
X247297950Y-107470844D01*
X247275536Y-107336531D01*
X247258726Y-107235794D01*
X247181349Y-107010403D01*
X247131146Y-106917635D01*
X247067930Y-106800822D01*
X247038655Y-106763209D01*
X246921560Y-106612765D01*
X246921556Y-106612761D01*
X246746235Y-106451367D01*
X246546734Y-106321027D01*
X246328500Y-106225300D01*
X246097495Y-106166802D01*
X246097493Y-106166801D01*
X246097490Y-106166801D01*
X245978332Y-106156927D01*
X245922070Y-106152265D01*
X245922063Y-106152264D01*
X245919472Y-106152050D01*
X245800528Y-106152050D01*
X245797937Y-106152264D01*
X245797929Y-106152265D01*
X245724807Y-106158324D01*
X245622510Y-106166801D01*
X245622507Y-106166801D01*
X245622504Y-106166802D01*
X245391499Y-106225300D01*
X245173265Y-106321027D01*
X245090056Y-106375390D01*
X245030312Y-106393420D01*
X245004572Y-106430494D01*
X244994427Y-106437867D01*
X244973766Y-106451365D01*
X244798443Y-106612761D01*
X244652069Y-106800822D01*
X244538650Y-107010403D01*
X244461273Y-107235797D01*
X244422050Y-107470844D01*
X244422050Y-107709155D01*
X241582950Y-107709155D01*
X241582950Y-107470844D01*
X241560536Y-107336531D01*
X241543726Y-107235794D01*
X241466349Y-107010403D01*
X241416146Y-106917635D01*
X241352930Y-106800822D01*
X241323655Y-106763209D01*
X241206560Y-106612765D01*
X241206556Y-106612761D01*
X241031235Y-106451367D01*
X241018162Y-106442826D01*
X240972073Y-106388823D01*
X240962498Y-106318475D01*
X240992475Y-106254118D01*
X241038859Y-106220934D01*
X241050828Y-106215976D01*
X241079664Y-106204032D01*
X241203788Y-106108788D01*
X241224828Y-106081368D01*
X241309131Y-105971504D01*
X241309701Y-105971942D01*
X241343139Y-105930448D01*
X241410502Y-105908027D01*
X241479293Y-105925585D01*
X241527672Y-105977547D01*
X241530856Y-105984519D01*
X241626211Y-106108788D01*
X241750334Y-106204031D01*
X241750335Y-106204031D01*
X241750336Y-106204032D01*
X241894883Y-106263905D01*
X242050000Y-106284327D01*
X242205117Y-106263905D01*
X242349664Y-106204032D01*
X242473788Y-106108788D01*
X242494828Y-106081368D01*
X242579131Y-105971504D01*
X242579701Y-105971942D01*
X242613139Y-105930448D01*
X242680502Y-105908027D01*
X242749293Y-105925585D01*
X242797672Y-105977547D01*
X242800856Y-105984519D01*
X242896211Y-106108788D01*
X243020334Y-106204031D01*
X243020335Y-106204031D01*
X243020336Y-106204032D01*
X243164883Y-106263905D01*
X243320000Y-106284327D01*
X243475117Y-106263905D01*
X243619664Y-106204032D01*
X243743788Y-106108788D01*
X243764828Y-106081368D01*
X243849131Y-105971504D01*
X243851693Y-105973470D01*
X243879725Y-105938683D01*
X243947088Y-105916259D01*
X244015880Y-105933815D01*
X244054528Y-105975323D01*
X244055365Y-105974681D01*
X244062086Y-105983441D01*
X244064260Y-105985775D01*
X244064821Y-105987005D01*
X244161717Y-106113282D01*
X244287157Y-106209535D01*
X244287158Y-106209535D01*
X244287159Y-106209536D01*
X244433238Y-106270044D01*
X244590000Y-106290682D01*
X244746762Y-106270044D01*
X244877293Y-106215975D01*
X244914623Y-106211962D01*
X244925300Y-106188112D01*
X244944430Y-106169949D01*
X245018282Y-106113282D01*
X245114536Y-105987841D01*
X245175044Y-105841762D01*
X245191651Y-105715615D01*
X245220372Y-105650692D01*
X245279636Y-105611599D01*
X245350628Y-105610754D01*
X245397563Y-105635542D01*
X245447386Y-105677349D01*
X245603185Y-105755594D01*
X245772829Y-105795800D01*
X245772831Y-105795800D01*
X245899767Y-105795800D01*
X245903436Y-105795800D01*
X246033164Y-105780637D01*
X246196993Y-105721008D01*
X246342654Y-105625205D01*
X246462296Y-105498393D01*
X246549467Y-105347407D01*
X246599469Y-105180388D01*
X246609607Y-105006340D01*
X246579332Y-104834646D01*
X246510279Y-104674562D01*
X246504786Y-104667184D01*
X246406169Y-104534718D01*
X246272614Y-104422650D01*
X246116817Y-104344407D01*
X246116816Y-104344406D01*
X246116815Y-104344406D01*
X245947171Y-104304200D01*
X245816564Y-104304200D01*
X245812936Y-104304623D01*
X245812919Y-104304625D01*
X245686834Y-104319363D01*
X245523009Y-104378990D01*
X245385328Y-104469545D01*
X245317423Y-104490266D01*
X245249094Y-104470985D01*
X245202036Y-104417824D01*
X245191169Y-104380722D01*
X245175044Y-104258238D01*
X245114536Y-104112159D01*
X245114535Y-104112158D01*
X245114535Y-104112157D01*
X245018281Y-103986717D01*
X244944437Y-103930054D01*
X244914041Y-103888427D01*
X244889107Y-103888240D01*
X244877293Y-103884023D01*
X244746761Y-103829955D01*
X244590000Y-103809318D01*
X244519147Y-103818646D01*
X244491916Y-103822231D01*
X244421767Y-103811292D01*
X244386375Y-103786404D01*
X243372264Y-102772293D01*
X243338238Y-102709981D01*
X243343303Y-102639166D01*
X243344951Y-102634979D01*
X243347363Y-102629155D01*
X244422050Y-102629155D01*
X244461273Y-102864202D01*
X244538650Y-103089596D01*
X244652069Y-103299177D01*
X244660010Y-103309379D01*
X244798440Y-103487235D01*
X244798442Y-103487237D01*
X244798443Y-103487238D01*
X244973762Y-103648630D01*
X244973764Y-103648631D01*
X244973766Y-103648633D01*
X244994425Y-103662130D01*
X245035239Y-103709952D01*
X245066576Y-103712569D01*
X245090051Y-103724606D01*
X245173266Y-103778973D01*
X245391498Y-103874699D01*
X245622510Y-103933199D01*
X245800528Y-103947950D01*
X245803142Y-103947950D01*
X245916858Y-103947950D01*
X245919472Y-103947950D01*
X246097490Y-103933199D01*
X246328502Y-103874699D01*
X246546734Y-103778973D01*
X246746234Y-103648633D01*
X246921560Y-103487235D01*
X247067929Y-103299179D01*
X247181349Y-103089597D01*
X247258726Y-102864206D01*
X247296978Y-102634979D01*
X247297950Y-102629155D01*
X247297950Y-102390844D01*
X247266907Y-102204820D01*
X247258726Y-102155794D01*
X247181349Y-101930403D01*
X247118306Y-101813910D01*
X247067930Y-101720822D01*
X247038655Y-101683209D01*
X246921560Y-101532765D01*
X246921556Y-101532761D01*
X246746235Y-101371367D01*
X246546734Y-101241027D01*
X246328500Y-101145300D01*
X246097495Y-101086802D01*
X246097493Y-101086801D01*
X246097490Y-101086801D01*
X245978332Y-101076927D01*
X245922070Y-101072265D01*
X245922063Y-101072264D01*
X245919472Y-101072050D01*
X245800528Y-101072050D01*
X245797937Y-101072264D01*
X245797929Y-101072265D01*
X245724807Y-101078324D01*
X245622510Y-101086801D01*
X245622507Y-101086801D01*
X245622504Y-101086802D01*
X245391499Y-101145300D01*
X245173265Y-101241027D01*
X244973764Y-101371367D01*
X244798443Y-101532761D01*
X244652069Y-101720822D01*
X244538650Y-101930403D01*
X244461273Y-102155797D01*
X244422050Y-102390844D01*
X244422050Y-102629155D01*
X243347363Y-102629155D01*
X243366994Y-102581763D01*
X243380436Y-102479656D01*
X243387632Y-102425000D01*
X243366994Y-102268238D01*
X243306486Y-102122159D01*
X243306485Y-102122158D01*
X243306485Y-102122157D01*
X243210232Y-101996717D01*
X243084792Y-101900464D01*
X242938711Y-101839955D01*
X242802586Y-101822034D01*
X242781950Y-101819318D01*
X242781949Y-101819318D01*
X242625188Y-101839955D01*
X242479107Y-101900464D01*
X242353667Y-101996717D01*
X242257414Y-102122157D01*
X242196905Y-102268238D01*
X242176268Y-102424999D01*
X242196905Y-102581761D01*
X242257414Y-102727842D01*
X242353667Y-102853282D01*
X242479107Y-102949535D01*
X242479108Y-102949535D01*
X242479109Y-102949536D01*
X242625188Y-103010044D01*
X242738119Y-103024911D01*
X242803045Y-103053633D01*
X242810767Y-103060738D01*
X243356450Y-103606421D01*
X243390476Y-103668733D01*
X243385411Y-103739548D01*
X243342864Y-103796384D01*
X243283802Y-103820438D01*
X243152303Y-103837750D01*
X243144874Y-103839740D01*
X243143239Y-103839955D01*
X242997156Y-103900464D01*
X242924369Y-103956317D01*
X242858149Y-103981918D01*
X242842660Y-103981549D01*
X242446116Y-104378095D01*
X242383803Y-104412120D01*
X242357020Y-104415000D01*
X241742981Y-104415000D01*
X241674860Y-104394998D01*
X241653886Y-104378096D01*
X241258428Y-103982639D01*
X241253998Y-103983223D01*
X241183849Y-103972283D01*
X241160849Y-103958263D01*
X241079663Y-103895966D01*
X241038858Y-103879064D01*
X240983577Y-103834515D01*
X240961157Y-103767152D01*
X240978716Y-103698361D01*
X241018161Y-103657173D01*
X241031234Y-103648633D01*
X241060841Y-103621378D01*
X241615588Y-103621378D01*
X242049999Y-104055789D01*
X242050000Y-104055789D01*
X242484411Y-103621377D01*
X242484410Y-103621376D01*
X242330178Y-103552709D01*
X242144771Y-103513300D01*
X241955229Y-103513300D01*
X241769824Y-103552708D01*
X241615588Y-103621378D01*
X241060841Y-103621378D01*
X241068928Y-103613934D01*
X241172361Y-103518717D01*
X241206560Y-103487235D01*
X241352929Y-103299179D01*
X241466349Y-103089597D01*
X241543726Y-102864206D01*
X241581978Y-102634979D01*
X241582950Y-102629155D01*
X241582950Y-102390844D01*
X241551907Y-102204820D01*
X241543726Y-102155794D01*
X241466349Y-101930403D01*
X241403306Y-101813910D01*
X241352930Y-101720822D01*
X241323655Y-101683209D01*
X241206560Y-101532765D01*
X241206556Y-101532761D01*
X241031235Y-101371367D01*
X240831734Y-101241027D01*
X240613500Y-101145300D01*
X240382495Y-101086802D01*
X240382493Y-101086801D01*
X240382490Y-101086801D01*
X240263332Y-101076927D01*
X240207070Y-101072265D01*
X240207063Y-101072264D01*
X240204472Y-101072050D01*
X240085528Y-101072050D01*
X240082937Y-101072264D01*
X240082929Y-101072265D01*
X240009807Y-101078324D01*
X239907510Y-101086801D01*
X239907507Y-101086801D01*
X239907504Y-101086802D01*
X239676499Y-101145300D01*
X239458265Y-101241027D01*
X239258764Y-101371367D01*
X239083443Y-101532761D01*
X238937069Y-101720822D01*
X238823650Y-101930403D01*
X238746273Y-102155797D01*
X238707050Y-102390844D01*
X238707050Y-102629155D01*
X238746273Y-102864202D01*
X238823650Y-103089596D01*
X238937069Y-103299177D01*
X238945010Y-103309379D01*
X239083440Y-103487235D01*
X239083442Y-103487237D01*
X239083443Y-103487238D01*
X239258764Y-103648632D01*
X239271838Y-103657174D01*
X239317927Y-103711177D01*
X239327502Y-103781525D01*
X239297525Y-103845882D01*
X239251141Y-103879066D01*
X239210335Y-103895968D01*
X239165986Y-103929998D01*
X239099765Y-103955598D01*
X239030217Y-103941333D01*
X238979421Y-103891731D01*
X238965198Y-103851918D01*
X238959332Y-103818646D01*
X238890279Y-103658562D01*
X238882887Y-103648633D01*
X238786169Y-103518718D01*
X238652614Y-103406650D01*
X238496817Y-103328407D01*
X238496816Y-103328406D01*
X238496815Y-103328406D01*
X238327171Y-103288200D01*
X238196564Y-103288200D01*
X238192936Y-103288623D01*
X238192919Y-103288625D01*
X238066834Y-103303363D01*
X237903006Y-103362991D01*
X237757348Y-103458792D01*
X237637703Y-103585607D01*
X237550533Y-103736593D01*
X237500531Y-103903612D01*
X237490393Y-104077659D01*
X237520668Y-104249355D01*
X237589721Y-104409439D01*
X237693830Y-104549281D01*
X237693831Y-104549282D01*
X237693832Y-104549283D01*
X237701605Y-104555805D01*
X237827385Y-104661349D01*
X237839004Y-104667184D01*
X237983185Y-104739594D01*
X238152829Y-104779800D01*
X238152831Y-104779800D01*
X238279767Y-104779800D01*
X238283436Y-104779800D01*
X238413164Y-104764637D01*
X238576993Y-104705008D01*
X238722654Y-104609205D01*
X238745181Y-104585327D01*
X238806474Y-104549505D01*
X238877407Y-104552507D01*
X238935457Y-104593382D01*
X238953238Y-104623576D01*
X238990968Y-104714665D01*
X239086211Y-104838788D01*
X239223496Y-104944131D01*
X239223057Y-104944701D01*
X239264552Y-104978139D01*
X239286973Y-105045502D01*
X239269415Y-105114293D01*
X239217453Y-105162672D01*
X239210481Y-105165855D01*
X239086211Y-105261211D01*
X238990969Y-105385334D01*
X238953072Y-105476825D01*
X238908523Y-105532105D01*
X238841160Y-105554526D01*
X238772368Y-105536967D01*
X238755671Y-105525127D01*
X238652613Y-105438650D01*
X238496817Y-105360407D01*
X238496816Y-105360406D01*
X238496815Y-105360406D01*
X238327171Y-105320200D01*
X238196564Y-105320200D01*
X238192936Y-105320623D01*
X238192919Y-105320625D01*
X238066834Y-105335363D01*
X237903006Y-105394991D01*
X237757348Y-105490792D01*
X237637703Y-105617607D01*
X237590221Y-105699850D01*
X237550533Y-105768593D01*
X237500531Y-105935612D01*
X237490393Y-106109660D01*
X235513654Y-106109660D01*
X235663625Y-105785503D01*
X235781364Y-105436066D01*
X235860632Y-105075948D01*
X235900500Y-104709370D01*
X235900500Y-104340630D01*
X235860632Y-103974052D01*
X235781364Y-103613934D01*
X235663625Y-103264497D01*
X235508795Y-102929838D01*
X235318690Y-102613881D01*
X235095538Y-102320330D01*
X235046194Y-102268238D01*
X234844301Y-102055102D01*
X234844295Y-102055096D01*
X234841956Y-102052627D01*
X234560917Y-101813910D01*
X234423623Y-101720822D01*
X234258538Y-101608891D01*
X234258533Y-101608888D01*
X234255716Y-101606978D01*
X234115728Y-101532761D01*
X233932941Y-101435853D01*
X233932936Y-101435850D01*
X233929930Y-101434257D01*
X233926763Y-101432995D01*
X233590548Y-101299035D01*
X233590537Y-101299031D01*
X233587379Y-101297773D01*
X233584098Y-101296862D01*
X233584092Y-101296860D01*
X233235375Y-101200039D01*
X233235365Y-101200036D01*
X233232081Y-101199125D01*
X233228722Y-101198574D01*
X233228707Y-101198571D01*
X232871576Y-101140022D01*
X232871564Y-101140020D01*
X232868199Y-101139469D01*
X232864789Y-101139284D01*
X232864779Y-101139283D01*
X232593831Y-101124593D01*
X232593819Y-101124592D01*
X232592110Y-101124500D01*
X232407890Y-101124500D01*
X232406181Y-101124592D01*
X232406168Y-101124593D01*
X232135220Y-101139283D01*
X232135208Y-101139284D01*
X232131801Y-101139469D01*
X232128437Y-101140020D01*
X232128423Y-101140022D01*
X231771292Y-101198571D01*
X231771273Y-101198574D01*
X231767919Y-101199125D01*
X231764638Y-101200035D01*
X231764624Y-101200039D01*
X231415907Y-101296860D01*
X231415896Y-101296863D01*
X231412621Y-101297773D01*
X231409467Y-101299029D01*
X231409451Y-101299035D01*
X231073236Y-101432995D01*
X231073227Y-101432999D01*
X231070070Y-101434257D01*
X231067070Y-101435847D01*
X231067058Y-101435853D01*
X230747301Y-101605378D01*
X230747294Y-101605382D01*
X230744284Y-101606978D01*
X230741474Y-101608882D01*
X230741461Y-101608891D01*
X230441908Y-101811994D01*
X230441900Y-101811999D01*
X230439083Y-101813910D01*
X230436483Y-101816118D01*
X230436477Y-101816123D01*
X230160640Y-102050421D01*
X230160630Y-102050430D01*
X230158044Y-102052627D01*
X230155713Y-102055087D01*
X230155698Y-102055102D01*
X229906814Y-102317846D01*
X229906805Y-102317855D01*
X229904462Y-102320330D01*
X229902395Y-102323048D01*
X229902395Y-102323049D01*
X229683380Y-102611157D01*
X229683373Y-102611165D01*
X229681310Y-102613881D01*
X229679552Y-102616802D01*
X229679541Y-102616819D01*
X229607962Y-102735783D01*
X229555703Y-102783840D01*
X229485758Y-102796015D01*
X229420335Y-102768442D01*
X229392036Y-102735783D01*
X229318690Y-102613881D01*
X229095538Y-102320330D01*
X229046194Y-102268238D01*
X228844301Y-102055102D01*
X228844295Y-102055096D01*
X228841956Y-102052627D01*
X228560917Y-101813910D01*
X228423623Y-101720822D01*
X228258538Y-101608891D01*
X228258533Y-101608888D01*
X228255716Y-101606978D01*
X228115728Y-101532761D01*
X227932941Y-101435853D01*
X227932936Y-101435850D01*
X227929930Y-101434257D01*
X227926763Y-101432995D01*
X227590548Y-101299035D01*
X227590537Y-101299031D01*
X227587379Y-101297773D01*
X227584098Y-101296862D01*
X227584092Y-101296860D01*
X227235375Y-101200039D01*
X227235365Y-101200036D01*
X227232081Y-101199125D01*
X227228722Y-101198574D01*
X227228707Y-101198571D01*
X226871576Y-101140022D01*
X226871564Y-101140020D01*
X226868199Y-101139469D01*
X226864789Y-101139284D01*
X226864779Y-101139283D01*
X226593831Y-101124593D01*
X226593819Y-101124592D01*
X226592110Y-101124500D01*
X226407890Y-101124500D01*
X226406181Y-101124592D01*
X226406168Y-101124593D01*
X226135220Y-101139283D01*
X226135208Y-101139284D01*
X226131801Y-101139469D01*
X226128437Y-101140020D01*
X226128423Y-101140022D01*
X225771292Y-101198571D01*
X225771273Y-101198574D01*
X225767919Y-101199125D01*
X225764638Y-101200035D01*
X225764624Y-101200039D01*
X225415907Y-101296860D01*
X225415896Y-101296863D01*
X225412621Y-101297773D01*
X225409467Y-101299029D01*
X225409451Y-101299035D01*
X225073236Y-101432995D01*
X225073227Y-101432999D01*
X225070070Y-101434257D01*
X225067070Y-101435847D01*
X225067058Y-101435853D01*
X224747301Y-101605378D01*
X224747294Y-101605382D01*
X224744284Y-101606978D01*
X224741474Y-101608882D01*
X224741461Y-101608891D01*
X224441908Y-101811994D01*
X224441900Y-101811999D01*
X224439083Y-101813910D01*
X224436483Y-101816118D01*
X224436477Y-101816123D01*
X224160640Y-102050421D01*
X224160630Y-102050430D01*
X224158044Y-102052627D01*
X224155713Y-102055087D01*
X224155698Y-102055102D01*
X223906814Y-102317846D01*
X223906805Y-102317855D01*
X223904462Y-102320330D01*
X223902395Y-102323048D01*
X223902395Y-102323049D01*
X223683380Y-102611157D01*
X223683373Y-102611165D01*
X223681310Y-102613881D01*
X223679552Y-102616801D01*
X223679545Y-102616813D01*
X223500000Y-102915220D01*
X223491205Y-102929838D01*
X223489775Y-102932928D01*
X223489768Y-102932942D01*
X223337808Y-103261398D01*
X223337803Y-103261409D01*
X223336375Y-103264497D01*
X223335289Y-103267719D01*
X223335285Y-103267730D01*
X223219726Y-103610697D01*
X223219722Y-103610708D01*
X223218636Y-103613934D01*
X223217905Y-103617253D01*
X223217901Y-103617269D01*
X223142843Y-103958263D01*
X223139368Y-103974052D01*
X223138999Y-103977442D01*
X223138999Y-103977444D01*
X223099869Y-104337231D01*
X223099868Y-104337243D01*
X223099500Y-104340630D01*
X223099500Y-104709370D01*
X188358477Y-104709370D01*
X188278352Y-104702246D01*
X188272785Y-104702000D01*
X188024000Y-104702000D01*
X188024000Y-105676325D01*
X187912315Y-105625320D01*
X187805763Y-105610000D01*
X187734237Y-105610000D01*
X187627685Y-105625320D01*
X187516000Y-105676325D01*
X187516000Y-104702000D01*
X187267215Y-104702000D01*
X187261647Y-104702246D01*
X187150120Y-104712162D01*
X186962794Y-104765762D01*
X186790102Y-104855970D01*
X186639097Y-104979098D01*
X186597652Y-105029927D01*
X186539101Y-105070081D01*
X186468136Y-105072206D01*
X186407288Y-105035628D01*
X186402348Y-105029927D01*
X186360902Y-104979098D01*
X186209897Y-104855970D01*
X186037205Y-104765762D01*
X185849879Y-104712162D01*
X185738352Y-104702246D01*
X185732785Y-104702000D01*
X185484000Y-104702000D01*
X185484000Y-105676325D01*
X185372315Y-105625320D01*
X185265763Y-105610000D01*
X185194237Y-105610000D01*
X185087685Y-105625320D01*
X184976000Y-105676325D01*
X184976000Y-104702000D01*
X184727215Y-104702000D01*
X184721647Y-104702246D01*
X184610120Y-104712162D01*
X184422794Y-104765762D01*
X184250102Y-104855970D01*
X184099098Y-104979098D01*
X183975969Y-105130102D01*
X183896219Y-105282776D01*
X183846950Y-105333894D01*
X183777866Y-105350261D01*
X183710900Y-105326680D01*
X183676084Y-105288577D01*
X183658081Y-105258135D01*
X183658079Y-105258133D01*
X183658078Y-105258131D01*
X183541868Y-105141921D01*
X183521883Y-105130102D01*
X183400398Y-105058256D01*
X183242569Y-105012402D01*
X183208150Y-105009693D01*
X183208142Y-105009692D01*
X183205694Y-105009500D01*
X182174306Y-105009500D01*
X182171858Y-105009692D01*
X182171849Y-105009693D01*
X182137430Y-105012402D01*
X181979602Y-105058256D01*
X181838131Y-105141921D01*
X181721921Y-105258131D01*
X181638256Y-105399602D01*
X181594353Y-105550717D01*
X181592402Y-105557431D01*
X181589500Y-105594306D01*
X181589500Y-106625694D01*
X170100500Y-106625694D01*
X170100500Y-95184370D01*
X171599500Y-95184370D01*
X171599868Y-95187757D01*
X171599869Y-95187768D01*
X171638092Y-95539220D01*
X171639368Y-95550948D01*
X171640100Y-95554275D01*
X171640101Y-95554279D01*
X171717901Y-95907730D01*
X171717904Y-95907741D01*
X171718636Y-95911066D01*
X171836375Y-96260503D01*
X171991205Y-96595162D01*
X172181310Y-96911119D01*
X172404462Y-97204670D01*
X172406813Y-97207152D01*
X172406814Y-97207153D01*
X172655698Y-97469897D01*
X172655703Y-97469902D01*
X172658044Y-97472373D01*
X172939083Y-97711090D01*
X173244284Y-97918022D01*
X173570070Y-98090743D01*
X173912621Y-98227227D01*
X174267919Y-98325875D01*
X174631801Y-98385531D01*
X174907890Y-98400500D01*
X174909610Y-98400500D01*
X175090390Y-98400500D01*
X175092110Y-98400500D01*
X175368199Y-98385531D01*
X175732081Y-98325875D01*
X176087379Y-98227227D01*
X176429930Y-98090743D01*
X176755716Y-97918022D01*
X177060917Y-97711090D01*
X177341956Y-97472373D01*
X177595538Y-97204670D01*
X177818690Y-96911119D01*
X178008795Y-96595162D01*
X178163625Y-96260503D01*
X178281364Y-95911066D01*
X178360632Y-95550948D01*
X178400500Y-95184370D01*
X216599500Y-95184370D01*
X216599868Y-95187757D01*
X216599869Y-95187768D01*
X216638092Y-95539220D01*
X216639368Y-95550948D01*
X216640100Y-95554275D01*
X216640101Y-95554279D01*
X216717901Y-95907730D01*
X216717904Y-95907741D01*
X216718636Y-95911066D01*
X216836375Y-96260503D01*
X216991205Y-96595162D01*
X217181310Y-96911119D01*
X217404462Y-97204670D01*
X217406813Y-97207152D01*
X217406814Y-97207153D01*
X217655698Y-97469897D01*
X217655703Y-97469902D01*
X217658044Y-97472373D01*
X217939083Y-97711090D01*
X218244284Y-97918022D01*
X218570070Y-98090743D01*
X218912621Y-98227227D01*
X219267919Y-98325875D01*
X219631801Y-98385531D01*
X219907890Y-98400500D01*
X219909610Y-98400500D01*
X220090390Y-98400500D01*
X220092110Y-98400500D01*
X220368199Y-98385531D01*
X220732081Y-98325875D01*
X221087379Y-98227227D01*
X221429930Y-98090743D01*
X221755716Y-97918022D01*
X222060917Y-97711090D01*
X222341956Y-97472373D01*
X222595538Y-97204670D01*
X222818690Y-96911119D01*
X223008795Y-96595162D01*
X223163625Y-96260503D01*
X223281364Y-95911066D01*
X223360632Y-95550948D01*
X223400500Y-95184370D01*
X261599500Y-95184370D01*
X261599868Y-95187757D01*
X261599869Y-95187768D01*
X261638092Y-95539220D01*
X261639368Y-95550948D01*
X261640100Y-95554275D01*
X261640101Y-95554279D01*
X261717901Y-95907730D01*
X261717904Y-95907741D01*
X261718636Y-95911066D01*
X261836375Y-96260503D01*
X261991205Y-96595162D01*
X262181310Y-96911119D01*
X262404462Y-97204670D01*
X262406813Y-97207152D01*
X262406814Y-97207153D01*
X262655698Y-97469897D01*
X262655703Y-97469902D01*
X262658044Y-97472373D01*
X262939083Y-97711090D01*
X263244284Y-97918022D01*
X263570070Y-98090743D01*
X263912621Y-98227227D01*
X264267919Y-98325875D01*
X264631801Y-98385531D01*
X264907890Y-98400500D01*
X264909610Y-98400500D01*
X265090390Y-98400500D01*
X265092110Y-98400500D01*
X265368199Y-98385531D01*
X265732081Y-98325875D01*
X266087379Y-98227227D01*
X266429930Y-98090743D01*
X266755716Y-97918022D01*
X267060917Y-97711090D01*
X267341956Y-97472373D01*
X267595538Y-97204670D01*
X267818690Y-96911119D01*
X268008795Y-96595162D01*
X268163625Y-96260503D01*
X268281364Y-95911066D01*
X268360632Y-95550948D01*
X268400500Y-95184370D01*
X268400500Y-94815630D01*
X268360632Y-94449052D01*
X268281364Y-94088934D01*
X268163625Y-93739497D01*
X268008795Y-93404838D01*
X267818690Y-93088881D01*
X267595538Y-92795330D01*
X267581231Y-92780227D01*
X267344301Y-92530102D01*
X267344295Y-92530096D01*
X267341956Y-92527627D01*
X267060917Y-92288910D01*
X267004169Y-92250434D01*
X266758538Y-92083891D01*
X266758533Y-92083888D01*
X266755716Y-92081978D01*
X266715275Y-92060537D01*
X266432941Y-91910853D01*
X266432936Y-91910850D01*
X266429930Y-91909257D01*
X266426763Y-91907995D01*
X266090548Y-91774035D01*
X266090537Y-91774031D01*
X266087379Y-91772773D01*
X266084098Y-91771862D01*
X266084092Y-91771860D01*
X265735375Y-91675039D01*
X265735365Y-91675036D01*
X265732081Y-91674125D01*
X265728722Y-91673574D01*
X265728707Y-91673571D01*
X265371576Y-91615022D01*
X265371564Y-91615020D01*
X265368199Y-91614469D01*
X265364789Y-91614284D01*
X265364779Y-91614283D01*
X265093831Y-91599593D01*
X265093819Y-91599592D01*
X265092110Y-91599500D01*
X264907890Y-91599500D01*
X264906181Y-91599592D01*
X264906168Y-91599593D01*
X264635220Y-91614283D01*
X264635208Y-91614284D01*
X264631801Y-91614469D01*
X264628437Y-91615020D01*
X264628423Y-91615022D01*
X264271292Y-91673571D01*
X264271273Y-91673574D01*
X264267919Y-91674125D01*
X264264638Y-91675035D01*
X264264624Y-91675039D01*
X263915907Y-91771860D01*
X263915896Y-91771863D01*
X263912621Y-91772773D01*
X263909467Y-91774029D01*
X263909451Y-91774035D01*
X263573236Y-91907995D01*
X263573227Y-91907999D01*
X263570070Y-91909257D01*
X263567070Y-91910847D01*
X263567058Y-91910853D01*
X263247301Y-92080378D01*
X263247294Y-92080382D01*
X263244284Y-92081978D01*
X263241474Y-92083882D01*
X263241461Y-92083891D01*
X262941908Y-92286994D01*
X262941900Y-92286999D01*
X262939083Y-92288910D01*
X262936483Y-92291118D01*
X262936477Y-92291123D01*
X262660640Y-92525421D01*
X262660630Y-92525430D01*
X262658044Y-92527627D01*
X262655713Y-92530087D01*
X262655698Y-92530102D01*
X262406814Y-92792846D01*
X262406805Y-92792855D01*
X262404462Y-92795330D01*
X262402395Y-92798048D01*
X262402395Y-92798049D01*
X262183380Y-93086157D01*
X262183373Y-93086165D01*
X262181310Y-93088881D01*
X262179552Y-93091801D01*
X262179545Y-93091813D01*
X261992966Y-93401911D01*
X261991205Y-93404838D01*
X261989775Y-93407928D01*
X261989768Y-93407942D01*
X261837808Y-93736398D01*
X261837803Y-93736409D01*
X261836375Y-93739497D01*
X261835289Y-93742719D01*
X261835285Y-93742730D01*
X261719726Y-94085697D01*
X261719722Y-94085708D01*
X261718636Y-94088934D01*
X261717905Y-94092253D01*
X261717901Y-94092269D01*
X261640101Y-94445720D01*
X261639368Y-94449052D01*
X261638999Y-94452442D01*
X261638999Y-94452444D01*
X261599869Y-94812231D01*
X261599868Y-94812243D01*
X261599500Y-94815630D01*
X261599500Y-95184370D01*
X223400500Y-95184370D01*
X223400500Y-94815630D01*
X223360632Y-94449052D01*
X223281364Y-94088934D01*
X223163625Y-93739497D01*
X223008795Y-93404838D01*
X222818690Y-93088881D01*
X222595538Y-92795330D01*
X222581231Y-92780227D01*
X222344301Y-92530102D01*
X222344295Y-92530096D01*
X222341956Y-92527627D01*
X222060917Y-92288910D01*
X222004169Y-92250434D01*
X221758538Y-92083891D01*
X221758533Y-92083888D01*
X221755716Y-92081978D01*
X221715275Y-92060537D01*
X221432941Y-91910853D01*
X221432936Y-91910850D01*
X221429930Y-91909257D01*
X221426763Y-91907995D01*
X221090548Y-91774035D01*
X221090537Y-91774031D01*
X221087379Y-91772773D01*
X221084098Y-91771862D01*
X221084092Y-91771860D01*
X220735375Y-91675039D01*
X220735365Y-91675036D01*
X220732081Y-91674125D01*
X220728722Y-91673574D01*
X220728707Y-91673571D01*
X220371576Y-91615022D01*
X220371564Y-91615020D01*
X220368199Y-91614469D01*
X220364789Y-91614284D01*
X220364779Y-91614283D01*
X220093831Y-91599593D01*
X220093819Y-91599592D01*
X220092110Y-91599500D01*
X219907890Y-91599500D01*
X219906181Y-91599592D01*
X219906168Y-91599593D01*
X219635220Y-91614283D01*
X219635208Y-91614284D01*
X219631801Y-91614469D01*
X219628437Y-91615020D01*
X219628423Y-91615022D01*
X219271292Y-91673571D01*
X219271273Y-91673574D01*
X219267919Y-91674125D01*
X219264638Y-91675035D01*
X219264624Y-91675039D01*
X218915907Y-91771860D01*
X218915896Y-91771863D01*
X218912621Y-91772773D01*
X218909467Y-91774029D01*
X218909451Y-91774035D01*
X218573236Y-91907995D01*
X218573227Y-91907999D01*
X218570070Y-91909257D01*
X218567070Y-91910847D01*
X218567058Y-91910853D01*
X218247301Y-92080378D01*
X218247294Y-92080382D01*
X218244284Y-92081978D01*
X218241474Y-92083882D01*
X218241461Y-92083891D01*
X217941908Y-92286994D01*
X217941900Y-92286999D01*
X217939083Y-92288910D01*
X217936483Y-92291118D01*
X217936477Y-92291123D01*
X217660640Y-92525421D01*
X217660630Y-92525430D01*
X217658044Y-92527627D01*
X217655713Y-92530087D01*
X217655698Y-92530102D01*
X217406814Y-92792846D01*
X217406805Y-92792855D01*
X217404462Y-92795330D01*
X217402395Y-92798048D01*
X217402395Y-92798049D01*
X217183380Y-93086157D01*
X217183373Y-93086165D01*
X217181310Y-93088881D01*
X217179552Y-93091801D01*
X217179545Y-93091813D01*
X216992966Y-93401911D01*
X216991205Y-93404838D01*
X216989775Y-93407928D01*
X216989768Y-93407942D01*
X216837808Y-93736398D01*
X216837803Y-93736409D01*
X216836375Y-93739497D01*
X216835289Y-93742719D01*
X216835285Y-93742730D01*
X216719726Y-94085697D01*
X216719722Y-94085708D01*
X216718636Y-94088934D01*
X216717905Y-94092253D01*
X216717901Y-94092269D01*
X216640101Y-94445720D01*
X216639368Y-94449052D01*
X216638999Y-94452442D01*
X216638999Y-94452444D01*
X216599869Y-94812231D01*
X216599868Y-94812243D01*
X216599500Y-94815630D01*
X216599500Y-95184370D01*
X178400500Y-95184370D01*
X178400500Y-94815630D01*
X178360632Y-94449052D01*
X178281364Y-94088934D01*
X178163625Y-93739497D01*
X178008795Y-93404838D01*
X177818690Y-93088881D01*
X177595538Y-92795330D01*
X177581231Y-92780227D01*
X177344301Y-92530102D01*
X177344295Y-92530096D01*
X177341956Y-92527627D01*
X177060917Y-92288910D01*
X177004169Y-92250434D01*
X176758538Y-92083891D01*
X176758533Y-92083888D01*
X176755716Y-92081978D01*
X176715275Y-92060537D01*
X176432941Y-91910853D01*
X176432936Y-91910850D01*
X176429930Y-91909257D01*
X176426763Y-91907995D01*
X176090548Y-91774035D01*
X176090537Y-91774031D01*
X176087379Y-91772773D01*
X176084098Y-91771862D01*
X176084092Y-91771860D01*
X175735375Y-91675039D01*
X175735365Y-91675036D01*
X175732081Y-91674125D01*
X175728722Y-91673574D01*
X175728707Y-91673571D01*
X175371576Y-91615022D01*
X175371564Y-91615020D01*
X175368199Y-91614469D01*
X175364789Y-91614284D01*
X175364779Y-91614283D01*
X175093831Y-91599593D01*
X175093819Y-91599592D01*
X175092110Y-91599500D01*
X174907890Y-91599500D01*
X174906181Y-91599592D01*
X174906168Y-91599593D01*
X174635220Y-91614283D01*
X174635208Y-91614284D01*
X174631801Y-91614469D01*
X174628437Y-91615020D01*
X174628423Y-91615022D01*
X174271292Y-91673571D01*
X174271273Y-91673574D01*
X174267919Y-91674125D01*
X174264638Y-91675035D01*
X174264624Y-91675039D01*
X173915907Y-91771860D01*
X173915896Y-91771863D01*
X173912621Y-91772773D01*
X173909467Y-91774029D01*
X173909451Y-91774035D01*
X173573236Y-91907995D01*
X173573227Y-91907999D01*
X173570070Y-91909257D01*
X173567070Y-91910847D01*
X173567058Y-91910853D01*
X173247301Y-92080378D01*
X173247294Y-92080382D01*
X173244284Y-92081978D01*
X173241474Y-92083882D01*
X173241461Y-92083891D01*
X172941908Y-92286994D01*
X172941900Y-92286999D01*
X172939083Y-92288910D01*
X172936483Y-92291118D01*
X172936477Y-92291123D01*
X172660640Y-92525421D01*
X172660630Y-92525430D01*
X172658044Y-92527627D01*
X172655713Y-92530087D01*
X172655698Y-92530102D01*
X172406814Y-92792846D01*
X172406805Y-92792855D01*
X172404462Y-92795330D01*
X172402395Y-92798048D01*
X172402395Y-92798049D01*
X172183380Y-93086157D01*
X172183373Y-93086165D01*
X172181310Y-93088881D01*
X172179552Y-93091801D01*
X172179545Y-93091813D01*
X171992966Y-93401911D01*
X171991205Y-93404838D01*
X171989775Y-93407928D01*
X171989768Y-93407942D01*
X171837808Y-93736398D01*
X171837803Y-93736409D01*
X171836375Y-93739497D01*
X171835289Y-93742719D01*
X171835285Y-93742730D01*
X171719726Y-94085697D01*
X171719722Y-94085708D01*
X171718636Y-94088934D01*
X171717905Y-94092253D01*
X171717901Y-94092269D01*
X171640101Y-94445720D01*
X171639368Y-94449052D01*
X171638999Y-94452442D01*
X171638999Y-94452444D01*
X171599869Y-94812231D01*
X171599868Y-94812243D01*
X171599500Y-94815630D01*
X171599500Y-95184370D01*
X170100500Y-95184370D01*
X170100500Y-92004120D01*
X170100770Y-91995881D01*
X170109523Y-91862326D01*
X170116210Y-91760298D01*
X170118358Y-91743979D01*
X170163616Y-91516456D01*
X170167875Y-91500561D01*
X170242441Y-91280898D01*
X170248735Y-91265702D01*
X170351339Y-91057641D01*
X170359563Y-91043398D01*
X170488444Y-90850513D01*
X170498457Y-90837463D01*
X170651418Y-90663045D01*
X170663045Y-90651418D01*
X170837463Y-90498457D01*
X170850513Y-90488444D01*
X171043398Y-90359563D01*
X171057641Y-90351339D01*
X171265702Y-90248735D01*
X171280898Y-90242441D01*
X171500561Y-90167875D01*
X171516456Y-90163616D01*
X171743979Y-90118358D01*
X171760298Y-90116210D01*
X171984271Y-90101530D01*
X171995881Y-90100770D01*
X172004121Y-90100500D01*
X172026929Y-90100500D01*
X267973071Y-90100500D01*
X267995879Y-90100500D01*
X268004119Y-90100770D01*
G37*
%TD.AperFunction*%
%TD*%
M02*
