%TF.GenerationSoftware,KiCad,Pcbnew,7.0.2-6a45011f42~172~ubuntu22.04.1*%
%TF.CreationDate,2023-05-30T13:10:43+12:00*%
%TF.ProjectId,THE_BRAWN-20A_LOGIC_FIXTURE,5448455f-4252-4415-974e-2d3230415f4c,v1.0*%
%TF.SameCoordinates,Original*%
%TF.FileFunction,Soldermask,Bot*%
%TF.FilePolarity,Negative*%
%FSLAX46Y46*%
G04 Gerber Fmt 4.6, Leading zero omitted, Abs format (unit mm)*
G04 Created by KiCad (PCBNEW 7.0.2-6a45011f42~172~ubuntu22.04.1) date 2023-05-30 13:10:43*
%MOMM*%
%LPD*%
G01*
G04 APERTURE LIST*
G04 Aperture macros list*
%AMRoundRect*
0 Rectangle with rounded corners*
0 $1 Rounding radius*
0 $2 $3 $4 $5 $6 $7 $8 $9 X,Y pos of 4 corners*
0 Add a 4 corners polygon primitive as box body*
4,1,4,$2,$3,$4,$5,$6,$7,$8,$9,$2,$3,0*
0 Add four circle primitives for the rounded corners*
1,1,$1+$1,$2,$3*
1,1,$1+$1,$4,$5*
1,1,$1+$1,$6,$7*
1,1,$1+$1,$8,$9*
0 Add four rect primitives between the rounded corners*
20,1,$1+$1,$2,$3,$4,$5,0*
20,1,$1+$1,$4,$5,$6,$7,0*
20,1,$1+$1,$6,$7,$8,$9,0*
20,1,$1+$1,$8,$9,$2,$3,0*%
G04 Aperture macros list end*
%ADD10C,2.200000*%
%ADD11C,3.200000*%
%ADD12C,1.400000*%
%ADD13C,2.374900*%
%ADD14C,0.990600*%
%ADD15C,1.300000*%
%ADD16RoundRect,0.450000X0.450000X-0.450000X0.450000X0.450000X-0.450000X0.450000X-0.450000X-0.450000X0*%
%ADD17C,3.000000*%
%ADD18RoundRect,0.200000X0.275000X-0.200000X0.275000X0.200000X-0.275000X0.200000X-0.275000X-0.200000X0*%
%ADD19RoundRect,0.200000X-0.200000X-0.275000X0.200000X-0.275000X0.200000X0.275000X-0.200000X0.275000X0*%
%ADD20RoundRect,0.450000X0.450000X0.450000X-0.450000X0.450000X-0.450000X-0.450000X0.450000X-0.450000X0*%
G04 APERTURE END LIST*
D10*
%TO.C,TP21*%
X228500000Y-143820000D03*
%TD*%
D11*
%TO.C,M3*%
X265000000Y-185000000D03*
%TD*%
D10*
%TO.C,TP14*%
X221500000Y-138500000D03*
%TD*%
D11*
%TO.C,M5*%
X175000000Y-95000000D03*
%TD*%
D10*
%TO.C,TP9*%
X218500000Y-141500000D03*
%TD*%
D11*
%TO.C,M6*%
X265000000Y-140000000D03*
%TD*%
%TO.C,M11*%
X232500000Y-104525000D03*
%TD*%
D10*
%TO.C,TP1*%
X211500000Y-136200000D03*
%TD*%
D11*
%TO.C,M4*%
X220000000Y-95000000D03*
%TD*%
%TO.C,M15*%
X233000000Y-149000000D03*
%TD*%
D10*
%TO.C,TP5*%
X217000000Y-132900000D03*
%TD*%
D11*
%TO.C,M7*%
X175000000Y-140000000D03*
%TD*%
D12*
%TO.C,TP12*%
X226000000Y-131200000D03*
%TD*%
D11*
%TO.C,M12*%
X226500000Y-104525000D03*
%TD*%
D10*
%TO.C,TP10*%
X220000000Y-132900000D03*
%TD*%
D11*
%TO.C,M1*%
X175000000Y-185000000D03*
%TD*%
D13*
%TO.C,N1*%
X245860000Y-107590000D03*
D14*
X245860000Y-105050000D03*
D13*
X245860000Y-102510000D03*
X240145000Y-107590000D03*
X240145000Y-102510000D03*
D14*
X238240000Y-106066000D03*
X238240000Y-104034000D03*
%TD*%
D11*
%TO.C,M2*%
X265000000Y-95000000D03*
%TD*%
D10*
%TO.C,TP19*%
X228500000Y-138740000D03*
%TD*%
D15*
%TO.C,TP11*%
X222000000Y-131200000D03*
%TD*%
D11*
%TO.C,M16*%
X233000000Y-158000000D03*
%TD*%
D10*
%TO.C,TP18*%
X228500000Y-136200000D03*
%TD*%
%TO.C,TP2*%
X211500000Y-138740000D03*
%TD*%
D16*
%TO.C,J5*%
X215000000Y-136000000D03*
X217540000Y-136000000D03*
%TD*%
D15*
%TO.C,TP7*%
X218000000Y-131200000D03*
%TD*%
D10*
%TO.C,TP13*%
X223000000Y-132900000D03*
%TD*%
D11*
%TO.C,M8*%
X220000000Y-185000000D03*
%TD*%
D10*
%TO.C,TP20*%
X228500000Y-141280000D03*
%TD*%
%TO.C,TP3*%
X211500000Y-141280000D03*
%TD*%
D17*
%TO.C,TP17*%
X231250000Y-109500000D03*
%TD*%
D12*
%TO.C,TP6*%
X214000000Y-131200000D03*
%TD*%
D10*
%TO.C,TP15*%
X221500000Y-141500000D03*
%TD*%
D17*
%TO.C,TP16*%
X227750000Y-109500000D03*
%TD*%
D10*
%TO.C,TP8*%
X218500000Y-138500000D03*
%TD*%
%TO.C,TP4*%
X211500000Y-143820000D03*
%TD*%
D18*
%TO.C,R8*%
X220000000Y-129625000D03*
X220000000Y-127975000D03*
%TD*%
%TO.C,R3*%
X218500000Y-129625000D03*
X218500000Y-127975000D03*
%TD*%
D16*
%TO.C,J3*%
X190310000Y-106110000D03*
X187770000Y-106110000D03*
X185230000Y-106110000D03*
X182690000Y-106110000D03*
%TD*%
D19*
%TO.C,R14*%
X230475000Y-141280000D03*
X232125000Y-141280000D03*
%TD*%
%TO.C,R1*%
X207875000Y-136200000D03*
X209525000Y-136200000D03*
%TD*%
D18*
%TO.C,R10*%
X226000000Y-129625000D03*
X226000000Y-127975000D03*
%TD*%
D16*
%TO.C,J2*%
X254770000Y-107769500D03*
X252230000Y-107769500D03*
X249690000Y-107769500D03*
%TD*%
D18*
%TO.C,R11*%
X221500000Y-129625000D03*
X221500000Y-127975000D03*
%TD*%
%TO.C,R4*%
X214000000Y-129625000D03*
X214000000Y-127975000D03*
%TD*%
D19*
%TO.C,R15*%
X230475000Y-143820000D03*
X232125000Y-143820000D03*
%TD*%
D18*
%TO.C,R7*%
X217000000Y-129625000D03*
X217000000Y-127975000D03*
%TD*%
D20*
%TO.C,J1*%
X257310000Y-102689500D03*
X257310000Y-105229500D03*
X257310000Y-107769500D03*
%TD*%
D18*
%TO.C,R9*%
X223000000Y-129625000D03*
X223000000Y-127975000D03*
%TD*%
D19*
%TO.C,R2*%
X207875000Y-138740000D03*
X209525000Y-138740000D03*
%TD*%
%TO.C,R12*%
X223425000Y-138500000D03*
X225075000Y-138500000D03*
%TD*%
D16*
%TO.C,J4*%
X189040000Y-123890000D03*
X186500000Y-123890000D03*
X183960000Y-123890000D03*
%TD*%
D17*
%TO.C,M13*%
X220000000Y-149000000D03*
%TD*%
D19*
%TO.C,R5*%
X214875000Y-138500000D03*
X216525000Y-138500000D03*
%TD*%
D17*
%TO.C,M10*%
X207000000Y-149000000D03*
%TD*%
%TO.C,M9*%
X220000000Y-158000000D03*
%TD*%
D19*
%TO.C,R13*%
X223425000Y-141500000D03*
X225075000Y-141500000D03*
%TD*%
%TO.C,R6*%
X214875000Y-141500000D03*
X216525000Y-141500000D03*
%TD*%
D17*
%TO.C,M14*%
X207000000Y-158000000D03*
%TD*%
M02*
